<svg width="154" height="168" viewBox="0 0 154 168" fill="none" xmlns="http://www.w3.org/2000/svg">
<path d="M49.1024 151.485L69.1597 153.997C72.9879 156.508 55.8049 166.653 51.3616 167.435C38.4838 169.692 24.0872 164.422 12.2135 164.965C8.20958 165.146 -0.0995101 170.021 0.000901936 164.282C0.0762109 159.884 17.6985 150.876 25.0914 150.612C26.3339 146.602 25.1667 142.501 25.1667 138.788C25.2043 115.657 24.0496 92.8724 22.694 69.9971C16.6316 71.6522 11.2973 76.6423 4.53199 76.6176C2.72458 76.6176 2.19741 76.7658 2.59906 75.3413C3.38981 72.5416 14.4226 65.4764 17.4475 62.0179C20.1084 58.963 21.2255 54.9528 23.9617 52.2931C28.2041 48.1676 37.6679 43.9351 44.6466 42C46.4163 42.2141 47.6338 51.906 47.797 53.9564C50.2822 83.6169 52.19 116.546 50.3826 146.207C50.2697 148.043 49.1024 149.674 49.1024 151.485Z" fill="#570006"/>
<path d="M108.574 117.794L127.531 124.81C130.686 128.128 111.643 134.09 107.139 133.839C94.0857 133.102 81.2689 124.689 69.5838 122.513C65.6439 121.777 56.4426 124.63 57.8483 119.064C58.9236 114.8 78.1352 110.044 85.3935 111.472C87.5173 107.851 87.3152 103.592 88.1615 99.9761C93.4693 77.4628 97.5373 55.0144 101.43 32.4321C95.1503 32.6621 88.8191 36.3053 82.2375 34.7395C80.4776 34.3276 79.9305 34.3518 80.6462 33.0563C82.0542 30.5104 94.4067 26.1454 98.1402 23.4673C101.427 21.099 103.429 17.449 106.699 15.4828C111.77 12.4326 121.949 10.4682 129.185 10.1743C130.86 10.7861 129.837 20.5005 129.528 22.5341C125.189 51.9805 119.542 84.4783 111.023 112.946C110.495 114.709 108.987 116.03 108.574 117.794Z" fill="#570006"/>
</svg>
