<svg width="115" height="157" viewBox="0 0 115 157" fill="none" xmlns="http://www.w3.org/2000/svg">
<path d="M40.0932 136.265L56.4704 139.391C59.5963 142.517 45.5659 155.143 41.9379 156.117C31.4229 158.925 19.6678 152.366 9.97261 153.042C6.70331 153.268 -0.0812522 159.335 0.000736451 152.191C0.062228 146.719 14.4512 135.507 20.4877 135.179C21.5023 130.188 20.5491 125.084 20.5491 120.462C20.5799 91.6736 19.637 63.3158 18.5302 34.8452C13.5801 36.9052 9.22446 43.1158 3.70048 43.0851C2.22468 43.0851 1.79424 43.2695 2.12219 41.4965C2.76785 38.012 11.7764 29.2187 14.2463 24.9143C16.419 21.1121 17.3311 16.121 19.5653 12.8107C23.0293 7.67619 30.7567 2.40842 36.455 0C37.9 0.266463 38.8941 12.329 39.0273 14.8809C41.0566 51.7964 42.6143 92.7804 41.1386 129.696C41.0463 131.981 40.0932 134.011 40.0932 136.265Z" fill="#570006"/>
<path d="M97.4853 136.265L113.862 139.391C116.988 142.517 102.958 155.143 99.33 156.117C88.815 158.925 77.0598 152.366 67.3647 153.042C64.0954 153.268 57.3108 159.335 57.3928 152.191C57.4543 146.719 71.8433 135.507 77.8797 135.179C78.8943 130.188 77.9412 125.084 77.9412 120.462C77.972 91.6736 77.0291 63.3158 75.9222 34.8452C70.9722 36.9052 66.6165 43.1158 61.0925 43.0851C59.6167 43.0851 59.1863 43.2695 59.5143 41.4965C60.1599 38.012 69.1684 29.2187 71.6383 24.9143C73.811 21.1121 74.7232 16.121 76.9573 12.8107C80.4214 7.67619 88.1488 2.40842 93.847 0C95.2921 0.266463 96.2862 12.329 96.4194 14.8809C98.4486 51.7964 100.006 92.7804 98.5306 129.696C98.4384 131.981 97.4853 134.011 97.4853 136.265Z" fill="#570006"/>
</svg>
