<svg width="166" height="183" viewBox="0 0 166 183" fill="none" xmlns="http://www.w3.org/2000/svg">
<path d="M97.6779 79.3483C103.483 78.5431 109.637 73.1086 111.989 70.492C117.095 72.0351 128.275 75.3227 132.145 76.1278C136.015 76.9329 146.255 73.7796 150.891 72.1022C149.681 81.4952 144.924 99.6371 135.572 97.0607C126.219 94.4843 117.162 98.1342 113.803 100.281L103.523 108.735C104.195 109.473 107.192 110.506 113.803 108.735C120.414 106.964 128.786 109.473 132.145 110.949C126.3 123.696 114.085 150.601 111.989 156.236C109.369 163.281 103.322 173.144 100.5 176.163C98.2423 178.578 99.5592 181.061 100.5 182L117.028 167.709L142.022 110.949C142.627 110.681 144.803 109.862 148.673 108.735C152.543 107.608 157.811 100.482 159.961 97.0607C159.827 96.524 159.235 95.7725 157.945 97.0607C156.655 98.3489 150.286 98.2684 147.262 98.0671L163.387 67.4728L165 56C160.23 58.2141 150.004 62.8837 147.262 63.8498C143.836 65.0575 138.998 61.8371 129.122 59.4217C121.221 57.4895 112.123 61.5687 108.562 63.8498C102.515 69.3514 91.8729 80.1534 97.6779 79.3483Z" fill="#570006" stroke="black"/>
<path d="M51.7043 118.468L70.4264 126.089C73.4734 129.506 54.249 134.854 49.7548 134.458C36.732 133.302 24.192 124.482 12.5828 121.932C8.66863 121.069 -0.61961 123.625 0.964106 118.108C2.17589 113.88 21.5302 109.744 28.739 111.405C30.978 107.853 30.9128 103.59 31.8748 100.003C37.9029 77.6719 42.6897 55.3658 47.306 32.9201C41.0218 32.9484 34.5769 36.3863 28.049 34.61C26.3032 34.1418 25.7557 34.1484 26.5126 32.8765C28.0016 30.3772 40.4879 26.4111 44.3055 23.8542C47.6669 21.5928 49.7847 18.0089 53.1165 16.1488C58.2827 13.2631 68.5199 11.6265 75.7616 11.5652C77.4155 12.2305 76.0809 21.907 75.7073 23.9296C70.4245 53.2215 63.7371 85.5212 54.3082 113.701C53.7234 115.445 52.1736 116.718 51.7043 118.468Z" fill="#570006"/>
</svg>
