<svg width="217" height="199" viewBox="0 0 217 199" fill="none" xmlns="http://www.w3.org/2000/svg">
<path d="M187.405 148.204C161.386 169.582 121.569 174.63 109.41 136.291C98.2969 101.259 104.824 69.6085 120.259 37.4157C125.715 26.0579 139.323 3.24152 152.503 0.288516C156.762 -0.670581 159.08 1.07094 162.306 1.0457C168.719 1.02046 170.912 -0.241511 178.321 1.66406C215.164 11.1415 217.923 57.7334 215.92 89.0554C214.256 114.964 207.377 131.798 187.405 148.204ZM144.288 23.0166C137.181 38.299 130.415 54.528 129.079 71.5014C127.164 95.9079 132.317 139.496 163.516 141.415C182.088 142.55 185.906 139.383 189.107 121.526C195.255 87.1877 192.168 22.1837 144.288 23.0166Z" fill="#570006"/>
<path d="M117.955 175.679C117.18 174.561 104.176 191.145 102.766 192.216C75.4769 212.849 58.5607 181.223 39.3067 166.345C34.784 162.85 22.4022 154.716 17.0102 154.705C11.207 154.705 5.3803 164.003 0 158.671C4.58148 146.995 16.74 142.17 25.2921 134.59C41.2098 120.477 72.916 75.9159 75.1597 55.0947C77.7206 31.2956 57.8206 18.5368 35.8647 21.6088C34.9602 21.7383 27.3714 24.2218 26.9955 24.4925C25.7033 25.4341 25.7385 27.9529 24.646 29.2005C22.1203 32.0606 8.41112 47.1381 4.54623 42.0181C2.39646 32.4137 15.0484 20.3847 22.3905 15.1706C40.7282 2.17646 63.0129 -6.08612 84.0525 5.60155C117.991 24.4572 85.8733 74.7153 70.2728 96.0898C60.8984 108.943 49.6797 121.231 38.7781 132.777C45.0747 135.861 50.3845 138.333 56.2699 142.299C66.8896 149.42 91.2184 176.385 100.722 177.915C105.679 178.716 108.804 173.313 112.481 172.43C114.913 171.842 117.767 173.325 118.684 172.819L117.955 175.691V175.679Z" fill="#570006"/>
</svg>
