<svg width="212" height="174" viewBox="0 0 212 174" fill="none" xmlns="http://www.w3.org/2000/svg">
<path d="M211.428 156.893C210.822 156.073 200.751 168.243 199.656 169.023C178.502 184.161 165.394 160.956 150.462 150.045C146.953 147.484 137.355 141.514 133.182 141.506C128.686 141.506 124.173 148.329 120 144.416C123.551 135.852 132.975 132.312 139.603 126.749C151.947 116.394 176.519 83.7045 178.261 68.425C180.244 50.9651 164.822 41.605 147.799 43.8601C147.094 43.9513 141.221 45.7752 140.922 45.9741C139.918 46.6623 139.943 48.5111 139.097 49.423C137.139 51.5205 126.512 62.5884 123.517 58.8245C121.85 51.7775 131.664 42.9481 137.355 39.1262C151.565 29.6003 168.829 23.5316 185.147 32.1123C211.461 45.9493 186.557 82.8257 174.462 98.5031C167.195 107.929 158.501 116.95 150.047 125.423C154.933 127.686 159.04 129.501 163.611 132.403C171.84 137.634 190.696 157.416 198.071 158.535C201.912 159.124 204.335 155.161 207.188 154.514C209.072 154.083 211.287 155.169 212 154.796L211.436 156.902L211.428 156.893Z" fill="#570006"/>
<path d="M54.1068 134.001C55.3097 132.298 55.0097 122.445 59.8027 118.202C65.4775 113.181 63.4182 120.606 65.1148 123.137C71.2661 132.291 96.0732 132.24 99.514 121.166C101.357 115.233 98.1906 99.854 95.7785 94.238C89.6289 79.8938 76.1225 68.5317 59.9037 78.5547C51.6756 83.6451 52.9071 90.1942 47.2842 94.8002C46.05 95.8129 46.3399 95.2914 45.7124 94.3506C40.7452 86.9258 53.0706 72.4712 55.7473 65.3374C60.2164 53.4523 59.1822 34.0075 43.3022 32.3197C39.2447 31.8873 29.8435 33.5277 27.1295 36.7067C24.6171 39.6429 24.7552 50.3124 17.9198 51.8078C14.6131 47.4589 15.1869 44.0483 16.4896 39.069C25.1603 5.98959 73.0268 1.15056 68.0655 41.809L65.0715 60.4957C86.1434 45.681 101.823 64.0078 107.521 82.5782C114.377 104.934 106.518 147.307 76.2439 149.46C67.8879 150.057 57.3265 147.094 54.5699 138.691" fill="#570006"/>
</svg>
