<svg width="85" height="146" viewBox="0 0 85 146" fill="none" xmlns="http://www.w3.org/2000/svg">
<path d="M59.01 59.9915C61.5939 58.8498 62.7466 56.6109 65.7768 56.1029C66.537 55.9724 71.6979 57.2813 71.9335 57.473C77.3166 62.0401 70.1579 71.0085 68.1931 76.2432C72.9355 88.6238 83.8251 97.494 84.8819 111.343C85.897 124.701 75.8492 149.01 58.6488 145.566C55.9996 145.038 52.608 144.464 52.6216 141.257C52.6276 138.546 57.8921 126.824 60.2897 125.466C63.1485 123.852 70.3789 128.464 73.8939 125.078C75.8112 121.834 52.8643 88.3772 51.6387 82.0194C42.7251 89.9984 30.6627 93.5797 20.2556 99.3991C17.1997 101.11 2.3383 113.921 0.652093 107.095C1.41572 95.7106 2.12303 84.3367 3.40038 72.9797C4.89062 59.7357 8.0635 26.9002 13.9639 16.2638C14.9896 14.4054 24.2848 0.937148 25.186 0.57793C27.4037 -0.311458 31.2745 10.9676 32.733 12.8624C43.0788 27.5139 50.7978 44.0339 59.01 59.9915ZM11.7427 88.9698L45.0946 69.6867L19.7228 21.6408C18.6485 22.7297 18.4428 24.4191 18.1143 25.8079C16.2489 33.7709 15.0964 47.1823 14.0926 55.7316C13.7201 58.9058 10.0998 88.5597 11.7357 88.9733L11.7427 88.9698Z" fill="#570006"/>
</svg>
