<svg width="46" height="92" viewBox="0 0 46 92" fill="none" xmlns="http://www.w3.org/2000/svg">
<path d="M24.4732 21.7484C50.2671 25.0222 50.2924 64.0435 38.0913 80.6717C29.3415 92.5977 15.7891 96.0494 3.60316 86.4568C-4.23068 80.2905 2.19125 73.4124 9.23057 71.5214C10.7488 76.4676 14.3114 79.2382 18.9773 81.1496C21.5582 82.207 28.7848 84.2099 31.057 82.2476C33.0712 80.5091 35.7179 67.7036 35.8798 64.7247C36.5326 52.514 33.0408 35.9518 19.7617 32.0731C14.3519 30.4921 6.11323 29.7804 1.26516 32.8712L0 31.2496C4.99483 26.0491 6.27517 19.2676 9.19515 13.0149C11.017 9.11582 16.9328 -0.273484 21.8113 0.00611038C26.1381 0.255204 32.2412 5.26757 37.0994 4.9524C39.3109 4.81006 41.7805 0.326373 44.9636 1.41425C45.9555 2.36487 41.0821 7.70259 40.1712 8.54138C32.4285 15.6532 26.4013 14.3569 17.1403 11.0679L13.0868 21.7484C16.6849 22.0738 20.9712 21.3061 24.4732 21.7484Z" fill="#570006"/>
</svg>
