<svg width="91" height="157" viewBox="0 0 91 157" fill="none" xmlns="http://www.w3.org/2000/svg">
<path d="M75.3721 0C77.1632 1.71953 68.1695 14.2693 66.6721 16.4448C55.7734 32.2816 41.2071 45.5248 30.8392 61.7416C44.8937 56.241 54.9584 55.025 68.6149 62.3591C95.6909 76.8849 96.7619 103.941 79.5609 127.226C59.4316 154.482 15.7232 176.285 2.67325 130.371C-10.3009 84.7415 26.8588 54.873 51.6509 23.0094C58.3417 14.4118 62.4832 0.760014 75.3721 0ZM29.664 74.3484C22.2435 75.4789 20.6513 81.0935 19.5425 87.9431C16.0454 109.518 26.3376 145.856 54.7499 139.387C65.2695 136.992 71.9982 121.412 72.5858 111.646C73.7989 91.6197 48.9404 71.4128 29.664 74.3484Z" fill="#570006"/>
</svg>
