<svg width="92" height="166" viewBox="0 0 92 166" fill="none" xmlns="http://www.w3.org/2000/svg">
<path d="M3.18861 31.3898C10.7604 30.3419 18.7878 23.2684 21.8551 19.8626C28.5154 21.8711 43.0981 26.1502 48.146 27.1981C53.1938 28.246 66.5495 24.1416 72.5964 21.9585C71.019 34.1842 64.8143 57.7974 52.6154 54.4441C40.4164 51.0907 28.6031 55.8413 24.2213 58.6358L10.813 69.639C11.6893 70.5996 15.5979 71.9444 24.2213 69.639C32.8447 67.3335 43.7641 70.5996 48.146 72.5208C40.5216 89.1129 24.5894 124.131 21.8551 131.466C18.4373 140.636 10.5501 153.473 6.86935 157.403C3.92478 160.546 5.64245 163.777 6.86935 165L28.4278 146.399L61.0285 72.5208C61.8172 72.1715 64.6566 71.1061 69.7044 69.639C74.7523 68.1719 81.6229 58.8978 84.4273 54.4441C84.252 53.7455 83.4808 52.7674 81.7982 54.4441C80.1156 56.1208 71.8077 56.016 67.8641 55.754L88.8967 15.9329L91 1C84.7778 3.88179 71.4396 9.95975 67.8641 11.2173C63.3946 12.7892 57.0848 8.59745 44.2023 5.45368C33.8963 2.93867 22.0304 8.24815 17.3857 11.2173C9.4984 18.3781 -4.38315 32.4377 3.18861 31.3898Z" fill="#570006" stroke="black"/>
</svg>
