<svg width="72" height="151" viewBox="0 0 72 151" fill="none" xmlns="http://www.w3.org/2000/svg">
<path d="M63.5287 12.551C75.0341 23.5546 72.7652 39.0865 68.6676 52.934C62.3011 74.4671 51.5153 94.4089 42.3974 114.698C38.613 123.111 37.25 131.948 34.1684 139.481C32.255 144.162 23.4588 151.263 18.1675 150.992C18.7347 133.742 30.0877 118.574 36.7844 103.161C40.3232 95.0268 42.8207 86.4355 46.0971 78.1998C39.0363 79.8757 33.7958 82.5166 26.1764 81.6109C6.68746 79.2748 -4.12372 51.986 1.47236 34.8374C4.6048 25.2474 9.14262 22.8859 14.7726 15.9706C16.6774 13.6344 18.0913 9.52927 20.1485 7.37089C33.2455 -6.36661 51.7609 1.28508 63.5287 12.5426V12.551ZM28.6654 60.8904C32.9238 64.4623 49.4327 70.1503 51.8455 64.0391C55.0034 56.0573 56.2563 43.3017 53.0646 35.2522C50.3301 28.3453 34.2361 15.4289 27.0314 15.4796C25.4229 15.4881 19.4374 20.0588 18.6416 21.5316C13.1132 31.6887 20.1824 53.772 28.6654 60.8904Z" fill="#570006"/>
</svg>
