<svg width="1304" height="294" viewBox="0 0 1304 294" fill="none" xmlns="http://www.w3.org/2000/svg">
<path d="M340.29 164.363L383.787 164.143L459.278 162.169L496.797 168.698L519.897 156.38L554.567 159.034C561.228 159.177 574.896 157.941 576.279 151.851C577.663 145.762 607.857 149.157 622.782 151.616L625.845 93.0733L479.243 89.2186L473.893 80.4048L375.377 74.7151L363.798 92.8092L333.563 92.9624L303.451 117.339L285.504 134.935L340.29 164.363Z" fill="#830000"/>
<path d="M629.862 83.3281L611.829 83.9498C611.647 82.8309 611.776 80.3784 613.752 79.5197" stroke="#202020" stroke-width="5"/>
<path d="M662.406 85.2851L671.931 80.6396L680.447 86.4315" stroke="#202020" stroke-width="5"/>
<path d="M553.473 152.497C553.701 150.905 552.669 147.303 546.719 145.636C539.282 143.551 513.813 142.089 508.354 146.537C503.987 150.096 497.379 155.728 494.621 158.1C492.608 156.401 489.182 152.505 491.576 150.512C493.971 148.52 498.842 153.658 500.978 156.476" stroke="#380000" stroke-width="5"/>
<path d="M481.715 193.352C482.189 193.88 482.857 195.397 481.734 197.242C480.612 199.086 473.655 208.069 470.318 212.329" stroke="#202020" stroke-width="5"/>
<path d="M438.621 168.285C435.445 169.48 429.025 172.755 428.76 176.292C428.429 180.714 429.548 192.202 428.852 194.327C428.155 196.453 424.699 212.384 413.57 214.385C404.666 215.986 383.34 215.54 373.789 215.117C368.352 212.198 357.574 204.484 357.961 196.985" stroke="#380000" stroke-width="8"/>
<path d="M400.339 150.621C392.56 150.943 385.83 160.36 383.437 165.029L452.946 168.92L457.699 164.653L460.726 168.881L494.508 170.832L505.117 170.778L506.676 164.405L505.068 161.053L492.354 164.477L488.973 160.074C462.669 156.788 408.117 150.299 400.339 150.621Z" fill="#470000"/>
<path d="M478.131 149.166L399.626 149.564L398.211 149.571L487.91 159.726L478.131 149.166Z" fill="#BF2424"/>
<path d="M306.176 131.824C306.601 131.822 320.383 132.224 327.221 132.425" stroke="#350000" stroke-width="5"/>
<path d="M367.681 126.208L342.063 130.405" stroke="#350000" stroke-width="5"/>
<path d="M327.189 126.237C325.495 126.952 326.16 132.548 326.704 135.257C326.709 136.2 326.966 138.084 327.957 138.079L336.974 138.034L342.593 130.225L336.9 123.358L333.54 123.375C332.129 124.031 328.883 125.521 327.189 126.237Z" fill="#FF0000"/>
<path d="M370.581 105.506L380.941 91.1312L381.475 91.8358L371.999 106.206L370.581 105.506Z" fill="#3F0000"/>
<path d="M622.966 118.373C619.991 117.398 617.016 118.815 615.9 119.646L613.457 126.024L623.708 125.088C623.819 123.732 623.826 120.49 622.966 118.373Z" fill="#AC1515"/>
<path d="M603.732 126.074L518.838 121.906L531.643 101.507L583.3 106.727L603.699 119.532L603.732 126.074Z" fill="#F20000"/>
<path d="M518.661 121.907L531.817 100.976C516.257 101.055 511.138 114.283 510.523 120.888L518.661 121.907Z" fill="#FF9292"/>
<path d="M615.193 119.65C616.749 119.784 614.566 123.838 613.279 125.848L603.554 125.898C603.313 124.72 602.968 121.834 603.523 119.709C604.217 117.053 613.247 119.483 615.193 119.65Z" fill="#8F1B1B"/>
<path d="M612.008 119.313C610.731 118.47 606.411 119.695 604.411 120.412L582.945 106.552C575.46 106.531 559.392 106.282 555.003 105.456C549.516 104.423 539.087 105.006 530.223 100.454C535.866 97.4545 572.062 99.004 589.455 100.154L615.545 119.295C614.898 119.652 613.286 120.155 612.008 119.313Z" fill="#300000"/>
<path d="M470.567 191.64L471.869 169.531L494.509 171.008L494.594 187.805L488.083 193.85L470.567 191.64Z" fill="#8C0000"/>
<path d="M481.619 174.433C483.736 173.574 489.592 177.576 492.255 179.684L487.154 185.014C485.328 185.259 481.322 185.61 479.904 185.051C478.487 184.492 476.706 182.002 475.993 180.827C476.986 179.054 479.501 175.293 481.619 174.433Z" fill="#E60000"/>
<path d="M484.654 180.253C483.94 178.983 485.284 176.654 486.045 175.649L492.078 179.685L487.149 184.13C486.615 183.367 485.368 181.522 484.654 180.253Z" fill="#5E0000"/>
<path d="M452.986 106.857L463.174 93.7205L459.984 92.1453L443.89 91.5195L444.663 104.423L452.986 106.857Z" fill="#500202"/>
<path d="M457.006 27.7985L464.786 27.7591C464.36 36.8379 463.481 56.4457 463.369 62.2459C463.229 69.4961 461.111 70.2141 460.587 71.6313C460.169 72.7651 453.58 72.9635 450.338 72.921C451.341 73.0927 452.892 74.464 451.074 78.5754C449.256 82.6868 441.49 83.1623 437.835 82.8861L437.771 70.3323C428.042 69.5565 403.79 71.0703 384.536 67.7729C382.328 50.8095 386.414 31.3388 388.743 25.6688L382.196 24.8179L384.299 21.094L418.448 25.5184L425.308 18.4109L455.909 20.7313C455.685 23.09 455.591 27.8057 457.006 27.7985Z" fill="#300000"/>
<path d="M415.498 36.6728L411.368 59.1497L413.848 60.0212L419.679 59.1076L431.031 66.1228L441.816 66.0682L444.476 67.6461L447.112 64.2732C448.407 64.0309 451.317 63.7922 452.596 64.7759C454.193 66.0055 457.37 64.7517 457.894 63.5113C458.313 62.519 459.308 51.7752 459.753 46.5273C460.394 45.2274 461.393 42.24 460.254 40.6898C459.114 39.1396 429.942 37.3659 415.498 36.6728Z" fill="#670000"/>
<path d="M432.868 44.8956C430.609 45.6143 430.526 48.0312 430.768 49.1499L435.56 52.662L438.724 49.1095L437.646 45.5786C436.995 45.0515 435.128 44.1769 432.868 44.8956Z" fill="#F20000"/>
<path d="M424.551 43.5228C424.121 42.3934 417.537 43.5584 414.299 44.282L412.233 55.2553L413.824 55.2472L419.836 55.2168L424.572 47.7664C424.744 46.8225 424.981 44.6523 424.551 43.5228Z" fill="#FF9292"/>
<path d="M430.591 49.1505C427.76 48.7405 426.709 50.7615 426.538 51.8233L425.482 52.8895L427.275 57.6546C429.222 58.1162 433.753 59.0009 436.298 58.8466C438.844 58.6922 437.813 55.3615 436.98 53.7154C436.03 52.3646 433.422 49.5605 430.591 49.1505Z" fill="#FF9292"/>
<path d="M227.939 10.5694L231.69 17.9768L228.11 44.3408L218.97 55.1731L217.341 47.7549L220.503 43.4953C222.434 40.7743 226.366 35.049 226.643 33.916C226.989 32.4997 225.176 23.6679 224.988 21.3703C224.837 19.5321 226.892 13.4038 227.939 10.5694Z" fill="#F20000"/>
<path d="M234.315 12.6591L238.759 17.2339L234.483 45.9001L228.685 53.179C228.549 49.4665 228.345 41.7937 228.623 40.8021C228.9 39.8105 230.899 24.7001 231.863 17.2688L234.315 12.6591Z" fill="#5D0000"/>
<path d="M242.096 12.7965L244.951 17.9098L240.882 52.41L234.483 45.9001L238.758 17.0571L242.096 12.7965Z" fill="#F20000"/>
<path d="M248.812 12.2318L251.669 17.6987L245.104 48.1447L240.705 52.4107L244.954 18.6168L248.812 12.2318Z" fill="#5D0000"/>
<path d="M251.67 18.0527C251.805 16.7789 254.671 17.0355 256.087 17.323L251.853 54.1227L245.281 48.1442C247.354 38.6444 251.535 19.3264 251.67 18.0527Z" fill="#F20000"/>
<path d="M317.232 10.6477L323.117 20.3429L320.455 53.4214L316.243 59.6314L295.724 58.1439C297.793 47.6422 302.067 25.7894 302.616 22.3917C303.165 18.994 301.166 15.4442 300.099 14.094L317.232 10.6477Z" fill="#300000"/>
<path d="M320.278 53.2454L347.138 50.1034L347.916 29.2349L322.585 19.9919L320.278 53.2454Z" fill="#830000"/>
<path d="M466.015 96.0049C465.157 94.1704 461.519 92.6682 459.807 92.1464L470.586 90.8541L472.011 92.7918C473.324 96.0858 475.74 102.852 474.894 103.563C474.049 104.275 469.471 103.296 467.287 102.718C467.221 101.244 466.873 97.8395 466.015 96.0049Z" fill="#FF9292"/>
<path d="M428.057 107.514C429.613 107.506 436.315 97.0985 439.472 91.8959L437.863 88.5445L429.236 95.8377L425.045 106.291C425.401 106.702 426.502 107.522 428.057 107.514Z" fill="#460000"/>
<path d="M492.868 91.2718C491.944 95.1075 490.027 102.885 489.746 103.311C489.465 103.737 484.446 104.34 481.972 104.588C479.733 104.659 475.112 104.623 474.542 103.919C473.973 103.214 471.549 94.6804 470.408 90.5015L480.306 89.7441L492.868 91.2718Z" fill="#460000"/>
<path d="M442.651 56.3391L446.183 55.4371L450.968 57.5347L446.916 60.5611L443.913 61.1068L440.715 58.1171L442.651 56.3391Z" fill="#460000"/>
<path d="M454.625 46.5531L459.576 46.5281L458.055 60.5044C457.708 61.8028 456.767 64.4009 455.776 64.406C454.786 64.411 454.06 63.0001 453.821 62.294L454.625 46.5531Z" fill="#FF0000"/>
<path d="M413.462 53.4811C412.049 53.7712 411.715 57.7336 411.725 59.6785C412.619 61.619 418.804 60.8804 421.986 60.8643C424.532 60.8514 428.956 63.8939 430.85 65.4167L424.219 47.7684C423.106 49.1886 420.67 52.3129 419.827 53.4488C418.773 54.8687 415.228 53.1185 413.462 53.4811Z" fill="#F20000"/>
<path d="M483.196 31.9097C486.592 32.1754 489.34 34.8256 490.29 36.1174C490.801 43.9538 491.225 60.1954 488.832 62.4708C486.438 64.7462 470.751 65.1557 463.206 65.076L465.313 27.2262C466.725 26.6886 470.009 25.6464 471.848 25.7785C473.688 25.9107 475.818 29.9431 476.653 31.9429C477.419 31.8211 479.799 31.644 483.196 31.9097Z" fill="#830000"/>
<path d="M489.588 37.3584C489.717 34.8116 491.507 32.162 492.386 31.1556C506.593 31.6141 535.891 32.5973 539.429 32.8623C542.966 33.1273 543.623 34.845 543.51 35.6707C543.262 44.9844 542.733 63.9656 542.599 65.3808C542.465 66.7961 538.659 67.0511 536.772 67.0017C522.918 66.3646 494.361 65.024 490.965 64.7583C487.569 64.4926 487.647 61.2387 488.11 59.645C488.549 53.2773 489.46 39.9052 489.588 37.3584Z" fill="#4E0000"/>
<path d="M1222.19 149.818C1222.16 145.15 1225.68 141.018 1227.44 139.536L1288.48 146.476C1288.62 151.19 1288.83 160.903 1288.55 162.036C1288.28 163.169 1284.21 165.005 1282.21 165.781L1224.9 161.651C1224 159.651 1222.21 154.486 1222.19 149.818Z" fill="#4E0000"/>
<path d="M1224.1 144.504L1204.12 143.721L1204.19 157.689L1224.17 157.588C1222.73 152.786 1223.53 146.864 1224.1 144.504Z" fill="#E60000"/>
<path d="M640.276 79.7389C642.54 80.0104 643.592 82.787 643.834 84.1414L644.907 86.4346L637.674 89.6539C636.144 90.1332 632.62 90.3514 630.766 87.3903C628.912 84.4291 630.441 81.3212 631.437 80.1373C633.44 79.8914 638.011 79.4675 640.276 79.7389Z" fill="#4E0000"/>
<path d="M1187.74 156.534L1188.33 168.201L1170.12 168.824L1170.09 161.751L1170.05 155.209L1170.05 154.679L1172.07 154.891L1178.18 153.93L1177.96 155.508L1187.74 156.534Z" fill="#8F1B1B"/>
<path d="M1189.68 120.807L1172.98 140.695L1205.18 143.892L1205.07 122.144L1189.68 120.807Z" fill="#830000"/>
<path d="M1204.47 143.542L1173.17 141.578L1171.47 155.379L1204.54 157.687L1204.47 143.542Z" fill="#4E0000"/>
<path d="M1174.5 159.961C1175.63 159.39 1175.42 156.892 1175.18 155.714L1170.05 155.209L1170.08 159.983C1171.08 160.214 1173.37 160.533 1174.5 159.961Z" fill="#4E0000"/>
<path d="M977.193 130.194L1172.81 140.873L1171.11 155.204L977.279 147.168L977.193 130.194Z" fill="#E60000"/>
<path d="M948.49 153.502C946.216 151.392 945.74 145.795 945.786 143.261L978.679 144.332L980.818 147.681C978.058 149.581 971.516 154.376 967.434 158.357C966.017 157.834 965.464 153.417 967.386 148.809C964.551 147.763 952.545 151.183 948.49 153.502Z" fill="#300000"/>
<path d="M978.503 144.333C981.875 139.931 979.866 134.13 978.439 131.779L963.04 128.674L946.773 128.757L942.567 136.205L945.785 143.084C954.569 143.511 973.41 144.359 978.503 144.333Z" fill="#830000"/>
<path d="M945.961 142.906C944.806 138.385 946.383 133.12 947.316 131.052L894.937 123.007L894.991 133.793L895.033 142.103C909.121 142.385 939.03 142.941 945.961 142.906Z" fill="#4E0000"/>
<path d="M888.694 147.263C892.089 147.246 895.272 142.751 896.439 140.505L893.052 135.041L884.565 135.084L880.712 142.353C881.958 143.997 885.299 147.281 888.694 147.263Z" fill="#F20000"/>
<path d="M894.411 123.894C890.591 123.913 884.461 126.066 881.873 127.14L880.893 143.059C881.944 141.108 884.682 137.063 887.225 136.484C890.404 135.761 892.542 138.933 896.086 140.506C898.553 138.726 899.185 123.87 894.411 123.894Z" fill="#FF9292"/>
<path d="M961.357 110.47C959.793 108.922 954.808 109.266 952.512 109.631L949.19 117.074L952.622 131.379L978.439 131.779C973.821 127.735 964.373 119.508 963.521 118.947C962.457 118.245 963.312 112.405 961.357 110.47Z" fill="#300000"/>
<path d="M952.028 118.828L952.976 131.554C938.116 130.038 907.192 126.977 902.382 126.86C899.628 126.793 898.543 126.643 898.104 125.821L890 125.862L888.016 118.092L894.536 113.815L907.444 113.75L905.891 116.176C917.769 115.152 939.472 117.208 952.028 118.828Z" fill="#F20000"/>
<path d="M907.574 104.554C904.322 104.854 902.457 106.702 901.931 107.589C901.525 108.888 900.965 112.262 901.971 115.369C902.976 118.476 907 119.233 908.886 119.224L952.559 119.003L952.511 109.455L945.946 105.067L927.023 104.456C921.895 104.364 910.826 104.255 907.574 104.554Z" fill="#500202"/>
<path d="M903.163 106.522L883.714 106.62L883.815 126.6L891.591 125.853C891.697 123.436 891.977 118.284 892.254 117.009C892.599 115.416 900.382 115.907 903.211 115.893C903.629 114.618 903.353 109.114 903.163 106.522Z" fill="#8F1B1B"/>
<path d="M883.155 100.965L871.479 99.7864L867.924 131.101L871.714 146.288L881.068 142.881C882.159 137.1 884.371 124.652 884.494 121.115C884.618 117.578 883.653 106.208 883.155 100.965Z" fill="#E60000"/>
<path d="M640.139 87.6963C642.258 87.1198 643.486 85.086 643.835 84.1412L633.412 155.805C632.353 156.223 629.279 156.817 625.455 155.846C621.631 154.875 621.472 149.088 621.87 146.316C623.028 130.455 625.513 97.3893 626.193 92.0106C627.043 85.2872 637.491 88.417 640.139 87.6963Z" fill="#FF9292"/>
<path d="M633.587 155.451L635.313 147.308L686.766 147.048L707.057 138.458L772.981 132.642L872.024 137.622L872.067 146.109L752.718 146.714C738.29 146.787 716.336 155.15 707.163 159.322L633.587 155.451Z" fill="#F20000"/>
<path d="M871.479 99.7859C865.244 97.5543 717 88.4269 643.658 84.1422L635.31 146.601C648.986 147.121 681.116 148.562 700.22 150.163C713.594 137.505 774.939 135.226 803.939 135.669L871.669 137.27C873.861 127.947 876.893 107.397 871.479 99.7859Z" fill="#4E0000"/>
<path d="M459.707 72.3432L459.806 91.9695L478.716 90.1055L478.638 74.7227C477.873 74.7856 476.093 74.8771 475.102 74.7407C474.111 74.6042 473.949 68.0863 473.991 64.8444L462.852 64.9009C463.013 68.7193 460.822 71.4534 459.707 72.3432Z" fill="#F20000"/>
<path d="M450.514 72.7431L460.06 72.3411L459.629 91.9701L444.245 91.6944L443.493 83.0341C444.965 82.6141 448.436 81.347 450.549 79.6388C452.662 77.9307 451.406 74.3299 450.514 72.7431Z" fill="#830000"/>
<path d="M443.493 83.0343L444.839 104.246C444.133 104.662 442.511 105.425 441.66 105.146C440.81 104.867 439.411 103.271 438.818 102.508L437.835 83.063L443.493 83.0343Z" fill="#830000"/>
<path d="M385.43 104.724L379.506 87.0718L438.039 88.3667C434.58 91.9206 427.488 99.7011 426.794 102.392C426.1 105.083 427.111 106.811 427.703 107.339L385.43 104.724Z" fill="#5D0000"/>
<path d="M387.386 141.845C387.087 138.593 391.354 133.868 393.525 131.912L422.345 131.766C424.998 124.822 433.323 123.047 437.154 123.027L482.241 122.799L482.295 133.408L453.828 133.552L425.417 144.658L388.848 151.209C388.486 149.443 387.686 145.097 387.386 141.845Z" fill="#460000"/>
<path d="M482.242 122.976C488.321 122.238 491.865 125.933 492.876 127.873C492.334 132.544 485.596 133.509 482.295 133.408L482.242 122.976Z" fill="#650000"/>
<path d="M512.089 150.762L504.898 162.468L502.805 168.137L494.509 171.008L494.594 187.629L487.729 193.852C487.888 213.655 488.177 254.322 488.057 258.566C487.937 262.81 496.132 281.865 500.244 290.862L576.173 270.497C573.858 255.715 569.113 224.206 568.65 216.428C568.186 208.651 570.435 185.005 571.618 174.154L547.2 170.741L540.82 167.944C539.923 165.415 538.656 159.645 540.764 156.805C542.871 153.965 545.923 163.027 547.186 167.912L573.192 170.61C574.013 169.78 575.652 167.556 575.64 165.293L575.577 152.916L512.089 150.762Z" fill="#500202"/>
<path d="M391.797 174.711C393.478 171.449 391.048 166.64 389.624 164.644L408.548 165.609L395.367 181.412C393.668 183.484 390.171 188.936 389.773 194.172C389.376 199.407 392.821 202.349 394.593 203.165L390.75 212.556L380.995 206.593C379.559 202.357 381.035 191.151 381.952 186.078C384.533 183.648 390.116 177.973 391.797 174.711Z" fill="#6E0000"/>
<path d="M437.066 70.5128L405.23 68.729C402.762 70.1561 401.919 78.6476 402.289 81.8285C402.585 84.3732 404.495 86.5914 405.323 87.1177L438.04 88.1897L437.066 70.5128Z" fill="#F20000"/>
<path d="M379.052 67.2702C380.183 67.123 396.974 68.1813 405.228 68.7289C404.415 71.0906 403.281 75.2811 403.154 78.1108C403.027 80.9405 404.371 85.7078 405.322 87.1176C397.129 87.0412 380.318 86.8199 378.619 86.5455C376.496 86.2027 377.638 67.4541 379.052 67.2702Z" fill="#830000"/>
<path d="M379.026 62.1425L359.93 62.2393L363.486 66.1113L384.712 67.5951L379.026 62.1425Z" fill="#FF9292"/>
<path d="M379.052 67.2698L378.266 86.547L361.288 85.9257L361.272 82.7431L363.486 66.1109L379.052 67.2698Z" fill="#F20000"/>
<path d="M359.929 62.0623L357.191 79.9349L361.45 82.9192L363.486 66.1111L359.929 62.0623Z" fill="#300000"/>
<path d="M301.677 116.287L303.415 110.266L327.094 107.494C328.868 108.546 332.559 111.18 333.136 113.299C333.856 115.947 331.397 119.142 330.343 120.562C329.29 121.982 316.737 122.223 316.383 122.224L300.47 122.305L301.677 116.287Z" fill="#F20000"/>
<path d="M133.351 117.14C123.875 117.471 121.935 109.182 122.15 104.996L146.727 104.872L185.626 104.674L234.456 110.262L236.585 111.666C236.129 114.792 234.935 121.116 233.805 121.405C232.675 121.694 219.301 120.418 212.755 119.743C205.447 119.722 190.933 119.253 191.349 117.553C191.765 115.854 190.207 113.08 189.375 111.905C187.724 111.737 184.175 111.507 183.187 111.936C182.199 112.366 182.201 115.183 182.326 116.538L178.442 117.619C176.614 117.51 172.781 117.223 172.073 116.944C171.364 116.664 171.758 112.937 172.043 111.109L167.791 109.362C166.319 109.605 163.234 110.305 162.672 111.156C162.111 112.008 162.104 115.403 162.171 116.994L152.445 116.689C150.028 116.702 142.826 116.809 133.351 117.14Z" fill="#C10001"/>
<path d="M115.479 254.264C98.0885 255.908 32.0792 254.156 1.2484 253.074L5.03262 232.191C10.0563 211.654 20.657 168.103 22.8701 158.19C25.0832 148.277 24.8966 116.097 24.5267 101.246C51.9367 101.874 109.8 103.502 121.973 104.996C123.61 114.006 127.338 116.993 129.636 116.981C131.475 116.972 135.819 115.771 137.761 115.172L166.237 116.796C166.016 119.626 165.716 125.604 166.288 126.874C166.86 128.144 172.184 127.375 174.775 126.831L172.358 138.337L182.613 138.285L185.21 127.309C185.622 127.307 186.836 127.195 188.39 126.762C189.944 126.33 191.603 121.147 192.238 118.609C205.387 119.662 231.967 121.626 233.096 121.054C234.225 120.483 235.662 115.737 236.24 113.435C246.845 112.674 284.282 114.724 301.676 116.11C301.162 119.295 299.959 126.197 299.263 128.323C298.566 130.448 300.296 134.506 301.248 136.269L311.509 137.455C316.159 136.194 325.85 134.164 327.416 136.137C328.982 138.109 335.146 137.748 338.032 137.321L354.113 135.471C358.476 135.92 367.949 137.346 370.931 139.453C373.912 141.559 372.222 150.114 371.005 154.128L369.816 163.859L376.535 163.825C374.237 163.837 364.724 170.781 360.684 176.106C357.452 180.366 357.64 191.917 358.138 197.16L348.06 197.211C343.825 199.001 335.01 203.997 333.624 209.662C332.238 215.327 326.114 239.759 323.225 251.267C319.485 257.474 311.686 269.962 310.414 270.251C308.824 270.613 272.676 255.413 269.662 253.66C267.25 252.258 264.06 253.099 262.766 253.695C262.335 250.161 261.118 242.493 259.691 240.095C257.908 237.098 250.461 233.069 246.395 233.267C243.143 233.425 215.602 239.611 202.238 242.685C180.565 245.86 132.87 252.62 115.479 254.264Z" fill="#4E0000"/>
<path d="M24.8894 172.856C26.3861 161.771 25.6481 113.205 24.5267 101.246L1.2493 253.251C8.05411 223.629 22.333 191.788 24.8894 172.856Z" fill="#310000"/>
<path d="M123.503 92.9654C121.964 96.2266 121.959 102.345 122.15 104.996L162.817 104.79C172.011 104.743 191.462 104.857 195.709 105.684C199.957 106.511 223.547 109.197 234.81 110.437C234.081 106.02 232.477 96.657 231.901 94.5381C231.18 91.8895 224.448 89.2713 221.617 88.932C219.352 88.6606 213.844 90.3859 211.373 91.2826L187.127 86.9849C180.347 86.4888 165.583 85.5027 160.774 85.527C154.762 85.5575 137.785 84.9362 134.606 85.6596C131.427 86.3829 125.428 88.8888 123.503 92.9654Z" fill="#3A0000"/>
<path d="M162.311 109.743C161.183 110.315 161.28 115.643 161.47 118.235L165.357 117.508C164.95 118.689 164.035 121.9 163.628 125.297C163.221 128.694 166.532 128.583 168.239 128.102L177.432 127.702L189.278 127.642C189.862 126.46 191.169 123.955 191.732 123.386C192.295 122.817 192.651 118.666 192.759 116.662C192.516 115.307 191.959 112.316 191.67 111.186C191.382 110.056 187.422 110.147 185.477 110.333C184.122 110.281 181.482 110.495 181.772 111.767C182.133 113.356 180.378 115.84 179.85 116.374C179.322 116.907 174.37 116.578 173.131 116.408C172.14 116.271 172.701 112.932 173.105 111.28L171.329 109.698L166.727 108.837C165.726 108.901 163.44 109.172 162.311 109.743Z" fill="#FF3232"/>
<path d="M303.238 110.267C307.039 104.413 315.631 92.4518 319.587 91.4416C321.872 88.7777 328.032 83.0884 334.39 81.6416C340.748 80.1948 352.358 79.9003 357.368 79.9338L361.272 82.7432L361.288 85.9156C367.461 86.0811 374.373 86.3713 378.089 86.548L368.971 101.624C359.597 101.141 340.108 100.497 337.144 101.785C333.439 103.395 330.257 103.588 328.156 107.665C326.475 110.927 310.844 110.759 303.238 110.267Z" fill="#5D0000"/>
<path d="M1303.01 152.944L1288.51 153.018L1287.84 161.155L1291.75 163.787L1303.05 162.139L1303.01 152.944Z" fill="#E60000"/>
<path d="M1301.4 149.063C1303.38 149.477 1303.3 151.705 1303.01 152.768L1288.33 152.842L1288.32 150.013L1290.26 149.119C1293.14 148.928 1299.41 148.648 1301.4 149.063Z" fill="#4E0000"/>
<path d="M1206.41 106.931L1205.07 122.321L1189.68 120.807L1188.72 105.075L1206.41 106.931Z" fill="#F20000"/>
<path d="M372.676 30.1704C378.051 30.2846 381.147 27.1216 382.023 25.5258L384.122 20.9179C386.185 20.9664 389.959 21.4188 388.552 22.8404C387.145 24.2621 385.175 54.3312 384.359 67.7736C379.147 62.7312 367.929 49.6445 364.814 48.953C361.698 48.2615 351.731 49.3139 347.137 49.9266L347.74 29.4126C353.812 29.6176 367.3 30.0562 372.676 30.1704Z" fill="#F20000"/>
<path d="M293.751 17.6627C298.137 17.7819 300.282 15.4488 300.807 14.2674C304.925 17.5 303.404 26.6905 302.129 30.8816L295.9 57.9664L251.322 53.9485L256.438 16.7908C267.048 17.0317 289.366 17.5434 293.751 17.6627Z" fill="#830000"/>
<path d="M423.332 12.4091L425.131 18.5887L446.712 20.2475C447.18 19.6558 449.137 17.2293 453.214 12.2578C448.945 7.32848 442.807 5.65033 440.271 5.42742L439.226 8.43863C438.521 8.85477 436.438 9.69047 433.751 9.70409C431.063 9.7177 428.252 6.19557 427.182 4.43281C426.479 5.26152 424.719 6.92074 423.304 6.92791C421.536 6.93686 418.009 8.72291 418.191 9.7829C418.337 10.6309 421.679 11.8871 423.332 12.4091Z" fill="#F20000"/>
</svg>
