<svg width="933" height="1024" viewBox="0 0 933 1024" fill="none" xmlns="http://www.w3.org/2000/svg">
<path d="M164.694 1120.71C94.5916 1096.16 75.6886 1068.99 75 1058.47L159.013 1012L245.781 1077.16C247.961 1101.91 234.797 1145.27 164.694 1120.71Z" fill="#570006"/>
<path d="M40.0735 231.447C45.5771 202.686 86.2815 159.832 105.946 142L192.113 216.31L210 557.755C203.12 573.867 189.912 608.843 192.113 619.852C194.314 630.86 180.991 665.034 174.054 680.744V730.456C174.054 752.646 146.536 811.99 150.663 829.879C153.966 844.191 167.633 978.728 174.054 1044.21C169.009 1044.21 153.381 1046.68 131.229 1056.59C109.076 1066.5 34.5127 1052.46 0 1044.21C4.12768 924.429 11.8327 679.609 9.63119 658.555C7.42972 637.5 19.8359 507.011 26.3142 444.399C28.6074 385.398 34.5698 260.207 40.0735 231.447Z" fill="#940808"/>
<path d="M155.288 122.361C190.212 114.097 267.712 62.0103 302.097 37L485.695 86.4768C497.255 108.769 517.697 154.983 506.995 161.508C496.292 168.032 502.535 454.683 506.995 597.194C510.339 619.123 512.98 683.715 496.785 766.647C448.342 776.796 310.194 751.665 247.176 737.831C240.839 736.321 222.32 725.906 198.944 696.328C213.167 673.276 204.87 519.988 198.944 446.226C196.01 418.557 188.347 348.251 181.165 288.371C173.983 228.492 128.062 167.367 106 144.29C107.878 140.424 120.364 130.625 155.288 122.361Z" fill="#C10000"/>
<path d="M477.424 90.0099C473.288 86.902 424.511 174.784 421.408 181C376.595 147.574 320.464 69.6939 298 34.9324C306.503 22.6737 323.095 -4.08809 321.441 -13.0662C319.786 -22.0444 343.273 -50.763 355.223 -64L363.324 -44.6624C360.911 -42.3028 353.844 -35.7188 344.881 -28.26C335.919 -20.8013 353.442 -1.44068 363.324 7.30727C403.081 29.8102 483.802 76.4391 488.628 82.931C493.454 89.4229 504.887 127.879 510 146.296L498.797 155.447C493.051 134.67 480.734 92.4961 477.424 90.0099Z" fill="#830000"/>
<path d="M879.416 261.631C866.235 198.269 847.494 133.874 807.504 117C814.369 152.676 802.641 250.267 792.744 292.452L805.273 371.827L767 566.907L771.462 783.165L791.714 883.718C791.085 919.876 793.087 1001.66 806.131 1039.54C833.866 1049.6 902.014 1035.35 932.621 1026.97C932.907 857.318 933.307 513.152 932.621 493.73C931.763 469.453 895.893 340.834 879.416 261.631Z" fill="#940808"/>
<path d="M512.138 137.589C522.456 129.176 535.582 99.3822 540.856 85.5367H591.412C598.062 71.6911 616.588 44 637.498 44C658.409 44 758.444 94.7086 805.848 120.063C805.848 114.688 807.912 113.158 816.166 150.032C826.484 196.126 805.848 282.704 798.626 294.797C792.848 304.472 801.033 355.963 805.848 380.5L769.221 578.018C772.946 627.091 778.163 727.971 769.221 738.907C760.279 749.843 674.011 758.536 631.995 761.515L584.362 768C583.846 763.735 582.161 753.418 579.547 746.268C576.28 737.329 549.454 738.907 486 738.907C501.958 715.632 498.381 457.322 494.598 331.076C494.827 326.87 494.529 310.045 491.503 276.395C488.476 242.745 490.242 197.645 491.503 179.301C494.082 168.902 501.82 146.001 512.138 137.589Z" fill="#B50000"/>
<path d="M502 1123.25L486.527 846.654L197.363 730L120 1022.75C134.728 1056.25 166.658 1126.04 176.561 1137.17C186.463 1148.3 397.646 1132.53 502 1123.25Z" fill="#C10000"/>
<path d="M593.295 -39C598.542 -32.5654 610.143 -16.6973 614.572 -4.70137C619 7.29454 633.369 37.7554 640 51.4864L622.183 163C610.016 154.842 580.736 131.114 560.947 101.469C545.348 78.1004 538.469 81.614 536.058 89.2992C535.521 91.7725 535.178 94.0432 535 95.9539C535.085 93.7281 535.411 91.3632 536.058 89.2992C538.657 77.3451 545.812 60.6576 560.947 57.0017C579.214 52.5894 594.275 11.2702 599.522 -8.83788L593.295 -39Z" fill="#830000"/>
<path d="M194.028 937.432C189.091 933.032 187.286 855.265 187 816.932C237.165 807.592 346.75 752.815 359.091 752.815C371.432 752.815 389.944 744.277 398 737C395.143 797.451 383.636 949.671 382.402 954.622C381.168 959.573 342.122 972.27 322.753 978C300.527 973.588 252.82 964.145 239.793 961.67C223.509 958.576 200.198 942.933 194.028 937.432Z" fill="#690000"/>
<path d="M185.444 720.328C190.408 708.503 222.439 704.516 237.834 704L400 735.969C391.958 740.896 373.84 751.987 365.706 756.938C355.538 763.125 357.089 784.953 354.849 801.969C353.056 815.581 345.255 829.411 341.579 834.625L246.278 858L185.444 812.969L177 784.953C177.747 768.339 180.481 732.153 185.444 720.328Z" fill="#A10000"/>
<path d="M508.142 1099.63C505.938 1086.84 490.807 925.116 483 850.325L752.671 800.293C755.484 799.032 760.731 801.187 759.215 819.893C757.7 838.6 819.774 946.206 851 997.671C850.426 1004.55 841.391 1027.83 809.843 1065.93C778.295 1104.03 601.763 1130.52 517.441 1139C515.26 1131.21 510.346 1112.42 508.142 1099.63Z" fill="#B50000"/>
<path d="M629.723 747.385C595.318 747.385 457.976 755.261 395.163 752.732L390 839.314C430.155 839.832 521.856 840.556 567.426 839.314C612.995 838.073 731.256 839.314 776 811.891L769.633 731C711.294 745.488 663.453 747.385 629.723 747.385Z" fill="#4E0000"/>
<path d="M572.147 733.759C566.797 728.762 520.997 731.677 498.766 733.759C491.222 733.759 474.455 736.673 467.734 748.331C459.333 762.903 467.734 848.601 467.734 852.418C467.734 856.234 510.082 863 515.397 863C520.712 863 572.147 859.183 581.062 852.418C588.194 847.005 584.034 791.527 581.062 764.464C580.319 756.311 577.496 738.755 572.147 733.759Z" fill="#940808"/>
<path d="M476.992 745.37C473.384 749.662 475.489 813.729 476.992 845.226C477.5 856.648 518.272 855.09 528.159 855.956C536.068 856.648 560.015 849.091 571 845.226L562.501 745.37H518.272C506.015 743.581 480.6 741.078 476.992 745.37Z" fill="#4E0000"/>
<path d="M173 114.501C213.634 96.4613 250.652 71.9838 264.081 62C264.081 197.814 390.459 369.432 478.096 514.886C565.734 616.617 778.716 799.94 779.749 814.4C780.782 828.859 779.749 847.966 798 912C341.733 725.234 195.211 149.616 173 114.501Z" fill="#FF9292"/>
</svg>
