<svg width="387" height="604" viewBox="0 0 387 604" fill="none" xmlns="http://www.w3.org/2000/svg">
<path d="M228.559 357.849C230.352 356.323 226.841 355.072 227.502 353.926C230.328 352.764 230.88 349.726 232.645 347.951C234.27 346.314 248.375 337.851 250.078 337.764C254.299 337.556 255.457 341.859 256.844 342.921C259.762 345.152 264.261 346.998 267.254 349.562C268.148 350.327 267.715 352.168 269.48 352.495C271.244 352.822 274.808 350.13 277.085 349.828C280.646 349.365 283.821 350.927 287.229 347.72C289.301 345.765 288.589 343.736 290.141 341.7L300.866 331.364C306.597 331.604 313.893 333.543 318.259 337.42C319.134 338.199 319.12 339.953 319.69 340.093C322.531 340.826 332.44 336.713 333.522 344.517C333.882 347.116 331.222 358.531 326.763 356.379C326.225 357.975 327.914 358.839 327.851 360.375C327.675 364.401 321.31 365.784 319.352 368.737C317.528 371.483 319.181 374.943 315.813 377.894C314.001 379.485 312.186 379.048 311.537 379.529C310.887 380.01 310.498 382.33 308.511 383.902C306.256 385.685 291.521 392.883 288.905 393.14C287.095 393.321 285.629 392.272 284.748 392.454C283.954 392.617 282.921 394.144 281.906 394.474C276.927 396.117 270.788 396.599 265.818 394.578C258.656 391.672 258.843 392.369 251.9 390.866C248.135 390.048 238.034 383.861 235.975 380.565C231.677 373.667 233.049 376.069 227.482 370.695C225.903 369.18 221.727 363.661 222.248 361.631C223.253 357.701 228.277 358.084 228.579 357.827L228.559 357.849Z" fill="#C10000"/>
<path d="M195.842 50.2855C195.81 43.651 199.526 37.5114 203.405 32.3771C204.355 31.1157 205.878 31.1518 206.438 30.2686C207.425 28.7173 206.944 26.3448 207.502 24.9966C209.209 20.8392 223.323 17.7069 228.018 16.0955C230.026 15.4055 232.093 13.7534 234.497 12.965C246.433 9.06903 259.907 7.64381 272.061 11.8894C276.801 13.5449 281.043 20.9073 284.745 24.5453C286.465 26.2338 289.321 26.0652 289.813 29.6557C290.987 38.3272 275.693 40.1511 271.796 44.1087C269.265 46.6761 270.71 51.5729 263.838 52.2518C257.954 52.8321 257.23 48.082 254.089 47.2685C251.127 46.4999 242.378 47.5768 239.753 49.2342C236.331 51.3999 232.54 55.4333 229.667 57.4319C224.266 61.179 222.735 57.6958 218.858 56.5135C211.758 54.3442 202.54 55.3392 195.84 50.2938L195.842 50.2855Z" fill="#C10000"/>
<path d="M299.456 190.876C298.998 189.977 296.046 189.733 296.31 185.468C296.817 177.279 303.354 179.918 306.984 178.528C312.051 176.586 313.459 172.567 316.381 169.386C317.47 168.205 322.803 164.625 324.308 164.236C334.036 161.717 333.519 170.773 336.018 176.916C336.76 178.756 338.91 179.422 339.244 182.675C339.447 184.616 337.945 191.12 336.85 192.451C336.056 193.416 321.562 197.848 319.108 198.899C317.704 202.842 309.44 206.968 305.585 206.558C301.516 206.122 296.59 198.923 297.207 195.092C297.43 193.675 299.908 191.766 299.456 190.876Z" fill="#C10000"/>
<path d="M204.328 136.12C201.488 128.546 197.963 121.187 196.855 113.066C200.776 112.625 206.037 111.44 209.723 110.178C219.397 106.864 216.266 106.204 227.893 106.06C230.71 106.029 232.643 103.452 236.365 106.536C237.284 107.297 240.48 117.451 240.558 118.839C240.744 122.01 238.179 125.873 238.915 129.687L204.327 136.128L204.328 136.12Z" fill="#C10000"/>
<path d="M196.977 237.804C194.911 234.719 196.369 222.837 198.92 220.568C201.786 218.02 203.521 220.31 203.023 213.687C205.577 214.147 208.211 214.315 210.738 215.007C215.151 216.214 218.067 218.352 222.898 218.51C225.209 218.586 228.655 216.863 232.394 217.846C232.791 217.951 238.809 221.259 239.03 221.573C241.303 224.902 239.066 229.795 237.176 232.801C236.884 233.262 235.635 233.041 235.378 233.71C234.183 236.808 234.704 240.918 230.496 242.867C226.289 244.817 225.79 241.749 223.591 241.447C222.417 241.288 220.096 242.841 218.103 242.891C215.736 242.959 206.884 242.702 204.716 242.413C203.012 242.188 197.926 239.237 196.974 237.821L196.977 237.804Z" fill="#C10000"/>
<path d="M196.502 250.795C196.697 250.572 201.888 249.19 202.285 249.193C206.555 249.264 212.164 250.768 216.064 251.101C221.029 251.534 225.937 249.643 230.65 253.034L230.071 272.232C225.663 277.503 214.727 274.057 210.783 275.668C209.772 276.084 209.784 277.623 208.964 278.381C205.503 281.604 200.921 278.242 197.065 278.22C195.501 273.381 193.695 253.994 196.487 250.784L196.502 250.795Z" fill="#C10000"/>
<path d="M214.631 349.779C215.785 344.412 210.375 342.186 209.577 338.497C208.909 335.428 209.765 331.213 209.141 327.813C210.438 326.058 215.817 325.525 217.672 324.414C219.404 323.385 220.545 321.013 222.27 319.705C225.078 317.578 232.418 315.199 235.885 315.278C242.577 315.424 249.232 327.43 247.154 333.733C242.089 336.731 236.695 342.05 231.074 343.803C226.313 345.294 224.601 343.447 218.856 347.072C217.337 348.033 216.736 350.464 214.631 349.779Z" fill="#C10000"/>
<path d="M310.584 233.868C309.618 226.023 300.201 216.388 310.663 211.61C313.114 210.466 316.335 212.382 318.311 212.168C319.643 212.022 321.239 210.677 322.893 210.362C329.467 209.104 335.605 208.302 341.619 205.014C344.174 206.006 345.034 226.477 344.865 229.98L310.584 233.868Z" fill="#C10000"/>
<path d="M277.622 106.039C276.697 103.969 277.036 98.8448 278.914 97.425C279.825 96.7318 295.161 92.212 297.63 91.5519C299.656 91.0168 311.359 87.9625 312.124 88.9017C312.177 97.6086 313.463 106.365 311.413 114.97C307.359 113.465 304.405 116.304 300.794 116.928C294.996 117.927 289.041 117.399 283.317 119.001C279.023 117.136 280.631 111.57 279.72 108.496C279.306 107.097 277.918 106.685 277.624 106.031L277.622 106.039Z" fill="#C10000"/>
<path d="M309.314 301.408C312.043 302.259 315.545 301.575 317.974 301.973C321.952 302.622 327.745 305.693 331.01 306.145C332.514 306.356 333.649 305.259 335.009 305.523C339.295 306.356 343.108 309.563 341.66 314.217C341.028 316.255 338.455 316.831 337.732 318.854C336.414 322.516 337.184 327.678 334.813 331.377C323.707 330.091 312.675 326.604 303.158 320.627C306.719 314.615 305.136 307.154 309.314 301.408Z" fill="#C10000"/>
<path d="M282.331 273.411C282.078 273.034 278.186 277.279 273.765 274.179C268.34 270.381 280.59 258.452 285.869 260.225L301.132 247.663C304.026 251.123 306.013 253.859 306.249 258.541C306.393 261.342 306.254 272.029 304.92 273.804C304.024 274.989 297.89 278.833 296.408 279.183C294.812 279.557 292.01 279.008 291.682 279.21C291.355 279.412 291.099 281.264 290.479 282.036C287.673 285.549 281.394 291.177 277.367 286.162C272.117 279.629 283.617 275.336 282.33 273.419L282.331 273.411Z" fill="#C10000"/>
<path d="M205.584 107.493C203.419 107.778 195.771 105.878 194.431 104.24C192.433 101.799 190.54 89.9572 193.191 87.4848C193.488 87.2103 199.534 85.0592 200.165 85.023C203.15 84.8326 205.856 86.8615 208.883 86.0273C210.569 85.5654 211.459 84.1934 213.05 83.6912C218.14 82.0911 232.523 81.4418 233.213 88.7792C233.263 89.3192 232.578 90.242 232.645 91.0041C232.937 94.3098 234.466 98.0206 231.292 100.707C227.191 104.185 222.528 100.531 219.707 100.748C219.237 100.784 211.157 103.3 210.709 103.517C208.855 104.408 207.783 107.204 205.591 107.502L205.584 107.493Z" fill="#C10000"/>
<path d="M203.735 289.755C204.183 289.429 203.373 287.055 205.757 286.019C209.093 284.566 211.825 286.312 214.644 286.272C219.908 286.203 226.005 282.379 231.898 284.866L235.531 301.118C233.688 304.199 230.316 303.518 228.013 304.525C220.367 307.878 220.639 307.709 212.559 309.364C210.927 309.699 208.928 311.624 207.098 311.877C199.709 312.897 202.631 309.344 201.573 304.888C200.791 301.581 195.463 291.127 199.573 289.533C201.002 288.98 203.367 290.002 203.738 289.739L203.735 289.755Z" fill="#C10000"/>
<path d="M347.413 272.691C348.982 276.146 345.238 277.569 344.733 280.192C344.172 283.069 345.17 289.145 344.108 292.686C340.301 298.651 338.048 295.73 333.426 294.938C329.241 294.214 313.377 292.249 311.625 288.934C309.571 285.065 313.301 278.514 310.966 274.077C312.106 267.238 333.378 272.415 337.744 272.796C339.668 272.963 346.654 271.93 347.413 272.691Z" fill="#C10000"/>
<path d="M191.107 80.0388C190.14 75.9769 189.323 62.0155 193.085 60.055C199.147 56.8846 211.155 63.7845 217.673 64.0129C221.36 64.1436 222.773 60.7337 227.21 63.5663C231.295 66.1663 230.874 77.3579 225.986 79.6652C223.305 80.9254 215.403 80.8007 211.99 81.2367C209.793 81.517 207.729 83.1018 205.306 83.0935C200.006 83.0729 196.97 78.5767 191.106 80.0471L191.107 80.0388Z" fill="#C10000"/>
<path d="M347.367 240.625C348.288 248.159 349.794 255.895 348.085 263.455C341.081 260.676 334.196 262.088 326.801 261.798C322.487 261.628 317.892 260.231 313.341 261.139L310.5 246.142C315.326 240.785 321.981 243.315 327.823 243.167C334.632 242.994 340.676 239.347 347.359 240.624L347.367 240.625Z" fill="#C10000"/>
<path d="M301.513 58.3375C299.787 59.5954 287.496 60.3111 283.899 62.4661C282.697 63.1813 282.358 66.1515 279.553 67.7723C267.894 74.5324 259.394 59.0534 269.468 50.9298C269.981 50.5121 275.235 47.3837 275.578 47.294C277.729 46.7192 279.47 48.0057 281.989 47.0749C284.508 46.1441 293.923 36.245 295.423 36.4803C296.558 38.719 299.811 41.5094 300.666 43.5944C301.321 45.1834 301.024 46.6485 301.449 48.1341C302.278 51.0341 305.223 55.6258 301.504 58.3362L301.513 58.3375Z" fill="#C10000"/>
<path d="M228.467 209.714C225.407 207.309 226.561 209.052 222.898 208.393C220.335 207.932 218.173 205.456 216.622 205.171C215.151 204.906 212.989 206.096 210.645 205.635C201.518 203.849 209.621 194.074 206.583 188.032C209.091 186.094 212.284 186.249 215.235 186.872C221.897 188.28 230.398 193.523 236.821 195.325C239.078 195.957 241.31 194.492 243.64 196.867C245.824 199.093 242.533 201.017 245.393 202.167L245.17 203.373L243.4 203.619C245.619 216.61 236.422 215.961 228.468 209.706L228.467 209.714Z" fill="#C10000"/>
<path d="M279.179 297.121C286.355 290.831 294.212 280.367 304.643 281.978L301.908 303.776C297.136 306.094 292.979 309.766 288.452 312.358C286.281 313.596 278.12 318.406 276.566 315.231C277.056 309.633 274.307 303.738 276.266 298.623C276.906 297.718 278.474 297.736 279.177 297.129L279.179 297.121Z" fill="#C10000"/>
<path d="M273.936 74.5679C274.305 74.2036 275.993 74.5358 276.675 74.1192C277.758 73.4614 278.246 72.1276 279.326 71.4862C285.688 67.6957 292.827 68.0046 299.779 65.4635C301.715 64.7537 304.071 62.6489 304.88 62.4464C306.355 62.0866 305.905 63.1814 306.117 63.713C307.497 67.1386 310.083 78.4892 307.492 81.0639C302.69 85.834 282.625 86.31 276.042 89.9984C275.267 90.0963 272.339 76.1332 273.928 74.5666L273.936 74.5679Z" fill="#C10000"/>
<path d="M240.646 271.679C237.448 266.819 241.149 264.486 242.126 260.788C243.056 257.286 240.901 252.286 245.152 251.889C247.046 251.713 247.813 253.125 249.039 253.385C253.42 254.309 253.904 254.131 258.204 256.334C263.395 258.989 272.662 263.981 267.76 270.949C266.381 272.903 264.241 272.119 263.335 272.94C262.734 273.488 263.505 276.058 262.703 277.942C260.852 282.313 256.496 282.998 252.4 281.005C251.561 280.594 241.071 272.311 240.653 271.688L240.646 271.679Z" fill="#C10000"/>
<path d="M282.388 244.402C282.805 244.164 286.416 241.766 285.732 241.008C283.258 242.943 274.971 236.55 275.735 234.804C280.235 233.517 294.412 218.191 297.885 219.36C303.101 224.122 301.718 231.701 303.565 237.91C300.321 240.661 294.533 242.617 291.746 245.743C290.116 247.574 289.841 249.92 287.947 251.549C286.941 252.413 278.99 256.047 277.941 255.9C273.151 255.208 272.696 251.218 275.76 247.839C277.668 245.739 280.392 245.55 282.396 244.403L282.388 244.402Z" fill="#C10000"/>
<path d="M273.987 220.375C273.713 219.969 272.767 212.051 272.695 210.731C272.349 204.055 273.103 201.724 278.916 198.101C280.376 197.19 282.524 197.282 283.508 196.389C284.768 195.252 285.261 191.892 287.095 190.803C294.672 186.325 300.115 203.419 296.991 209.879C294.515 215.006 290.363 215.951 286.338 218.301C282.917 220.298 277.742 225.887 273.987 220.375Z" fill="#C10000"/>
<path d="M245.004 285.301C255.438 285.223 260.389 294.901 268.747 299.387C270.551 304.847 271.431 310.44 269.62 316.06C264.557 318.137 262.811 314.139 259.524 312.314C256.433 310.596 250.506 306.01 249.68 305.619C246.807 304.281 243.28 305.502 241.116 301.64C238.16 296.363 242.87 295.624 244.283 292.805C245.071 291.231 244.709 285.516 245.014 285.294L245.004 285.301Z" fill="#C10000"/>
<path d="M261.175 241.379C258.827 241.382 260.141 244.367 259.004 244.83C258.48 245.044 253.028 246.046 252.436 245.996C247.53 245.564 247.176 241.683 245.343 240.23C244.682 239.704 243.132 240.272 241.809 239.127C237.864 235.687 241.526 218.636 252.819 223.743C257.842 226.018 257.768 228.911 260.264 231.465C263.395 234.658 269.066 235.919 269.276 241.526C269.316 242.672 267.867 250.781 267.443 251.44C265.186 254.895 257.178 252.541 258.38 248.161C258.906 246.259 262.44 245.428 261.174 241.387L261.175 241.379Z" fill="#C10000"/>
<path d="M253.172 196.344C264.518 198.309 271.417 204.779 268.791 216.833C266.813 225.947 257.753 221.089 252.55 217.376C244.409 211.564 249.576 203.44 253.172 196.344Z" fill="#C10000"/>
<path d="M278.373 344.473C275.213 340.498 277.846 335.447 275.892 331.214C282.408 326.983 286.924 318.596 295.122 317.694C300.983 320.387 287.743 341.104 283.992 343.319C281.937 344.526 280.223 342.956 278.373 344.473Z" fill="#C10000"/>
<path d="M258.761 335.866C257.845 334.76 256.327 334.26 255.53 333.096C254.793 332.035 247.497 319.109 248.206 318.731C250.822 318.905 253.094 320.038 255.384 321.157C257.119 321.995 270.137 330.101 270.597 330.882C271.38 332.196 271.37 340.276 270.582 341.909C268.565 346.103 262.04 341.127 259.961 338.985C258.609 337.591 259.123 336.303 258.761 335.866Z" fill="#C10000"/>
<path d="M272.283 111.376L260.332 109.501C259.227 109.328 255.994 103.881 255.715 102.646C252.925 90.5457 268.867 90.4027 272.72 99.0047C274.408 102.783 272.132 107.223 272.283 111.376Z" fill="#C10000"/>
<path d="M236.138 90.2685C232.221 84.9248 239.173 71.6668 246.487 76.5129C256.066 82.8544 242.446 98.884 236.138 90.2685Z" fill="#C10000"/>
<path d="M243.419 117.826C240.689 109.553 236.962 101.384 247.848 97.4502C250.226 96.8266 253.592 106.543 253.516 107.139C253.319 108.662 245.287 119.809 243.419 117.826Z" fill="#C10000"/>
<path d="M257.278 81.4314C256.456 80.4243 253.933 80.5184 254.134 77.5687C254.348 74.4269 258.183 73.6096 260.779 74.0759C268.196 75.4081 268.892 80.9307 265.114 86.5537C259.607 86.2306 259.884 84.6272 257.278 81.4314Z" fill="#C10000"/>
<path d="M249.39 52.9412C257.527 50.6535 260.959 58.6066 262.652 65.0963C254.602 67.7439 248.599 60.7893 249.39 52.9412Z" fill="#C10000"/>
<path d="M233.778 71.5546C234.179 66.3562 232.341 60.1477 236.652 55.9763C241.534 51.2356 243.233 62.2615 242.179 65.4827C241.53 67.4669 235.376 73.697 233.777 71.5628L233.778 71.5546Z" fill="#C10000"/>
<path d="M269.108 282.333C267.799 286.747 263.076 283.853 261.782 280.745C264.54 278.238 266.708 281.104 269.108 282.333Z" fill="#C10000"/>
<path d="M153.098 585.997C149.252 585.512 151.787 585.839 148.011 586.486C145.79 586.862 129.961 583.721 127.84 582.667C126.122 581.817 125.471 580.059 124.644 579.633C123.67 579.145 121.529 580.187 119.483 578.646C117.11 576.856 117.092 574.043 115.038 572.081C111.891 569.081 103.576 570.26 105.625 562.56C102.239 565.369 97.5266 556.712 96.9282 554.218C95.1562 546.818 106.04 547.525 108.111 546.376C108.587 546.111 108.162 544.552 108.759 543.651C111.744 539.172 117.797 535.731 122.848 534.171L135.29 541.202C136.719 544.161 139.463 547.013 143.102 546.613C144.927 546.415 146.489 545.309 148.379 545.06C150.624 544.766 154.783 546.641 156.34 545.32C157.121 540.668 161.939 537.606 164.722 534.122C165.811 532.759 165.681 529.418 169.083 528.11C170.646 527.507 185.718 531.771 187.576 532.941C189.434 534.111 190.481 536.771 193.552 537.175L193.53 540.849C202.255 539.343 200.904 546.073 197.78 551.569C196.339 554.098 194.059 555.523 193.118 557.34C190.45 562.504 193.263 564.039 186.617 570.566C180.702 576.378 178.11 575.219 172.619 578.531C170.539 579.786 169.835 581.983 167.245 583.442C163.374 585.622 157.492 586.548 153.083 586.001L153.098 585.997Z" fill="#C10000"/>
<path d="M111.529 235.279C113.313 235.414 115.407 235.427 116.954 235.573C119.753 235.84 131.716 236.9 132.993 237.941C134.917 239.508 134.836 242.254 136.453 243.533C137.222 244.144 138.56 243.815 139.664 244.673C143.198 247.434 149.802 254.042 150.571 258.464C146.309 265.176 137.424 266.183 131.532 269.826C129.439 271.118 129.623 272.842 126.686 273.513C122.165 274.551 121.125 271.745 118.44 270.597C117.973 270.395 110.573 267.996 110.143 267.92C107.74 267.499 99.3954 268.743 97.5586 270.065C95.0719 271.854 95.721 275.718 90.4171 276.566C84.118 277.573 84.218 272.724 80.9085 270.964C76.5294 268.631 65.4406 270.297 62.4271 264.368C60.4178 260.424 64.3534 258.217 65.9234 255.274C68.2921 250.853 69.72 244.861 74.1733 242.145C86.8114 234.436 97.4575 234.178 111.52 235.274L111.529 235.279Z" fill="#C10000"/>
<path d="M94.4837 416.264C93.6037 418.711 92.3717 422.076 90.1783 423.661C87.353 425.692 77.3936 423.999 75.5275 420.301C72.8214 419.912 59.5385 419.632 58.1891 418.7C56.2194 417.338 53.6412 411.836 53.5817 409.323C53.5221 406.811 54.9478 406.424 55.2831 404.67C56.0871 400.403 54.0396 393.131 59.4132 390.83C61.5226 389.926 69.5477 392.353 71.5023 393.607C74.3036 395.41 77.7841 399.459 82.0807 399.422C85.1304 399.392 85.28 397.299 89.1153 399.356C96.2263 403.168 90.9776 408.403 91.2092 408.929C91.6585 409.96 93.5872 410.485 94.1523 411.78C94.6059 412.826 94.104 414.724 94.4816 416.256C94.6937 415.659 95.2916 415.094 95.5767 414.083C96.4185 411.087 94.4776 407.018 99.3761 405.847C103.353 404.893 104.501 408.685 106.677 409.708C107.917 410.287 109.446 409.646 110.643 410.022C113.56 410.919 117.234 412.446 118.48 415.354C119.26 417.17 121.143 428.373 120.437 429.617C117.13 435.478 108.393 428.997 103.31 428.78C97.1452 425.416 96.09 422.838 94.4816 416.256L94.4837 416.264Z" fill="#C10000"/>
<path d="M130.806 339.794C130.497 336.168 127.498 333.509 126.81 330.513C126.569 329.454 126.682 322.456 126.898 321.176C127.978 314.756 131.512 317.045 135.097 316.148C145.26 313.603 142.482 314.828 151.702 315.51C153.656 315.652 164.208 315.069 164.803 316.186L162.859 337.699L130.815 339.799L130.806 339.794Z" fill="#C10000"/>
<path d="M163.347 438.829C161.403 438.084 159.794 434 158.497 432.556C157.044 430.933 154.69 430.291 153.31 427.782C152.601 426.489 151.637 422.476 152.333 421.362C152.508 421.08 156.817 417.196 157.287 416.884C161.682 413.937 165.697 416.727 169.006 412.987L170.403 414.138C171.711 411.591 180.373 405.813 182.495 407.091C183.299 412.936 187.454 409.464 189.893 413.509C193.587 419.634 196.273 428.788 187.726 432.3C185.878 433.057 178.011 435.372 175.894 435.862C174.102 436.282 171.665 435.439 170.664 435.855C169.056 436.527 167.352 440.365 163.341 438.838L163.347 438.829Z" fill="#C10000"/>
<path d="M190.517 463.465C188.793 462.761 176.263 468.317 172.585 465.222L167.089 447.871C170.432 443.385 176.995 444.24 180.972 442.205C184.524 440.389 187.335 438.946 191.493 437.788C192.877 437.397 195.378 438.27 197.029 437.858C201.394 445.199 202.136 453.72 203.103 461.992C200.36 463.919 195.706 467.19 192.378 465.395C191.552 464.944 191.08 463.695 190.527 463.47L190.517 463.465Z" fill="#C10000"/>
<path d="M176.31 525.188C174.914 524.621 171.918 524.7 170.889 523.323C168.133 519.65 171.271 507.617 175.086 505.269C177.901 503.537 187.036 504.035 190.2 505.349C191.891 506.047 193.478 507.831 194.882 508.315C196.855 508.995 203.099 508.213 204.212 509.854C203.926 514.251 206.719 517.386 205.384 521.838C205.037 522.995 203.86 523.83 203.591 525.229C203.223 527.12 204.457 529.567 203.313 531.545C201.051 529.499 196.719 527.665 193.676 527.829C184.262 528.333 185.348 528.852 176.31 525.188Z" fill="#C10000"/>
<path d="M59.8404 454.076C58.7871 450.921 54.7344 432.634 56.8865 431.045C59.8845 431.502 62.7706 432.015 65.8246 432.056C71.7869 432.131 76.8824 431.616 82.3453 430.458C85.6122 429.765 89.8685 429.643 91.772 433.082C93.2607 435.775 91.6927 436.307 91.6209 438.225C91.5621 439.771 91.5037 449.46 91.0035 449.78L59.8425 454.084L59.8404 454.076Z" fill="#C10000"/>
<path d="M62.7034 343.678C58.9558 336.479 57.491 328.479 55.9896 320.601C66.2851 318.155 76.8052 320.6 87.1702 320.311C89.3034 320.657 90.9944 325.414 90.8118 327.364C90.6993 328.557 89.3036 329.16 89.2166 330.386C89.0343 332.976 91.5633 337.251 89.2434 340.37C84.5121 340.732 79.7264 342.239 75.0492 342.706C70.5358 343.158 66.5816 341.8 62.696 343.68L62.7034 343.678Z" fill="#C10000"/>
<path d="M92.5862 542.123C88.8176 539.686 88.8701 534.395 87.059 531.667C85.8301 529.819 79.8222 528.724 81.3181 523.858C81.445 523.437 85.7106 519.485 86.3323 519.17C87.5578 518.561 89.0013 519.042 90.1236 518.574C92.6479 517.526 96.8915 513.693 99.9783 512.292C102.222 511.269 105.867 510.971 108.275 509.437C113.134 513.769 113.818 520.561 118.268 525.139C111.188 532.688 102.189 538.411 92.5714 542.127L92.5862 542.123Z" fill="#C10000"/>
<path d="M118.808 485.505C118.529 485.426 115.877 486.614 114.022 486.54C112.005 486.457 105.505 484.463 104.416 482.711C103.672 481.517 100.585 469.22 100.504 467.386C100.38 464.563 101.478 461.18 103.641 459.268C103.952 459.123 105.759 461.172 106.812 461.685C108.313 462.421 118.857 467.117 119.542 467.216C121.588 467.507 122.504 466.018 126.167 467.452C135.511 471.093 137.992 480.37 125.79 478.145C128.253 482.191 134.91 480.954 133.551 487.326C132.094 494.159 124.824 490.601 121.004 488.099C120.018 487.454 119.096 485.59 118.81 485.513L118.808 485.505Z" fill="#C10000"/>
<path d="M164.218 307.436C163.38 308.582 156.926 311.995 155.332 312.19C153.308 312.445 151.692 310.197 149.834 309.836C149.385 309.749 141.591 309.401 141.156 309.478C138.426 309.977 136.824 313.448 131.864 312.46C126.749 311.436 128.316 305.148 126.186 301.646C127.157 297.099 130.087 295.014 134.48 293.836C139.451 292.5 144.194 294.04 147.994 293.753C150.698 293.55 152.462 291.2 155.519 290.832C155.905 290.785 161.383 291.4 161.667 291.526C164.694 292.888 165.735 305.366 164.226 307.434L164.218 307.436Z" fill="#C10000"/>
<path d="M173.166 476.823C177.686 472.782 184.604 475.033 189.17 473.765C191.675 473.067 194.097 470.72 197.609 471.461C200.461 476.356 201.091 472.347 203.906 473.337C206.935 474.402 205.081 485.36 205.224 488.522C205.303 490.38 206.124 491.313 206.23 492.931C203.217 496.73 198.641 493.629 195.866 493.86C188.336 494.485 188.916 494.334 181.53 493.179C179.334 492.836 176.721 494.133 174.315 492.2L173.171 476.838L173.166 476.823Z" fill="#C10000"/>
<path d="M67.578 492.766C68.0759 491.91 74.5532 491.188 76.231 490.593C79.9678 489.252 97.84 479.73 100.411 485.458C99.9177 490.524 103.297 494.362 103.832 499.356L95.8178 504.692C91.9934 505.145 82.0871 512.443 79.4217 512.307C78.7971 512.279 75.4459 510.29 75.1437 509.825C74.517 508.844 75.354 507.498 74.9982 506.68C74.6827 505.946 73.2181 505.504 72.6829 504.369C71.9842 502.889 72.4895 500.614 71.6669 499.009C70.511 496.748 67.075 496.049 67.5833 492.756L67.578 492.766Z" fill="#C10000"/>
<path d="M130.202 292.051C125.555 290.732 122.339 280.962 126.138 277.642C129.758 274.477 132.02 277.412 134.493 276.603C137.976 275.463 144.418 270.036 148.509 268.257C150.024 267.596 154.777 266.307 156.084 267.315C158.827 269.415 163.045 281.722 160.739 284.22C159.829 285.203 157.694 285.073 156.32 285.917C155.116 286.657 154.514 288.095 153.281 288.875C148.941 291.623 147.256 289.802 143.45 290.291C140.214 290.703 133.043 292.881 130.192 292.07L130.202 292.051Z" fill="#C10000"/>
<path d="M64.8172 484.683C62.8617 482.564 59.2169 464.776 60.4502 463.86C65.6258 461.4 72.1654 463.479 77.4155 462.166C81.846 461.065 86.3763 457.782 91.4212 459.203C95.6043 460.383 94.8678 470.219 95.5627 474.214C89.2377 475.908 83.0513 478.14 76.8105 480.154C72.5391 481.529 68.7376 481.367 64.8246 484.681L64.8172 484.683Z" fill="#C10000"/>
<path d="M75.3207 290.5C72.5023 289.054 58.6919 291.945 57.051 290.168C53.5033 286.33 56.0122 274.255 58.5524 269.928C59.8319 269.367 70.6372 275.997 73.0165 276.224C76.7317 276.587 77.9603 274.071 83.552 276.166C95.7307 280.727 93.0127 296.578 80.6557 294.038C76.6139 293.209 77.0611 291.399 75.3228 290.507L75.3207 290.5Z" fill="#C10000"/>
<path d="M143.813 406.58L142.328 406.648L141.906 405.601C144.605 404.631 140.833 403.46 142.344 400.815C143.856 398.17 146.273 398.946 148.033 397.831C155.621 393.018 163.482 383.259 172.868 384.157C172.369 388.456 176.775 393.383 177.118 396.295C177.757 401.707 170.178 400.913 168.463 401.711C166.916 402.429 165.253 405.27 163.462 406.195C161.942 406.977 159.912 406.713 159.097 407.22C158.643 407.503 159.125 409.15 157.958 410.407C157.181 411.239 151.728 414.876 150.74 415.169C144.965 416.857 144.567 406.916 143.813 406.58Z" fill="#C10000"/>
<path d="M115.894 510.9L107.897 491.012C118.68 486.311 127.691 497.549 137.713 499.545L140.847 513.533L139.431 515.703C131.106 516.429 124.034 510.725 115.894 510.9Z" fill="#C10000"/>
<path d="M55.1698 295.754C58.1657 295.787 60.5688 296.736 63.7637 296.904C73.1339 297.415 73.7424 295.47 83.4436 298.879C86.2949 299.883 86.8175 296.89 87.9354 302.437C88.535 305.434 89.8397 312.296 86.17 312.897C82.0248 313.571 71.6996 313.664 67.185 313.556C65.1855 313.508 59.7293 313.383 58.2479 312.521C54.6598 310.432 55.6994 299.564 55.1772 295.752L55.1698 295.754Z" fill="#C10000"/>
<path d="M142.921 473.194C142.462 472.934 139.493 474.55 137.361 471.625C133.373 466.146 138.926 461.247 142.877 457.674C146.116 454.747 151.861 450.234 156.158 450.557C157.665 451.62 156.66 453.55 157.297 455.176C158.967 459.419 164.761 461.408 162.357 467.209C162.103 467.826 154.824 477.41 154.259 477.893C151.25 480.481 147.582 481.09 144.811 477.973C143.084 476.037 143.152 473.327 142.921 473.194Z" fill="#C10000"/>
<path d="M115.117 439.693C117.129 440.618 120.424 441.438 122.627 442.164C123.712 443.541 117.875 451.123 115.163 450.048C117.166 453.329 125.122 452.214 126.693 454.163C128.861 456.853 129.216 460.113 125.6 461.483C124.596 461.861 117.515 460.627 116.181 460.138C113.2 459.044 113.004 457.115 110.927 455.656C108.678 454.078 98.9677 452.497 98.2556 451.165C98.7791 445.257 95.7394 438.96 99.2515 433.56C105.229 433.631 109.985 437.329 115.132 439.688L115.117 439.693Z" fill="#C10000"/>
<path d="M147.142 513.096C144.893 512.071 143.037 500.212 143.954 498.115C144.344 497.218 145.921 496.411 146.655 495.375C150.956 489.268 153.927 481.991 161.847 479.997C162.537 481.863 162.849 485.032 164.274 486.503C166.418 488.719 170.511 488.42 169.153 493.655C168.131 497.609 164.699 497.341 162.45 499.206C161.52 499.978 161.247 502.226 160.169 503.57C158.545 505.575 156.389 506.316 154.73 507.867C153.071 509.418 151.023 514.868 147.142 513.096Z" fill="#C10000"/>
<path d="M135.979 431.904C136.327 430.971 140.935 426.264 141.98 425.723C149.416 421.883 156.722 433.732 153.88 438.066C153.017 439.38 151.573 439.259 151.004 439.896C149.48 441.608 150.211 444.728 146.693 446.382C145.769 446.816 140.825 447.304 139.886 447.183C138.762 447.034 139.235 444.063 137.143 444.61L138.08 448.752L140.84 449.382C144.314 453.52 135.518 457.752 133.479 454.929C133.198 454.538 130.498 448.807 130.233 448.083C128.651 443.759 130.871 441.654 133.141 438.086C135.728 434.033 134.613 435.58 135.985 431.894L135.979 431.904Z" fill="#C10000"/>
<path d="M133.718 402.58C139.606 409.482 145.426 414.426 137.956 422.455C129.794 431.22 124.82 430.02 122.355 418.104C120.991 411.508 128.073 404.743 133.716 402.573L133.718 402.58Z" fill="#C10000"/>
<path d="M145.977 540.589C144.212 539.632 142.899 541.3 141.25 541.022C138.145 540.5 127.266 530.112 125.528 527.331C116.507 512.893 141.26 525.888 145.076 528.183L145.977 540.589Z" fill="#C10000"/>
<path d="M152.761 537.594C151.467 536.718 149.252 528.197 149.72 526.653C149.962 525.855 159.663 515.566 161.006 514.418C162.798 512.885 164.556 511.346 166.84 510.575C166.105 513.693 165.97 517.031 165.122 520.117C164.506 522.369 162.224 529.399 161.474 530.936C161.307 531.273 156.988 536.512 156.673 536.723C155.495 537.527 154.122 537.65 152.753 537.596L152.761 537.594Z" fill="#C10000"/>
<path d="M96.754 331.288C96.328 331.226 93.6057 324.141 93.4326 323.318C91.2751 313.163 109.086 306.678 109.483 319.614C109.522 320.779 107.915 326.398 106.968 326.807L96.7519 331.28L96.754 331.288Z" fill="#C10000"/>
<path d="M124.044 303.993C120.532 312.923 104.314 302.345 111.591 294.147C112.952 292.618 117.373 291.624 119.033 292.995C119.306 293.221 123.335 297.864 123.495 298.171C124.131 299.404 124.53 302.764 124.044 303.993Z" fill="#C10000"/>
<path d="M113.395 315.02C115.262 311.079 121.93 314.77 123.487 317.564C125.338 320.873 124.227 327.27 122.962 330.717C121.886 331.179 113.574 324.839 112.831 323.621C112.297 322.742 112.924 315.996 113.393 315.012L113.395 315.02Z" fill="#C10000"/>
<path d="M97.3319 307.399C86.6496 300.973 101.485 289.997 104.623 296.331C106.16 299.442 103.57 299.957 103.12 301.063C101.768 304.399 102.826 306.432 97.3319 307.399Z" fill="#C10000"/>
<path d="M94.4913 287.762C94.1871 281.733 95.9092 273.623 103.487 273.777C105.77 280.781 102.536 288.118 94.4913 287.762Z" fill="#C10000"/>
<path d="M114.771 273.287C118.843 274.555 122.659 287.242 121.008 287.902C117.964 286.786 113.605 285.384 112.161 282.149C111.037 279.639 110.408 271.926 114.778 273.284L114.771 273.287Z" fill="#C10000"/>
<path d="M144.254 483.345C143.133 484.317 140.175 485.305 139.812 483.352C139.816 481.029 145.58 477.751 145.653 480.364C145.229 481.311 145.067 482.638 144.254 483.345Z" fill="#C10000"/>
</svg>
