<svg width="1104" height="1143" viewBox="0 0 1104 1143" fill="none" xmlns="http://www.w3.org/2000/svg">
<path d="M75.497 69.0427C43.6768 74.3524 38.6681 125.826 40.1413 150.899L44.5608 215.057C47.5072 236.443 40.1413 283.639 44.5608 303.549C55.586 353.221 73.2873 369.181 90.9654 389.83L75.497 436.29L73.2873 469.471C80.6531 479.797 73.2873 502.657 75.497 511.507C77.6409 520.09 68.8679 569.766 66.6582 586.724L44.5608 626.547C25.4097 754.86 -9.79873 1016.8 2.57578 1046.89C14.9503 1076.97 127.058 1097.77 181.564 1104.41C185.247 1092.61 193.055 1069.01 194.823 1069.01C196.591 1069.01 220.603 1092.61 232.388 1104.41H318.568V1029.19C377.494 1035.09 485.883 1034.87 479.879 1046.89C473.51 1059.63 471.039 1100.72 479.879 1113.26L616.461 1117.51C619.408 1114.56 636.889 1104.41 663.169 1104.41C692.892 1104.41 711.163 1099.98 720.738 1113.26L791.453 1104.41C792.923 1097.77 797.64 1081.4 804.71 1069.01C811.78 1056.62 837.121 1074.17 848.904 1084.49L921.827 1069.01V1038.04C930.664 1030.66 948.786 1018.57 950.552 1029.19C952.319 1039.81 968.968 1045.41 977.07 1046.89L1034.52 1029.19C1034.52 1018.86 1035.85 996.445 1041.15 989.366C1046.46 982.287 1068.4 992.315 1078.72 998.217L1103.02 973.883C1103.76 949.544 1104.79 898.661 1103.02 889.811C1100.82 878.75 1085.35 867.69 1078.72 865.476C1072.09 863.267 1049.99 807.957 1034.52 796.896C1022.15 788.045 919.28 776.841 866.984 777.58L762.724 757.074C747.255 750.437 717.205 733.623 720.738 719.465C724.275 705.307 708.955 698.815 700.853 697.34L685.384 673.006C678.756 671.532 661.963 669.467 647.819 673.006C633.675 676.546 616.881 661.206 610.253 653.095C607.306 643.509 596.996 624.333 579.315 624.333C561.639 624.333 536.595 599.263 526.281 586.724V555.753H513.025C512.29 549.116 509.046 533.628 501.976 524.781C494.906 515.931 497.556 495.284 495.348 487.173C498.295 482.01 495.348 471.685 495.348 462.834C495.348 453.988 485.034 425.226 479.879 411.953L501.976 389.83V345.583C496.821 336.734 485.183 318.151 479.879 314.611C473.251 310.186 495.348 270.365 501.976 257.091C508.604 243.817 479.879 217.269 479.879 203.995C479.879 193.376 490.189 177.448 495.348 170.811V150.899L479.879 148.687L486.507 40.2831C480.614 37.3337 467.506 29.2224 462.202 20.3732C456.899 11.5239 431.999 16.686 420.216 20.3732L404.748 4.88613C382.65 1.19894 338.455 -3.96313 338.455 4.88613C338.455 15.9477 303.1 31.4339 296.471 40.2831C289.842 49.1324 199.242 60.1936 181.564 69.0427C163.887 77.8918 115.272 62.4057 75.497 69.0427Z" fill="#4E0000"/>
<g filter="url(#filter0_d_20_55)">
<path d="M195.191 351.693C193.96 351.83 192.289 352.015 190.179 352.25C188.264 352.641 186.242 352.866 184.112 352.924C182.178 353.139 180.312 353.169 178.515 353.012C176.913 353.012 175.721 352.699 174.939 352.074C173.181 350.666 171.94 349.111 171.218 347.41C170.671 345.69 170.202 343.872 169.811 341.956C169.616 340.196 169.235 338.368 168.668 336.471C168.297 334.731 167.487 333.04 166.236 331.398C164.517 331.945 163.462 332.864 163.071 334.154C162.875 335.601 162.68 337.048 162.485 338.495C162.485 340.098 162.103 341.476 161.342 342.63C160.775 343.94 159.348 344.721 157.063 344.975C153.37 345.386 150.224 345.112 147.626 344.154C145.223 343.352 142.966 342.267 140.856 340.898C138.922 339.51 136.9 338.132 134.789 336.763C132.68 335.395 130.081 334.436 126.994 333.889C123.712 333.185 121.279 332.119 119.697 330.692C118.114 329.265 116.776 327.632 115.682 325.794C114.783 324.113 113.787 322.353 112.693 320.515C111.599 318.678 109.811 317.006 107.33 315.5C105.005 313.799 103.774 312.333 103.638 311.101C103.579 310.573 103.598 309.947 103.696 309.224C103.794 308.501 103.784 307.611 103.667 306.555C103.569 305.676 103.12 304.835 102.319 304.033C101.713 303.388 100.971 303.115 100.092 303.212C99.74 303.251 99.5833 303.447 99.6224 303.799C99.6615 304.15 99.5833 304.248 99.388 304.092C97.2195 302.195 94.5134 298.666 91.2706 293.504C88.2032 288.323 85.1358 282.34 82.0688 275.556C79.1776 268.752 76.5106 261.567 74.0686 254C71.8224 246.59 70.318 239.454 69.5562 232.592C68.228 220.626 67.2616 208.709 66.6561 196.842C65.8948 185.17 64.84 173.263 63.4923 161.122L59.5956 126.017C59.537 125.489 58.9217 124.756 57.7494 123.818C56.597 123.055 55.952 122.058 55.8152 120.826C55.6004 118.891 55.5809 116.31 55.7571 113.084C55.9524 110.034 56.4997 106.945 57.3986 103.816C58.2975 100.688 59.4992 97.8827 61.0036 95.3999C62.7034 93.0731 64.7844 91.7734 67.2459 91.4997C68.1253 91.402 68.8382 91.4118 69.3855 91.529C70.1082 91.6268 70.9192 91.7147 71.8177 91.7929C76.9174 92.8293 80.854 94.6185 83.6284 97.1603C86.5786 99.6826 89.1085 102.43 91.2184 105.401C93.5241 108.53 95.8293 111.658 98.1345 114.786C100.46 118.09 103.527 120.867 107.337 123.115C111.166 125.54 116.168 127.3 122.341 128.395C128.515 129.49 136.614 129.48 146.637 128.366C155.781 127.35 164.768 125.728 173.599 123.499C182.45 121.446 191.448 119.912 200.591 118.896C217.491 117.195 234.236 115.691 250.823 114.381C267.43 113.248 284.184 111.831 301.085 110.131L342.524 105.791C346.921 105.303 352.001 104.56 357.764 103.563C363.548 102.742 368.989 101.247 374.088 99.0767C379.383 97.063 383.691 94.1796 387.013 90.426C390.53 86.8287 392.22 82.009 392.083 75.9677C391.927 72.9568 392.338 69.4377 393.315 65.41C394.292 61.3827 395.728 57.4821 397.623 53.7089C399.714 50.0921 402.117 46.8858 404.833 44.0899C407.549 41.2941 410.665 39.7008 414.182 39.3099C417.171 38.9776 419.731 39.5839 421.86 41.1285C424.166 42.6537 426.072 44.5794 427.575 46.9061C429.256 49.2134 430.513 51.745 431.354 54.5018C432.39 57.4149 433.044 60.1033 433.32 62.5669C433.944 68.1978 433.944 73.8087 433.32 79.4005C432.87 84.9727 432.968 90.6622 433.609 96.469C434.411 103.684 435.562 110.858 437.069 117.995C438.594 125.307 440.195 132.522 441.872 139.638C443.727 146.736 445.409 153.852 446.912 160.989C448.436 168.301 449.608 175.652 450.428 183.043C451.111 189.201 451.532 195.389 451.689 201.607C452.02 207.804 452.351 214.002 452.687 220.2C451.396 221.412 450.457 223.387 449.871 226.124C449.286 228.861 448.806 231.765 448.436 234.834C448.084 238.079 447.808 241.227 447.613 244.277C447.596 247.308 447.498 249.634 447.32 251.257C446.912 255.578 446.343 259.293 445.621 262.401C445.095 265.666 444.067 268.452 442.543 270.759C441.214 273.223 439.32 275.393 436.857 277.27C434.415 279.323 431.163 281.287 427.099 283.164C426.59 283.399 425.885 284.278 424.989 285.803C424.108 287.504 423.249 289.381 422.408 291.434C421.568 293.487 420.718 295.452 419.858 297.329C418.999 299.206 418.256 300.535 417.631 301.317C415.599 303.858 412.336 306.537 407.842 309.353C403.544 312.324 398.865 315.071 393.804 317.593C388.743 320.115 383.732 322.275 378.769 324.073C373.807 325.872 369.743 326.947 366.578 327.299C360.072 328.022 353.458 327.777 346.737 326.565C340.035 325.529 333.5 324.384 327.131 323.133C323.301 322.312 319.58 320.855 315.965 318.763C312.37 316.847 308.687 314.94 304.917 313.044C301.321 311.128 297.668 309.485 293.956 308.116C290.263 306.924 286.483 306.542 282.614 306.972C277.163 307.578 271.839 309.328 266.642 312.222C261.445 315.115 256.726 318.311 252.486 321.811C250.513 323.277 248.647 324.91 246.889 326.708C245.15 328.683 243.401 330.569 241.643 332.368C240.079 334.323 238.321 336.122 236.367 337.764C234.589 339.387 232.528 340.863 230.183 342.192C224.81 345.105 219.085 347.256 213.009 348.644C207.109 350.012 201.169 351.028 195.191 351.693ZM350.812 283.895C352.746 283.68 355.003 283.161 357.582 282.34C360.161 281.519 362.73 280.61 365.29 279.613C368.025 278.597 370.673 277.59 373.232 276.593C375.968 275.576 378.371 274.775 380.442 274.189C383.021 273.367 385.043 272.341 386.508 271.109C388.149 269.858 389.419 268.47 390.318 266.945C391.393 265.401 392.36 263.69 393.22 261.813C394.255 259.916 395.467 258 396.854 256.065C400.234 251.236 402.843 246.671 404.68 242.369C406.516 238.068 407.806 233.65 408.548 229.114C409.291 224.578 409.565 219.827 409.37 214.861C409.35 209.875 409.009 204.391 408.345 198.408C407.915 194.537 407.378 190.5 406.733 186.296C406.108 182.269 405.17 178.632 403.92 175.387C403.49 174.722 403.002 174.331 402.455 174.213C401.908 174.096 401.331 173.715 400.726 173.07C400.139 172.6 399.495 171.603 398.792 170.078C398.264 168.534 397.814 166.09 397.443 162.746C396.877 157.644 395.705 153.499 393.927 150.312C392.169 147.301 389.864 144.974 387.011 143.332C384.354 141.846 381.14 140.956 377.369 140.663C373.774 140.35 369.681 140.359 365.09 140.692C359.267 141.16 353.269 141.649 347.095 142.157C340.941 142.841 334.757 143.261 328.544 143.417C322.507 143.554 316.509 143.241 310.55 142.478C304.61 141.892 298.759 140.494 292.995 138.284C291.627 148.412 290.806 158.656 290.532 169.018C290.258 179.381 290.668 189.489 291.762 199.343C292.523 206.206 293.549 213.038 294.838 219.842C296.147 226.822 297.788 233.587 299.761 240.137C300.562 242.542 301.89 245.69 303.746 249.58C305.622 253.647 307.83 257.499 310.37 261.135C312.929 264.948 315.693 268.203 318.663 270.901C321.652 273.776 324.573 275.232 327.426 275.272C329.575 275.389 331.587 275.878 333.463 276.738C335.358 277.774 337.165 278.82 338.884 279.876C340.799 281.089 342.694 282.125 344.57 282.985C346.445 283.845 348.526 284.149 350.812 283.895ZM175.586 312.189C180.157 311.681 184.661 310.557 189.096 308.817C193.551 307.253 198.025 305.865 202.519 304.653C206.68 303.656 209.963 302.757 212.366 301.955C214.789 301.329 216.821 300.391 218.462 299.14C220.299 298.045 221.998 296.52 223.562 294.565C225.125 292.61 227.127 289.804 229.57 286.148C233.341 284.838 235.519 283.617 236.105 282.483C236.711 281.525 236.955 280.518 236.838 279.462C236.74 278.582 236.545 277.624 236.252 276.588C236.154 275.708 236.057 274.828 235.959 273.948L242.934 269.433C244.849 265.835 246.275 262.648 247.213 259.872C248.171 257.272 248.601 253.929 248.503 249.842C248.464 246.284 248.777 242.686 249.442 239.05C250.125 235.59 250.262 232.011 249.852 228.316C249.676 226.733 248.924 225.569 247.596 224.826C246.267 224.083 245.573 223.448 245.515 222.92C245.398 221.864 245.437 220.613 245.632 219.166C246.003 217.7 246.277 216.155 246.453 214.532C246.805 212.89 247.059 211.17 247.215 209.371C247.567 207.729 247.665 206.204 247.508 204.796C246.629 196.878 244.891 189.233 242.293 181.862C239.89 174.648 237.301 167.365 234.527 160.013C230.678 159.016 226.478 158.058 221.925 157.139C217.392 156.396 212.782 155.75 208.093 155.203C203.403 154.655 198.734 154.284 194.084 154.088C189.609 153.873 185.438 153.98 181.57 154.41C179.636 154.625 178.073 154.977 176.881 155.466C175.865 155.935 174.946 156.482 174.126 157.108C173.305 157.733 172.475 158.271 171.635 158.721C170.794 159.17 169.759 159.464 168.528 159.6C161.494 160.382 154.461 160.362 147.427 159.541C140.589 158.876 133.653 158.935 126.619 159.716C122.048 160.224 117.72 161.329 113.636 163.03C109.553 164.73 105.919 167.272 102.734 170.654C103.125 174.173 102.792 177.595 101.737 180.919C100.858 184.223 100.613 187.635 101.004 191.154C101.278 193.617 102.156 195.924 103.641 198.075C105.146 200.402 105.976 202.269 106.132 203.676C106.288 205.084 105.79 206.208 104.638 207.049C103.504 208.066 103.045 209.542 103.26 211.477L103.377 212.533C104.315 212.963 105.126 213.853 105.809 215.202C106.669 216.532 107.285 218.066 107.656 219.806C108.222 221.703 108.623 223.707 108.857 225.818C109.267 227.911 109.58 229.924 109.794 231.86C110.205 235.555 110.429 238.38 110.468 240.335C110.527 242.467 110.703 244.852 110.996 247.491C113.399 254.706 116.114 261.529 119.142 267.962C121.702 273.377 124.798 278.823 128.432 284.297C132.085 289.947 136.12 294.22 140.535 297.114C142.489 298.678 144.902 300.369 147.774 302.187C150.665 304.182 153.616 305.902 156.624 307.349C159.828 308.952 162.993 310.204 166.12 311.103C169.441 312.159 172.596 312.521 175.586 312.189Z" fill="white"/>
</g>
<g filter="url(#filter1_d_20_55)">
<path d="M282.138 622.255C278.583 622.587 275.082 622.574 271.633 622.213C268.354 621.835 264.982 621.38 261.517 620.853C258.221 620.305 254.849 619.85 251.401 619.489C247.952 619.128 244.535 619.107 241.149 619.425C239.795 619.553 238.449 619.761 237.11 620.058C235.957 620.509 234.704 620.798 233.35 620.921C229.964 621.24 226.692 620.947 223.535 620.046C220.393 619.315 217.312 618.321 214.292 617.067C211.626 615.95 208.923 615.346 206.183 615.261C203.459 615.346 200.735 615.431 198.01 615.512C195.302 615.767 192.57 615.767 189.814 615.512C187.058 615.257 184.424 614.479 181.912 613.175C180.188 612.992 177.601 612.725 174.152 612.363C170.889 612.155 168.54 611.692 167.107 610.97C166.752 610.834 166.451 610.349 166.203 609.517C165.954 608.688 165.698 607.77 165.434 606.772C165.169 605.769 164.728 604.702 164.11 603.564C163.491 602.425 162.635 601.477 161.539 600.725C160.614 599.96 159.366 599.391 157.795 599.026C156.224 598.66 154.645 598.21 153.059 597.674C151.472 597.139 150.038 596.421 148.758 595.516C147.664 594.764 147.045 593.625 146.903 592.1C146.76 590.574 146.888 589.198 147.285 587.965C147.851 586.716 148.333 585.475 148.73 584.239C149.296 582.99 149.693 581.757 149.921 580.542C150.149 579.323 149.93 577.891 149.264 576.246C148.973 576.786 148.142 577.032 146.772 576.99C145.571 576.93 144.302 577.049 142.963 577.347C141.641 577.814 140.442 578.694 139.368 579.99C138.294 581.286 137.899 583.461 138.184 586.508C138.327 588.033 138.546 589.465 138.842 590.804C139.153 592.312 139.549 593.812 140.031 595.308C136.18 594.301 133.067 592.966 130.693 591.309C128.487 589.635 126.428 587.693 124.513 585.48C122.784 583.419 120.955 581.201 119.024 578.817C117.28 576.586 115.027 574.407 112.266 572.274C109.119 569.66 107.081 567.034 106.151 564.387C105.236 561.91 104.105 558.94 102.757 555.477C101.193 551.521 99.4849 548.776 97.634 547.242C95.7831 545.704 94.001 543.992 92.2876 542.105C90.5743 540.214 89.0436 537.537 87.6954 534.074C86.1944 530.798 85.0955 525.432 84.3991 517.979C83.7664 511.202 83.3873 504.403 83.2624 497.579C83.1533 490.929 83.2132 484.258 83.4425 477.574C83.4964 474.494 83.8514 471.893 84.5078 469.782C85.011 467.857 85.6912 466 86.5485 464.211C87.2368 462.439 88.0096 460.655 88.8669 458.866C89.7242 457.077 90.542 454.867 91.3204 452.229C91.7017 450.827 92.2286 449.157 92.9008 447.211C93.4039 445.286 93.9835 443.267 94.64 441.156C95.2969 439.044 95.969 437.102 96.6573 435.326C97.5146 433.537 98.3189 432.097 99.0704 431C99.9753 429.721 100.996 428.77 102.134 428.149C103.457 427.686 104.779 427.219 106.102 426.756C107.593 426.275 108.908 425.723 110.045 425.103C111.368 424.639 112.397 423.774 113.133 422.509C113.234 419.937 113.428 417.441 113.714 415.022C114.17 412.587 114.71 410.144 115.335 407.694C117.134 406.842 118.848 405.998 120.477 405.162C122.291 404.48 124.098 403.713 125.897 402.861C128.061 400.437 129.81 398.138 131.144 395.963C132.646 393.772 134.173 391.835 135.723 390.152C137.274 388.469 139.094 386.932 141.184 385.54C143.458 384.302 146.442 383.34 150.135 382.653C154.488 381.733 158.625 380.321 162.545 378.416C166.635 376.496 170.632 374.499 174.536 372.425C178.456 370.52 182.469 368.692 186.574 366.942C190.695 365.36 194.957 364.363 199.358 363.952C203.928 363.524 208.67 364.021 213.584 365.441C220.065 359.879 227.313 356.125 235.327 354.18C243.511 352.218 251.75 350.85 260.045 350.074C262.753 349.821 265.377 349.575 267.916 349.337C270.64 349.253 273.272 349.093 275.811 348.855C278.689 348.586 280.826 347.703 282.223 346.205C283.805 344.861 285.781 344.078 288.15 343.857C291.875 343.508 295.561 343.676 299.211 344.36C302.876 345.213 306.587 345.635 310.343 345.625C310.476 343.392 311.187 341.873 312.478 341.068L313.542 341.482C315.684 342.477 317.633 343.235 319.388 343.754C321.16 344.443 322.824 344.885 324.379 345.082C325.934 345.278 327.574 345.466 329.299 345.647C331.023 345.827 333.009 346.068 335.257 346.371C342.324 347.077 349.253 348.137 356.045 349.552C362.852 351.137 369.736 352.629 376.697 354.028C384.689 355.502 391.798 357.571 398.023 360.236C404.248 362.9 410.217 367.382 415.928 373.683C418.566 376.341 421.351 378.729 424.281 380.847C427.21 382.965 430.585 384.358 434.403 385.026C435.159 385.81 435.672 386.702 435.936 387.702C436.199 388.703 436.377 389.711 436.475 390.728L436.662 392.76C436.772 393.946 436.963 395.039 437.226 396.04C437.677 397.194 438.369 398.24 439.311 399.177C441.918 401.496 443.817 403.539 445.005 405.308C446.211 407.246 446.971 409.908 447.29 413.296C447.511 415.668 447.472 417.978 447.171 420.228C447.035 422.461 446.827 424.788 446.538 427.206C447.464 427.975 448.678 429.059 450.173 430.456C451.854 432.007 453.005 433.35 453.625 434.489L452.861 434.561C452.186 434.625 451.515 434.774 450.852 435.003C450.377 435.39 450.181 436.006 450.258 436.856C450.466 439.057 451.171 441.126 452.377 443.063C453.583 445.001 454.457 447.058 455.001 449.225C456.304 454.06 458.033 458.853 460.185 463.608C462.508 468.345 463.905 473.257 464.381 478.335C464.886 483.757 465.085 489.548 464.975 495.709C464.886 502.041 464.185 508.257 462.877 514.359C461.57 520.465 459.459 526.214 456.546 531.614C453.808 536.993 449.956 541.455 444.993 544.994C442.751 546.571 441.014 548.1 439.787 549.583C438.725 551.049 437.753 552.507 436.866 553.956C436.144 555.392 435.341 556.832 434.45 558.286C433.732 559.717 432.598 561.277 431.044 562.96C427.622 566.529 423.798 569.448 419.57 571.721C415.528 574.152 411.981 577.304 408.928 581.175C405.276 585.96 400.668 589.639 395.103 592.21C389.553 594.951 383.816 596.595 377.891 597.152C376.029 597.326 374.144 597.245 372.234 596.91C370.325 596.578 368.354 596.506 366.323 596.693C364.63 596.854 362.884 597.36 361.086 598.21C359.303 599.23 357.443 600.343 355.507 601.55C353.57 602.756 351.541 603.887 349.42 604.94C347.298 605.994 345.238 606.784 343.238 607.311C338.715 608.246 334.301 609.432 329.995 610.859C325.858 612.27 321.551 613.698 317.076 615.142C311.447 617.033 305.702 618.597 299.841 619.829C293.98 621.061 288.079 621.869 282.138 622.255ZM280.047 580.674C289.527 579.786 298.842 578.061 307.994 575.494C317.162 573.098 326.329 570.706 335.497 568.309C338.819 567.315 341.933 565.913 344.837 564.103C347.757 562.462 350.778 560.984 353.9 559.666C359.804 557.066 365.716 554.546 371.635 552.112C377.555 549.681 383.475 547.246 389.395 544.812C393.008 543.278 396.003 540.605 398.379 536.798C400.924 532.97 402.907 528.597 404.326 523.681C405.914 518.748 407.039 513.432 407.702 507.73C408.55 502.185 409.075 496.84 409.277 491.694C409.649 486.531 409.714 481.743 409.472 477.319C409.415 473.053 409.284 469.82 409.078 467.619L409.64 470.899L409.125 468.129C408.777 464.402 408.598 460.659 408.589 456.898C408.595 453.312 408.424 449.654 408.076 445.927C407.791 442.877 407.253 439.851 406.46 436.851C405.852 434.004 404.507 431.481 402.424 429.284C397.5 424.105 392.863 419.241 388.51 414.693C384.327 410.129 378.785 406.547 371.883 403.946C369.587 403.135 367.876 402.184 366.75 401.094C365.793 399.987 364.751 398.888 363.624 397.798C362.683 396.861 361.58 396.024 360.317 395.288C359.053 394.552 357.051 394.141 354.311 394.056C349.323 393.668 344.319 393.111 339.299 392.384C334.464 391.811 329.592 391.754 324.683 392.213C319.436 392.704 314.141 392.687 308.799 392.161C303.641 391.789 298.513 390.816 293.414 389.243C292.013 388.861 290.696 388.472 289.463 388.075C288.247 387.847 286.961 387.796 285.607 387.923C283.068 388.16 280.923 388.959 279.171 390.319C277.59 391.663 276.121 392.398 274.767 392.525C274.09 392.588 273.643 392.374 273.426 391.881C273.395 391.543 273.186 391.135 272.8 390.658C272.599 390.335 272.052 389.959 271.158 389.531C270.28 389.271 268.741 389.244 266.54 389.45C261.631 389.909 256.638 390.376 251.559 390.851C246.497 391.495 241.551 392.471 236.721 393.777C233.891 394.554 231.177 395.663 228.579 397.101C226.167 398.694 223.521 399.625 220.644 399.894C218.782 400.068 216.88 399.819 214.939 399.146C212.998 398.473 211.012 398.232 208.98 398.422C206.611 398.644 204.727 399.503 203.33 401.001C202.103 402.483 200.621 403.988 198.886 405.517C197.627 406.66 195.928 407.674 193.791 408.557C191.839 409.594 189.964 410.539 188.165 411.39C186.382 412.411 184.845 413.324 183.554 414.128C182.263 414.933 181.657 415.758 181.736 416.605C181.8 417.282 181.94 417.867 182.156 418.36C182.542 418.836 182.767 419.413 182.83 420.091C183.147 423.479 181.861 426.161 178.972 428.141C176.268 430.274 173.477 431.472 170.6 431.744C168.23 431.965 166.262 432.832 164.696 434.344C163.299 435.844 162.011 437.586 160.83 439.579C159.65 441.568 158.47 443.556 157.29 445.549C156.295 447.691 155.099 449.509 153.702 451.009C151.369 453.448 149.834 455.301 149.099 456.567C148.379 457.999 147.897 459.24 147.653 460.289C147.579 461.322 147.497 462.269 147.407 463.132C147.332 464.164 146.858 465.49 145.985 467.109C144.805 469.098 143.455 471.103 141.937 473.126C140.603 475.301 139.346 477.383 138.166 479.376C134.933 484.972 133.193 491.031 132.948 497.549C132.889 504.216 133.151 510.687 133.736 516.955C133.974 519.496 134.788 521.811 136.178 523.902C137.569 525.993 139.044 528.075 140.604 530.152C142.333 532.209 143.893 534.287 145.284 536.377C146.69 538.638 147.52 541.124 147.773 543.834C147.979 546.035 147.685 548.368 146.89 550.837C153.179 554.177 158.266 557.461 162.154 560.686C166.041 563.911 169.811 566.805 173.466 569.367C177.12 571.929 181.243 574.024 185.834 575.643C190.425 577.266 196.569 578.141 204.265 578.277C207.513 578.316 210.554 578.885 213.39 579.986C216.409 581.243 219.459 581.898 222.538 581.949C229.387 582.165 236.198 581.953 242.969 581.32C249.756 580.857 256.582 580.818 263.448 581.201C266.188 581.286 268.92 581.286 271.644 581.201C274.369 581.116 277.169 580.942 280.047 580.674Z" fill="white"/>
</g>
<g filter="url(#filter2_d_20_55)">
<path d="M237.45 901.219C234.011 901.542 230.623 901.525 227.286 901.177C224.114 900.811 220.851 900.374 217.499 899.86C214.311 899.333 211.049 898.895 207.712 898.547C204.375 898.194 201.069 898.173 197.794 898.483C196.484 898.602 195.181 898.81 193.887 899.095C192.771 899.528 191.558 899.809 190.248 899.932C186.972 900.238 183.807 899.953 180.752 899.082C177.713 898.377 174.732 897.416 171.81 896.201C169.231 895.118 166.616 894.535 163.965 894.455C161.329 894.535 158.694 894.616 156.058 894.697C153.438 894.943 150.795 894.943 148.128 894.697C145.462 894.45 142.914 893.694 140.483 892.436C138.815 892.262 136.312 891.999 132.976 891.65C129.818 891.451 127.546 891 126.159 890.303C125.817 890.172 125.525 889.7 125.284 888.897C125.044 888.094 124.796 887.206 124.541 886.237C124.285 885.272 123.858 884.236 123.259 883.135C122.661 882.035 121.832 881.121 120.773 880.39C119.878 879.651 118.67 879.103 117.151 878.746C115.63 878.393 114.103 877.956 112.568 877.441C111.033 876.923 109.646 876.226 108.408 875.351C107.349 874.62 106.75 873.52 106.612 872.045C106.474 870.571 106.598 869.236 106.982 868.042C107.53 866.836 107.996 865.633 108.38 864.439C108.928 863.233 109.312 862.039 109.533 860.862C109.753 859.685 109.541 858.299 108.896 856.706C108.615 857.229 107.812 857.467 106.486 857.428C105.324 857.369 104.096 857.484 102.801 857.772C101.522 858.223 100.362 859.073 99.3231 860.33C98.2836 861.584 97.9019 863.687 98.1775 866.636C98.315 868.11 98.5273 869.496 98.8135 870.792C99.115 872.249 99.4984 873.702 99.9638 875.147C96.2383 874.174 93.2269 872.886 90.9297 871.28C88.796 869.661 86.8033 867.783 84.9511 865.642C83.2781 863.649 81.5079 861.499 79.6409 859.196C77.9526 857.037 75.7731 854.926 73.1022 852.865C70.0577 850.337 68.0858 847.796 67.1856 845.233C66.3012 842.837 65.2065 839.965 63.9025 836.612C62.3888 832.788 60.7366 830.132 58.9456 828.645C57.155 827.162 55.4306 825.505 53.7733 823.674C52.1156 821.847 50.6346 819.255 49.3306 815.906C47.878 812.737 46.8151 807.544 46.1417 800.334C45.5294 793.781 45.1625 787.2 45.0415 780.601C44.9358 774.164 44.994 767.709 45.2156 761.242C45.2678 758.263 45.6114 755.748 46.2466 753.709C46.7332 751.843 47.3913 750.046 48.221 748.316C48.8868 746.6 49.6342 744.875 50.4639 743.145C51.2936 741.416 52.0846 739.274 52.8379 736.725C53.2065 735.365 53.716 733.751 54.3665 731.868C54.8535 730.007 55.4145 728.053 56.0493 726.009C56.6845 723.965 57.335 722.087 58.0008 720.37C58.8305 718.641 59.6088 717.247 60.3357 716.185C61.2109 714.944 62.199 714.026 63.2996 713.427C64.5789 712.977 65.8587 712.527 67.1381 712.076C68.5813 711.613 69.8535 711.078 70.9537 710.483C72.2335 710.032 73.2288 709.195 73.9404 707.971C74.0385 705.482 74.2262 703.068 74.503 700.727C74.9438 698.369 75.4665 696.006 76.0711 693.635C77.8112 692.811 79.4698 691.995 81.0459 691.188C82.8017 690.525 84.5494 689.785 86.2895 688.961C88.3833 686.616 90.0754 684.389 91.3658 682.286C92.8197 680.166 94.2965 678.292 95.7967 676.664C97.2964 675.037 99.0573 673.55 101.079 672.203C103.28 671.005 106.167 670.074 109.739 669.411C113.951 668.519 117.954 667.155 121.746 665.311C125.703 663.454 129.57 661.521 133.347 659.515C137.14 657.671 141.022 655.903 144.994 654.208C148.981 652.678 153.103 651.714 157.361 651.319C161.783 650.902 166.371 651.382 171.125 652.759C177.395 647.375 184.408 643.747 192.161 641.864C200.079 639.965 208.05 638.639 216.075 637.892C218.695 637.645 221.234 637.407 223.69 637.178C226.326 637.097 228.872 636.94 231.328 636.71C234.113 636.451 236.18 635.597 237.532 634.148C239.062 632.848 240.974 632.087 243.267 631.875C246.87 631.539 250.436 631.701 253.968 632.364C257.514 633.188 261.104 633.596 264.738 633.587C264.866 631.424 265.554 629.954 266.804 629.177L267.832 629.576C269.904 630.541 271.79 631.272 273.489 631.777C275.203 632.44 276.813 632.869 278.317 633.06C279.822 633.252 281.408 633.43 283.076 633.609C284.745 633.783 286.666 634.016 288.841 634.305C295.678 634.989 302.382 636.018 308.953 637.386C315.539 638.92 322.199 640.36 328.933 641.716C336.666 643.143 343.544 645.145 349.566 647.72C355.589 650.299 361.363 654.637 366.889 660.73C369.441 663.301 372.135 665.613 374.97 667.661C377.805 669.713 381.069 671.06 384.764 671.706C385.496 672.462 385.989 673.329 386.245 674.293C386.501 675.262 386.674 676.239 386.766 677.221L386.95 679.188C387.057 680.336 387.238 681.394 387.494 682.362C387.929 683.476 388.601 684.491 389.512 685.396C392.034 687.64 393.871 689.616 395.022 691.328C396.188 693.202 396.925 695.777 397.231 699.057C397.445 701.351 397.406 703.586 397.114 705.762C396.985 707.925 396.782 710.173 396.505 712.514C397.401 713.257 398.572 714.307 400.02 715.658C401.648 717.158 402.76 718.458 403.359 719.559L402.622 719.631C401.966 719.69 401.319 719.835 400.679 720.06C400.219 720.434 400.026 721.029 400.103 721.849C400.302 723.978 400.985 725.983 402.151 727.857C403.318 729.731 404.164 731.72 404.69 733.819C405.953 738.493 407.625 743.133 409.707 747.73C411.952 752.315 413.304 757.065 413.764 761.981C414.254 767.225 414.447 772.829 414.343 778.791C414.254 784.914 413.577 790.93 412.311 796.832C411.045 802.739 409.004 808.301 406.188 813.523C403.536 818.732 399.809 823.049 395.008 826.474C392.837 827.999 391.158 829.478 389.971 830.91C388.947 832.329 388.005 833.74 387.144 835.142C386.448 836.531 385.67 837.925 384.81 839.327C384.113 840.717 383.015 842.225 381.515 843.853C378.203 847.303 374.502 850.128 370.413 852.329C366.502 854.679 363.07 857.73 360.116 861.478C356.584 866.105 352.125 869.661 346.741 872.151C341.371 874.803 335.821 876.396 330.089 876.932C328.288 877.102 326.463 877.025 324.616 876.698C322.768 876.375 320.862 876.307 318.897 876.49C317.259 876.643 315.57 877.131 313.83 877.956C312.105 878.946 310.306 880.021 308.433 881.189C306.559 882.358 304.596 883.45 302.544 884.469C300.491 885.485 298.498 886.25 296.563 886.764C292.187 887.669 287.916 888.812 283.75 890.193C279.748 891.561 275.581 892.942 271.252 894.336C265.806 896.171 260.248 897.68 254.577 898.874C248.906 900.064 243.197 900.845 237.45 901.219ZM235.427 860.989C244.598 860.131 253.61 858.461 262.465 855.979C271.334 853.664 280.204 851.344 289.074 849.028C292.288 848.068 295.3 846.708 298.11 844.957C300.935 843.372 303.858 841.94 306.878 840.666C312.59 838.15 318.309 835.711 324.037 833.357C329.764 831.003 335.491 828.649 341.218 826.295C344.714 824.812 347.612 822.229 349.91 818.541C352.373 814.84 354.291 810.608 355.664 805.853C357.2 801.081 358.289 795.936 358.93 790.42C359.751 785.054 360.259 779.883 360.455 774.903C360.814 769.91 360.877 765.274 360.643 761C360.588 756.87 360.461 753.743 360.262 751.614L360.806 754.783L360.307 752.102C359.971 748.499 359.798 744.879 359.789 741.242C359.794 737.77 359.629 734.231 359.293 730.623C359.017 727.674 358.496 724.747 357.729 721.845C357.141 719.091 355.839 716.648 353.824 714.524C349.061 709.514 344.574 704.806 340.363 700.408C336.316 695.993 330.954 692.526 324.276 690.011C322.055 689.225 320.4 688.307 319.31 687.249C318.384 686.182 317.376 685.116 316.286 684.062C315.375 683.157 314.309 682.345 313.086 681.636C311.863 680.922 309.926 680.523 307.275 680.442C302.449 680.068 297.608 679.528 292.752 678.823C288.074 678.27 283.361 678.215 278.611 678.657C273.535 679.133 268.412 679.116 263.243 678.61C258.254 678.249 253.292 677.306 248.359 675.785C247.003 675.415 245.729 675.041 244.537 674.655C243.36 674.434 242.116 674.387 240.806 674.51C238.349 674.74 236.274 675.509 234.58 676.826C233.049 678.126 231.629 678.84 230.319 678.959C229.663 679.023 229.231 678.814 229.021 678.338C228.991 678.011 228.789 677.616 228.415 677.153C228.221 676.843 227.692 676.477 226.827 676.065C225.977 675.81 224.488 675.785 222.359 675.984C217.61 676.431 212.779 676.881 207.865 677.34C202.968 677.965 198.182 678.908 193.51 680.17C190.772 680.922 188.146 681.997 185.633 683.386C183.298 684.929 180.74 685.83 177.955 686.089C176.154 686.259 174.314 686.017 172.436 685.366C170.558 684.716 168.636 684.483 166.671 684.665C164.378 684.882 162.556 685.711 161.205 687.16C160.017 688.596 158.584 690.049 156.905 691.532C155.687 692.637 154.044 693.618 151.976 694.472C150.087 695.475 148.273 696.389 146.533 697.213C144.807 698.199 143.32 699.082 142.072 699.86C140.823 700.638 140.236 701.436 140.313 702.256C140.374 702.911 140.51 703.48 140.72 703.956C141.093 704.415 141.31 704.976 141.371 705.63C141.678 708.906 140.433 711.502 137.639 713.419C135.023 715.48 132.323 716.644 129.539 716.903C127.246 717.12 125.342 717.957 123.827 719.423C122.476 720.872 121.229 722.559 120.087 724.483C118.945 726.408 117.804 728.333 116.662 730.258C115.699 732.331 114.542 734.095 113.191 735.544C110.933 737.902 109.448 739.695 108.737 740.919C108.04 742.308 107.574 743.506 107.339 744.522C107.267 745.521 107.187 746.438 107.1 747.271C107.028 748.27 106.57 749.553 105.725 751.121C104.583 753.046 103.278 754.983 101.808 756.942C100.518 759.045 99.3018 761.059 98.1601 762.984C95.0315 768.402 93.3487 774.266 93.1118 780.567C93.0536 787.021 93.308 793.28 93.874 799.343C94.1037 801.799 94.8914 804.043 96.2366 806.066C97.5822 808.088 99.0093 810.102 100.518 812.112C102.191 814.105 103.7 816.11 105.046 818.133C106.407 820.321 107.209 822.726 107.454 825.348C107.653 827.481 107.369 829.737 106.601 832.125C112.684 835.359 117.607 838.533 121.367 841.651C125.128 844.775 128.776 847.575 132.312 850.052C135.847 852.533 139.836 854.556 144.278 856.124C148.719 857.692 154.663 858.542 162.109 858.673C165.252 858.707 168.194 859.26 170.937 860.326C173.859 861.541 176.809 862.175 179.787 862.226C186.415 862.434 193.004 862.23 199.554 861.618C206.121 861.167 212.725 861.129 219.367 861.499C222.019 861.584 224.662 861.584 227.297 861.503C229.933 861.418 232.643 861.248 235.427 860.989Z" fill="white"/>
</g>
<g filter="url(#filter3_d_20_55)">
<path d="M561.452 1103.9C555.677 1104.23 549.728 1104.47 543.601 1104.62C537.826 1104.95 532.149 1104.88 526.574 1104.41C523.627 1104.18 520.285 1103.48 516.545 1102.3C513.126 1101.11 509.662 1099.62 506.154 1097.84C502.995 1096.23 500.129 1094.42 497.556 1092.38C495.297 1090.33 494.036 1088.42 493.768 1086.65C493.318 1083.7 494.957 1081.72 498.685 1080.71C502.418 1079.71 506.498 1078.88 510.931 1078.23C515.394 1077.77 519.474 1076.94 523.173 1075.74C526.905 1074.73 528.532 1072.66 528.052 1069.51C527.899 1068.53 527.445 1067.66 526.68 1066.91C525.95 1066.36 525.508 1065.59 525.36 1064.6C525.3 1064.21 527.164 1063.71 530.956 1063.1C534.748 1062.48 539.321 1061.72 544.688 1060.82C550.051 1059.92 555.401 1058.92 560.734 1057.82C566.394 1056.7 571.07 1055.54 574.772 1054.33C580.598 1052.22 586.568 1049.99 592.687 1047.65C599.154 1045.5 606.079 1044.21 613.459 1043.79C618.592 1043.5 623.013 1043.84 626.724 1044.82C630.753 1045.77 634.477 1046.85 637.895 1048.04C641.314 1049.24 644.719 1050.33 648.107 1051.33C651.496 1052.32 655.436 1052.69 659.925 1052.44C666.345 1052.07 671.763 1050.47 676.187 1047.63C680.612 1044.8 683.966 1041.34 686.255 1037.24C688.892 1033.32 690.522 1029.16 691.146 1024.76C692.123 1020.54 692.369 1016.85 691.89 1013.71C691.079 1008.4 689.159 1003.25 686.136 998.268C683.461 993.462 680.289 988.589 676.62 983.638C672.986 978.888 669.185 974.15 665.228 969.417C661.271 964.683 657.793 959.924 654.795 955.136C650.456 956.376 645.891 957.235 641.11 957.706C636.358 958.373 631.573 958.849 626.762 959.126C615.854 959.75 604.899 960.077 593.897 960.116C583.222 960.128 572.428 960.451 561.516 961.076C549.643 961.756 537.835 962.831 526.081 964.297C514.651 965.746 503.22 967.195 491.79 968.639C480.389 970.284 468.814 971.843 457.06 973.309C445.63 974.758 434.139 975.812 422.588 976.47C408.47 977.282 394.448 976.598 380.523 974.418C377.866 973.976 375.735 973.802 374.13 973.891C370.601 974.095 367.147 974.788 363.768 975.973C360.709 977.142 357.344 978.425 353.674 979.827C350.354 981.403 346.845 982.793 343.144 984C339.444 985.202 335.508 985.924 331.337 986.162C327.487 986.383 323.737 986.201 320.087 985.619C316.439 985.032 312.849 984.841 309.319 985.045C304.186 985.338 299.272 986.014 294.579 987.076C289.916 988.338 285.018 989.111 279.884 989.409C276.997 989.574 275.157 989.183 274.366 988.236C273.603 987.488 273.133 986.519 272.953 985.342C272.773 984.161 272.448 983.09 271.977 982.126C271.857 981.34 270.995 980.991 269.391 981.085C264.577 981.357 260.015 982.215 255.703 983.651C251.742 985.266 247.355 986.213 242.542 986.49C238.371 986.728 234.27 986.366 230.24 985.406C226.561 984.628 222.635 984.357 218.464 984.595C214.293 984.832 210.768 986.128 207.89 988.474C205.041 991.015 201.446 992.91 197.103 994.151C191.799 995.447 185.662 996.59 178.693 997.584C171.754 998.774 165.226 1000.54 159.109 1002.87C153.022 1005.4 148.062 1008.96 144.23 1013.54C140.718 1018.11 139.608 1024.62 140.897 1033.07L142.202 1041.63C142.562 1043.99 142.675 1046.86 142.544 1050.23C142.442 1053.81 141.668 1057.23 140.223 1060.48C139.128 1063.92 136.981 1066.82 133.782 1069.19C130.933 1071.73 126.943 1073.15 121.808 1073.44C116.675 1073.74 111.611 1073.43 106.619 1072.52C101.626 1071.62 96.5631 1071.32 91.4295 1071.61C89.8244 1071.7 87.4478 1072.04 84.2997 1072.61C83.8496 1069.67 82.3215 1067.07 79.716 1064.84C77.4609 1062.79 73.8521 1061.41 68.8896 1060.7C69.5728 1056.7 69.7596 1052.62 69.4509 1048.47C69.4925 1044.5 69.214 1040.55 68.6144 1036.62C67.085 1026.59 64.2868 1016.73 60.2202 1007.05C56.4751 997.346 52.3937 987.56 47.9764 977.698C43.9099 968.015 39.8285 958.233 35.7321 948.35C31.9866 938.649 29.349 928.783 27.8196 918.755C27.3097 915.411 26.8404 911.273 26.4114 906.339C25.9825 901.406 26.3857 896.622 27.6211 891.986C28.8565 887.355 31.1444 883.258 34.4848 879.693C38.1761 876.307 43.8721 874.395 51.5725 873.953C60.5565 873.439 67.209 873.554 71.5303 874.297C76.2019 875.223 79.4608 876.422 81.3041 877.905C83.4696 879.366 84.8623 881.074 85.4827 883.02C86.1341 885.166 87.0907 887.193 88.3527 889.105C89.4053 889.64 90.4133 889.878 91.3759 889.823C92.9801 889.73 94.1886 889.165 95.0013 888.128C96.1643 887.27 96.9923 886.33 97.484 885.306C102.807 888.374 106.745 891.918 109.3 895.938C111.885 900.153 113.828 904.406 115.13 908.693C116.461 913.18 117.793 917.667 119.124 922.15C120.456 926.637 122.705 930.772 125.872 934.557C127.074 936.079 130.056 937.591 134.818 939.104C139.58 940.617 144.794 941.904 150.458 942.971C156.152 944.228 161.787 945.095 167.362 945.571C172.966 946.242 177.212 946.493 180.1 946.327L181.062 946.272C196.254 944.016 211.169 942.07 225.809 940.438C240.448 938.807 255.468 937.549 270.869 936.665C272.153 936.593 274.283 936.767 277.262 937.192C280.56 937.6 283.888 938.203 287.247 939.002C290.896 939.584 295.072 940.438 299.774 941.556C303.704 939.746 307.345 938.148 310.695 936.767C313.753 935.598 316.666 934.54 319.434 933.589C322.202 932.637 324.388 932.114 325.992 932.021C329.843 931.8 333.592 931.983 337.242 932.569C340.891 933.151 344.51 933.538 348.1 933.729C361.756 934.137 375.482 933.946 389.279 933.155C395.055 932.824 400.625 932.208 405.989 931.307C411.705 930.585 417.23 929.671 422.564 928.571C441.749 924.895 461.765 922.46 482.622 921.266C507.008 919.868 531.381 919.46 555.745 920.051C580.11 920.637 604.487 920.234 628.868 918.836C637.212 918.36 643.492 917.107 647.717 915.08C652.26 913.036 655.424 909.382 657.211 904.121C659.368 897.055 660.842 889.734 661.627 882.149C662.442 874.765 662.298 867.435 661.186 860.16C660.345 854.654 645.823 764.004 642.647 758.038C639.823 752.251 635.611 746.935 630.019 742.1C624.779 737.443 618.053 733.661 609.841 730.759C601.981 728.036 592.759 726.978 582.169 727.585C576.717 727.895 563.605 715.671 555.112 713.491C546.62 711.311 544.777 714.677 539.321 714.991C534.187 715.284 529.589 714.855 525.529 713.699C521.823 712.722 518.201 712.331 514.672 712.535C509.857 712.811 505.488 713.852 501.556 715.667C497.624 717.477 493.25 718.522 488.439 718.798C485.229 718.981 481.624 718.692 477.624 717.931C473.654 717.362 469.497 716.61 465.145 715.671C461.115 714.711 457.081 713.75 453.052 712.79C449.052 712.029 445.405 711.443 442.105 711.039C437.142 710.33 432.776 709.293 429.006 707.921C425.24 706.548 423.098 704.194 422.588 700.85C422.168 698.097 423.222 695.458 425.749 692.934C428.598 690.389 432.271 688.991 436.759 688.732C440.292 688.532 443.095 688.863 445.167 689.739C447.596 690.788 450.249 691.234 453.137 691.069C456.347 690.882 459.498 690.308 462.584 689.335C465.994 688.345 469.213 687.172 472.24 685.808C475.62 684.623 479.013 683.535 482.427 682.545C485.832 681.559 489.306 680.96 492.834 680.76C497.327 680.501 501.717 680.646 506.006 681.194C510.328 681.937 514.736 682.184 519.228 681.925C528.854 681.372 546.62 673.478 565.728 675.602C574.764 673.299 582.543 678.224 591.205 677.727C599.867 677.229 605.451 688.167 617.501 688.668C629.552 689.165 641.382 683.68 652.71 685.808C664.069 688.133 671.3 686.96 679.372 691.06C687.792 695.339 694.883 712.199 695.966 719.278C696.713 724.194 696.488 729.068 695.282 733.899C694.429 738.905 694.391 743.965 695.168 749.077C696.038 754.779 710.229 845.348 712.7 850.961C715.175 856.57 716.848 862.226 717.719 867.928C718.318 871.862 717.749 875.563 716.012 879.035C714.628 882.685 714.233 886.475 714.836 890.41C715.197 892.768 716.296 894.688 718.139 896.171C720.335 897.828 721.6 899.741 721.927 901.903C722.288 904.262 721.672 906.582 720.075 908.851C718.831 911.302 718.39 913.707 718.751 916.07C719.078 918.233 719.859 920.17 721.09 921.887C722.356 923.795 723.137 925.736 723.434 927.699C723.884 930.653 723.68 933.538 722.814 936.363C721.982 939.389 721.774 942.278 722.194 945.031L734.856 980.303C736.309 985.576 737.761 990.849 739.213 996.122C740.661 1001.4 741.807 1006.78 742.648 1012.29C744.088 1021.73 744.228 1031.14 743.073 1040.53C742.266 1050.1 740.818 1059.7 738.729 1069.34L738.245 1069.37C736.669 1076 731.918 1080.94 723.995 1084.17C716.076 1087.4 706.717 1089.72 695.928 1091.13C685.491 1092.72 674.642 1093.74 663.381 1094.19C652.124 1094.63 642.511 1095.28 634.549 1096.14C622.448 1097.42 610.198 1098.82 597.807 1100.33C585.761 1102 573.647 1103.19 561.452 1103.9Z" fill="white"/>
</g>
<g filter="url(#filter4_d_20_55)">
<path d="M1017.82 921.882C1018.71 927.139 1019.12 932.335 1019.03 937.481C1019.09 942.609 1019.36 947.823 1019.85 953.117C1018.78 952.489 1017.61 952.03 1016.33 951.736C1015.17 951.329 1013.98 951.188 1012.77 951.307C1011.29 951.456 1009.94 951.957 1008.72 952.811C1007.5 953.67 1006.99 954.664 1007.18 955.794C1007.39 957.031 1008.27 957.783 1009.82 958.046C1011.5 958.297 1013.15 958.344 1014.76 958.182C1016.1 958.046 1017.04 957.902 1017.56 957.745C1017.77 958.981 1017.51 960.315 1016.8 961.751C1016.21 963.069 1015.34 964.411 1014.21 965.78C1013.21 967.139 1012.07 968.457 1010.78 969.74C1009.61 970.904 1008.56 971.949 1007.62 972.884C1006.92 973.581 1006.2 974.545 1005.45 975.773C1004.7 976.997 1003.82 978.238 1002.8 979.496C1001.9 980.63 1000.92 981.671 999.846 982.619C998.759 983.46 997.613 983.94 996.402 984.063C995.056 984.195 993.94 984.046 993.044 983.613C992.135 983.073 991.141 982.861 990.067 982.967C988.585 983.116 987.753 983.825 987.558 985.104C987.481 986.264 987.541 987.412 987.732 988.542L988.05 990.399C988.135 990.913 986.84 991.724 984.156 992.829C981.473 993.934 978.203 995.204 974.348 996.636C970.607 997.954 966.675 999.343 962.548 1000.8C958.539 1002.15 955.202 1003.42 952.54 1004.63C947.325 1006.93 890.393 1022.73 884.941 1024.43C879.489 1026.12 873.739 1027.28 867.689 1027.88C863.256 1028.32 858.878 1028.29 854.551 1027.78C850.381 1027.36 846.122 1026.84 841.783 1026.22C837.558 1025.49 833.295 1024.92 828.985 1024.51C824.798 1023.99 820.484 1023.95 816.051 1024.4C814.302 1024.57 812.051 1025 809.3 1025.7C806.548 1026.39 804.502 1027.23 803.164 1028.19C802.561 1028.67 802.013 1029.46 801.517 1030.56C801.037 1031.76 800.328 1032.41 799.385 1032.5C798.714 1032.57 797.738 1032.46 796.46 1032.17C795.181 1031.87 794.251 1031.65 793.682 1031.5C790.379 1030.57 787.487 1029.24 785.003 1027.49C782.502 1025.65 780.311 1023.61 778.43 1021.39C776.549 1019.17 775.055 1016.81 773.946 1014.3C772.817 1011.68 772.044 1009.14 771.624 1006.67C771.327 1004.92 771.242 1003.2 771.365 1001.51C771.603 999.704 771.573 997.924 771.276 996.173C770.855 993.7 770.04 991.321 768.834 989.031C767.76 986.728 767.012 984.34 766.592 981.867C766.295 980.116 766.333 978.331 766.707 976.513C767.216 974.681 767.318 972.888 767.021 971.138C766.796 969.799 766.18 968.601 765.182 967.547C764.167 966.391 763.543 965.146 763.318 963.804C763.157 962.877 763.429 962.066 764.134 961.365C764.966 960.655 765.314 959.886 765.174 959.062C764.966 957.825 764.69 956.597 764.342 955.374C763.998 954.15 763.722 952.922 763.514 951.685C763.407 951.065 763.259 950.19 763.063 949.055C762.991 947.806 762.991 946.599 763.068 945.439C763.14 944.279 763.446 943.255 763.976 942.363C764.511 941.471 765.382 940.965 766.592 940.846C769.008 940.604 771.628 941.547 774.452 943.676C777.39 945.686 780.129 948.138 782.672 951.027C785.347 953.904 787.619 956.818 789.487 959.776C791.356 962.733 792.426 964.985 792.685 966.532C792.774 967.046 792.591 967.585 792.141 968.155C791.674 968.622 791.037 968.894 790.23 968.975C790.893 969.642 791.678 970.666 792.595 972.039C793.513 973.415 794.043 974.516 794.184 975.34C794.392 976.577 794.328 977.788 793.98 978.973C793.772 980.15 793.772 981.352 793.98 982.589C794.154 983.621 794.591 984.573 795.288 985.444C796.116 986.307 796.935 987.114 797.746 987.871C799.033 989.001 800.132 989.834 801.041 990.373C801.954 990.909 802.905 991.287 803.899 991.499C804.875 991.614 805.911 991.665 807.003 991.661C808.23 991.644 809.792 991.593 811.69 991.508C814.888 994.227 818.382 996.709 822.183 998.948C825.979 1001.19 830 1003.15 834.25 1004.82C840.471 1005.24 846.594 1005.47 852.611 1005.5C858.632 1005.53 864.661 1005.24 870.712 1004.63C875.684 1004.14 931.517 989.494 935.003 988.308C938.629 987.11 941.869 985.682 944.735 984.038C947.733 982.372 950.569 980.571 953.244 978.629C955.903 976.581 958.688 974.469 961.601 972.293C963.673 970.828 965.894 969.4 968.255 968.015C970.615 966.625 972.9 965.193 975.108 963.715C977.316 962.236 979.375 960.668 981.278 959.011C983.167 957.252 984.683 955.318 985.829 953.211C986.56 951.881 987.693 950.513 989.231 949.102C990.887 947.572 991.579 946.038 991.32 944.492C991.214 943.871 991.069 943.417 990.878 943.119C989.783 939.877 988.836 936.724 988.042 933.661C987.367 930.478 986.611 927.253 985.783 923.982C984.989 920.918 983.723 918.687 981.982 917.289C980.22 915.789 978.114 914.638 975.651 913.835C973.312 912.917 970.773 912.071 968.047 911.294C965.316 910.52 962.586 909.327 959.851 907.712C956.964 906.008 953.864 905.06 950.552 904.869C947.376 904.661 944.098 904.674 940.718 904.907C937.343 905.141 933.954 905.32 930.562 905.451C927.283 905.464 872.491 918.585 869.387 917.221C868.512 916.89 867.803 916.75 867.268 916.801C866.058 916.924 864.899 917.353 863.795 918.092C862.81 918.717 861.642 919.091 860.296 919.227C858.283 919.427 856.165 919.431 853.944 919.235C851.859 919.023 849.761 918.759 847.66 918.445C845.558 918.131 843.452 917.82 841.35 917.506C839.248 917.192 837.167 917.03 835.116 917.026C832.378 916.988 830.123 917 828.361 917.073C826.73 917.132 825.159 917.132 823.643 917.073C822.246 916.898 820.701 916.635 818.998 916.278C817.283 915.823 815.109 915.097 812.48 914.102C804.897 911.298 796.999 909.467 788.791 908.608C786.821 905.872 784.375 903.131 781.445 900.382C779.844 899.809 778.252 899.286 776.668 898.819C775.203 898.232 773.73 897.591 772.244 896.902C771.263 895.95 769.883 894.255 768.099 891.816C766.452 889.36 764.779 886.751 763.08 883.985C761.361 881.117 759.815 878.444 758.435 875.963C757.191 873.469 756.473 871.654 756.278 870.52C755.879 868.149 755.828 865.85 756.134 863.619C756.435 861.388 757.65 859.277 759.773 857.284C760.138 857.037 760.567 856.731 761.051 856.37C761.654 855.89 761.908 855.393 761.824 854.879C761.734 854.361 761.136 854.055 760.027 853.957C759.034 853.74 758.465 853.222 758.325 852.397C758.308 852.295 758.35 852.134 758.448 851.913C758.529 851.59 758.554 851.327 758.52 851.123C759.076 848.76 760.117 846.457 761.649 844.205C763.182 841.957 765 839.786 767.102 837.691C769.208 835.592 771.403 833.646 773.696 831.845C776.103 829.928 778.401 828.178 780.592 826.597C782.184 825.497 783.462 824.162 784.426 822.599C785.521 821.022 786.761 819.854 788.133 819.085C789.075 818.991 790.014 818.898 790.956 818.804C791.878 818.609 792.812 818.46 793.75 818.367C794.825 818.26 795.776 818.218 796.6 818.239C797.542 818.146 798.549 818.048 799.623 817.937C801.033 817.381 801.962 816.816 802.413 816.246C802.841 815.575 803.283 814.955 803.733 814.385C804.183 813.816 804.786 813.336 805.542 812.949C806.429 812.545 808.018 812.227 810.302 812.002C811.78 811.853 813.266 811.755 814.76 811.713C816.238 811.564 817.72 811.415 819.198 811.271C824.302 810.761 829.333 810.204 834.288 809.605C839.38 808.993 844.479 808.428 849.583 807.918C853.214 807.557 856.785 807.251 860.296 807.009C863.922 806.643 867.587 806.486 871.285 806.537C873.739 806.503 876.164 806.682 878.55 807.068C880.924 807.357 962.153 807.417 964.709 807.162C967.125 806.92 968.747 806.389 969.562 805.577C970.518 804.748 971.193 803.894 971.588 803.015C972.123 802.122 972.73 801.277 973.414 800.474C974.097 799.675 975.448 799.174 977.46 798.97C980.284 798.689 983.269 798.965 986.42 799.807C989.702 800.631 992.751 801.268 995.562 801.723L995.464 802.36C995.218 803.329 995.192 804.379 995.383 805.513C995.681 807.264 996.317 808.98 997.286 810.663C998.373 812.235 999.46 813.803 1000.55 815.371C1001.63 816.939 1002.65 818.511 1003.6 820.092C1004.69 821.66 1005.39 823.372 1005.71 825.229C1005.9 826.359 1005.95 827.455 1005.85 828.513C1005.74 829.465 1005.78 830.51 1005.98 831.645C1006.33 833.706 1007.12 835.146 1008.35 835.966C1009.57 836.68 1010.24 837.402 1010.36 838.121C1010.5 838.945 1010.15 839.714 1009.31 840.428C1008.46 841.035 1008.13 841.906 1008.32 843.041C1008.78 845.718 1009.43 848.378 1010.29 851.016C1011.13 853.553 1011.78 856.158 1012.24 858.839C1012.39 859.765 1012.56 861.163 1012.75 863.033C1013.06 864.885 1013.11 866.768 1012.88 868.676C1012.78 870.469 1012.3 872.088 1011.45 873.532C1010.74 874.968 1009.44 875.776 1007.56 875.967C1005.54 876.167 1003.5 875.793 1001.43 874.85C999.336 873.8 997.587 872.772 996.186 871.756C994.194 870.49 992.653 869.071 991.566 867.503C990.462 865.833 989.485 864.095 988.632 862.293C987.778 860.496 986.87 858.754 985.897 857.067C984.912 855.278 983.617 853.681 982.008 852.27C979.456 850.116 976.972 847.953 974.552 845.786C972.25 843.5 969.949 841.214 967.647 838.928C965.851 837.224 964.357 836.064 963.159 835.448C961.962 834.836 881.973 834.441 880.729 834.356C879.468 834.169 878.028 834.156 876.419 834.318C874.937 834.462 873.03 834.496 870.695 834.415C868.224 834.347 865.723 834.126 863.2 833.753C860.81 833.362 858.36 833.03 855.855 832.754C853.464 832.363 851.027 832.087 848.539 831.913C846.029 831.641 843.566 831.624 841.146 831.866C837.252 832.257 833.363 833.115 829.49 834.445C825.618 835.775 821.784 837.364 818 839.208C814.196 840.95 810.476 842.79 806.841 844.724C803.19 846.555 799.636 848.165 796.179 849.559C793.75 855.355 793.067 861.397 794.137 867.681C794.905 872.215 796.209 875.857 798.043 878.606C799.878 881.359 802.111 883.649 804.744 885.481C807.499 887.197 810.485 888.68 813.703 889.934C817.058 891.17 820.561 892.496 824.221 893.911C828.013 895.313 831.639 896.154 835.104 896.439C838.687 896.605 842.492 896.486 846.526 896.086C848.81 895.857 851.018 895.585 853.15 895.266C855.417 894.935 857.693 894.654 859.978 894.425C862.534 894.17 864.997 894.187 867.366 894.476C869.74 894.761 923.666 881.359 925.937 881.865C928.328 882.256 930.71 882.596 933.079 882.88C935.453 883.169 937.848 883.19 940.268 882.948C942.553 882.723 944.684 882.404 946.667 881.996C948.782 881.576 950.913 881.257 953.066 881.04C954.947 880.853 956.688 881.049 958.289 881.623C959.873 882.09 961.482 882.715 963.117 883.496C964.735 884.172 966.344 884.797 967.945 885.37C969.681 885.931 971.499 886.169 973.397 886.084C976.259 886.845 978.636 887.554 980.522 888.2C982.411 888.85 984.106 889.573 985.604 890.367C987.243 891.145 988.781 892.143 990.216 893.363C991.787 894.569 993.545 896.069 995.489 897.867C997.303 899.677 999.54 901.181 1002.2 902.383C1004.87 903.582 1007.12 905.141 1008.94 907.053C1009.6 907.72 1010.09 908.562 1010.4 909.581C1010.69 910.495 1011.05 911.4 1011.48 912.301C1011.88 913.1 1012.42 913.831 1013.08 914.498C1013.85 915.05 1014.92 915.309 1016.29 915.279C1016.61 916.397 1016.87 917.527 1017.06 918.657C1017.37 919.677 1017.62 920.752 1017.82 921.882Z" fill="white"/>
</g>
<defs>
<filter id="filter0_d_20_55" x="51.6381" y="39.2217" width="405.049" height="321.889" filterUnits="userSpaceOnUse" color-interpolation-filters="sRGB">
<feFlood flood-opacity="0" result="BackgroundImageFix"/>
<feColorMatrix in="SourceAlpha" type="matrix" values="0 0 0 0 0 0 0 0 0 0 0 0 0 0 0 0 0 0 127 0" result="hardAlpha"/>
<feOffset dy="4"/>
<feGaussianBlur stdDeviation="2"/>
<feComposite in2="hardAlpha" operator="out"/>
<feColorMatrix type="matrix" values="0 0 0 0 0 0 0 0 0 0 0 0 0 0 0 0 0 0 0.25 0"/>
<feBlend mode="normal" in2="BackgroundImageFix" result="effect1_dropShadow_20_55"/>
<feBlend mode="normal" in="SourceGraphic" in2="effect1_dropShadow_20_55" result="shape"/>
</filter>
<filter id="filter1_d_20_55" x="79.2096" y="341.068" width="389.795" height="289.426" filterUnits="userSpaceOnUse" color-interpolation-filters="sRGB">
<feFlood flood-opacity="0" result="BackgroundImageFix"/>
<feColorMatrix in="SourceAlpha" type="matrix" values="0 0 0 0 0 0 0 0 0 0 0 0 0 0 0 0 0 0 127 0" result="hardAlpha"/>
<feOffset dy="4"/>
<feGaussianBlur stdDeviation="2"/>
<feComposite in2="hardAlpha" operator="out"/>
<feColorMatrix type="matrix" values="0 0 0 0 0 0 0 0 0 0 0 0 0 0 0 0 0 0 0.25 0"/>
<feBlend mode="normal" in2="BackgroundImageFix" result="effect1_dropShadow_20_55"/>
<feBlend mode="normal" in="SourceGraphic" in2="effect1_dropShadow_20_55" result="shape"/>
</filter>
<filter id="filter2_d_20_55" x="40.9904" y="629.177" width="377.38" height="280.273" filterUnits="userSpaceOnUse" color-interpolation-filters="sRGB">
<feFlood flood-opacity="0" result="BackgroundImageFix"/>
<feColorMatrix in="SourceAlpha" type="matrix" values="0 0 0 0 0 0 0 0 0 0 0 0 0 0 0 0 0 0 127 0" result="hardAlpha"/>
<feOffset dy="4"/>
<feGaussianBlur stdDeviation="2"/>
<feComposite in2="hardAlpha" operator="out"/>
<feColorMatrix type="matrix" values="0 0 0 0 0 0 0 0 0 0 0 0 0 0 0 0 0 0 0.25 0"/>
<feBlend mode="normal" in2="BackgroundImageFix" result="effect1_dropShadow_20_55"/>
<feBlend mode="normal" in="SourceGraphic" in2="effect1_dropShadow_20_55" result="shape"/>
</filter>
<filter id="filter3_d_20_55" x="22.2456" y="674.985" width="725.599" height="437.837" filterUnits="userSpaceOnUse" color-interpolation-filters="sRGB">
<feFlood flood-opacity="0" result="BackgroundImageFix"/>
<feColorMatrix in="SourceAlpha" type="matrix" values="0 0 0 0 0 0 0 0 0 0 0 0 0 0 0 0 0 0 127 0" result="hardAlpha"/>
<feOffset dy="4"/>
<feGaussianBlur stdDeviation="2"/>
<feComposite in2="hardAlpha" operator="out"/>
<feColorMatrix type="matrix" values="0 0 0 0 0 0 0 0 0 0 0 0 0 0 0 0 0 0 0.25 0"/>
<feBlend mode="normal" in2="BackgroundImageFix" result="effect1_dropShadow_20_55"/>
<feBlend mode="normal" in="SourceGraphic" in2="effect1_dropShadow_20_55" result="shape"/>
</filter>
<filter id="filter4_d_20_55" x="751.937" y="798.864" width="271.909" height="241.658" filterUnits="userSpaceOnUse" color-interpolation-filters="sRGB">
<feFlood flood-opacity="0" result="BackgroundImageFix"/>
<feColorMatrix in="SourceAlpha" type="matrix" values="0 0 0 0 0 0 0 0 0 0 0 0 0 0 0 0 0 0 127 0" result="hardAlpha"/>
<feOffset dy="4"/>
<feGaussianBlur stdDeviation="2"/>
<feComposite in2="hardAlpha" operator="out"/>
<feColorMatrix type="matrix" values="0 0 0 0 0 0 0 0 0 0 0 0 0 0 0 0 0 0 0.25 0"/>
<feBlend mode="normal" in2="BackgroundImageFix" result="effect1_dropShadow_20_55"/>
<feBlend mode="normal" in="SourceGraphic" in2="effect1_dropShadow_20_55" result="shape"/>
</filter>
</defs>
</svg>
