<svg width="395" height="502" viewBox="0 0 395 502" fill="none" xmlns="http://www.w3.org/2000/svg">
<path d="M115.417 331.982C112.096 331.26 114.285 331.742 110.963 332.05C109.009 332.226 95.4058 328.216 93.6178 327.106C92.1693 326.21 91.6999 324.57 91.0034 324.124C90.1832 323.61 88.2617 324.395 86.5667 322.85C84.5999 321.054 84.7393 318.506 83.0593 316.579C80.4864 313.631 73.1846 314.085 75.392 307.266C72.2904 309.559 68.6661 301.374 68.2827 299.073C67.1484 292.243 76.582 293.685 78.4476 292.798C78.8765 292.593 78.5923 291.15 79.1617 290.379C82.0062 286.544 87.4646 283.875 91.9465 282.835L102.388 290.117C103.468 292.901 105.699 295.685 108.888 295.591C110.487 295.547 111.908 294.66 113.567 294.575C115.537 294.473 119.053 296.478 120.481 295.397C121.417 291.242 125.779 288.826 128.394 285.877C129.416 284.724 129.487 281.69 132.52 280.756C133.914 280.325 146.796 285.296 148.349 286.492C149.902 287.688 150.666 290.174 153.316 290.766L153.094 294.09C160.771 293.37 159.224 299.363 156.203 304.108C154.809 306.291 152.747 307.414 151.827 308.989C149.221 313.467 151.584 315.064 145.44 320.483C139.972 325.308 137.78 324.068 132.819 326.661C130.939 327.645 130.205 329.581 127.871 330.711C124.381 332.4 119.211 332.805 115.404 331.985L115.417 331.982Z" fill="#C10000"/>
<path d="M98.5704 11.4184C100.116 11.6716 101.937 11.8379 103.276 12.0846C105.697 12.532 116.05 14.3736 117.104 15.4103C118.692 16.9708 118.47 19.4503 119.807 20.7276C120.443 21.3375 121.625 21.1378 122.539 21.9966C125.462 24.7563 130.845 31.2248 131.272 35.2845C127.192 41.0471 119.404 41.3039 114.075 44.1678C112.182 45.183 112.247 46.7574 109.654 47.1477C105.663 47.7546 104.911 45.1372 102.638 43.9002C102.243 43.6831 95.9347 40.9658 95.5644 40.8652C93.4962 40.3074 86.1654 40.8182 84.4939 41.8795C82.231 43.3162 82.583 46.8621 77.92 47.2387C72.3823 47.6856 72.7366 43.3037 69.9533 41.466C66.2706 39.0313 56.5279 39.7224 54.232 34.1329C52.7006 30.4139 56.2475 28.7061 57.7761 26.1582C60.0814 22.3301 61.6544 17.0111 65.6799 14.8802C77.1042 8.83298 86.3839 9.38447 98.5624 11.4129L98.5704 11.4184Z" fill="#C10000"/>
<path d="M73.7589 174.004C72.8581 176.155 71.6004 179.111 69.6041 180.384C67.0331 182.014 58.4586 179.747 57.0383 176.262C54.7045 175.71 43.1595 174.478 42.0364 173.535C40.3973 172.157 38.4566 166.986 38.5433 164.707C38.63 162.427 39.8921 162.182 40.2806 160.619C41.2156 156.816 39.8344 150.082 44.6381 148.395C46.5237 147.732 53.3744 150.52 55.0064 151.8C57.3451 153.638 60.1511 157.56 63.8926 157.843C66.5485 158.041 66.794 156.157 70.0186 158.303C75.9974 162.277 71.1408 166.63 71.3133 167.123C71.6475 168.09 73.2972 168.707 73.7177 169.92C74.0548 170.901 73.5133 172.582 73.7575 173.997C73.975 173.472 74.5265 173.005 74.8304 172.111C75.7282 169.46 74.2632 165.634 78.5911 164.935C82.1045 164.364 82.8953 167.882 84.7328 168.968C85.7799 169.584 87.1457 169.116 88.1669 169.545C90.6557 170.572 93.7696 172.225 94.6939 174.949C95.2724 176.651 96.2938 186.931 95.6105 188.006C92.4093 193.068 85.1625 186.556 80.7511 185.985C75.5708 182.486 74.7945 180.074 73.7575 173.997L73.7589 174.004Z" fill="#C10000"/>
<path d="M109.586 107.455C109.518 104.149 107.054 101.522 106.621 98.7583C106.469 97.7815 106.953 91.4547 107.212 90.3126C108.506 84.5803 111.455 86.9123 114.624 86.3646C123.61 84.8104 121.125 85.7144 129.111 87.0112C130.804 87.2833 140.02 87.5334 140.476 88.5891L137.599 107.92L109.594 107.46L109.586 107.455Z" fill="#C10000"/>
<path d="M132.449 199.508C130.798 198.69 129.622 194.875 128.573 193.472C127.399 191.896 125.385 191.141 124.322 188.768C123.777 187.545 123.159 183.841 123.826 182.884C123.994 182.641 127.958 179.443 128.385 179.195C132.372 176.851 135.712 179.673 138.799 176.531L139.951 177.676C141.229 175.467 149.087 170.874 150.863 172.187C151.241 177.538 155.049 174.702 156.948 178.543C159.826 184.361 161.659 192.845 154.026 195.394C152.377 195.943 145.402 197.459 143.532 197.747C141.949 197.995 139.875 197.052 138.981 197.356C137.545 197.845 135.85 201.194 132.443 199.516L132.449 199.508Z" fill="#C10000"/>
<path d="M154.738 223.813C153.276 223.049 142.065 227.155 139.034 224.082L135.207 207.969C138.364 204.155 144.029 205.412 147.603 203.863C150.794 202.481 153.32 201.382 157.002 200.641C158.229 200.389 160.358 201.363 161.817 201.112C165.211 208.079 165.388 215.848 165.773 223.408C163.279 224.95 159.049 227.568 156.251 225.697C155.557 225.229 155.215 224.063 154.746 223.819L154.738 223.813Z" fill="#C10000"/>
<path d="M138.971 278.643C137.787 278.027 135.175 277.877 134.355 276.555C132.159 273.026 135.553 262.365 139.003 260.52C141.549 259.16 149.471 260.284 152.153 261.707C153.586 262.463 154.869 264.195 156.064 264.737C157.744 265.498 163.222 265.25 164.1 266.818C163.609 270.778 165.867 273.821 164.459 277.753C164.093 278.774 163.023 279.444 162.712 280.69C162.287 282.375 163.226 284.681 162.122 286.388C160.265 284.369 156.597 282.39 153.939 282.314C145.718 282.076 146.635 282.626 138.971 278.643Z" fill="#C10000"/>
<path d="M41.5237 205.682C40.7809 202.748 38.2618 185.895 40.2224 184.615C42.8064 185.25 45.29 185.927 47.9458 186.189C53.1308 186.697 57.5939 186.605 62.4122 185.96C65.2937 185.573 69.0048 185.777 70.472 189.03C71.6192 191.578 70.2251 191.944 70.0569 193.675C69.9205 195.07 69.3356 203.837 68.8826 204.09L41.5252 205.689L41.5237 205.682Z" fill="#C10000"/>
<path d="M50.1007 105.951C47.2359 99.1584 46.402 91.8077 45.5295 84.5654C54.6249 83.1096 63.646 86.0983 72.6828 86.6009C74.5204 87.0714 75.7299 91.5023 75.4634 93.2542C75.2998 94.3262 74.0519 94.7686 73.9086 95.8721C73.6072 98.2038 75.5725 102.26 73.3815 104.912C69.2438 104.892 64.9956 105.904 60.8992 105.982C56.9462 106.058 53.5796 104.537 50.0942 105.953L50.1007 105.951Z" fill="#C10000"/>
<path d="M65.1701 287.803C62.0245 285.319 62.3618 280.533 60.936 277.929C59.9683 276.166 54.7998 274.732 56.37 270.437C56.5036 270.065 60.4339 266.802 60.9923 266.563C62.0925 266.102 63.3224 266.643 64.3249 266.303C66.5796 265.54 70.4842 262.383 73.248 261.342C75.2567 260.581 78.4455 260.58 80.6259 259.369C84.6162 263.649 84.8373 269.848 88.4576 274.321C81.8796 280.632 73.7321 285.15 65.157 287.806L65.1701 287.803Z" fill="#C10000"/>
<path d="M91.1124 238.481C90.8739 238.388 88.5004 239.268 86.8902 239.065C85.1389 238.841 79.5924 236.556 78.7409 234.89C78.1588 233.754 76.1499 222.394 76.1812 220.728C76.2282 218.164 77.3709 215.182 79.3589 213.61C79.637 213.502 81.0971 215.49 81.9849 216.032C83.2509 216.809 92.169 221.837 92.7597 221.977C94.5238 222.392 95.4031 221.111 98.5128 222.68C106.444 226.664 108.092 235.245 97.5949 232.332C99.5154 236.176 105.377 235.547 103.844 241.215C102.199 247.293 96.0674 243.537 92.8811 240.99C92.0582 240.334 91.359 238.579 91.1139 238.487L91.1124 238.481Z" fill="#C10000"/>
<path d="M140.45 80.6246C139.657 81.6006 133.851 84.2146 132.454 84.2736C130.678 84.3553 129.395 82.2008 127.798 81.7367C127.412 81.6251 120.648 80.7355 120.266 80.7733C117.862 81.0234 116.277 84.0484 112.014 82.7879C107.619 81.4839 109.329 75.907 107.668 72.5802C108.764 68.5352 111.429 66.8634 115.317 66.1211C119.717 65.2777 123.76 67.021 127.083 67.0418C129.448 67.0576 131.113 65.0603 133.793 64.9521C134.133 64.9377 138.866 65.8985 139.106 66.0337C141.665 67.4894 141.884 78.8621 140.456 80.6232L140.45 80.6246Z" fill="#C10000"/>
<path d="M138.901 234.627C143.057 231.302 148.953 233.849 152.998 233.038C155.216 232.591 157.454 230.644 160.47 231.574C162.682 236.216 163.451 232.633 165.847 233.737C168.424 234.924 166.206 244.708 166.156 247.58C166.123 249.269 166.786 250.173 166.789 251.647C163.958 254.863 160.146 251.719 157.717 251.724C151.129 251.734 151.643 251.64 145.278 250.051C143.386 249.578 141.04 250.559 139.053 248.632L138.903 234.641L138.901 234.627Z" fill="#C10000"/>
<path d="M46.1256 241.277C46.6061 240.539 52.2832 240.363 53.7763 239.948C57.1024 239.009 73.182 231.707 75.1041 237.082C74.3952 241.632 77.1251 245.355 77.3149 249.916L70.0461 254.155C66.6927 254.284 57.6687 260.161 55.3564 259.84C54.8144 259.769 52.0073 257.722 51.77 257.278C51.2785 256.344 52.0812 255.188 51.8166 254.421C51.5825 253.733 50.3322 253.225 49.929 252.158C49.4025 250.767 49.9676 248.744 49.3401 247.231C48.4587 245.099 45.5069 244.213 46.1307 241.269L46.1256 241.277Z" fill="#C10000"/>
<path d="M111.692 64.1893C107.72 62.6528 105.46 53.5714 108.95 50.8455C112.274 48.2474 114.082 51.0709 116.279 50.5211C119.373 49.7461 125.279 45.3078 128.937 43.9986C130.292 43.5121 134.499 42.6951 135.581 43.7043C137.853 45.8075 140.846 57.2596 138.701 59.351C137.855 60.1736 136.004 59.8991 134.762 60.5621C133.673 61.1426 133.07 62.4005 131.954 63.0153C128.025 65.183 126.659 63.411 123.319 63.5726C120.48 63.7071 114.119 65.1506 111.682 64.2057L111.692 64.1893Z" fill="#C10000"/>
<path d="M44.1682 233.757C42.583 231.694 40.3914 215.322 41.5152 214.584C46.1553 212.739 51.7323 215.102 56.374 214.301C60.2907 213.631 64.4144 210.993 68.7269 212.651C72.3025 214.028 71.1193 222.878 71.5039 226.545C65.9056 227.613 60.3985 229.177 54.8559 230.541C51.0626 231.471 47.763 231.044 44.1747 233.755L44.1682 233.757Z" fill="#C10000"/>
<path d="M64.0132 58.7399C61.6399 57.2235 49.461 58.8225 48.1309 57.093C45.2547 53.3575 48.1039 42.6104 50.5532 38.8807C51.6977 38.4673 60.7364 45.2657 62.7946 45.6466C66.0081 46.2487 67.2161 44.0618 71.9672 46.371C82.3152 51.3975 79.0759 65.5468 68.4613 62.3366C64.9894 61.2883 65.4783 59.6826 64.0146 58.7468L64.0132 58.7399Z" fill="#C10000"/>
<path d="M117.226 168.874L115.929 168.826L115.62 167.847C118.022 167.168 114.804 165.83 116.265 163.546C117.726 161.263 119.787 162.144 121.381 161.264C128.25 157.466 135.629 149.211 143.748 150.716C143.078 154.571 146.641 159.356 146.778 162.017C147.036 166.964 140.484 165.686 138.947 166.283C137.562 166.819 135.957 169.268 134.348 169.973C132.982 170.569 131.23 170.181 130.493 170.58C130.081 170.802 130.41 172.328 129.325 173.38C128.603 174.077 123.657 176.967 122.781 177.159C117.662 178.262 117.863 169.233 117.226 168.874Z" fill="#C10000"/>
<path d="M87.1765 261.255L81.3129 242.661C90.9566 239.2 98.1796 250.038 106.792 252.584L108.749 265.478L107.397 267.338C100.111 267.381 94.2704 261.696 87.1765 261.255Z" fill="#C10000"/>
<path d="M46.1857 62.0115C48.7913 62.2625 50.8305 63.2986 53.6018 63.6863C61.7288 64.839 62.3656 63.1233 70.6209 66.9248C73.0471 68.0436 73.6669 65.3728 74.3341 70.4763C74.6908 73.2342 75.4481 79.5421 72.2211 79.8158C68.5763 80.1205 59.5849 79.4437 55.6616 79.0131C53.9241 78.822 49.1823 78.3066 47.9405 77.4169C44.9328 75.2618 46.4366 65.5 46.1923 62.0101L46.1857 62.0115Z" fill="#C10000"/>
<path d="M112.778 229.112C112.392 228.843 109.719 230.087 108.025 227.283C104.855 222.028 109.959 218.002 113.594 215.06C116.575 212.649 121.824 208.986 125.545 209.595C126.798 210.668 125.817 212.342 126.282 213.861C127.502 217.825 132.435 220.053 130.023 225.127C129.767 225.667 122.905 233.806 122.386 234.202C119.625 236.323 116.399 236.604 114.159 233.578C112.762 231.698 112.971 229.25 112.778 229.112Z" fill="#C10000"/>
<path d="M90.426 196.735C92.1261 197.721 94.9484 198.706 96.8255 199.526C97.6941 200.852 92.1959 207.286 89.895 206.112C91.4569 209.231 98.4435 208.807 99.7029 210.688C101.442 213.282 101.571 216.26 98.3481 217.234C97.4534 217.502 91.3588 215.863 90.225 215.322C87.6905 214.112 87.6265 212.351 85.8987 210.877C84.0291 209.283 75.6647 207.136 75.1184 205.877C75.8996 200.568 73.6012 194.643 76.9554 190.014C82.1535 190.519 86.0893 194.216 90.4392 196.732L90.426 196.735Z" fill="#C10000"/>
<path d="M114.252 265.547C112.351 264.453 111.389 253.58 112.303 251.749C112.691 250.966 114.108 250.352 114.805 249.468C118.884 244.256 121.871 237.887 128.874 236.666C129.372 238.407 129.469 241.298 130.628 242.735C132.372 244.899 135.95 244.93 134.48 249.569C133.372 253.073 130.4 252.577 128.34 254.1C127.488 254.731 127.127 256.746 126.115 257.883C124.591 259.578 122.673 260.09 121.144 261.372C119.615 262.654 117.532 267.437 114.252 265.547Z" fill="#C10000"/>
<path d="M109.012 191.222C109.366 190.403 113.636 186.482 114.575 186.069C121.259 183.14 126.964 194.406 124.251 198.12C123.428 199.245 122.178 199.03 121.648 199.564C120.227 201.002 120.691 203.88 117.537 205.118C116.71 205.443 112.38 205.521 111.569 205.341C110.599 205.124 111.175 202.47 109.324 202.811L109.911 206.629L112.278 207.402C115.074 211.405 107.185 214.588 105.566 211.882C105.344 211.507 103.309 206.12 103.119 205.445C101.98 201.414 104.028 199.672 106.201 196.609C108.676 193.131 107.62 194.449 109.017 191.213L109.012 191.222Z" fill="#C10000"/>
<path d="M108.66 164.509C113.404 171.191 118.197 176.096 111.253 182.814C103.666 190.147 99.4036 188.693 97.9152 177.725C97.0913 171.653 103.628 166.051 108.659 164.502L108.66 164.509Z" fill="#C10000"/>
<path d="M111.722 290.349C110.239 289.353 109.004 290.766 107.584 290.393C104.911 289.691 96.015 279.486 94.6555 276.84C87.6008 263.104 108.428 276.693 111.622 279.052L111.722 290.349Z" fill="#C10000"/>
<path d="M117.791 288.138C116.714 287.25 115.255 279.373 115.748 278.009C116.003 277.305 125.013 268.705 126.244 267.765C127.889 266.509 129.504 265.245 131.534 264.716C130.722 267.485 130.421 270.496 129.513 273.228C128.852 275.22 126.479 281.417 125.742 282.753C125.578 283.045 121.53 287.47 121.244 287.638C120.175 288.279 118.973 288.289 117.784 288.14L117.791 288.138Z" fill="#C10000"/>
<path d="M80.4188 97.2447C80.0515 97.1577 78.0727 90.5425 77.9675 89.7849C76.6494 80.4331 92.5078 75.8748 92.1403 87.6145C92.1105 88.6726 90.4019 93.641 89.5552 93.9415L80.4174 97.2378L80.4188 97.2447Z" fill="#C10000"/>
<path d="M105.674 74.5466C102.126 82.372 88.5937 71.6002 95.3792 64.7153C96.6478 63.4314 100.551 62.8576 101.92 64.2212C102.145 64.4455 105.395 68.9463 105.518 69.2352C106.003 70.3991 106.166 73.4698 105.674 74.5466Z" fill="#C10000"/>
<path d="M95.7986 83.7437C97.6405 80.3139 103.24 84.1467 104.442 86.7906C105.87 89.9233 104.551 95.6324 103.26 98.6595C102.298 98.9985 95.4137 92.6467 94.8337 91.4885C94.4178 90.6534 95.3347 84.5929 95.7971 83.7368L95.7986 83.7437Z" fill="#C10000"/>
<path d="M82.2386 75.6607C73.2956 69.0567 86.812 60.2137 89.194 66.1785C90.3604 69.1089 88.0779 69.3834 87.6254 70.3518C86.2645 73.2722 87.0734 75.1905 82.2386 75.6607Z" fill="#C10000"/>
<path d="M80.8489 57.6745C80.9164 52.1941 82.8623 44.979 89.4493 45.6771C91.0498 52.1861 87.8308 58.5897 80.8489 57.6745Z" fill="#C10000"/>
<path d="M99.2969 46.0651C102.771 47.5135 105.393 59.2801 103.92 59.7559C101.332 58.5208 97.6155 56.9304 96.5367 53.8957C95.697 51.5402 95.5745 44.5116 99.3034 46.0637L99.2969 46.0651Z" fill="#C10000"/>
<path d="M113.378 238.4C112.348 239.197 109.72 239.874 109.512 238.079C109.643 235.977 114.84 233.434 114.759 235.805C114.338 236.631 114.124 237.821 113.378 238.4Z" fill="#C10000"/>
<path d="M236.559 454.849C238.352 453.323 234.841 452.072 235.502 450.926C238.328 449.764 238.88 446.726 240.645 444.951C242.27 443.314 256.375 434.851 258.078 434.764C262.299 434.556 263.457 438.859 264.844 439.921C267.763 442.152 272.262 443.998 275.254 446.562C276.148 447.327 275.716 449.168 277.48 449.495C279.244 449.822 282.808 447.13 285.085 446.828C288.646 446.365 291.821 447.927 295.229 444.72C297.301 442.765 296.589 440.736 298.141 438.7L308.866 428.364C314.597 428.604 321.893 430.543 326.26 434.42C327.134 435.199 327.121 436.953 327.69 437.093C330.531 437.826 340.44 433.713 341.522 441.517C341.883 444.116 339.222 455.531 334.763 453.379C334.226 454.975 335.914 455.839 335.851 457.375C335.675 461.401 329.31 462.784 327.352 465.737C325.528 468.483 327.181 471.943 323.813 474.894C322.001 476.485 320.186 476.048 319.537 476.529C318.887 477.01 318.498 479.33 316.512 480.902C314.256 482.685 299.521 489.883 296.905 490.14C295.095 490.321 293.63 489.272 292.748 489.454C291.954 489.617 290.921 491.144 289.906 491.474C284.927 493.117 278.788 493.599 273.818 491.578C266.657 488.672 266.843 489.369 259.9 487.866C256.135 487.048 246.034 480.861 243.975 477.565C239.677 470.667 241.049 473.069 235.482 467.695C233.903 466.18 229.727 460.661 230.248 458.631C231.253 454.701 236.277 455.084 236.579 454.827L236.559 454.849Z" fill="#C10000"/>
<path d="M203.842 147.286C203.81 140.651 207.526 134.511 211.405 129.377C212.355 128.116 213.878 128.152 214.439 127.269C215.425 125.717 214.944 123.345 215.502 121.997C217.21 117.839 231.323 114.707 236.018 113.096C238.026 112.406 240.093 110.753 242.497 109.965C254.433 106.069 267.907 104.644 280.061 108.889C284.801 110.545 289.043 117.907 292.745 121.545C294.465 123.234 297.321 123.065 297.813 126.656C298.987 135.327 283.694 137.151 279.796 141.109C277.265 143.676 278.71 148.573 271.839 149.252C265.954 149.832 265.23 145.082 262.089 144.269C259.127 143.5 250.378 144.577 247.753 146.234C244.331 148.4 240.54 152.433 237.667 154.432C232.266 158.179 230.735 154.696 226.858 153.513C219.758 151.344 210.54 152.339 203.841 147.294L203.842 147.286Z" fill="#C10000"/>
<path d="M307.456 287.876C306.998 286.977 304.046 286.733 304.31 282.468C304.817 274.279 311.354 276.918 314.984 275.528C320.052 273.586 321.459 269.567 324.382 266.386C325.47 265.205 330.804 261.625 332.309 261.236C342.036 258.717 341.519 267.773 344.018 273.916C344.76 275.756 346.91 276.422 347.245 279.675C347.447 281.616 345.945 288.12 344.85 289.451C344.057 290.416 329.562 294.848 327.109 295.899C325.705 299.842 317.44 303.968 313.586 303.558C309.516 303.122 304.59 295.923 305.207 292.092C305.43 290.675 307.908 288.766 307.456 287.876Z" fill="#C10000"/>
<path d="M212.328 233.12C209.488 225.546 205.963 218.187 204.856 210.066C208.776 209.625 214.037 208.44 217.723 207.178C227.397 203.864 224.266 203.204 235.893 203.06C238.71 203.029 240.643 200.452 244.365 203.536C245.284 204.297 248.48 214.451 248.558 215.839C248.745 219.01 246.179 222.873 246.916 226.687L212.327 233.128L212.328 233.12Z" fill="#C10000"/>
<path d="M204.977 334.804C202.911 331.719 204.369 319.837 206.921 317.568C209.786 315.02 211.522 317.31 211.023 310.687C213.578 311.147 216.212 311.315 218.738 312.007C223.151 313.214 226.067 315.352 230.899 315.51C233.209 315.586 236.655 313.863 240.394 314.846C240.791 314.951 246.809 318.259 247.03 318.573C249.303 321.902 247.066 326.795 245.176 329.801C244.884 330.262 243.635 330.041 243.378 330.71C242.183 333.808 242.704 337.918 238.496 339.867C234.289 341.817 233.79 338.749 231.591 338.447C230.417 338.288 228.096 339.841 226.103 339.891C223.736 339.959 214.884 339.702 212.717 339.413C211.012 339.188 205.927 336.237 204.975 334.821L204.977 334.804Z" fill="#C10000"/>
<path d="M204.502 347.795C204.697 347.572 209.888 346.19 210.285 346.193C214.556 346.264 220.164 347.768 224.064 348.101C229.029 348.534 233.937 346.643 238.65 350.034L238.071 369.232C233.663 374.503 222.727 371.057 218.783 372.668C217.772 373.084 217.784 374.623 216.965 375.381C213.503 378.604 208.921 375.242 205.065 375.22C203.502 370.381 201.695 350.994 204.487 347.784L204.502 347.795Z" fill="#C10000"/>
<path d="M222.631 446.779C223.785 441.412 218.375 439.186 217.577 435.497C216.91 432.428 217.765 428.213 217.141 424.813C218.439 423.058 223.817 422.525 225.672 421.414C227.404 420.385 228.545 418.013 230.27 416.705C233.078 414.578 240.419 412.199 243.886 412.278C250.577 412.424 257.232 424.43 255.154 430.733C250.089 433.731 244.695 439.05 239.074 440.803C234.313 442.294 232.602 440.447 226.856 444.072C225.337 445.033 224.736 447.464 222.631 446.779Z" fill="#C10000"/>
<path d="M318.584 330.868C317.618 323.023 308.201 313.388 318.663 308.61C321.114 307.466 324.335 309.382 326.311 309.168C327.643 309.022 329.239 307.677 330.893 307.362C337.467 306.104 343.605 305.302 349.619 302.014C352.174 303.006 353.034 323.477 352.865 326.98L318.584 330.868Z" fill="#C10000"/>
<path d="M285.622 203.039C284.697 200.969 285.036 195.845 286.914 194.425C287.825 193.732 303.162 189.212 305.63 188.552C307.656 188.017 319.359 184.963 320.124 185.902C320.177 194.609 321.464 203.365 319.413 211.97C315.359 210.465 312.405 213.304 308.794 213.928C302.996 214.927 297.041 214.399 291.317 216.001C287.024 214.136 288.631 208.57 287.72 205.496C287.306 204.097 285.918 203.685 285.624 203.031L285.622 203.039Z" fill="#C10000"/>
<path d="M317.314 398.408C320.043 399.259 323.546 398.575 325.974 398.973C329.952 399.622 335.745 402.693 339.01 403.145C340.514 403.356 341.649 402.259 343.009 402.523C347.295 403.356 351.108 406.563 349.66 411.217C349.028 413.255 346.455 413.831 345.732 415.854C344.415 419.516 345.184 424.678 342.814 428.377C331.707 427.091 320.675 423.604 311.158 417.627C314.719 411.615 313.136 404.154 317.314 398.408Z" fill="#C10000"/>
<path d="M290.331 370.411C290.078 370.034 286.186 374.279 281.765 371.179C276.34 367.381 288.59 355.452 293.869 357.225L309.132 344.663C312.026 348.123 314.013 350.859 314.249 355.541C314.393 358.342 314.254 369.029 312.92 370.804C312.024 371.989 305.89 375.833 304.408 376.183C302.812 376.557 300.01 376.008 299.682 376.21C299.355 376.412 299.099 378.264 298.479 379.036C295.673 382.549 289.394 388.177 285.367 383.162C280.117 376.629 291.617 372.336 290.33 370.419L290.331 370.411Z" fill="#C10000"/>
<path d="M213.584 204.493C211.419 204.778 203.771 202.878 202.431 201.24C200.433 198.799 198.54 186.957 201.191 184.485C201.488 184.21 207.534 182.059 208.165 182.023C211.15 181.833 213.856 183.861 216.883 183.027C218.569 182.565 219.459 181.193 221.05 180.691C226.14 179.091 240.523 178.442 241.213 185.779C241.263 186.319 240.578 187.242 240.645 188.004C240.937 191.31 242.466 195.021 239.292 197.707C235.191 201.185 230.528 197.531 227.707 197.748C227.237 197.784 219.157 200.3 218.709 200.517C216.855 201.408 215.783 204.204 213.591 204.502L213.584 204.493Z" fill="#C10000"/>
<path d="M211.735 386.755C212.183 386.429 211.373 384.055 213.757 383.019C217.093 381.566 219.825 383.312 222.644 383.272C227.908 383.203 234.005 379.379 239.898 381.866L243.531 398.118C241.688 401.199 238.316 400.518 236.013 401.525C228.367 404.878 228.639 404.709 220.559 406.364C218.927 406.699 216.928 408.624 215.098 408.877C207.709 409.897 210.631 406.344 209.573 401.888C208.791 398.581 203.463 388.127 207.573 386.533C209.002 385.98 211.367 387.002 211.738 386.739L211.735 386.755Z" fill="#C10000"/>
<path d="M355.413 369.691C356.983 373.146 353.238 374.569 352.733 377.192C352.172 380.069 353.17 386.145 352.108 389.686C348.301 395.651 346.048 392.73 341.426 391.938C337.241 391.214 321.377 389.249 319.625 385.934C317.572 382.065 321.302 375.514 318.966 371.077C320.106 364.238 341.378 369.415 345.744 369.796C347.668 369.963 354.654 368.93 355.413 369.691Z" fill="#C10000"/>
<path d="M199.108 177.039C198.14 172.977 197.323 159.015 201.085 157.055C207.148 153.885 219.156 160.784 225.673 161.013C229.36 161.144 230.773 157.734 235.21 160.566C239.295 163.166 238.875 174.358 233.986 176.665C231.305 177.925 223.403 177.801 219.991 178.237C217.793 178.517 215.729 180.102 213.306 180.093C208.006 180.073 204.97 175.577 199.106 177.047L199.108 177.039Z" fill="#C10000"/>
<path d="M355.367 337.625C356.288 345.159 357.794 352.895 356.085 360.455C349.081 357.676 342.196 359.088 334.801 358.798C330.487 358.628 325.892 357.231 321.341 358.139L318.5 343.142C323.326 337.785 329.981 340.315 335.823 340.167C342.632 339.994 348.676 336.347 355.359 337.624L355.367 337.625Z" fill="#C10000"/>
<path d="M309.513 155.337C307.787 156.595 295.497 157.311 291.899 159.466C290.697 160.181 290.358 163.152 287.553 164.772C275.894 171.532 267.394 156.053 277.468 147.93C277.981 147.512 283.235 144.384 283.578 144.294C285.729 143.719 287.47 145.006 289.989 144.075C292.508 143.144 301.923 133.245 303.423 133.48C304.558 135.719 307.811 138.509 308.667 140.594C309.321 142.183 309.024 143.649 309.45 145.134C310.278 148.034 313.223 152.626 309.505 155.336L309.513 155.337Z" fill="#C10000"/>
<path d="M236.467 306.714C233.407 304.309 234.561 306.052 230.898 305.393C228.335 304.932 226.173 302.456 224.622 302.171C223.151 301.906 220.989 303.096 218.646 302.635C209.518 300.849 217.621 291.074 214.583 285.032C217.091 283.094 220.284 283.249 223.235 283.872C229.897 285.28 238.398 290.523 244.822 292.325C247.078 292.957 249.31 291.492 251.64 293.867C253.824 296.093 250.533 298.017 253.393 299.167L253.17 300.373L251.4 300.619C253.619 313.61 244.422 312.961 236.468 306.706L236.467 306.714Z" fill="#C10000"/>
<path d="M287.179 394.121C294.355 387.831 302.212 377.367 312.643 378.978L309.908 400.776C305.136 403.094 300.979 406.766 296.452 409.358C294.281 410.596 286.12 415.406 284.566 412.231C285.056 406.633 282.307 400.738 284.266 395.623C284.906 394.718 286.474 394.736 287.177 394.129L287.179 394.121Z" fill="#C10000"/>
<path d="M281.936 171.568C282.305 171.204 283.993 171.536 284.675 171.119C285.758 170.461 286.246 169.128 287.326 168.486C293.688 164.696 300.827 165.005 307.779 162.464C309.715 161.754 312.071 159.649 312.88 159.446C314.355 159.087 313.905 160.181 314.117 160.713C315.497 164.139 318.083 175.489 315.492 178.064C310.69 182.834 290.625 183.31 284.042 186.998C283.267 187.096 280.339 173.133 281.928 171.567L281.936 171.568Z" fill="#C10000"/>
<path d="M248.647 368.679C245.448 363.819 249.15 361.486 250.127 357.788C251.056 354.286 248.901 349.286 253.152 348.889C255.046 348.713 255.813 350.125 257.039 350.385C261.421 351.309 261.905 351.131 266.204 353.334C271.395 355.989 280.662 360.981 275.761 367.949C274.381 369.903 272.241 369.119 271.335 369.94C270.734 370.488 271.505 373.058 270.703 374.942C268.852 379.313 264.496 379.998 260.401 378.005C259.561 377.594 249.071 369.311 248.653 368.688L248.647 368.679Z" fill="#C10000"/>
<path d="M290.388 341.402C290.805 341.164 294.416 338.766 293.732 338.008C291.259 339.943 282.971 333.55 283.735 331.804C288.236 330.517 302.412 315.191 305.885 316.36C311.101 321.122 309.718 328.701 311.565 334.91C308.321 337.661 302.533 339.617 299.746 342.743C298.116 344.574 297.841 346.92 295.947 348.549C294.942 349.413 286.99 353.047 285.941 352.9C281.151 352.208 280.696 348.218 283.76 344.839C285.668 342.739 288.392 342.55 290.396 341.403L290.388 341.402Z" fill="#C10000"/>
<path d="M281.987 317.375C281.713 316.969 280.767 309.051 280.696 307.731C280.349 301.055 281.103 298.724 286.916 295.101C288.376 294.19 290.524 294.282 291.509 293.389C292.768 292.252 293.261 288.892 295.096 287.803C302.672 283.325 308.116 300.419 304.991 306.879C302.515 312.006 298.364 312.951 294.338 315.301C290.917 317.298 285.742 322.887 281.987 317.375Z" fill="#C10000"/>
<path d="M253.004 382.301C263.438 382.223 268.389 391.901 276.747 396.387C278.551 401.847 279.431 407.44 277.62 413.06C272.557 415.137 270.811 411.139 267.524 409.314C264.433 407.596 258.506 403.01 257.68 402.619C254.807 401.281 251.28 402.502 249.116 398.64C246.16 393.363 250.87 392.624 252.283 389.805C253.071 388.231 252.709 382.516 253.014 382.294L253.004 382.301Z" fill="#C10000"/>
<path d="M269.175 338.379C266.827 338.382 268.141 341.367 267.004 341.83C266.48 342.044 261.028 343.046 260.436 342.996C255.53 342.564 255.176 338.683 253.343 337.23C252.682 336.704 251.132 337.272 249.809 336.127C245.864 332.687 249.526 315.636 260.819 320.743C265.842 323.018 265.768 325.911 268.264 328.465C271.395 331.658 277.066 332.919 277.276 338.526C277.316 339.672 275.867 347.781 275.443 348.44C273.186 351.895 265.178 349.541 266.38 345.161C266.906 343.259 270.44 342.428 269.174 338.387L269.175 338.379Z" fill="#C10000"/>
<path d="M261.172 293.344C272.518 295.309 279.417 301.779 276.791 313.833C274.813 322.947 265.753 318.089 260.55 314.376C252.409 308.564 257.576 300.44 261.172 293.344Z" fill="#C10000"/>
<path d="M286.373 441.473C283.213 437.498 285.846 432.447 283.892 428.214C290.408 423.983 294.924 415.596 303.122 414.694C308.983 417.387 295.743 438.104 291.992 440.319C289.937 441.526 288.223 439.956 286.373 441.473Z" fill="#C10000"/>
<path d="M266.761 432.866C265.845 431.76 264.327 431.26 263.53 430.096C262.793 429.035 255.497 416.109 256.206 415.731C258.823 415.905 261.094 417.038 263.384 418.157C265.119 418.995 278.137 427.101 278.598 427.882C279.38 429.196 279.371 437.276 278.582 438.909C276.565 443.103 270.04 438.127 267.961 435.985C266.609 434.591 267.123 433.303 266.761 432.866Z" fill="#C10000"/>
<path d="M280.283 208.376L268.332 206.501C267.227 206.328 263.994 200.881 263.715 199.646C260.926 187.546 276.867 187.403 280.721 196.005C282.408 199.783 280.133 204.223 280.283 208.376Z" fill="#C10000"/>
<path d="M244.138 187.268C240.221 181.925 247.173 168.667 254.487 173.513C264.066 179.854 250.446 195.884 244.138 187.268Z" fill="#C10000"/>
<path d="M251.419 214.826C248.689 206.553 244.962 198.384 255.848 194.45C258.226 193.827 261.592 203.543 261.516 204.139C261.319 205.662 253.287 216.809 251.419 214.826Z" fill="#C10000"/>
<path d="M265.278 178.431C264.456 177.424 261.933 177.518 262.134 174.569C262.348 171.427 266.183 170.61 268.779 171.076C276.196 172.408 276.892 177.931 273.114 183.554C267.607 183.231 267.884 181.627 265.278 178.431Z" fill="#C10000"/>
<path d="M257.391 149.941C265.527 147.653 268.959 155.607 270.652 162.096C262.602 164.744 256.599 157.789 257.391 149.941Z" fill="#C10000"/>
<path d="M241.778 168.555C242.18 163.356 240.341 157.148 244.652 152.976C249.534 148.236 251.233 159.261 250.179 162.483C249.53 164.467 243.376 170.697 241.777 168.563L241.778 168.555Z" fill="#C10000"/>
<path d="M277.108 379.333C275.8 383.747 271.077 380.853 269.782 377.745C272.54 375.238 274.709 378.104 277.108 379.333Z" fill="#C10000"/>
</svg>
