<svg width="299" height="263" viewBox="0 0 299 263" fill="none" xmlns="http://www.w3.org/2000/svg">
<path d="M168.854 91.5591C168.237 90.6382 167.462 92.2129 166.962 91.842C166.571 90.4579 165.18 90.0358 164.445 89.1148C163.767 88.2667 160.569 81.2139 160.619 80.4128C160.75 78.4273 162.824 78.1176 163.396 77.526C164.597 76.2813 165.702 74.2766 167.063 73.0149C167.469 72.6383 168.306 72.9396 168.554 72.1321C168.803 71.3245 167.735 69.5127 167.717 68.4315C167.692 66.7413 168.594 65.3404 167.277 63.5737C166.475 62.4994 165.487 62.7231 164.618 61.8873L160.362 56.3145C160.783 53.6473 162.083 50.3391 164.131 48.5059C164.543 48.139 165.363 48.2397 165.459 47.9811C165.955 46.6919 164.565 41.8357 168.273 41.7503C169.508 41.7215 174.703 43.5806 173.457 45.5502C174.174 45.8876 174.67 45.1445 175.384 45.2569C177.258 45.5558 177.562 48.6073 178.837 49.6821C180.023 50.6831 181.731 50.0964 182.929 51.8306C183.576 52.7637 183.274 53.5889 183.464 53.9187C183.654 54.2484 184.718 54.5555 185.346 55.5692C186.058 56.7202 188.631 63.9992 188.61 65.2366C188.597 66.093 188.028 66.7218 188.066 67.144C188.099 67.5241 188.757 68.0897 188.857 68.582C189.358 70.999 189.252 73.8962 188.039 76.1116C186.294 79.3047 186.63 79.2551 185.553 82.4212C184.968 84.1379 181.53 88.529 179.878 89.3144C176.42 90.9528 177.617 90.4408 174.804 92.7549C174.01 93.4115 171.204 95.0673 170.283 94.7143C168.499 94.0326 168.949 91.7035 168.845 91.5484L168.854 91.5591Z" fill="#C10000"/>
<path d="M23.2452 90.2912C20.1406 89.9487 17.4693 87.88 15.277 85.789C14.7382 85.277 14.8371 84.5667 14.4543 84.2568C13.7819 83.7119 12.6464 83.809 12.0459 83.4755C10.1935 82.4528 9.48884 75.6833 8.98811 73.4007C8.77361 72.4242 8.11226 71.3687 7.87302 70.202C6.69391 64.4096 6.75321 58.031 9.39363 52.5754C10.4233 50.4477 14.0951 48.8605 15.996 47.3247C16.8784 46.6114 16.9534 45.2667 18.6592 45.2298C22.778 45.1481 22.8072 52.399 24.4482 54.435C25.5126 55.757 27.8806 55.3452 27.828 58.5953C27.7824 61.3787 25.5218 61.4617 24.9721 62.8867C24.453 64.2306 24.4854 68.3806 25.1191 69.6975C25.9477 71.4147 27.6298 73.4051 28.4098 74.8561C29.8713 77.5842 28.1598 78.1127 27.398 79.8622C26.0009 83.066 25.9697 87.4307 23.249 90.2923L23.2452 90.2912Z" fill="#C10000"/>
<path d="M94.5807 49.405C94.1352 49.571 93.8624 50.9383 91.8816 50.5852C88.0793 49.9068 89.6653 46.9918 89.2108 45.2192C88.5758 42.7445 86.772 41.8698 85.4415 40.3314C84.9481 39.7586 83.5608 37.0715 83.4601 36.3466C82.8057 31.6615 87.0136 32.3911 90.0214 31.5533C90.9215 31.3054 91.3491 30.3356 92.8886 30.3545C93.807 30.3644 96.768 31.417 97.3316 32.0011C97.7402 32.4241 99.0323 39.4419 99.3916 40.646C101.16 41.5151 102.645 45.6027 102.245 47.3832C101.822 49.2632 98.1895 51.1792 96.4314 50.684C95.7803 50.5036 95.0212 49.2418 94.5807 49.405Z" fill="#C10000"/>
<path d="M63.8467 90.9465C60.1517 91.867 56.5197 93.1188 52.662 93.1995C52.667 91.3423 52.3964 88.8178 52.0043 87.0258C50.9758 82.3227 50.4985 83.7515 51.0574 78.3061C51.1946 76.9868 50.0936 75.9441 51.7363 74.3694C52.1416 73.9804 57.0628 73.0327 57.7166 73.0712C59.2096 73.1547 60.8779 74.5624 62.7016 74.4237L63.8505 90.9475L63.8467 90.9465Z" fill="#C10000"/>
<path d="M111.008 99.8621C109.454 100.662 103.975 99.3403 103.052 98.0247C102.014 96.5471 103.179 95.859 100.054 95.7352C100.407 94.5653 100.627 93.3425 101.087 92.1982C101.89 90.1991 103.047 88.9505 103.381 86.6995C103.54 85.6228 102.92 83.9185 103.582 82.2228C103.652 82.0425 105.524 79.4063 105.682 79.3198C107.362 78.436 109.53 79.7458 110.834 80.7918C111.034 80.9531 110.863 81.5254 111.162 81.6816C112.546 82.4075 114.497 82.3853 115.182 84.4582C115.867 86.5311 114.405 86.5989 114.145 87.6111C114.008 88.1517 114.609 89.321 114.525 90.2556C114.43 91.3662 113.833 95.4927 113.581 96.4908C113.383 97.2758 111.729 99.4953 111.016 99.8642L111.008 99.8621Z" fill="#C10000"/>
<path d="M117.058 100.784C116.964 100.681 116.598 98.1788 116.621 97.9936C116.884 96 117.889 93.4581 118.255 91.652C118.725 89.3529 118.105 86.9558 119.945 84.9344L128.893 86.2394C131.121 88.5847 128.919 93.514 129.46 95.445C129.6 95.9403 130.321 96.0176 130.631 96.4419C131.952 98.2345 130.133 100.196 129.915 101.999C127.568 102.469 118.403 102.27 117.052 100.791L117.058 100.784Z" fill="#C10000"/>
<path d="M164.329 97.6381C161.881 96.8091 160.549 99.2198 158.78 99.3942C157.309 99.541 155.384 98.9138 153.76 99.0224C153.009 98.3211 153.049 95.7767 152.63 94.8494C152.242 93.9838 151.194 93.3227 150.675 92.4452C149.831 91.0173 149.114 87.4561 149.338 85.8388C149.767 82.7173 155.74 80.2515 158.577 81.563C159.706 84.0931 161.903 86.9027 162.42 89.626C162.861 91.9328 161.905 92.6338 163.291 95.5163C163.658 96.2785 164.763 96.6904 164.329 97.6381Z" fill="#C10000"/>
<path d="M115.287 46.5172C111.566 46.546 106.553 50.4312 104.882 45.2811C104.479 44.073 105.548 42.6697 105.555 41.734C105.558 41.1033 105.015 40.2843 104.956 39.4937C104.722 36.3516 104.678 33.4373 103.464 30.4477C104.066 29.306 113.686 30.0067 115.316 30.2747L115.287 46.5172Z" fill="#C10000"/>
<path d="M53.7266 55.0467C52.7084 55.3678 50.3303 54.9332 49.7674 53.9784C49.4923 53.5149 48.2046 46.0988 48.0289 44.9089C47.8877 43.9324 47.0897 38.2945 47.5701 37.9874C51.6452 38.4316 55.8101 38.3015 59.7241 39.7241C58.8015 41.5391 59.9701 43.0733 60.0676 44.7959C60.2226 47.5615 59.6545 50.3183 60.0954 53.0816C58.9922 54.9892 56.4754 53.9374 54.9889 54.198C54.3121 54.3163 54.0447 54.9432 53.7229 55.0456L53.7266 55.0467Z" fill="#C10000"/>
<path d="M146.807 50.7495C147.352 49.5187 147.221 47.8439 147.538 46.7293C148.055 44.9041 149.804 42.3601 150.191 40.8575C150.371 40.1655 149.919 39.5756 150.116 38.9535C150.736 36.9937 152.441 35.3834 154.54 36.3113C155.459 36.7167 155.59 37.9512 156.497 38.3982C158.139 39.2116 160.595 39.1298 162.197 40.4378C160.997 45.563 158.772 50.5345 155.464 54.6639C152.844 52.6746 149.269 53.0131 146.807 50.7495Z" fill="#C10000"/>
<path d="M132.259 61.8612C132.069 61.9593 133.845 64.0083 132.157 65.9087C130.088 68.2416 125.169 61.8696 126.283 59.4963L121.23 51.681C123.004 50.5137 124.391 49.7321 126.593 49.8735C127.911 49.9574 132.902 50.5981 133.66 51.3178C134.166 51.8004 135.633 54.8764 135.717 55.5885C135.806 56.3551 135.399 57.636 135.475 57.8C135.552 57.9639 136.404 58.1837 136.732 58.515C138.224 60.0165 140.518 63.2564 137.955 64.8698C134.617 66.9734 133.229 61.3634 132.263 61.8622L132.259 61.8612Z" fill="#C10000"/>
<path d="M50.5256 88.8167C50.5425 89.8444 49.2415 93.3193 48.4036 93.8575C47.154 94.6607 41.5138 94.9079 40.5003 93.5348C40.3879 93.3814 39.7076 90.4376 39.7246 90.1407C39.7964 88.7341 40.891 87.5782 40.664 86.1173C40.5388 85.3041 39.9451 84.8135 39.7959 84.0426C39.3217 81.5758 39.7929 74.8141 43.2617 74.8865C43.517 74.892 43.9117 75.2622 44.2717 75.2723C45.8335 75.3137 47.6514 74.7984 48.7366 76.4277C50.1424 78.5331 48.1825 80.5172 48.1317 81.8481C48.1232 82.0699 48.8647 85.9844 48.942 86.2055C49.2591 87.1208 50.5091 87.7728 50.5304 88.8139L50.5256 88.8167Z" fill="#C10000"/>
<path d="M135.669 99.5005C135.541 99.2733 134.387 99.5243 134.031 98.3536C133.531 96.7153 134.495 95.5313 134.628 94.211C134.879 91.7453 133.419 88.6875 134.9 86.0653L142.697 85.2418C144.038 86.2696 143.538 87.8103 143.885 88.9417C145.041 92.6979 144.977 92.562 145.316 96.43C145.385 97.2113 146.177 98.25 146.197 99.1196C146.276 102.63 144.771 101.072 142.63 101.327C141.042 101.515 135.865 103.443 135.341 101.435C135.16 100.737 135.765 99.6859 135.662 99.4984L135.669 99.5005Z" fill="#C10000"/>
<path d="M135.429 31.3833C137.129 30.8355 137.593 32.6635 138.793 33.0407C140.108 33.458 143.004 33.3187 144.602 34.0062C147.187 36.1081 145.7 37.0044 145.08 39.1233C144.516 41.0417 142.742 48.3556 141.098 48.9963C139.177 49.7483 136.314 47.6508 134.113 48.5043C130.976 47.6026 134.544 37.9325 134.957 35.9113C135.139 35.0201 135.032 31.6973 135.429 31.3833Z" fill="#C10000"/>
<path d="M36.9056 94.1083C34.9537 94.342 28.38 93.9718 27.6658 92.1069C26.5096 89.1006 30.3835 83.8563 30.8415 80.8203C31.1012 79.1029 29.5826 78.2583 31.1464 76.3357C32.5825 74.5652 37.794 75.365 38.6098 77.7757C39.0548 79.0972 38.5708 82.7863 38.5908 84.4059C38.6035 85.4488 39.2336 86.4996 39.0991 87.6321C38.804 90.11 36.5376 91.2877 36.9094 94.1093L36.9056 94.1083Z" fill="#C10000"/>
<path d="M120.429 29.6778C124.003 29.6528 127.702 29.3652 131.146 30.572C129.468 33.6982 129.758 36.9942 129.224 40.4371C128.912 42.4456 128.011 44.5194 128.191 46.6967L121.024 47.2178C118.778 44.6719 120.32 41.6957 120.565 38.9555C120.851 35.7617 119.471 32.7383 120.428 29.6816L120.429 29.6778Z" fill="#C10000"/>
<path d="M32.7042 41.3034C33.1995 42.1784 32.8722 47.965 33.6863 49.7638C33.956 50.3644 35.3269 50.683 35.9338 52.0821C38.4674 57.8991 30.77 61.0408 27.5134 55.8916C27.3456 55.6291 26.1655 53.0034 26.1421 52.8379C25.9891 51.8011 26.6846 51.0563 26.385 49.828C26.0853 48.5996 21.9628 43.6629 22.1537 42.974C23.2619 42.5637 24.7422 41.1926 25.7634 40.9049C26.5418 40.6845 27.211 40.9024 27.9287 40.7834C29.3297 40.552 31.6359 39.4219 32.7032 41.3072L32.7042 41.3034Z" fill="#C10000"/>
<path d="M99.5667 83.6213C98.2768 84.9228 99.1543 84.4771 98.6488 86.1549C98.2951 87.3286 97.0207 88.2064 96.8036 88.9166C96.6007 89.59 97.0405 90.6656 96.6989 91.7366C95.3717 95.9095 91.2364 91.5928 88.2469 92.6884C87.4758 91.411 87.7202 89.9258 88.1706 88.5792C89.1881 85.5393 92.0984 81.8458 93.2869 78.9388C93.7044 77.9173 93.1391 76.7947 94.3755 75.833C95.5343 74.9313 96.257 76.5743 96.9487 75.2987L97.501 75.4679L97.5207 76.309C103.716 75.971 102.917 80.2372 99.5629 83.6203L99.5667 83.6213Z" fill="#C10000"/>
<path d="M143.178 64.6128C140.623 60.9174 136.153 56.679 137.468 51.8874L147.516 54.3409C148.342 56.6975 149.836 58.8394 150.804 61.0967C151.267 62.1786 153.076 66.2544 151.508 66.8103C148.916 66.2798 146.011 67.2479 143.724 66.0561C143.335 65.7079 143.428 64.9756 143.182 64.6139L143.178 64.6128Z" fill="#C10000"/>
<path d="M38.8091 55.0755C38.6586 54.883 38.9049 54.1116 38.7468 53.7703C38.4975 53.2284 37.8999 52.9284 37.6582 52.3886C36.2281 49.2086 36.7572 45.8866 35.9432 42.4983C35.7155 41.5548 34.8581 40.3391 34.8069 39.9499C34.7181 39.2406 35.2059 39.5102 35.4659 39.4396C37.1424 38.9788 42.5904 38.3809 43.655 39.7315C45.6272 42.2343 44.7689 51.644 46.1393 54.9216C46.1434 55.2895 39.4551 55.9066 38.808 55.0793L38.8091 55.0755Z" fill="#C10000"/>
<path d="M129.203 81.2635C126.758 82.4977 125.867 80.6407 124.19 79.9846C122.602 79.3612 120.147 80.0997 120.19 78.09C120.21 77.1947 120.912 76.9123 121.1 76.3529C121.768 74.3533 121.711 74.1174 122.973 72.2253C124.494 69.9405 127.328 65.8753 130.323 68.5431C131.162 69.2933 130.681 70.2522 131.016 70.72C131.239 71.0306 132.483 70.8086 133.321 71.2853C135.266 72.3865 135.351 74.4604 134.198 76.2686C133.961 76.639 129.522 81.0991 129.208 81.2607L129.203 81.2635Z" fill="#C10000"/>
<path d="M118.695 60.2717C118.606 60.0636 117.679 58.2458 117.288 58.5246C118.059 59.7858 114.623 63.3173 113.848 62.866C113.488 60.6918 107.084 53.2359 107.818 51.6745C110.326 49.4918 113.796 50.5468 116.8 50.0176C117.912 51.6829 118.514 54.4951 119.826 55.9672C120.595 56.8281 121.677 57.0832 122.337 58.0567C122.687 58.5735 123.958 62.488 123.833 62.9708C123.251 65.1736 121.36 65.1716 119.945 63.5567C119.066 62.5511 119.124 61.267 118.696 60.2679L118.695 60.2717Z" fill="#C10000"/>
<path d="M107.005 62.9063C106.8 63.0127 103.046 63.0283 102.425 62.9907C99.2842 62.7931 98.2347 62.3148 96.8532 59.401C96.5058 58.6689 96.6645 57.6695 96.3 57.1609C95.8361 56.5107 94.2913 56.099 93.8809 55.1824C92.1945 51.3975 100.483 49.7726 103.336 51.582C105.6 53.0162 105.818 55.0087 106.7 57.0179C107.45 58.7255 109.786 61.4471 107.005 62.9063Z" fill="#C10000"/>
<path d="M135.809 79.959C136.335 75.0751 141.128 73.2808 143.676 69.6134C146.327 69.0639 148.991 68.954 151.521 70.1034C152.22 72.5835 150.256 73.1847 149.226 74.6234C148.255 75.9768 145.791 78.5018 145.564 78.8668C144.783 80.1383 145.164 81.8537 143.242 82.658C140.614 83.7561 140.522 81.5134 139.28 80.7005C138.586 80.2475 135.894 80.1089 135.806 79.9542L135.809 79.959Z" fill="#C10000"/>
<path d="M116.138 70.0301C116.013 71.1285 117.48 70.6748 117.635 71.2315C117.707 71.4877 117.882 74.0918 117.827 74.3658C117.361 76.6373 115.526 76.5938 114.748 77.3727C114.466 77.6534 114.648 78.4089 114.042 78.9663C112.22 80.6261 104.443 77.9946 107.44 72.9883C108.774 70.7616 110.124 70.952 111.452 69.9221C113.115 68.6299 114.01 66.0453 116.644 66.2491C117.182 66.2922 120.896 67.4068 121.182 67.6408C122.676 68.8822 121.144 72.5009 119.16 71.7027C118.298 71.354 118.1 69.6565 116.142 70.0311L116.138 70.0301Z" fill="#C10000"/>
<path d="M94.6446 71.3469C96.175 66.1462 99.5727 63.2684 105.069 65.1455C109.225 66.5619 106.465 70.5374 104.448 72.7707C101.291 76.2654 97.7696 73.4109 94.6446 71.3469Z" fill="#C10000"/>
<path d="M165.282 67.5409C163.252 68.8047 161.032 67.301 158.947 67.9868C157.319 64.7113 153.64 62.1473 153.66 58.2645C155.235 55.6684 164.211 62.9768 165.045 64.8504C165.498 65.8768 164.672 66.5935 165.282 67.5409Z" fill="#C10000"/>
<path d="M160.199 76.2492C159.633 76.618 159.317 77.3009 158.73 77.611C158.194 77.8986 151.755 80.6147 151.617 80.2624C151.839 79.0482 152.491 78.047 153.138 77.036C153.623 76.2697 158.116 70.6179 158.506 70.4448C159.162 70.1498 162.941 70.5893 163.662 71.0459C165.515 72.2154 162.836 74.9989 161.723 75.856C160.998 76.4133 160.423 76.1034 160.199 76.2492Z" fill="#C10000"/>
<path d="M55.9348 57.8311L54.4142 63.3198C54.2737 63.827 51.5517 65.0456 50.9593 65.1098C45.1497 65.7624 45.9417 58.2988 50.1724 56.9602C52.0302 56.3744 53.9842 57.6779 55.9348 57.8311Z" fill="#C10000"/>
<path d="M44.1157 73.5991C41.4055 75.143 35.5793 71.1772 38.2398 68.0177C41.7217 63.8793 48.485 71.1127 44.1157 73.5991Z" fill="#C10000"/>
<path d="M57.3972 71.6783C53.3804 72.5097 49.3593 73.8127 48.1059 68.5092C47.9424 67.3634 52.668 66.3127 52.9426 66.3806C53.6444 66.5547 58.4248 70.9114 57.3972 71.6783Z" fill="#C10000"/>
<path d="M41.1217 63.2359C40.6064 63.5659 40.5145 64.751 39.1457 64.4982C37.6879 64.2288 37.5123 62.3908 37.8701 61.202C38.8928 57.8048 41.5132 57.7767 43.9395 59.8469C43.4918 62.4048 42.7568 62.189 41.1217 63.2359Z" fill="#C10000"/>
<path d="M27.3721 65.3899C26.7405 61.4611 30.645 60.2847 33.7714 59.8425C34.576 63.75 31 66.183 27.3721 65.3899Z" fill="#C10000"/>
<path d="M35.2367 73.6948C32.827 73.227 29.8243 73.7524 28.1056 71.5114C26.1514 68.9728 31.3997 68.772 32.8494 69.4386C33.7424 69.849 36.3247 73.0629 35.2404 73.6959L35.2367 73.6948Z" fill="#C10000"/>
<path d="M135.72 68.526C137.714 69.376 136.106 71.429 134.582 71.867C133.559 70.4421 135.016 69.5822 135.72 68.526Z" fill="#C10000"/>
<path d="M280.918 132.799C281.31 134.796 281.055 133.479 282 135.254C282.554 136.299 283.598 144.703 283.422 145.934C283.282 146.93 282.513 147.544 282.437 148.027C282.354 148.592 283.226 149.488 282.796 150.761C282.295 152.238 280.896 152.711 280.257 154.058C279.281 156.12 281.239 160.069 277.065 160.318C279.023 161.542 275.485 165.317 274.341 166.026C270.946 168.129 269.505 162.589 268.591 161.747C268.38 161.553 267.673 162.022 267.126 161.873C264.402 161.124 261.69 158.675 260.08 156.415L261.533 149.056C262.771 147.857 263.74 146.019 262.941 144.272C262.542 143.395 261.733 142.799 261.298 141.898C260.781 140.828 261.03 138.447 260.115 137.889C257.668 138.266 255.348 136.37 253.153 135.558C252.295 135.24 250.652 135.856 249.439 134.376C248.881 133.696 248.521 125.484 248.798 124.365C249.074 123.246 250.228 122.286 249.923 120.689L251.757 120.095C249.568 115.995 253.145 115.559 256.398 116.21C257.896 116.511 258.982 117.412 260.042 117.582C263.055 118.06 263.356 116.405 267.704 118.641C271.575 120.631 271.425 122.113 273.98 124.303C274.948 125.132 276.159 125.121 277.313 126.171C279.037 127.741 280.468 130.519 280.923 132.806L280.918 132.799Z" fill="#C10000"/>
<path d="M113.012 211.321C112.785 210.41 112.447 209.365 112.265 208.57C111.936 207.131 110.492 200.996 110.801 200.188C111.264 198.971 112.646 198.559 113.017 197.542C113.195 197.058 112.81 196.446 113.056 195.754C113.849 193.538 116.053 189.158 118.129 188.046C122.177 189.064 124.143 193.325 126.929 195.66C127.918 196.49 128.747 196.114 129.565 197.467C130.828 199.548 129.601 200.53 129.471 202.057C129.448 202.322 129.472 206.405 129.505 206.632C129.692 207.899 131.687 211.852 132.648 212.549C133.95 213.493 135.768 212.533 137.065 215.036C138.605 218.009 136.172 218.758 135.84 220.697C135.4 223.264 138.058 228.515 135.6 230.994C133.966 232.645 132.218 231.048 130.493 230.75C127.899 230.299 124.678 230.575 122.591 228.804C116.666 223.777 114.783 218.515 113.011 211.327L113.012 211.321Z" fill="#C10000"/>
<path d="M206.004 189.983C207.368 190.018 209.248 190.078 210.399 190.909C211.877 191.982 212.675 197.224 211.14 198.763C211.392 200.176 213.442 206.841 213.2 207.667C212.846 208.873 210.529 211.064 209.287 211.508C208.045 211.952 207.617 211.305 206.688 211.427C204.429 211.73 201.143 213.949 199.111 211.651C198.313 210.749 198.199 206.35 198.502 205.169C198.939 203.476 200.383 201.074 199.656 198.94C199.138 197.425 198.071 197.695 198.464 195.445C199.191 191.274 202.665 193.026 202.888 192.824C203.328 192.43 203.272 191.382 203.824 190.888C204.27 190.489 205.299 190.426 206 189.986C205.667 189.978 205.288 189.774 204.737 189.798C203.105 189.873 201.398 191.51 200.007 189.262C198.876 187.438 200.576 186.241 200.727 184.988C200.811 184.275 200.24 183.619 200.23 182.96C200.196 181.359 200.351 179.276 201.595 178.176C202.371 177.488 207.643 174.703 208.38 174.85C211.845 175.532 210.056 180.954 210.785 183.522C210.126 187.148 209.015 188.099 206 189.986L206.004 189.983Z" fill="#C10000"/>
<path d="M161.913 184.489C160.157 185.24 159.327 187.173 157.947 188.01C157.459 188.305 153.953 189.402 153.281 189.505C149.903 190.025 150.461 187.887 149.424 186.249C146.48 181.604 147.549 182.786 146.369 178.08C146.117 177.083 144.087 171.921 144.546 171.44L155.586 168.863L161.914 184.484L161.913 184.489Z" fill="#C10000"/>
<path d="M205.897 151.95C205.846 153.042 204.076 154.517 203.571 155.401C203.001 156.392 203.07 157.671 202.047 158.772C201.519 159.339 199.679 160.481 199.009 160.317C198.84 160.277 196.194 158.77 195.961 158.587C193.768 156.883 194.497 154.422 192.088 153.39L192.431 152.504C190.946 152.272 186.639 148.908 186.926 147.64C189.706 146.277 187.291 144.778 188.905 142.896C191.348 140.046 195.467 137.199 198.625 140.879C199.307 141.675 201.757 145.213 202.35 146.187C202.855 147.011 202.837 148.364 203.209 148.794C203.809 149.485 206.002 149.701 205.902 151.951L205.897 151.95Z" fill="#C10000"/>
<path d="M213.694 134.351C213.627 135.326 218.461 140.654 217.525 142.997L209.785 148.595C206.999 147.669 206.343 144.258 204.674 142.611C203.183 141.141 202.001 139.978 200.739 138.097C200.316 137.472 200.338 136.082 199.861 135.327C202.8 131.942 206.923 130.168 210.886 128.323C212.298 129.372 214.695 131.152 214.349 133.106C214.261 133.592 213.716 134.033 213.695 134.345L213.694 134.351Z" fill="#C10000"/>
<path d="M246.791 131.256C246.739 132.045 247.272 133.525 246.755 134.265C245.379 136.243 238.866 136.663 237.067 135.149C235.74 134.032 234.483 129.398 234.616 127.605C234.685 126.647 235.312 125.563 235.322 124.783C235.336 123.687 233.917 120.705 234.551 119.88C236.789 119.298 237.891 117.39 240.329 117.321C240.963 117.303 241.573 117.752 242.314 117.656C243.317 117.527 244.333 116.509 245.508 116.753C244.861 118.217 244.661 120.678 245.245 122.167C247.047 126.775 247.127 126.148 246.791 131.256Z" fill="#C10000"/>
<path d="M230.555 201.013C229.157 202.058 220.712 207.091 219.566 206.281C219.3 204.712 219.08 203.189 218.597 201.661C217.651 198.677 216.555 196.223 215.077 193.692C214.193 192.178 213.431 190.078 214.831 188.562C215.927 187.377 216.451 188.07 217.419 187.79C218.199 187.564 223.036 185.996 223.278 186.193L230.559 201.011L230.555 201.013Z" fill="#C10000"/>
<path d="M175.074 217.783C172.105 220.837 168.359 222.886 164.682 224.932C161.766 220.205 161.25 214.56 159.397 209.443C159.218 208.323 161.31 206.697 162.312 206.466C162.925 206.326 163.455 206.922 164.08 206.763C165.401 206.427 167.114 204.462 169.051 205.104C170.011 207.402 171.551 209.538 172.555 211.792C173.524 213.966 173.499 216.16 175.076 217.786L175.074 217.783Z" fill="#C10000"/>
<path d="M269.03 170.183C268.437 172.463 265.792 173.309 264.731 174.661C264.013 175.578 264.458 178.752 261.786 178.809C261.555 178.815 258.884 177.341 258.624 177.083C258.118 176.573 258.12 175.774 257.702 175.292C256.764 174.207 254.155 172.724 252.947 171.417C252.068 170.468 251.319 168.701 250.157 167.754C251.515 164.618 254.787 163.158 256.334 160.186C261.263 162.47 265.598 166.01 269.035 170.19L269.03 170.183Z" fill="#C10000"/>
<path d="M236.496 166.45C236.503 166.602 237.532 167.727 237.801 168.664C238.092 169.683 238.169 173.25 237.476 174.081C237.004 174.649 231.385 178.214 230.484 178.557C229.099 179.084 227.232 179.094 225.923 178.331C225.799 178.201 226.522 176.962 226.604 176.353C226.724 175.484 227.325 169.456 227.262 169.098C227.07 168.031 226.177 167.82 226.288 165.758C226.562 160.502 230.775 157.737 231.678 164.184C233.288 162.29 231.574 159.177 234.973 158.803C238.618 158.403 238.044 162.612 237.427 164.928C237.268 165.525 236.491 166.292 236.5 166.447L236.496 166.45Z" fill="#C10000"/>
<path d="M140.282 173.174C140.991 173.402 143.756 176.056 144.116 176.818C144.576 177.784 143.723 178.96 143.849 179.945C143.88 180.184 144.991 184.125 145.101 184.328C145.799 185.607 147.793 185.833 148.118 188.467C148.451 191.185 145.06 191.44 143.666 193.079C141.24 193.344 139.718 192.228 138.407 190.234C136.922 187.977 136.907 185.36 136.138 183.513C135.592 182.199 134.13 181.707 133.443 180.245C133.355 180.06 132.759 177.23 132.775 177.067C132.955 175.335 139 172.759 140.28 173.17L140.282 173.174Z" fill="#C10000"/>
<path d="M223.21 140.795C220.452 139.209 220.433 135.391 219.048 133.325C218.288 132.191 216.719 131.371 216.509 129.499C218.478 127.272 216.377 127.618 216.406 126.052C216.438 124.367 222.204 123.485 223.755 122.893C224.668 122.547 224.998 121.984 225.787 121.665C228.176 122.54 227.385 125.331 227.958 126.676C229.51 130.325 229.339 130.061 229.982 133.931C230.172 135.082 231.249 136.17 230.683 137.688L223.217 140.79L223.21 140.795Z" fill="#C10000"/>
<path d="M248.558 190.78C248.049 190.673 246.622 187.564 246.049 186.826C244.765 185.185 237.074 177.849 239.505 175.624C242.111 175.035 243.466 172.718 245.866 171.629L249.846 174.742C250.702 176.573 255.971 180.306 256.343 181.657C256.432 181.973 255.993 183.971 255.811 184.198C255.426 184.672 254.617 184.477 254.268 184.789C253.955 185.067 253.975 185.87 253.498 186.323C252.876 186.915 251.659 187.039 250.995 187.713C250.059 188.662 250.277 190.489 248.552 190.779L248.558 190.78Z" fill="#C10000"/>
<path d="M138.223 192.659C138.332 195.192 133.993 198.405 131.713 197.059C129.539 195.777 130.629 194.166 129.818 193.067C128.676 191.52 124.91 189.204 123.349 187.459C122.77 186.813 121.344 184.658 121.631 183.84C122.226 182.127 127.662 177.997 129.287 178.734C129.927 179.025 130.214 180.111 130.862 180.656C131.428 181.134 132.244 181.197 132.836 181.683C134.921 183.392 134.291 184.532 135.162 186.348C135.901 187.893 138.168 191.107 138.234 192.661L138.223 192.659Z" fill="#C10000"/>
<path d="M244.986 193.488C244.252 194.812 235.99 199.56 235.33 199.096C233.251 196.923 233.209 193.322 231.689 190.922C230.411 188.896 228.028 187.179 227.904 184.431C227.803 182.153 232.825 180.898 234.701 179.894C236.588 182.766 238.72 185.481 240.752 188.258C242.141 190.16 242.687 192.081 244.983 193.485L244.986 193.488Z" fill="#C10000"/>
<path d="M146.496 220.261C146.24 221.904 149.957 228.309 149.342 229.419C148.015 231.82 141.584 232.56 139.009 232.007C138.519 231.462 140.041 224.985 139.762 223.762C139.331 221.851 137.875 221.654 137.997 218.522C138.262 211.702 146.609 210.444 147.38 217.02C147.633 219.17 146.657 219.246 146.499 220.259L146.496 220.261Z" fill="#C10000"/>
<path d="M193.047 166.999L193.326 167.728L192.874 168.111C191.946 166.926 191.984 168.998 190.417 168.681C188.849 168.364 188.838 167.031 187.992 166.338C184.343 163.351 178.185 161.042 177.085 156.218C179.31 155.757 181.038 152.75 182.433 152.099C185.024 150.889 185.878 154.796 186.558 155.519C187.171 156.171 188.861 156.532 189.617 157.272C190.257 157.9 190.46 158.955 190.847 159.278C191.063 159.457 191.804 158.946 192.622 159.32C193.165 159.57 195.876 161.688 196.185 162.132C197.978 164.731 193.09 166.568 193.047 166.999Z" fill="#C10000"/>
<path d="M249.631 163.716L241.039 170.979C236.919 166.38 241.034 160.038 240.376 154.715L246.83 150.848L248.144 151.196C249.878 155.225 248.201 159.689 249.631 163.716Z" fill="#C10000"/>
<path d="M152.435 229.436C151.958 227.938 152.035 226.584 151.592 224.964C150.302 220.211 149.233 220.228 149.332 214.833C149.363 213.246 147.785 213.479 150.365 212.008C151.76 211.215 154.963 209.434 155.868 211.163C156.887 213.118 158.635 218.247 159.326 220.515C159.631 221.519 160.468 224.258 160.283 225.139C159.833 227.271 154.247 228.544 152.433 229.433L152.435 229.436Z" fill="#C10000"/>
<path d="M226.386 156.464C226.333 156.735 227.627 157.948 226.521 159.493C224.448 162.384 221.092 160.424 218.661 159.044C216.668 157.912 213.472 155.794 212.925 153.6C213.206 152.673 214.334 152.856 215.039 152.271C216.878 150.739 216.914 147.524 220.201 147.766C220.55 147.791 226.525 149.838 226.859 150.04C228.645 151.112 229.553 152.84 228.456 154.734C227.776 155.914 226.415 156.327 226.386 156.464Z" fill="#C10000"/>
<path d="M214.277 175.84C214.406 174.685 214.272 172.908 214.271 171.69C214.778 170.923 219.518 172.582 219.429 174.11C220.734 172.571 218.867 168.791 219.579 167.687C220.562 166.163 222.128 165.449 223.407 167.025C223.76 167.463 224.313 171.195 224.289 171.94C224.235 173.606 223.306 174.021 222.922 175.297C222.506 176.677 223.319 181.776 222.772 182.351C219.743 183.064 217.106 185.616 213.836 184.756C212.887 181.766 213.945 178.787 214.272 175.833L214.277 175.84Z" fill="#C10000"/>
<path d="M245.574 147.783C245.434 149.073 239.831 151.952 238.634 151.841C238.123 151.795 237.461 151.142 236.824 150.947C233.072 149.811 228.956 149.53 226.657 145.912C227.473 145.26 229.001 144.582 229.499 143.63C230.25 142.196 229.426 140.206 232.259 140.02C234.397 139.878 234.829 141.632 236.129 142.445C236.667 142.781 237.833 142.547 238.68 142.862C239.947 143.341 240.671 144.293 241.718 144.864C242.764 145.435 245.817 145.557 245.574 147.783Z" fill="#C10000"/>
<path d="M206.957 166.729C206.435 166.709 203.33 165.189 202.888 164.757C199.749 161.685 204.449 156.091 207.077 156.793C207.874 157.007 208.052 157.746 208.463 157.925C209.567 158.402 211.001 157.524 212.406 159.004C212.774 159.393 213.832 161.775 213.926 162.264C214.038 162.848 212.479 163.102 213.097 164.054L215.006 162.905L214.865 161.426C216.355 159.012 219.913 162.698 218.842 164.179C218.694 164.384 216.283 166.674 215.966 166.925C214.072 168.426 212.658 167.667 210.505 167.124C208.06 166.503 209.014 166.804 206.951 166.728L206.957 166.729Z" fill="#C10000"/>
<path d="M192.718 172.689C195.187 168.617 196.691 164.902 201.923 167.301C207.636 169.923 207.857 172.6 202.326 175.792C199.264 177.559 194.727 175.145 192.715 172.691L192.718 172.689Z" fill="#C10000"/>
<path d="M259.465 143.832C259.279 144.869 260.327 145.249 260.46 146.116C260.712 147.749 257.329 154.883 256.229 156.207C250.522 163.082 252.917 148.606 253.432 146.326L259.465 143.832Z" fill="#C10000"/>
<path d="M256.855 140.946C256.631 141.735 252.751 144.243 251.904 144.265C251.467 144.275 244.741 141.138 243.948 140.658C242.888 140.018 241.831 139.395 241.071 138.384C242.746 138.236 244.431 137.754 246.109 137.667C247.332 137.603 251.211 137.581 252.101 137.702C252.296 137.73 255.619 139.018 255.776 139.14C256.37 139.594 256.658 140.259 256.857 140.949L256.855 140.946Z" fill="#C10000"/>
<path d="M163.288 202.858C163.327 203.081 160.245 205.605 159.864 205.827C155.16 208.576 148.992 200.77 155.373 198.44C155.947 198.228 159.012 198.103 159.372 198.508L163.284 202.861L163.288 202.858Z" fill="#C10000"/>
<path d="M145.189 193.759C150.217 194.037 147.619 203.862 142.335 201.587C141.349 201.161 140.125 199.122 140.534 198.069C140.602 197.896 142.252 195.123 142.378 194.993C142.888 194.473 144.496 193.72 145.189 193.759Z" fill="#C10000"/>
<path d="M152.438 197.248C150.167 196.968 150.907 193.037 152.042 191.8C153.387 190.332 156.757 189.832 158.683 189.894C159.091 190.353 157.302 195.54 156.817 196.111C156.467 196.522 153.003 197.322 152.435 197.25L152.438 197.248Z" fill="#C10000"/>
<path d="M151.289 206.508C149.848 212.89 141.933 207.307 144.572 204.699C145.869 203.421 146.552 204.626 147.178 204.668C149.063 204.792 149.901 203.93 151.289 206.508Z" fill="#C10000"/>
<path d="M141.972 211.16C139.018 212.306 134.693 212.784 133.52 208.983C136.634 206.691 140.823 207.093 141.972 211.16Z" fill="#C10000"/>
<path d="M131.416 203.441C131.377 201.203 137.07 197.21 137.671 197.924C137.616 199.625 137.636 202.028 136.263 203.281C135.197 204.255 131.458 205.84 131.414 203.438L131.416 203.441Z" fill="#C10000"/>
<path d="M231.226 154.126C231.894 154.525 232.875 155.836 231.961 156.338C230.803 156.72 228.219 154.388 229.51 153.921C230.051 153.976 230.739 153.838 231.226 154.126Z" fill="#C10000"/>
</svg>
