<svg width="223" height="395" viewBox="0 0 223 395" fill="none" xmlns="http://www.w3.org/2000/svg">
<path d="M159.589 205.927C159.814 204.575 157.782 205.336 157.646 204.578C158.467 203.001 157.573 201.443 157.691 199.991C157.799 198.653 160.896 189.597 161.621 188.919C163.42 187.242 165.55 188.721 166.565 188.673C168.701 188.57 171.394 187.702 173.687 187.719C174.372 187.724 174.87 188.705 175.778 188.189C176.685 187.672 177.26 185.137 178.159 184.149C179.569 182.606 181.567 182.11 181.879 179.404C182.067 177.757 180.989 177.122 180.915 175.634L181.806 167.013C184.444 164.969 188.417 163.093 191.813 163.178C192.495 163.197 193.147 163.982 193.453 163.831C194.991 163.09 197.855 157.543 201.264 160.607C202.4 161.628 205.501 167.702 202.71 168.419C203.07 169.33 204.145 169.081 204.693 169.788C206.126 171.644 203.815 174.648 204.052 176.696C204.271 178.602 206.305 179.52 205.915 182.096C205.706 183.484 204.735 183.971 204.626 184.428C204.518 184.886 205.216 186.064 204.922 187.508C204.588 189.148 200.737 197.878 199.67 198.974C198.932 199.734 197.887 199.818 197.564 200.23C197.271 200.6 197.385 201.667 197.058 202.195C195.46 204.794 192.911 207.312 189.942 208.278C185.667 209.674 186.011 209.913 182.359 211.85C180.378 212.899 173.564 213.939 171.411 213.246C166.911 211.791 168.423 212.345 163.93 212.044C162.66 211.962 158.731 211.075 158.202 209.977C157.174 207.852 159.551 206.137 159.589 205.909L159.589 205.927Z" fill="#C10000"/>
<path d="M29.616 81.4251C27.112 78.4866 26.4606 74.3616 26.259 70.6224C26.2079 69.7051 26.8987 69.1497 26.8167 68.5464C26.6732 67.4864 25.569 66.6117 25.3111 65.8028C24.5103 63.3131 29.6114 56.6236 31.0946 54.1451C31.7289 53.0845 32.0278 51.5743 32.801 50.3215C36.6472 44.1095 42.1045 38.4191 49.1029 35.7461C51.8321 34.7035 56.4815 36.3859 59.4934 36.6142C60.8919 36.7197 62.0986 35.5731 63.665 36.985C67.4412 40.401 61.3244 46.9514 61.0763 50.1741C60.9143 52.2656 63.3944 53.9012 60.5935 56.7817C58.1943 59.2481 56.0895 57.4075 54.3875 58.2244C52.7818 58.9941 49.2949 62.7565 48.7497 64.4785C48.0406 66.7259 47.8682 69.9424 47.3408 71.9092C46.3449 75.6026 44.3568 74.6282 42.189 75.5573C38.2174 77.2571 34.4914 81.1588 29.6186 81.4292L29.616 81.4251Z" fill="#C10000"/>
<path d="M128.456 105.064C127.915 104.836 126.511 105.836 125.028 103.84C122.18 100.008 126.077 98.7279 127.17 96.7475C128.695 93.9823 127.813 91.667 127.919 89.1553C127.96 88.2217 128.988 84.628 129.511 83.8902C132.892 79.1193 136.061 83.3409 139.477 85.1351C140.497 85.6746 141.704 85.1641 143.073 86.4854C143.892 87.2724 145.665 90.7282 145.677 91.7314C145.686 92.4583 140.904 99.8689 140.207 101.257C141.062 103.538 138.935 108.474 137.067 109.738C135.094 111.071 130.201 109.718 129.039 107.783C128.605 107.069 128.991 105.29 128.456 105.064Z" fill="#C10000"/>
<path d="M65.6022 116.412C61.4968 114.11 57.1675 112.16 53.6273 108.964C55.2052 107.297 57.1005 104.796 58.2657 102.851C61.3247 97.7467 59.6846 98.6282 64.8009 94.201C66.0421 93.1299 65.9347 91.2587 68.7472 91.2332C69.4415 91.2264 74.6734 94.5429 75.2292 95.1313C76.5022 96.4714 76.811 99.1518 78.5698 100.572L65.6047 116.417L65.6022 116.412Z" fill="#C10000"/>
<path d="M100.493 164.392C98.4163 163.796 94.6058 157.964 94.8892 155.998C95.2072 153.789 96.8385 154.156 94.1314 151.398C95.4399 150.644 96.6743 149.73 98.0575 149.09C100.473 147.97 102.572 147.827 104.78 146.084C105.836 145.251 106.722 143.191 108.754 142.225C108.97 142.123 112.888 141.336 113.104 141.392C115.364 142.02 116.206 145.035 116.493 147.081C116.536 147.396 115.898 147.766 116.034 148.16C116.665 149.987 118.439 151.619 117.3 154.065C116.16 156.511 114.787 155.334 113.696 156.024C113.114 156.394 112.665 157.956 111.798 158.726C110.77 159.645 106.737 162.853 105.665 163.538C104.822 164.077 101.453 164.673 100.498 164.401L100.493 164.392Z" fill="#C10000"/>
<path d="M105.157 170.348C105.16 170.175 106.95 167.613 107.128 167.465C109.053 165.894 112.112 164.458 113.971 163.143C116.342 161.472 117.815 158.789 121.183 158.529L128.131 167.284C128.149 171.282 121.992 173.853 120.842 176.05C120.549 176.614 121.132 177.294 121.052 177.939C120.722 180.671 117.423 180.896 115.699 182.333C113.188 180.768 105.109 172.824 105.146 170.349L105.157 170.348Z" fill="#C10000"/>
<path d="M150.366 207.564C148.865 204.744 145.624 205.785 143.884 204.444C142.436 203.33 141.235 201.134 139.681 199.856C139.599 198.588 141.791 196.333 142.199 195.143C142.583 194.035 142.201 192.552 142.477 191.323C142.927 189.323 145.299 185.511 146.871 184.245C149.901 181.798 157.366 184.64 158.808 188.223C157.68 191.457 157.277 195.847 155.436 198.736C153.878 201.186 152.424 201.006 151.229 204.775C150.914 205.772 151.559 207.079 150.366 207.564Z" fill="#C10000"/>
<path d="M149.539 120.008C146.165 116.881 138.362 116.13 141.221 110.079C141.882 108.651 144.033 108.294 144.832 107.457C145.369 106.893 145.574 105.695 146.192 104.934C148.643 101.908 151.072 99.2476 152.512 95.5286C154.021 95.0108 162.086 103.792 163.325 105.414L149.539 120.008Z" fill="#C10000"/>
<path d="M86.909 75.5294C85.7205 74.9558 83.9485 72.5499 84.2508 71.2137C84.3958 70.5635 89.5199 62.7982 90.3698 61.5784C91.0702 60.5799 95.1284 54.8298 95.821 54.9605C99.1122 58.8127 102.971 62.2241 105.288 66.8205C102.92 67.6722 102.672 70.0431 101.3 71.676C99.0968 74.2963 96.2499 76.2961 94.3056 79.1566C91.6966 79.9388 90.3226 76.8598 88.7639 75.835C88.0547 75.3681 87.2829 75.7058 86.9065 75.5253L86.909 75.5294Z" fill="#C10000"/>
<path d="M174.321 150.521C175.854 149.874 177.155 148.256 178.384 147.521C180.397 146.318 184.125 145.509 185.747 144.485C186.495 144.014 186.588 143.101 187.292 142.707C189.511 141.469 192.41 141.465 193.513 144.078C193.996 145.221 193.068 146.443 193.506 147.614C194.294 149.737 196.574 151.744 196.908 154.279C191.486 157.875 185.271 160.464 178.795 161.378C178.123 157.368 174.619 154.644 174.321 150.521Z" fill="#C10000"/>
<path d="M151.814 148.196C151.56 148.123 151.422 151.471 148.293 151.752C144.454 152.099 145.426 142.196 148.439 141.004L150.512 129.689C153.098 130.142 155.008 130.613 156.87 132.606C157.985 133.798 161.934 138.603 162.007 139.893C162.054 140.756 160.768 144.768 160.24 145.48C159.671 146.245 158.219 147.053 158.149 147.265C158.079 147.478 158.66 148.398 158.674 148.974C158.745 151.589 158.064 156.448 154.391 155.729C149.605 154.794 153.108 148.569 151.816 148.2L151.814 148.196Z" fill="#C10000"/>
<path d="M55.4176 103.21C54.5621 104.149 50.4472 106.175 49.2372 105.949C47.432 105.613 42.1466 101.057 42.3977 98.9629C42.4265 98.7297 44.3082 95.504 44.5751 95.2512C45.8314 94.046 47.7959 93.9331 48.8292 92.426C49.4055 91.588 49.2867 90.6436 49.8056 89.8234C51.4688 87.2016 57.6214 81.5152 60.6819 84.5193C60.907 84.7405 60.9486 85.4081 61.264 85.7221C62.6346 87.0825 64.7073 88.1589 64.3035 90.5447C63.785 93.6305 60.3402 93.7557 59.1669 94.9105C58.9713 95.1029 56.3224 99.2541 56.2046 99.5186C55.7146 100.611 56.2872 102.257 55.4243 103.212L55.4176 103.21Z" fill="#C10000"/>
<path d="M122.995 184.96C123.071 184.646 121.82 183.895 122.491 182.539C123.43 180.641 125.3 180.392 126.539 179.317C128.854 177.311 130.13 173.322 133.684 172.216L141.399 178.081C141.736 180.142 139.98 181.105 139.334 182.417C137.192 186.777 137.25 186.601 134.277 190.369C133.678 191.13 133.511 192.736 132.792 193.536C129.889 196.762 129.855 194.086 127.712 192.501C126.123 191.324 119.831 188.674 121.06 186.423C121.488 185.641 122.923 185.207 122.99 184.951L122.995 184.96Z" fill="#C10000"/>
<path d="M180.487 123.452C182.482 124.399 181.35 126.437 182.111 127.793C182.941 129.283 185.665 131.611 186.521 133.584C187.067 137.665 184.969 137.212 182.616 138.594C180.483 139.843 172.69 144.923 170.667 144.106C168.302 143.156 167.502 138.842 164.798 137.746C162.739 134.276 174.142 128.596 176.226 127.127C177.145 126.479 179.864 123.398 180.487 123.452Z" fill="#C10000"/>
<path d="M38.6767 96.4336C36.722 94.9903 31.1194 89.0879 32.0565 86.8044C33.5629 83.1192 41.4925 81.6814 44.4767 79.337C46.1654 78.0115 45.5142 75.9648 48.5505 75.5593C51.3429 75.1826 55.3557 80.3176 54.0475 83.1783C53.3284 84.7447 49.7674 87.6548 48.4133 89.1294C47.5412 90.0787 47.2179 91.5582 46.1375 92.4636C43.7725 94.4435 40.735 93.5834 38.6792 96.4378L38.6767 96.4336Z" fill="#C10000"/>
<path d="M168.433 109.208C171.67 112.213 175.243 115.088 177.32 119.092C173.162 120.485 170.63 123.696 167.232 126.342C165.25 127.886 162.683 128.989 160.999 131.101L154.108 125.498C154.244 121.304 158.153 119.932 160.695 117.674C163.658 115.041 164.978 111.151 168.429 109.211L168.433 109.208Z" fill="#C10000"/>
<path d="M79.632 45.3498C79.3365 46.5569 74.1394 51.4875 73.3481 53.7961C73.0821 54.5651 74.0459 56.0133 73.4068 57.7866C70.7588 65.1684 61.1695 61.4746 62.6011 54.0813C62.6725 53.7029 63.8349 50.3401 63.954 50.1713C64.6948 49.1085 65.9517 49.0274 66.7227 47.6681C67.4936 46.3088 67.9658 38.3732 68.7213 37.9148C70.0663 38.4844 72.5601 38.5046 73.7229 39.1109C74.6103 39.5719 75.0278 40.3351 75.7747 40.836C77.2316 41.8146 80.2645 42.7514 79.6278 45.3523L79.632 45.3498Z" fill="#C10000"/>
<path d="M103.956 140.083C101.692 140.161 102.859 140.504 100.983 141.585C99.6703 142.342 97.7796 142.052 96.9826 142.507C96.2295 142.942 95.714 144.282 94.4992 144.957C89.7695 147.588 89.7049 140.199 86.0861 138.653C86.4744 136.85 87.9526 135.72 89.4989 134.89C92.99 133.016 98.7384 132.158 102.271 130.548C103.512 129.983 103.954 128.493 105.882 128.675C107.689 128.845 106.947 130.936 108.65 130.374L109.004 130.995L108.309 131.768C114.171 136.713 109.838 139.876 103.953 140.078L103.956 140.083Z" fill="#C10000"/>
<path d="M159.31 159.923C160.141 154.433 159.708 146.83 164.951 143.632L171.916 154.353C170.663 157.174 170.193 160.367 169.152 163.219C168.651 164.585 166.827 169.786 164.944 168.958C163.061 166.284 159.626 164.694 158.578 161.684C158.523 161.042 159.227 160.461 159.312 159.927L159.31 159.923Z" fill="#C10000"/>
<path d="M73.459 62.917C73.4866 62.6163 74.3618 62.1307 74.5087 61.6895C74.7434 60.9906 74.4598 60.2144 74.6995 59.5238C76.1066 55.4503 79.3972 52.9087 81.5353 49.1697C82.1296 48.1277 82.3879 46.3071 82.6716 45.9135C83.1926 45.1999 83.4032 45.8558 83.6971 46.0126C85.5962 47.0182 91.0059 51.0956 90.8198 53.2131C90.4744 57.1364 81.73 64.8779 80.1865 68.9887C79.8784 69.3233 73.3363 64.2124 73.4548 62.9195L73.459 62.917Z" fill="#C10000"/>
<path d="M132.626 163.069C129.38 162.108 130.151 159.681 129.197 157.67C128.296 155.764 125.462 154.349 127.203 152.577C127.979 151.788 128.85 152.128 129.493 151.784C131.788 150.55 131.937 150.29 134.676 149.656C137.981 148.889 143.975 147.631 144.41 152.569C144.53 153.955 143.284 154.41 143.19 155.115C143.128 155.584 144.435 156.438 144.785 157.577C145.603 160.216 143.923 162.155 141.353 162.805C140.826 162.938 133.052 163.191 132.633 163.07L132.626 163.069Z" fill="#C10000"/>
<path d="M140.953 135.274C141.049 135.011 141.755 132.59 141.167 132.509C140.792 134.298 134.708 134.565 134.392 133.502C135.911 131.24 136.464 119.105 138.447 118.321C142.554 118.482 144.783 122.371 147.934 124.439C147.524 126.88 145.684 129.922 145.618 132.358C145.58 133.784 146.338 134.931 146.107 136.366C145.984 137.127 143.812 141.728 143.29 142.056C140.9 143.545 139.2 141.942 139.295 139.289C139.356 137.64 140.496 136.533 140.957 135.271L140.953 135.274Z" fill="#C10000"/>
<path d="M128.2 127.741C127.926 127.663 124.534 124.497 124.006 123.937C121.347 121.098 120.808 119.778 122.033 115.986C122.341 115.032 123.33 114.267 123.433 113.501C123.566 112.523 122.525 110.843 122.932 109.671C124.621 104.836 133.457 110.395 134.492 114.441C135.314 117.65 133.823 119.628 132.914 122.183C132.142 124.355 131.939 128.783 128.2 127.741Z" fill="#C10000"/>
<path d="M139.676 167.491C144.287 163.541 150.121 165.987 155.521 164.846C158.373 166.597 160.863 168.754 162.166 171.933C160.694 174.757 158.417 173.634 156.271 174.056C154.251 174.452 149.894 174.637 149.38 174.772C147.601 175.256 146.49 177.122 144.079 176.217C140.784 174.98 142.601 172.883 142.172 171.099C141.931 170.104 139.625 167.698 139.678 167.485L139.676 167.491Z" fill="#C10000"/>
<path d="M130.385 141.89C129.341 142.773 131.046 143.607 130.714 144.24C130.562 144.531 128.513 147.023 128.231 147.223C125.887 148.872 124.273 147.279 122.913 147.32C122.421 147.335 121.945 148.169 120.927 148.156C117.882 148.107 113.112 139.15 120.05 137.183C123.137 136.309 124.19 137.624 126.259 137.823C128.85 138.068 131.845 136.501 134.043 138.915C134.491 139.41 136.889 143.56 136.948 144.012C137.241 146.396 132.796 148.354 131.687 145.955C131.207 144.912 132.467 143.216 130.387 141.894L130.385 141.89Z" fill="#C10000"/>
<path d="M109.925 124.865C115.708 121.481 121.204 121.77 124.56 128.115C127.101 132.911 121.248 134.151 117.541 134.452C111.739 134.923 110.988 129.37 109.925 124.865Z" fill="#C10000"/>
<path d="M176.722 181.284C173.825 180.702 173.1 177.468 170.642 176.318C171.953 171.992 170.813 166.567 174.121 163.089C177.738 162.087 179.625 176.269 178.788 178.662C178.326 179.97 176.976 179.915 176.722 181.284Z" fill="#C10000"/>
<path d="M164.77 184.816C163.948 184.668 163.085 185.015 162.294 184.797C161.568 184.601 153.472 181.591 153.646 181.157C154.875 180.252 156.31 179.904 157.749 179.542C158.835 179.264 167.666 177.983 168.164 178.158C169.005 178.448 172.033 182.045 172.295 183.067C172.972 185.689 168.203 185.925 166.474 185.753C165.35 185.64 165.095 184.875 164.77 184.816Z" fill="#C10000"/>
<path d="M86.5371 79.9062L80.5185 83.5578C79.9623 83.8953 76.4801 82.6859 75.8926 82.2417C70.1112 77.9072 77.1471 71.861 82.0888 74.2404C84.2571 75.2872 84.9113 78.1158 86.5371 79.9062Z" fill="#C10000"/>
<path d="M62.5413 84.0842C58.7942 83.1776 56.9105 74.6724 61.9817 74.0829C68.6214 73.3084 68.5801 85.5482 62.5413 84.0842Z" fill="#C10000"/>
<path d="M76.122 93.6072C71.8025 90.9524 67.0797 88.7183 70.4448 82.8834C71.2683 81.7136 76.4115 84.7715 76.6011 85.0654C77.0853 85.8165 77.6965 93.7876 76.122 93.6072Z" fill="#C10000"/>
<path d="M68.6263 72.2209C67.8829 72.0813 66.7962 73.07 65.7785 71.6829C64.6947 70.2053 66.0938 68.4024 67.423 67.6357C71.2215 65.4447 73.6037 67.6394 74.0334 71.5581C71.4634 73.4808 70.9848 72.6639 68.6263 72.2209Z" fill="#C10000"/>
<path d="M54.4271 62.5107C57.1872 58.4397 61.6978 60.6889 64.8861 62.9396C62.2998 67.138 57.0202 66.298 54.4271 62.5107Z" fill="#C10000"/>
<path d="M54.4692 76.6473C52.6969 74.1848 49.5493 72.1137 49.9011 68.6407C50.293 64.7005 55.1866 68.9661 55.9266 70.7942C56.3826 71.9202 55.9838 77.0003 54.4717 76.6514L54.4692 76.6473Z" fill="#C10000"/>
<path d="M149.282 157.125C150.356 159.58 147.17 160.065 145.427 159.169C145.713 157.019 147.753 157.479 149.282 157.125Z" fill="#C10000"/>
<path d="M188.651 366.878C186.679 368.032 187.981 367.275 186.449 368.933C185.546 369.906 177.021 374.12 175.651 374.389C174.543 374.608 173.608 374.02 173.069 374.118C172.439 374.239 171.812 375.495 170.303 375.509C168.551 375.524 167.533 374.216 165.869 374.037C163.321 373.764 159.859 377.3 158.052 372.966C157.478 375.494 152.168 373.14 150.993 372.189C147.509 369.367 152.849 365.791 153.405 364.51C153.532 364.215 152.774 363.64 152.729 363.004C152.516 359.84 154.11 356.058 155.911 353.517L164.249 352.336C165.979 353.206 168.285 353.554 169.842 352.061C170.624 351.314 170.957 350.235 171.751 349.441C172.694 348.497 175.311 347.881 175.565 346.705C174.26 344.25 175.412 341.09 175.462 338.463C175.482 337.435 174.222 335.921 175.342 334.088C175.856 333.245 184.43 329.828 185.719 329.707C187.007 329.587 188.451 330.455 190.031 329.541L191.339 331.266C194.877 327.43 196.661 331.061 197.174 334.75C197.408 336.449 196.855 337.934 197.067 339.121C197.674 342.491 199.539 342.199 198.776 347.635C198.098 352.474 196.471 352.863 195.093 356.382C194.572 357.715 195.032 358.994 194.345 360.606C193.318 363.014 190.902 365.559 188.645 366.886L188.651 366.878Z" fill="#C10000"/>
<path d="M43.3328 217.897C44.2148 217.32 45.1979 216.575 45.9736 216.088C47.3772 215.207 53.3484 211.409 54.3188 211.437C55.7807 211.479 56.7282 212.791 57.9433 212.808C58.5219 212.818 59.0289 212.184 59.8532 212.189C62.4955 212.21 67.9535 212.928 69.9005 214.718C70.3179 219.385 66.5272 223.045 65.0816 226.862C64.5669 228.218 65.2721 228.957 64.14 230.325C62.4001 232.433 60.9063 231.495 59.2397 231.922C58.9492 231.995 54.6296 233.53 54.4012 233.649C53.1273 234.315 49.6741 237.892 49.2902 239.169C48.7704 240.898 50.4608 242.47 48.2864 244.771C45.7039 247.502 44.0103 245.2 41.8317 245.565C38.9478 246.047 34.3637 250.806 30.8272 249.117C28.4723 247.995 29.5194 245.551 29.1969 243.612C28.7168 240.696 27.2333 237.383 28.3395 234.515C31.4785 226.376 36.3613 222.434 43.3265 217.898L43.3328 217.897Z" fill="#C10000"/>
<path d="M100.332 308.596C100.799 310.056 101.431 312.07 100.975 313.598C100.384 315.562 95.1216 318.345 92.9222 317.287C91.5179 318.077 85.21 322.714 84.2448 322.763C82.8354 322.833 79.6556 321.187 78.7258 320.034C77.796 318.882 78.3234 318.189 77.8506 317.249C76.6947 314.966 73.1275 312.303 74.8128 309.299C75.4741 308.119 80.0957 306.373 81.4594 306.257C83.4156 306.094 86.4956 306.737 88.4902 305.177C89.9046 304.069 89.2233 303.037 91.7541 302.622C96.4454 301.85 95.8718 306.181 96.1687 306.344C96.749 306.664 97.8388 306.217 98.5675 306.619C99.155 306.945 99.6017 308.013 100.328 308.593C100.213 308.238 100.29 307.759 100.06 307.185C99.3777 305.482 97.0104 304.277 98.8791 301.972C100.395 300.099 102.293 301.458 103.677 301.155C104.464 300.981 104.949 300.133 105.643 299.879C107.328 299.251 109.594 298.646 111.22 299.557C112.236 300.126 117.137 304.686 117.254 305.521C117.812 309.447 111.403 309.554 108.95 311.277C104.861 311.918 103.443 311.092 100.328 308.593L100.332 308.596Z" fill="#C10000"/>
<path d="M89.8573 259.821C88.4117 258.237 86.0556 258.072 84.6588 256.918C84.1658 256.51 81.7067 253.199 81.3484 252.523C79.5488 249.135 82.0216 248.936 83.3748 247.23C87.2112 242.393 86.3528 243.963 90.9061 240.972C91.8701 240.337 96.5924 236.276 97.2713 236.585L104.085 247.336L89.8637 259.82L89.8573 259.821Z" fill="#C10000"/>
<path d="M140.613 294.423C139.438 294.772 137.22 293.441 136.095 293.232C134.834 292.995 133.503 293.54 131.958 292.863C131.162 292.513 129.271 290.983 129.197 290.213C129.177 290.019 129.797 286.657 129.905 286.342C130.9 283.387 133.778 283.25 133.982 280.314L135.048 280.351C134.745 278.691 136.719 272.881 138.17 272.717C140.643 275.16 141.339 272.046 143.931 273.061C147.856 274.597 152.397 277.911 149.663 282.621C149.071 283.637 146.226 287.543 145.412 288.532C144.725 289.372 143.284 289.852 142.966 290.406C142.456 291.297 143.037 293.703 140.614 294.429L140.613 294.423Z" fill="#C10000"/>
<path d="M162.154 296.183C161.096 296.473 157.235 303.567 154.405 303.441L145.608 297.305C145.56 294.008 148.934 292.052 150.062 289.673C151.07 287.55 151.866 285.867 153.394 283.833C153.9 283.153 155.382 282.663 156.006 281.878C160.681 283.742 164.086 287.458 167.507 290.977C166.917 292.862 165.916 296.061 163.717 296.417C163.169 296.503 162.5 296.088 162.161 296.182L162.154 296.183Z" fill="#C10000"/>
<path d="M177.67 330.128C176.815 330.364 175.443 331.476 174.468 331.202C171.861 330.475 169.008 323.725 169.948 321.258C170.642 319.438 175.09 316.392 177.041 315.87C178.081 315.59 179.463 315.854 180.293 315.576C181.46 315.186 184.097 312.579 185.206 312.946C186.651 315.104 189.081 315.566 190.055 318.126C190.308 318.791 190.058 319.604 190.434 320.354C190.941 321.37 192.396 322.071 192.572 323.406C190.78 323.262 188.098 323.959 186.734 325.129C182.515 328.743 183.21 328.596 177.67 330.128Z" fill="#C10000"/>
<path d="M97.7148 338.702C96.09 337.606 87.6318 330.514 88.0672 328.999C89.6324 328.137 91.1654 327.341 92.6073 326.263C95.4207 324.158 97.6169 322.088 99.7543 319.586C101.032 318.09 102.978 316.505 105.101 317.429C106.764 318.153 106.222 318.964 106.877 319.887C107.405 320.63 110.855 325.179 110.736 325.508L97.7185 338.705L97.7148 338.702Z" fill="#C10000"/>
<path d="M59.4248 286.082C55.0895 284.063 51.5332 280.85 48.0037 277.707C51.9371 272.868 57.731 270.235 62.4713 266.379C63.5924 265.775 66.0901 267.391 66.7048 268.368C67.0806 268.966 66.6445 269.749 67.0439 270.353C67.8886 271.629 70.605 272.719 70.6402 275.009C68.5593 276.877 66.8638 279.299 64.8457 281.196C62.8986 283.028 60.5631 283.812 59.4221 286.086L59.4248 286.082Z" fill="#C10000"/>
<path d="M144.623 368.095C141.987 368.309 140.112 365.818 138.286 365.193C137.049 364.77 133.848 366.415 132.8 363.604C132.708 363.362 133.284 359.984 133.461 359.613C133.815 358.889 134.662 358.595 135.019 357.974C135.822 356.578 136.43 353.264 137.369 351.501C138.05 350.217 139.647 348.77 140.221 347.188C144.047 347.469 146.805 350.397 150.528 350.94C149.929 357.009 147.778 362.914 144.617 368.103L144.623 368.095Z" fill="#C10000"/>
<path d="M136.554 332.224C136.395 332.287 135.582 333.794 134.689 334.425C133.716 335.11 129.963 336.511 128.825 336.084C128.049 335.793 122.192 331.154 121.496 330.326C120.425 329.052 119.724 327.076 120.048 325.406C120.141 325.227 121.721 325.535 122.398 325.398C123.363 325.203 129.977 323.612 130.332 323.413C131.393 322.815 131.286 321.79 133.513 321.145C139.187 319.492 143.676 322.937 137.175 326.278C139.779 327.284 142.445 324.317 144.098 327.782C145.869 331.498 141.195 332.446 138.512 332.647C137.819 332.7 136.72 332.16 136.558 332.226L136.554 332.224Z" fill="#C10000"/>
<path d="M93.8571 232.706C93.8767 233.542 92.0856 237.454 91.411 238.117C90.5566 238.963 88.9941 238.492 87.9963 238.99C87.7552 239.111 83.9877 241.746 83.8125 241.938C82.7154 243.151 83.2132 245.349 80.5402 246.667C77.7823 248.025 76.2573 244.524 74.0051 243.652C72.8269 241.178 73.4476 239.152 75.0776 237.025C76.921 234.616 79.6902 233.633 81.3634 232.135C82.5542 231.07 82.5354 229.338 83.8315 228.069C83.9952 227.908 86.7758 226.229 86.9541 226.186C88.8572 225.736 93.8229 231.194 93.8598 232.702L93.8571 232.706Z" fill="#C10000"/>
<path d="M158.841 308.654C159.503 305.143 163.543 303.711 165.222 301.48C166.142 300.254 166.431 298.288 168.339 297.374C171.428 298.638 170.284 296.538 171.955 295.99C173.753 295.401 176.82 301.187 178.021 302.614C178.726 303.454 179.444 303.595 180.075 304.313C180.03 307.17 176.778 307.363 175.564 308.468C172.27 311.463 172.487 311.183 168.621 313.295C167.471 313.923 166.715 315.467 164.897 315.428L158.848 308.659L158.841 308.654Z" fill="#C10000"/>
<path d="M115.219 354.005C115.144 353.427 117.912 350.764 118.483 349.884C119.748 347.916 124.682 337.051 127.94 338.805C129.528 341.349 132.485 341.93 134.527 344.072L132.697 349.442C131.073 351.027 129.063 357.993 127.768 358.886C127.466 359.097 125.186 359.371 124.878 359.262C124.233 359.029 124.141 358.099 123.681 357.844C123.27 357.615 122.427 357.934 121.769 357.595C120.912 357.155 120.331 355.91 119.371 355.455C118.019 354.814 116.162 355.72 115.218 353.999L115.219 354.005Z" fill="#C10000"/>
<path d="M72.4375 237.726C69.7922 238.778 64.7826 235.366 65.3661 232.451C65.9217 229.672 68.0326 230.232 68.898 228.966C70.1165 227.183 71.1791 222.335 72.4522 220.035C72.923 219.182 74.6811 216.874 75.654 216.876C77.6896 216.872 84.0787 221.109 83.8975 223.105C83.8251 223.891 82.7809 224.596 82.4419 225.484C82.1445 226.262 82.3795 227.15 82.0833 227.957C81.0413 230.799 79.6003 230.554 77.9968 232.148C76.6325 233.502 74.0634 237.094 72.4394 237.738L72.4375 237.726Z" fill="#C10000"/>
<path d="M111.027 351.219C109.352 350.931 101.264 343.926 101.512 343.056C103.047 340.048 106.85 338.672 108.832 336.174C110.507 334.069 111.446 330.909 114.314 329.762C116.692 328.812 119.879 333.673 121.637 335.291C119.29 338.353 117.199 341.616 115.006 344.798C113.503 346.974 111.669 348.263 111.029 351.216L111.027 351.219Z" fill="#C10000"/>
<path d="M46.233 256.701C44.397 257.037 38.9806 263.345 37.5759 263.104C34.5405 262.584 31.3784 256.04 31.0124 253.106C31.409 252.384 38.8385 251.604 40.0319 250.856C41.8983 249.692 41.5695 248.075 44.9349 247.048C52.2635 244.807 56.683 253.191 49.9965 256.439C47.8101 257.503 47.3693 256.496 46.2367 256.703L46.233 256.701Z" fill="#C10000"/>
<path d="M119.909 286.363L119.24 286.928L118.666 286.59C119.58 285.168 117.397 285.975 117.153 284.196C116.91 282.418 118.319 281.913 118.741 280.759C120.559 275.787 120.73 268.405 125.439 265.455C126.749 267.643 130.576 268.364 131.782 269.602C134.023 271.902 130.196 274.251 129.681 275.24C129.216 276.131 129.459 278.055 128.953 279.13C128.524 280.041 127.481 280.647 127.282 281.176C127.171 281.472 127.987 282.068 127.893 283.074C127.829 283.742 126.586 287.399 126.229 287.891C124.136 290.752 120.382 286.25 119.909 286.363Z" fill="#C10000"/>
<path d="M144.308 345.137L133.431 338.713C136.783 332.646 145.028 334.663 150.429 331.998L156.914 337.411L157.031 338.933C153.401 342.261 148.049 342.133 144.308 345.137Z" fill="#C10000"/>
<path d="M38.7022 266.39C40.1143 265.33 41.5779 264.911 43.1313 263.842C47.6935 260.717 47.2798 259.59 53.0373 257.701C54.7301 257.147 53.9001 255.561 56.4134 257.751C57.7697 258.937 60.8424 261.675 59.3432 263.274C57.648 265.077 52.8561 268.826 50.7074 270.396C49.7557 271.091 47.1609 272.991 46.1591 273.12C43.7326 273.432 40.3174 267.98 38.7049 266.386L38.7022 266.39Z" fill="#C10000"/>
<path d="M143.403 317.814C143.095 317.857 142.288 319.678 140.242 319.077C136.411 317.948 137.248 313.665 137.812 310.577C138.275 308.047 139.34 303.875 141.464 302.484C142.549 302.44 142.773 303.703 143.654 304.234C145.958 305.617 149.379 304.467 150.338 308.041C150.441 308.421 150.479 315.512 150.389 315.94C149.912 318.23 148.416 319.831 146.002 319.369C144.5 319.084 143.559 317.794 143.403 317.814Z" fill="#C10000"/>
<path d="M118.385 312.138C119.657 311.849 121.491 311.049 122.782 310.598C123.783 310.852 123.777 316.491 122.123 316.961C124.237 317.776 127.555 314.398 128.989 314.746C130.967 315.224 132.304 316.621 131.105 318.559C130.772 319.096 127.02 321.061 126.221 321.311C124.435 321.87 123.651 321.039 122.156 321.103C120.539 321.172 115.434 323.919 114.623 323.552C112.747 320.604 109.066 318.752 108.769 314.968C111.588 312.855 115.138 312.876 118.39 312.131L118.385 312.138Z" fill="#C10000"/>
<path d="M159.699 334.947C158.28 335.275 153.156 330.399 152.832 329.09C152.692 328.531 153.139 327.588 153.11 326.84C152.928 322.442 151.705 317.975 154.69 314.2C155.683 314.825 156.966 316.193 158.16 316.369C159.957 316.636 161.763 315.027 163.007 317.961C163.949 320.175 162.249 321.282 161.867 322.961C161.71 323.656 162.389 324.804 162.368 325.819C162.329 327.339 161.587 328.459 161.369 329.78C161.15 331.1 162.149 334.382 159.699 334.947Z" fill="#C10000"/>
<path d="M125.338 301.01C125.165 300.449 125.63 296.595 125.924 295.967C128.02 291.504 135.688 294.419 135.915 297.465C135.984 298.388 135.266 298.85 135.228 299.352C135.13 300.699 136.592 301.895 135.542 303.931C135.266 304.465 133.131 306.468 132.648 306.748C132.069 307.082 131.224 305.524 130.443 306.531L132.367 308.13L133.883 307.433C136.992 308.12 134.401 313.256 132.435 312.668C132.163 312.586 128.844 310.877 128.46 310.633C126.169 309.181 126.45 307.4 126.231 304.918C125.985 302.095 126.019 303.219 125.337 301.004L125.338 301.01Z" fill="#C10000"/>
<path d="M113.756 288.118C118.985 289.23 123.479 289.451 122.871 295.885C122.202 302.911 119.447 304.135 114.018 299.451C111.012 296.858 111.894 291.155 113.752 288.115L113.756 288.118Z" fill="#C10000"/>
<path d="M169.023 348.213C167.855 348.4 167.84 349.65 166.97 350.112C165.331 350.983 156.519 350.034 154.708 349.358C145.31 345.848 161.542 343.036 164.149 342.739L169.023 348.213Z" fill="#C10000"/>
<path d="M171.118 344.379C170.199 344.434 166.106 341.247 165.77 340.357C165.597 339.897 166.437 331.607 166.652 330.588C166.94 329.229 167.209 327.878 168 326.698C168.775 328.419 169.91 330.027 170.622 331.774C171.142 333.047 172.599 337.152 172.801 338.14C172.843 338.357 172.706 342.356 172.634 342.567C172.372 343.366 171.775 343.916 171.116 344.383L171.118 344.379Z" fill="#C10000"/>
<path d="M70.8906 268.069C70.6695 268.193 66.8538 265.859 66.4776 265.537C61.8243 261.565 67.8198 252.142 72.6486 258.044C73.0855 258.575 74.3513 261.778 74.0556 262.309L70.8869 268.066L70.8906 268.069Z" fill="#C10000"/>
<path d="M73.8463 245.517C75.4107 250.951 64.0342 251.829 64.4925 245.386C64.5796 244.183 66.2891 242.131 67.557 242.176C67.7656 242.184 71.315 242.908 71.4998 242.993C72.2398 243.342 73.6325 244.768 73.8463 245.517Z" fill="#C10000"/>
<path d="M72.8278 254.493C72.2858 251.981 76.7268 251.313 78.4575 252.059C80.5103 252.942 82.2873 256.33 82.9335 258.394C82.5967 258.997 76.4366 259.017 75.6517 258.715C75.0868 258.495 72.9581 255.118 72.8242 254.49L72.8278 254.493Z" fill="#C10000"/>
<path d="M62.5857 256.697C55.2872 257.529 58.2802 247.074 62.0201 248.908C63.8554 249.81 62.8296 250.98 63.0165 251.659C63.582 253.703 64.8062 254.273 62.5857 256.697Z" fill="#C10000"/>
<path d="M54.2091 248.54C51.9028 245.831 49.7964 241.423 53.3933 238.775C56.9742 241.229 58.0964 245.818 54.2091 248.54Z" fill="#C10000"/>
<path d="M58.4908 234.496C60.8493 233.627 67.1867 238.186 66.6519 239.087C64.8287 239.658 62.2883 240.568 60.4522 239.574C59.0259 238.805 55.9633 235.426 58.4935 234.492L58.4908 234.496Z" fill="#C10000"/>
<path d="M147.67 322.08C147.495 322.937 146.467 324.46 145.597 323.678C144.765 322.591 146.282 318.99 147.254 320.185C147.395 320.779 147.796 321.458 147.67 322.08Z" fill="#C10000"/>
</svg>
