<svg width="260" height="263" viewBox="0 0 260 263" fill="none" xmlns="http://www.w3.org/2000/svg">
<g filter="url(#filter0_n_20_54)">
<path d="M17.7801 16.2489C10.2862 17.4985 9.10662 29.6125 9.45356 35.5133L10.4944 50.6127C11.1883 55.6457 9.45356 66.7531 10.4944 71.439C13.0909 83.129 17.2597 86.8852 21.423 91.7447L17.7801 102.679L17.2597 110.488C18.9944 112.918 17.2597 118.298 17.7801 120.381C18.285 122.401 16.2189 134.092 15.6985 138.083L10.4944 147.455C5.98417 177.653 -2.30767 239.299 0.606615 246.38C3.5209 253.461 29.923 258.355 42.7597 259.917C43.6271 257.141 45.4658 251.587 45.8822 251.587C46.2985 251.587 51.9536 257.141 54.7291 259.917H75.0251V242.215C88.9026 243.603 114.429 243.552 113.015 246.38C111.515 249.38 110.933 259.05 113.015 262L145.181 263C145.875 262.306 149.992 259.917 156.181 259.917C163.181 259.917 167.484 258.876 169.739 262L186.393 259.917C186.739 258.355 187.85 254.503 189.515 251.587C191.18 248.671 197.148 252.802 199.923 255.231L217.097 251.587V244.298C219.178 242.562 223.446 239.716 223.862 242.215C224.278 244.714 228.199 246.033 230.107 246.38L243.637 242.215C243.637 239.785 243.95 234.509 245.199 232.843C246.448 231.177 251.617 233.537 254.046 234.926L259.77 229.199C259.944 223.471 260.186 211.496 259.77 209.413C259.25 206.81 255.607 204.207 254.046 203.686C252.484 203.166 247.28 190.149 243.637 187.546C240.723 185.463 216.497 182.826 204.181 183L179.627 178.174C175.984 176.612 168.907 172.655 169.739 169.323C170.572 165.991 166.964 164.463 165.056 164.116L161.413 158.389C159.852 158.042 155.897 157.556 152.566 158.389C149.235 159.222 145.28 155.612 143.719 153.703C143.025 151.447 140.597 146.934 136.433 146.934C132.27 146.934 126.372 141.034 123.943 138.083V130.794H120.821C120.648 129.232 119.884 125.587 118.219 123.505C116.554 121.422 117.178 116.563 116.658 114.654C117.352 113.439 116.658 111.009 116.658 108.926C116.658 106.844 114.229 100.075 113.015 96.9513L118.219 91.7447V81.3315C117.005 79.2489 114.264 74.8754 113.015 74.0423C111.454 73.001 116.658 63.6291 118.219 60.5052C119.78 57.3812 113.015 51.1333 113.015 48.0094C113.015 45.5102 115.443 41.7615 116.658 40.1995V35.5133L113.015 34.9929L114.576 9.48046C113.188 8.78632 110.101 6.87737 108.852 4.79474C107.603 2.7121 101.739 3.92697 98.9639 4.79474L95.321 1.14993C90.1169 0.282166 79.7087 -0.932704 79.7087 1.14993C79.7087 3.75322 71.3822 7.39783 69.821 9.48046C68.2598 11.5631 46.923 14.1663 42.7597 16.2489C38.5965 18.3315 27.1474 14.6869 17.7801 16.2489Z" fill="#4E0000"/>
</g>
<g filter="url(#filter1_n_20_54)">
<path d="M45.9688 82.7694C45.6789 82.8016 45.2855 82.8453 44.7885 82.9005C44.3376 82.9925 43.8614 83.0454 43.3598 83.0592C42.9043 83.1098 42.4649 83.1167 42.0415 83.0799C41.6642 83.0799 41.3836 83.0062 41.1995 82.859C40.7854 82.5277 40.4932 82.1618 40.323 81.7615C40.1942 81.3566 40.0838 80.9287 39.9917 80.4778C39.9457 80.0636 39.856 79.6334 39.7226 79.1871C39.6352 78.7776 39.4443 78.3795 39.1498 77.993C38.7449 78.1218 38.4964 78.3381 38.4044 78.6418C38.3583 78.9823 38.3123 79.3228 38.2663 79.6633C38.2663 80.0406 38.1765 80.365 37.9971 80.6364C37.8636 80.9447 37.5277 81.1287 36.9894 81.1885C36.1197 81.2851 35.3789 81.2207 34.7669 80.9952C34.201 80.8065 33.6695 80.5511 33.1726 80.229C32.7171 79.9023 32.2409 79.5779 31.7439 79.2558C31.247 78.9337 30.635 78.7082 29.908 78.5793C29.135 78.4137 28.5622 78.1629 28.1895 77.827C27.8168 77.4911 27.5016 77.1068 27.2439 76.6743C27.0323 76.2786 26.7976 75.8645 26.54 75.4319C26.2823 74.9994 25.8613 74.606 25.277 74.2516C24.7294 73.8513 24.4396 73.5062 24.4074 73.2163C24.3936 73.0921 24.3982 72.9448 24.4212 72.7746C24.4442 72.6044 24.4419 72.395 24.4143 72.1465C24.3913 71.9395 24.2855 71.7416 24.0968 71.5529C23.9542 71.4011 23.7793 71.3367 23.5723 71.3597C23.4895 71.3689 23.4526 71.4149 23.4618 71.4977C23.471 71.5805 23.4526 71.6035 23.4066 71.5667C22.8959 71.1204 22.2586 70.2898 21.4949 69.075C20.7725 67.8557 20.0501 66.4476 19.3278 64.851C18.6469 63.2497 18.0188 61.5587 17.4437 59.7779C16.9147 58.034 16.5604 56.3545 16.381 54.7395C16.0682 51.9234 15.8406 49.1189 15.698 46.3259C15.5187 43.5789 15.2703 40.7767 14.9529 37.9193L14.0352 29.6576C14.0214 29.5334 13.8765 29.3608 13.6004 29.14C13.329 28.9605 13.1771 28.7258 13.1449 28.4359C13.0943 27.9804 13.0897 27.373 13.1312 26.6138C13.1772 25.896 13.3061 25.169 13.5178 24.4328C13.7295 23.6966 14.0125 23.0363 14.3668 22.452C14.7671 21.9044 15.2572 21.5985 15.8369 21.5341C16.044 21.5111 16.2119 21.5134 16.3408 21.541C16.511 21.564 16.702 21.5847 16.9136 21.6031C18.1146 21.847 19.0417 22.2681 19.6951 22.8663C20.3899 23.4599 20.9857 24.1064 21.4826 24.8058C22.0256 25.542 22.5685 26.2783 23.1114 27.0145C23.659 27.7921 24.3813 28.4455 25.2786 28.9747C26.1804 29.5453 27.3583 29.9595 28.8123 30.2172C30.2663 30.4749 32.1736 30.4727 34.5341 30.2105C36.6875 29.9713 38.8041 29.5895 40.8839 29.065C42.9683 28.5819 45.0873 28.2208 47.2407 27.9816C51.2208 27.5814 55.1642 27.2273 59.0707 26.9191C62.9818 26.6524 66.9275 26.3189 70.9076 25.9188L80.667 24.8976C81.7023 24.7826 82.8987 24.6078 84.2561 24.3732C85.6181 24.18 86.8995 23.828 88.1005 23.3173C89.3475 22.8434 90.3621 22.1648 91.1443 21.2814C91.9726 20.4348 92.3707 19.3005 92.3385 17.8787C92.3017 17.1701 92.3984 16.3419 92.6285 15.394C92.8586 14.4462 93.1968 13.5282 93.6432 12.6402C94.1355 11.789 94.7015 11.0344 95.3411 10.3764C95.9807 9.71844 96.7147 9.34346 97.5429 9.25146C98.2469 9.17326 98.8497 9.31593 99.3512 9.67945C99.8941 10.0384 100.343 10.4916 100.697 11.0392C101.093 11.5822 101.389 12.178 101.587 12.8268C101.831 13.5124 101.985 14.1451 102.05 14.7249C102.197 16.0501 102.197 17.3706 102.05 18.6866C101.944 19.998 101.967 21.337 102.118 22.7036C102.307 24.4015 102.578 26.0901 102.933 27.7696C103.292 29.4905 103.669 31.1884 104.064 32.8633C104.501 34.5336 104.897 36.2085 105.251 37.888C105.61 39.6089 105.886 41.339 106.079 43.0783C106.24 44.5277 106.339 45.9841 106.376 47.4473C106.454 48.9059 106.532 50.3645 106.611 51.8231C106.307 52.1084 106.086 52.5731 105.948 53.2173C105.81 53.8615 105.697 54.5448 105.61 55.2672C105.527 56.031 105.462 56.7718 105.416 57.4896C105.412 58.2028 105.389 58.7504 105.347 59.1323C105.251 60.1492 105.117 61.0234 104.947 61.755C104.823 62.5234 104.581 63.1791 104.222 63.722C103.909 64.3018 103.463 64.8125 102.883 65.2542C102.308 65.7374 101.542 66.1998 100.585 66.6415C100.465 66.6967 100.299 66.9037 100.088 67.2626C99.8806 67.6629 99.6781 68.1046 99.4802 68.5878C99.2824 69.0709 99.0822 69.5333 98.8797 69.975C98.6773 70.4168 98.5024 70.7296 98.3551 70.9137C97.8766 71.5118 97.1081 72.1422 96.0498 72.8048C95.0375 73.5041 93.9355 74.1506 92.7437 74.7441C91.5519 75.3376 90.3717 75.846 89.2029 76.2693C88.0342 76.6926 87.0771 76.9456 86.3317 77.0284C84.7995 77.1986 83.2419 77.141 81.6591 76.8557C80.0808 76.6118 78.5417 76.3425 77.0417 76.048C76.1398 75.8547 75.2633 75.5119 74.4121 75.0195C73.5654 74.5686 72.6981 74.1199 71.8101 73.6735C70.9634 73.2226 70.103 72.836 69.2288 72.5139C68.3591 72.2332 67.4688 72.1434 66.5577 72.2446C65.2739 72.3872 64.0201 72.799 62.7961 73.48C61.5721 74.1609 60.4609 74.9132 59.4624 75.7368C58.9976 76.0819 58.5582 76.4661 58.1441 76.8894C57.7345 77.3541 57.3227 77.7981 56.9086 78.2214C56.5404 78.6815 56.1263 79.1048 55.6662 79.4913C55.2474 79.8732 54.762 80.2206 54.2098 80.5335C52.9444 81.219 51.5962 81.7251 50.1652 82.0518C48.7756 82.3738 47.3768 82.613 45.9688 82.7694ZM82.6188 66.8134C83.0743 66.7628 83.6058 66.6408 84.2132 66.4476C84.8205 66.2544 85.4256 66.0404 86.0284 65.8058C86.6726 65.5666 87.2961 65.3296 87.8989 65.095C88.5431 64.8557 89.109 64.6671 89.5968 64.5291C90.2042 64.3358 90.6804 64.0943 91.0255 63.8044C91.412 63.5099 91.7111 63.1833 91.9228 62.8244C92.1759 62.4609 92.4037 62.0583 92.6061 61.6165C92.85 61.1702 93.1353 60.7193 93.462 60.2638C94.2581 59.1273 94.8724 58.0529 95.305 57.0406C95.7375 56.0284 96.0412 54.9885 96.2161 53.921C96.391 52.8535 96.4555 51.7354 96.4095 50.5666C96.405 49.3933 96.3245 48.1026 96.1681 46.6946C96.0669 45.7835 95.9404 44.8334 95.7886 43.8441C95.6414 42.8962 95.4205 42.0403 95.1261 41.2765C95.0249 41.1201 94.9098 41.028 94.781 41.0004C94.6522 40.9728 94.5164 40.8831 94.3738 40.7312C94.2357 40.6208 94.0839 40.3861 93.9183 40.0272C93.7941 39.6637 93.6882 39.0885 93.6008 38.3017C93.4675 37.1008 93.1914 36.1253 92.7727 35.3752C92.3586 34.6666 91.8157 34.1191 91.1439 33.7325C90.5181 33.3828 89.7612 33.1734 88.8732 33.1044C88.0265 33.0307 87.0626 33.033 85.9813 33.1112C84.6101 33.2215 83.1975 33.3365 81.7434 33.4561C80.294 33.6171 78.8377 33.716 77.3745 33.7527C75.9527 33.7849 74.5401 33.7112 73.1367 33.5317C71.7379 33.3936 70.3598 33.0646 69.0024 32.5446C68.6803 34.9281 68.4869 37.3391 68.4224 39.7778C68.3579 42.2165 68.4544 44.5954 68.712 46.9145C68.8914 48.5296 69.1329 50.1377 69.4366 51.739C69.7448 53.3817 70.1313 54.9737 70.5959 56.5152C70.7846 57.0812 71.0974 57.822 71.5345 58.7377C71.9762 59.6948 72.4961 60.6012 73.0943 61.4571C73.697 62.3544 74.3481 63.1205 75.0474 63.7555C75.7514 64.4319 76.4393 64.7748 77.1111 64.784C77.6172 64.8116 78.0912 64.9267 78.5329 65.1291C78.9792 65.373 79.4048 65.6192 79.8097 65.8677C80.2606 66.153 80.707 66.3969 81.1487 66.5994C81.5904 66.8018 82.0804 66.8732 82.6188 66.8134ZM41.3517 73.4723C42.4284 73.3527 43.489 73.0882 44.5335 72.6787C45.5826 72.3106 46.6363 71.984 47.6947 71.6987C48.6747 71.4641 49.4478 71.2525 50.0137 71.0638C50.5843 70.9166 51.0629 70.6958 51.4494 70.4013C51.8819 70.1436 52.2822 69.7847 52.6504 69.3246C53.0185 68.8645 53.4901 68.2042 54.0653 67.3438C54.9534 67.0355 55.4664 66.748 55.6045 66.4811C55.7471 66.2556 55.8047 66.0187 55.7771 65.7702C55.7541 65.5632 55.7081 65.3377 55.6391 65.0938C55.6161 64.8868 55.5931 64.6797 55.5701 64.4726L57.2128 63.4098C57.6637 62.5632 57.9996 61.8132 58.2205 61.1598C58.446 60.5478 58.5473 59.761 58.5243 58.7993C58.5151 57.9619 58.5888 57.1152 58.7453 56.2594C58.9063 55.445 58.9386 54.6029 58.842 53.7333C58.8006 53.3606 58.6234 53.0868 58.3106 52.9119C57.9977 52.7371 57.8343 52.5875 57.8205 52.4633C57.7929 52.2148 57.8021 51.9203 57.8482 51.5798C57.9356 51.2347 58 50.8712 58.0415 50.4893C58.1243 50.1028 58.1841 49.6979 58.221 49.2746C58.3038 48.8881 58.3268 48.5292 58.29 48.1979C58.083 46.3343 57.6736 44.5352 57.0617 42.8005C56.4958 41.1026 55.8861 39.3886 55.2328 37.6585C54.3264 37.4238 53.3371 37.1983 52.265 36.982C51.1975 36.8071 50.1116 36.6552 49.0073 36.5263C47.903 36.3974 46.8033 36.31 45.7081 36.2639C44.6544 36.2133 43.6721 36.2386 42.761 36.3397C42.3055 36.3903 41.9374 36.4732 41.6567 36.5882C41.4174 36.6986 41.2011 36.8274 41.0079 36.9747C40.8146 37.1219 40.6191 37.2484 40.4212 37.3543C40.2233 37.4601 39.9795 37.5291 39.6896 37.5613C38.0331 37.7453 36.3766 37.7406 34.7202 37.5473C33.1097 37.3908 31.4762 37.4046 29.8198 37.5885C28.7431 37.7081 27.7239 37.9681 26.7622 38.3684C25.8005 38.7686 24.9446 39.3668 24.1946 40.1628C24.2866 40.991 24.2083 41.7962 23.9598 42.5785C23.7527 43.3561 23.6952 44.159 23.7872 44.9872C23.8516 45.567 24.0586 46.11 24.4083 46.6161C24.7626 47.1637 24.9581 47.6031 24.9949 47.9344C25.0317 48.2657 24.9144 48.5303 24.6429 48.7281C24.376 48.9674 24.2679 49.3148 24.3185 49.7703L24.3461 50.0188C24.5669 50.12 24.7579 50.3294 24.9189 50.6469C25.1213 50.9598 25.2663 51.321 25.3537 51.7305C25.4871 52.1769 25.5814 52.6485 25.6366 53.1454C25.7332 53.6378 25.8068 54.1117 25.8574 54.5673C25.954 55.4369 26.0069 56.1018 26.0161 56.5619C26.0299 57.0635 26.0713 57.6248 26.1403 58.246C26.7062 59.9439 27.3457 61.5498 28.0589 63.0637C28.6616 64.3382 29.3908 65.6197 30.2466 66.9081C31.107 68.2379 32.0572 69.2434 33.097 69.9244C33.5572 70.2925 34.1254 70.6905 34.8018 71.1185C35.4828 71.5879 36.1776 71.9928 36.8861 72.3333C37.6407 72.7106 38.3861 73.0052 39.1224 73.2168C39.9046 73.4653 40.6477 73.5505 41.3517 73.4723Z" fill="white"/>
</g>
<g filter="url(#filter2_n_20_54)">
<path d="M66.4456 146.445C65.6084 146.523 64.7838 146.52 63.9715 146.435C63.1992 146.346 62.4051 146.239 61.5891 146.115C60.813 145.986 60.0189 145.879 59.2067 145.794C58.3945 145.709 57.5897 145.704 56.7924 145.779C56.4735 145.809 56.1564 145.858 55.8412 145.928C55.5696 146.034 55.2744 146.102 54.9555 146.131C54.1581 146.206 53.3877 146.137 52.644 145.925C51.9041 145.753 51.1785 145.519 50.4672 145.224C49.8394 144.961 49.2029 144.819 48.5576 144.799C47.916 144.819 47.2745 144.839 46.6329 144.858C45.9951 144.918 45.3516 144.918 44.7026 144.858C44.0536 144.798 43.4332 144.615 42.8416 144.308C42.4355 144.265 41.8263 144.202 41.0141 144.117C40.2455 144.068 39.6924 143.959 39.3549 143.789C39.2714 143.757 39.2004 143.643 39.1419 143.447C39.0834 143.252 39.0231 143.036 38.9608 142.801C38.8986 142.565 38.7947 142.314 38.649 142.046C38.5033 141.778 38.3016 141.555 38.0437 141.378C37.8258 141.198 37.5318 141.064 37.1618 140.978C36.7919 140.892 36.4201 140.786 36.0464 140.66C35.6727 140.534 35.3351 140.365 35.0337 140.152C34.7759 139.975 34.6302 139.707 34.5967 139.348C34.5631 138.989 34.5931 138.665 34.6866 138.375C34.82 138.081 34.9334 137.789 35.027 137.498C35.1603 137.204 35.2539 136.914 35.3075 136.628C35.3611 136.341 35.3095 136.004 35.1527 135.617C35.0841 135.744 34.8885 135.802 34.5659 135.792C34.2831 135.778 33.9841 135.806 33.6689 135.876C33.3574 135.986 33.0752 136.193 32.8222 136.498C32.5693 136.803 32.4763 137.315 32.5434 138.032C32.5769 138.391 32.6285 138.728 32.6982 139.043C32.7716 139.398 32.8649 139.751 32.9782 140.103C32.0714 139.866 31.3383 139.552 30.7791 139.162C30.2597 138.768 29.7746 138.311 29.3238 137.79C28.9166 137.305 28.4857 136.783 28.0311 136.222C27.6202 135.697 27.0896 135.184 26.4395 134.682C25.6984 134.067 25.2184 133.449 24.9993 132.826C24.7839 132.243 24.5175 131.544 24.2001 130.729C23.8316 129.798 23.4294 129.152 22.9935 128.791C22.5576 128.429 22.1379 128.026 21.7344 127.582C21.3309 127.137 20.9704 126.507 20.6529 125.692C20.2994 124.921 20.0406 123.658 19.8766 121.904C19.7276 120.309 19.6383 118.709 19.6089 117.103C19.5832 115.538 19.5973 113.968 19.6513 112.395C19.664 111.67 19.7476 111.058 19.9022 110.561C20.0207 110.108 20.1809 109.671 20.3828 109.25C20.5449 108.833 20.7269 108.413 20.9288 107.992C21.1307 107.571 21.3233 107.051 21.5066 106.43C21.5964 106.1 21.7205 105.707 21.8788 105.249C21.9973 104.796 22.1338 104.321 22.2884 103.824C22.4431 103.327 22.6014 102.87 22.7635 102.452C22.9654 102.031 23.1548 101.692 23.3318 101.434C23.5449 101.133 23.7854 100.909 24.0533 100.763C24.3648 100.654 24.6762 100.544 24.9877 100.435C25.339 100.322 25.6486 100.192 25.9165 100.046C26.228 99.9369 26.4703 99.7333 26.6436 99.4356C26.6674 98.8302 26.7131 98.2428 26.7805 97.6735C26.8878 97.1005 27.015 96.5256 27.1622 95.9489C27.5858 95.7484 27.9895 95.5498 28.3732 95.3531C28.8005 95.1925 29.226 95.012 29.6496 94.8116C30.1593 94.2411 30.5712 93.7 30.8853 93.1881C31.2392 92.6724 31.5987 92.2166 31.9638 91.8205C32.329 91.4245 32.7576 91.0627 33.2498 90.7352C33.7855 90.4438 34.4882 90.2173 35.3578 90.0556C36.3831 89.8391 37.3574 89.5068 38.2806 89.0586C39.2437 88.6066 40.185 88.1366 41.1045 87.6485C42.0277 87.2003 42.9728 86.7701 43.9396 86.3581C44.9101 85.9859 45.9137 85.7513 46.9502 85.6544C48.0265 85.5538 49.1433 85.6706 50.3005 86.0048C51.8269 84.6959 53.5339 83.8125 55.4213 83.3546C57.3486 82.893 59.289 82.5709 61.2424 82.3883C61.8802 82.3287 62.4982 82.2709 63.0961 82.215C63.7377 82.1952 64.3575 82.1574 64.9555 82.1015C65.6332 82.0382 66.1365 81.8303 66.4655 81.4778C66.8381 81.1615 67.3034 80.9773 67.8615 80.9251C68.7386 80.8431 69.6068 80.8826 70.4664 81.0435C71.3296 81.2443 72.2035 81.3436 73.088 81.3414C73.1193 80.8157 73.2869 80.4582 73.5909 80.2689L73.8413 80.3662C74.3458 80.6005 74.8048 80.7788 75.2183 80.901C75.6356 81.063 76.0274 81.1672 76.3936 81.2134C76.7599 81.2596 77.146 81.3039 77.5522 81.3464C77.9583 81.3888 78.426 81.4456 78.9554 81.5168C80.6197 81.6829 82.2516 81.9325 83.8511 82.2656C85.4543 82.6385 87.0755 82.9897 88.7148 83.319C90.5971 83.6658 92.2713 84.1528 93.7373 84.7798C95.2034 85.4068 96.609 86.4617 97.954 87.9446C98.5754 88.5701 99.2312 89.1321 99.9212 89.6306C100.611 90.1291 101.406 90.457 102.305 90.6142C102.483 90.7986 102.604 91.0085 102.666 91.244C102.728 91.4795 102.77 91.7168 102.793 91.956L102.837 92.4344C102.863 92.7134 102.908 92.9707 102.97 93.2062C103.076 93.4778 103.239 93.7239 103.461 93.9444C104.075 94.4902 104.522 94.9712 104.802 95.3874C105.086 95.8434 105.265 96.4701 105.34 97.2674C105.392 97.8255 105.383 98.3693 105.312 98.8987C105.28 99.4244 105.231 99.9719 105.163 100.541C105.381 100.722 105.667 100.977 106.019 101.306C106.415 101.671 106.686 101.987 106.832 102.255L106.652 102.272C106.493 102.287 106.335 102.322 106.179 102.376C106.067 102.467 106.021 102.612 106.039 102.812C106.088 103.33 106.254 103.817 106.538 104.273C106.822 104.729 107.028 105.213 107.156 105.723C107.463 106.861 107.87 107.989 108.377 109.108C108.924 110.223 109.253 111.379 109.365 112.574C109.484 113.85 109.531 115.213 109.505 116.663C109.484 118.153 109.319 119.616 109.011 121.052C108.703 122.489 108.206 123.842 107.52 125.113C106.875 126.379 105.968 127.429 104.799 128.262C104.271 128.633 103.862 128.993 103.573 129.342C103.323 129.687 103.094 130.03 102.885 130.371C102.715 130.709 102.526 131.048 102.316 131.39C102.147 131.727 101.88 132.094 101.514 132.49C100.708 133.33 99.8074 134.017 98.8118 134.552C97.8599 135.124 97.0244 135.866 96.3054 136.777C95.4455 137.903 94.3602 138.769 93.0495 139.374C91.7425 140.019 90.3914 140.406 88.9961 140.537C88.5576 140.578 88.1135 140.559 87.6638 140.48C87.2141 140.402 86.75 140.385 86.2717 140.429C85.873 140.467 85.4619 140.586 85.0383 140.786C84.6184 141.026 84.1804 141.288 83.7244 141.572C83.2684 141.856 82.7905 142.122 82.2909 142.37C81.7913 142.618 81.306 142.804 80.8351 142.928C79.7699 143.148 78.7303 143.427 77.7161 143.763C76.7418 144.095 75.7277 144.431 74.6737 144.771C73.3481 145.216 71.9951 145.584 70.6147 145.874C69.2343 146.164 67.8446 146.354 66.4456 146.445ZM65.9531 136.659C68.1856 136.45 70.3795 136.044 72.5348 135.44C74.6939 134.876 76.8529 134.313 79.012 133.749C79.7944 133.515 80.5276 133.185 81.2116 132.759C81.8994 132.373 82.6108 132.025 83.3459 131.715C84.7364 131.103 86.1287 130.51 87.5228 129.937C88.917 129.365 90.3111 128.792 91.7053 128.219C92.5563 127.858 93.2615 127.229 93.8211 126.333C94.4206 125.432 94.8874 124.403 95.2216 123.246C95.5956 122.085 95.8607 120.834 96.0168 119.492C96.2165 118.187 96.3402 116.929 96.3878 115.718C96.4754 114.503 96.4906 113.376 96.4336 112.335C96.4202 111.331 96.3893 110.57 96.3408 110.052L96.4733 110.824L96.352 110.172C96.27 109.295 96.2279 108.414 96.2257 107.529C96.2271 106.685 96.1869 105.824 96.1049 104.947C96.0378 104.229 95.911 103.517 95.7243 102.811C95.5812 102.141 95.2643 101.547 94.7737 101.03C93.6142 99.8111 92.522 98.6665 91.497 97.5962C90.5119 96.522 89.2066 95.6789 87.5811 95.0668C87.0405 94.876 86.6375 94.6523 86.3722 94.3956C86.1468 94.1352 85.9015 93.8766 85.6362 93.6199C85.4145 93.3994 85.1548 93.2025 84.8572 93.0292C84.5595 92.856 84.088 92.7593 83.4427 92.7392C82.268 92.6479 81.0895 92.5168 79.9073 92.3458C78.7687 92.2109 77.6214 92.1976 76.4653 92.3056C75.2295 92.4211 73.9825 92.417 72.7243 92.2934C71.5097 92.2058 70.302 91.9769 69.1012 91.6066C68.7711 91.5168 68.4609 91.4251 68.1707 91.3316C67.8842 91.278 67.5815 91.2661 67.2625 91.2959C66.6646 91.3518 66.1594 91.5397 65.7469 91.8598C65.3744 92.1761 65.0286 92.3492 64.7097 92.379C64.5502 92.3939 64.445 92.3434 64.3939 92.2275C64.3865 92.1478 64.3373 92.0519 64.2464 91.9397C64.1991 91.8637 64.0702 91.7752 63.8597 91.6743C63.6529 91.6132 63.2904 91.6068 62.7721 91.6553C61.616 91.7633 60.44 91.8733 59.244 91.985C58.0518 92.1367 56.887 92.3662 55.7495 92.6736C55.083 92.8565 54.4438 93.1174 53.832 93.456C53.2639 93.8308 52.6409 94.0499 51.9632 94.1133C51.5247 94.1543 51.0769 94.0956 50.6197 93.9372C50.1626 93.7789 49.6948 93.7221 49.2164 93.7668C48.6583 93.819 48.2148 94.0213 47.8858 94.3737C47.5967 94.7225 47.2478 95.0768 46.8391 95.4367C46.5425 95.7057 46.1425 95.9442 45.6392 96.1521C45.1794 96.3961 44.7378 96.6184 44.3141 96.8188C43.8943 97.0591 43.5323 97.2739 43.2283 97.4632C42.9243 97.6525 42.7816 97.8468 42.8002 98.0461C42.8151 98.2055 42.8481 98.3432 42.8991 98.4591C42.99 98.5712 43.043 98.707 43.0579 98.8665C43.1324 99.6638 42.8295 100.295 42.1492 100.761C41.5125 101.263 40.8552 101.545 40.1775 101.609C39.6194 101.661 39.1559 101.865 38.7871 102.221C38.4581 102.574 38.1547 102.984 37.8767 103.453C37.5988 103.921 37.3209 104.389 37.0429 104.858C36.8086 105.362 36.5269 105.79 36.1979 106.143C35.6484 106.717 35.287 107.153 35.1138 107.451C34.9443 107.788 34.8308 108.08 34.7734 108.327C34.7559 108.57 34.7366 108.793 34.7153 108.996C34.6978 109.239 34.5862 109.551 34.3806 109.932C34.1026 110.4 33.7848 110.872 33.4272 111.348C33.1131 111.86 32.8171 112.35 32.5392 112.819C31.7776 114.136 31.368 115.562 31.3103 117.096C31.2962 118.665 31.358 120.188 31.4959 121.663C31.5518 122.261 31.7435 122.806 32.071 123.298C32.3985 123.79 32.7459 124.28 33.1133 124.769C33.5205 125.253 33.8879 125.742 34.2154 126.234C34.5466 126.766 34.742 127.351 34.8016 127.989C34.8501 128.507 34.7808 129.056 34.5937 129.637C36.0747 130.423 37.2729 131.196 38.1884 131.955C39.1038 132.714 39.9918 133.395 40.8525 133.998C41.7131 134.601 42.6841 135.094 43.7653 135.475C44.8465 135.857 46.2934 136.063 48.1059 136.095C48.8708 136.104 49.5871 136.238 50.2548 136.497C50.966 136.793 51.6841 136.947 52.4092 136.959C54.0224 137.01 55.6263 136.96 57.221 136.811C58.8193 136.702 60.4269 136.693 62.0439 136.783C62.6892 136.803 63.3326 136.803 63.9742 136.783C64.6158 136.763 65.2754 136.722 65.9531 136.659Z" fill="white"/>
</g>
<g filter="url(#filter3_n_20_54)">
<path d="M55.9212 212.098C55.1113 212.174 54.3134 212.17 53.5276 212.088C52.7804 212.002 52.012 211.899 51.2226 211.778C50.4718 211.654 49.7035 211.551 48.9177 211.469C48.1319 211.386 47.3533 211.381 46.5819 211.454C46.2734 211.482 45.9666 211.531 45.6617 211.598C45.3989 211.7 45.1133 211.766 44.8047 211.795C44.0333 211.867 43.2879 211.8 42.5684 211.595C41.8526 211.429 41.1506 211.203 40.4624 210.917C39.8551 210.662 39.2392 210.525 38.6149 210.506C37.9942 210.525 37.3735 210.544 36.7528 210.563C36.1357 210.621 35.5132 210.621 34.8853 210.563C34.2574 210.505 33.6572 210.327 33.0848 210.031C32.6919 209.99 32.1025 209.928 31.3167 209.846C30.5731 209.799 30.038 209.693 29.7114 209.529C29.6307 209.498 29.562 209.387 29.5054 209.198C29.4488 209.009 29.3904 208.8 29.3302 208.572C29.27 208.345 29.1695 208.101 29.0285 207.842C28.8876 207.583 28.6924 207.368 28.443 207.196C28.2321 207.022 27.9477 206.893 27.5898 206.809C27.2318 206.726 26.8721 206.623 26.5105 206.502C26.149 206.38 25.8224 206.216 25.5308 206.01C25.2814 205.838 25.1404 205.579 25.108 205.232C25.0755 204.885 25.1046 204.571 25.195 204.29C25.3241 204.006 25.4338 203.723 25.5243 203.442C25.6533 203.158 25.7438 202.877 25.7957 202.6C25.8476 202.323 25.7977 201.997 25.6459 201.622C25.5796 201.745 25.3904 201.801 25.0782 201.792C24.8046 201.778 24.5154 201.805 24.2104 201.873C23.9091 201.979 23.636 202.179 23.3913 202.475C23.1465 202.77 23.0566 203.265 23.1215 203.959C23.1539 204.306 23.2039 204.632 23.2713 204.937C23.3423 205.28 23.4326 205.622 23.5422 205.962C22.6648 205.733 21.9556 205.43 21.4146 205.052C20.9121 204.671 20.4428 204.229 20.0066 203.725C19.6126 203.256 19.1957 202.75 18.756 202.208C18.3584 201.7 17.8451 201.203 17.2161 200.718C16.4991 200.123 16.0347 199.525 15.8227 198.922C15.6144 198.358 15.3566 197.682 15.0495 196.893C14.693 195.993 14.3039 195.368 13.8821 195.018C13.4604 194.669 13.0543 194.279 12.664 193.848C12.2736 193.418 11.9248 192.808 11.6177 192.02C11.2756 191.274 11.0253 190.052 10.8667 188.355C10.7225 186.813 10.6361 185.264 10.6076 183.711C10.5827 182.196 10.5964 180.677 10.6486 179.155C10.6609 178.454 10.7418 177.862 10.8914 177.382C11.006 176.943 11.161 176.52 11.3564 176.113C11.5132 175.709 11.6892 175.303 11.8846 174.896C12.08 174.489 12.2663 173.985 12.4437 173.385C12.5305 173.065 12.6505 172.685 12.8037 172.242C12.9184 171.804 13.0505 171.344 13.2 170.863C13.3496 170.382 13.5028 169.94 13.6596 169.536C13.855 169.129 14.0383 168.801 14.2095 168.551C14.4156 168.259 14.6483 168.043 14.9075 167.902C15.2088 167.796 15.5102 167.69 15.8115 167.584C16.1514 167.475 16.451 167.349 16.7101 167.209C17.0115 167.103 17.2459 166.906 17.4135 166.618C17.4366 166.032 17.4808 165.464 17.546 164.913C17.6498 164.358 17.7729 163.802 17.9153 163.244C18.3251 163.05 18.7157 162.858 19.0869 162.668C19.5004 162.512 19.912 162.338 20.3218 162.144C20.8149 161.592 21.2134 161.068 21.5173 160.573C21.8597 160.074 22.2075 159.633 22.5608 159.25C22.914 158.867 23.3287 158.517 23.8049 158.2C24.3232 157.918 25.003 157.699 25.8443 157.543C26.8363 157.333 27.7789 157.012 28.6721 156.578C29.6039 156.141 30.5146 155.686 31.4042 155.214C32.2974 154.78 33.2117 154.364 34.1471 153.965C35.0861 153.605 36.0569 153.378 37.0597 153.285C38.1011 153.187 39.1816 153.3 40.3012 153.624C41.7779 152.357 43.4294 151.503 45.2554 151.06C47.1201 150.613 48.9973 150.301 50.8872 150.125C51.5043 150.067 52.1021 150.011 52.6806 149.957C53.3013 149.938 53.901 149.901 54.4795 149.847C55.1352 149.786 55.6221 149.585 55.9404 149.244C56.3009 148.938 56.7511 148.759 57.2911 148.709C58.1396 148.63 58.9796 148.668 59.8112 148.824C60.6464 149.018 61.4918 149.114 62.3476 149.112C62.3778 148.603 62.54 148.257 62.8342 148.074L63.0764 148.168C63.5644 148.395 64.0085 148.567 64.4086 148.686C64.8124 148.842 65.1914 148.943 65.5457 148.988C65.9 149.033 66.2736 149.075 66.6665 149.117C67.0594 149.158 67.512 149.213 68.0242 149.281C69.6344 149.442 71.2132 149.684 72.7606 150.006C74.3117 150.367 75.8802 150.706 77.4662 151.025C79.2873 151.361 80.907 151.832 82.3254 152.438C83.7438 153.045 85.1036 154.066 86.4049 155.5C87.0061 156.105 87.6406 156.649 88.3081 157.131C88.9757 157.614 89.7446 157.931 90.6147 158.083C90.787 158.261 90.9033 158.465 90.9635 158.692C91.0237 158.92 91.0646 159.15 91.0862 159.381L91.1295 159.844C91.1547 160.114 91.1974 160.363 91.2576 160.591C91.36 160.853 91.5184 161.092 91.7329 161.305C92.3269 161.833 92.7595 162.298 93.0305 162.701C93.3052 163.142 93.4786 163.748 93.5507 164.52C93.6012 165.06 93.592 165.586 93.5232 166.098C93.4929 166.607 93.4451 167.136 93.3799 167.687C93.5908 167.862 93.8667 168.109 94.2077 168.427C94.5909 168.78 94.8529 169.086 94.9939 169.345L94.8203 169.362C94.666 169.376 94.5136 169.41 94.3629 169.463C94.2544 169.551 94.2091 169.691 94.2272 169.884C94.274 170.385 94.4348 170.857 94.7095 171.298C94.9842 171.739 95.1835 172.207 95.3075 172.701C95.6049 173.801 95.9987 174.893 96.4889 175.975C97.0177 177.054 97.3362 178.172 97.4444 179.329C97.5597 180.563 97.6052 181.882 97.5807 183.285C97.5598 184.726 97.4003 186.142 97.1022 187.531C96.8041 188.921 96.3235 190.23 95.6603 191.459C95.0356 192.685 94.1579 193.701 93.0272 194.507C92.516 194.866 92.1206 195.214 91.8409 195.551C91.5998 195.885 91.3779 196.217 91.1753 196.547C91.0113 196.874 90.828 197.202 90.6255 197.532C90.4615 197.859 90.2028 198.214 89.8496 198.597C89.0696 199.409 88.198 200.074 87.2349 200.592C86.3139 201.145 85.5056 201.863 84.8099 202.745C83.978 203.834 82.928 204.671 81.6599 205.257C80.3954 205.881 79.0882 206.256 77.7383 206.382C77.3141 206.422 76.8844 206.404 76.4493 206.327C76.0143 206.251 75.5653 206.235 75.1025 206.278C74.7168 206.314 74.319 206.429 73.9092 206.623C73.503 206.856 73.0793 207.109 72.6381 207.384C72.1969 207.659 71.7346 207.916 71.2512 208.156C70.7678 208.395 70.2984 208.575 69.8427 208.696C68.8122 208.909 67.8063 209.178 66.8252 209.503C65.8826 209.825 64.9014 210.15 63.8817 210.478C62.5992 210.91 61.2902 211.265 59.9547 211.546C58.6192 211.826 57.2747 212.01 55.9212 212.098ZM55.4447 202.63C57.6046 202.428 59.7271 202.035 61.8124 201.451C63.9012 200.906 65.9901 200.36 68.0789 199.815C68.8359 199.589 69.5452 199.269 70.207 198.857C70.8724 198.484 71.5607 198.147 72.2719 197.847C73.6171 197.255 74.9641 196.681 76.313 196.127C77.6618 195.573 79.0106 195.019 80.3594 194.465C81.1827 194.116 81.8651 193.508 82.4064 192.64C82.9864 191.769 83.4381 190.773 83.7614 189.654C84.1233 188.531 84.3797 187.32 84.5307 186.022C84.7239 184.759 84.8436 183.542 84.8897 182.37C84.9744 181.195 84.9891 180.104 84.934 179.098C84.921 178.126 84.8911 177.39 84.8442 176.889L84.9724 177.635L84.855 177.004C84.7757 176.156 84.735 175.304 84.7328 174.448C84.7342 173.631 84.6953 172.798 84.616 171.949C84.5511 171.255 84.4283 170.566 84.2477 169.883C84.1093 169.235 83.8027 168.66 83.328 168.16C82.2063 166.981 81.1496 165.873 80.1579 164.838C79.2049 163.799 77.942 162.983 76.3693 162.391C75.8463 162.206 75.4565 161.99 75.1998 161.741C74.9817 161.49 74.7444 161.239 74.4877 160.991C74.2732 160.778 74.022 160.587 73.734 160.42C73.446 160.252 72.9898 160.158 72.3655 160.139C71.229 160.051 70.0889 159.924 68.9451 159.758C67.8436 159.628 66.7335 159.615 65.615 159.719C64.4194 159.831 63.213 159.827 61.9957 159.708C60.8206 159.623 59.6522 159.401 58.4904 159.043C58.1711 158.956 57.871 158.868 57.5902 158.777C57.313 158.725 57.0201 158.714 56.7116 158.743C56.133 158.797 55.6443 158.978 55.2452 159.288C54.8848 159.594 54.5503 159.762 54.2417 159.79C54.0874 159.805 53.9856 159.756 53.9362 159.644C53.929 159.567 53.8814 159.474 53.7935 159.365C53.7477 159.292 53.623 159.206 53.4193 159.109C53.2193 159.049 52.8686 159.043 52.3672 159.09C51.2487 159.195 50.1109 159.301 48.9538 159.409C47.8004 159.556 46.6734 159.778 45.5729 160.075C44.9281 160.252 44.3097 160.505 43.7178 160.832C43.1681 161.195 42.5655 161.407 41.9098 161.468C41.4855 161.508 41.0523 161.451 40.61 161.298C40.1677 161.145 39.7151 161.09 39.2523 161.133C38.7123 161.184 38.2832 161.379 37.9649 161.72C37.6852 162.058 37.3477 162.4 36.9523 162.749C36.6653 163.009 36.2784 163.24 35.7914 163.441C35.3466 163.677 34.9193 163.892 34.5095 164.086C34.1032 164.318 33.753 164.526 33.4589 164.709C33.1648 164.892 33.0267 165.08 33.0448 165.273C33.0592 165.427 33.0911 165.561 33.1405 165.673C33.2284 165.781 33.2796 165.913 33.294 166.067C33.3661 166.838 33.0731 167.449 32.4149 167.9C31.7989 168.385 31.163 168.659 30.5074 168.72C29.9674 168.771 29.519 168.968 29.1621 169.313C28.8439 169.654 28.5503 170.051 28.2814 170.504C28.0125 170.957 27.7436 171.41 27.4747 171.863C27.248 172.351 26.9755 172.766 26.6572 173.107C26.1255 173.662 25.7759 174.084 25.6083 174.372C25.4443 174.699 25.3345 174.981 25.279 175.22C25.2621 175.455 25.2433 175.671 25.2228 175.867C25.2058 176.102 25.0979 176.404 24.8989 176.773C24.63 177.226 24.3226 177.682 23.9765 178.143C23.6727 178.638 23.3863 179.112 23.1174 179.565C22.3806 180.84 21.9843 182.22 21.9285 183.703C21.9148 185.222 21.9747 186.695 22.108 188.122C22.1621 188.7 22.3476 189.228 22.6644 189.704C22.9813 190.18 23.3174 190.654 23.6728 191.127C24.0668 191.596 24.4222 192.068 24.7391 192.544C25.0595 193.059 25.2486 193.625 25.3063 194.242C25.3531 194.744 25.2861 195.275 25.1052 195.837C26.538 196.598 27.6972 197.345 28.5829 198.079C29.4685 198.814 30.3277 199.473 31.1604 200.056C31.993 200.64 32.9324 201.116 33.9784 201.485C35.0245 201.854 36.4243 202.054 38.1779 202.085C38.918 202.093 39.6109 202.223 40.2569 202.474C40.945 202.76 41.6398 202.909 42.3412 202.921C43.902 202.97 45.4538 202.922 46.9965 202.778C48.5429 202.672 50.0983 202.663 51.6626 202.75C52.287 202.77 52.9095 202.77 53.5302 202.751C54.1509 202.731 54.7891 202.691 55.4447 202.63Z" fill="white"/>
</g>
<g filter="url(#filter4_n_20_54)">
<path d="M132.226 259.797C130.866 259.875 129.465 259.931 128.022 259.967C126.662 260.045 125.325 260.028 124.012 259.917C123.318 259.863 122.531 259.698 121.65 259.422C120.845 259.141 120.029 258.791 119.203 258.371C118.459 257.994 117.784 257.566 117.178 257.087C116.646 256.604 116.349 256.154 116.286 255.738C116.18 255.043 116.566 254.578 117.444 254.341C118.323 254.104 119.284 253.909 120.328 253.756C121.379 253.649 122.34 253.454 123.211 253.17C124.09 252.933 124.473 252.445 124.36 251.704C124.324 251.473 124.217 251.269 124.037 251.093C123.865 250.962 123.761 250.782 123.726 250.55C123.712 250.458 124.151 250.339 125.044 250.195C125.937 250.05 127.014 249.872 128.278 249.659C129.541 249.447 130.801 249.211 132.057 248.953C133.39 248.69 134.491 248.417 135.363 248.133C136.735 247.635 138.141 247.111 139.582 246.561C141.105 246.054 142.736 245.751 144.474 245.651C145.683 245.582 146.724 245.663 147.598 245.893C148.547 246.118 149.424 246.372 150.229 246.652C151.034 246.933 151.836 247.19 152.634 247.425C153.432 247.659 154.36 247.746 155.417 247.686C156.929 247.599 158.205 247.223 159.247 246.556C160.289 245.89 161.079 245.074 161.618 244.11C162.239 243.187 162.623 242.208 162.77 241.173C163 240.179 163.058 239.312 162.945 238.572C162.754 237.322 162.302 236.111 161.59 234.938C160.96 233.807 160.213 232.66 159.349 231.495C158.493 230.377 157.598 229.262 156.666 228.148C155.734 227.034 154.915 225.914 154.209 224.787C153.187 225.079 152.112 225.281 150.986 225.392C149.867 225.549 148.74 225.661 147.607 225.726C145.038 225.873 142.458 225.95 139.867 225.959C137.353 225.962 134.811 226.038 132.241 226.185C129.445 226.345 126.664 226.598 123.896 226.943C121.204 227.284 118.512 227.625 115.82 227.965C113.135 228.352 110.409 228.719 107.641 229.064C104.949 229.405 102.243 229.653 99.5226 229.808C96.1976 229.999 92.8954 229.838 89.6159 229.325C88.9901 229.221 88.4884 229.18 88.1104 229.201C87.2793 229.249 86.4657 229.412 85.6699 229.691C84.9497 229.966 84.1572 230.268 83.2928 230.598C82.511 230.969 81.6844 231.296 80.813 231.58C79.9415 231.863 79.0146 232.033 78.0323 232.089C77.1256 232.141 76.2424 232.098 75.3829 231.961C74.5236 231.823 73.6782 231.778 72.8469 231.826C71.6379 231.895 70.4808 232.054 69.3756 232.304C68.2774 232.601 67.1239 232.783 65.9148 232.853C65.2348 232.892 64.8014 232.8 64.6151 232.577C64.4356 232.401 64.3248 232.173 64.2824 231.896C64.2401 231.618 64.1635 231.366 64.0526 231.139C64.0242 230.954 63.8212 230.872 63.4435 230.894C62.3099 230.958 61.2355 231.16 60.22 231.498C59.2871 231.878 58.254 232.101 57.1204 232.166C56.138 232.222 55.1723 232.137 54.2231 231.911C53.3568 231.728 52.4322 231.664 51.4499 231.72C50.4675 231.776 49.6374 232.081 48.9595 232.633C48.2887 233.231 47.4419 233.677 46.4192 233.969C45.17 234.274 43.7247 234.543 42.0835 234.777C40.4493 235.057 38.9119 235.472 37.4713 236.021C36.0378 236.617 34.8697 237.454 33.9671 238.533C33.1401 239.607 32.8786 241.139 33.1823 243.129L33.4895 245.142C33.5743 245.698 33.6011 246.373 33.5702 247.168C33.5461 248.01 33.3639 248.814 33.0236 249.58C32.7657 250.389 32.2601 251.071 31.5066 251.628C30.8357 252.226 29.8959 252.56 28.6867 252.629C27.4777 252.699 26.2853 252.627 25.1096 252.414C23.9337 252.201 22.7413 252.13 21.5323 252.199C21.1543 252.22 20.5946 252.299 19.8532 252.435C19.7472 251.741 19.3873 251.131 18.7737 250.606C18.2426 250.123 17.3927 249.798 16.224 249.632C16.3849 248.689 16.4289 247.729 16.3562 246.753C16.366 245.819 16.3004 244.889 16.1592 243.964C15.799 241.603 15.14 239.284 14.1823 237.004C13.3003 234.721 12.3391 232.418 11.2988 230.097C10.3411 227.818 9.3799 225.516 8.41517 223.19C7.53308 220.907 6.91191 218.585 6.55172 216.225C6.43164 215.438 6.3211 214.464 6.22008 213.303C6.11907 212.142 6.21403 211.016 6.50497 209.925C6.79591 208.835 7.33473 207.871 8.12143 207.032C8.99075 206.235 10.3322 205.785 12.1457 205.681C14.2615 205.56 15.8282 205.587 16.8459 205.762C17.9461 205.98 18.7136 206.262 19.1477 206.611C19.6577 206.955 19.9857 207.357 20.1318 207.815C20.2852 208.32 20.5105 208.797 20.8077 209.247C21.0556 209.373 21.293 209.429 21.5197 209.416C21.8975 209.394 22.1821 209.261 22.3735 209.017C22.6474 208.815 22.8424 208.594 22.9582 208.353C24.2117 209.075 25.1393 209.909 25.741 210.855C26.3497 211.847 26.8074 212.848 27.114 213.857C27.4275 214.913 27.7412 215.969 28.0546 217.024C28.3683 218.08 28.8979 219.053 29.6437 219.944C29.9269 220.302 30.6292 220.658 31.7507 221.014C32.8721 221.37 34.1 221.673 35.434 221.924C36.775 222.22 38.102 222.424 39.4149 222.536C40.7348 222.694 41.7348 222.753 42.4148 222.714L42.6415 222.701C46.2192 222.17 49.7318 221.712 53.1796 221.328C56.6272 220.944 60.1646 220.648 63.7917 220.44C64.094 220.423 64.5957 220.464 65.2971 220.564C66.0739 220.66 66.8578 220.802 67.6487 220.99C68.5082 221.127 69.4916 221.328 70.5989 221.591C71.5246 221.165 72.382 220.789 73.1709 220.464C73.8911 220.189 74.5772 219.94 75.2291 219.716C75.8809 219.492 76.3958 219.369 76.7735 219.347C77.6804 219.295 78.5634 219.338 79.4229 219.476C80.2824 219.613 81.1347 219.704 81.9801 219.749C85.1961 219.845 88.4288 219.8 91.6781 219.614C93.0382 219.536 94.3501 219.391 95.6134 219.179C96.9594 219.009 98.2607 218.794 99.5169 218.535C104.035 217.67 108.749 217.097 113.661 216.816C119.404 216.487 125.144 216.391 130.882 216.53C136.62 216.668 142.361 216.573 148.103 216.244C150.068 216.132 151.547 215.837 152.542 215.36C153.612 214.879 154.357 214.019 154.778 212.781C155.286 211.118 155.633 209.395 155.818 207.61C156.01 205.872 155.976 204.147 155.714 202.435C155.516 201.139 152.096 179.805 151.348 178.401C150.683 177.039 149.691 175.788 148.374 174.65C147.14 173.554 145.556 172.664 143.622 171.981C141.771 171.34 139.599 171.091 137.105 171.234C135.821 171.307 132.733 168.43 130.733 167.917C128.733 167.404 128.299 168.196 127.014 168.27C125.805 168.339 124.722 168.238 123.766 167.966C122.893 167.736 122.04 167.644 121.209 167.692C120.075 167.757 119.046 168.002 118.12 168.429C117.194 168.855 116.164 169.101 115.031 169.166C114.275 169.209 113.426 169.141 112.484 168.962C111.549 168.828 110.57 168.651 109.545 168.43C108.596 168.204 107.646 167.978 106.697 167.752C105.755 167.573 104.896 167.435 104.119 167.34C102.95 167.173 101.922 166.929 101.034 166.606C100.147 166.283 99.6427 165.729 99.5226 164.942C99.4236 164.294 99.6719 163.673 100.267 163.079C100.938 162.48 101.803 162.151 102.86 162.09C103.692 162.043 104.352 162.121 104.84 162.327C105.412 162.574 106.037 162.679 106.717 162.64C107.473 162.596 108.215 162.461 108.942 162.232C109.745 161.999 110.503 161.723 111.216 161.402C112.012 161.123 112.811 160.867 113.615 160.634C114.417 160.402 115.235 160.261 116.066 160.214C117.124 160.153 118.158 160.187 119.168 160.316C120.186 160.491 121.224 160.549 122.282 160.488C124.549 160.358 128.733 158.5 133.233 159C135.361 158.458 137.193 159.617 139.233 159.5C141.273 159.383 142.588 161.957 145.426 162.075C148.264 162.192 151.05 160.901 153.718 161.402C156.393 161.949 158.096 161.673 159.997 162.638C161.98 163.645 163.65 167.613 163.905 169.279C164.081 170.436 164.028 171.583 163.744 172.72C163.543 173.898 163.534 175.089 163.717 176.292C163.922 177.634 167.264 198.949 167.846 200.27C168.429 201.59 168.823 202.921 169.028 204.263C169.169 205.189 169.035 206.06 168.626 206.877C168.3 207.736 168.207 208.628 168.349 209.554C168.434 210.109 168.693 210.561 169.127 210.91C169.644 211.3 169.942 211.75 170.019 212.259C170.104 212.814 169.959 213.36 169.583 213.894C169.29 214.471 169.186 215.037 169.271 215.593C169.348 216.102 169.532 216.558 169.822 216.962C170.12 217.411 170.304 217.868 170.374 218.33C170.48 219.025 170.432 219.704 170.228 220.369C170.032 221.081 169.983 221.761 170.082 222.409L173.064 230.71C173.406 231.951 173.748 233.192 174.09 234.433C174.431 235.674 174.701 236.942 174.899 238.238C175.238 240.459 175.271 242.675 174.999 244.884C174.809 247.136 174.468 249.396 173.976 251.665L173.862 251.671C173.491 253.233 172.372 254.394 170.506 255.155C168.641 255.915 166.437 256.461 163.896 256.793C161.438 257.168 158.883 257.407 156.231 257.512C153.58 257.617 151.316 257.77 149.441 257.971C146.591 258.274 143.706 258.603 140.788 258.957C137.951 259.352 135.098 259.632 132.226 259.797Z" fill="white"/>
</g>
<g filter="url(#filter5_n_20_54)">
<path d="M239.704 216.961C239.914 218.198 240.009 219.421 239.99 220.632C240.002 221.839 240.066 223.066 240.181 224.312C239.931 224.164 239.655 224.056 239.353 223.987C239.08 223.891 238.8 223.858 238.515 223.886C238.167 223.921 237.849 224.039 237.562 224.24C237.274 224.442 237.153 224.676 237.198 224.942C237.248 225.233 237.455 225.41 237.819 225.472C238.216 225.531 238.604 225.542 238.984 225.504C239.3 225.472 239.52 225.438 239.642 225.401C239.692 225.692 239.632 226.006 239.464 226.344C239.324 226.654 239.12 226.97 238.853 227.292C238.618 227.612 238.349 227.922 238.046 228.224C237.771 228.498 237.523 228.744 237.303 228.964C237.137 229.128 236.967 229.355 236.791 229.644C236.614 229.932 236.406 230.224 236.167 230.52C235.955 230.787 235.723 231.032 235.471 231.255C235.215 231.453 234.945 231.566 234.66 231.595C234.343 231.626 234.08 231.591 233.869 231.489C233.655 231.362 233.421 231.312 233.168 231.337C232.819 231.372 232.623 231.539 232.577 231.84C232.559 232.113 232.573 232.383 232.618 232.649L232.693 233.086C232.713 233.207 232.408 233.398 231.776 233.658C231.144 233.918 230.374 234.217 229.466 234.554C228.585 234.864 227.659 235.191 226.687 235.535C225.743 235.851 224.957 236.151 224.33 236.436C223.102 236.977 209.694 240.695 208.41 241.095C207.126 241.494 205.772 241.765 204.347 241.907C203.303 242.011 202.272 242.003 201.253 241.883C200.271 241.784 199.268 241.662 198.246 241.517C197.251 241.345 196.247 241.211 195.232 241.115C194.246 240.992 193.23 240.982 192.186 241.087C191.774 241.128 191.244 241.23 190.596 241.393C189.948 241.556 189.466 241.753 189.151 241.981C189.009 242.094 188.88 242.28 188.763 242.538C188.65 242.82 188.483 242.973 188.261 242.995C188.103 243.011 187.873 242.984 187.572 242.916C187.271 242.847 187.052 242.795 186.918 242.759C186.14 242.541 185.459 242.226 184.874 241.816C184.285 241.382 183.769 240.903 183.326 240.38C182.883 239.857 182.531 239.301 182.27 238.71C182.004 238.095 181.822 237.497 181.723 236.915C181.653 236.503 181.633 236.098 181.662 235.701C181.718 235.276 181.711 234.857 181.641 234.445C181.542 233.863 181.35 233.303 181.066 232.764C180.813 232.222 180.637 231.66 180.538 231.078C180.468 230.666 180.477 230.246 180.565 229.818C180.685 229.387 180.709 228.965 180.639 228.553C180.586 228.238 180.441 227.956 180.206 227.708C179.967 227.436 179.82 227.143 179.767 226.827C179.729 226.609 179.793 226.418 179.959 226.253C180.155 226.086 180.237 225.905 180.204 225.711C180.155 225.42 180.09 225.131 180.008 224.843C179.927 224.555 179.862 224.266 179.813 223.975C179.788 223.829 179.753 223.623 179.707 223.356C179.69 223.062 179.69 222.778 179.708 222.505C179.725 222.232 179.797 221.991 179.922 221.781C180.048 221.571 180.253 221.452 180.538 221.424C181.107 221.367 181.724 221.589 182.389 222.09C183.081 222.563 183.726 223.14 184.325 223.82C184.955 224.497 185.49 225.183 185.93 225.879C186.37 226.575 186.622 227.105 186.683 227.469C186.704 227.59 186.661 227.717 186.555 227.851C186.445 227.961 186.295 228.025 186.105 228.044C186.261 228.201 186.446 228.442 186.662 228.765C186.878 229.089 187.003 229.348 187.036 229.542C187.085 229.833 187.07 230.118 186.988 230.397C186.939 230.674 186.939 230.957 186.988 231.248C187.029 231.491 187.132 231.715 187.296 231.92C187.491 232.123 187.684 232.313 187.875 232.491C188.178 232.757 188.437 232.953 188.651 233.08C188.866 233.206 189.09 233.295 189.324 233.345C189.554 233.372 189.798 233.384 190.055 233.383C190.344 233.379 190.712 233.367 191.159 233.347C191.912 233.987 192.735 234.571 193.63 235.098C194.524 235.625 195.471 236.086 196.472 236.479C197.937 236.579 199.379 236.633 200.796 236.639C202.214 236.646 203.634 236.578 205.059 236.436C206.23 236.319 219.379 232.873 220.2 232.594C221.054 232.312 221.817 231.976 222.492 231.589C223.198 231.197 223.866 230.773 224.496 230.316C225.122 229.834 225.778 229.337 226.464 228.825C226.952 228.48 227.475 228.144 228.031 227.818C228.587 227.491 229.125 227.154 229.645 226.806C230.165 226.458 230.65 226.089 231.098 225.699C231.543 225.285 231.9 224.83 232.17 224.334C232.342 224.021 232.609 223.699 232.971 223.367C233.361 223.007 233.524 222.646 233.463 222.282C233.438 222.136 233.404 222.029 233.359 221.959C233.101 221.196 232.878 220.454 232.691 219.733C232.532 218.984 232.354 218.225 232.159 217.455C231.972 216.734 231.674 216.209 231.264 215.88C230.849 215.527 230.353 215.256 229.773 215.067C229.222 214.851 228.624 214.652 227.982 214.469C227.339 214.287 226.696 214.006 226.052 213.626C225.372 213.225 224.642 213.002 223.862 212.957C223.114 212.908 222.342 212.911 221.546 212.966C220.751 213.021 219.953 213.063 219.154 213.094C218.382 213.097 205.478 216.185 204.747 215.864C204.541 215.786 204.374 215.753 204.248 215.765C203.963 215.794 203.69 215.895 203.43 216.069C203.198 216.216 202.923 216.304 202.606 216.336C202.132 216.383 201.633 216.384 201.11 216.338C200.619 216.288 200.125 216.226 199.63 216.152C199.135 216.078 198.639 216.005 198.144 215.931C197.649 215.857 197.159 215.819 196.676 215.818C196.031 215.809 195.5 215.812 195.085 215.829C194.701 215.843 194.331 215.843 193.974 215.829C193.645 215.788 193.281 215.726 192.88 215.642C192.476 215.535 191.964 215.364 191.345 215.13C189.559 214.47 187.699 214.039 185.766 213.837C185.302 213.193 184.726 212.548 184.036 211.901C183.659 211.766 183.284 211.643 182.911 211.533C182.566 211.395 182.219 211.244 181.869 211.082C181.638 210.858 181.313 210.459 180.893 209.885C180.505 209.307 180.111 208.693 179.711 208.042C179.306 207.367 178.942 206.738 178.617 206.154C178.324 205.567 178.155 205.14 178.109 204.873C178.015 204.315 178.003 203.774 178.075 203.249C178.146 202.724 178.432 202.227 178.932 201.758C179.018 201.7 179.119 201.628 179.233 201.543C179.375 201.43 179.435 201.313 179.415 201.192C179.394 201.07 179.253 200.998 178.992 200.975C178.758 200.924 178.624 200.802 178.591 200.608C178.587 200.584 178.597 200.546 178.62 200.494C178.639 200.418 178.645 200.356 178.637 200.308C178.768 199.752 179.013 199.21 179.374 198.68C179.735 198.151 180.163 197.64 180.658 197.147C181.154 196.653 181.671 196.195 182.211 195.771C182.778 195.32 183.319 194.908 183.835 194.536C184.21 194.277 184.511 193.963 184.738 193.595C184.996 193.224 185.288 192.949 185.611 192.768C185.833 192.746 186.054 192.724 186.276 192.702C186.493 192.656 186.713 192.621 186.934 192.599C187.187 192.574 187.411 192.564 187.605 192.569C187.827 192.547 188.064 192.524 188.317 192.498C188.649 192.367 188.868 192.234 188.974 192.1C189.075 191.942 189.179 191.796 189.285 191.662C189.391 191.528 189.533 191.415 189.711 191.324C189.92 191.229 190.294 191.154 190.832 191.101C191.18 191.066 191.53 191.043 191.882 191.033C192.23 190.998 192.579 190.963 192.927 190.929C194.129 190.809 195.314 190.678 196.481 190.537C197.68 190.393 198.881 190.26 200.083 190.14C200.938 190.055 201.779 189.983 202.606 189.926C203.46 189.84 204.323 189.803 205.194 189.815C205.772 189.807 206.343 189.849 206.905 189.94C207.464 190.008 226.594 190.022 227.196 189.962C227.765 189.905 228.147 189.78 228.339 189.589C228.564 189.394 228.723 189.193 228.816 188.986C228.942 188.776 229.085 188.577 229.246 188.388C229.407 188.2 229.725 188.082 230.199 188.034C230.864 187.968 231.567 188.033 232.309 188.231C233.082 188.425 233.8 188.575 234.462 188.682L234.439 188.832C234.381 189.06 234.375 189.307 234.42 189.574C234.49 189.986 234.64 190.39 234.868 190.786C235.124 191.156 235.38 191.525 235.636 191.894C235.892 192.263 236.132 192.633 236.356 193.005C236.612 193.374 236.777 193.777 236.851 194.214C236.896 194.48 236.908 194.738 236.886 194.987C236.86 195.211 236.869 195.457 236.915 195.724C236.997 196.209 237.184 196.548 237.474 196.741C237.76 196.909 237.918 197.079 237.946 197.248C237.979 197.442 237.897 197.623 237.701 197.791C237.5 197.934 237.422 198.139 237.467 198.406C237.574 199.036 237.729 199.662 237.931 200.283C238.129 200.88 238.282 201.493 238.389 202.124C238.426 202.342 238.466 202.671 238.509 203.111C238.583 203.547 238.594 203.99 238.541 204.439C238.517 204.861 238.404 205.242 238.205 205.582C238.037 205.92 237.731 206.11 237.288 206.155C236.813 206.202 236.332 206.114 235.843 205.892C235.351 205.645 234.939 205.403 234.609 205.164C234.14 204.866 233.777 204.532 233.521 204.163C233.261 203.77 233.031 203.361 232.83 202.937C232.629 202.514 232.415 202.104 232.186 201.707C231.954 201.286 231.649 200.91 231.27 200.578C230.669 200.071 230.084 199.562 229.514 199.052C228.972 198.514 228.43 197.976 227.888 197.438C227.465 197.037 227.113 196.764 226.831 196.619C226.549 196.475 207.711 196.382 207.418 196.362C207.121 196.318 206.782 196.315 206.403 196.353C206.054 196.387 205.605 196.395 205.055 196.376C204.473 196.36 203.884 196.308 203.29 196.22C202.727 196.128 202.15 196.05 201.56 195.985C200.997 195.893 200.423 195.828 199.837 195.787C199.246 195.723 198.666 195.719 198.096 195.776C197.179 195.868 196.263 196.07 195.351 196.383C194.439 196.696 193.536 197.07 192.645 197.504C191.749 197.914 190.873 198.347 190.017 198.802C189.157 199.233 188.32 199.612 187.506 199.94C186.934 201.304 186.773 202.726 187.025 204.205C187.206 205.272 187.513 206.129 187.945 206.776C188.377 207.424 188.903 207.963 189.523 208.394C190.172 208.798 190.875 209.147 191.633 209.442C192.423 209.733 193.248 210.045 194.11 210.378C195.003 210.708 195.857 210.906 196.673 210.973C197.517 211.012 198.413 210.984 199.363 210.89C199.901 210.836 200.421 210.772 200.923 210.697C201.457 210.619 201.993 210.553 202.531 210.499C203.133 210.439 203.713 210.443 204.271 210.511C204.83 210.578 217.53 207.424 218.065 207.543C218.628 207.635 219.189 207.715 219.747 207.782C220.306 207.85 220.87 207.855 221.44 207.798C221.978 207.745 222.48 207.67 222.947 207.574C223.445 207.475 223.947 207.4 224.454 207.349C224.897 207.305 225.307 207.351 225.684 207.486C226.057 207.596 226.436 207.743 226.821 207.927C227.202 208.086 227.581 208.233 227.958 208.368C228.367 208.5 228.795 208.556 229.242 208.536C229.916 208.715 230.476 208.882 230.92 209.034C231.365 209.187 231.764 209.357 232.117 209.544C232.503 209.727 232.865 209.962 233.203 210.249C233.573 210.533 233.987 210.886 234.445 211.309C234.872 211.735 235.399 212.089 236.026 212.372C236.654 212.654 237.183 213.021 237.613 213.471C237.769 213.628 237.883 213.826 237.956 214.066C238.025 214.281 238.109 214.494 238.21 214.706C238.306 214.894 238.432 215.066 238.587 215.223C238.77 215.353 239.022 215.414 239.343 215.407C239.42 215.67 239.481 215.936 239.526 216.202C239.599 216.442 239.658 216.695 239.704 216.961Z" fill="white"/>
</g>
<defs>
<filter id="filter0_n_20_54" x="0" y="0" width="260" height="263" filterUnits="userSpaceOnUse" color-interpolation-filters="sRGB">
<feFlood flood-opacity="0" result="BackgroundImageFix"/>
<feBlend mode="normal" in="SourceGraphic" in2="BackgroundImageFix" result="shape"/>
<feTurbulence type="fractalNoise" baseFrequency="2 2" stitchTiles="stitch" numOctaves="3" result="noise" seed="7859" />
<feColorMatrix in="noise" type="luminanceToAlpha" result="alphaNoise" />
<feComponentTransfer in="alphaNoise" result="coloredNoise1">
<feFuncA type="discrete" tableValues="1 1 1 1 1 1 1 1 1 1 1 1 1 1 1 1 1 1 1 1 1 1 1 1 1 1 1 1 1 1 1 1 1 1 1 1 1 1 1 1 1 1 1 1 1 1 1 1 1 1 1 0 0 0 0 0 0 0 0 0 0 0 0 0 0 0 0 0 0 0 0 0 0 0 0 0 0 0 0 0 0 0 0 0 0 0 0 0 0 0 0 0 0 0 0 0 0 0 0 0 "/>
</feComponentTransfer>
<feComposite operator="in" in2="shape" in="coloredNoise1" result="noise1Clipped" />
<feFlood flood-color="rgba(0, 0, 0, 0.25)" result="color1Flood" />
<feComposite operator="in" in2="noise1Clipped" in="color1Flood" result="color1" />
<feMerge result="effect1_noise_20_54">
<feMergeNode in="shape" />
<feMergeNode in="color1" />
</feMerge>
</filter>
<filter id="filter1_n_20_54" x="12.0685" y="8.72705" width="97.6402" height="77.0439" filterUnits="userSpaceOnUse" color-interpolation-filters="sRGB">
<feFlood flood-opacity="0" result="BackgroundImageFix"/>
<feBlend mode="normal" in="SourceGraphic" in2="BackgroundImageFix" result="shape"/>
<feTurbulence type="fractalNoise" baseFrequency="2 2" stitchTiles="stitch" numOctaves="3" result="noise" seed="5865" />
<feColorMatrix in="noise" type="luminanceToAlpha" result="alphaNoise" />
<feComponentTransfer in="alphaNoise" result="coloredNoise1">
<feFuncA type="discrete" tableValues="1 1 1 1 1 1 1 1 1 1 1 1 1 1 1 1 1 1 1 1 1 1 1 1 1 1 1 1 1 1 1 1 1 1 1 1 1 1 1 1 1 1 1 1 1 1 1 1 1 1 1 0 0 0 0 0 0 0 0 0 0 0 0 0 0 0 0 0 0 0 0 0 0 0 0 0 0 0 0 0 0 0 0 0 0 0 0 0 0 0 0 0 0 0 0 0 0 0 0 0 "/>
</feComponentTransfer>
<feComposite operator="in" in2="shape" in="coloredNoise1" result="noise1Clipped" />
<feFlood flood-color="rgba(0, 0, 0, 0.25)" result="color1Flood" />
<feComposite operator="in" in2="noise1Clipped" in="color1Flood" result="color1" />
<feMerge result="effect1_noise_20_54">
<feMergeNode in="shape" />
<feMergeNode in="color1" />
</feMerge>
</filter>
<filter id="filter2_n_20_54" x="16.4839" y="77.2339" width="95.653" height="73.373" filterUnits="userSpaceOnUse" color-interpolation-filters="sRGB">
<feFlood flood-opacity="0" result="BackgroundImageFix"/>
<feBlend mode="normal" in="SourceGraphic" in2="BackgroundImageFix" result="shape"/>
<feTurbulence type="fractalNoise" baseFrequency="2 2" stitchTiles="stitch" numOctaves="3" result="noise" seed="5865" />
<feColorMatrix in="noise" type="luminanceToAlpha" result="alphaNoise" />
<feComponentTransfer in="alphaNoise" result="coloredNoise1">
<feFuncA type="discrete" tableValues="1 1 1 1 1 1 1 1 1 1 1 1 1 1 1 1 1 1 1 1 1 1 1 1 1 1 1 1 1 1 1 1 1 1 1 1 1 1 1 1 1 1 1 1 1 1 1 1 1 1 1 0 0 0 0 0 0 0 0 0 0 0 0 0 0 0 0 0 0 0 0 0 0 0 0 0 0 0 0 0 0 0 0 0 0 0 0 0 0 0 0 0 0 0 0 0 0 0 0 0 "/>
</feComponentTransfer>
<feComposite operator="in" in2="shape" in="coloredNoise1" result="noise1Clipped" />
<feFlood flood-color="rgba(0, 0, 0, 0.25)" result="color1Flood" />
<feComposite operator="in" in2="noise1Clipped" in="color1Flood" result="color1" />
<feMerge result="effect1_noise_20_54">
<feMergeNode in="shape" />
<feMergeNode in="color1" />
</feMerge>
</filter>
<filter id="filter3_n_20_54" x="7.58423" y="145.138" width="92.5423" height="70.9873" filterUnits="userSpaceOnUse" color-interpolation-filters="sRGB">
<feFlood flood-opacity="0" result="BackgroundImageFix"/>
<feBlend mode="normal" in="SourceGraphic" in2="BackgroundImageFix" result="shape"/>
<feTurbulence type="fractalNoise" baseFrequency="2 2" stitchTiles="stitch" numOctaves="3" result="noise" seed="5865" />
<feColorMatrix in="noise" type="luminanceToAlpha" result="alphaNoise" />
<feComponentTransfer in="alphaNoise" result="coloredNoise1">
<feFuncA type="discrete" tableValues="1 1 1 1 1 1 1 1 1 1 1 1 1 1 1 1 1 1 1 1 1 1 1 1 1 1 1 1 1 1 1 1 1 1 1 1 1 1 1 1 1 1 1 1 1 1 1 1 1 1 1 0 0 0 0 0 0 0 0 0 0 0 0 0 0 0 0 0 0 0 0 0 0 0 0 0 0 0 0 0 0 0 0 0 0 0 0 0 0 0 0 0 0 0 0 0 0 0 0 0 "/>
</feComponentTransfer>
<feComposite operator="in" in2="shape" in="coloredNoise1" result="noise1Clipped" />
<feFlood flood-color="rgba(0, 0, 0, 0.25)" result="color1Flood" />
<feComposite operator="in" in2="noise1Clipped" in="color1Flood" result="color1" />
<feMerge result="effect1_noise_20_54">
<feMergeNode in="shape" />
<feMergeNode in="color1" />
</feMerge>
</filter>
<filter id="filter4_n_20_54" x="6.18103" y="158.854" width="169" height="101.161" filterUnits="userSpaceOnUse" color-interpolation-filters="sRGB">
<feFlood flood-opacity="0" result="BackgroundImageFix"/>
<feBlend mode="normal" in="SourceGraphic" in2="BackgroundImageFix" result="shape"/>
<feTurbulence type="fractalNoise" baseFrequency="2 2" stitchTiles="stitch" numOctaves="3" result="noise" seed="5865" />
<feColorMatrix in="noise" type="luminanceToAlpha" result="alphaNoise" />
<feComponentTransfer in="alphaNoise" result="coloredNoise1">
<feFuncA type="discrete" tableValues="1 1 1 1 1 1 1 1 1 1 1 1 1 1 1 1 1 1 1 1 1 1 1 1 1 1 1 1 1 1 1 1 1 1 1 1 1 1 1 1 1 1 1 1 1 1 1 1 1 1 1 0 0 0 0 0 0 0 0 0 0 0 0 0 0 0 0 0 0 0 0 0 0 0 0 0 0 0 0 0 0 0 0 0 0 0 0 0 0 0 0 0 0 0 0 0 0 0 0 0 "/>
</feComponentTransfer>
<feComposite operator="in" in2="shape" in="coloredNoise1" result="noise1Clipped" />
<feFlood flood-color="rgba(0, 0, 0, 0.25)" result="color1Flood" />
<feComposite operator="in" in2="noise1Clipped" in="color1Flood" result="color1" />
<feMerge result="effect1_noise_20_54">
<feMergeNode in="shape" />
<feMergeNode in="color1" />
</feMerge>
</filter>
<filter id="filter5_n_20_54" x="178.028" y="188.009" width="62.1526" height="54.9897" filterUnits="userSpaceOnUse" color-interpolation-filters="sRGB">
<feFlood flood-opacity="0" result="BackgroundImageFix"/>
<feBlend mode="normal" in="SourceGraphic" in2="BackgroundImageFix" result="shape"/>
<feTurbulence type="fractalNoise" baseFrequency="2 2" stitchTiles="stitch" numOctaves="3" result="noise" seed="5488" />
<feColorMatrix in="noise" type="luminanceToAlpha" result="alphaNoise" />
<feComponentTransfer in="alphaNoise" result="coloredNoise1">
<feFuncA type="discrete" tableValues="1 1 1 1 1 1 1 1 1 1 1 1 1 1 1 1 1 1 1 1 1 1 1 1 1 1 1 1 1 1 1 1 1 1 1 1 1 1 1 1 1 1 1 1 1 1 1 1 1 1 1 0 0 0 0 0 0 0 0 0 0 0 0 0 0 0 0 0 0 0 0 0 0 0 0 0 0 0 0 0 0 0 0 0 0 0 0 0 0 0 0 0 0 0 0 0 0 0 0 0 "/>
</feComponentTransfer>
<feComposite operator="in" in2="shape" in="coloredNoise1" result="noise1Clipped" />
<feFlood flood-color="rgba(0, 0, 0, 0.25)" result="color1Flood" />
<feComposite operator="in" in2="noise1Clipped" in="color1Flood" result="color1" />
<feMerge result="effect1_noise_20_54">
<feMergeNode in="shape" />
<feMergeNode in="color1" />
</feMerge>
</filter>
</defs>
</svg>
