<svg width="689" height="736" viewBox="0 0 689 736" fill="none" xmlns="http://www.w3.org/2000/svg">
<path d="M402.825 381.738C403.344 379.441 399.784 380.547 399.625 379.233C401.188 376.609 399.808 373.847 400.154 371.367C400.472 369.083 406.679 353.85 407.988 352.758C411.241 350.059 414.749 352.807 416.496 352.824C420.169 352.858 424.876 351.635 428.809 351.891C429.982 351.967 430.741 353.699 432.349 352.902C433.957 352.106 435.193 347.813 436.833 346.206C439.404 343.699 442.881 343.043 443.684 338.433C444.168 335.626 442.381 334.43 442.401 331.869L444.78 317.166C449.508 313.92 456.509 311.092 462.328 311.575C463.495 311.673 464.537 313.085 465.076 312.855C467.789 311.737 473.249 302.501 478.796 308.096C480.644 309.958 485.365 320.686 480.506 321.64C481.034 323.239 482.903 322.918 483.774 324.184C486.049 327.511 481.787 332.436 481.992 335.973C482.18 339.264 485.579 341.04 484.655 345.422C484.16 347.782 482.446 348.521 482.215 349.296C481.984 350.07 483.064 352.16 482.418 354.61C481.683 357.389 474.215 371.988 472.276 373.764C470.936 374.994 469.134 375.034 468.539 375.709C468.001 376.316 468.09 378.157 467.477 379.031C464.48 383.332 459.857 387.401 454.669 388.766C447.196 390.738 447.763 391.184 441.307 394.147C437.804 395.751 426.011 396.862 422.386 395.461C414.809 392.521 417.348 393.62 409.67 392.661C407.499 392.396 400.846 390.486 400.045 388.55C398.491 384.803 402.74 382.095 402.828 381.708L402.825 381.738Z" fill="#C10000"/>
<path d="M192.115 155.314C188.109 150.026 187.398 142.885 187.421 136.45C187.424 134.871 188.664 133.986 188.583 132.943C188.441 131.11 186.633 129.5 186.27 128.087C185.142 123.737 194.554 112.763 197.343 108.657C198.535 106.9 199.197 104.338 200.647 102.265C207.859 91.9869 217.783 82.7623 230.054 78.8666C234.839 77.3471 242.65 80.692 247.795 81.3808C250.184 81.6998 252.367 79.8515 254.915 82.4284C261.057 88.6617 249.917 99.2967 249.173 104.801C248.689 108.374 252.782 111.424 247.693 116.09C243.333 120.085 239.904 116.72 236.903 117.953C234.072 119.115 227.719 125.226 226.614 128.127C225.175 131.913 224.562 137.414 223.464 140.737C221.391 146.975 218.076 145.107 214.265 146.487C207.283 149.012 200.506 155.339 192.119 155.322L192.115 155.314Z" fill="#C10000"/>
<path d="M359.361 205.62C358.454 205.176 355.947 206.752 353.599 203.181C349.092 196.326 355.904 194.515 357.974 191.225C360.863 186.631 359.578 182.572 360.007 178.273C360.17 176.675 362.288 170.611 363.259 169.397C369.529 161.545 374.55 169.101 380.235 172.516C381.932 173.542 384.052 172.785 386.271 175.187C387.597 176.618 390.298 182.722 390.221 184.445C390.165 185.692 381.229 197.935 379.896 200.248C381.139 204.245 377.003 212.504 373.673 214.488C370.156 216.582 361.895 213.777 360.091 210.343C359.419 209.075 360.256 206.062 359.361 205.62Z" fill="#C10000"/>
<path d="M250.404 218.891C243.588 214.536 236.353 210.763 230.594 204.931C233.466 202.227 236.964 198.122 239.155 194.9C244.906 186.445 242.006 187.795 251.22 180.704C253.455 178.989 253.456 175.768 258.283 176.002C259.475 176.059 268.125 182.265 269.02 183.329C271.072 185.754 271.337 190.383 274.215 192.993L250.408 218.898L250.404 218.891Z" fill="#C10000"/>
<path d="M305.533 304.65C302.028 303.421 296.066 293.041 296.746 289.695C297.51 285.937 300.272 286.728 295.9 281.728C298.219 280.563 300.427 279.118 302.863 278.155C307.118 276.473 310.734 276.434 314.694 273.662C316.588 272.336 318.31 268.89 321.892 267.433C322.272 267.279 329.072 266.315 329.437 266.433C333.253 267.732 334.399 272.99 334.69 276.528C334.733 277.072 333.602 277.644 333.797 278.334C334.7 281.529 337.582 284.505 335.386 288.589C333.19 292.673 330.95 290.518 329.01 291.595C327.975 292.173 327.05 294.808 325.486 296.044C323.633 297.518 316.397 302.624 314.49 303.693C312.991 304.536 307.152 305.226 305.541 304.664L305.533 304.65Z" fill="#C10000"/>
<path d="M312.947 315.327C312.97 315.032 316.294 310.812 316.613 310.577C320.071 308.07 325.461 305.909 328.781 303.836C333.013 301.202 335.805 296.745 341.609 296.631L352.665 312.337C352.301 319.198 341.484 323.003 339.296 326.657C338.737 327.596 339.67 328.82 339.469 329.919C338.634 334.575 332.951 334.634 329.853 336.93C325.698 333.997 312.621 319.571 312.928 315.328L312.947 315.327Z" fill="#C10000"/>
<path d="M386.84 383.638C384.543 378.652 378.88 380.118 376.028 377.645C373.653 375.59 371.808 371.705 369.269 369.359C369.253 367.176 373.237 363.523 374.054 361.521C374.822 359.659 374.312 357.077 374.907 354.995C375.877 351.609 380.323 345.301 383.144 343.285C388.584 339.387 401.112 344.998 403.231 351.288C400.978 356.725 399.854 364.217 396.409 368.992C393.495 373.041 391.017 372.59 388.596 378.938C387.958 380.618 388.935 382.923 386.84 383.638Z" fill="#C10000"/>
<path d="M394.057 233.338C388.578 227.641 375.264 225.583 380.766 215.484C382.041 213.098 385.767 212.698 387.22 211.341C388.198 210.426 388.667 208.391 389.801 207.147C394.306 202.197 398.735 197.872 401.574 191.634C404.213 190.894 417.183 206.755 419.15 209.66L394.057 233.338Z" fill="#C10000"/>
<path d="M290.992 150.85C289.009 149.749 286.207 145.446 286.857 143.184C287.17 142.083 296.727 129.265 298.306 127.256C299.606 125.612 307.135 116.147 308.311 116.44C313.577 123.374 319.861 129.607 323.383 137.721C319.237 138.949 318.577 142.992 316.063 145.659C312.024 149.937 306.942 153.087 303.324 157.803C298.771 158.888 296.717 153.47 294.144 151.558C292.974 150.687 291.616 151.19 290.988 150.843L290.992 150.85Z" fill="#C10000"/>
<path d="M433.565 288.133C436.259 287.175 438.65 284.527 440.832 283.388C444.403 281.521 450.88 280.502 453.764 278.905C455.094 278.171 455.343 276.612 456.59 276.007C460.519 274.102 465.493 274.38 467.127 278.973C467.844 280.982 466.131 282.987 466.767 285.039C467.91 288.758 471.623 292.427 471.946 296.808C462.289 302.443 451.371 306.272 440.171 307.201C439.413 300.255 433.67 295.236 433.565 288.133Z" fill="#C10000"/>
<path d="M395.18 281.924C394.751 281.774 394.185 287.506 388.788 287.678C382.169 287.894 384.812 271.001 390.099 269.253L394.772 250.045C399.164 251.077 402.394 252.073 405.393 255.677C407.188 257.832 413.489 266.464 413.487 268.685C413.482 270.171 410.88 276.926 409.905 278.096C408.853 279.353 406.282 280.595 406.141 280.953C406 281.31 406.906 282.946 406.874 283.935C406.737 288.429 405.09 296.699 398.859 295.103C390.74 293.027 397.364 282.692 395.184 281.931L395.18 281.924Z" fill="#C10000"/>
<path d="M234.233 195.236C232.673 196.763 225.413 199.831 223.359 199.325C220.295 198.571 211.677 190.233 212.314 186.665C212.387 186.267 215.933 180.918 216.416 180.511C218.69 178.567 222.072 178.567 223.993 176.084C225.065 174.703 224.954 173.071 225.925 171.715C229.037 167.381 240.154 158.232 245.108 163.687C245.473 164.089 245.478 165.239 245.989 165.808C248.206 168.278 251.656 170.329 250.728 174.382C249.534 179.625 243.611 179.5 241.484 181.366C241.13 181.677 236.175 188.538 235.947 188.98C234.999 190.805 235.819 193.686 234.244 195.239L234.233 195.236Z" fill="#C10000"/>
<path d="M342.11 342.156C342.272 341.626 340.2 340.213 341.485 337.954C343.282 334.79 346.516 334.547 348.747 332.825C352.916 329.611 355.5 322.894 361.707 321.347L374.365 332.17C374.739 335.74 371.632 337.219 370.394 339.406C366.289 346.675 366.405 346.378 360.934 352.549C359.83 353.797 359.385 356.536 358.073 357.836C352.773 363.086 352.979 358.49 349.459 355.56C346.85 353.384 336.315 348.216 338.646 344.476C339.458 343.176 341.963 342.574 342.102 342.142L342.11 342.156Z" fill="#C10000"/>
<path d="M446.815 242.299C450.143 244.122 448.001 247.507 449.171 249.908C450.448 252.546 454.893 256.809 456.167 260.279C456.701 267.335 453.146 266.35 448.973 268.489C445.19 270.421 431.32 278.367 427.929 276.766C423.965 274.903 423.019 267.424 418.488 265.276C415.297 259.121 435.421 250.499 439.142 248.185C440.782 247.163 445.751 242.146 446.815 242.299Z" fill="#C10000"/>
<path d="M206.18 181.958C202.968 179.289 193.938 168.61 195.771 164.785C198.719 158.611 212.466 156.926 217.817 153.198C220.845 151.091 219.93 147.515 225.179 147.119C230.007 146.748 236.385 155.954 233.858 160.733C232.47 163.349 226.074 167.99 223.605 170.387C222.015 171.93 221.314 174.436 219.371 175.883C215.119 179.046 209.992 177.271 206.184 181.966L206.18 181.958Z" fill="#C10000"/>
<path d="M427.539 216.674C432.796 222.148 438.642 227.433 441.811 234.507C434.54 236.487 429.879 241.747 423.789 245.951C420.236 248.404 415.722 250.044 412.626 253.5L401.355 243.208C402.001 236.026 408.844 234.057 413.428 230.434C418.771 226.21 421.419 219.666 427.531 216.678L427.539 216.674Z" fill="#C10000"/>
<path d="M281.484 98.3548C280.858 100.397 271.455 108.343 269.87 112.226C269.338 113.519 270.848 116.099 269.577 119.078C264.306 131.482 248.218 124.199 251.403 111.655C251.563 111.013 253.889 105.358 254.11 105.08C255.486 103.33 257.65 103.315 259.107 101.059C260.564 98.8028 262.157 85.2345 263.498 84.5227C265.75 85.6325 270.026 85.9131 271.961 87.068C273.438 87.9465 274.079 89.297 275.311 90.2301C277.714 92.0528 282.825 93.9592 281.477 98.3587L281.484 98.3548Z" fill="#C10000"/>
<path d="M313.871 263.284C309.98 263.195 311.949 263.898 308.623 265.568C306.297 266.737 303.081 266.054 301.669 266.756C300.334 267.427 299.318 269.676 297.167 270.713C288.793 274.761 289.41 262.078 283.355 259.068C284.199 256.013 286.846 254.221 289.581 252.949C295.755 250.078 305.702 249.172 311.922 246.759C314.107 245.911 315.012 243.4 318.302 243.902C321.385 244.373 319.906 247.887 322.884 247.091L323.429 248.19L322.161 249.448C331.73 258.51 323.984 263.509 313.868 263.276L313.871 263.284Z" fill="#C10000"/>
<path d="M406.884 302.783C408.852 293.446 408.859 280.36 418.17 275.39L429.061 294.47C426.634 299.187 425.512 304.619 423.445 309.409C422.451 311.702 418.808 320.446 415.66 318.839C412.693 314.067 406.956 311 405.455 305.733C405.424 304.625 406.69 303.698 406.888 302.79L406.884 302.783Z" fill="#C10000"/>
<path d="M269.16 127.885C269.237 127.372 270.787 126.625 271.082 125.883C271.554 124.707 271.144 123.347 271.623 122.186C274.439 115.336 280.335 111.3 284.373 105.096C285.495 103.367 286.118 100.269 286.643 99.6213C287.608 98.4484 287.904 99.5945 288.393 99.8924C291.552 101.805 300.431 109.334 299.903 112.949C298.923 119.646 283.157 132.065 280.104 138.966C279.542 139.509 268.822 130.095 269.153 127.889L269.16 127.885Z" fill="#C10000"/>
<path d="M360.793 305.548C355.319 303.58 356.88 299.493 355.443 295.948C354.085 292.588 349.362 289.881 352.524 287.013C353.934 285.736 355.394 286.406 356.531 285.878C360.591 283.988 360.872 283.556 365.633 282.738C371.379 281.748 381.788 280.182 382.047 288.696C382.116 291.087 379.933 291.745 379.701 292.945C379.549 293.743 381.708 295.337 382.196 297.325C383.338 301.933 380.265 305.094 375.792 305.957C374.874 306.132 361.512 305.8 360.804 305.552L360.793 305.548Z" fill="#C10000"/>
<path d="M377.821 258.683C378.012 258.241 379.461 254.156 378.46 253.961C377.642 256.992 367.177 256.851 366.74 254.995C369.568 251.265 371.714 230.499 375.194 229.351C382.224 230.031 385.664 236.923 390.867 240.783C389.923 244.93 386.466 249.967 386.112 254.141C385.906 256.583 387.094 258.625 386.556 261.065C386.27 262.359 382.09 270.037 381.162 270.549C376.915 272.869 374.157 269.95 374.58 265.408C374.847 262.584 376.913 260.798 377.828 258.679L377.821 258.683Z" fill="#C10000"/>
<path d="M356.684 244.501C356.221 244.341 350.714 238.573 349.864 237.56C345.582 232.428 344.787 230.111 347.263 223.724C347.885 222.119 349.658 220.904 349.91 219.599C350.235 217.934 348.614 214.95 349.428 212.979C352.803 204.85 367.414 215.259 368.79 222.302C369.885 227.889 367.131 231.136 365.321 235.431C363.782 239.081 362.995 246.658 356.684 244.501Z" fill="#C10000"/>
<path d="M372.452 313.831C380.753 307.509 390.52 312.281 399.899 310.855C404.618 314.141 408.677 318.088 410.6 323.67C407.796 328.369 404 326.218 400.276 326.731C396.772 327.211 389.279 327.098 388.384 327.28C385.283 327.934 383.193 331.027 379.145 329.236C373.614 326.788 376.939 323.371 376.378 320.268C376.064 318.536 372.345 314.181 372.456 313.82L372.452 313.831Z" fill="#C10000"/>
<path d="M359.036 268.991C357.16 270.403 360.002 272.002 359.37 273.055C359.08 273.54 355.319 277.613 354.816 277.928C350.631 280.526 348.019 277.634 345.681 277.571C344.837 277.547 343.938 278.931 342.192 278.809C336.972 278.425 329.672 262.586 341.77 259.897C347.153 258.702 348.83 261.061 352.359 261.606C356.78 262.283 362.074 259.889 365.606 264.248C366.326 265.142 370.031 272.498 370.087 273.28C370.355 277.398 362.536 280.32 360.87 276.094C360.15 274.257 362.478 271.472 359.04 268.999L359.036 268.991Z" fill="#C10000"/>
<path d="M325.613 237.765C335.87 232.529 345.27 233.567 350.402 244.785C354.288 253.263 344.125 254.813 337.735 254.964C327.735 255.199 326.994 245.599 325.613 237.765Z" fill="#C10000"/>
<path d="M434.65 341.149C429.737 339.865 428.813 334.244 424.71 332.03C427.385 324.735 425.965 315.316 431.983 309.676C438.287 308.314 440.125 332.831 438.454 336.854C437.533 339.053 435.221 338.825 434.65 341.149Z" fill="#C10000"/>
<path d="M413.797 346.031C412.4 345.695 410.886 346.206 409.55 345.753C408.324 345.346 394.731 339.383 395.072 338.655C397.269 337.224 399.766 336.768 402.27 336.289C404.161 335.918 419.439 334.592 420.276 334.941C421.69 335.523 426.531 341.993 426.88 343.772C427.782 348.337 419.577 348.272 416.628 347.806C414.71 347.501 414.349 346.163 413.797 346.031Z" fill="#C10000"/>
<path d="M289.923 158.323L279.237 163.994C278.249 164.519 272.394 162.1 271.43 161.28C261.939 153.273 274.606 143.594 282.85 148.164C286.467 150.174 287.31 155.091 289.923 158.323Z" fill="#C10000"/>
<path d="M248.342 163.124C242.002 161.199 239.609 146.421 248.368 145.91C259.836 145.236 258.558 166.232 248.342 163.124Z" fill="#C10000"/>
<path d="M270.702 180.802C263.553 175.821 255.67 171.522 262.019 161.843C263.548 159.918 272.07 165.671 272.366 166.194C273.123 167.531 273.385 181.267 270.702 180.802Z" fill="#C10000"/>
<path d="M259.952 143.371C258.69 143.058 256.728 144.647 255.119 142.167C253.405 139.525 255.983 136.57 258.339 135.385C265.073 132.001 268.943 136.001 269.294 142.767C264.695 145.812 263.954 144.363 259.952 143.371Z" fill="#C10000"/>
<path d="M236.548 125.311C241.685 118.598 249.202 122.902 254.45 127.078C249.599 134.026 240.624 132.064 236.548 125.311Z" fill="#C10000"/>
<path d="M235.226 149.569C232.428 145.169 227.232 141.305 228.178 135.382C229.239 128.66 237.214 136.461 238.304 139.671C238.975 141.647 237.79 150.324 235.23 149.576L235.226 149.569Z" fill="#C10000"/>
<path d="M389.955 296.995C391.557 301.312 386.042 301.83 383.141 300.12C383.844 296.46 387.298 297.451 389.955 296.995Z" fill="#C10000"/>
<path d="M548.47 563.913C545.818 566.74 547.572 564.88 545.877 568.316C544.876 570.335 533.034 581.297 530.935 582.395C529.238 583.285 527.433 582.779 526.602 583.198C525.635 583.699 525.219 586.044 522.771 586.794C519.928 587.662 517.642 586.024 514.847 586.534C510.57 587.317 506.639 594.738 501.612 588.556C501.896 592.946 492.121 591.673 489.752 590.692C482.723 587.778 489.69 579.386 489.977 577.035C490.042 576.494 488.531 575.922 488.153 574.91C486.282 569.863 487.054 562.942 488.76 557.939L501.76 552.002C504.993 552.584 508.913 552.04 510.728 548.86C511.64 547.268 511.663 545.353 512.572 543.678C513.653 541.688 517.615 539.425 517.46 537.389C514.154 534.023 514.508 528.325 513.324 524.026C512.861 522.345 510.081 520.487 511.021 516.966C511.452 515.346 523.757 505.656 525.796 504.84C527.834 504.023 530.602 504.74 532.734 502.492L535.693 504.669C539.601 496.724 544.253 501.772 546.865 507.528C548.065 510.18 547.879 512.862 548.795 514.692C551.407 519.884 554.302 518.51 555.678 527.723C556.905 535.924 554.445 537.341 553.898 543.729C553.692 546.15 555.056 548.011 554.715 550.963C554.204 555.377 551.498 560.681 548.465 563.927L548.47 563.913Z" fill="#C10000"/>
<path d="M240.252 391.48C241.409 390.115 242.65 388.429 243.678 387.263C245.538 385.155 253.424 376.098 255.017 375.677C257.416 375.04 259.59 376.719 261.575 376.162C262.521 375.899 263.041 374.623 264.385 374.234C268.695 372.997 277.922 371.535 281.952 373.511C284.879 380.904 280.474 388.685 279.96 395.593C279.775 398.046 281.279 398.91 280.095 401.68C278.279 405.948 275.397 405.142 272.891 406.64C272.453 406.898 266.164 411.477 265.849 411.781C264.097 413.478 260.201 420.961 260.191 423.224C260.178 426.287 263.686 428.032 261.256 432.822C258.369 438.511 254.505 435.581 251.136 437.225C246.675 439.398 241.508 449.349 234.939 448.304C230.567 447.612 231.094 443.131 229.635 440.132C227.449 435.617 223.44 430.941 223.858 425.742C225.046 410.986 231.093 402.22 240.242 391.485L240.252 391.48Z" fill="#C10000"/>
<path d="M376.686 511.613C378.149 513.763 380.148 516.737 380.142 519.443C380.125 522.923 372.903 529.987 368.815 529.324C366.91 531.285 358.879 541.869 357.332 542.413C355.072 543.207 349.105 542.06 347.037 540.632C344.969 539.204 345.494 537.823 344.271 536.521C341.291 533.364 334.204 530.747 335.499 525.047C336.007 522.809 342.686 517.742 344.849 516.897C347.954 515.689 353.276 515.252 355.77 511.753C357.538 509.268 355.932 507.917 359.85 506.023C367.113 502.508 368.265 509.831 368.826 509.953C369.925 510.195 371.483 508.943 372.862 509.246C373.976 509.494 375.216 511.015 376.678 511.61C376.319 511.088 376.214 510.272 375.563 509.447C373.633 507.005 369.201 506.186 371.131 501.534C372.696 497.755 376.439 499.054 378.545 497.894C379.742 497.231 380.122 495.618 381.13 494.87C383.569 493.037 386.964 490.961 390.049 491.661C391.977 492.097 402.148 497.156 402.74 498.458C405.539 504.578 395.161 507.839 392 511.825C385.656 514.837 382.949 514.176 376.678 511.61L376.686 511.613Z" fill="#C10000"/>
<path d="M336.149 437.291C333.034 435.41 329.12 436.276 326.292 435.071C325.293 434.644 319.697 430.441 318.788 429.514C314.228 424.868 318.156 423.353 319.537 419.926C323.449 410.207 322.808 413.174 328.777 406.114C330.04 404.616 335.768 395.735 337.022 395.911L353.287 410.123L336.159 437.287L336.149 437.291Z" fill="#C10000"/>
<path d="M435.406 469.149C433.661 470.284 429.411 469.187 427.481 469.388C425.314 469.609 423.411 471.137 420.57 470.78C419.108 470.594 415.293 469.016 414.801 467.798C414.675 467.491 414.065 461.722 414.089 461.158C414.286 455.87 418.902 454.261 417.821 449.386L419.573 448.932C418.28 446.377 418.694 435.972 420.975 435.006C426.177 437.79 425.81 432.388 430.516 432.792C437.643 433.401 446.628 436.606 444.447 445.586C443.974 447.525 441.225 455.252 440.377 457.252C439.665 458.95 437.551 460.426 437.3 461.481C436.898 463.176 439.002 466.81 435.411 469.159L435.406 469.149Z" fill="#C10000"/>
<path d="M471.306 461.638C469.723 462.62 466.857 476.023 462.191 477.181L444.922 471.433C443.256 466.093 447.804 461.284 448.494 456.87C449.112 452.929 449.596 449.807 451.102 445.762C451.599 444.412 453.775 442.901 454.411 441.323C462.916 442.104 470.247 446.511 477.509 450.589C477.456 453.941 477.368 459.628 473.961 461.266C473.111 461.67 471.823 461.318 471.316 461.634L471.306 461.638Z" fill="#C10000"/>
<path d="M512.903 509.4C511.624 510.197 509.928 512.668 508.209 512.692C503.617 512.763 495.724 503.154 496.065 498.688C496.318 495.392 502.088 488.293 505.011 486.504C506.569 485.546 508.945 485.311 510.162 484.459C511.872 483.261 514.907 477.75 516.889 477.813C520.28 480.628 524.457 480.21 527.275 483.906C528.007 484.867 527.992 486.31 528.965 487.349C530.279 488.758 532.984 489.198 533.913 491.285C530.928 491.914 526.899 494.341 525.244 496.9C520.12 504.814 521.178 504.24 512.903 509.4Z" fill="#C10000"/>
<path d="M386.927 561.863C383.756 560.861 366.577 553.396 366.555 550.721C368.687 548.563 370.798 546.53 372.625 544.082C376.19 539.302 378.766 534.876 381.039 529.775C382.398 526.724 384.8 523.209 388.701 523.689C391.755 524.067 391.264 525.648 392.774 526.833C393.991 527.789 401.796 533.529 401.761 534.122L386.935 561.866L386.927 561.863Z" fill="#C10000"/>
<path d="M299.278 494.68C291.251 493.483 283.916 489.968 276.66 486.554C280.729 476.785 288.889 469.709 294.745 461.153C296.279 459.63 301.121 461.056 302.592 462.35C303.492 463.142 303.159 464.625 304.1 465.416C306.089 467.086 311.034 467.551 312.195 471.261C309.708 475.302 308.116 480.06 305.745 484.119C303.459 488.037 300.037 490.438 299.275 494.687L299.278 494.68Z" fill="#C10000"/>
<path d="M477.413 587.099C473.227 588.716 468.977 585.565 465.705 585.427C463.488 585.336 459.072 589.554 456.013 585.484C455.747 585.134 455.056 579.361 455.166 578.673C455.393 577.323 456.63 576.437 456.911 575.255C457.547 572.596 456.938 566.911 457.618 563.589C458.108 561.173 460.009 558.049 460.182 555.198C466.543 553.812 472.441 557.249 478.76 556.338C480.708 566.503 480.052 577.147 477.408 587.113L477.413 587.099Z" fill="#C10000"/>
<path d="M447.006 532.614C446.778 532.793 446.182 535.638 445.032 537.095C443.779 538.679 438.347 542.766 436.289 542.618C434.885 542.519 423.121 537.792 421.59 536.779C419.233 535.221 417.141 532.345 416.864 529.471C416.929 529.134 419.649 528.875 420.683 528.325C422.161 527.543 432.156 521.77 432.638 521.274C434.076 519.79 433.409 518.174 436.722 516.052C445.158 510.63 454.123 514.073 445.153 522.64C449.874 523.024 452.784 516.911 457.142 521.754C461.815 526.948 454.665 530.74 450.396 532.361C449.295 532.78 447.245 532.431 447.014 532.617L447.006 532.614Z" fill="#C10000"/>
<path d="M329.598 391.242C330.033 392.594 329.002 399.822 328.224 401.226C327.241 403.013 324.472 403.001 323.088 404.291C322.754 404.604 317.893 410.706 317.7 411.103C316.499 413.605 318.368 416.941 314.653 420.374C310.819 423.912 306.652 418.949 302.567 418.615C299.458 415.158 299.492 411.562 301.12 407.315C302.96 402.508 306.992 399.574 308.993 396.331C310.418 394.024 309.553 391.215 311.051 388.526C311.24 388.185 314.956 384.114 315.225 383.958C318.105 382.309 328.814 388.798 329.601 391.235L329.598 391.242Z" fill="#C10000"/>
<path d="M471.92 483.527C471.306 477.496 477.191 473.22 478.848 468.78C479.755 466.343 479.279 463.004 481.942 460.598C487.579 461.166 484.705 458.301 487.161 456.605C489.802 454.779 497.58 462.719 500.222 464.461C501.772 465.489 503.009 465.372 504.381 466.237C505.685 470.907 500.487 472.788 499.043 475.17C495.124 481.63 495.343 481.071 490.069 486.37C488.5 487.945 488.015 490.821 485.037 491.633L471.934 483.533L471.92 483.527Z" fill="#C10000"/>
<path d="M422.781 578.334C422.381 577.428 425.602 571.763 426.106 570.055C427.217 566.244 430.013 546.188 436.159 547.472C439.969 550.849 445.06 550.369 449.415 552.871L449.024 562.49C447.144 565.851 447.228 578.155 445.552 580.232C445.162 580.721 441.584 582.264 441.03 582.235C439.868 582.166 439.271 580.698 438.4 580.505C437.621 580.33 436.402 581.255 435.169 581.021C433.561 580.717 432.017 578.971 430.235 578.694C427.727 578.301 425.142 580.67 422.776 578.324L422.781 578.334Z" fill="#C10000"/>
<path d="M297.162 409.727C293.364 412.713 283.569 409.575 283.114 404.55C282.68 399.761 286.385 399.655 287.183 397.179C288.307 393.691 287.701 385.289 288.665 380.933C289.02 379.319 290.769 374.716 292.354 374.251C295.664 373.265 308.101 377.082 308.768 380.417C309.028 381.73 307.669 383.382 307.545 384.99C307.436 386.398 308.246 387.731 308.153 389.186C307.826 394.313 305.363 394.607 303.522 397.974C301.954 400.834 299.503 407.916 297.171 409.747L297.162 409.727Z" fill="#C10000"/>
<path d="M414.618 575.819C411.755 576.157 395.219 568.654 395.203 567.118C396.253 561.485 401.777 557.414 403.8 552.395C405.513 548.163 405.518 542.568 409.631 539.321C413.045 536.629 420.571 543.004 424.212 544.789C421.866 550.903 420.037 557.22 418 563.453C416.603 567.718 414.239 570.699 414.62 575.812L414.618 575.819Z" fill="#C10000"/>
<path d="M263.66 453.225C260.835 454.656 255.059 467.53 252.657 467.814C247.468 468.43 239.17 459.304 237.162 454.707C237.46 453.342 249.173 448.494 250.755 446.702C253.231 443.909 251.918 441.436 256.899 438.143C267.745 430.968 278.974 442.481 269.658 450.987C266.613 453.771 265.411 452.345 263.668 453.228L263.66 453.225Z" fill="#C10000"/>
<path d="M397.834 466.007L397.016 467.249L395.921 466.975C396.722 464.221 393.558 466.586 392.306 463.808C391.053 461.031 393.102 459.531 393.234 457.451C393.798 448.483 390.52 436.389 396.761 429.322C399.947 432.251 406.523 431.581 409.08 433.014C413.835 435.678 408.739 441.343 408.377 443.2C408.049 444.874 409.371 447.889 409.067 449.881C408.807 451.571 407.401 453.058 407.332 454.015C407.294 454.55 408.91 455.127 409.241 456.809C409.458 457.927 409.197 464.477 408.853 465.449C406.826 471.113 398.548 465.595 397.834 466.007Z" fill="#C10000"/>
<path d="M465.843 549.893L445.051 544.678C447.583 533.191 461.971 532.503 469.475 525.565L482.636 531.248L483.559 533.669C479.255 540.833 470.484 543.203 465.843 549.893Z" fill="#C10000"/>
<path d="M256.072 472.618C257.86 470.213 260.039 468.826 262.053 466.34C267.971 459.058 266.755 457.423 275.214 451.576C277.701 449.858 275.587 447.677 280.732 450.031C283.51 451.307 289.829 454.283 288.159 457.606C286.269 461.356 280.277 469.766 277.537 473.355C276.323 474.945 273.016 479.287 271.448 479.979C267.65 481.655 259.467 474.428 256.075 472.611L256.072 472.618Z" fill="#C10000"/>
<path d="M451.212 505.868C450.732 506.087 450.295 509.439 446.676 509.446C439.898 509.454 439.197 502.081 438.628 496.786C438.163 492.444 437.886 485.144 440.672 481.857C442.418 481.262 443.39 483.21 445.079 483.65C449.494 484.79 454.507 481.271 457.789 486.625C458.139 487.193 461.617 498.713 461.676 499.455C462.003 503.411 460.34 506.736 456.19 507.147C453.608 507.407 451.456 505.76 451.212 505.868Z" fill="#C10000"/>
<path d="M407.767 508.682C409.698 507.598 412.298 505.414 414.18 504.058C415.931 503.989 418.637 513.167 416.173 514.73C420.005 515.038 423.778 507.943 426.278 507.818C429.728 507.644 432.575 509.272 431.559 513.004C431.274 514.038 426.115 519.042 424.937 519.835C422.299 521.604 420.623 520.629 418.222 521.453C415.624 522.345 408.639 529.274 407.143 529.067C402.67 525.173 395.788 523.932 393.483 517.918C397.052 513.123 402.839 511.447 407.773 508.668L407.767 508.682Z" fill="#C10000"/>
<path d="M485.98 525.898C483.829 527.116 473.143 521.65 471.984 519.676C471.488 518.833 471.761 517.083 471.354 515.88C468.94 508.812 464.797 502.132 467.837 494.551C469.753 495.09 472.5 496.699 474.527 496.41C477.581 495.978 479.744 492.49 483.182 496.665C485.78 499.815 483.547 502.434 483.735 505.35C483.813 506.556 485.472 508.098 485.926 509.76C486.594 512.252 485.927 514.432 486.208 516.686C486.488 518.939 489.694 523.799 485.98 525.898Z" fill="#C10000"/>
<path d="M413.722 487.225C413.172 486.396 412.071 479.901 412.247 478.738C413.509 470.464 427.39 471.515 429.227 476.361C429.782 477.831 428.837 478.929 429.017 479.763C429.507 482.002 432.461 483.244 431.733 487.063C431.541 488.066 429.032 492.353 428.381 493.042C427.601 493.863 425.475 491.735 424.688 493.75L428.59 495.425L430.721 493.562C436.111 493.182 434.368 502.786 430.885 502.777C430.403 502.774 424.18 501.592 423.438 501.381C419.01 500.121 418.611 497.088 417.057 493.154C415.298 488.68 415.894 490.491 413.718 487.215L413.722 487.225Z" fill="#C10000"/>
<path d="M388.666 471.825C397.711 471.116 405.131 469.312 407.239 480.074C409.535 491.829 405.641 495.148 394.551 490.141C388.412 487.369 387.099 477.664 388.659 471.823L388.666 471.825Z" fill="#C10000"/>
<path d="M507.542 542.995C505.731 543.861 506.309 545.903 505.116 547.074C502.869 549.279 488.071 551.98 484.799 551.752C467.816 550.567 492.875 538.173 496.974 536.434L507.542 542.995Z" fill="#C10000"/>
<path d="M509.105 535.746C507.636 536.277 499.439 533.063 498.465 531.778C497.961 531.113 495.335 517.217 495.196 515.457C495.008 513.106 494.795 510.779 495.514 508.478C497.605 510.905 500.227 512.975 502.226 515.475C503.686 517.296 508.034 523.273 508.837 524.783C509.011 525.116 510.713 531.689 510.699 532.068C510.657 533.493 509.95 534.677 509.102 535.753L509.105 535.746Z" fill="#C10000"/>
<path d="M309.259 459.847C308.959 460.156 301.626 458.196 300.858 457.852C291.374 453.631 296.591 435.409 307.291 442.688C308.258 443.341 311.86 447.943 311.635 448.95L309.252 459.845L309.259 459.847Z" fill="#C10000"/>
<path d="M303.207 421.727C308.37 429.816 290.281 436.724 287.923 426.019C287.485 424.019 289.279 419.858 291.364 419.32C291.707 419.231 297.831 418.7 298.173 418.75C299.545 418.961 302.498 420.612 303.207 421.727Z" fill="#C10000"/>
<path d="M305.872 436.823C303.781 432.997 310.685 429.77 313.861 430.151C317.626 430.599 322.15 435.256 324.196 438.305C323.938 439.447 313.924 442.448 312.501 442.333C311.476 442.248 306.386 437.778 305.865 436.82L305.872 436.823Z" fill="#C10000"/>
<path d="M290.268 445.343C278.792 450.212 278.627 431.759 285.596 432.941C289.017 433.525 287.911 435.923 288.542 436.937C290.447 439.991 292.714 440.33 290.268 445.343Z" fill="#C10000"/>
<path d="M272.709 436.104C267.652 432.808 262.101 426.649 266.679 420.607C273.687 422.876 277.724 429.803 272.709 436.104Z" fill="#C10000"/>
<path d="M272.912 411.189C276.331 408.639 288.839 413.005 288.403 414.729C285.711 416.536 282.015 419.24 278.549 418.508C275.858 417.942 269.247 413.92 272.914 411.182L272.912 411.189Z" fill="#C10000"/>
<path d="M460.209 510.754C460.337 512.232 459.399 515.207 457.605 514.352C455.728 512.985 456.462 506.394 458.619 507.871C459.136 508.77 460.115 509.681 460.209 510.754Z" fill="#C10000"/>
</svg>
