<svg width="849" height="1014" viewBox="0 0 849 1014" fill="none" xmlns="http://www.w3.org/2000/svg">
<path d="M848.984 0L848.951 305.722C848.819 307.353 847.225 308.013 845.894 309.009C840.716 312.855 825.086 321.444 818.577 324.717C801.024 333.555 779.23 338.447 758.701 332.161C745.076 327.991 715.13 301.727 704.216 292.229C637.257 233.901 581.325 161.929 562.293 85.1656C560.452 77.722 560.468 67.0297 557.904 60.4947C555.521 54.4079 548.437 45.8565 545.331 39.2096C539.463 26.6625 535.453 13.4184 536.061 0.0124475H849L848.984 0Z" fill="#4E0000"/>
<path d="M169.095 926.587C223.935 1014.14 412.519 1029.38 535.452 1001.03C553.686 996.816 600.543 981.495 604.267 960.58C605.736 952.347 605.687 935.232 603.507 927.26C602.187 922.427 596.358 917.942 595.374 913.919C592.459 902.011 594.004 891.361 589.084 878.169C564.373 811.889 476.526 804.054 436.483 756.197C432.572 751.513 415.944 729.03 415.894 724.496C415.857 720.634 418.336 714.742 418.697 710.432C419.394 702.336 418.435 692.993 415.857 685.283C414.923 682.48 412.382 679.341 411.709 676.364C410.103 669.214 415.047 660.906 415.807 653.345C417.364 637.912 411.772 626.713 404 614.07C416.218 593.679 413.852 574.173 406.578 552.573C417.563 539.282 425.634 526.278 431.102 509.836C432.883 504.504 433.842 498.015 435.736 492.982C444.915 468.443 507.789 417.621 530.47 400.93C572.655 369.851 619.375 345.001 668 325.544L642.791 304.082C636.065 297.268 629.152 290.592 622.651 283.591C572.157 229.132 532.525 159.065 520.966 85C475.019 131.562 429.072 177.513 377.146 217.623C336.106 249.336 288.216 279.942 242.281 304.082C211.978 320.014 178.249 327.799 147.946 343.282C102.024 366.725 59.9997 410.87 26.1091 449.323C10.8141 466.687 -3.28513 475.83 0.675618 500.954C7.43879 543.704 53.1743 641.835 89.2445 666.437C91.2622 667.819 94.7622 670.547 97.1286 670.709C104.813 671.22 125.701 659.212 133.51 655.899C140.958 670.796 144.932 688.671 148.643 705.101C153.351 725.903 156.664 747.091 160.413 768.093C160.687 769.637 160.413 771.232 159.604 772.577C101.949 754.553 225.081 949.22 169.095 926.6" fill="#C10000"/>
</svg>
