<svg width="223" height="245" viewBox="0 0 223 245" fill="none" xmlns="http://www.w3.org/2000/svg">
<path d="M94.5476 115.874C94.5921 115.075 93.4616 115.646 93.3343 115.214C93.7104 114.247 93.0921 113.399 93.0686 112.549C93.0464 111.766 94.2679 106.312 94.6453 105.872C95.583 104.785 96.9132 105.508 97.4996 105.415C98.7324 105.219 100.241 104.545 101.573 104.409C101.97 104.368 102.322 104.906 102.816 104.548C103.31 104.191 103.482 102.683 103.941 102.052C104.661 101.067 105.79 100.651 105.799 99.0613C105.803 98.0934 105.137 97.7934 104.999 96.9342L104.968 91.8734C106.37 90.5193 108.556 89.1776 110.533 89.0113C110.929 88.9786 111.358 89.3929 111.526 89.2856C112.372 88.758 113.681 85.3558 115.855 86.9178C116.579 87.4377 118.765 90.7664 117.191 91.3598C117.458 91.866 118.066 91.653 118.429 92.0283C119.379 93.0147 118.228 94.9052 118.496 96.0788C118.745 97.171 119.984 97.5747 119.921 99.0949C119.888 99.9135 119.355 100.258 119.322 100.53C119.288 100.803 119.768 101.442 119.689 102.299C119.6 103.272 117.919 108.585 117.37 109.289C116.99 109.777 116.389 109.892 116.227 110.151C116.081 110.385 116.215 110.997 116.059 111.324C115.297 112.934 113.977 114.558 112.315 115.308C109.923 116.39 110.138 116.507 108.141 117.864C107.058 118.598 103.169 119.635 101.875 119.37C99.1709 118.811 100.083 119.037 97.4566 119.148C96.7142 119.181 94.3775 118.916 94 118.313C93.2682 117.145 94.5393 115.998 94.5469 115.863L94.5476 115.874Z" fill="#C10000"/>
<path d="M11.1881 51.8754C9.54776 50.3291 8.90729 47.9762 8.55245 45.8187C8.46442 45.2895 8.83008 44.9232 8.74407 44.5782C8.5934 43.9721 7.89685 43.5346 7.69569 43.0815C7.07254 41.6873 9.60789 37.4801 10.3111 35.9471C10.6118 35.2912 10.6893 34.3956 11.0584 33.6193C12.8957 29.7689 15.7014 26.1189 19.5935 24.1223C21.1114 23.3435 23.917 24.0243 25.6797 23.9653C26.4982 23.9376 27.1257 23.1952 28.1247 23.9151C30.5338 25.6577 27.4 29.8489 27.461 31.7352C27.5 32.9595 29.0436 33.7511 27.601 35.6012C26.3653 37.1854 25.0266 36.2509 24.0906 36.8333C23.2076 37.3822 21.423 39.7878 21.2161 40.822C20.9474 42.1716 21.0519 44.0495 20.8709 45.2247C20.5277 47.4318 19.3118 46.9927 18.1127 47.6698C15.9155 48.9091 14.001 51.4107 11.1898 51.8777L11.1881 51.8754Z" fill="#C10000"/>
<path d="M70.0619 59.3096C69.7331 59.2117 68.9818 59.8811 67.9937 58.8169C66.0973 56.7739 68.2779 55.7831 68.7862 54.5642C69.4955 52.8622 68.8361 51.5744 68.7378 50.1097C68.7023 49.5652 69.0705 47.4139 69.3274 46.9524C70.986 43.9682 73.0939 46.217 75.1912 47.0411C75.8176 47.2894 76.4854 46.9163 77.3644 47.5961C77.8894 48.0009 79.1383 49.894 79.2093 50.4755C79.261 50.8968 76.9563 55.5024 76.6401 56.3524C77.2818 57.6217 76.361 60.6222 75.3571 61.4747C74.2965 62.3742 71.3707 61.9 70.5727 60.8508C70.2759 60.4639 70.3867 59.407 70.0619 59.3096Z" fill="#C10000"/>
<path d="M34.3009 69.8943C31.7716 68.8193 29.1347 67.9626 26.8765 66.3329C27.6864 65.2648 28.6274 63.6924 29.18 62.4894C30.6309 59.3322 29.735 59.9482 32.4231 57.053C33.0754 56.3524 32.894 55.2731 34.5249 55.0794C34.9275 55.0313 38.1752 56.6235 38.5352 56.9297C39.3593 57.6266 39.7091 59.1627 40.8203 59.8752L34.3026 69.8966L34.3009 69.8943Z" fill="#C10000"/>
<path d="M57.6048 95.5243C56.3613 95.31 53.7786 92.1677 53.8181 91.0083C53.8622 89.706 54.8324 89.8155 53.0856 88.3866C53.7972 87.8656 54.4556 87.2568 55.2177 86.7971C56.5487 85.9938 57.758 85.7769 58.9287 84.625C59.4885 84.0739 59.8716 82.8223 60.9896 82.1324C61.1084 82.0591 63.3324 81.3532 63.4613 81.3721C64.8132 81.5926 65.4935 83.2895 65.7905 84.4589C65.8355 84.6387 65.4885 84.8942 65.593 85.1142C66.0753 86.1341 67.2089 86.9687 66.7031 88.461C66.1973 89.9532 65.3255 89.3572 64.7358 89.8275C64.4216 90.0793 64.2601 91.0144 63.8058 91.5166C63.268 92.1151 61.131 94.2336 60.5521 94.6993C60.0974 95.066 58.1797 95.6263 57.6083 95.5288L57.6048 95.5243Z" fill="#C10000"/>
<path d="M60.6903 98.6844C60.6813 98.5841 61.5573 96.9829 61.6509 96.886C62.6687 95.8514 64.3527 94.8236 65.3484 93.9418C66.618 92.821 67.3024 91.1703 69.241 90.8049L73.8303 95.4447C74.095 97.7643 70.6848 99.6485 70.1575 100.996C70.023 101.343 70.4045 101.7 70.3991 102.08C70.3816 103.687 68.4807 104.027 67.572 104.971C66.0147 104.222 60.8201 100.125 60.6841 98.6856L60.6903 98.6844Z" fill="#C10000"/>
<path d="M89.2987 117.411C88.2482 115.869 86.433 116.68 85.3381 116.012C84.4265 115.457 83.5895 114.259 82.6066 113.616C82.4784 112.886 83.6073 111.437 83.7684 110.72C83.9209 110.053 83.6044 109.217 83.6866 108.485C83.8209 107.296 84.955 104.932 85.7867 104.098C87.3901 102.485 91.9039 103.66 92.9684 105.648C92.5198 107.596 92.5651 110.17 91.6799 111.964C90.9317 113.485 90.0759 113.474 89.6223 115.737C89.503 116.336 89.9605 117.053 89.2987 117.411Z" fill="#C10000"/>
<path d="M83.2495 66.6424C81.0926 65.0422 76.5153 65.1027 77.7902 61.4088C78.0828 60.5375 79.3089 60.1935 79.7192 59.6571C79.9953 59.2952 80.038 58.5871 80.3479 58.1063C81.5783 56.1939 82.819 54.4951 83.4185 52.2449C84.2613 51.8483 89.5009 56.4323 90.3234 57.2947L83.2495 66.6424Z" fill="#C10000"/>
<path d="M44.0679 44.8094C43.3415 44.552 42.16 43.2682 42.2505 42.4734C42.2933 42.0868 44.7736 37.2536 45.1893 36.4916C45.5323 35.8675 47.5221 32.2718 47.9324 32.3036C50.0877 34.3302 52.5443 36.0649 54.1818 38.5854C52.8615 39.2304 52.8683 40.6223 52.176 41.6573C51.0636 43.3184 49.5384 44.6603 48.5918 46.4443C47.1272 47.0642 46.1339 45.3645 45.164 44.8688C44.7226 44.6429 44.2961 44.888 44.0661 44.8071L44.0679 44.8094Z" fill="#C10000"/>
<path d="M99.5744 82.7769C100.423 82.3043 101.075 81.2822 101.742 80.7776C102.834 79.9508 104.947 79.2444 105.823 78.547C106.227 78.2262 106.223 77.6898 106.606 77.4168C107.816 76.557 109.498 76.3701 110.304 77.8168C110.658 78.4496 110.197 79.2179 110.525 79.8697C111.118 81.0517 112.569 82.0717 112.924 83.5216C110.005 85.9538 106.563 87.8519 102.862 88.7941C102.217 86.5094 100.01 85.1512 99.5744 82.7769Z" fill="#C10000"/>
<path d="M86.3631 82.8592C86.2108 82.8331 86.344 84.7855 84.5454 85.1472C82.3396 85.5927 82.2735 79.7833 83.9466 78.8997L84.4304 72.2003C85.9601 72.2986 87.0987 72.4506 88.3064 73.4891C89.0294 74.11 91.6269 76.6477 91.7514 77.3919C91.8334 77.89 91.3422 80.3001 91.0812 80.7469C90.7995 81.2274 90.0079 81.7884 89.981 81.9162C89.954 82.0441 90.3496 82.541 90.3946 82.8745C90.6018 84.3878 90.5159 87.2516 88.3383 87.068C85.5006 86.8298 87.1379 82.9936 86.3648 82.8615L86.3631 82.8592Z" fill="#C10000"/>
<path d="M27.5498 62.8791C27.113 63.4787 24.8534 64.9159 24.1367 64.862C23.0675 64.7819 19.7099 62.4736 19.7224 61.242C19.7243 61.1047 20.6114 59.1127 20.7502 58.949C21.4027 58.1696 22.5358 57.9791 23.0397 57.0386C23.3209 56.5156 23.1919 55.9749 23.4409 55.4659C24.2395 53.8383 27.449 50.1464 29.4166 51.6954C29.5613 51.8095 29.6279 52.1943 29.8309 52.3565C30.713 53.059 31.9845 53.5519 31.9019 54.9624C31.7972 56.7865 29.8057 57.0782 29.1981 57.8232C29.0968 57.9473 27.8233 60.5253 27.7718 60.6863C27.5568 61.3515 27.9939 62.2704 27.5538 62.8796L27.5498 62.8791Z" fill="#C10000"/>
<path d="M71.9735 106.031C71.9981 105.844 71.2242 105.488 71.5275 104.658C71.9514 103.497 73.0212 103.234 73.6718 102.531C74.8878 101.219 75.3752 98.8224 77.3677 97.9546L82.2187 100.868C82.5452 102.043 81.5875 102.714 81.2958 103.516C80.33 106.183 80.3521 106.077 78.8666 108.453C78.5668 108.933 78.5721 109.876 78.2057 110.386C76.7257 112.444 76.5358 110.892 75.1913 110.108C74.1943 109.526 70.3733 108.388 70.9438 107.004C71.1426 106.522 71.9479 106.18 71.9701 106.027L71.9735 106.031Z" fill="#C10000"/>
<path d="M101.432 66.6728C102.65 67.096 102.123 68.3509 102.65 69.0896C103.227 69.9015 104.956 71.0794 105.579 72.1703C106.155 74.5046 104.908 74.3748 103.631 75.3267C102.472 76.1871 98.2721 79.6313 97.0459 79.2858C95.6126 78.8848 94.8741 76.4322 93.2349 75.9676C91.8188 74.0849 98.0763 70.0624 99.1927 69.0771C99.6846 68.6425 101.067 66.6814 101.432 66.6728Z" fill="#C10000"/>
<path d="M17.4018 60.0106C16.1755 59.2971 12.5481 56.2275 12.9468 54.8425C13.5867 52.6077 18.0979 51.2688 19.6809 49.7182C20.5768 48.8414 20.0686 47.6948 21.8052 47.2664C23.4021 46.8701 26.0578 49.5954 25.4805 51.339C25.1627 52.294 23.2809 54.2096 22.5887 55.1516C22.1429 55.7581 22.0493 56.6374 21.4798 57.2317C20.2331 58.5313 18.4153 58.2253 17.4035 60.0128L17.4018 60.0106Z" fill="#C10000"/>
<path d="M93.5294 59.1727C95.5995 60.7109 97.8561 62.1524 99.3164 64.3443C96.9916 65.4171 95.7261 67.4422 93.9225 69.1942C92.87 70.2161 91.45 71.0199 90.6073 72.3525L86.2507 69.5387C86.0628 67.0958 88.2445 66.0507 89.5767 64.5783C91.129 62.8619 91.6476 60.5202 93.5272 59.1744L93.5294 59.1727Z" fill="#C10000"/>
<path d="M37.9243 27.755C37.8296 28.4744 35.1266 31.6669 34.8142 33.0572C34.7087 33.5205 35.3602 34.2998 35.1021 35.3697C34.0346 39.8228 28.2337 38.2887 28.5944 33.9063C28.6117 33.6822 29.0726 31.6563 29.131 31.5507C29.4933 30.8868 30.2177 30.7597 30.5788 29.9217C30.9398 29.0837 30.7091 24.4475 31.1185 24.1335C31.9354 24.3785 33.3842 24.2316 34.0977 24.5095C34.6421 24.7207 34.933 25.1371 35.3983 25.3803C36.3062 25.8557 38.1262 26.2066 37.9221 27.7567L37.9243 27.755Z" fill="#C10000"/>
<path d="M58.068 81.1939C56.7592 81.3835 57.4585 81.5079 56.4382 82.2551C55.7244 82.7778 54.6086 82.73 54.1749 83.0449C53.7654 83.3448 53.5515 84.1557 52.8893 84.6245C50.3113 86.4525 49.8038 82.1681 47.605 81.5005C47.7157 80.4294 48.5019 79.6797 49.3466 79.0994C51.2538 77.7896 54.5357 76.9258 56.4837 75.7669C57.1682 75.3597 57.3302 74.4671 58.4606 74.4502C59.5201 74.434 59.2227 75.6949 60.1756 75.2603L60.4203 75.5978L60.0662 76.091C63.7832 78.5881 61.4692 80.6996 58.0663 81.1917L58.068 81.1939Z" fill="#C10000"/>
<path d="M91.4595 89.1892C91.5929 85.9496 90.8581 81.5645 93.698 79.3747L98.4222 85.1544C97.8747 86.8717 97.8046 88.7549 97.3819 90.4764C97.1783 91.3008 96.4501 94.4359 95.3048 94.0748C94.0416 92.6428 91.9467 91.9384 91.1469 90.258C91.0743 89.8886 91.446 89.5069 91.4612 89.1914L91.4595 89.1892Z" fill="#C10000"/>
<path d="M35.4586 38.3442C35.4555 38.1679 35.9326 37.8304 35.9898 37.5649C36.0816 37.1443 35.8676 36.7118 35.9628 36.2957C36.5205 33.8418 38.2687 32.1573 39.2719 29.8511C39.5507 29.2084 39.5848 28.1353 39.7244 27.8888C39.9814 27.4414 40.1454 27.8087 40.3259 27.881C41.4922 28.3439 44.8915 30.3665 44.9182 31.6074C44.9673 33.9066 40.3841 38.9563 39.7497 41.4405C39.5921 41.6543 35.4698 39.1038 35.4563 38.3459L35.4586 38.3442Z" fill="#C10000"/>
<path d="M76.1716 92.7121C74.2263 92.3609 74.5193 90.9033 73.8381 89.7967C73.1938 88.7474 71.4585 88.1065 72.3566 86.9671C72.757 86.4598 73.2841 86.602 73.6353 86.3611C74.8891 85.4991 74.9588 85.3385 76.5081 84.7964C78.3777 84.1408 81.7772 83.0296 82.3436 85.868C82.5015 86.6652 81.8073 87.0085 81.7971 87.4236C81.7911 87.6998 82.6042 88.1122 82.8799 88.751C83.5222 90.2306 82.6705 91.463 81.2203 92.004C80.9227 92.1144 76.4266 92.7558 76.1755 92.7126L76.1716 92.7121Z" fill="#C10000"/>
<path d="M79.2368 76.0495C79.2759 75.8908 79.5316 74.4405 79.185 74.4312C79.0816 75.4932 75.567 76.0353 75.3161 75.4382C76.0536 74.029 75.6027 66.9498 76.7042 66.369C79.098 66.201 80.6391 68.3165 82.6 69.3167C82.5172 70.7595 81.6426 72.642 81.7591 74.0605C81.8278 74.8904 82.3409 75.5079 82.298 76.3555C82.2752 76.8054 81.307 79.6136 81.0248 79.8373C79.7324 80.8539 78.6438 80.0312 78.5299 78.4857C78.4603 77.5243 79.0518 76.8096 79.2391 76.0477L79.2368 76.0495Z" fill="#C10000"/>
<path d="M71.3555 72.4885C71.1913 72.4608 69.0212 70.8386 68.6795 70.547C66.9554 69.0685 66.5584 68.3368 67.0284 66.0574C67.1462 65.4846 67.672 64.9776 67.6829 64.5261C67.6981 63.9499 66.9867 63.0414 67.1485 62.3348C67.8213 59.421 73.3034 62.0858 74.1614 64.3682C74.843 66.1785 74.1031 67.4216 73.7385 68.9627C73.4285 70.2725 73.5919 72.8557 71.3555 72.4885Z" fill="#C10000"/>
<path d="M80.545 94.8309C82.97 92.2448 86.5117 93.2934 89.5738 92.2873C91.3401 93.1224 92.9227 94.2163 93.8816 95.9783C93.2066 97.7111 91.8136 97.2042 90.5948 97.5855C89.4477 97.944 86.9304 98.3283 86.6408 98.4398C85.6387 98.8335 85.1127 99.9875 83.6554 99.6157C81.6641 99.1068 82.5856 97.7745 82.223 96.7663C82.0201 96.2038 80.5287 94.9541 80.5455 94.8269L80.545 94.8309Z" fill="#C10000"/>
<path d="M73.5234 80.5621C72.9741 81.1408 74.0165 81.5166 73.8642 81.9049C73.7942 82.0838 72.7637 83.6606 72.6126 83.7943C71.357 84.9008 70.3188 84.0787 69.5319 84.1894C69.2477 84.2288 69.0243 84.7433 68.4324 84.8008C66.6617 84.966 63.3233 80.0702 67.2256 78.4874C68.962 77.7839 69.6568 78.48 70.8701 78.4638C72.3894 78.4414 74.0284 77.341 75.4575 78.6028C75.749 78.8615 77.405 81.1176 77.468 81.3766C77.7897 82.7412 75.3343 84.1608 74.5379 82.8388C74.1931 82.2637 74.8164 81.1993 73.5252 80.5643L73.5234 80.5621Z" fill="#C10000"/>
<path d="M60.565 71.9815C63.7067 69.6495 66.9151 69.4674 69.2666 72.9371C71.0463 75.5593 67.7282 76.6509 65.5957 77.0616C62.258 77.7038 61.469 74.5288 60.565 71.9815Z" fill="#C10000"/>
<path d="M102.925 100.481C101.206 100.327 100.58 98.4958 99.0804 97.985C99.5656 95.3901 98.5594 92.3138 100.258 90.085C102.294 89.2734 104.291 97.3851 103.957 98.8273C103.773 99.6157 102.985 99.6697 102.925 100.481Z" fill="#C10000"/>
<path d="M96.2123 103.291C95.7255 103.257 95.2469 103.513 94.7738 103.437C94.3398 103.37 89.4495 102.138 89.5226 101.874C90.1782 101.271 90.9892 100.978 91.8012 100.676C92.4139 100.445 97.4584 99.1403 97.7585 99.2101C98.265 99.3253 100.252 101.221 100.469 101.797C101.028 103.276 98.2753 103.716 97.261 103.726C96.6011 103.732 96.4047 103.304 96.2123 103.291Z" fill="#C10000"/>
<path d="M44.1304 47.3733L40.8692 49.8756C40.5679 50.1068 38.4698 49.6264 38.1005 49.4059C34.469 47.2577 38.1684 43.3008 41.188 44.3676C42.5132 44.8373 43.0728 46.4374 44.1304 47.3733Z" fill="#C10000"/>
<path d="M30.4682 51.3246C28.2355 51.0367 26.6012 46.2198 29.5072 45.5551C33.3119 44.6832 34.0664 51.7902 30.4682 51.3246Z" fill="#C10000"/>
<path d="M38.9564 55.9884C36.2804 54.7222 33.397 53.7259 34.979 50.1251C35.3827 49.3937 38.5625 50.8415 38.6912 51C39.02 51.4052 39.8818 55.993 38.9564 55.9884Z" fill="#C10000"/>
<path d="M33.2455 44.0517C32.8051 44.018 32.2373 44.661 31.5584 43.9205C30.8353 43.1318 31.5327 41.9964 32.2555 41.4668C34.3209 39.9535 35.8431 41.0758 36.3418 43.3231C34.9724 44.6025 34.6426 44.1588 33.2455 44.0517Z" fill="#C10000"/>
<path d="M24.3862 39.3185C25.7293 36.78 28.4905 37.7987 30.4843 38.9023C29.2501 41.5036 26.1322 41.3519 24.3862 39.3185Z" fill="#C10000"/>
<path d="M25.3096 47.5216C24.1243 46.205 22.1656 45.203 22.1489 43.1648C22.1258 40.8528 25.2375 43.0175 25.7833 44.0316C26.1196 44.6561 26.2112 47.6302 25.3113 47.5238L25.3096 47.5216Z" fill="#C10000"/>
<path d="M85.4611 88.2034C86.2409 89.5596 84.4222 90.0439 83.354 89.6344C83.3832 88.3685 84.5964 88.506 85.4611 88.2034Z" fill="#C10000"/>
<path d="M216.763 215.229C215.813 216.966 216.442 215.822 216.044 217.738C215.807 218.863 211.356 225.797 210.459 226.608C209.734 227.265 208.777 227.246 208.42 227.559C208.006 227.93 208.1 229.143 206.986 229.826C205.692 230.619 204.352 230.102 203.036 230.711C201.022 231.645 200.028 235.816 196.753 233.404C197.454 235.538 192.46 236.158 191.163 235.976C187.316 235.435 189.686 230.396 189.528 229.197C189.491 228.921 188.67 228.832 188.354 228.38C186.784 226.125 186.28 222.605 186.484 219.914L192.15 215.316C193.823 215.19 195.691 214.42 196.181 212.616C196.429 211.712 196.195 210.763 196.43 209.819C196.71 208.697 198.379 207.071 198.042 206.085C195.977 204.844 195.423 201.982 194.288 200.009C193.844 199.237 192.232 198.674 192.247 196.813C192.253 195.957 197.096 189.594 197.999 188.929C198.902 188.265 200.362 188.265 201.128 186.882L202.869 187.579C203.785 183.152 206.73 185.052 208.757 187.564C209.69 188.721 209.941 190.07 210.628 190.857C212.583 193.09 213.838 192.041 215.697 196.419C217.352 200.315 216.317 201.33 216.864 204.558C217.072 205.781 217.984 206.526 218.193 208.03C218.505 210.276 217.846 213.244 216.762 215.237L216.763 215.229Z" fill="#C10000"/>
<path d="M42.3546 169.418C42.752 168.595 43.1496 167.603 43.5085 166.895C44.1582 165.615 46.8983 160.129 47.6317 159.717C48.736 159.096 50.0253 159.648 50.9355 159.118C51.3695 158.868 51.4631 158.17 52.0775 157.806C54.0498 156.643 58.4238 154.741 60.6686 155.202C63.0611 158.482 61.8787 162.891 62.5083 166.372C62.7308 167.608 63.5845 167.843 63.3539 169.364C63.0022 171.705 61.4742 171.675 60.4269 172.736C60.2438 172.92 57.7206 175.988 57.6039 176.178C56.955 177.241 55.986 181.438 56.2707 182.558C56.6561 184.074 58.6134 184.488 58.0247 187.167C57.3254 190.348 55.0404 189.394 53.5853 190.637C51.6582 192.282 50.377 197.862 46.9967 198.185C44.7469 198.403 44.434 196.12 43.3295 194.824C41.6715 192.872 39.0916 191.074 38.6334 188.45C37.3332 181.004 39.2009 175.898 42.3503 169.421L42.3546 169.418Z" fill="#C10000"/>
<path d="M125.159 211.349C126.158 212.225 127.526 213.439 127.869 214.778C128.306 216.5 125.64 220.915 123.534 221.11C122.843 222.324 120.227 228.582 119.532 229.049C118.517 229.731 115.421 229.927 114.216 229.486C113.011 229.044 113.093 228.294 112.323 227.807C110.446 226.628 106.608 226.241 106.519 223.258C106.484 222.086 109.137 218.727 110.099 218.033C111.479 217.039 114.053 216.142 114.839 214.094C115.394 212.639 114.428 212.177 116.123 210.739C119.263 208.073 120.769 211.546 121.062 211.534C121.636 211.513 122.246 210.695 122.967 210.668C123.549 210.648 124.357 211.242 125.155 211.349C124.911 211.136 124.755 210.747 124.328 210.422C123.061 209.462 120.765 209.624 121.125 207.077C121.415 205.01 123.431 205.173 124.324 204.33C124.831 203.849 124.812 203.003 125.214 202.504C126.186 201.286 127.598 199.826 129.213 199.777C130.222 199.747 135.896 200.946 136.356 201.514C138.522 204.181 133.809 207.121 132.756 209.495C130.006 211.796 128.583 211.815 125.155 211.349L125.159 211.349Z" fill="#C10000"/>
<path d="M95.6161 179.797C93.8357 179.265 92.0118 180.194 90.4597 179.96C89.9112 179.877 86.6074 178.515 86.04 178.173C83.1916 176.46 84.9394 175.208 85.1834 173.338C85.8744 168.033 85.937 169.582 87.9845 165.329C88.417 164.427 90.1127 159.304 90.7548 159.231L100.613 164.175L95.6204 179.793L95.6161 179.797Z" fill="#C10000"/>
<path d="M148.754 182.849C148.037 183.633 145.796 183.634 144.867 183.98C143.825 184.367 143.079 185.366 141.629 185.552C140.882 185.647 138.795 185.355 138.396 184.816C138.295 184.681 137.255 181.907 137.195 181.625C136.616 178.986 138.692 177.6 137.534 175.329L138.342 174.88C137.376 173.783 136.25 168.587 137.254 167.818C140.181 168.528 139.309 165.905 141.687 165.502C145.287 164.892 150.139 165.327 150.209 170.045C150.224 171.064 149.853 175.235 149.69 176.332C149.555 177.262 148.699 178.262 148.709 178.816C148.728 179.705 150.233 181.233 148.758 182.853L148.754 182.849Z" fill="#C10000"/>
<path d="M165.538 174.544C164.882 175.232 165.179 182.224 163.021 183.393L153.749 182.761C152.243 180.334 153.876 177.375 153.653 175.105C153.454 173.078 153.294 171.473 153.521 169.281C153.594 168.55 154.476 167.525 154.589 166.663C158.893 165.962 163.08 167.202 167.191 168.289C167.594 169.953 168.278 172.775 166.803 174.021C166.435 174.329 165.753 174.32 165.543 174.541L165.538 174.544Z" fill="#C10000"/>
<path d="M192.209 192.833C191.679 193.39 191.156 194.828 190.31 195.06C188.049 195.682 182.919 191.942 182.516 189.691C182.219 188.029 184.164 183.782 185.38 182.524C186.027 181.852 187.172 181.431 187.664 180.854C188.356 180.044 189.152 176.931 190.139 176.709C192.175 177.667 194.187 176.926 196.052 178.392C196.537 178.774 196.714 179.489 197.328 179.878C198.158 180.406 199.551 180.278 200.278 181.191C198.883 181.884 197.201 183.599 196.711 185.075C195.19 189.642 195.64 189.223 192.209 192.833Z" fill="#C10000"/>
<path d="M136.649 234.878C134.953 234.788 125.507 233.295 125.154 231.976C125.932 230.637 126.715 229.362 127.305 227.918C128.456 225.099 129.163 222.582 129.634 219.77C129.916 218.088 130.654 216.043 132.643 215.781C134.201 215.578 134.161 216.422 135.059 216.815C135.782 217.132 140.375 218.971 140.433 219.268L136.653 234.878L136.649 234.878Z" fill="#C10000"/>
<path d="M84.7308 212.88C80.61 213.315 76.5349 212.516 72.5112 211.756C73.2735 206.407 76.4017 201.866 78.2021 196.887C78.7653 195.938 81.3415 196.024 82.2339 196.475C82.7798 196.752 82.8051 197.528 83.3714 197.798C84.5681 198.369 87.0721 197.967 88.1201 199.652C87.4079 201.968 87.2294 204.523 86.577 206.833C85.948 209.062 84.5634 210.686 84.7304 212.884L84.7308 212.88Z" fill="#C10000"/>
<path d="M184.605 235.779C182.743 237.114 180.238 236.1 178.603 236.45C177.496 236.689 175.852 239.338 173.82 237.718C173.644 237.579 172.564 234.814 172.53 234.459C172.47 233.763 172.968 233.167 172.956 232.547C172.93 231.151 171.902 228.418 171.813 226.69C171.746 225.433 172.286 223.645 172.007 222.214C174.974 220.715 178.329 221.66 181.336 220.402C183.599 225.177 184.636 230.522 184.604 235.786L184.605 235.779Z" fill="#C10000"/>
<path d="M162.606 212.736C162.515 212.854 162.584 214.336 162.203 215.203C161.786 216.146 159.623 218.861 158.588 219.052C157.881 219.182 151.461 218.35 150.575 218.045C149.21 217.577 147.808 216.422 147.304 215.037C147.293 214.863 148.605 214.387 149.045 213.983C149.676 213.407 153.878 209.275 154.053 208.968C154.574 208.051 154.037 207.337 155.404 205.864C158.88 202.106 163.752 202.661 160.414 208.043C162.796 207.629 163.453 204.235 166.226 206.071C169.201 208.041 166.151 210.83 164.248 212.177C163.758 212.525 162.7 212.615 162.609 212.736L162.606 212.736Z" fill="#C10000"/>
<path d="M86.4879 157.872C86.8758 158.485 87.2909 162.19 87.0857 162.983C86.8285 163.992 85.4581 164.34 84.9391 165.155C84.8139 165.353 83.1915 168.991 83.147 169.211C82.8735 170.602 84.2237 172.012 82.8267 174.184C81.384 176.423 78.6893 174.503 76.6275 174.86C74.6485 173.549 74.2055 171.767 74.467 169.46C74.7613 166.848 76.3794 164.882 76.9538 163.023C77.3629 161.701 76.5762 160.423 76.9726 158.902C77.0224 158.709 78.3386 156.222 78.4518 156.11C79.6645 154.927 85.7878 156.764 86.4883 157.868L86.4879 157.872Z" fill="#C10000"/>
<path d="M168.642 185.285C167.567 182.382 169.929 179.516 170.18 177.11C170.317 175.789 169.655 174.199 170.663 172.669C173.522 172.229 171.735 171.181 172.732 170.028C173.804 168.788 178.664 171.717 180.193 172.241C181.091 172.551 181.687 172.335 182.476 172.587C183.718 174.728 181.389 176.323 180.98 177.685C179.869 181.38 179.906 181.075 177.977 184.369C177.403 185.348 177.531 186.832 176.163 187.614L168.65 185.286L168.642 185.285Z" fill="#C10000"/>
<path d="M156.479 238.434C156.165 238.037 157.033 234.825 157.064 233.916C157.125 231.89 155.942 221.618 159.144 221.468C161.459 222.649 163.914 221.761 166.387 222.44L167.424 227.245C166.925 229.147 168.54 235.218 167.977 236.459C167.847 236.751 166.276 237.971 165.998 238.028C165.415 238.142 164.932 237.493 164.477 237.509C164.069 237.522 163.585 238.135 162.946 238.177C162.112 238.233 161.126 237.567 160.209 237.658C158.919 237.785 157.945 239.286 156.475 238.429L156.479 238.434Z" fill="#C10000"/>
<path d="M72.819 171.158C71.3236 173.12 66.0807 172.821 65.2132 170.396C64.3862 168.084 66.2035 167.558 66.2816 166.232C66.3911 164.364 65.0168 160.289 64.9362 158.012C64.9054 157.169 65.1812 154.67 65.9047 154.237C67.4151 153.327 74.0511 153.623 74.8069 155.186C75.1037 155.801 74.6431 156.792 74.7874 157.602C74.9136 158.313 75.4845 158.868 75.6245 159.599C76.1187 162.175 74.9389 162.635 74.4593 164.535C74.0502 166.15 73.7448 169.964 72.8261 171.167L72.819 171.158Z" fill="#C10000"/>
<path d="M152.122 238.235C150.75 238.768 141.616 237.174 141.412 236.417C141.21 233.498 143.421 230.779 143.778 228.04C144.084 225.729 143.371 222.963 144.989 220.831C146.331 219.064 150.867 221.253 152.895 221.67C152.518 224.991 152.421 228.348 152.212 231.69C152.067 233.976 151.279 235.752 152.122 238.231L152.122 238.235Z" fill="#C10000"/>
<path d="M61.8229 196.944C60.6092 198.013 59.401 205.115 58.25 205.563C55.7635 206.531 50.4949 203.082 48.914 201.066C48.8867 200.353 54.0567 196.459 54.6094 195.371C55.4761 193.673 54.5105 192.619 56.5515 190.354C60.9951 185.42 68.0183 189.675 64.5015 195.071C63.3521 196.836 62.5757 196.286 61.8268 196.945L61.8229 196.944Z" fill="#C10000"/>
<path d="M129.78 186.101L129.534 186.82L128.958 186.824C129.002 185.361 127.74 186.934 126.766 185.721C125.792 184.509 126.613 183.505 126.411 182.46C125.543 177.955 122.376 172.396 124.557 168.105C126.507 169.145 129.671 167.973 131.119 168.354C133.81 169.063 132.016 172.515 132.074 173.479C132.126 174.348 133.165 175.67 133.27 176.693C133.357 177.562 132.852 178.477 132.941 178.959C132.991 179.228 133.863 179.306 134.242 180.096C134.492 180.62 135.201 183.891 135.155 184.416C134.878 187.475 130.08 185.806 129.78 186.101Z" fill="#C10000"/>
<path d="M174.127 218.867L163.182 218.949C162.964 212.947 169.988 210.766 172.81 206.378L180.042 207.503L180.808 208.582C179.597 212.673 175.565 214.967 174.127 218.867Z" fill="#C10000"/>
<path d="M60.5525 207.501C61.1284 206.084 62.0284 205.119 62.7056 203.633C64.6997 199.276 63.8895 198.623 67.3229 194.651C68.3328 193.484 67.0085 192.676 69.8528 193.182C71.3891 193.458 74.8932 194.12 74.4928 195.976C74.0382 198.072 72.1523 202.995 71.257 205.12C70.8602 206.061 69.7808 208.63 69.0943 209.173C67.4312 210.487 62.462 207.962 60.5529 207.497L60.5525 207.501Z" fill="#C10000"/>
<path d="M161.263 198.977C161.054 199.147 161.267 200.86 159.479 201.326C156.129 202.197 154.84 198.642 153.881 196.097C153.096 194.011 152.025 190.437 152.982 188.457C153.769 187.939 154.498 188.777 155.39 188.779C157.718 188.778 159.746 186.397 162.053 188.624C162.299 188.86 165.491 194.11 165.615 194.469C166.283 196.382 165.886 198.239 163.887 198.973C162.645 199.431 161.37 198.893 161.263 198.977Z" fill="#C10000"/>
<path d="M140.149 205.925C140.965 205.142 141.97 203.73 142.727 202.819C143.584 202.561 146.095 206.752 145.077 207.839C147.011 207.501 147.968 203.512 149.188 203.13C150.871 202.603 152.487 203.044 152.462 205.018C152.453 205.566 150.543 208.699 150.062 209.241C148.985 210.453 148.032 210.186 146.95 210.9C145.78 211.673 143.213 215.992 142.447 216.081C139.739 214.728 136.178 214.995 134.269 212.317C135.42 209.49 138.066 207.922 140.15 205.917L140.149 205.925Z" fill="#C10000"/>
<path d="M181.012 204.431C180.104 205.308 174.123 203.973 173.297 203.145C172.944 202.792 172.856 201.892 172.5 201.35C170.403 198.165 167.501 195.393 168.034 191.257C169.05 191.278 170.613 191.722 171.579 191.32C173.033 190.716 173.656 188.715 175.889 190.339C177.577 191.564 176.808 193.144 177.273 194.561C177.466 195.147 178.484 195.697 178.92 196.461C179.57 197.607 179.519 198.77 179.946 199.848C180.372 200.926 182.579 202.918 181.012 204.431Z" fill="#C10000"/>
<path d="M140.348 194.557C139.969 194.217 138.595 191.148 138.533 190.55C138.098 186.299 145.094 185.043 146.622 187.204C147.085 187.859 146.758 188.523 146.954 188.912C147.482 189.956 149.101 190.192 149.229 192.173C149.263 192.693 148.571 195.133 148.337 195.557C148.057 196.063 146.734 195.283 146.603 196.379L148.745 196.708L149.561 195.515C152.177 194.638 152.543 199.608 150.821 200.049C150.582 200.109 147.354 200.321 146.961 200.311C144.611 200.255 144.025 198.807 142.754 197.061C141.313 195.074 141.839 195.893 140.344 194.553L140.348 194.557Z" fill="#C10000"/>
<path d="M125.992 190.15C130.372 188.642 133.81 186.801 136.228 191.851C138.867 197.368 137.366 199.507 131.244 198.451C127.855 197.866 125.965 193.236 125.989 190.149L125.992 190.15Z" fill="#C10000"/>
<path d="M193.856 210.124C193.072 210.784 193.619 211.719 193.179 212.451C192.35 213.828 185.381 217.056 183.734 217.362C175.188 218.949 185.99 209.617 187.793 208.233L193.856 210.124Z" fill="#C10000"/>
<path d="M193.701 206.341C193.043 206.792 188.581 206.251 187.934 205.741C187.6 205.476 184.525 198.944 184.231 198.091C183.837 196.953 183.435 195.83 183.496 194.601C184.84 195.533 186.4 196.221 187.708 197.201C188.663 197.914 191.576 200.313 192.167 200.956C192.295 201.099 193.977 204.13 194.019 204.319C194.18 205.029 193.982 205.705 193.701 206.345L193.701 206.341Z" fill="#C10000"/>
<path d="M85.2094 194.386C85.1006 194.576 81.2251 194.545 80.8018 194.474C75.5737 193.601 75.8218 183.926 82.0421 186.156C82.6033 186.355 84.9727 188.169 84.99 188.695L85.2055 194.385L85.2094 194.386Z" fill="#C10000"/>
<path d="M77.342 176.317C80.9285 179.655 72.8706 185.383 70.336 180.393C69.8639 179.461 70.2182 177.174 71.18 176.642C71.3382 176.554 74.2976 175.508 74.473 175.489C75.1781 175.418 76.849 175.856 77.342 176.317Z" fill="#C10000"/>
<path d="M80.5907 183.438C79.0674 181.814 82.0676 179.336 83.6861 179.118C85.6046 178.858 88.4362 180.581 89.8375 181.827C89.856 182.424 85.2901 185.188 84.5719 185.314C84.0545 185.403 80.9666 183.844 80.5868 183.437L80.5907 183.438Z" fill="#C10000"/>
<path d="M73.9669 189.645C68.9172 193.52 66.4753 184.419 70.0711 184.112C71.837 183.963 71.5971 185.29 72.0387 185.711C73.3709 186.977 74.5346 186.854 73.9669 189.645Z" fill="#C10000"/>
<path d="M64.1056 187.324C61.1842 186.341 57.6527 184.007 59.1425 180.435C62.8972 180.66 65.7786 183.568 64.1056 187.324Z" fill="#C10000"/>
<path d="M61.0191 174.982C62.383 173.284 69.1244 173.843 69.1293 174.751C68.0298 175.988 66.5488 177.798 64.7419 177.879C63.3391 177.944 59.5569 176.801 61.0194 174.978L61.0191 174.982Z" fill="#C10000"/>
<path d="M166.336 200.242C166.588 200.956 166.504 202.546 165.509 202.353C164.406 201.918 163.926 198.566 165.181 199.02C165.551 199.398 166.152 199.723 166.336 200.242Z" fill="#C10000"/>
</svg>
