<svg width="731" height="115" viewBox="0 0 731 115" fill="none" xmlns="http://www.w3.org/2000/svg">
<path d="M24.1901 22.2838V7.28385C24.1901 2.20385 4.03006 6.47385 0.190057 5.78385C0.630057 29.2638 -0.359943 52.8438 0.150057 76.3338C0.200057 78.6938 1.17006 80.8838 1.23006 83.2538C1.46006 91.5038 -0.149943 105.004 1.19006 112.294C1.40006 113.414 1.70006 114.164 2.69006 114.794H23.6901L25.1901 113.294V97.2938C29.3201 93.5338 37.0701 92.2838 41.5801 95.9038C45.7901 99.2838 39.3101 107.824 48.4901 113.004C54.7501 116.534 56.9801 113.834 62.6501 113.764C140.06 112.724 217.38 111.984 294.65 110.764C324.3 110.294 356.51 112.684 385.68 109.794C396.87 108.684 405.93 100.204 414.75 98.8638C424.39 97.4038 443.83 97.9838 454.65 97.7638C469.36 97.4538 490.07 99.7138 503.75 97.8638C507.03 97.4238 507.38 95.2738 509.71 94.8238C522.64 92.3038 543.43 93.9338 557.69 92.8038C582.78 90.8038 607.74 85.8038 632.21 80.3238C660.21 74.0538 697.04 66.7138 723.63 57.7438C727.91 56.3038 730.67 55.7838 730.28 50.2938C729.92 45.1538 725.08 44.5838 721.01 43.4838C670.24 29.7038 599.93 14.8438 547.73 12.7638C536.8 12.3238 518.24 14.6438 508.7 12.7938C506.38 12.3438 506.03 10.1938 502.74 9.75385C476.25 6.16385 441.2 14.2138 413.66 10.8338C407.76 10.1138 400.48 4.94384 394.4 3.09384C374.83 -2.88616 340.84 1.69385 319.72 1.85385C230.28 2.50385 141.13 3.42385 51.6601 4.79385C37.5701 6.48385 44.7301 19.2838 41.1901 23.3238C38.0301 26.9338 25.4301 26.3338 24.1801 22.3138L24.1901 22.2838Z" fill="#E60000"/>
<path d="M24.1901 22.2839C25.4401 26.3039 38.0401 26.9039 41.2001 23.2939C44.7401 19.2539 37.5801 6.45394 51.6701 4.76394C141.14 3.40394 230.29 2.47394 319.73 1.82394C340.84 1.67394 374.84 -2.91606 394.41 3.06394C400.49 4.92394 407.76 10.0839 413.67 10.8039C441.21 14.1739 476.27 6.13394 502.75 9.72394C506.04 10.1639 506.38 12.3139 508.71 12.7639C518.25 14.6139 536.81 12.3039 547.74 12.7339C599.94 14.8239 670.25 29.6739 721.02 43.4539C725.09 44.5539 729.93 45.1239 730.29 50.2639C730.67 55.7539 727.91 56.2739 723.64 57.7139C697.05 66.6739 660.22 74.0239 632.22 80.2939C607.74 85.7739 582.79 90.7739 557.7 92.7739C543.44 93.9139 522.65 92.2739 509.72 94.7939C507.39 95.2439 507.05 97.3939 503.76 97.8339C490.08 99.6839 469.37 97.4239 454.66 97.7339C443.84 97.9639 424.41 97.3739 414.76 98.8339C405.94 100.174 396.88 108.654 385.69 109.764C356.52 112.654 324.31 110.264 294.66 110.734C217.39 111.954 140.06 112.694 62.6601 113.734C56.9901 113.814 54.7601 116.504 48.5001 112.974C39.3301 107.794 45.8101 99.2539 41.5901 95.8739C37.0801 92.2539 29.3201 93.5139 25.2001 97.2639V113.264L23.7001 114.764H2.69006C1.70006 114.134 1.40006 113.384 1.19006 112.264C-0.149943 104.974 1.47006 91.4739 1.23006 83.2239C1.16006 80.8539 0.200057 78.6739 0.150057 76.3039C-0.359943 52.8439 0.630057 29.2639 0.190057 5.78394C4.03006 6.47394 24.1901 2.21394 24.1901 7.28394V22.2839ZM501.2 15.7839C479.04 16.0639 456.82 15.4439 434.65 15.7439C427.99 15.8339 420.88 17.6039 413.69 16.7839C406.5 15.9639 397.74 9.43394 389.99 7.48394C380.18 5.02394 368.82 5.61394 358.65 5.74394C278.11 6.72394 197.28 8.77394 116.73 9.82394C95.1301 10.1039 73.5001 9.34394 51.9001 9.99394C43.8401 11.8439 48.1501 27.7739 48.2301 34.2339C48.5201 57.5039 47.7401 80.8039 48.4001 104.064C49.3101 107.144 51.1801 109.234 54.6301 108.834L380.73 104.814C397.07 103.594 405.64 93.7639 422.65 92.7339C443.87 91.4539 466.41 93.8539 487.73 92.8139C492.38 92.5839 497.24 90.9539 502.19 91.7739L501.19 15.7639L501.2 15.7839ZM19.1901 10.7839H5.19006L6.19006 107.284L7.83006 109.644L19.2501 109.344C21.9601 107.454 19.2401 92.9539 19.1501 89.3239C18.4801 63.1839 19.7301 36.9239 19.1901 10.7839ZM725.2 49.7939C694.73 44.2839 664.73 36.1839 634.39 30.0939C601.95 23.5939 568.88 18.3539 535.74 17.7439C526.17 17.5639 516.7 18.0539 507.19 18.7839L508.19 88.7939C546.22 89.6239 584.07 85.2939 621.2 77.3039C651.91 70.6939 691.32 62.3139 720.81 52.9039C722.74 52.2939 725.92 52.5639 725.19 49.8039L725.2 49.7939ZM42.1901 29.7939C35.3901 31.7939 31.0001 31.7939 24.2001 29.7939L25.2001 89.7839C31.6901 87.8139 36.6401 88.2539 43.1901 89.7839L42.1901 29.7939Z" fill="#300000"/>
<path d="M725.2 49.794C725.93 52.554 722.74 52.284 720.82 52.894C691.33 62.304 651.92 70.684 621.21 77.294C584.08 85.284 546.22 89.624 508.2 88.784L507.2 18.774C516.71 18.044 526.17 17.564 535.75 17.734C568.89 18.344 601.96 23.584 634.4 30.084C664.75 36.164 694.74 44.274 725.21 49.784L725.2 49.794ZM513.19 45.784V66.284C519.03 69.944 528.19 66.904 534.65 66.744C560.8 66.094 587.17 68.014 613.19 65.794C612.19 68.234 608.57 67.994 606.37 68.454C578.72 74.274 550.75 75.444 522.66 76.734C519.83 76.864 517.38 78.494 514.68 76.954C513.05 77.124 512.9 83.354 515.69 82.794C578.99 83.974 639.71 66.904 700.21 51.284C638.93 37.034 576.7 21.034 513.2 24.774V29.784C554.74 29.674 597.4 32.784 637.78 42.754C639.47 43.174 640.69 41.764 640.2 44.774L513.21 45.784H513.19Z" fill="#4E0000"/>
<path d="M19.1899 10.7839C19.7299 36.9239 18.4799 63.1839 19.1499 89.3239C19.2399 92.9539 21.9699 107.454 19.2499 109.344L7.82994 109.644L6.18994 107.284L5.18994 10.7839H19.1899ZM16.1999 13.7839H8.18994V20.7939L15.2599 20.3539L16.1999 13.7839ZM16.1999 52.7839L8.60994 53.7239L9.23994 61.7339L16.1899 61.7939V52.7839H16.1999ZM17.1899 106.784V72.2839L15.5399 70.9439L9.18994 70.7839V106.784H17.1899Z" fill="#4E0000"/>
<path d="M42.1899 29.7939L43.1899 89.7839C36.6399 88.2539 31.69 87.8139 25.2 89.7839L24.2 29.7939C31 31.7939 35.3899 31.7939 42.1899 29.7939ZM39.2 33.7839H27.19V40.7939H39.2V33.7839ZM40.1899 61.7939H27.19V65.7839L38.54 65.6339L39.75 64.8439L40.1899 61.7939ZM40.1899 70.7839H28.19V85.7839H40.1899V70.7839Z" fill="#4E0000"/>
<path d="M384.21 97.784C380.68 95.474 385.52 23.234 382.18 13.304C382.23 12.154 386.81 12.514 387.05 14.434C387.94 41.624 385.94 69.184 388.08 96.214C387.79 97.634 385.05 98.344 384.2 97.784H384.21Z" fill="black"/>
<path d="M404.19 75.7839V90.7839L392.19 95.7839V77.7839L404.19 75.7839Z" fill="black"/>
<path d="M403.19 32.7839L391.68 28.8039L391.2 14.7939C392.31 14.5939 393.2 14.9239 394.23 15.2539C405.08 18.6639 403.47 22.4439 403.19 32.7939V32.7839Z" fill="black"/>
<path d="M414.19 85.7839L409.2 86.7839C410.07 71.3239 412.04 55.8139 412.21 40.3039L414.2 30.7939V85.7939L414.19 85.7839Z" fill="black"/>
<path d="M392.2 70.7939V58.7839C394.76 59.1939 402.41 57.7839 403.79 59.7339V68.8539L392.2 70.7939Z" fill="black"/>
<path d="M513.19 45.784L640.18 44.774C640.67 41.764 639.44 43.164 637.76 42.754C597.39 32.794 554.73 29.674 513.18 29.784V24.774C576.69 21.024 638.92 37.024 700.2 51.284C639.69 66.904 578.98 83.974 515.68 82.794C512.89 83.364 513.04 77.124 514.67 76.954C517.37 78.494 519.82 76.864 522.65 76.734C550.75 75.454 578.71 74.274 606.36 68.454C608.57 67.994 612.19 68.234 613.18 65.794C587.16 68.014 560.79 66.094 534.64 66.744C528.18 66.904 519.02 69.944 513.18 66.284V45.784H513.19Z" fill="#E60000"/>
<g clip-path="url(#clip0_45_220)">
<path d="M106.457 66.9722C106.465 67.6926 106.438 68.4314 106.374 69.1888C106.346 69.9096 106.247 70.6313 106.074 71.3539C105.937 71.9679 105.745 72.5465 105.499 73.0899C105.288 73.5966 105.15 74.1566 105.085 74.7699C105.017 75.1309 104.949 75.528 104.882 75.9611C104.815 76.3582 104.546 76.5595 104.077 76.565L103.643 76.5159C103.065 76.5226 102.635 76.7618 102.351 77.2335C102.068 77.6692 101.839 78.212 101.666 78.8625C101.529 79.4766 101.41 80.1085 101.309 80.7582C101.245 81.4074 101.16 81.9308 101.057 82.3282C100.953 82.7257 100.885 83.0869 100.853 83.4114C100.856 83.6996 100.841 83.9701 100.808 84.2226C100.81 84.4387 100.741 84.6737 100.6 84.9274C100.458 85.1814 100.208 85.4544 99.8508 85.7468C99.2783 86.1858 98.7235 86.6066 98.1864 87.0092C97.6497 87.4116 97.1677 87.8857 96.7408 88.4308C96.4204 88.8309 96.2078 89.1756 96.1029 89.4651C95.9979 89.7546 95.8927 90.0259 95.7874 90.2795C95.682 90.5328 95.5042 90.769 95.254 90.9881C95.0395 91.1708 94.6626 91.3552 94.123 91.5416C93.2961 91.8395 92.5057 92.173 91.7516 92.5419C90.9979 92.9109 90.2253 93.2441 89.4345 93.5416C88.5 93.9127 87.6203 94.3372 86.7954 94.8151C85.9702 95.257 85.1266 95.6812 84.2648 96.0875C83.4029 96.4939 82.5042 96.8286 81.5685 97.0916C80.6693 97.3903 79.6963 97.5457 78.6493 97.5578C77.7106 97.5687 76.7704 97.4356 75.8283 97.1583C74.9225 96.8806 74.0695 96.4943 73.2695 95.9992C72.5103 95.9359 71.9296 95.6725 71.5272 95.2087C71.1246 94.7451 70.7932 94.1906 70.5328 93.5451C70.3103 93.0433 70.0895 92.6856 69.8704 92.472C69.6875 92.258 69.4692 92.1165 69.2156 92.0473C68.9977 91.9418 68.744 91.8546 68.4544 91.7859C68.1647 91.7173 67.8199 91.5591 67.4198 91.3116C65.7831 90.2858 64.2879 89.0062 62.9341 87.4729C61.58 85.9034 60.316 84.333 59.1424 82.7614C58.8855 82.4042 58.6821 81.9922 58.5323 81.5255C58.4181 81.0226 58.3041 80.5375 58.1904 80.0705C58.0762 79.5674 57.9444 79.1006 57.795 78.67C57.6812 78.2031 57.4965 77.8448 57.2409 77.5957C56.7662 77.1329 56.348 76.8855 55.9866 76.8537C55.6252 76.8219 55.3175 76.7534 55.0635 76.6483C54.8452 76.5068 54.6612 76.2026 54.5113 75.7359C54.3972 75.233 54.3323 74.315 54.3168 72.9822C54.3072 72.1537 54.2249 71.29 54.0701 70.3912C53.9152 69.4923 53.724 68.5758 53.4965 67.6419C53.3047 66.6712 53.131 65.7007 52.9752 64.7296C52.8191 63.7227 52.7354 62.733 52.7241 61.7604C52.712 60.7157 52.754 59.6705 52.8501 58.6246C52.9824 57.5782 53.1327 56.5318 53.3011 55.485C53.4694 54.4382 53.638 53.4096 53.8068 52.3988C53.9752 51.3522 54.0894 50.306 54.1494 49.2606C54.2103 48.287 54.2349 47.296 54.2232 46.2875C54.2476 45.2785 54.2719 44.2694 54.2963 43.2604C54.3568 42.251 54.4536 41.2592 54.5867 40.2847C54.7198 39.3106 54.9614 38.3531 55.3115 37.4123C55.6608 36.3995 56.101 35.4397 56.632 34.5329C57.1992 33.6255 57.7483 32.7185 58.2794 31.8116C58.8104 30.9048 59.3052 29.9804 59.7636 29.0383C60.222 28.0963 60.5713 27.0835 60.8115 25.9999C60.9479 25.3138 61.3918 24.6782 62.1433 24.093C62.8943 23.4718 63.8264 22.9026 64.9397 22.3853C66.0526 21.8319 67.2565 21.3496 68.5516 20.9382C69.8822 20.4905 71.1957 20.1149 72.492 19.8116C73.7879 19.4723 74.9767 19.2243 76.0581 19.0677C77.1751 18.8745 78.0765 18.774 78.7624 18.766C80.5675 18.7451 82.267 18.9595 83.861 19.4093C85.4544 19.8231 87.0676 20.3808 88.7006 21.0823C89.4264 21.3981 90.2057 21.6593 91.0386 21.8658C91.9071 22.0358 92.7204 22.1164 93.4785 22.1076C94.2366 22.0988 94.7947 21.9662 95.1529 21.7098C95.5466 21.4171 95.8497 21.0893 96.0621 20.7266C96.2741 20.3278 96.4505 19.9655 96.5911 19.6396C96.7312 19.2777 96.9447 19.005 97.2315 18.8216L97.0697 18.8775C97.141 18.8046 97.2669 18.7671 97.4474 18.765C97.6276 18.7269 97.8258 18.7066 98.0424 18.7041C98.3317 18.7367 98.6755 18.8048 99.0739 18.9082C99.5084 19.0113 99.943 19.1323 100.378 19.2713C100.813 19.4104 101.212 19.5679 101.575 19.7438C101.974 19.8833 102.264 20.024 102.446 20.166C102.556 20.2368 102.739 20.4688 102.996 20.8621C103.253 21.2554 103.511 21.6848 103.769 22.1501C104.064 22.615 104.303 23.0446 104.488 23.4387C104.71 23.8324 104.821 24.0833 104.822 24.1914C104.832 25.0919 104.969 25.937 105.231 26.7265C105.529 27.5156 105.683 28.3605 105.693 29.261C105.704 30.1976 105.571 31.1178 105.292 32.0217C105.05 32.9252 104.934 33.8452 104.945 34.7818C104.958 35.9346 104.99 37.069 105.039 38.1852C105.124 39.265 105.173 40.3814 105.186 41.5341C105.198 42.5786 105.156 43.624 105.06 44.6697C105 45.6793 104.867 46.6895 104.662 47.7006C104.593 47.9897 104.525 48.3327 104.457 48.7298C104.39 49.127 104.286 49.5064 104.146 49.8682C104.041 50.2298 103.883 50.5379 103.669 50.7925C103.491 51.0467 103.24 51.1757 102.915 51.1795C102.59 51.1833 102.301 51.1327 102.047 51.0275C101.867 51.0656 101.705 51.1036 101.561 51.1413C101.416 51.1429 101.254 51.1448 101.073 51.1469C100.748 51.1507 100.549 51.0991 100.476 50.9917C100.402 50.8846 100.365 50.7588 100.363 50.6148C100.361 50.4346 100.323 50.255 100.249 50.0757C100.21 49.86 100.027 49.664 99.7 49.4876C99.4818 49.3461 99.192 49.2593 98.8305 49.2276C98.4691 49.1958 98.1077 49.1638 97.7462 49.1321C97.4206 49.0638 97.1305 48.959 96.876 48.818C96.6212 48.6407 96.4918 48.3721 96.4876 48.0118C96.483 47.6157 96.5529 47.4167 96.6973 47.415C96.8774 47.3769 97.0765 47.4286 97.2947 47.5701C97.5492 47.7113 97.8216 47.8522 98.1121 47.9929C98.4023 48.0978 98.6729 48.0946 98.9245 47.9835C98.4123 47.413 97.9542 46.824 97.5499 46.2162C97.1814 45.572 96.7947 44.928 96.39 44.2842C96.0215 43.64 95.635 42.996 95.2303 42.3523C94.8256 41.7085 94.3674 41.1193 93.8558 40.585C93.4172 40.1216 93.0498 39.5855 92.754 38.9764C92.458 38.3675 92.162 37.7585 91.8662 37.1496C91.6058 36.5041 91.31 35.913 90.979 35.3765C90.6834 34.8035 90.2988 34.3395 89.8254 33.9848C88.1501 32.7434 86.2962 31.6661 84.2636 30.753C82.2667 29.8035 80.1851 29.3414 78.019 29.3665C76.5028 29.3842 75.0977 29.6347 73.8035 30.1181C72.5449 30.565 71.2882 31.1741 70.0334 31.9452C69.5315 32.2393 69.0469 32.4971 68.5802 32.7187C68.1495 32.9398 67.7192 33.197 67.2893 33.4902C66.8951 33.747 66.5379 34.0753 66.2176 34.4754C65.933 34.8389 65.7222 35.3458 65.5854 35.9959C65.4124 36.6464 65.3299 37.3138 65.3378 37.9982C65.3819 38.6823 65.2268 39.3146 64.8724 39.8951C64.6953 40.1854 64.4092 40.4229 64.0142 40.6075C63.6553 40.7918 63.4237 41.0648 63.3196 41.4262C63.0404 42.2581 62.87 43.1248 62.8082 44.0261C62.7826 44.927 62.7572 45.8461 62.732 46.7831C62.7429 47.7196 62.7359 48.6744 62.7111 49.6474C62.6859 50.5844 62.5519 51.4866 62.3093 52.3541C62.1011 53.0771 61.947 53.7993 61.847 54.521C61.7832 55.2424 61.7555 55.9631 61.7639 56.6836C61.7798 58.0525 61.8316 59.4028 61.9193 60.7347C62.0427 62.0303 62.1121 63.3446 62.1276 64.6773C62.1464 66.2983 62.2371 67.8825 62.3995 69.4297C62.598 70.9765 62.9228 72.522 63.3741 74.0658C63.7124 75.2148 64.1766 76.3262 64.7668 77.4001C65.3566 78.4381 65.8025 79.5317 66.1048 80.6811C66.2563 81.2917 66.5165 81.9371 66.8855 82.6175C67.2906 83.2972 67.7492 83.9224 68.2613 84.4928C68.8096 85.0628 69.4108 85.5423 70.0653 85.9308C70.7193 86.2836 71.3892 86.456 72.0753 86.448C72.5806 86.4422 73.0674 86.3824 73.5354 86.2689C74.003 86.1194 74.4896 86.0416 74.9949 86.0357C75.5366 86.0294 76.0786 86.0771 76.6215 86.179C77.1637 86.2447 77.7058 86.2743 78.2472 86.268C79.2221 86.2567 80.2314 86.1189 81.2753 85.8546C82.3554 85.59 83.2522 85.0751 83.9655 84.3103C84.4645 83.7641 85.0378 83.379 85.6852 83.1553C86.3325 82.9317 86.9802 82.7441 87.6284 82.5925C88.3125 82.4403 88.9603 82.2526 89.5715 82.0294C90.1822 81.7701 90.7187 81.3316 91.1809 80.7137C91.4651 80.3142 91.7469 79.6984 92.0259 78.8667C92.3414 78.0343 92.6561 77.166 92.9707 76.2618C93.285 75.3573 93.6006 74.5432 93.917 73.8189C94.2693 73.0582 94.6249 72.5858 94.9837 72.4014C95.3067 72.2175 95.4999 71.7649 95.5638 71.0438C95.6633 70.2859 95.7073 69.4028 95.6955 68.3942L95.6667 65.9087C95.6583 65.1882 95.6681 64.4856 95.6962 63.8007C95.7243 63.1159 95.7895 62.5026 95.8915 61.9612C96.0295 61.4191 96.2231 60.9845 96.4722 60.6575C96.7211 60.3302 97.0621 60.1642 97.4953 60.1592C97.8925 60.1546 98.2011 60.295 98.421 60.5807C98.6766 60.8299 98.985 60.9524 99.3459 60.9482C99.7069 60.944 100.049 60.8321 100.371 60.6122C100.729 60.3557 101.107 60.2253 101.504 60.2207C102.045 60.2144 102.536 60.4428 102.974 60.906C103.449 61.369 103.87 61.8865 104.238 62.4586C104.642 63.0302 104.955 63.567 105.177 64.0689C105.435 64.5341 105.619 64.7843 105.727 64.819C106.089 64.8869 106.292 65.1907 106.334 65.7307C106.412 66.2341 106.453 66.648 106.457 66.9722ZM175.359 58.6598C175.368 59.4161 175.304 60.1554 175.168 60.8775C175.032 61.5636 174.878 62.268 174.705 62.9906C174.533 63.677 174.379 64.3813 174.243 65.1034C174.107 65.8256 174.043 66.5468 174.051 67.2673C174.054 67.5555 174.076 67.8433 174.115 68.1312C174.19 68.3824 174.23 68.6522 174.233 68.9403C174.241 69.6608 174.123 70.3468 173.878 70.9981C173.669 71.649 173.405 72.2824 173.088 72.8986C172.805 73.4423 172.631 74.0027 172.565 74.5799C172.536 75.1567 172.507 75.7335 172.477 76.3102C172.484 76.8866 172.436 77.4636 172.335 78.0411C172.233 78.6188 172.023 79.1617 171.704 79.6698C171.636 80.0308 171.534 80.5724 171.398 81.2944C171.297 81.9802 171.159 82.4681 170.982 82.7584C170.946 82.8309 170.839 82.8861 170.659 82.9244C170.478 82.9624 170.28 83.0007 170.064 83.0392C169.848 83.0778 169.614 83.1527 169.363 83.2635C169.111 83.3747 168.897 83.5392 168.718 83.7574C168.54 83.9397 168.399 84.1935 168.294 84.5189C168.189 84.8444 168.067 85.1701 167.926 85.4959C167.786 85.8218 167.609 86.1121 167.395 86.3668C167.217 86.585 166.965 86.696 166.64 86.6998C166.316 86.7035 166.026 86.6529 165.772 86.5476C165.518 86.4066 165.264 86.2834 165.01 86.1783C164.755 86.0372 164.501 85.9321 164.248 85.8629C163.994 85.7938 163.687 85.8155 163.328 85.9276C163.437 85.9984 163.475 86.1782 163.442 86.4668C163.409 86.7193 163.412 86.9894 163.452 87.2772C163.527 87.5646 163.693 87.8328 163.949 88.082C164.204 88.3313 164.657 88.4521 165.307 88.4445C165.632 88.4408 165.938 88.4192 166.227 88.3799C166.551 88.34 166.875 88.2823 167.2 88.2064C166.92 89.0022 166.584 89.6366 166.193 90.1096C165.8 90.5465 165.354 90.9478 164.853 91.3139C164.387 91.6437 163.886 91.9917 163.348 92.3582C162.847 92.6883 162.346 93.1264 161.847 93.6726C161.241 94.2922 160.649 94.6772 160.073 94.828C159.533 94.9785 158.886 95.1662 158.13 95.3911C157.267 95.6533 156.656 95.9667 156.3 96.331C155.943 96.6954 155.55 97.0422 155.12 97.3716C154.691 97.7006 154.098 97.9778 153.343 98.2028C152.624 98.4632 151.47 98.6027 149.881 98.6212C148.437 98.638 146.993 98.6008 145.547 98.5095C144.138 98.4178 142.728 98.2902 141.318 98.1264C140.668 98.0618 140.125 97.9421 139.689 97.7671C139.291 97.6275 138.909 97.4518 138.546 97.2398C138.183 97.064 137.819 96.8701 137.456 96.6581C137.092 96.4462 136.639 96.2353 136.095 96.0255C135.805 95.9208 135.46 95.7807 135.061 95.6052C134.662 95.4658 134.245 95.3084 133.809 95.1333C133.374 94.9583 132.975 94.7828 132.612 94.607C132.248 94.395 131.957 94.2002 131.739 94.0226C131.483 93.8094 131.3 93.5774 131.189 93.3265C131.113 93.0391 131.038 92.7517 130.962 92.4645C130.886 92.141 130.793 91.854 130.681 91.6031C130.606 91.3158 130.441 91.0835 130.186 90.9063C129.643 90.8405 129.119 90.7567 128.612 90.6543C128.105 90.5162 127.598 90.36 127.09 90.1857C126.941 89.7911 126.793 89.4146 126.644 89.0562C126.531 88.6611 126.4 88.2663 126.251 87.8717C125.776 87.3729 125.32 86.9639 124.883 86.6447C124.445 86.2896 124.062 85.9337 123.733 85.5773C123.404 85.2209 123.11 84.81 122.852 84.3447C122.63 83.8429 122.478 83.1961 122.396 82.4046C122.277 81.4692 122.05 80.571 121.715 79.7103C121.38 78.8136 121.027 77.9351 120.656 77.0747C120.321 76.214 120.003 75.335 119.704 74.4379C119.441 73.5402 119.304 72.6232 119.293 71.6866C119.282 70.714 119.469 69.7211 119.854 68.7077C118.79 67.2431 118.122 65.6477 117.849 63.9216C117.576 62.1595 117.429 60.3958 117.408 58.6308C117.402 58.0545 117.395 57.496 117.389 56.9558C117.418 56.3789 117.43 55.8204 117.424 55.2801C117.416 54.6677 117.266 54.2011 116.974 53.8803C116.717 53.5231 116.586 53.0923 116.58 52.5879C116.571 51.7955 116.67 51.0196 116.878 50.2608C117.122 49.5012 117.275 48.7249 117.338 47.9316C116.868 47.865 116.559 47.6886 116.411 47.402L116.517 47.1846C116.765 46.7494 116.959 46.3508 117.099 45.989C117.275 45.6267 117.397 45.2831 117.466 44.9579C117.534 44.633 117.603 44.2898 117.671 43.9288C117.739 43.5678 117.824 43.1525 117.927 42.683C118.199 41.2027 118.543 39.7575 118.96 38.3478C119.413 36.9373 119.847 35.5092 120.264 34.0634C120.714 32.4009 121.275 30.9353 121.946 29.6666C122.617 28.3978 123.669 27.2147 125.1 26.1173C125.708 25.6058 126.261 25.059 126.76 24.4768C127.259 23.8946 127.612 23.2059 127.819 22.411C127.998 22.2648 128.195 22.1724 128.412 22.1339C128.628 22.0953 128.844 22.0748 129.061 22.0723L129.494 22.0672C129.747 22.0643 129.981 22.0436 130.197 22.005C130.449 21.93 130.683 21.8012 130.897 21.6186C131.433 21.108 131.898 20.7423 132.292 20.5216C132.723 20.3004 133.299 20.1856 134.021 20.1773C134.527 20.1714 135.015 20.2197 135.485 20.3224C135.956 20.389 136.444 20.4733 136.951 20.5755C137.129 20.3933 137.379 20.1562 137.701 19.8643C138.058 19.5359 138.362 19.3162 138.614 19.2052L138.616 19.3673C138.617 19.5114 138.637 19.6553 138.675 19.7989C138.748 19.9061 138.875 19.9587 139.056 19.9566C139.525 19.9512 139.975 19.8378 140.406 19.6167C140.837 19.3955 141.286 19.2462 141.755 19.1687C142.799 18.9764 143.843 18.6941 144.886 18.3217C145.928 17.9133 146.991 17.7028 148.074 17.6902C149.229 17.6768 150.457 17.7345 151.759 17.8635C153.096 17.9921 154.399 18.2471 155.667 18.6287C156.935 19.0102 158.115 19.5549 159.207 20.2628C160.298 20.9346 161.174 21.8251 161.837 22.9342C162.132 23.4352 162.425 23.828 162.718 24.1129C163.009 24.3617 163.301 24.5925 163.592 24.8052C163.883 24.982 164.174 25.1767 164.465 25.3895C164.756 25.5663 165.066 25.8329 165.396 26.1893C166.091 26.9738 166.642 27.832 167.05 28.764C167.494 29.6595 168.099 30.4631 168.865 31.1747C169.814 32.0283 170.512 33.0649 170.96 34.2848C171.443 35.504 171.692 36.7439 171.707 38.0048C171.712 38.4011 171.662 38.7978 171.558 39.1954C171.455 39.5929 171.405 40.0077 171.41 40.4399C171.415 40.8003 171.491 41.1776 171.64 41.5722C171.825 41.9664 172.029 42.3782 172.25 42.8079C172.472 43.2377 172.676 43.6858 172.862 44.1519C173.048 44.618 173.179 45.067 173.256 45.4984C173.376 46.4696 173.549 47.4223 173.777 48.3564C174.004 49.2544 174.232 50.1885 174.459 51.1586C174.763 52.3799 174.994 53.6202 175.153 54.8792C175.312 56.1383 175.381 57.3985 175.359 58.6598ZM166.528 58.3841C166.504 56.3668 166.301 54.3697 165.917 52.3926C165.569 50.4152 165.221 48.4379 164.873 46.4605C164.72 45.7417 164.477 45.0599 164.145 44.4153C163.849 43.7702 163.588 43.1068 163.364 42.425C162.915 41.1332 162.485 39.8412 162.073 38.5491C161.661 37.2569 161.249 35.9647 160.836 34.6726C160.574 33.8831 160.061 33.2044 159.296 32.6369C158.531 32.0334 157.641 31.5394 156.625 31.1549C155.609 30.7343 154.504 30.4049 153.31 30.1666C152.151 29.8919 151.03 29.6888 149.945 29.5573C148.86 29.3897 147.848 29.2934 146.909 29.2683C146.005 29.2068 145.319 29.1787 144.85 29.1842L145.553 29.122L144.958 29.1829C144.164 29.1921 143.369 29.1654 142.574 29.1025C141.815 29.0393 141.038 29.0123 140.244 29.0215C139.594 29.0291 138.945 29.0907 138.297 29.2063C137.684 29.2855 137.127 29.5261 136.626 29.9282C135.446 30.8787 134.337 31.7742 133.299 32.6149C132.262 33.4195 131.408 34.5283 130.738 35.941C130.527 36.4119 130.297 36.7568 130.046 36.9759C129.796 37.159 129.545 37.3601 129.295 37.5791C129.081 37.7617 128.885 37.9801 128.707 38.2345C128.53 38.4887 128.408 38.9044 128.342 39.4815C128.174 40.5283 127.97 41.5754 127.729 42.623C127.524 43.6341 127.428 44.662 127.44 45.7066C127.453 46.8234 127.358 47.9412 127.154 49.0605C126.986 50.1433 126.692 51.2094 126.271 52.2591C126.165 52.5486 126.06 52.8199 125.955 53.0733C125.886 53.3264 125.853 53.5969 125.856 53.8851C125.862 54.4254 125.994 54.8922 126.251 55.2856C126.508 55.6428 126.638 55.9655 126.642 56.2537C126.643 56.3978 126.59 56.4885 126.483 56.5257C126.41 56.5266 126.321 56.5637 126.213 56.6371C126.141 56.6739 126.052 56.783 125.946 56.9643C125.876 57.1453 125.844 57.4699 125.849 57.9383C125.861 58.9828 125.874 60.0455 125.886 61.1261C125.935 62.2064 126.055 63.2678 126.248 64.3102C126.363 64.9214 126.551 65.5137 126.81 66.0871C127.105 66.6241 127.257 67.1987 127.264 67.8111C127.268 68.2074 127.183 68.6046 127.007 69.003C126.831 69.4014 126.745 69.8167 126.75 70.249C126.756 70.7531 126.905 71.1658 127.198 71.4866C127.49 71.7715 127.783 72.1103 128.076 72.5031C128.296 72.7888 128.481 73.165 128.631 73.6315C128.817 74.0617 128.984 74.4741 129.133 74.8685C129.318 75.2627 129.485 75.603 129.632 75.8896C129.78 76.1761 129.944 76.3183 130.125 76.3162C130.269 76.3145 130.395 76.2951 130.503 76.2578C130.611 76.1845 130.736 76.1469 130.881 76.1452C131.603 76.1368 132.148 76.4549 132.517 77.0991C132.921 77.7067 133.127 78.3168 133.134 78.9291C133.14 79.4335 133.289 79.864 133.582 80.2208C133.875 80.5419 134.221 80.8439 134.622 81.1275C135.022 81.4111 135.423 81.6946 135.823 81.9782C136.259 82.2253 136.624 82.5093 136.916 82.8301C137.392 83.365 137.757 83.721 138.012 83.8982C138.303 84.075 138.557 84.1981 138.774 84.2675C138.991 84.3012 139.19 84.3348 139.371 84.3688C139.588 84.4023 139.86 84.5252 140.188 84.7376C140.588 85.0212 140.989 85.3407 141.391 85.6963C141.828 86.0155 142.246 86.3168 142.647 86.6003C143.775 87.3799 145.026 87.8516 146.4 88.0158C147.81 88.1435 149.182 88.1996 150.518 88.1841C151.06 88.1778 151.564 88.0459 152.03 87.7882C152.496 87.5306 152.963 87.2551 153.428 86.9614C153.894 86.6318 154.36 86.3381 154.827 86.0805C155.329 85.8225 155.869 85.6902 156.447 85.6835C156.916 85.678 157.405 85.7803 157.913 85.9905C158.728 84.7202 159.511 83.7024 160.26 82.937C161.009 82.1719 161.687 81.4254 162.292 80.6978C162.897 79.9702 163.411 79.1357 163.834 78.194C164.256 77.2524 164.548 75.97 164.71 74.3471C164.774 73.6617 164.947 73.0292 165.229 72.4496C165.547 71.8334 165.738 71.2006 165.803 70.5514C165.967 69.1085 166.04 67.6666 166.023 66.2256C166.043 64.7844 166.152 63.3421 166.352 61.8986C166.418 61.3215 166.465 60.7446 166.495 60.1677C166.524 59.591 166.535 58.9965 166.528 58.3841ZM247.55 21.1273C247.555 21.5596 247.397 21.9397 247.076 22.2677C246.756 22.5596 246.36 22.8164 245.895 23.038C245.464 23.2591 245.014 23.4625 244.547 23.6481C244.079 23.8337 243.684 24.0004 243.362 24.1482C243.074 24.2957 242.823 24.4607 242.608 24.6433C242.43 24.8255 242.233 25.026 242.021 25.2446C241.841 25.4268 241.626 25.5914 241.375 25.7385C241.162 25.885 240.874 26.0145 240.513 26.1268C240.046 26.2403 239.631 26.2991 239.271 26.3033C238.909 26.3075 238.568 26.3475 238.243 26.4234C237.917 26.4632 237.631 26.5926 237.381 26.8117C237.13 27.0307 236.882 27.4119 236.635 27.9552C236.425 28.4259 236.269 28.9862 236.167 29.6359C236.103 30.2491 235.984 30.8449 235.809 31.4233C235.635 32.0018 235.37 32.4913 235.015 32.8917C234.693 33.2917 234.172 33.4959 233.451 33.5043C233.456 33.9006 233.586 34.3132 233.844 34.7425C234.138 35.1355 234.432 35.5284 234.724 35.9214C235.054 36.3137 235.347 36.7246 235.605 37.154C235.862 37.5473 235.994 37.942 235.998 38.3383C236.003 38.7705 235.918 39.1859 235.742 39.5843C235.567 39.9825 235.48 40.3978 235.485 40.8301L235.469 44.1268C235.441 44.8475 235.576 45.5666 235.874 46.2837C236.208 46.9643 236.377 47.6827 236.386 48.4394C236.391 48.8716 236.306 49.3049 236.131 49.7393C235.955 50.1375 235.87 50.5708 235.875 51.0392C235.893 52.5521 236.054 54.0634 236.361 55.5729C236.703 57.0459 236.883 58.575 236.902 60.16C236.914 61.2047 236.837 62.3403 236.671 63.5673C236.505 64.7579 236.083 65.7717 235.406 66.6082C235.449 67.112 235.561 67.543 235.746 67.9012C235.93 68.2232 236.116 68.5814 236.301 68.9756C236.485 69.3337 236.653 69.746 236.802 70.2126C236.987 70.6428 237.084 71.218 237.092 71.9385C237.1 72.5869 237.039 73.4523 236.906 74.5346C236.811 75.5805 236.606 76.6096 236.292 77.6221C235.979 78.5983 235.537 79.4681 234.969 80.2314C234.436 80.958 233.735 81.3266 232.869 81.3366C232.798 81.3374 232.725 81.3383 232.652 81.3391C232.615 81.3034 232.561 81.2861 232.489 81.2869L232.439 81.6117L232.441 81.7739C232.446 82.2781 232.597 82.7267 232.89 83.1196C233.22 83.5121 233.386 83.9605 233.392 84.4647C233.395 84.717 233.238 85.043 232.917 85.4431C232.633 85.8426 232.276 86.2611 231.848 86.6984C231.42 87.1357 230.974 87.5552 230.509 87.9568C230.08 88.3581 229.724 88.7045 229.438 88.9961C229.116 89.3241 228.868 89.6512 228.69 89.9775C228.55 90.2674 228.39 90.5394 228.213 90.7936C228.071 91.0114 227.857 91.212 227.57 91.3956C227.318 91.5425 226.923 91.6732 226.384 91.7877C225.447 91.9786 224.619 92.2585 223.902 92.6271C223.184 92.9956 222.484 93.3821 221.803 93.7864C221.121 94.1545 220.385 94.4693 219.593 94.7307C218.802 95.0281 217.847 95.1833 216.728 95.1963C216.115 95.2034 215.518 95.1383 214.939 95.0009C214.359 94.8636 213.78 94.7081 213.2 94.5349C212.62 94.3255 212.022 94.1522 211.407 94.0151C210.828 93.8778 210.249 93.8124 209.672 93.8192C209.202 93.8246 208.733 93.8662 208.265 93.9438C207.832 93.9848 207.381 94.008 206.912 94.0134C206.551 94.0176 206.262 94.003 206.045 93.9696C205.864 93.9355 205.646 93.794 205.39 93.5449C205.207 93.3308 204.916 93.136 204.517 92.9605C204.153 92.7845 203.754 92.6271 203.319 92.4881C202.884 92.313 202.449 92.1738 202.015 92.071C201.58 91.9318 201.218 91.8279 200.928 91.7592C200.276 91.5867 199.64 91.2339 199.02 90.7006C198.436 90.1671 197.888 89.561 197.374 88.8825C196.897 88.1675 196.455 87.434 196.049 86.6822C195.679 85.9299 195.382 85.2489 195.158 84.639C194.711 83.4193 194.39 82.1801 194.195 80.9215C193.999 79.6268 193.84 78.3497 193.717 77.0901C193.593 75.7946 193.452 74.5173 193.293 73.2581C193.17 71.9626 192.938 70.6865 192.599 69.4294C192.448 68.9268 192.28 68.4244 192.094 67.9222C191.943 67.3835 191.865 66.844 191.858 66.3037C191.854 65.9074 191.885 65.5289 191.953 65.1679C192.021 64.7707 192.089 64.3736 192.156 63.9764C192.427 62.4602 192.626 60.9267 192.753 59.3762C192.915 57.8252 192.987 56.2751 192.969 54.7262C192.946 52.673 192.814 50.639 192.574 48.6242C192.369 46.6092 192.256 44.575 192.232 42.5217C192.227 42.1254 192.223 41.7473 192.219 41.3871C192.214 41.0268 192.228 40.6484 192.26 40.2517C192.323 39.5304 192.46 38.8264 192.668 38.1395C192.913 37.452 193.031 36.7482 193.023 36.0277C193.02 35.7756 192.981 35.5419 192.906 35.3266C192.832 35.1113 192.757 34.8779 192.682 34.6266C192.237 33.6951 191.975 32.8514 191.894 32.0959C191.813 31.3043 191.73 30.4046 191.646 29.3968C191.484 27.8495 191.146 26.7546 190.633 26.1121C190.156 25.4692 189.537 25.008 188.775 24.7287C188.05 24.4489 187.235 24.2242 186.33 24.0546C185.461 23.8485 184.535 23.3909 183.552 22.6818C183.261 22.5051 183.006 22.2919 182.787 22.0422C182.603 21.7561 182.509 21.451 182.505 21.1268C182.498 20.5505 182.799 20.0246 183.407 19.5492C184.052 19.0733 184.806 18.6863 185.669 18.388C186.532 18.0898 187.396 17.8636 188.261 17.7094C189.125 17.5192 189.792 17.4214 190.261 17.416C190.839 17.4093 191.381 17.475 191.888 17.6132C192.431 17.751 192.992 17.8166 193.569 17.8098C194.725 17.7964 195.842 17.6573 196.922 17.3926C198.002 17.0918 199.12 16.9347 200.275 16.9213C200.744 16.9158 201.467 16.9975 202.444 17.1663C203.421 17.3351 204.399 17.5939 205.378 17.9428C206.356 18.2557 207.209 18.66 207.937 19.156C208.701 19.6154 209.086 20.1514 209.093 20.7637C209.103 21.5562 208.859 22.3156 208.361 23.0419C207.9 23.7318 207.312 24.4051 206.598 25.0619C205.883 25.7187 205.097 26.3943 204.238 27.0888C203.416 27.7829 202.648 28.5304 201.935 29.3312C201.223 30.1321 200.619 31.0398 200.126 32.0543C199.668 33.0323 199.446 34.1337 199.46 35.3584C199.468 36.0789 199.495 36.8171 199.54 37.5732C199.62 38.2928 199.665 39.0127 199.673 39.7332C199.69 41.174 199.562 42.5987 199.29 44.0068C199.053 45.4147 198.944 46.857 198.961 48.3338C198.975 49.5227 199.15 50.6015 199.486 51.5701C199.858 52.5025 200.047 53.2389 200.053 53.7792C200.06 54.3555 199.994 54.8967 199.855 55.4027C199.753 55.8722 199.704 56.3772 199.711 56.9175C199.714 57.1696 199.716 57.4038 199.719 57.6199C199.757 57.8356 199.778 58.0697 199.781 58.3218C199.788 58.8981 199.703 59.3675 199.527 59.7298C199.387 60.0916 199.228 60.4177 199.051 60.708C198.873 60.9984 198.696 61.2705 198.519 61.5247C198.341 61.7791 198.254 62.0684 198.258 62.3924C198.437 62.2463 198.616 62.1181 198.795 62.008C198.974 61.8978 199.172 61.8415 199.389 61.839C199.641 61.8361 199.841 61.9237 199.988 62.1022C200.134 62.2807 200.245 62.4955 200.32 62.7468C200.431 62.9617 200.506 63.2129 200.545 63.5007C200.584 63.7524 200.605 63.9683 200.607 64.1485C200.618 65.0851 200.755 66.0021 201.018 66.8997C201.317 67.797 201.473 68.7138 201.483 69.6504C201.493 70.479 201.431 71.3263 201.296 72.1926C201.162 73.0226 201.099 73.87 201.109 74.7345C201.119 75.5631 201.182 76.3369 201.299 77.056C201.451 77.7388 201.945 78.2915 202.78 78.7141C202.925 78.7845 203.091 78.9987 203.275 79.3568C203.46 79.7149 203.645 80.1091 203.83 80.5392C204.052 80.933 204.273 81.3446 204.495 81.7743C204.716 82.1681 204.936 82.4538 205.155 82.6313C205.592 83.0226 206.066 83.3413 206.574 83.5877C207.082 83.8339 207.591 84.0802 208.099 84.3264C208.643 84.5362 209.151 84.7826 209.624 85.0654C210.132 85.3116 210.588 85.6665 210.99 86.1303C211.32 86.5226 211.739 86.878 212.249 87.1965C212.757 87.4787 213.248 87.7972 213.722 88.1519C214.231 88.4704 214.669 88.8255 215.034 89.2175C215.4 89.6096 215.586 90.0938 215.593 90.6701C215.587 90.2019 215.655 89.8227 215.796 89.533C215.833 89.6405 215.853 89.8025 215.856 90.0186C215.859 90.3068 215.789 90.5238 215.647 90.6695C215.754 90.5602 215.878 90.3785 216.019 90.1248C216.161 89.871 216.302 89.617 216.444 89.3633C216.585 89.1095 216.727 88.8917 216.87 88.7098C217.012 88.528 217.173 88.4362 217.354 88.4341C217.607 88.4312 217.842 88.5183 218.061 88.696C218.28 88.8736 218.391 89.1065 218.394 89.3946C218.398 89.7549 218.33 90.0979 218.189 90.4238C218.049 90.7497 217.962 91.0929 217.931 91.4536C218.292 91.4494 218.652 91.3731 219.011 91.2249C219.406 91.0401 219.764 90.8198 220.087 90.5639C220.408 90.3079 220.658 90.0167 220.835 89.6906C221.047 89.3278 221.151 88.9483 221.146 88.552C221.141 88.0838 220.993 87.7973 220.703 87.6926C220.449 87.5515 220.123 87.4831 219.726 87.4878C219.437 87.4911 219.148 87.5125 218.86 87.5519C218.608 87.5909 218.337 87.612 218.048 87.6153L217.886 87.6172C218.06 87.0748 218.326 86.6214 218.682 86.257C219.039 85.8925 219.451 85.5996 219.918 85.378C220.384 85.1203 220.869 84.9165 221.373 84.7666C221.877 84.5806 222.362 84.3949 222.829 84.2093C223.584 83.9122 224.193 83.527 224.657 83.0531C225.12 82.5435 225.547 82.0161 225.938 81.4711C226.328 80.9262 226.721 80.3812 227.111 79.8363C227.501 79.2554 227.982 78.7274 228.554 78.2523C228.587 77.9998 228.604 77.7654 228.601 77.5493C228.599 77.3332 228.596 77.117 228.594 76.9009C228.585 76.1444 228.54 75.4064 228.459 74.6869C228.414 73.9307 228.387 73.1746 228.379 72.418C228.369 71.5896 228.467 70.7598 228.676 69.9289C228.917 69.0974 229.034 68.2673 229.024 67.4388C229.016 66.7185 228.918 66.0352 228.73 65.3889C228.542 64.7064 228.444 64.0051 228.435 63.2846C228.428 62.6362 228.511 62.0048 228.684 61.3903C228.856 60.7398 228.939 60.0903 228.931 59.4419C228.919 58.3974 228.817 57.3899 228.626 56.4192C228.434 55.4128 228.332 54.4053 228.32 53.3965C228.305 52.0278 228.396 50.6938 228.598 49.3945C228.836 48.0948 228.947 46.7784 228.932 45.4456C228.912 43.7166 228.729 42.0254 228.386 40.3722C228.077 38.7186 227.914 37.0272 227.893 35.2982C227.891 35.0461 227.887 34.7219 227.882 34.3256C227.914 33.8929 227.962 33.478 228.029 33.0808C228.133 32.6473 228.273 32.2855 228.45 31.9952C228.628 31.6689 228.896 31.5037 229.257 31.4995C228.932 31.4673 228.514 31.256 228.003 30.8656C227.53 30.4388 227.055 29.9759 226.58 29.4771C226.14 28.9418 225.737 28.4241 225.369 27.924C225.039 27.3874 224.871 26.9751 224.868 26.6869C224.688 26.725 224.508 26.7631 224.328 26.8013C224.183 26.8029 224.022 26.8048 223.841 26.8069C223.335 26.8128 222.847 26.7284 222.376 26.5538C221.94 26.3787 221.505 26.2036 221.07 26.0285C220.634 25.8174 220.18 25.6246 219.709 25.4499C219.237 25.2752 218.731 25.1911 218.189 25.1974L217.919 25.2005C217.764 24.3017 217.519 23.4399 217.185 22.6151C216.886 21.79 216.731 20.9091 216.721 19.9726C216.712 19.2521 216.886 18.6737 217.242 18.2372C217.634 17.8003 218.118 17.4705 218.693 17.2476C219.267 16.9888 219.879 16.8195 220.528 16.7399C221.213 16.6599 221.827 16.6168 222.368 16.6105C223.379 16.5987 224.372 16.6412 225.348 16.7379C226.325 16.8347 227.317 16.8772 228.329 16.8654C229.086 16.8566 229.79 16.6863 230.434 16.3546C231.081 15.9868 231.764 15.7987 232.486 15.7903C232.883 15.7857 233.3 15.8709 233.736 16.046C234.17 16.1851 234.606 16.3601 235.041 16.5712C235.514 16.7819 235.984 16.9926 236.456 17.2033C236.928 17.3779 237.38 17.4988 237.814 17.5658C238.501 17.6659 239.225 17.7115 239.982 17.7027C240.777 17.6934 241.554 17.7204 242.312 17.7837C243.072 17.8469 243.794 17.9826 244.483 18.1908C245.171 18.3629 245.808 18.6977 246.391 19.1954C246.683 19.4441 246.938 19.7294 247.16 20.0511C247.415 20.3723 247.546 20.7311 247.55 21.1273ZM314.723 22.4001C314.726 22.7243 314.641 23.0855 314.465 23.4839C314.326 23.8818 314.056 24.0831 313.659 24.0877C313.515 24.0893 313.371 24.019 313.223 23.8766C313.114 23.7337 313.003 23.5729 312.894 23.394C312.782 23.2152 312.654 23.0546 312.509 22.9122C312.398 22.7693 312.272 22.6807 312.126 22.6464C312.17 23.3304 312.176 23.8527 312.144 24.2134C312.112 24.574 312.061 24.8448 311.991 25.0257C311.921 25.1706 311.813 25.262 311.67 25.2997C311.561 25.3009 311.436 25.3024 311.29 25.3041C311.003 25.3074 310.731 25.3286 310.48 25.3675C310.227 25.4065 309.975 25.4635 309.723 25.5385C308.895 25.7282 308.264 25.8616 307.831 25.9387C307.435 25.9794 307.147 26.0908 306.969 26.273C306.791 26.4552 306.687 26.7446 306.655 27.1413C306.623 27.538 306.577 28.169 306.514 29.0343C306.449 29.6836 306.402 30.3326 306.374 30.9814C306.344 31.5942 306.334 32.2248 306.342 32.8732C306.362 34.6022 306.454 36.2945 306.617 37.9497C306.817 39.6046 306.927 41.2966 306.947 43.0257C306.956 43.8542 306.895 44.6655 306.759 45.4598C306.66 46.2534 306.614 47.0645 306.624 47.8931C306.632 48.6135 306.786 49.3322 307.082 50.0493C307.416 50.7299 307.586 51.3764 307.593 51.9888C307.596 52.169 307.525 52.3498 307.383 52.5317C307.276 52.677 307.134 52.8408 306.956 53.0231C306.812 53.2048 306.671 53.4046 306.529 53.6224C306.423 53.8398 306.372 54.0925 306.375 54.3808C306.384 55.1372 306.519 55.8742 306.78 56.5916C307.076 57.2728 307.23 57.9916 307.239 58.7479C307.252 59.9006 307.193 61.0542 307.062 62.2085C306.93 63.3629 306.782 64.5176 306.616 65.6723C306.483 66.8267 306.353 67.9811 306.223 69.1354C306.09 70.2898 306.031 71.4434 306.044 72.596C306.055 73.5327 306.121 74.4327 306.239 75.2959C306.394 76.1226 306.638 76.9485 306.971 77.7731C307.046 77.9524 307.121 78.1497 307.196 78.365C307.27 78.5803 307.309 78.778 307.311 78.9582C307.316 79.4264 307.194 79.8242 306.945 80.1512C306.732 80.4419 306.627 80.6954 306.63 80.9116C306.632 81.0916 306.742 81.3065 306.961 81.5562C307.217 81.8054 307.383 82.0376 307.457 82.2529C307.719 83.0785 307.929 83.9947 308.085 85.0017C308.242 85.9724 308.323 86.8903 308.333 87.7548C308.342 88.5112 308.153 89.252 307.765 89.9771C307.375 90.7021 306.859 91.3566 306.216 91.9406C305.572 92.4883 304.837 92.9473 304.011 93.3171C303.222 93.6865 302.411 93.8761 301.581 93.8858C300.462 93.8988 299.501 93.5677 298.7 92.8926C297.933 92.2169 297.256 91.3962 296.666 90.4302C296.114 89.4279 295.595 88.3893 295.113 87.3141C294.668 86.2385 294.223 85.3069 293.781 84.5195C293.413 83.8753 293.117 83.2662 292.893 82.6923C292.706 82.0821 292.501 81.49 292.276 80.9162C292.055 80.3424 291.776 79.7873 291.446 79.2505C291.113 78.678 290.656 78.125 290.071 77.5914C289.598 77.1645 289.23 76.6644 288.972 76.091C288.712 75.4815 288.488 74.8538 288.299 74.2075C288.147 73.5247 287.996 72.8599 287.842 72.2132C287.727 71.5301 287.593 70.9012 287.443 70.3266C287.03 68.9262 286.544 67.5449 285.986 66.1823C285.429 64.8197 284.89 63.4571 284.368 62.0941C284.183 61.6639 283.941 61.1803 283.647 60.6435C283.388 60.1059 283.111 59.5689 282.816 59.0318C282.52 58.495 282.244 57.9758 281.985 57.4743C281.762 56.9725 281.63 56.5057 281.589 56.0739C281.431 54.8869 281.112 53.8277 280.632 52.8967C280.151 51.9294 279.636 51.0168 279.084 50.1586C278.533 49.3004 277.999 48.4239 277.483 47.5293C276.966 46.6346 276.611 45.63 276.418 44.5155C276.343 44.156 276.211 43.6892 276.024 43.1148C275.835 42.5047 275.594 41.913 275.298 41.34C275.003 40.7309 274.654 40.2128 274.252 39.7851C273.849 39.3575 273.432 39.1462 272.999 39.1512C272.602 39.1558 272.279 39.3576 272.03 39.7568C271.818 40.1195 271.643 40.5718 271.505 41.114C271.366 41.6199 271.264 42.1435 271.198 42.6847C271.167 43.1894 271.154 43.5678 271.157 43.8199C271.166 44.5404 271.21 45.2605 271.291 45.9799C271.407 46.6992 271.469 47.419 271.478 48.1394C271.484 48.6799 271.383 49.2033 271.172 49.7102C270.961 50.2171 270.858 50.7225 270.864 51.2269C270.867 51.5511 270.98 51.8199 271.199 52.0335C271.454 52.2467 271.582 52.4975 271.585 52.7857C271.589 53.0738 271.557 53.3624 271.488 53.6515C271.418 53.9045 271.387 54.1749 271.39 54.4632C271.401 55.3637 271.445 56.2459 271.528 57.1096C271.646 57.9729 271.711 58.8368 271.721 59.7013C271.728 60.3136 271.699 60.9444 271.634 61.5936C271.57 62.2069 271.431 62.7849 271.221 63.3277C271.011 63.8706 270.692 64.3425 270.263 64.7439C269.834 65.1091 269.277 65.3499 268.592 65.4657C268.74 65.7523 268.924 65.9483 269.14 66.0539C269.394 66.1231 269.647 66.1741 269.901 66.2073C270.154 66.2403 270.372 66.2917 270.553 66.3617C270.734 66.4317 270.826 66.6288 270.83 66.9529C270.832 67.133 270.816 67.2954 270.782 67.4399C270.783 67.5479 270.784 67.674 270.786 67.818C270.791 68.2143 270.867 68.5377 271.014 68.7883C271.197 69.0383 271.399 69.288 271.619 69.5376C271.838 69.7512 272.021 69.9834 272.168 70.2338C272.351 70.4479 272.446 70.735 272.45 71.0952C272.455 71.5275 272.404 71.9424 272.301 72.3398C272.197 72.7373 272.148 73.1343 272.152 73.5306C272.162 74.3951 272.28 75.2402 272.508 76.0662C272.732 76.8561 272.851 77.6834 272.861 78.548C272.866 79.0162 272.816 79.3592 272.71 79.5766C272.641 79.7574 272.533 79.9027 272.391 80.0126C272.283 80.1218 272.176 80.2131 272.068 80.2865C271.997 80.3233 271.962 80.4499 271.965 80.666C271.969 81.0262 272.027 81.3677 272.14 81.6907C272.251 81.9777 272.308 82.3012 272.312 82.6614C272.315 82.8775 272.281 83.0941 272.212 83.311C272.178 83.5276 272.072 83.727 271.893 83.9093C271.935 84.3411 272.082 84.6455 272.337 84.8227C272.592 84.9999 272.884 85.1586 273.209 85.2988C273.573 85.4388 273.918 85.5969 274.244 85.7733C274.57 85.9135 274.826 86.1808 275.011 86.5749C275.16 86.8975 275.308 87.2019 275.455 87.4885C275.64 87.7384 275.929 87.8612 276.326 87.8565C276.941 87.8494 277.499 87.7168 278.001 87.4589C278.503 87.1648 279.042 87.0144 279.621 87.0077C280.558 86.9968 281.213 87.3674 281.584 88.1198C281.952 88.836 282.141 89.5903 282.151 90.3828C282.162 91.3915 281.991 92.1139 281.635 92.5504C281.314 92.9504 280.94 93.261 280.509 93.4822C280.113 93.667 279.737 93.8514 279.377 94.0358C279.055 94.2197 278.896 94.5638 278.902 95.0681C278.903 95.1401 278.903 95.1942 278.904 95.2302C278.941 95.2657 278.959 95.3196 278.959 95.3915C278.451 95.0734 277.906 94.8454 277.327 94.7081C276.783 94.5704 276.206 94.505 275.592 94.5121C274.509 94.5247 273.428 94.6813 272.348 94.9821C271.305 95.3185 270.241 95.4929 269.158 95.5055C268.365 95.5147 267.587 95.4518 266.827 95.3164C266.068 95.1812 265.291 95.1181 264.497 95.1273C263.991 95.1332 263.486 95.1932 262.981 95.3072C262.515 95.4566 262.027 95.5344 261.523 95.5403C261.017 95.5461 260.348 95.4279 259.513 95.1853C258.681 94.9788 257.866 94.6822 257.066 94.2951C256.268 93.9442 255.578 93.5558 254.995 93.1303C254.448 92.6684 254.172 92.2392 254.168 91.843C254.155 90.7623 254.504 89.7855 255.217 88.9126C255.929 88.0037 256.824 87.4529 257.906 87.2601C258.446 87.1458 259.041 87.0849 259.691 87.0773C260.377 87.0694 261.044 87.0435 261.694 86.9999C262.343 86.9203 262.955 86.7871 263.531 86.6004C264.106 86.3775 264.589 86.0116 264.98 85.5027C264.829 84.9639 264.75 84.3525 264.742 83.668C264.727 82.4073 264.876 81.1808 265.188 79.9881C265.498 78.7958 265.646 77.569 265.632 76.3082C265.626 75.804 265.566 75.2823 265.451 74.7432C264.989 72.2627 264.743 69.7618 264.714 67.2401C264.705 66.5198 264.714 65.7991 264.742 65.0782C264.77 64.3215 264.779 63.5828 264.77 62.8623C264.748 60.9892 264.583 59.1358 264.272 57.3019C264 55.4678 263.815 53.6145 263.721 51.7422C263.627 49.7619 263.568 47.8171 263.545 45.9079C263.523 43.9628 263.301 42.0199 262.881 40.0793C262.766 39.5762 262.69 39.0908 262.648 38.623C262.642 38.1546 262.637 37.6684 262.631 37.1641L262.608 35.2189C262.591 33.706 262.505 32.5722 262.352 31.8172C262.199 31.0625 261.94 30.5252 261.576 30.2052C261.21 29.8491 260.738 29.6385 260.16 29.5731C259.616 29.4714 258.93 29.3713 258.099 29.2728C257.629 29.2063 257.137 28.9778 256.628 28.5874C256.154 28.1966 255.696 27.7336 255.257 27.1983C254.854 26.6626 254.504 26.1082 254.21 25.5352C253.95 24.9618 253.818 24.441 253.812 23.9727L253.798 22.784C253.781 21.3431 253.985 20.2419 254.41 19.4804C254.834 18.6829 255.423 18.0996 256.176 17.7306C256.931 17.3255 257.812 17.0811 258.823 16.9973C259.869 16.9131 260.988 16.8641 262.178 16.8502C263.369 16.8364 264.598 16.8762 265.862 16.9695C267.163 17.0265 268.411 17.2101 269.605 17.5205C270.801 17.7948 271.889 18.2325 272.87 18.8335C273.852 19.3985 274.655 20.1818 275.281 21.1833C275.685 21.8631 276.037 22.5795 276.335 23.3326C276.633 24.0497 276.912 24.785 277.173 25.5385C277.435 26.292 277.695 27.0456 277.957 27.7991C278.218 28.5166 278.552 29.2152 278.957 29.895C279.141 30.2171 279.272 30.5759 279.349 30.9713C279.461 31.3302 279.555 31.7074 279.633 32.1028C279.744 32.4617 279.858 32.8208 279.969 33.1797C280.082 33.5026 280.249 33.825 280.468 34.1467C280.724 34.4319 281.017 34.7348 281.345 35.0551C281.71 35.3391 281.984 35.6601 282.169 36.0184C282.503 36.7349 282.728 37.4888 282.845 38.28C282.999 39.035 283.133 39.808 283.251 40.5991C283.369 41.3543 283.486 42.1275 283.602 42.9188C283.757 43.6734 283.999 44.4092 284.333 45.1259C284.555 45.5556 284.757 45.9135 284.94 46.1996C285.162 46.4853 285.346 46.7713 285.493 47.0579C285.676 47.3079 285.823 47.6124 285.937 47.9713C286.084 48.294 286.199 48.725 286.276 49.2643C286.358 50.0561 286.44 50.8477 286.522 51.6392C286.602 52.395 286.791 53.1492 287.089 53.9025C287.312 54.4401 287.607 54.9411 287.973 55.4053C288.339 55.8694 288.706 56.3334 289.072 56.7974C289.474 57.2251 289.859 57.6711 290.225 58.1351C290.592 58.5991 290.869 59.1183 291.056 59.6927C291.429 60.7692 291.783 61.7738 292.12 62.7066C292.455 63.6393 293.097 64.4605 294.045 65.1699C293.83 65.4968 293.637 65.8593 293.461 66.2575C293.32 66.6195 293.253 66.9985 293.258 67.3948C293.267 68.1512 293.456 68.9056 293.825 69.6579C294.23 70.3737 294.581 71.0721 294.879 71.7533C295.102 72.2909 295.324 72.7568 295.545 73.1504C295.802 73.5438 296.221 73.8811 296.803 74.1626C297.31 74.4089 297.656 74.639 297.838 74.853C298.023 75.0311 298.132 75.246 298.172 75.4976C298.211 75.7133 298.214 75.9836 298.181 76.3082C298.185 76.5964 298.243 76.974 298.357 77.4409C298.396 77.6566 298.47 77.926 298.583 78.249C298.694 78.536 298.824 78.8407 298.973 79.163C299.157 79.4492 299.358 79.6991 299.577 79.9128C299.796 80.1264 300.033 80.2315 300.286 80.2286C300.501 80.2261 300.663 80.1523 300.77 80.0068C300.875 79.8255 300.963 79.6264 301.034 79.4094C301.104 79.1924 301.138 78.9758 301.135 78.7597C301.167 78.5072 301.184 78.3088 301.182 78.1648C301.176 77.6604 301.297 77.2087 301.546 76.8095C301.828 76.3739 301.968 75.8858 301.962 75.3457C301.955 74.7332 301.803 74.1766 301.509 73.6756C301.25 73.1742 301.117 72.6173 301.11 72.0049C301.105 71.5007 301.189 71.0494 301.365 70.651C301.577 70.2162 301.679 69.7468 301.673 69.2424C301.669 68.8822 301.521 68.5777 301.229 68.3288C300.975 68.0796 300.845 67.829 300.842 67.5769C300.841 67.4687 300.894 67.4141 301.003 67.4128C301.11 67.3756 301.217 67.3382 301.326 67.301C301.435 67.2638 301.542 67.2084 301.648 67.1352C301.756 67.0257 301.808 66.8451 301.805 66.5928C301.795 65.7283 301.678 64.9012 301.452 64.1112C301.262 63.2848 301.036 62.4587 300.773 61.6331C300.511 60.8077 300.265 59.9818 300.041 59.156C299.849 58.2935 299.749 57.4301 299.739 56.5655C299.729 55.701 299.9 54.9423 300.255 54.2897C300.607 53.6371 300.783 53.2028 300.78 52.9866C300.775 52.5184 300.643 52.1056 300.388 51.7483C300.165 51.3546 300.053 50.9236 300.047 50.4553C300.041 49.915 300.161 49.4092 300.409 48.938C300.691 48.4303 300.83 47.9064 300.824 47.3659C300.82 47.0419 300.744 46.7365 300.597 46.45C300.447 46.1275 300.282 45.8052 300.097 45.4831C299.913 45.161 299.729 44.8389 299.545 44.5168C299.397 44.1583 299.284 43.8174 299.207 43.4938C299.093 42.9549 299.014 42.3973 298.973 41.8214C298.966 41.2451 298.959 40.6687 298.953 40.0924L298.926 37.769C298.914 36.7963 298.848 35.8605 298.73 34.9612C298.646 34.0254 298.473 33.0907 298.209 32.1572C297.984 31.2951 297.848 30.5041 297.803 29.7841C297.759 29.064 297.642 28.4349 297.456 27.8967C297.269 27.3585 296.921 26.9302 296.411 26.6119C295.903 26.2575 295.07 26.051 293.914 25.9924C293.083 25.93 292.252 25.9037 291.422 25.9133C290.59 25.887 289.758 25.7705 288.926 25.564C288.384 25.4262 287.964 25.1249 287.669 24.66C287.411 24.1946 287.225 23.6744 287.11 23.0993C286.995 22.5242 286.934 21.9485 286.927 21.3721C286.92 20.7598 286.915 20.2735 286.91 19.9133C286.902 19.2288 287.22 18.6667 287.867 18.2269C288.546 17.7507 289.337 17.3632 290.234 17.0645C291.17 16.7654 292.107 16.5564 293.045 16.4374C293.981 16.2824 294.703 16.202 295.209 16.1961C295.533 16.1923 296.11 16.2037 296.942 16.23C297.773 16.2564 298.694 16.3177 299.705 16.414C300.718 16.5103 301.767 16.6423 302.852 16.8098C303.937 16.9413 304.932 17.1459 305.836 17.4236C306.742 17.6652 307.486 17.9628 308.069 18.3163C308.65 18.6698 308.944 19.0807 308.95 19.549C309.269 19.185 309.628 18.8746 310.022 18.6179C310.416 18.3611 310.865 18.2298 311.371 18.2239C311.84 18.2184 312.275 18.3575 312.676 18.641C313.112 18.8882 313.476 19.2262 313.771 19.6551C314.065 20.084 314.287 20.5497 314.437 21.0524C314.622 21.5186 314.718 21.9678 314.723 22.4001ZM264.332 90.3198C264.328 89.9956 264.235 89.7625 264.053 89.6206C263.871 89.4425 263.634 89.3192 263.344 89.2504C263.092 89.1813 262.819 89.1125 262.53 89.0437C262.276 88.9386 262.075 88.7969 261.929 88.6184C261.894 88.7269 261.859 88.8354 261.825 88.9439C261.826 89.016 261.827 89.1059 261.829 89.2141C261.832 89.5381 261.925 89.7893 262.108 89.9672C262.29 90.1094 262.508 90.2149 262.761 90.2841C263.05 90.3526 263.323 90.4396 263.577 90.5447C263.829 90.6139 264.047 90.7374 264.23 90.9155C264.265 90.8068 264.283 90.7167 264.282 90.6446C264.317 90.5361 264.333 90.4278 264.332 90.3198ZM381.174 36.2185C381.182 36.8669 381.172 37.5335 381.144 38.2182C381.151 38.8666 381.086 39.4979 380.949 40.112C380.88 40.437 380.723 40.7991 380.475 41.1983C380.226 41.5614 379.924 41.9253 379.567 42.2897C379.245 42.6176 378.888 42.9101 378.493 43.1668C378.098 43.3875 377.739 43.4998 377.415 43.5036C376.873 43.5099 376.527 43.2977 376.378 42.8671C376.228 42.4366 376.115 41.9696 376.036 41.4661C375.994 40.9621 375.881 40.4951 375.696 40.065C375.545 39.6344 375.182 39.4225 374.605 39.4292C374.425 39.4313 374.262 39.4691 374.118 39.5429C374.011 39.6163 373.868 39.6539 373.686 39.656C373.615 39.6568 373.539 39.4416 373.463 39.0101C373.386 38.5787 373.289 38.0574 373.173 37.4462C373.059 36.8352 372.925 36.2243 372.772 35.6137C372.621 34.967 372.452 34.4284 372.266 33.9982C371.934 33.3176 371.583 32.6193 371.214 31.903C370.88 31.1503 370.708 30.3597 370.698 29.5312C370.691 28.9549 370.795 28.4673 371.007 28.0685C371.218 27.6337 371.448 27.2348 371.697 26.8716C371.945 26.5085 372.175 26.1455 372.388 25.7828C372.6 25.4201 372.704 24.9865 372.698 24.4822C372.69 23.7618 372.447 23.1341 371.973 22.5992C371.497 22.0644 370.896 21.639 370.169 21.3232C369.479 20.971 368.736 20.7274 367.941 20.5926C367.181 20.4213 366.512 20.339 365.934 20.3457C364.959 20.3571 364.004 20.4943 363.068 20.7573C362.169 20.9839 361.25 21.2648 360.316 21.5999C359.417 21.9346 358.519 22.2873 357.62 22.658C356.721 23.0287 355.824 23.3454 354.924 23.608C355.11 24.1102 355.223 24.6313 355.266 25.1712C355.345 25.7107 355.388 26.2506 355.394 26.7909C355.408 28.0157 355.367 29.2411 355.274 30.467C355.18 31.657 355.139 32.8644 355.153 34.0892C355.169 35.422 355.257 36.7539 355.416 38.085C355.577 39.3801 355.736 40.6752 355.895 41.9703C356.09 43.265 356.268 44.578 356.427 45.9091C356.588 47.2042 356.676 48.5001 356.691 49.7969C356.709 51.382 356.455 52.934 355.932 54.4532C355.827 54.7427 355.776 54.9774 355.778 55.1574C355.782 55.5537 355.877 55.949 356.062 56.3432C356.246 56.7013 356.45 57.0951 356.672 57.5248C356.929 57.9182 357.151 58.3299 357.336 58.7601C357.521 59.1903 357.617 59.6395 357.622 60.1077C357.627 60.54 357.561 60.9551 357.42 61.353C357.281 61.751 357.212 62.148 357.217 62.5443C357.224 63.1206 357.303 63.6782 357.453 64.2167C357.64 64.7551 357.738 65.3123 357.745 65.8886C357.748 66.2128 357.659 66.4121 357.479 66.4862C357.336 66.5598 357.157 66.5979 356.94 66.6004C356.723 66.6029 356.524 66.6234 356.345 66.6615C356.201 66.6631 356.129 66.7541 356.131 66.9342C356.137 67.4744 356.251 67.9955 356.475 68.4973C356.732 68.9626 356.864 69.4655 356.87 70.0058C356.876 70.4741 356.774 70.9256 356.562 71.3604C356.387 71.7587 356.3 72.1921 356.305 72.6603C356.311 73.1287 356.515 73.5407 356.916 73.8962C357.353 74.2513 357.665 74.68 357.853 75.1823C358.04 75.7926 358.192 76.4933 358.31 77.2846C358.463 78.0754 358.725 78.8289 359.094 79.545C359.499 80.2609 360.102 80.8664 360.902 81.3615C361.703 81.8205 362.879 82.041 364.431 82.023L366.001 82.0047C366.434 81.9997 366.958 82.0295 367.573 82.0945C368.223 82.1591 368.838 82.296 369.418 82.5054C370.035 82.6784 370.543 82.9606 370.946 83.3523C371.383 83.7074 371.604 84.1733 371.61 84.7496C371.617 85.3259 371.516 85.8854 371.306 86.4285C371.095 86.9711 370.994 87.5309 371.001 88.1072C371.003 88.2873 371.041 88.557 371.118 88.9163C370.577 88.9226 370.09 89.0545 369.66 89.3116C369.266 89.5324 368.981 89.9141 368.807 90.4563C368.084 90.3207 367.341 90.2392 366.584 90.212C365.86 90.1483 365.139 90.1207 364.416 90.1291C362.574 90.1506 360.753 90.3158 358.952 90.625C357.15 90.8981 355.33 91.2075 353.492 91.5531C351.691 91.8623 349.872 92.1715 348.033 92.4812C346.232 92.7542 344.409 92.9015 342.568 92.9229C341.955 92.93 341.196 92.9209 340.294 92.8954C339.391 92.8699 338.523 92.7538 337.691 92.5473C336.856 92.3408 336.132 92.0252 335.513 91.6C334.929 91.1384 334.634 90.4753 334.624 89.6108C334.612 88.6022 334.693 87.8627 334.868 87.3922C335.079 86.8855 335.328 86.5404 335.613 86.3569C335.9 86.1374 336.223 86.0076 336.585 85.9674C336.981 85.9267 337.36 85.8501 337.719 85.7381C337.825 85.6286 337.879 85.52 337.878 85.4118C337.876 85.2318 337.784 85.0888 337.603 84.9827C337.455 84.8403 337.291 84.7342 337.11 84.6643C337.717 84.1167 338.399 83.7306 339.156 83.5056C339.947 83.2803 340.739 83.127 341.533 83.0457C342.363 82.9639 343.192 82.8823 344.021 82.8006C344.85 82.7188 345.624 82.5298 346.344 82.2332C346.632 82.1218 346.935 81.812 347.253 81.304C347.573 80.7959 347.854 80.2342 348.1 79.6189C348.382 79.0031 348.592 78.3883 348.729 77.7742C348.902 77.1597 348.986 76.6904 348.983 76.3662L348.981 76.2581C348.71 74.532 348.491 72.8412 348.328 71.1859C348.163 69.5307 348.072 67.8384 348.052 66.1094C348.051 65.9654 348.102 65.7306 348.207 65.405C348.31 65.0436 348.45 64.6817 348.628 64.3193C348.767 63.9215 348.959 63.4689 349.206 62.9616C348.913 62.4968 348.655 62.0674 348.434 61.6737C348.25 61.3156 348.083 60.9753 347.933 60.6526C347.786 60.3303 347.712 60.0788 347.71 59.8988C347.705 59.4666 347.771 59.0515 347.91 58.6535C348.051 58.2555 348.154 57.8581 348.222 57.461C348.421 55.9456 348.512 54.4134 348.494 52.8643C348.487 52.2159 348.424 51.5863 348.31 50.9752C348.229 50.3276 348.115 49.6984 347.962 49.0879C347.467 46.8959 347.206 44.6292 347.179 42.2878C347.147 39.5501 347.296 36.8284 347.625 34.1226C347.956 31.4168 348.104 28.695 348.073 25.9573C348.062 25.0208 347.89 24.3022 347.56 23.8017C347.228 23.2651 346.593 22.8582 345.65 22.581C344.383 22.2354 343.061 21.9626 341.688 21.7624C340.349 21.5618 339.012 21.4693 337.676 21.4848C336.665 21.4965 335.601 21.635 334.485 21.9002C333.406 22.1289 332.398 22.5188 331.465 23.0701C330.57 23.5849 329.819 24.2781 329.216 25.1498C328.648 25.985 328.371 26.997 328.384 28.1857C328.392 28.7981 328.435 29.392 328.513 29.9675C328.592 30.543 328.635 31.1369 328.642 31.7493C328.649 32.3256 328.529 32.8314 328.281 33.2667C328.069 33.6655 327.966 34.0628 327.97 34.4591C327.977 34.9995 328.126 35.5022 328.421 35.967C328.714 36.4319 328.866 36.9346 328.872 37.4749C328.876 37.8351 328.791 38.2324 328.614 38.6668C328.475 39.1007 328.3 39.5531 328.089 40.024C327.877 40.4588 327.666 40.8935 327.454 41.3283C327.279 41.7627 327.14 42.1605 327.035 42.5219C326.861 43.0645 326.63 43.5355 326.347 43.9351C326.063 44.3346 325.614 44.538 325.001 44.5451C324.495 44.551 324.023 44.3944 323.586 44.0751C323.149 43.72 322.927 43.2902 322.922 42.7859C322.917 42.3898 323.003 42.0825 323.181 41.8643C323.395 41.6096 323.501 41.3201 323.497 40.996C323.493 40.6358 323.416 40.2763 323.268 39.9178C323.118 39.5232 322.933 39.1472 322.712 38.7895C322.527 38.3953 322.36 38.0009 322.211 37.6063C322.063 37.2118 321.986 36.8164 321.981 36.4202C321.975 35.9159 322.042 35.4287 322.181 34.9588C322.355 34.4884 322.44 34.001 322.434 33.4966C322.421 32.416 322.229 31.3556 321.856 30.3151C321.518 29.2742 321.345 28.2135 321.332 27.1328C321.321 26.1602 321.415 25.0063 321.616 23.6709C321.817 22.3356 322.163 21.0526 322.655 19.822C323.181 18.591 323.855 17.5564 324.677 16.7182C325.534 15.8436 326.61 15.3988 327.91 15.3837C328.813 15.3732 329.699 15.471 330.568 15.677C331.473 15.8466 332.394 15.926 333.334 15.9151C334.38 15.9029 335.426 15.8007 336.47 15.6084C337.515 15.4161 338.561 15.3139 339.607 15.3018C340.33 15.2934 341 15.4117 341.617 15.6567C342.269 15.8653 342.956 15.9653 343.677 15.957C344.11 15.9519 344.472 15.8577 344.757 15.6742C345.08 15.4543 345.44 15.342 345.836 15.3374C346.27 15.3324 346.687 15.4356 347.086 15.6471C347.521 15.8222 347.956 15.9072 348.389 15.9022C348.786 15.8976 349.146 15.8394 349.47 15.7275C349.829 15.6153 350.191 15.557 350.551 15.5528C351.094 15.5465 351.618 15.6125 352.124 15.7507C352.668 15.8885 353.192 15.9545 353.698 15.9486L360.24 15.0619C361.214 14.9786 362.188 14.8952 363.161 14.8118C364.136 14.7284 365.129 14.6809 366.139 14.6691C367.872 14.649 369.589 14.7731 371.289 15.0416C373.025 15.2736 374.761 15.5776 376.499 15.9537L376.499 16.0078C377.693 16.2821 378.549 16.8846 379.065 17.8153C379.581 18.746 379.92 19.8229 380.078 21.046C380.272 22.2326 380.359 23.4565 380.337 24.7177C380.315 25.9789 380.347 27.0593 380.429 27.959C380.554 29.3266 380.696 30.7119 380.856 32.1151C381.053 33.4819 381.159 34.8496 381.174 36.2185Z" fill="#300000"/>
</g>
<defs>
<clipPath id="clip0_45_220">
<rect width="331" height="83" fill="white" transform="translate(51 15)"/>
</clipPath>
</defs>
</svg>
