<svg width="191" height="48" viewBox="0 0 191 48" fill="none" xmlns="http://www.w3.org/2000/svg">
<path d="M31.9375 29.3125C31.9375 29.7292 31.9167 30.1562 31.875 30.5938C31.8542 31.0104 31.7917 31.4271 31.6875 31.8438C31.6042 32.1979 31.4896 32.5312 31.3438 32.8438C31.2188 33.1354 31.1354 33.4583 31.0938 33.8125C31.0521 34.0208 31.0104 34.25 30.9688 34.5C30.9271 34.7292 30.7708 34.8438 30.5 34.8438L30.25 34.8125C29.9167 34.8125 29.6667 34.9479 29.5 35.2188C29.3333 35.4688 29.1979 35.7812 29.0938 36.1562C29.0104 36.5104 28.9375 36.875 28.875 37.25C28.8333 37.625 28.7812 37.9271 28.7188 38.1562C28.6562 38.3854 28.6146 38.5938 28.5938 38.7812C28.5938 38.9479 28.5833 39.1042 28.5625 39.25C28.5625 39.375 28.5208 39.5104 28.4375 39.6562C28.3542 39.8021 28.2083 39.9583 28 40.125C27.6667 40.375 27.3438 40.6146 27.0312 40.8438C26.7188 41.0729 26.4375 41.3438 26.1875 41.6562C26 41.8854 25.875 42.0833 25.8125 42.25C25.75 42.4167 25.6875 42.5729 25.625 42.7188C25.5625 42.8646 25.4583 43 25.3125 43.125C25.1875 43.2292 24.9688 43.3333 24.6562 43.4375C24.1771 43.6042 23.7188 43.7917 23.2812 44C22.8438 44.2083 22.3958 44.3958 21.9375 44.5625C21.3958 44.7708 20.8854 45.0104 20.4062 45.2812C19.9271 45.5312 19.4375 45.7708 18.9375 46C18.4375 46.2292 17.9167 46.4167 17.375 46.5625C16.8542 46.7292 16.2917 46.8125 15.6875 46.8125C15.1458 46.8125 14.6042 46.7292 14.0625 46.5625C13.5417 46.3958 13.0521 46.1667 12.5938 45.875C12.1562 45.8333 11.8229 45.6771 11.5938 45.4062C11.3646 45.1354 11.1771 44.8125 11.0312 44.4375C10.9062 44.1458 10.7812 43.9375 10.6562 43.8125C10.5521 43.6875 10.4271 43.6042 10.2812 43.5625C10.1562 43.5 10.0104 43.4479 9.84375 43.4062C9.67708 43.3646 9.47917 43.2708 9.25 43.125C8.3125 42.5208 7.45833 41.7708 6.6875 40.875C5.91667 39.9583 5.19792 39.0417 4.53125 38.125C4.38542 37.9167 4.27083 37.6771 4.1875 37.4062C4.125 37.1146 4.0625 36.8333 4 36.5625C3.9375 36.2708 3.86458 36 3.78125 35.75C3.71875 35.4792 3.61458 35.2708 3.46875 35.125C3.19792 34.8542 2.95833 34.7083 2.75 34.6875C2.54167 34.6667 2.36458 34.625 2.21875 34.5625C2.09375 34.4792 1.98958 34.3021 1.90625 34.0312C1.84375 33.7396 1.8125 33.2083 1.8125 32.4375C1.8125 31.9583 1.77083 31.4583 1.6875 30.9375C1.60417 30.4167 1.5 29.8854 1.375 29.3438C1.27083 28.7812 1.17708 28.2188 1.09375 27.6562C1.01042 27.0729 0.96875 26.5 0.96875 25.9375C0.96875 25.3333 1 24.7292 1.0625 24.125C1.14583 23.5208 1.23958 22.9167 1.34375 22.3125C1.44792 21.7083 1.55208 21.1146 1.65625 20.5312C1.76042 19.9271 1.83333 19.3229 1.875 18.7188C1.91667 18.1562 1.9375 17.5833 1.9375 17C1.95833 16.4167 1.97917 15.8333 2 15.25C2.04167 14.6667 2.10417 14.0938 2.1875 13.5312C2.27083 12.9688 2.41667 12.4167 2.625 11.875C2.83333 11.2917 3.09375 10.7396 3.40625 10.2188C3.73958 9.69792 4.0625 9.17708 4.375 8.65625C4.6875 8.13542 4.97917 7.60417 5.25 7.0625C5.52083 6.52083 5.72917 5.9375 5.875 5.3125C5.95833 4.91667 6.21875 4.55208 6.65625 4.21875C7.09375 3.86458 7.63542 3.54167 8.28125 3.25C8.92708 2.9375 9.625 2.66667 10.375 2.4375C11.1458 2.1875 11.9062 1.97917 12.6562 1.8125C13.4062 1.625 14.0938 1.48958 14.7188 1.40625C15.3646 1.30208 15.8854 1.25 16.2812 1.25C17.3229 1.25 18.3021 1.38542 19.2188 1.65625C20.1354 1.90625 21.0625 2.23958 22 2.65625C22.4167 2.84375 22.8646 3 23.3438 3.125C23.8438 3.22917 24.3125 3.28125 24.75 3.28125C25.1875 3.28125 25.5104 3.20833 25.7188 3.0625C25.9479 2.89583 26.125 2.70833 26.25 2.5C26.375 2.27083 26.4792 2.0625 26.5625 1.875C26.6458 1.66667 26.7708 1.51042 26.9375 1.40625L26.8438 1.4375C26.8854 1.39583 26.9583 1.375 27.0625 1.375C27.1667 1.35417 27.2812 1.34375 27.4062 1.34375C27.5729 1.36458 27.7708 1.40625 28 1.46875C28.25 1.53125 28.5 1.60417 28.75 1.6875C29 1.77083 29.2292 1.86458 29.4375 1.96875C29.6667 2.05208 29.8333 2.13542 29.9375 2.21875C30 2.26042 30.1042 2.39583 30.25 2.625C30.3958 2.85417 30.5417 3.10417 30.6875 3.375C30.8542 3.64583 30.9896 3.89583 31.0938 4.125C31.2188 4.35417 31.2812 4.5 31.2812 4.5625C31.2812 5.08333 31.3542 5.57292 31.5 6.03125C31.6667 6.48958 31.75 6.97917 31.75 7.5C31.75 8.04167 31.6667 8.57292 31.5 9.09375C31.3542 9.61458 31.2812 10.1458 31.2812 10.6875C31.2812 11.3542 31.2917 12.0104 31.3125 12.6562C31.3542 13.2812 31.375 13.9271 31.375 14.5938C31.375 15.1979 31.3438 15.8021 31.2812 16.4062C31.2396 16.9896 31.1562 17.5729 31.0312 18.1562C30.9896 18.3229 30.9479 18.5208 30.9062 18.75C30.8646 18.9792 30.8021 19.1979 30.7188 19.4062C30.6562 19.6146 30.5625 19.7917 30.4375 19.9375C30.3333 20.0833 30.1875 20.1562 30 20.1562C29.8125 20.1562 29.6458 20.125 29.5 20.0625C29.3958 20.0833 29.3021 20.1042 29.2188 20.125C29.1354 20.125 29.0417 20.125 28.9375 20.125C28.75 20.125 28.6354 20.0938 28.5938 20.0312C28.5521 19.9688 28.5312 19.8958 28.5312 19.8125C28.5312 19.7083 28.5104 19.6042 28.4688 19.5C28.4479 19.375 28.3438 19.2604 28.1562 19.1562C28.0312 19.0729 27.8646 19.0208 27.6562 19C27.4479 18.9792 27.2396 18.9583 27.0312 18.9375C26.8438 18.8958 26.6771 18.8333 26.5312 18.75C26.3854 18.6458 26.3125 18.4896 26.3125 18.2812C26.3125 18.0521 26.3542 17.9375 26.4375 17.9375C26.5417 17.9167 26.6562 17.9479 26.7812 18.0312C26.9271 18.1146 27.0833 18.1979 27.25 18.2812C27.4167 18.3438 27.5729 18.3438 27.7188 18.2812C27.4271 17.9479 27.1667 17.6042 26.9375 17.25C26.7292 16.875 26.5104 16.5 26.2812 16.125C26.0729 15.75 25.8542 15.375 25.625 15C25.3958 14.625 25.1354 14.2812 24.8438 13.9688C24.5938 13.6979 24.3854 13.3854 24.2188 13.0312C24.0521 12.6771 23.8854 12.3229 23.7188 11.9688C23.5729 11.5938 23.4062 11.25 23.2188 10.9375C23.0521 10.6042 22.8333 10.3333 22.5625 10.125C21.6042 9.39583 20.5417 8.76042 19.375 8.21875C18.2292 7.65625 17.0312 7.375 15.7812 7.375C14.9062 7.375 14.0938 7.51042 13.3438 7.78125C12.6146 8.03125 11.8854 8.375 11.1562 8.8125C10.8646 8.97917 10.5833 9.125 10.3125 9.25C10.0625 9.375 9.8125 9.52083 9.5625 9.6875C9.33333 9.83333 9.125 10.0208 8.9375 10.25C8.77083 10.4583 8.64583 10.75 8.5625 11.125C8.45833 11.5 8.40625 11.8854 8.40625 12.2812C8.42708 12.6771 8.33333 13.0417 8.125 13.375C8.02083 13.5417 7.85417 13.6771 7.625 13.7812C7.41667 13.8854 7.28125 14.0417 7.21875 14.25C7.05208 14.7292 6.94792 15.2292 6.90625 15.75C6.88542 16.2708 6.86458 16.8021 6.84375 17.3438C6.84375 17.8854 6.83333 18.4375 6.8125 19C6.79167 19.5417 6.70833 20.0625 6.5625 20.5625C6.4375 20.9792 6.34375 21.3958 6.28125 21.8125C6.23958 22.2292 6.21875 22.6458 6.21875 23.0625C6.21875 23.8542 6.23958 24.6354 6.28125 25.4062C6.34375 26.1562 6.375 26.9167 6.375 27.6875C6.375 28.625 6.41667 29.5417 6.5 30.4375C6.60417 31.3333 6.78125 32.2292 7.03125 33.125C7.21875 33.7917 7.47917 34.4375 7.8125 35.0625C8.14583 35.6667 8.39583 36.3021 8.5625 36.9688C8.64583 37.3229 8.79167 37.6979 9 38.0938C9.22917 38.4896 9.48958 38.8542 9.78125 39.1875C10.0938 39.5208 10.4375 39.8021 10.8125 40.0312C11.1875 40.2396 11.5729 40.3438 11.9688 40.3438C12.2604 40.3438 12.5417 40.3125 12.8125 40.25C13.0833 40.1667 13.3646 40.125 13.6562 40.125C13.9688 40.125 14.2812 40.1562 14.5938 40.2188C14.9062 40.2604 15.2188 40.2812 15.5312 40.2812C16.0938 40.2812 16.6771 40.2083 17.2812 40.0625C17.9062 39.9167 18.4271 39.625 18.8438 39.1875C19.1354 38.875 19.4688 38.6562 19.8438 38.5312C20.2188 38.4062 20.5938 38.3021 20.9688 38.2188C21.3646 38.1354 21.7396 38.0312 22.0938 37.9062C22.4479 37.7604 22.7604 37.5104 23.0312 37.1562C23.1979 36.9271 23.3646 36.5729 23.5312 36.0938C23.7188 35.6146 23.9062 35.1146 24.0938 34.5938C24.2812 34.0729 24.4688 33.6042 24.6562 33.1875C24.8646 32.75 25.0729 32.4792 25.2812 32.375C25.4688 32.2708 25.5833 32.0104 25.625 31.5938C25.6875 31.1562 25.7188 30.6458 25.7188 30.0625V28.625C25.7188 28.2083 25.7292 27.8021 25.75 27.4062C25.7708 27.0104 25.8125 26.6562 25.875 26.3438C25.9583 26.0312 26.0729 25.7812 26.2188 25.5938C26.3646 25.4062 26.5625 25.3125 26.8125 25.3125C27.0417 25.3125 27.2188 25.3958 27.3438 25.5625C27.4896 25.7083 27.6667 25.7812 27.875 25.7812C28.0833 25.7812 28.2812 25.7188 28.4688 25.5938C28.6771 25.4479 28.8958 25.375 29.125 25.375C29.4375 25.375 29.7188 25.5104 29.9688 25.7812C30.2396 26.0521 30.4792 26.3542 30.6875 26.6875C30.9167 27.0208 31.0938 27.3333 31.2188 27.625C31.3646 27.8958 31.4688 28.0417 31.5312 28.0625C31.7396 28.1042 31.8542 28.2812 31.875 28.5938C31.9167 28.8854 31.9375 29.125 31.9375 29.3125ZM71.75 24.9688C71.75 25.4062 71.7083 25.8333 71.625 26.25C71.5417 26.6458 71.4479 27.0521 71.3438 27.4688C71.2396 27.8646 71.1458 28.2708 71.0625 28.6875C70.9792 29.1042 70.9375 29.5208 70.9375 29.9375C70.9375 30.1042 70.9479 30.2708 70.9688 30.4375C71.0104 30.5833 71.0312 30.7396 71.0312 30.9062C71.0312 31.3229 70.9583 31.7188 70.8125 32.0938C70.6875 32.4688 70.5312 32.8333 70.3438 33.1875C70.1771 33.5 70.0729 33.8229 70.0312 34.1562C70.0104 34.4896 69.9896 34.8229 69.9688 35.1562C69.9688 35.4896 69.9375 35.8229 69.875 36.1562C69.8125 36.4896 69.6875 36.8021 69.5 37.0938C69.4583 37.3021 69.3958 37.6146 69.3125 38.0312C69.25 38.4271 69.1667 38.7083 69.0625 38.875C69.0417 38.9167 68.9792 38.9479 68.875 38.9688C68.7708 38.9896 68.6562 39.0104 68.5312 39.0312C68.4062 39.0521 68.2708 39.0938 68.125 39.1562C67.9792 39.2188 67.8542 39.3125 67.75 39.4375C67.6458 39.5417 67.5625 39.6875 67.5 39.875C67.4375 40.0625 67.3646 40.25 67.2812 40.4375C67.1979 40.625 67.0938 40.7917 66.9688 40.9375C66.8646 41.0625 66.7188 41.125 66.5312 41.125C66.3438 41.125 66.1771 41.0938 66.0312 41.0312C65.8854 40.9479 65.7396 40.875 65.5938 40.8125C65.4479 40.7292 65.3021 40.6667 65.1562 40.625C65.0104 40.5833 64.8333 40.5938 64.625 40.6562C64.6875 40.6979 64.7083 40.8021 64.6875 40.9688C64.6667 41.1146 64.6667 41.2708 64.6875 41.4375C64.7292 41.6042 64.8229 41.7604 64.9688 41.9062C65.1146 42.0521 65.375 42.125 65.75 42.125C65.9375 42.125 66.1146 42.1146 66.2812 42.0938C66.4688 42.0729 66.6562 42.0417 66.8438 42C66.6771 42.4583 66.4792 42.8229 66.25 43.0938C66.0208 43.3438 65.7604 43.5729 65.4688 43.7812C65.1979 43.9688 64.9062 44.1667 64.5938 44.375C64.3021 44.5625 64.0104 44.8125 63.7188 45.125C63.3646 45.4792 63.0208 45.6979 62.6875 45.7812C62.375 45.8646 62 45.9688 61.5625 46.0938C61.0625 46.2396 60.7083 46.4167 60.5 46.625C60.2917 46.8333 60.0625 47.0312 59.8125 47.2188C59.5625 47.4062 59.2188 47.5625 58.7812 47.6875C58.3646 47.8333 57.6979 47.9062 56.7812 47.9062C55.9479 47.9062 55.1146 47.875 54.2812 47.8125C53.4688 47.75 52.6562 47.6667 51.8438 47.5625C51.4688 47.5208 51.1562 47.4479 50.9062 47.3438C50.6771 47.2604 50.4583 47.1562 50.25 47.0312C50.0417 46.9271 49.8333 46.8125 49.625 46.6875C49.4167 46.5625 49.1562 46.4375 48.8438 46.3125C48.6771 46.25 48.4792 46.1667 48.25 46.0625C48.0208 45.9792 47.7812 45.8854 47.5312 45.7812C47.2812 45.6771 47.0521 45.5729 46.8438 45.4688C46.6354 45.3438 46.4688 45.2292 46.3438 45.125C46.1979 45 46.0938 44.8646 46.0312 44.7188C45.9896 44.5521 45.9479 44.3854 45.9062 44.2188C45.8646 44.0312 45.8125 43.8646 45.75 43.7188C45.7083 43.5521 45.6146 43.4167 45.4688 43.3125C45.1562 43.2708 44.8542 43.2188 44.5625 43.1562C44.2708 43.0729 43.9792 42.9792 43.6875 42.875C43.6042 42.6458 43.5208 42.4271 43.4375 42.2188C43.375 41.9896 43.3021 41.7604 43.2188 41.5312C42.9479 41.2396 42.6875 41 42.4375 40.8125C42.1875 40.6042 41.9688 40.3958 41.7812 40.1875C41.5938 39.9792 41.4271 39.7396 41.2812 39.4688C41.1562 39.1771 41.0729 38.8021 41.0312 38.3438C40.9688 37.8021 40.8438 37.2812 40.6562 36.7812C40.4688 36.2604 40.2708 35.75 40.0625 35.25C39.875 34.75 39.6979 34.2396 39.5312 33.7188C39.3854 33.1979 39.3125 32.6667 39.3125 32.125C39.3125 31.5625 39.4271 30.9896 39.6562 30.4062C39.0521 29.5521 38.6771 28.625 38.5312 27.625C38.3854 26.6042 38.3125 25.5833 38.3125 24.5625C38.3125 24.2292 38.3125 23.9062 38.3125 23.5938C38.3333 23.2604 38.3438 22.9375 38.3438 22.625C38.3438 22.2708 38.2604 22 38.0938 21.8125C37.9479 21.6042 37.875 21.3542 37.875 21.0625C37.875 20.6042 37.9375 20.1562 38.0625 19.7188C38.2083 19.2812 38.3021 18.8333 38.3438 18.375C38.0729 18.3333 37.8958 18.2292 37.8125 18.0625L37.875 17.9375C38.0208 17.6875 38.1354 17.4583 38.2188 17.25C38.3229 17.0417 38.3958 16.8438 38.4375 16.6562C38.4792 16.4688 38.5208 16.2708 38.5625 16.0625C38.6042 15.8542 38.6562 15.6146 38.7188 15.3438C38.8854 14.4896 39.0938 13.6562 39.3438 12.8438C39.6146 12.0312 39.875 11.2083 40.125 10.375C40.3958 9.41667 40.7292 8.57292 41.125 7.84375C41.5208 7.11458 42.1354 6.4375 42.9688 5.8125C43.3229 5.52083 43.6458 5.20833 43.9375 4.875C44.2292 4.54167 44.4375 4.14583 44.5625 3.6875C44.6667 3.60417 44.7812 3.55208 44.9062 3.53125C45.0312 3.51042 45.1562 3.5 45.2812 3.5H45.5312C45.6771 3.5 45.8125 3.48958 45.9375 3.46875C46.0833 3.42708 46.2188 3.35417 46.3438 3.25C46.6562 2.95833 46.9271 2.75 47.1562 2.625C47.4062 2.5 47.7396 2.4375 48.1562 2.4375C48.4479 2.4375 48.7292 2.46875 49 2.53125C49.2708 2.57292 49.5521 2.625 49.8438 2.6875C49.9479 2.58333 50.0938 2.44792 50.2812 2.28125C50.4896 2.09375 50.6667 1.96875 50.8125 1.90625V2C50.8125 2.08333 50.8229 2.16667 50.8438 2.25C50.8854 2.3125 50.9583 2.34375 51.0625 2.34375C51.3333 2.34375 51.5938 2.28125 51.8438 2.15625C52.0938 2.03125 52.3542 1.94792 52.625 1.90625C53.2292 1.80208 53.8333 1.64583 54.4375 1.4375C55.0417 1.20833 55.6562 1.09375 56.2812 1.09375C56.9479 1.09375 57.6562 1.13542 58.4062 1.21875C59.1771 1.30208 59.9271 1.45833 60.6562 1.6875C61.3854 1.91667 62.0625 2.23958 62.6875 2.65625C63.3125 3.05208 63.8125 3.57292 64.1875 4.21875C64.3542 4.51042 64.5208 4.73958 64.6875 4.90625C64.8542 5.05208 65.0208 5.1875 65.1875 5.3125C65.3542 5.41667 65.5208 5.53125 65.6875 5.65625C65.8542 5.76042 66.0312 5.91667 66.2188 6.125C66.6146 6.58333 66.9271 7.08333 67.1562 7.625C67.4062 8.14583 67.75 8.61458 68.1875 9.03125C68.7292 9.53125 69.125 10.1354 69.375 10.8438C69.6458 11.5521 69.7812 12.2708 69.7812 13C69.7812 13.2292 69.75 13.4583 69.6875 13.6875C69.625 13.9167 69.5938 14.1562 69.5938 14.4062C69.5938 14.6146 69.6354 14.8333 69.7188 15.0625C69.8229 15.2917 69.9375 15.5312 70.0625 15.7812C70.1875 16.0312 70.3021 16.2917 70.4062 16.5625C70.5104 16.8333 70.5833 17.0938 70.625 17.3438C70.6875 17.9062 70.7812 18.4583 70.9062 19C71.0312 19.5208 71.1562 20.0625 71.2812 20.625C71.4479 21.3333 71.5729 22.0521 71.6562 22.7812C71.7396 23.5104 71.7708 24.2396 71.75 24.9688ZM66.6562 24.75C66.6562 23.5833 66.5521 22.4271 66.3438 21.2812C66.1562 20.1354 65.9688 18.9896 65.7812 17.8438C65.6979 17.4271 65.5625 17.0312 65.375 16.6562C65.2083 16.2812 65.0625 15.8958 64.9375 15.5C64.6875 14.75 64.4479 14 64.2188 13.25C63.9896 12.5 63.7604 11.75 63.5312 11C63.3854 10.5417 63.0938 10.1458 62.6562 9.8125C62.2188 9.45833 61.7083 9.16667 61.125 8.9375C60.5417 8.6875 59.9062 8.48958 59.2188 8.34375C58.5521 8.17708 57.9062 8.05208 57.2812 7.96875C56.6562 7.86458 56.0729 7.80208 55.5312 7.78125C55.0104 7.73958 54.6146 7.71875 54.3438 7.71875L54.75 7.6875L54.4062 7.71875C53.9479 7.71875 53.4896 7.69792 53.0312 7.65625C52.5938 7.61458 52.1458 7.59375 51.6875 7.59375C51.3125 7.59375 50.9375 7.625 50.5625 7.6875C50.2083 7.72917 49.8854 7.86458 49.5938 8.09375C48.9062 8.63542 48.2604 9.14583 47.6562 9.625C47.0521 10.0833 46.5521 10.7188 46.1562 11.5312C46.0312 11.8021 45.8958 12 45.75 12.125C45.6042 12.2292 45.4583 12.3438 45.3125 12.4688C45.1875 12.5729 45.0729 12.6979 44.9688 12.8438C44.8646 12.9896 44.7917 13.2292 44.75 13.5625C44.6458 14.1667 44.5208 14.7708 44.375 15.375C44.25 15.9583 44.1875 16.5521 44.1875 17.1562C44.1875 17.8021 44.125 18.4479 44 19.0938C43.8958 19.7188 43.7188 20.3333 43.4688 20.9375C43.4062 21.1042 43.3438 21.2604 43.2812 21.4062C43.2396 21.5521 43.2188 21.7083 43.2188 21.875C43.2188 22.1875 43.2917 22.4583 43.4375 22.6875C43.5833 22.8958 43.6562 23.0833 43.6562 23.25C43.6562 23.3333 43.625 23.3854 43.5625 23.4062C43.5208 23.4062 43.4688 23.4271 43.4062 23.4688C43.3646 23.4896 43.3125 23.5521 43.25 23.6562C43.2083 23.7604 43.1875 23.9479 43.1875 24.2188C43.1875 24.8229 43.1875 25.4375 43.1875 26.0625C43.2083 26.6875 43.2708 27.3021 43.375 27.9062C43.4375 28.2604 43.5417 28.6042 43.6875 28.9375C43.8542 29.25 43.9375 29.5833 43.9375 29.9375C43.9375 30.1667 43.8854 30.3958 43.7812 30.625C43.6771 30.8542 43.625 31.0938 43.625 31.3438C43.625 31.6354 43.7083 31.875 43.875 32.0625C44.0417 32.2292 44.2083 32.4271 44.375 32.6562C44.5 32.8229 44.6042 33.0417 44.6875 33.3125C44.7917 33.5625 44.8854 33.8021 44.9688 34.0312C45.0729 34.2604 45.1667 34.4583 45.25 34.625C45.3333 34.7917 45.4271 34.875 45.5312 34.875C45.6146 34.875 45.6875 34.8646 45.75 34.8438C45.8125 34.8021 45.8854 34.7812 45.9688 34.7812C46.3854 34.7812 46.6979 34.9688 46.9062 35.3438C47.1354 35.6979 47.25 36.0521 47.25 36.4062C47.25 36.6979 47.3333 36.9479 47.5 37.1562C47.6667 37.3438 47.8646 37.5208 48.0938 37.6875C48.3229 37.8542 48.5521 38.0208 48.7812 38.1875C49.0312 38.3333 49.2396 38.5 49.4062 38.6875C49.6771 39 49.8854 39.2083 50.0312 39.3125C50.1979 39.4167 50.3438 39.4896 50.4688 39.5312C50.5938 39.5521 50.7083 39.5729 50.8125 39.5938C50.9375 39.6146 51.0938 39.6875 51.2812 39.8125C51.5104 39.9792 51.7396 40.1667 51.9688 40.375C52.2188 40.5625 52.4583 40.7396 52.6875 40.9062C53.3333 41.3646 54.0521 41.6458 54.8438 41.75C55.6562 41.8333 56.4479 41.875 57.2188 41.875C57.5312 41.875 57.8229 41.8021 58.0938 41.6562C58.3646 41.5104 58.6354 41.3542 58.9062 41.1875C59.1771 41 59.4479 40.8333 59.7188 40.6875C60.0104 40.5417 60.3229 40.4688 60.6562 40.4688C60.9271 40.4688 61.2083 40.5312 61.5 40.6562C61.9792 39.9271 62.4375 39.3438 62.875 38.9062C63.3125 38.4688 63.7083 38.0417 64.0625 37.625C64.4167 37.2083 64.7188 36.7292 64.9688 36.1875C65.2188 35.6458 65.3958 34.9062 65.5 33.9688C65.5417 33.5729 65.6458 33.2083 65.8125 32.875C66 32.5208 66.1146 32.1562 66.1562 31.7812C66.2604 30.9479 66.3125 30.1146 66.3125 29.2812C66.3333 28.4479 66.4062 27.6146 66.5312 26.7812C66.5729 26.4479 66.6042 26.1146 66.625 25.7812C66.6458 25.4479 66.6562 25.1042 66.6562 24.75ZM113.656 3.75C113.656 4 113.562 4.21875 113.375 4.40625C113.188 4.57292 112.958 4.71875 112.688 4.84375C112.438 4.96875 112.177 5.08333 111.906 5.1875C111.635 5.29167 111.406 5.38542 111.219 5.46875C111.052 5.55208 110.906 5.64583 110.781 5.75C110.677 5.85417 110.562 5.96875 110.438 6.09375C110.333 6.19792 110.208 6.29167 110.062 6.375C109.938 6.45833 109.771 6.53125 109.562 6.59375C109.292 6.65625 109.052 6.6875 108.844 6.6875C108.635 6.6875 108.438 6.70833 108.25 6.75C108.062 6.77083 107.896 6.84375 107.75 6.96875C107.604 7.09375 107.458 7.3125 107.312 7.625C107.188 7.89583 107.094 8.21875 107.031 8.59375C106.99 8.94792 106.917 9.29167 106.812 9.625C106.708 9.95833 106.552 10.2396 106.344 10.4688C106.156 10.6979 105.854 10.8125 105.438 10.8125C105.438 11.0417 105.51 11.2812 105.656 11.5312C105.823 11.7604 105.99 11.9896 106.156 12.2188C106.344 12.4479 106.51 12.6875 106.656 12.9375C106.802 13.1667 106.875 13.3958 106.875 13.625C106.875 13.875 106.823 14.1146 106.719 14.3438C106.615 14.5729 106.562 14.8125 106.562 15.0625L106.531 16.9688C106.51 17.3854 106.583 17.8021 106.75 18.2188C106.938 18.6146 107.031 19.0312 107.031 19.4688C107.031 19.7188 106.979 19.9688 106.875 20.2188C106.771 20.4479 106.719 20.6979 106.719 20.9688C106.719 21.8438 106.802 22.7188 106.969 23.5938C107.156 24.4479 107.25 25.3333 107.25 26.25C107.25 26.8542 107.198 27.5104 107.094 28.2188C106.99 28.9062 106.74 29.4896 106.344 29.9688C106.365 30.2604 106.427 30.5104 106.531 30.7188C106.635 30.9062 106.74 31.1146 106.844 31.3438C106.948 31.5521 107.042 31.7917 107.125 32.0625C107.229 32.3125 107.281 32.6458 107.281 33.0625C107.281 33.4375 107.24 33.9375 107.156 34.5625C107.094 35.1667 106.969 35.7604 106.781 36.3438C106.594 36.9062 106.333 37.4062 106 37.8438C105.688 38.2604 105.281 38.4688 104.781 38.4688C104.74 38.4688 104.698 38.4688 104.656 38.4688C104.635 38.4479 104.604 38.4375 104.562 38.4375L104.531 38.625V38.7188C104.531 39.0104 104.615 39.2708 104.781 39.5C104.969 39.7292 105.062 39.9896 105.062 40.2812C105.062 40.4271 104.969 40.6146 104.781 40.8438C104.615 41.0729 104.406 41.3125 104.156 41.5625C103.906 41.8125 103.646 42.0521 103.375 42.2812C103.125 42.5104 102.917 42.7083 102.75 42.875C102.562 43.0625 102.417 43.25 102.312 43.4375C102.229 43.6042 102.135 43.7604 102.031 43.9062C101.948 44.0312 101.823 44.1458 101.656 44.25C101.51 44.3333 101.281 44.4062 100.969 44.4688C100.427 44.5729 99.9479 44.7292 99.5312 44.9375C99.1146 45.1458 98.7083 45.3646 98.3125 45.5938C97.9167 45.8021 97.4896 45.9792 97.0312 46.125C96.5729 46.2917 96.0208 46.375 95.375 46.375C95.0208 46.375 94.6771 46.3333 94.3438 46.25C94.0104 46.1667 93.6771 46.0729 93.3438 45.9688C93.0104 45.8438 92.6667 45.7396 92.3125 45.6562C91.9792 45.5729 91.6458 45.5312 91.3125 45.5312C91.0417 45.5312 90.7708 45.5521 90.5 45.5938C90.25 45.6146 89.9896 45.625 89.7188 45.625C89.5104 45.625 89.3438 45.6146 89.2188 45.5938C89.1146 45.5729 88.9896 45.4896 88.8438 45.3438C88.7396 45.2188 88.5729 45.1042 88.3438 45C88.1354 44.8958 87.9062 44.8021 87.6562 44.7188C87.4062 44.6146 87.1562 44.5312 86.9062 44.4688C86.6562 44.3854 86.4479 44.3229 86.2812 44.2812C85.9062 44.1771 85.5417 43.9688 85.1875 43.6562C84.8542 43.3438 84.5417 42.9896 84.25 42.5938C83.9792 42.1771 83.7292 41.75 83.5 41.3125C83.2917 40.875 83.125 40.4792 83 40.125C82.75 39.4167 82.5729 38.6979 82.4688 37.9688C82.3646 37.2188 82.2812 36.4792 82.2188 35.75C82.1562 35 82.0833 34.2604 82 33.5312C81.9375 32.7812 81.8125 32.0417 81.625 31.3125C81.5417 31.0208 81.4479 30.7292 81.3438 30.4375C81.2604 30.125 81.2188 29.8125 81.2188 29.5C81.2188 29.2708 81.2396 29.0521 81.2812 28.8438C81.3229 28.6146 81.3646 28.3854 81.4062 28.1562C81.5729 27.2812 81.6979 26.3958 81.7812 25.5C81.8854 24.6042 81.9375 23.7083 81.9375 22.8125C81.9375 21.625 81.875 20.4479 81.75 19.2812C81.6458 18.1146 81.5938 16.9375 81.5938 15.75C81.5938 15.5208 81.5938 15.3021 81.5938 15.0938C81.5938 14.8854 81.6042 14.6667 81.625 14.4375C81.6667 14.0208 81.75 13.6146 81.875 13.2188C82.0208 12.8229 82.0938 12.4167 82.0938 12C82.0938 11.8542 82.0729 11.7188 82.0312 11.5938C81.9896 11.4688 81.9479 11.3333 81.9062 11.1875C81.6562 10.6458 81.5104 10.1562 81.4688 9.71875C81.4271 9.26042 81.3854 8.73958 81.3438 8.15625C81.2604 7.26042 81.0729 6.625 80.7812 6.25C80.5104 5.875 80.1562 5.60417 79.7188 5.4375C79.3021 5.27083 78.8333 5.13542 78.3125 5.03125C77.8125 4.90625 77.2812 4.63542 76.7188 4.21875C76.5521 4.11458 76.4062 3.98958 76.2812 3.84375C76.1771 3.67708 76.125 3.5 76.125 3.3125C76.125 2.97917 76.3021 2.67708 76.6562 2.40625C77.0312 2.13542 77.4688 1.91667 77.9688 1.75C78.4688 1.58333 78.9688 1.45833 79.4688 1.375C79.9688 1.27083 80.3542 1.21875 80.625 1.21875C80.9583 1.21875 81.2708 1.26042 81.5625 1.34375C81.875 1.42708 82.1979 1.46875 82.5312 1.46875C83.1979 1.46875 83.8438 1.39583 84.4688 1.25C85.0938 1.08333 85.7396 1 86.4062 1C86.6771 1 87.0938 1.05208 87.6562 1.15625C88.2188 1.26042 88.7812 1.41667 89.3438 1.625C89.9062 1.8125 90.3958 2.05208 90.8125 2.34375C91.25 2.61458 91.4688 2.92708 91.4688 3.28125C91.4688 3.73958 91.3229 4.17708 91.0312 4.59375C90.7604 4.98958 90.4167 5.375 90 5.75C89.5833 6.125 89.125 6.51042 88.625 6.90625C88.1458 7.30208 87.6979 7.72917 87.2812 8.1875C86.8646 8.64583 86.5104 9.16667 86.2188 9.75C85.9479 10.3125 85.8125 10.9479 85.8125 11.6562C85.8125 12.0729 85.8229 12.5 85.8438 12.9375C85.8854 13.3542 85.9062 13.7708 85.9062 14.1875C85.9062 15.0208 85.8229 15.8438 85.6562 16.6562C85.5104 17.4688 85.4375 18.3021 85.4375 19.1562C85.4375 19.8438 85.5312 20.4688 85.7188 21.0312C85.9271 21.5729 86.0312 22 86.0312 22.3125C86.0312 22.6458 85.9896 22.9583 85.9062 23.25C85.8438 23.5208 85.8125 23.8125 85.8125 24.125C85.8125 24.2708 85.8125 24.4062 85.8125 24.5312C85.8333 24.6562 85.8438 24.7917 85.8438 24.9375C85.8438 25.2708 85.7917 25.5417 85.6875 25.75C85.6042 25.9583 85.5104 26.1458 85.4062 26.3125C85.3021 26.4792 85.1979 26.6354 85.0938 26.7812C84.9896 26.9271 84.9375 27.0938 84.9375 27.2812C85.0417 27.1979 85.1458 27.125 85.25 27.0625C85.3542 27 85.4688 26.9688 85.5938 26.9688C85.7396 26.9688 85.8542 27.0208 85.9375 27.125C86.0208 27.2292 86.0833 27.3542 86.125 27.5C86.1875 27.625 86.2292 27.7708 86.25 27.9375C86.2708 28.0833 86.2812 28.2083 86.2812 28.3125C86.2812 28.8542 86.3542 29.3854 86.5 29.9062C86.6667 30.4271 86.75 30.9583 86.75 31.5C86.75 31.9792 86.7083 32.4688 86.625 32.9688C86.5417 33.4479 86.5 33.9375 86.5 34.4375C86.5 34.9167 86.5312 35.3646 86.5938 35.7812C86.6771 36.1771 86.9583 36.5 87.4375 36.75C87.5208 36.7917 87.6146 36.9167 87.7188 37.125C87.8229 37.3333 87.9271 37.5625 88.0312 37.8125C88.1562 38.0417 88.2812 38.2812 88.4062 38.5312C88.5312 38.7604 88.6562 38.9271 88.7812 39.0312C89.0312 39.2604 89.3021 39.4479 89.5938 39.5938C89.8854 39.7396 90.1771 39.8854 90.4688 40.0312C90.7812 40.1562 91.0729 40.3021 91.3438 40.4688C91.6354 40.6146 91.8958 40.8229 92.125 41.0938C92.3125 41.3229 92.5521 41.5312 92.8438 41.7188C93.1354 41.8854 93.4167 42.0729 93.6875 42.2812C93.9792 42.4688 94.2292 42.6771 94.4375 42.9062C94.6458 43.1354 94.75 43.4167 94.75 43.75C94.75 43.4792 94.7917 43.2604 94.875 43.0938C94.8958 43.1562 94.9062 43.25 94.9062 43.375C94.9062 43.5417 94.8646 43.6667 94.7812 43.75C94.8438 43.6875 94.9167 43.5833 95 43.4375C95.0833 43.2917 95.1667 43.1458 95.25 43C95.3333 42.8542 95.4167 42.7292 95.5 42.625C95.5833 42.5208 95.6771 42.4688 95.7812 42.4688C95.9271 42.4688 96.0625 42.5208 96.1875 42.625C96.3125 42.7292 96.375 42.8646 96.375 43.0312C96.375 43.2396 96.3333 43.4375 96.25 43.625C96.1667 43.8125 96.1146 44.0104 96.0938 44.2188C96.3021 44.2188 96.5104 44.1771 96.7188 44.0938C96.9479 43.9896 97.1562 43.8646 97.3438 43.7188C97.5312 43.5729 97.6771 43.4062 97.7812 43.2188C97.9062 43.0104 97.9688 42.7917 97.9688 42.5625C97.9688 42.2917 97.8854 42.125 97.7188 42.0625C97.5729 41.9792 97.3854 41.9375 97.1562 41.9375C96.9896 41.9375 96.8229 41.9479 96.6562 41.9688C96.5104 41.9896 96.3542 42 96.1875 42H96.0938C96.1979 41.6875 96.3542 41.4271 96.5625 41.2188C96.7708 41.0104 97.0104 40.8438 97.2812 40.7188C97.5521 40.5729 97.8333 40.4583 98.125 40.375C98.4167 40.2708 98.6979 40.1667 98.9688 40.0625C99.4062 39.8958 99.7604 39.6771 100.031 39.4062C100.302 39.1146 100.552 38.8125 100.781 38.5C101.01 38.1875 101.24 37.875 101.469 37.5625C101.698 37.2292 101.979 36.9271 102.312 36.6562C102.333 36.5104 102.344 36.375 102.344 36.25C102.344 36.125 102.344 36 102.344 35.875C102.344 35.4375 102.323 35.0104 102.281 34.5938C102.26 34.1562 102.25 33.7188 102.25 33.2812C102.25 32.8021 102.312 32.3229 102.438 31.8438C102.583 31.3646 102.656 30.8854 102.656 30.4062C102.656 29.9896 102.604 29.5938 102.5 29.2188C102.396 28.8229 102.344 28.4167 102.344 28C102.344 27.625 102.396 27.2604 102.5 26.9062C102.604 26.5312 102.656 26.1562 102.656 25.7812C102.656 25.1771 102.604 24.5938 102.5 24.0312C102.396 23.4479 102.344 22.8646 102.344 22.2812C102.344 21.4896 102.406 20.7188 102.531 19.9688C102.677 19.2188 102.75 18.4583 102.75 17.6875C102.75 16.6875 102.656 15.7083 102.469 14.75C102.302 13.7917 102.219 12.8125 102.219 11.8125C102.219 11.6667 102.219 11.4792 102.219 11.25C102.24 11 102.271 10.7604 102.312 10.5312C102.375 10.2812 102.458 10.0729 102.562 9.90625C102.667 9.71875 102.823 9.625 103.031 9.625C102.844 9.60417 102.604 9.47917 102.312 9.25C102.042 9 101.771 8.72917 101.5 8.4375C101.25 8.125 101.021 7.82292 100.812 7.53125C100.625 7.21875 100.531 6.97917 100.531 6.8125C100.427 6.83333 100.323 6.85417 100.219 6.875C100.135 6.875 100.042 6.875 99.9375 6.875C99.6458 6.875 99.3646 6.82292 99.0938 6.71875C98.8438 6.61458 98.5938 6.51042 98.3438 6.40625C98.0938 6.28125 97.8333 6.16667 97.5625 6.0625C97.2917 5.95833 97 5.90625 96.6875 5.90625H96.5312C96.4479 5.38542 96.3125 4.88542 96.125 4.40625C95.9583 3.92708 95.875 3.41667 95.875 2.875C95.875 2.45833 95.9792 2.125 96.1875 1.875C96.4167 1.625 96.6979 1.4375 97.0312 1.3125C97.3646 1.16667 97.7188 1.07292 98.0938 1.03125C98.4896 0.989583 98.8438 0.96875 99.1562 0.96875C99.7396 0.96875 100.312 1 100.875 1.0625C101.438 1.125 102.01 1.15625 102.594 1.15625C103.031 1.15625 103.438 1.0625 103.812 0.875C104.188 0.666667 104.583 0.5625 105 0.5625C105.229 0.5625 105.469 0.614583 105.719 0.71875C105.969 0.802083 106.219 0.90625 106.469 1.03125C106.74 1.15625 107.01 1.28125 107.281 1.40625C107.552 1.51042 107.812 1.58333 108.062 1.625C108.458 1.6875 108.875 1.71875 109.312 1.71875C109.771 1.71875 110.219 1.73958 110.656 1.78125C111.094 1.82292 111.51 1.90625 111.906 2.03125C112.302 2.13542 112.667 2.33333 113 2.625C113.167 2.77083 113.312 2.9375 113.438 3.125C113.583 3.3125 113.656 3.52083 113.656 3.75ZM152.406 4.9375C152.406 5.125 152.354 5.33333 152.25 5.5625C152.167 5.79167 152.01 5.90625 151.781 5.90625C151.698 5.90625 151.615 5.86458 151.531 5.78125C151.469 5.69792 151.406 5.60417 151.344 5.5C151.281 5.39583 151.208 5.30208 151.125 5.21875C151.062 5.13542 150.99 5.08333 150.906 5.0625C150.927 5.45833 150.927 5.76042 150.906 5.96875C150.885 6.17708 150.854 6.33333 150.812 6.4375C150.771 6.52083 150.708 6.57292 150.625 6.59375C150.562 6.59375 150.49 6.59375 150.406 6.59375C150.24 6.59375 150.083 6.60417 149.938 6.625C149.792 6.64583 149.646 6.67708 149.5 6.71875C149.021 6.82292 148.656 6.89583 148.406 6.9375C148.177 6.95833 148.01 7.02083 147.906 7.125C147.802 7.22917 147.74 7.39583 147.719 7.625C147.698 7.85417 147.667 8.21875 147.625 8.71875C147.583 9.09375 147.552 9.46875 147.531 9.84375C147.51 10.1979 147.5 10.5625 147.5 10.9375C147.5 11.9375 147.542 12.9167 147.625 13.875C147.729 14.8333 147.781 15.8125 147.781 16.8125C147.781 17.2917 147.74 17.7604 147.656 18.2188C147.594 18.6771 147.562 19.1458 147.562 19.625C147.562 20.0417 147.646 20.4583 147.812 20.875C148 21.2708 148.094 21.6458 148.094 22C148.094 22.1042 148.052 22.2083 147.969 22.3125C147.906 22.3958 147.823 22.4896 147.719 22.5938C147.635 22.6979 147.552 22.8125 147.469 22.9375C147.406 23.0625 147.375 23.2083 147.375 23.375C147.375 23.8125 147.448 24.2396 147.594 24.6562C147.76 25.0521 147.844 25.4688 147.844 25.9062C147.844 26.5729 147.802 27.2396 147.719 27.9062C147.635 28.5729 147.542 29.2396 147.438 29.9062C147.354 30.5729 147.271 31.2396 147.188 31.9062C147.104 32.5729 147.062 33.2396 147.062 33.9062C147.062 34.4479 147.094 34.9688 147.156 35.4688C147.24 35.9479 147.375 36.4271 147.562 36.9062C147.604 37.0104 147.646 37.125 147.688 37.25C147.729 37.375 147.75 37.4896 147.75 37.5938C147.75 37.8646 147.677 38.0938 147.531 38.2812C147.406 38.4479 147.344 38.5938 147.344 38.7188C147.344 38.8229 147.406 38.9479 147.531 39.0938C147.677 39.2396 147.771 39.375 147.812 39.5C147.958 39.9792 148.073 40.5104 148.156 41.0938C148.24 41.6562 148.281 42.1875 148.281 42.6875C148.281 43.125 148.167 43.5521 147.938 43.9688C147.708 44.3854 147.406 44.7604 147.031 45.0938C146.656 45.4062 146.229 45.6667 145.75 45.875C145.292 46.0833 144.823 46.1875 144.344 46.1875C143.698 46.1875 143.146 45.9896 142.688 45.5938C142.25 45.1979 141.865 44.7188 141.531 44.1562C141.219 43.5729 140.927 42.9688 140.656 42.3438C140.406 41.7188 140.156 41.1771 139.906 40.7188C139.698 40.3438 139.531 39.9896 139.406 39.6562C139.302 39.3021 139.188 38.9583 139.062 38.625C138.938 38.2917 138.781 37.9688 138.594 37.6562C138.406 37.3229 138.146 37 137.812 36.6875C137.542 36.4375 137.333 36.1458 137.188 35.8125C137.042 35.4583 136.917 35.0938 136.812 34.7188C136.729 34.3229 136.646 33.9375 136.562 33.5625C136.5 33.1667 136.427 32.8021 136.344 32.4688C136.115 31.6562 135.844 30.8542 135.531 30.0625C135.219 29.2708 134.917 28.4792 134.625 27.6875C134.521 27.4375 134.385 27.1562 134.219 26.8438C134.073 26.5312 133.917 26.2188 133.75 25.9062C133.583 25.5938 133.427 25.2917 133.281 25C133.156 24.7083 133.083 24.4375 133.062 24.1875C132.979 23.5 132.802 22.8854 132.531 22.3438C132.26 21.7812 131.969 21.25 131.656 20.75C131.344 20.25 131.042 19.7396 130.75 19.2188C130.458 18.6979 130.26 18.1146 130.156 17.4688C130.115 17.2604 130.042 16.9896 129.938 16.6562C129.833 16.3021 129.698 15.9583 129.531 15.625C129.365 15.2708 129.167 14.9688 128.938 14.7188C128.708 14.4688 128.469 14.3438 128.219 14.3438C127.99 14.3438 127.802 14.4583 127.656 14.6875C127.531 14.8958 127.427 15.1562 127.344 15.4688C127.26 15.7604 127.198 16.0625 127.156 16.375C127.135 16.6667 127.125 16.8854 127.125 17.0312C127.125 17.4479 127.146 17.8646 127.188 18.2812C127.25 18.6979 127.281 19.1146 127.281 19.5312C127.281 19.8438 127.219 20.1458 127.094 20.4375C126.969 20.7292 126.906 21.0208 126.906 21.3125C126.906 21.5 126.969 21.6562 127.094 21.7812C127.24 21.9062 127.312 22.0521 127.312 22.2188C127.312 22.3854 127.292 22.5521 127.25 22.7188C127.208 22.8646 127.188 23.0208 127.188 23.1875C127.188 23.7083 127.208 24.2188 127.25 24.7188C127.312 25.2188 127.344 25.7188 127.344 26.2188C127.344 26.5729 127.323 26.9375 127.281 27.3125C127.24 27.6667 127.156 28 127.031 28.3125C126.906 28.625 126.719 28.8958 126.469 29.125C126.219 29.3333 125.896 29.4688 125.5 29.5312C125.583 29.6979 125.688 29.8125 125.812 29.875C125.958 29.9167 126.104 29.9479 126.25 29.9688C126.396 29.9896 126.521 30.0208 126.625 30.0625C126.729 30.1042 126.781 30.2188 126.781 30.4062C126.781 30.5104 126.771 30.6042 126.75 30.6875C126.75 30.75 126.75 30.8229 126.75 30.9062C126.75 31.1354 126.792 31.3229 126.875 31.4688C126.979 31.6146 127.094 31.7604 127.219 31.9062C127.344 32.0312 127.448 32.1667 127.531 32.3125C127.635 32.4375 127.688 32.6042 127.688 32.8125C127.688 33.0625 127.656 33.3021 127.594 33.5312C127.531 33.7604 127.5 33.9896 127.5 34.2188C127.5 34.7188 127.562 35.2083 127.688 35.6875C127.812 36.1458 127.875 36.625 127.875 37.125C127.875 37.3958 127.844 37.5938 127.781 37.7188C127.74 37.8229 127.677 37.9062 127.594 37.9688C127.531 38.0312 127.469 38.0833 127.406 38.125C127.365 38.1458 127.344 38.2188 127.344 38.3438C127.344 38.5521 127.375 38.75 127.438 38.9375C127.5 39.1042 127.531 39.2917 127.531 39.5C127.531 39.625 127.51 39.75 127.469 39.875C127.448 40 127.385 40.1146 127.281 40.2188C127.302 40.4688 127.385 40.6458 127.531 40.75C127.677 40.8542 127.844 40.9479 128.031 41.0312C128.24 41.1146 128.438 41.2083 128.625 41.3125C128.812 41.3958 128.958 41.5521 129.062 41.7812C129.146 41.9688 129.229 42.1458 129.312 42.3125C129.417 42.4583 129.583 42.5312 129.812 42.5312C130.167 42.5312 130.49 42.4583 130.781 42.3125C131.073 42.1458 131.385 42.0625 131.719 42.0625C132.26 42.0625 132.635 42.2812 132.844 42.7188C133.052 43.1354 133.156 43.5729 133.156 44.0312C133.156 44.6146 133.052 45.0312 132.844 45.2812C132.656 45.5104 132.438 45.6875 132.188 45.8125C131.958 45.9167 131.74 46.0208 131.531 46.125C131.344 46.2292 131.25 46.4271 131.25 46.7188C131.25 46.7604 131.25 46.7917 131.25 46.8125C131.271 46.8333 131.281 46.8646 131.281 46.9062C130.99 46.7188 130.677 46.5833 130.344 46.5C130.031 46.4167 129.698 46.375 129.344 46.375C128.719 46.375 128.094 46.4583 127.469 46.625C126.865 46.8125 126.25 46.9062 125.625 46.9062C125.167 46.9062 124.719 46.8646 124.281 46.7812C123.844 46.6979 123.396 46.6562 122.938 46.6562C122.646 46.6562 122.354 46.6875 122.062 46.75C121.792 46.8333 121.51 46.875 121.219 46.875C120.927 46.875 120.542 46.8021 120.062 46.6562C119.583 46.5312 119.115 46.3542 118.656 46.125C118.198 45.9167 117.802 45.6875 117.469 45.4375C117.156 45.1667 117 44.9167 117 44.6875C117 44.0625 117.208 43.5 117.625 43C118.042 42.4792 118.562 42.1667 119.188 42.0625C119.5 42 119.844 41.9688 120.219 41.9688C120.615 41.9688 121 41.9583 121.375 41.9375C121.75 41.8958 122.104 41.8229 122.438 41.7188C122.771 41.5938 123.052 41.3854 123.281 41.0938C123.198 40.7812 123.156 40.4271 123.156 40.0312C123.156 39.3021 123.25 38.5938 123.438 37.9062C123.625 37.2188 123.719 36.5104 123.719 35.7812C123.719 35.4896 123.688 35.1875 123.625 34.875C123.375 33.4375 123.25 31.9896 123.25 30.5312C123.25 30.1146 123.26 29.6979 123.281 29.2812C123.302 28.8438 123.312 28.4167 123.312 28C123.312 26.9167 123.229 25.8438 123.062 24.7812C122.917 23.7188 122.823 22.6458 122.781 21.5625C122.74 20.4167 122.719 19.2917 122.719 18.1875C122.719 17.0625 122.604 15.9375 122.375 14.8125C122.312 14.5208 122.271 14.2396 122.25 13.9688C122.25 13.6979 122.25 13.4167 122.25 13.125V12C122.25 11.125 122.208 10.4688 122.125 10.0312C122.042 9.59375 121.896 9.28125 121.688 9.09375C121.479 8.88542 121.208 8.76042 120.875 8.71875C120.562 8.65625 120.167 8.59375 119.688 8.53125C119.417 8.48958 119.135 8.35417 118.844 8.125C118.573 7.89583 118.312 7.625 118.062 7.3125C117.833 7 117.635 6.67708 117.469 6.34375C117.323 6.01042 117.25 5.70833 117.25 5.4375V4.75C117.25 3.91667 117.375 3.28125 117.625 2.84375C117.875 2.38542 118.219 2.05208 118.656 1.84375C119.094 1.61458 119.604 1.47917 120.188 1.4375C120.792 1.39583 121.438 1.375 122.125 1.375C122.812 1.375 123.521 1.40625 124.25 1.46875C125 1.51042 125.719 1.625 126.406 1.8125C127.094 1.97917 127.719 2.23958 128.281 2.59375C128.844 2.92708 129.302 3.38542 129.656 3.96875C129.885 4.36458 130.083 4.78125 130.25 5.21875C130.417 5.63542 130.573 6.0625 130.719 6.5C130.865 6.9375 131.01 7.375 131.156 7.8125C131.302 8.22917 131.49 8.63542 131.719 9.03125C131.823 9.21875 131.896 9.42708 131.938 9.65625C132 9.86458 132.052 10.0833 132.094 10.3125C132.156 10.5208 132.219 10.7292 132.281 10.9375C132.344 11.125 132.438 11.3125 132.562 11.5C132.708 11.6667 132.875 11.8438 133.062 12.0312C133.271 12.1979 133.427 12.3854 133.531 12.5938C133.719 13.0104 133.844 13.4479 133.906 13.9062C133.99 14.3438 134.062 14.7917 134.125 15.25C134.188 15.6875 134.25 16.1354 134.312 16.5938C134.396 17.0312 134.531 17.4583 134.719 17.875C134.844 18.125 134.958 18.3333 135.062 18.5C135.188 18.6667 135.292 18.8333 135.375 19C135.479 19.1458 135.562 19.3229 135.625 19.5312C135.708 19.7188 135.771 19.9688 135.812 20.2812C135.854 20.7396 135.896 21.1979 135.938 21.6562C135.979 22.0938 136.083 22.5312 136.25 22.9688C136.375 23.2812 136.542 23.5729 136.75 23.8438C136.958 24.1146 137.167 24.3854 137.375 24.6562C137.604 24.9062 137.823 25.1667 138.031 25.4375C138.24 25.7083 138.396 26.0104 138.5 26.3438C138.708 26.9688 138.906 27.5521 139.094 28.0938C139.281 28.6354 139.646 29.1146 140.188 29.5312C140.062 29.7188 139.948 29.9271 139.844 30.1562C139.76 30.3646 139.719 30.5833 139.719 30.8125C139.719 31.25 139.823 31.6875 140.031 32.125C140.26 32.5417 140.458 32.9479 140.625 33.3438C140.75 33.6562 140.875 33.9271 141 34.1562C141.146 34.3854 141.385 34.5833 141.719 34.75C142.01 34.8958 142.208 35.0312 142.312 35.1562C142.417 35.2604 142.479 35.3854 142.5 35.5312C142.521 35.6562 142.521 35.8125 142.5 36C142.5 36.1667 142.531 36.3854 142.594 36.6562C142.615 36.7812 142.656 36.9375 142.719 37.125C142.781 37.2917 142.854 37.4688 142.938 37.6562C143.042 37.8229 143.156 37.9688 143.281 38.0938C143.406 38.2188 143.542 38.2812 143.688 38.2812C143.812 38.2812 143.906 38.2396 143.969 38.1562C144.031 38.0521 144.083 37.9375 144.125 37.8125C144.167 37.6875 144.188 37.5625 144.188 37.4375C144.208 37.2917 144.219 37.1771 144.219 37.0938C144.219 36.8021 144.292 36.5417 144.438 36.3125C144.604 36.0625 144.688 35.7812 144.688 35.4688C144.688 35.1146 144.604 34.7917 144.438 34.5C144.292 34.2083 144.219 33.8854 144.219 33.5312C144.219 33.2396 144.271 32.9792 144.375 32.75C144.5 32.5 144.562 32.2292 144.562 31.9375C144.562 31.7292 144.479 31.5521 144.312 31.4062C144.167 31.2604 144.094 31.1146 144.094 30.9688C144.094 30.9062 144.125 30.875 144.188 30.875C144.25 30.8542 144.312 30.8333 144.375 30.8125C144.438 30.7917 144.5 30.7604 144.562 30.7188C144.625 30.6562 144.656 30.5521 144.656 30.4062C144.656 29.9062 144.594 29.4271 144.469 28.9688C144.365 28.4896 144.24 28.0104 144.094 27.5312C143.948 27.0521 143.812 26.5729 143.688 26.0938C143.583 25.5938 143.531 25.0938 143.531 24.5938C143.531 24.0938 143.635 23.6562 143.844 23.2812C144.052 22.9062 144.156 22.6562 144.156 22.5312C144.156 22.2604 144.083 22.0208 143.938 21.8125C143.812 21.5833 143.75 21.3333 143.75 21.0625C143.75 20.75 143.823 20.4583 143.969 20.1875C144.135 19.8958 144.219 19.5938 144.219 19.2812C144.219 19.0938 144.177 18.9167 144.094 18.75C144.01 18.5625 143.917 18.375 143.812 18.1875C143.708 18 143.604 17.8125 143.5 17.625C143.417 17.4167 143.354 17.2188 143.312 17.0312C143.25 16.7188 143.208 16.3958 143.188 16.0625C143.188 15.7292 143.188 15.3958 143.188 15.0625V13.7188C143.188 13.1562 143.156 12.6146 143.094 12.0938C143.052 11.5521 142.958 11.0104 142.812 10.4688C142.688 9.96875 142.615 9.51042 142.594 9.09375C142.573 8.67708 142.51 8.3125 142.406 8C142.302 7.6875 142.104 7.4375 141.812 7.25C141.521 7.04167 141.042 6.91667 140.375 6.875C139.896 6.83333 139.417 6.8125 138.938 6.8125C138.458 6.79167 137.979 6.71875 137.5 6.59375C137.188 6.51042 136.948 6.33333 136.781 6.0625C136.635 5.79167 136.531 5.48958 136.469 5.15625C136.406 4.82292 136.375 4.48958 136.375 4.15625C136.375 3.80208 136.375 3.52083 136.375 3.3125C136.375 2.91667 136.562 2.59375 136.938 2.34375C137.333 2.07292 137.792 1.85417 138.312 1.6875C138.854 1.52083 139.396 1.40625 139.938 1.34375C140.479 1.26042 140.896 1.21875 141.188 1.21875C141.375 1.21875 141.708 1.22917 142.188 1.25C142.667 1.27083 143.198 1.3125 143.781 1.375C144.365 1.4375 144.969 1.52083 145.594 1.625C146.219 1.70833 146.792 1.83333 147.312 2C147.833 2.14583 148.26 2.32292 148.594 2.53125C148.927 2.73958 149.094 2.97917 149.094 3.25C149.281 3.04167 149.49 2.86458 149.719 2.71875C149.948 2.57292 150.208 2.5 150.5 2.5C150.771 2.5 151.021 2.58333 151.25 2.75C151.5 2.89583 151.708 3.09375 151.875 3.34375C152.042 3.59375 152.167 3.86458 152.25 4.15625C152.354 4.42708 152.406 4.6875 152.406 4.9375ZM122.875 43.875C122.875 43.6875 122.823 43.5521 122.719 43.4688C122.615 43.3646 122.479 43.2917 122.312 43.25C122.167 43.2083 122.01 43.1667 121.844 43.125C121.698 43.0625 121.583 42.9792 121.5 42.875C121.479 42.9375 121.458 43 121.438 43.0625C121.438 43.1042 121.438 43.1562 121.438 43.2188C121.438 43.4062 121.49 43.5521 121.594 43.6562C121.698 43.7396 121.823 43.8021 121.969 43.8438C122.135 43.8854 122.292 43.9375 122.438 44C122.583 44.0417 122.708 44.1146 122.812 44.2188C122.833 44.1562 122.844 44.1042 122.844 44.0625C122.865 44 122.875 43.9375 122.875 43.875ZM190.656 13.375C190.656 13.75 190.646 14.1354 190.625 14.5312C190.625 14.9062 190.583 15.2708 190.5 15.625C190.458 15.8125 190.365 16.0208 190.219 16.25C190.073 16.4583 189.896 16.6667 189.688 16.875C189.5 17.0625 189.292 17.2292 189.062 17.375C188.833 17.5 188.625 17.5625 188.438 17.5625C188.125 17.5625 187.927 17.4375 187.844 17.1875C187.76 16.9375 187.698 16.6667 187.656 16.375C187.635 16.0833 187.573 15.8125 187.469 15.5625C187.385 15.3125 187.177 15.1875 186.844 15.1875C186.74 15.1875 186.646 15.2083 186.562 15.25C186.5 15.2917 186.417 15.3125 186.312 15.3125C186.271 15.3125 186.229 15.1875 186.188 14.9375C186.146 14.6875 186.094 14.3854 186.031 14.0312C185.969 13.6771 185.896 13.3229 185.812 12.9688C185.729 12.5938 185.635 12.2812 185.531 12.0312C185.344 11.6354 185.146 11.2292 184.938 10.8125C184.75 10.375 184.656 9.91667 184.656 9.4375C184.656 9.10417 184.719 8.82292 184.844 8.59375C184.969 8.34375 185.104 8.11458 185.25 7.90625C185.396 7.69792 185.531 7.48958 185.656 7.28125C185.781 7.07292 185.844 6.82292 185.844 6.53125C185.844 6.11458 185.708 5.75 185.438 5.4375C185.167 5.125 184.823 4.875 184.406 4.6875C184.01 4.47917 183.583 4.33333 183.125 4.25C182.688 4.14583 182.302 4.09375 181.969 4.09375C181.406 4.09375 180.854 4.16667 180.312 4.3125C179.792 4.4375 179.26 4.59375 178.719 4.78125C178.198 4.96875 177.677 5.16667 177.156 5.375C176.635 5.58333 176.115 5.76042 175.594 5.90625C175.698 6.19792 175.76 6.5 175.781 6.8125C175.823 7.125 175.844 7.4375 175.844 7.75C175.844 8.45833 175.812 9.16667 175.75 9.875C175.688 10.5625 175.656 11.2604 175.656 11.9688C175.656 12.7396 175.698 13.5104 175.781 14.2812C175.865 15.0312 175.948 15.7812 176.031 16.5312C176.135 17.2812 176.229 18.0417 176.312 18.8125C176.396 19.5625 176.438 20.3125 176.438 21.0625C176.438 21.9792 176.281 22.875 175.969 23.75C175.906 23.9167 175.875 24.0521 175.875 24.1562C175.875 24.3854 175.927 24.6146 176.031 24.8438C176.135 25.0521 176.25 25.2812 176.375 25.5312C176.521 25.7604 176.646 26 176.75 26.25C176.854 26.5 176.906 26.7604 176.906 27.0312C176.906 27.2812 176.865 27.5208 176.781 27.75C176.698 27.9792 176.656 28.2083 176.656 28.4375C176.656 28.7708 176.698 29.0938 176.781 29.4062C176.885 29.7188 176.938 30.0417 176.938 30.375C176.938 30.5625 176.885 30.6771 176.781 30.7188C176.698 30.7604 176.594 30.7812 176.469 30.7812C176.344 30.7812 176.229 30.7917 176.125 30.8125C176.042 30.8125 176 30.8646 176 30.9688C176 31.2812 176.062 31.5833 176.188 31.875C176.333 32.1458 176.406 32.4375 176.406 32.75C176.406 33.0208 176.344 33.2812 176.219 33.5312C176.115 33.7604 176.062 34.0104 176.062 34.2812C176.062 34.5521 176.177 34.7917 176.406 35C176.656 35.2083 176.833 35.4583 176.938 35.75C177.042 36.1042 177.125 36.5104 177.188 36.9688C177.271 37.4271 177.417 37.8646 177.625 38.2812C177.854 38.6979 178.198 39.0521 178.656 39.3438C179.115 39.6146 179.792 39.75 180.688 39.75H181.594C181.844 39.75 182.146 39.7708 182.5 39.8125C182.875 39.8542 183.229 39.9375 183.562 40.0625C183.917 40.1667 184.208 40.3333 184.438 40.5625C184.688 40.7708 184.812 41.0417 184.812 41.375C184.812 41.7083 184.75 42.0312 184.625 42.3438C184.5 42.6562 184.438 42.9792 184.438 43.3125C184.438 43.4167 184.458 43.5729 184.5 43.7812C184.188 43.7812 183.906 43.8542 183.656 44C183.427 44.125 183.26 44.3438 183.156 44.6562C182.74 44.5729 182.312 44.5208 181.875 44.5C181.458 44.4583 181.042 44.4375 180.625 44.4375C179.562 44.4375 178.51 44.5208 177.469 44.6875C176.427 44.8333 175.375 45 174.312 45.1875C173.271 45.3542 172.219 45.5208 171.156 45.6875C170.115 45.8333 169.062 45.9062 168 45.9062C167.646 45.9062 167.208 45.8958 166.688 45.875C166.167 45.8542 165.667 45.7812 165.188 45.6562C164.708 45.5312 164.292 45.3438 163.938 45.0938C163.604 44.8229 163.438 44.4375 163.438 43.9375C163.438 43.3542 163.49 42.9271 163.594 42.6562C163.719 42.3646 163.865 42.1667 164.031 42.0625C164.198 41.9375 164.385 41.8646 164.594 41.8438C164.823 41.8229 165.042 41.7812 165.25 41.7188C165.312 41.6562 165.344 41.5938 165.344 41.5312C165.344 41.4271 165.292 41.3438 165.188 41.2812C165.104 41.1979 165.01 41.1354 164.906 41.0938C165.26 40.7812 165.656 40.5625 166.094 40.4375C166.552 40.3125 167.01 40.2292 167.469 40.1875C167.948 40.1458 168.427 40.1042 168.906 40.0625C169.385 40.0208 169.833 39.9167 170.25 39.75C170.417 39.6875 170.594 39.5104 170.781 39.2188C170.969 38.9271 171.135 38.6042 171.281 38.25C171.448 37.8958 171.573 37.5417 171.656 37.1875C171.76 36.8333 171.812 36.5625 171.812 36.375V36.3125C171.667 35.3125 171.552 34.3333 171.469 33.375C171.385 32.4167 171.344 31.4375 171.344 30.4375C171.344 30.3542 171.375 30.2188 171.438 30.0312C171.5 29.8229 171.583 29.6146 171.688 29.4062C171.771 29.1771 171.885 28.9167 172.031 28.625C171.865 28.3542 171.719 28.1042 171.594 27.875C171.49 27.6667 171.396 27.4688 171.312 27.2812C171.229 27.0938 171.188 26.9479 171.188 26.8438C171.188 26.5938 171.229 26.3542 171.312 26.125C171.396 25.8958 171.458 25.6667 171.5 25.4375C171.625 24.5625 171.688 23.6771 171.688 22.7812C171.688 22.4062 171.656 22.0417 171.594 21.6875C171.552 21.3125 171.49 20.9479 171.406 20.5938C171.135 19.3229 171 18.0104 171 16.6562C171 15.0729 171.104 13.5 171.312 11.9375C171.521 10.375 171.625 8.80208 171.625 7.21875C171.625 6.67708 171.531 6.26042 171.344 5.96875C171.156 5.65625 170.792 5.41667 170.25 5.25C169.521 5.04167 168.76 4.875 167.969 4.75C167.198 4.625 166.427 4.5625 165.656 4.5625C165.073 4.5625 164.458 4.63542 163.812 4.78125C163.188 4.90625 162.604 5.125 162.062 5.4375C161.542 5.72917 161.104 6.125 160.75 6.625C160.417 7.10417 160.25 7.6875 160.25 8.375C160.25 8.72917 160.271 9.07292 160.312 9.40625C160.354 9.73958 160.375 10.0833 160.375 10.4375C160.375 10.7708 160.302 11.0625 160.156 11.3125C160.031 11.5417 159.969 11.7708 159.969 12C159.969 12.3125 160.052 12.6042 160.219 12.875C160.385 13.1458 160.469 13.4375 160.469 13.75C160.469 13.9583 160.417 14.1875 160.312 14.4375C160.229 14.6875 160.125 14.9479 160 15.2188C159.875 15.4688 159.75 15.7188 159.625 15.9688C159.521 16.2188 159.438 16.4479 159.375 16.6562C159.271 16.9688 159.135 17.2396 158.969 17.4688C158.802 17.6979 158.542 17.8125 158.188 17.8125C157.896 17.8125 157.625 17.7188 157.375 17.5312C157.125 17.3229 157 17.0729 157 16.7812C157 16.5521 157.052 16.375 157.156 16.25C157.281 16.1042 157.344 15.9375 157.344 15.75C157.344 15.5417 157.302 15.3333 157.219 15.125C157.135 14.8958 157.031 14.6771 156.906 14.4688C156.802 14.2396 156.708 14.0104 156.625 13.7812C156.542 13.5521 156.5 13.3229 156.5 13.0938C156.5 12.8021 156.542 12.5208 156.625 12.25C156.729 11.9792 156.781 11.6979 156.781 11.4062C156.781 10.7812 156.677 10.1667 156.469 9.5625C156.281 8.95833 156.188 8.34375 156.188 7.71875C156.188 7.15625 156.25 6.48958 156.375 5.71875C156.5 4.94792 156.708 4.20833 157 3.5C157.312 2.79167 157.708 2.19792 158.188 1.71875C158.688 1.21875 159.312 0.96875 160.062 0.96875C160.583 0.96875 161.094 1.03125 161.594 1.15625C162.115 1.26042 162.646 1.3125 163.188 1.3125C163.792 1.3125 164.396 1.26042 165 1.15625C165.604 1.05208 166.208 1 166.812 1C167.229 1 167.615 1.07292 167.969 1.21875C168.344 1.34375 168.74 1.40625 169.156 1.40625C169.406 1.40625 169.615 1.35417 169.781 1.25C169.969 1.125 170.177 1.0625 170.406 1.0625C170.656 1.0625 170.896 1.125 171.125 1.25C171.375 1.35417 171.625 1.40625 171.875 1.40625C172.104 1.40625 172.312 1.375 172.5 1.3125C172.708 1.25 172.917 1.21875 173.125 1.21875C173.438 1.21875 173.74 1.26042 174.031 1.34375C174.344 1.42708 174.646 1.46875 174.938 1.46875L178.719 1C179.281 0.958333 179.844 0.916667 180.406 0.875C180.969 0.833333 181.542 0.8125 182.125 0.8125C183.125 0.8125 184.115 0.895833 185.094 1.0625C186.094 1.20833 187.094 1.39583 188.094 1.625V1.65625C188.781 1.82292 189.271 2.17708 189.562 2.71875C189.854 3.26042 190.042 3.88542 190.125 4.59375C190.229 5.28125 190.271 5.98958 190.25 6.71875C190.229 7.44792 190.24 8.07292 190.281 8.59375C190.344 9.38542 190.417 10.1875 190.5 11C190.604 11.7917 190.656 12.5833 190.656 13.375Z" fill="white"/>
</svg>
