<svg width="1228" height="480" viewBox="0 0 1228 480" fill="none" xmlns="http://www.w3.org/2000/svg">
<path d="M329.64 25.554C336.373 22.9218 336.996 31.3667 345.083 24.7132C345.376 30.8183 352.037 52.3875 356.831 53.8498C358.587 54.3982 364.882 50.2306 368.908 49.865C374.287 49.3898 391.744 51.0714 396.831 51.437C401.039 51.7295 416.519 53.4111 418.532 53.0455C423.07 52.2047 430.499 44.8566 431.963 45.5146C432.841 45.9167 432.549 54.4347 441.588 51.766C450.627 49.0973 443.894 42.261 449.786 40.9814C453.518 39.3363 457.544 43.6136 460.069 43.5405C473.171 43.1383 485.321 39.8116 497.946 37.9106C499.483 37.6912 502.265 44.6372 511.121 37.9106C512.914 36.5579 509.621 31.3301 514.049 31.7323C524.515 38.4589 542.191 35.8999 551.34 40.2868C554.671 41.8954 554.524 46.5017 556.903 46.2458C570.736 44.82 567.845 35.315 570.517 32.9021C572.969 30.7087 584.972 26.212 585.668 23.982C584.753 11.4426 570.151 7.8234 559.794 10.8211C552.292 6.94601 570.188 0.950506 572.786 0.292463C577.068 -0.804274 585.155 8.518 594.707 0L597.452 6.25141C608.284 -0.840832 608.76 5.66648 614.981 7.05568C626.436 9.57818 632.401 9.98031 643.6 4.35039L646.344 10.5287L664.313 4.02137C669.73 18.0962 674.817 11.1136 681.66 12.6856C687.515 14.0382 694.835 17.2188 702.191 18.7177C706.326 19.595 733.297 23.0315 734.834 23.7992C736.225 24.4938 736.555 28.6614 737.872 29.2098C738.933 29.6485 754.304 28.1862 760.342 29.7947C770.589 32.5365 775.383 43.5039 785.703 31.8785C786.435 36.5214 796.573 41.7126 800.745 42.8093C803.709 43.6136 807.295 40.9083 809.784 41.5664C823.727 45.1856 844.184 56.9572 856.151 59.3335C862.117 60.5034 878.878 61.9291 884.367 64.3419C888.063 65.9505 892.455 78.0146 893.406 78.3802C894.431 78.7823 901.641 74.7609 905.483 74.3588C911.631 73.7373 919.427 79.3307 924.221 78.892C935.273 77.9049 964.733 74.5416 975.163 77.5393C978.2 78.4167 979.225 82.8037 981.97 84.3391C989.838 88.6895 1014.43 82.4016 1024.27 82.5478C1028.78 82.6209 1029.07 87.8487 1034.08 86.3133C1041.51 84.0101 1044.55 75.8942 1050.22 74.3223C1054.69 73.0793 1058.13 77.5394 1062.37 74.8706L1060.14 68.3633C1065.3 65.4021 1070.39 60.1012 1076.53 61.6001C1080.74 62.6237 1081.62 67.3762 1085.02 65.9139C1080.71 51.5467 1093.66 43.7964 1102.37 56.482C1122.28 32.3538 1123.74 53.1187 1130.37 54.7638C1133.33 55.4949 1139.59 52.095 1144.57 52.3875C1150.72 52.7165 1174.36 58.9679 1175.97 58.8217C1193.61 57.2497 1209.49 39.8481 1227.97 58.1271C1228.3 59.0045 1225.81 70.045 1225.01 71.2879C1211.94 91.3217 1182.85 104.702 1165.17 120.385C1113.06 166.741 1074.49 188.091 1005.98 214.449C993.863 219.128 981.055 219.348 971.283 220.846C966.636 221.541 961.659 225.124 956.901 226.476L959.573 233.276L973.15 228.341C971.613 231.85 987.935 237.042 988.959 237.005C995.291 236.822 1004.26 230.242 1011.43 228.706C1028.48 224.977 1044 223.917 1061.16 214.412C1065.15 212.219 1062.48 209.002 1064.13 207.868C1068.52 204.834 1075.77 203.92 1080.74 201.288L1083.41 208.088C1072.44 207.759 1071.01 217.702 1069.91 218.543C1062.04 224.502 1049.97 225.197 1046.01 236.164C1038.36 239.893 1039.02 234.153 1035.77 233.495C1028.85 232.106 1013.7 242.269 1005.76 243.951L1015.24 254.37L1012.42 267.494C1023.03 267.238 1030.2 267.823 1041.48 261.353L1041.33 268.81C1040.01 270.748 1001.51 285.956 998.072 286.358C997.084 286.468 983.433 280.984 980.286 281.094C976.078 281.24 973.04 282.958 969.307 284.53C971.247 293.487 980.432 286.431 983.141 287.491C984.458 288.003 986.105 295.754 992.583 293.633C993.79 305.88 969.234 299.885 960.963 301.493C953.205 302.992 946.069 307.05 938.749 309.828L934.76 303.358C925.172 310.925 916.462 311.729 904.678 309.975C898.53 328.363 916.206 322.331 924.623 324.707C933.04 327.084 945.373 337.356 949.545 338.928C954.522 340.793 955.474 330.52 959.133 348.872L972.491 346.459L993.827 366.53C987.093 374.646 975.236 361.558 971.906 362.143C967.624 362.91 963.708 366.201 959.024 366.639C945.849 367.846 919.939 363.386 905.008 361.997C903.031 361.814 901.897 359.255 899.774 359.291C889.564 359.511 856.664 371.136 856.517 383.017C856.371 393.912 864.239 385.979 865.483 393.473L841.476 405.5L836.133 398.335L824.203 401.881C823.288 404.075 839.171 424.145 842.098 426.85C845.575 430.031 864.093 434.052 866.764 436.977C870.863 441.473 877.707 455.512 878.036 461.873C869.363 463.152 869.033 454.415 864.386 452.148C851.613 445.97 823.398 447.103 810.15 432.919C803.855 430.543 783.215 429.994 780.507 428.788C778.274 427.764 767.442 417.747 763.38 418.186C759.683 418.588 749.473 431.164 738.677 429.738C736.738 429.482 727.735 420.453 725.942 420.233C722.099 419.721 715.146 424.986 707.936 424.803C700.727 424.62 697.396 418.332 694.066 417.82C688.723 416.98 683.526 422.134 680.196 421.586C678.769 421.367 674.194 412.702 668.266 412.3C662.667 411.898 655.128 416.395 648.76 416.029C647.186 402.868 657.58 397.494 669.071 395.301C681.806 414.165 678.366 399.871 680.452 398.335C692.2 389.634 683.38 392.047 686.6 387.916C697.543 373.805 714.048 388.757 724.185 387.916C730.297 387.404 732.309 381.847 739.885 381.445C749.985 380.897 756.17 390.95 757.414 391.17C760.452 391.755 767.405 386.819 771.907 385.942C777.835 384.809 784.496 390.987 787.35 381.153C788.155 378.338 786.252 373.988 786.984 372.635C787.863 370.953 812.968 354.575 816.774 349.823C803.05 335.346 796.463 344.558 783.764 349.238C773.627 352.967 762.758 353.076 753.316 361.741C748.046 354.941 754.816 353.917 755.438 348.653C755.914 344.376 753.791 331.032 754.231 330.228C757.305 324.744 777.433 334.03 783.617 325.987L781.385 319.553L792.913 312.132L789.729 300.543C813.26 292.207 805.063 277.986 797.085 259.671C785.703 258.209 775.054 260.292 766.015 267.677L759.134 246.766C754.78 243.512 742.337 247.753 739.629 246.071C735.53 243.512 729.821 227.939 727.113 223.003L715.182 224.466C711.596 219.128 711.779 211.817 706.619 207.247C705.374 206.15 677.122 196.17 675.365 196.206C666.033 196.316 638.549 205.492 633.243 212.402C632.328 213.608 626.839 237.956 626.107 241.794C625.521 244.938 628.229 248.996 627.754 250.86C627.497 251.884 616.592 261.938 613.884 266.471C610.334 272.357 602.209 298.751 600.16 300.908C594.963 306.428 586.583 301.566 590.608 315.714C580.617 314.325 578.934 324.488 577.69 325.475C564.369 336.04 552.585 342.511 538.788 351.98C537.251 353.04 539.044 356.513 537.434 357.646C524.149 366.968 467.901 389.452 452.091 391.389C449.529 391.718 448.102 387.551 446.053 387.222C441.661 386.49 438.038 390.183 434.525 389.707C433.464 389.561 421.497 383.675 418.862 383.639C413.116 383.602 407.004 387.733 403.345 387.148C400.161 386.637 391.744 380.458 387.352 379.288C364.992 373.329 344.022 371.648 324.553 355.014C311.671 344.01 295.422 325 284.882 312.132C282.687 309.426 277.819 311.62 276.282 309.463C274.599 307.123 269.988 295.169 269.549 292.134C269.183 289.795 275.404 289.429 271.269 283.251C264.864 277.328 242.833 281.204 241.113 279.01C234.27 270.163 238.515 262.705 237.38 259.817C236.978 258.794 224.389 243.439 222.632 243.659C215.679 245.157 206.383 257.185 202.724 258.794C199.906 260.036 195.661 258.757 192.952 260.11C191.562 260.804 193.501 264.46 191.708 265.849C189.22 267.787 185.523 267.714 182.522 271.004C181.827 271.772 174.764 289.429 174.654 290.489C173.739 299.336 181.973 304.125 167.811 306.831C164.92 303.321 169.092 300.214 168.506 297.07C166.603 286.76 156.356 275.83 145.158 282.812L115.149 369.527C108.817 373.988 100.803 351.139 95.6793 345.143C91.5073 340.245 86.2008 338.088 81.6995 333.81L80.565 331.032C93.8861 321.892 72.038 314.142 79.1743 328.436L70.4644 332.238L73.2823 359.803C62.6328 361.704 57.0335 358.816 55.4599 347.629C55.2037 345.692 61.9009 343.06 56.631 337.649C36.9055 336.662 29.1105 353.552 14.2524 362.362L18.5708 373.147C30.9037 369.747 28.0492 377.168 34.5634 381.738C37.0519 383.493 60.4736 395.41 62.3766 395.666C71.0133 396.909 77.7471 391.572 85.7251 388.794C87.8111 388.574 90.2264 394.423 94.0324 396.361C112.953 406.049 123.2 387.806 139.814 393.729C147.097 396.324 156.136 410.07 160.601 411.971C165.322 413.982 169.238 410.034 173.703 410.107C175.02 410.107 196.795 420.197 197.856 420.964C200.455 422.829 201.406 423.487 202.065 426.997L180.656 435.112C164.993 418.99 163.675 434.381 155.331 437.708C154.307 438.11 152.806 434.893 150.464 434.564C131.836 432.078 131.251 425.351 118.589 422.281C113.465 421.038 103.877 422.646 101.059 421.586C97.9117 420.38 96.6308 415.261 92.0196 414.201C85.6153 412.702 72.221 416.322 65.0115 415.737C54.545 414.896 54.3986 406.122 40.7482 406.67C35.5881 406.89 27.7931 410.034 25.3411 409.558C21.7547 408.864 18.8635 401.625 8.90934 408.535C-6.16835 391.645 1.40709 387.222 6.23781 372.123C9.93404 360.534 31.5259 305.186 37.5643 297.874C49.7509 283.141 56.0088 284.603 70.5376 276.999C78.296 272.978 75.9904 267.604 77.6373 266.544C87.5549 259.963 93.4469 260.11 92.349 244.792C98.1678 242.342 113.063 236.384 116.539 232.033C120.016 227.683 127.299 212.402 131.654 206.735C133.959 203.737 138.936 202.823 141.827 199.35C143.218 197.669 145.889 185.678 146.585 185.02C150.391 181.364 158.039 180.815 161.589 175.953C165.761 170.177 154.856 160.672 169.787 159.722L175.935 164.84C177.472 147.073 195.514 141.26 193.867 123.749L200.821 131.499L223.51 122.506L213.227 103.02C226.218 105.104 233.648 96.6226 246.749 95.014L240.052 84.595C247.737 81.5242 249.238 92.784 258.496 85.0703L256.154 78.5264C263.071 74.9437 272.074 71.3245 278.222 66.7182C279.905 65.4752 278.368 62.2216 279.832 61.1248C291.287 52.6068 290.774 62.0022 297.252 69.8622L332.201 55.9702L336.19 62.4409L342.997 59.7722L329.567 25.7733L329.64 25.554ZM606.93 11.0405C605.613 10.4556 595.146 14.806 592.804 16.3048C586.217 20.5821 592.292 40.2503 599.062 44.0523L615.933 33.2677L617.25 43.2115C625.375 40.8718 626.729 41.9685 631.194 48.3661C640.892 47.3791 644.844 32.4269 647.699 33.8892C648.028 34.072 651.907 40.8352 648.614 41.3105L643.929 44.6372C647.406 58.8948 649.894 51.6929 654.359 52.9724C656.592 53.5939 658.129 57.1035 661.129 57.0304C667.607 56.811 677.561 48.5489 683.124 49.9381L688.43 57.14C701.202 45.734 700.653 56.482 712.328 60.4302C715.292 61.4173 726.857 63.6839 729.748 63.7205C743.361 63.8301 744.606 53.009 758.805 62.9527C765.21 67.4494 762.977 75.3459 777.689 69.3869L811.504 76.7716C809.784 70.8127 804.294 67.0838 799.464 63.9032C787.167 55.7874 769.381 53.667 757.414 50.0478C743.361 45.7705 708.778 32.1344 696.738 30.3796C693.041 29.8313 687.332 33.1215 684.222 31.8419C683.38 31.5129 679.098 24.5669 674.524 24.3476C668.815 24.0551 655.091 28.8808 653.774 28.3689C652.749 27.9668 652.163 24.311 650.516 23.3971C644.588 20.1069 634.451 18.9004 627.461 17.6209C623.765 16.9263 610.773 16.9994 610.004 16.5973C608.321 15.6833 607.992 11.5157 607.003 11.0771L606.93 11.0405ZM439.612 144.66C426.291 146.597 467.123 142.541 463.5 148.5C507.624 149.012 465.829 173.87 465.5 174.747C464.658 176.794 451.908 180.779 452.713 184.837C453.043 186.555 418.752 179.755 424.022 184.837C425.01 185.276 433.464 179.573 435.037 177.781C436.83 175.734 434.854 172.919 435.037 172.736C438.587 167.618 440.783 175.112 442.796 174.893C445.101 174.637 453.262 171.42 454.433 169.885L452.713 157.857L443.601 161.44L439.612 144.696V144.66ZM570.114 197.559C571.359 188.346 579.489 194.859 574 202.5C582.417 207.326 554.634 218.183 562.356 218C567.589 217.89 566.601 200.849 570.114 197.559ZM562.356 243.037C550.389 242.854 560.965 235.433 562.356 250.86C569.419 243.147 560.087 253.785 562.356 243.037ZM961.732 198.327L936.773 208.161C939.152 221.76 956.023 210.318 965.318 207.357L961.732 198.327ZM948.447 246.327C944.275 246.327 941.128 248.265 937.432 249.8C940.469 269.139 954.815 258.099 967.77 253.566L963.671 247.095C958.036 251.007 949.216 246.364 948.411 246.364L948.447 246.327ZM938.347 273.892C932.272 274.111 925.648 277.913 918.548 278.169C913.278 278.352 908.887 274.842 905.227 276.195C899.116 278.498 880.232 289.539 877.414 295.132C875.255 299.446 881.037 310.486 884.221 310.231C896.298 309.243 892.345 300.799 895.236 298.276C906.215 288.808 914.266 295.607 922.757 294.328C931.247 293.048 939.408 286.578 946.983 285.408C948.045 285.261 961.183 291.915 967.111 285.225C965.355 275.135 961.878 280.948 955.657 279.376C953.095 278.718 939.188 273.819 938.31 273.855L938.347 273.892ZM930.259 340.025C909.509 336.552 901.567 358.816 926.526 348.689L929.271 355.233L935.602 351.102L941.165 357.975L952.327 353.954C951.558 350.225 950.753 349.64 947.898 347.739C947.093 347.191 931.174 340.208 930.222 340.025H930.259Z" fill="#C10001"/>
<path d="M629.101 405.894C629.795 405.93 630.891 409.013 632.754 408.76C636.882 408.179 657.668 400.526 659.275 401.034C662.307 407.49 653.321 407.708 660.079 416.304L680.682 406.003C690.034 407.78 689.231 423.522 699.459 416.521C700.263 424.465 704.537 438.501 713.341 438.32C708.19 448.693 718.528 459.828 718.528 471.362L711.807 474.01C710.163 462.512 706.071 451.341 698.911 442.019C698.108 440.968 684.116 439.299 695.697 433.532L694.82 431.356C685.577 430.631 678.162 428.744 671.55 422.506L649.595 436.035C648.06 406.438 630.635 420.439 610.36 416.304C605.1 411.988 626.397 405.785 629.064 405.93L629.101 405.894Z" fill="#C10001"/>
<path d="M569.039 406.036C569.802 406.109 576.161 412.754 583.028 408.007L593.13 430.063C605.411 427.835 615.512 420.934 618.528 438.133L611.297 433.459C602.904 438.827 602.577 432.254 597.236 433.495C595.855 437.914 591.349 456.171 585.644 453.798C582.883 442.515 573.508 428.639 562.244 436.928C556.249 438.607 561.118 420.496 567.767 421.591L562.062 410.746C562.68 407.423 565.841 405.78 569.003 406.036H569.039Z" fill="#C10001"/>
<path d="M541.691 409.016C543.089 409.236 547.137 414.136 549.528 414.941L548.24 421.451C538.232 427.046 529.217 418.598 521.233 424.413C519.724 425.51 520.865 428.546 519.577 430.045C517.553 432.349 511.813 434.653 511.371 436.482C509.863 442.699 523.514 457.84 505.3 462.01C494.151 447.966 512.144 437.031 503.35 423.572C504.196 421.341 539.52 408.687 541.728 409.016H541.691Z" fill="#C10001"/>
<path d="M448.812 422.208C454.785 423.927 461.017 431.463 466.438 427.402C467.175 426.854 467.618 416.794 479.528 417.013L475.656 447.266L468.908 450.01C467.544 438.816 452.094 433.255 442.359 430.512C437.086 429.012 429.084 434.499 434.136 419.098C438.671 422.976 444.682 421.037 448.849 422.208H448.812Z" fill="#C10001"/>
<path d="M635.451 434.046L638.261 440.172L647.311 436.834L650.376 451.361L656.982 448.903L664.573 467.941L672.528 467.538L670.813 480.01C664.5 478.873 665.084 472.086 661.69 468.601C661.215 468.088 653.077 467.611 650.45 462.806C648.698 459.578 649.829 454.956 647.968 451.507C647.019 449.783 625.305 446.775 626.583 437.164L635.524 434.01L635.451 434.046Z" fill="#C10001"/>
<path d="M351.422 413.047C352.972 413.229 358.471 420.046 362.014 421.395C367.697 423.583 371.868 417.057 373.528 427.374L349.725 434.01L342.528 415.927C345.407 415.125 348.433 412.682 351.385 413.047H351.422Z" fill="#C10001"/>
<path d="M309.43 405.01C320.397 427.147 299.74 420.771 286.502 417.941C280.255 409.595 305.987 408.592 309.43 405.01Z" fill="#C10001"/>
<path d="M753.653 434.01C751.586 432.983 752.311 422.604 745.528 426.932L747.197 421.064C753.581 416.59 772.695 427.519 764.534 432.139L753.689 434.01H753.653Z" fill="#C10001"/>
<path d="M682.121 452.01L694.528 470.302L687.932 473.01C688.824 461.046 666.433 456.107 682.121 452.01Z" fill="#C10001"/>
<path d="M420.078 433.24C420.5 433.31 423.916 437.284 425.528 438.329C419.195 438.155 419.771 444.29 419.233 444.743C405.146 457.082 404.493 430.277 420.078 433.24Z" fill="#C10001"/>
<path d="M610.528 218.044C608.306 228.621 592.535 225.419 585.617 233.01C584.255 217.829 598.808 217.864 610.528 218.044Z" fill="#C10001"/>
<g filter="url(#filter0_i_27_262)">
<path d="M330.466 209.645C332.06 212.178 333.779 215.222 335.622 218.777C337.413 222.248 339.218 226.004 341.039 230.045C342.853 233.972 344.653 238.085 346.439 242.384C348.272 246.653 349.978 250.825 351.557 254.9C353.083 258.89 354.453 262.685 355.666 266.283C356.874 269.767 357.812 272.771 358.482 275.297C358.731 276.319 358.842 277.487 358.815 278.801C358.781 280 358.778 281.299 358.804 282.698C358.777 284.011 358.82 285.281 358.934 286.506C359.048 287.731 359.371 288.765 359.902 289.61C359.579 289.931 359.123 290.512 358.536 291.354C357.896 292.111 357.288 293.024 356.712 294.093C356.131 295.048 355.65 296.058 355.269 297.123C354.882 298.074 354.777 298.847 354.955 299.443C355.553 301.542 355.968 302.931 356.199 303.611C356.477 304.261 356.598 304.715 356.563 304.973C356.475 305.146 356.219 305.366 355.796 305.633C355.366 305.785 354.72 306.428 353.856 307.561C353.539 307.996 353.157 308.59 352.711 309.342C352.312 310.065 351.866 310.818 351.372 311.6C350.926 312.352 350.45 313.005 349.945 313.559C349.492 314.197 349.078 314.635 348.702 314.872C347.666 315.523 346.469 315.865 345.108 315.896C343.795 315.897 342.621 316.223 341.586 316.875C340.927 317.289 340.445 317.829 340.14 318.492C339.143 320.77 338.004 322.666 336.723 324.179C335.489 325.663 333.931 326.997 332.048 328.182L320.581 332.04C320.041 332.851 319.421 333.536 318.721 334.095C318.075 334.737 317.375 335.295 316.622 335.769C315.681 336.362 314.686 336.87 313.639 337.293C312.639 337.687 311.588 338.053 310.488 338.392C309.549 337.215 308.57 336.181 307.55 335.29C306.524 334.286 305.497 333.281 304.471 332.277C303.444 331.272 302.442 330.253 301.462 329.219C300.43 328.101 299.515 326.908 298.718 325.642C297.336 323.446 296.659 321.692 296.686 320.378C296.66 318.98 297.012 317.816 297.74 316.886C298.416 315.871 299.218 314.954 300.147 314.133C301.07 313.199 301.763 312.055 302.225 310.703C302.688 309.351 302.721 307.68 302.323 305.691C301.925 303.702 300.716 301.102 298.697 297.894C297.474 295.952 296.158 294.069 294.748 292.245C293.384 290.392 291.974 288.569 290.516 286.775C289.053 284.867 287.615 283.001 286.205 281.177C284.842 279.324 283.549 277.427 282.326 275.485C281.423 274.049 280.617 272.611 279.908 271.172C279.145 269.647 278.312 268.167 277.409 266.732C275.762 264.115 274.023 261.613 272.194 259.228C270.358 256.729 268.617 254.171 266.969 251.553C265.056 248.514 263.264 245.457 261.592 242.383C259.867 239.225 258.048 236.126 256.135 233.086C254.328 230.216 252.41 227.533 250.38 225.038C248.344 222.429 246.396 219.647 244.536 216.692C243.526 215.088 242.54 213.469 241.577 211.835C240.615 210.201 239.628 208.582 238.619 206.978C237.45 205.12 236.287 203.376 235.13 201.747C233.919 200.033 232.615 198.378 231.217 196.783C229.559 194.879 228.069 192.929 226.746 190.932C225.424 188.935 224.14 187.209 222.895 185.752C221.597 184.212 220.247 183.058 218.844 182.29C217.388 181.438 215.697 181.205 213.773 181.592C213.149 181.749 212.589 181.747 212.094 181.587C211.593 181.313 211.119 181.081 210.671 180.892C210.17 180.617 209.625 180.43 209.036 180.329C208.494 180.199 207.817 180.271 207.005 180.546C204.616 181.343 202.278 179.926 199.993 176.295C198.718 174.269 197.814 172.362 197.281 170.576C196.694 168.705 196.332 166.929 196.194 165.248C196.055 163.567 196.067 161.968 196.23 160.451C196.386 158.82 196.518 157.204 196.628 155.603C196.788 153.144 197.303 151.405 198.173 150.387C198.99 149.283 200.01 148.347 201.233 147.576L204.268 145.666C205.633 144.807 206.921 143.879 208.132 142.881C209.338 141.769 210.623 140.783 211.987 139.924C212.787 139.421 213.64 139.002 214.547 138.667C215.5 138.303 216.509 138.08 217.575 137.999C218.158 137.986 218.744 138.029 219.333 138.13C219.916 138.117 220.419 137.977 220.843 137.71C221.501 137.296 221.853 136.603 221.899 135.631C221.891 134.575 222.076 133.928 222.452 133.692C222.546 133.632 222.646 133.687 222.753 133.856C222.859 134.025 222.968 134.251 223.081 134.534C223.187 134.703 223.293 134.871 223.399 135.04C223.718 135.547 224.066 135.682 224.442 135.445C224.678 135.297 224.683 134.94 224.458 134.374C224.281 133.778 224.35 133.263 224.668 132.828C225.156 132.874 225.601 133.006 226.002 133.226C226.35 133.36 226.674 133.51 226.974 133.674C227.322 133.809 227.667 133.887 228.008 133.908C228.397 133.899 228.803 133.761 229.226 133.495C230.215 132.873 231.123 132.124 231.952 131.249C232.727 130.289 233.609 129.499 234.598 128.877C235.868 128.077 237.284 127.716 238.844 127.795C240.405 127.874 242.028 128.208 243.713 128.798C245.392 129.274 247.13 129.948 248.928 130.821C250.725 131.693 252.496 132.524 254.24 133.312C255.537 133.911 256.7 134.298 257.731 134.475C258.756 134.537 259.76 134.671 260.744 134.877C261.674 134.999 262.688 135.304 263.784 135.793C264.827 136.198 266.065 137.069 267.498 138.407C269.085 139.884 270.715 141.274 272.39 142.578C274.058 143.767 275.703 144.972 277.325 146.191C278.94 147.296 280.585 148.501 282.26 149.805C283.881 151.024 285.512 152.414 287.151 153.976C291.357 158.048 295.369 162.596 299.187 167.619C303 172.529 306.786 177.396 310.545 182.221C312.162 184.268 313.829 186.342 315.546 188.445C317.21 190.462 318.733 192.569 320.115 194.764C320.859 195.946 321.459 197.16 321.914 198.406C322.37 199.652 322.97 200.866 323.713 202.048C324.192 202.808 324.688 203.439 325.201 203.941C325.714 204.443 326.251 204.931 326.811 205.403C327.371 205.876 327.961 206.448 328.58 207.119C329.2 207.79 329.828 208.632 330.466 209.645ZM313.337 208.578C311.265 205.285 308.987 202.239 306.503 199.441C304.019 196.643 301.386 194.233 298.603 192.212C298.536 190.958 298.174 189.653 297.518 188.297C296.862 186.942 296.163 185.673 295.418 184.491C294.621 183.225 293.777 181.988 292.886 180.78C292.042 179.543 291.248 178.334 290.504 177.152C290.079 176.476 289.565 175.974 288.964 175.645C288.41 175.287 287.835 175 287.24 174.785C286.639 174.456 286.041 174.184 285.446 173.969C284.798 173.67 284.19 173.227 283.624 172.64C282.904 171.914 282.311 171.286 281.845 170.754C281.373 170.108 280.928 169.504 280.508 168.943C280.089 168.381 279.597 167.807 279.031 167.221C278.464 166.634 277.724 165.98 276.81 165.258C276.15 164.731 275.563 164.216 275.05 163.714C274.483 163.127 273.908 162.37 273.323 161.441C272.792 160.596 272.305 159.665 271.861 158.648C271.248 158.091 270.597 157.735 269.907 157.579C269.165 157.339 268.455 157.255 267.778 157.327C267.001 157.345 266.206 157.492 265.394 157.767C264.688 158.211 263.696 158.305 262.418 158.049C261.187 157.763 259.855 157.422 258.424 157.026C256.992 156.63 255.59 156.334 254.218 156.137C252.893 155.91 251.783 156.078 250.889 156.64C249.524 157.499 248.316 158.554 247.264 159.806C246.212 161.057 245.11 162.281 243.958 163.478C243.082 164.383 242.059 165.263 240.889 166.117C239.665 166.887 238.645 167.824 237.829 168.927C237.059 170.001 236.694 171.351 236.732 172.977C236.717 174.519 237.48 176.515 239.021 178.963C240.881 181.918 242.861 184.857 244.963 187.778C247.111 190.669 249.195 193.72 251.215 196.928C255.413 203.599 259.446 210.373 263.315 217.251C267.178 224.014 271.235 230.774 275.486 237.529C277.452 240.653 279.513 243.718 281.667 246.723C283.769 249.645 285.829 252.709 287.848 255.918C290.452 260.056 292.842 264.269 295.016 268.559C297.237 272.819 299.65 277.018 302.254 281.155C303.317 282.844 304.459 284.66 305.682 286.602C306.904 288.544 308.167 290.342 309.471 291.997C310.776 293.651 312.138 295.034 313.559 296.143C314.98 297.253 316.421 297.82 317.881 297.844C319.925 297.854 321.944 297.88 323.941 297.92C325.931 297.846 327.726 297.306 329.326 296.299C330.267 295.707 330.946 294.749 331.361 293.427C331.724 292.02 332.216 290.767 332.839 289.668C333.238 288.945 333.734 288.22 334.328 287.493C334.915 286.652 335.479 285.825 336.019 285.013C336.507 284.117 336.893 283.167 337.18 282.161C337.461 281.041 337.544 279.869 337.43 278.644C337.233 276.764 337.118 275.068 337.086 273.556C337.054 272.044 337.493 270.706 338.404 269.544C338.862 269.019 339.003 268.46 338.825 267.864C338.641 267.154 338.36 266.447 337.982 265.742C337.598 264.923 337.238 264.089 336.9 263.24C336.51 262.307 336.364 261.397 336.463 260.509C336.578 259.022 336.399 257.485 335.925 255.897C335.498 254.279 334.901 252.651 334.132 251.013C333.364 249.375 332.549 247.766 331.686 246.187C330.818 244.494 330.023 242.813 329.301 241.145C327.693 237.442 326.129 233.652 324.609 229.776C323.136 225.87 321.284 222.143 319.052 218.597C318.467 217.668 317.845 216.94 317.184 216.413C316.471 215.801 315.822 215.031 315.237 214.102C314.918 213.595 314.779 213.27 314.82 213.126C314.855 212.869 314.89 212.611 314.925 212.353C314.907 212.011 314.812 211.599 314.64 211.118C314.516 210.607 314.081 209.76 313.337 208.578Z" fill="#740001"/>
</g>
<g filter="url(#filter1_i_27_262)">
<path d="M430.718 216.119C431.111 219.016 431.401 221.857 431.587 224.642C431.755 227.289 431.909 230.008 432.049 232.799C432.17 235.452 432.324 238.171 432.511 240.956C432.698 243.741 432.978 246.513 433.352 249.272C433.502 250.376 433.675 251.477 433.871 252.574C434.096 253.528 434.283 254.556 434.432 255.66C434.806 258.419 434.998 261.063 435.006 263.591C435.062 266.112 435.038 268.575 434.934 270.977C434.84 273.098 434.896 275.268 435.101 277.488C435.354 279.702 435.606 281.916 435.859 284.13C436.158 286.337 436.387 288.554 436.545 290.781C436.704 293.008 436.704 295.115 436.544 297.104C436.637 298.497 436.777 300.585 436.964 303.37C437.179 306.01 437.244 307.898 437.159 309.034C437.15 309.316 437.037 309.542 436.822 309.712C436.607 309.882 436.368 310.055 436.105 310.231C435.843 310.407 435.576 310.724 435.304 311.182C435.033 311.641 434.836 312.3 434.714 313.159C434.573 313.881 434.517 314.872 434.545 316.133C434.572 317.394 434.577 318.657 434.558 319.925C434.539 321.192 434.454 322.327 434.304 323.331C434.182 324.191 433.91 324.649 433.489 324.706C433.067 324.764 432.665 324.607 432.281 324.238C431.878 323.73 431.485 323.292 431.101 322.922C430.698 322.415 430.315 322.045 429.949 321.814C429.584 321.582 429.195 321.705 428.783 322.183C428.961 322.439 429.101 323.123 429.204 324.233C429.288 325.205 429.428 326.24 429.625 327.337C429.868 328.429 430.219 329.435 430.678 330.356C431.137 331.278 431.787 331.681 432.63 331.567C433.052 331.51 433.44 331.387 433.796 331.198C434.199 331.003 434.593 330.739 434.977 330.406C435.013 333.492 434.896 335.967 434.624 337.83C434.333 339.556 433.953 341.153 433.485 342.622C433.044 343.946 432.566 345.345 432.051 346.82C431.563 348.151 431.132 349.895 430.757 352.054C430.279 354.507 429.702 356.061 429.028 356.714C428.4 357.361 427.651 358.165 426.78 359.126C425.787 360.245 425.149 361.525 424.868 362.968C424.587 364.412 424.249 365.792 423.855 367.11C423.462 368.428 422.829 369.568 421.958 370.529C421.152 371.622 419.719 372.308 417.659 372.587C415.785 372.841 413.884 372.888 411.955 372.727C410.072 372.561 408.171 372.257 406.251 371.814C405.371 371.653 404.603 371.265 403.947 370.651C403.357 370.169 402.772 369.546 402.192 368.782C401.63 368.155 401.059 367.46 400.478 366.696C399.898 365.931 399.2 365.183 398.385 364.45C397.955 364.087 397.435 363.595 396.826 362.976C396.236 362.493 395.614 361.946 394.958 361.332C394.303 360.718 393.694 360.098 393.132 359.472C392.552 358.707 392.074 357.999 391.7 357.348C391.26 356.564 390.904 355.699 390.633 354.752C390.389 353.661 390.146 352.57 389.903 351.479C389.641 350.25 389.374 349.162 389.103 348.215C388.859 347.124 388.527 346.256 388.106 345.61C387.366 345.43 386.64 345.177 385.928 344.852C385.198 344.389 384.458 343.857 383.709 343.256C383.316 341.763 382.932 340.34 382.558 338.986C382.212 337.487 381.842 335.991 381.449 334.499C380.579 332.65 379.778 331.143 379.048 329.977C378.299 328.674 377.62 327.36 377.012 326.038C376.403 324.715 375.814 323.179 375.243 321.43C374.7 319.537 374.176 317.079 373.671 314.056C373.044 310.488 372.296 307.076 371.425 303.822C370.536 300.43 369.633 297.11 368.716 293.862C367.846 290.608 366.99 287.282 366.148 283.883C365.352 280.478 364.712 276.982 364.225 273.395C363.72 269.669 363.464 265.84 363.455 261.907C361.331 256.435 359.655 250.409 358.43 243.831C357.186 237.114 356.106 230.376 355.189 223.616C354.89 221.408 354.6 219.269 354.32 217.2C354.067 214.986 353.801 212.844 353.521 210.774C353.203 208.429 352.772 206.661 352.229 205.47C351.714 204.135 351.326 202.501 351.064 200.569C350.653 197.534 350.391 194.549 350.28 191.613C350.215 188.671 350.023 185.676 349.706 182.628C349.06 182.435 348.568 181.799 348.231 180.721L348.259 179.873C348.363 178.173 348.415 176.621 348.415 175.216C348.462 173.804 348.448 172.471 348.374 171.217C348.299 169.962 348.215 168.639 348.122 167.247C348.028 165.854 347.93 164.251 347.828 162.439C347.436 156.731 347.156 151.149 346.989 145.692C346.868 140.228 346.715 134.699 346.529 129.104C346.278 122.675 346.27 116.985 346.505 112.036C346.74 107.086 347.514 102.415 348.826 98.0215C349.361 95.9821 349.806 93.8141 350.162 91.5177C350.519 89.2213 350.632 86.5363 350.502 83.4628C350.661 82.8792 350.872 82.4994 351.134 82.3233C351.396 82.1473 351.668 82.0402 351.949 82.0022L352.511 81.926C352.839 81.8815 353.134 81.7713 353.396 81.5953C353.686 81.2748 353.925 80.7507 354.113 80.0228C354.554 77.9959 354.975 76.5337 355.378 75.636C355.828 74.732 356.521 74.2166 357.458 74.0896C358.114 74.0008 358.774 74.122 359.439 74.4534C360.085 74.6469 360.764 74.9061 361.476 75.2312C361.616 74.5096 361.823 73.5683 362.094 72.4074C362.395 71.1022 362.68 70.2204 362.952 69.7621L363.036 70.3829C363.111 70.9348 363.209 71.4835 363.331 72.0291C363.481 72.4303 363.673 72.615 363.907 72.5833C364.516 72.5008 365.045 72.0075 365.495 71.1035C365.944 70.1996 366.455 69.5683 367.026 69.2099C368.291 68.3359 369.509 67.117 370.68 65.5532C371.832 63.8515 373.111 62.9054 374.516 62.715C376.015 62.5119 377.644 62.572 379.405 62.8954C381.213 63.2125 383.039 64.0187 384.884 65.3143C386.728 66.6098 388.54 68.5421 390.319 71.1112C392.079 73.5422 393.671 76.8392 395.094 81.0021C395.73 82.8829 396.31 84.3498 396.835 85.4028C397.34 86.3179 397.836 87.1639 398.323 87.941C398.791 88.58 399.269 89.2881 399.756 90.0653C400.224 90.7041 400.762 91.685 401.371 93.0077C402.672 95.9225 403.823 99.1386 404.824 102.656C405.854 106.029 407.047 109.029 408.405 111.655C410.071 114.802 411.503 118.682 412.701 123.297C413.946 127.906 414.895 132.624 415.55 137.453C415.755 138.971 415.891 140.498 415.956 142.035C416.021 143.572 416.166 145.168 416.391 146.824C416.578 148.203 416.867 149.639 417.261 151.132C417.7 152.618 418.173 154.169 418.678 155.787C419.184 157.405 419.675 159.094 420.152 160.856C420.63 162.618 421.027 164.321 421.345 165.963C421.991 169.67 422.697 173.297 423.464 176.846C424.213 180.258 424.98 183.807 425.766 187.494C426.776 192.134 427.702 196.856 428.544 201.66C429.386 206.464 430.111 211.283 430.718 216.119ZM419.072 216.222C418.025 208.495 416.753 200.87 415.256 193.344C413.806 185.813 412.356 178.282 410.906 170.75C410.345 168.017 409.685 165.436 408.927 163.01C408.215 160.577 407.542 158.069 406.905 155.486C405.67 150.595 404.458 145.701 403.27 140.804C402.082 135.906 400.893 131.009 399.705 126.112C398.966 123.121 397.955 120.588 396.672 118.514C395.371 116.302 393.962 114.526 392.445 113.186C390.909 111.708 389.303 110.591 387.627 109.834C385.979 108.934 384.415 108.303 382.935 107.941C381.436 107.442 380.069 107.206 378.833 107.233C377.625 107.115 376.716 107.098 376.107 107.18L376.992 106.85L376.248 107.161C375.217 107.301 374.168 107.303 373.101 107.167C372.08 107.024 371.054 107.022 370.024 107.162C369.181 107.276 368.366 107.597 367.579 108.125C366.821 108.51 366.216 109.505 365.766 111.111C364.707 114.908 363.713 118.485 362.785 121.843C361.839 125.062 361.285 129.423 361.125 134.924C361.087 136.756 360.96 138.108 360.744 138.98C360.51 139.714 360.285 140.517 360.069 141.39C359.882 142.118 359.737 142.98 359.633 143.978C359.53 144.976 359.581 146.584 359.787 148.805C360.095 152.837 360.356 156.877 360.571 160.923C360.813 164.824 361.206 168.775 361.748 172.776C362.328 177.054 362.767 181.35 363.066 185.665C363.392 189.836 363.546 193.96 363.526 198.037C363.535 199.16 363.535 200.214 363.526 201.199C363.563 202.177 363.656 203.219 363.806 204.322C364.086 206.392 364.493 208.163 365.027 209.637C365.542 210.972 365.874 212.191 366.024 213.295C366.098 213.847 366.075 214.201 365.953 214.358C365.859 214.371 365.761 214.525 365.658 214.82C365.583 214.971 365.522 215.401 365.475 216.109C365.475 216.812 365.596 218.06 365.839 219.854C366.382 223.855 366.933 227.925 367.494 232.064C368.102 236.197 368.794 240.248 369.571 244.218C370.029 246.544 370.572 248.789 371.199 250.952C371.854 252.971 372.34 255.153 372.658 257.498C372.864 259.016 372.953 260.55 372.924 262.099C372.896 263.649 372.994 265.251 373.218 266.907C373.48 268.838 373.882 270.4 374.425 271.591C374.95 272.644 375.502 273.904 376.082 275.371C376.513 276.436 376.943 277.853 377.374 279.622C377.832 281.245 378.258 282.804 378.651 284.296C379.091 285.782 379.479 287.064 379.816 288.142C380.153 289.221 380.439 289.744 380.673 289.712C380.86 289.687 381.015 289.596 381.137 289.439C381.24 289.144 381.385 288.984 381.572 288.958C382.509 288.831 383.38 289.978 384.185 292.398C385.018 294.674 385.593 296.984 385.911 299.33C386.173 301.261 386.584 302.892 387.146 304.221C387.689 305.412 388.293 306.524 388.958 307.558C389.622 308.592 390.287 309.626 390.952 310.66C391.645 311.55 392.263 312.59 392.806 313.781C393.695 315.768 394.35 317.084 394.772 317.73C395.24 318.369 395.633 318.807 395.951 319.045C396.251 319.145 396.527 319.248 396.78 319.354C397.08 319.454 397.497 319.889 398.03 320.66C398.695 321.694 399.378 322.866 400.081 324.176C400.811 325.342 401.508 326.441 402.173 327.475C404.036 330.314 405.904 331.958 407.778 332.406C409.679 332.711 411.496 332.745 413.229 332.51C413.931 332.415 414.521 331.844 414.999 330.795C415.477 329.747 415.946 328.63 416.405 327.443C416.845 326.119 417.304 324.933 417.782 323.884C418.307 322.83 418.944 322.251 419.693 322.15C420.302 322.067 420.991 322.396 421.758 323.135C422.181 318.16 422.688 314.157 423.278 311.126C423.869 308.095 424.376 305.146 424.798 302.279C425.22 299.412 425.469 296.146 425.545 292.483C425.62 288.819 425.355 283.867 424.747 277.627C424.486 274.993 424.393 272.546 424.468 270.288C424.572 267.885 424.502 265.436 424.259 262.94C423.745 257.389 423.114 251.854 422.366 246.335C421.665 240.81 421.081 235.269 420.614 229.712C420.408 227.492 420.18 225.275 419.927 223.061C419.675 220.847 419.39 218.567 419.072 216.222Z" fill="#570006"/>
</g>
<g filter="url(#filter2_i_27_262)">
<path d="M557.146 71.2327C557.249 72.4041 557.174 73.7223 556.92 75.1875C556.742 76.6459 556.235 77.412 555.4 77.4856C555.096 77.5123 554.769 77.2788 554.419 76.7849C554.146 76.2844 553.866 75.7187 553.581 75.0881C553.296 74.4574 552.978 73.8951 552.629 73.4013C552.355 72.9007 552.061 72.5987 551.745 72.4953C552.039 74.9616 552.205 76.8488 552.244 78.157C552.283 79.4653 552.255 80.4515 552.16 81.1157C552.054 81.6495 551.855 81.9949 551.562 82.1521C551.334 82.1722 551.068 82.1956 550.765 82.2224C550.157 82.2759 549.593 82.391 549.073 82.5679C548.552 82.7449 548.038 82.987 547.529 83.2943C545.839 84.0987 544.55 84.6716 543.661 85.0121C542.837 85.2158 542.264 85.66 541.942 86.3442C541.619 87.0282 541.483 88.0897 541.533 89.5281C541.583 90.9665 541.67 93.254 541.793 96.3913C541.847 98.7474 541.94 101.1 542.07 103.45C542.189 105.669 542.352 107.95 542.558 110.293C543.108 116.54 543.799 122.644 544.63 128.604C545.538 134.558 546.266 140.658 546.816 146.906C547.08 149.899 547.186 152.841 547.135 155.731C547.159 158.615 547.303 161.553 547.567 164.547C547.796 167.15 548.329 169.726 549.166 172.276C550.068 174.689 550.616 177.001 550.811 179.214C550.868 179.865 550.773 180.529 550.527 181.206C550.345 181.747 550.093 182.359 549.77 183.044C549.523 183.721 549.283 184.464 549.048 185.271C548.888 186.072 548.855 186.993 548.946 188.035C549.187 190.768 549.688 193.413 550.449 195.969C551.275 198.388 551.808 200.965 552.049 203.698C552.415 207.863 552.63 212.041 552.693 216.233C552.756 220.424 552.781 224.62 552.768 228.818C552.831 233.01 552.895 237.201 552.957 241.393C553.02 245.585 553.235 249.763 553.602 253.928C553.9 257.312 554.301 260.556 554.804 263.659C555.371 266.626 556.129 269.576 557.076 272.51C557.285 273.147 557.501 273.85 557.721 274.617C557.942 275.385 558.081 276.094 558.138 276.744C558.287 278.436 558.148 279.891 557.719 281.11C557.355 282.191 557.207 283.122 557.276 283.903C557.333 284.554 557.63 285.315 558.166 286.186C558.778 287.05 559.194 287.866 559.415 288.634C560.21 291.58 560.921 294.862 561.546 298.48C562.159 301.967 562.603 305.273 562.878 308.396C563.119 311.13 562.936 313.835 562.33 316.511C561.724 319.188 560.829 321.628 559.645 323.831C558.449 325.903 557.035 327.667 555.403 329.123C553.846 330.572 552.194 331.373 550.447 331.527C548.092 331.734 545.971 330.675 544.082 328.349C542.268 326.017 540.599 323.147 539.074 319.74C537.614 316.196 536.218 312.516 534.887 308.698C533.631 304.873 532.422 301.57 531.258 298.787C530.292 296.511 529.489 294.352 528.85 292.31C528.275 290.13 527.668 288.019 527.029 285.977C526.39 283.935 525.642 281.968 524.787 280.076C523.92 278.053 522.793 276.12 521.405 274.274C520.28 272.8 519.36 271.044 518.645 269.009C517.918 266.843 517.262 264.605 516.676 262.296C516.154 259.85 515.638 257.469 515.128 255.153C514.682 252.7 514.215 250.445 513.728 248.39C512.445 243.388 511.017 238.463 509.441 233.618C507.866 228.773 506.329 223.924 504.83 219.071C504.313 217.543 503.664 215.829 502.885 213.931C502.181 212.025 501.439 210.123 500.66 208.225C499.88 206.326 499.144 204.489 498.452 202.713C497.835 200.931 497.42 199.263 497.207 197.708C496.525 193.439 495.541 189.657 494.255 186.359C492.958 182.932 491.602 179.707 490.188 176.684C488.773 173.66 487.391 170.569 486.041 167.409C484.691 164.248 483.648 160.667 482.913 156.666C482.646 155.378 482.231 153.71 481.668 151.661C481.093 149.481 480.411 147.377 479.619 145.348C478.817 143.189 477.929 141.366 476.956 139.877C475.983 138.389 475.04 137.685 474.129 137.765C473.293 137.839 472.673 138.615 472.267 140.094C471.926 141.435 471.689 143.096 471.557 145.075C471.414 146.924 471.352 148.831 471.372 150.797C471.457 152.626 471.539 153.996 471.619 154.907C471.849 157.51 472.154 160.106 472.535 162.696C472.992 165.279 473.336 167.872 473.565 170.475C473.737 172.427 473.675 174.334 473.38 176.197C473.085 178.059 473.017 179.901 473.178 181.723C473.281 182.895 473.595 183.851 474.119 184.592C474.72 185.326 475.066 186.213 475.158 187.255C475.249 188.296 475.265 189.344 475.205 190.399C475.133 191.323 475.143 192.306 475.235 193.347C475.522 196.601 475.878 199.783 476.306 202.893C476.809 205.997 477.198 209.111 477.473 212.234C477.668 214.447 477.792 216.731 477.847 219.087C477.89 221.313 477.769 223.423 477.486 225.415C477.202 227.407 476.667 229.16 475.882 230.672C475.085 232.053 473.982 233.003 472.573 233.521C472.968 234.535 473.411 235.218 473.902 235.568C474.456 235.781 475.005 235.93 475.548 236.013C476.092 236.096 476.564 236.252 476.967 236.479C477.37 236.705 477.623 237.404 477.726 238.576C477.784 239.227 477.797 239.816 477.767 240.343C477.801 240.733 477.841 241.189 477.887 241.71C478.013 243.141 478.269 244.299 478.653 245.184C479.113 246.061 479.611 246.935 480.147 247.806C480.671 248.547 481.126 249.36 481.51 250.244C481.958 250.992 482.24 252.016 482.355 253.318C482.492 254.879 482.51 256.386 482.408 257.838C482.307 259.29 482.319 260.731 482.445 262.163C482.72 265.287 483.217 268.325 483.937 271.279C484.645 274.102 485.136 277.075 485.412 280.199C485.561 281.891 485.555 283.138 485.396 283.939C485.302 284.603 485.12 285.144 484.85 285.561C484.657 285.971 484.458 286.317 484.253 286.597C484.112 286.741 484.076 287.203 484.145 287.984C484.26 289.285 484.482 290.512 484.814 291.663C485.133 292.684 485.35 293.846 485.465 295.147C485.534 295.928 485.527 296.716 485.444 297.51C485.436 298.298 485.271 299.033 484.949 299.718C485.162 301.273 485.564 302.352 486.153 302.956C486.742 303.56 487.401 304.093 488.131 304.553C488.936 305.007 489.71 305.529 490.45 306.119C491.18 306.58 491.798 307.509 492.304 308.907C492.711 310.052 493.112 311.131 493.508 312.146C493.968 313.024 494.615 313.425 495.451 313.352C496.742 313.238 497.88 312.679 498.863 311.674C499.835 310.539 500.928 309.918 502.144 309.811C504.119 309.637 505.607 310.883 506.607 313.55C507.596 316.086 508.216 318.786 508.469 321.649C508.79 325.293 508.639 327.93 508.017 329.559C507.459 331.05 506.759 332.227 505.916 333.088C505.138 333.813 504.398 334.534 503.696 335.251C503.069 335.962 502.836 337.229 502.997 339.051C503.02 339.311 503.037 339.507 503.048 339.637C503.136 339.76 503.191 339.952 503.214 340.212C502.047 339.135 500.833 338.389 499.572 337.976C498.387 337.555 497.148 337.402 495.857 337.516C493.578 337.717 491.345 338.438 489.158 339.68C487.058 341.045 484.869 341.828 482.59 342.029C480.919 342.176 479.263 342.06 477.622 341.68C475.98 341.3 474.324 341.183 472.653 341.33C471.59 341.424 470.543 341.713 469.514 342.197C468.573 342.805 467.57 343.155 466.507 343.249C465.443 343.343 463.998 343.011 462.17 342.254C460.354 341.627 458.548 340.671 456.75 339.386C454.965 338.232 453.395 336.927 452.042 335.473C450.754 333.881 450.046 332.37 449.92 330.938C449.576 327.033 450.026 323.452 451.271 320.194C452.503 316.807 454.23 314.687 456.452 313.836C457.557 313.345 458.793 313.039 460.16 312.919C461.604 312.792 463.003 312.603 464.359 312.352C465.704 311.972 466.955 311.402 468.113 310.644C469.26 309.757 470.17 308.365 470.846 306.469C470.37 304.543 470.023 302.344 469.805 299.871C469.404 295.316 469.356 290.861 469.661 286.505C469.967 282.15 469.919 277.695 469.517 273.139C469.357 271.317 469.077 269.44 468.677 267.507C466.974 258.607 465.722 249.602 464.919 240.491C464.69 237.888 464.499 235.281 464.345 232.672C464.18 229.932 463.983 227.26 463.754 224.657C463.158 217.889 462.264 211.213 461.071 204.629C459.955 198.038 459.023 191.365 458.275 184.61C457.492 177.465 456.797 170.443 456.189 163.545C455.57 156.517 454.534 149.525 453.079 142.571C452.69 140.769 452.384 139.025 452.159 137.34C452.01 135.648 451.855 133.891 451.695 132.069L451.075 125.04C450.594 119.574 450.081 115.487 449.536 112.781C448.992 110.074 448.288 108.169 447.425 107.064C446.551 105.83 445.495 105.136 444.256 104.983C443.082 104.692 441.605 104.429 439.823 104.192C438.813 104.019 437.713 103.263 436.523 101.925C435.41 100.581 434.311 98.9724 433.227 97.1003C432.22 95.2215 431.321 93.2678 430.529 91.2388C429.814 89.2033 429.382 87.3395 429.233 85.6475L428.855 81.3524C428.396 76.1462 428.502 72.1364 429.173 69.3229C429.832 66.3792 430.902 64.1863 432.383 62.7443C433.852 61.1721 435.639 60.1621 437.743 59.7145C439.923 59.2601 442.266 58.9225 444.773 58.7017C447.28 58.4809 449.88 58.4487 452.573 58.6049C455.33 58.6244 458.014 59.1094 460.624 60.06C463.223 60.8804 465.645 62.3066 467.891 64.3385C470.125 66.2404 472.048 68.9566 473.661 72.4871C474.714 74.8864 475.665 77.4259 476.514 80.1057C477.351 82.6552 478.155 85.2732 478.928 87.9595C479.7 90.646 480.473 93.3325 481.245 96.0186C482.006 98.575 482.914 101.053 483.967 103.452C484.45 104.59 484.831 105.868 485.109 107.287C485.451 108.568 485.761 109.918 486.039 111.336C486.382 112.617 486.724 113.899 487.067 115.181C487.398 116.332 487.843 117.473 488.402 118.604C489.026 119.599 489.731 120.651 490.518 121.763C491.369 122.737 492.042 123.858 492.536 125.126C493.449 127.669 494.146 130.362 494.626 133.206C495.17 135.912 495.683 138.687 496.163 141.53C496.631 144.243 497.106 147.022 497.586 149.865C498.131 152.571 498.859 155.196 499.772 157.739C500.366 159.261 500.898 160.525 501.37 161.533C501.917 162.534 502.389 163.542 502.784 164.556C503.244 165.434 503.646 166.514 503.988 167.795C504.395 168.94 504.761 170.481 505.084 172.42C505.489 175.271 505.893 178.121 506.297 180.971C506.69 183.69 507.31 186.39 508.159 189.07C508.786 190.982 509.555 192.751 510.463 194.376C511.372 196.001 512.281 197.626 513.189 199.251C514.162 200.739 515.103 202.296 516.012 203.921C516.921 205.546 517.657 207.383 518.22 209.432C519.323 213.27 520.366 216.851 521.348 220.174C522.33 223.498 523.923 226.375 526.127 228.804C525.774 230.015 525.471 231.354 525.217 232.819C525.028 234.147 524.997 235.527 525.123 236.959C525.364 239.692 525.984 242.392 526.985 245.058C528.049 247.588 528.995 250.062 529.82 252.481C530.448 254.394 531.053 256.045 531.635 257.437C532.293 258.822 533.275 259.981 534.582 260.915C535.726 261.733 536.522 262.515 536.97 263.263C537.408 263.88 537.704 264.641 537.861 265.545C538.005 266.32 538.091 267.296 538.118 268.474C538.21 269.515 538.445 270.872 538.821 272.544C538.966 273.318 539.204 274.281 539.535 275.432C539.855 276.453 540.218 277.536 540.625 278.681C541.097 279.688 541.595 280.562 542.119 281.303C542.644 282.044 543.172 282.391 543.704 282.344C544.159 282.304 544.479 282.014 544.66 281.473C544.831 280.802 544.958 280.069 545.041 279.275C545.124 278.481 545.131 277.693 545.062 276.912C545.058 275.995 545.033 275.276 544.987 274.755C544.827 272.933 544.949 271.283 545.355 269.804C545.825 268.189 545.974 266.405 545.802 264.452C545.607 262.24 545.126 260.249 544.358 258.48C543.665 256.705 543.222 254.711 543.027 252.499C542.866 250.676 542.913 249.033 543.167 247.567C543.485 245.966 543.564 244.254 543.403 242.431C543.289 241.13 542.887 240.05 542.199 239.193C541.587 238.328 541.241 237.441 541.161 236.53C541.127 236.139 541.223 235.934 541.451 235.914C541.668 235.764 541.884 235.613 542.101 235.463C542.317 235.313 542.528 235.098 542.733 234.817C542.926 234.407 542.983 233.746 542.903 232.835C542.627 229.711 542.136 226.738 541.428 223.915C540.784 220.955 540.065 218.001 539.269 215.054C538.474 212.108 537.717 209.157 536.997 206.204C536.342 203.114 535.877 200.007 535.602 196.883C535.327 193.76 535.466 190.993 536.019 188.583C536.572 186.173 536.815 184.578 536.746 183.797C536.597 182.105 536.199 180.632 535.553 179.377C534.971 177.986 534.605 176.444 534.456 174.752C534.284 172.8 534.39 170.954 534.773 169.215C535.22 167.34 535.357 165.426 535.185 163.473C535.082 162.302 534.833 161.209 534.437 160.194C534.03 159.05 533.585 157.909 533.102 156.771C532.619 155.633 532.136 154.495 531.653 153.357C531.235 152.082 530.898 150.866 530.643 149.708C530.243 147.776 529.913 145.771 529.654 143.696C529.471 141.613 529.287 139.531 529.104 137.448L528.364 129.053C528.055 125.539 527.643 122.165 527.128 118.931C526.678 115.561 526.038 112.207 525.208 108.87C524.478 105.786 523.96 102.946 523.654 100.35C523.349 97.7534 522.921 95.4959 522.369 93.577C521.817 91.658 520.958 90.1598 519.791 89.0823C518.613 87.8743 516.797 87.2473 514.343 87.2009C512.573 87.0946 510.815 87.1184 509.067 87.2723C507.309 87.2961 505.522 86.9945 503.706 86.3675C502.52 85.9471 501.549 84.9178 500.792 83.2792C500.112 81.6341 499.566 79.7803 499.154 77.7179C498.743 75.6555 498.446 73.5831 498.262 71.5006C498.067 69.288 497.913 67.5309 497.798 66.2294C497.58 63.7565 498.086 61.6788 499.316 59.9966C500.61 58.1774 502.161 56.6636 503.968 55.4551C505.852 54.2399 507.764 53.3501 509.704 52.7857C511.633 52.0911 513.13 51.697 514.193 51.6033C514.877 51.5431 516.098 51.5011 517.857 51.4774C519.615 51.4536 521.575 51.5433 523.736 51.7464C525.898 51.9495 528.147 52.2761 530.483 52.7261C532.808 53.046 534.966 53.643 536.956 54.5169C538.936 55.2607 540.59 56.2298 541.92 57.4243C543.25 58.6188 543.99 60.062 544.139 61.754C544.708 60.3923 545.37 59.2191 546.126 58.2344C546.881 57.2497 547.79 56.7105 548.854 56.6169C549.841 56.5299 550.799 56.9702 551.726 57.9379C552.718 58.7686 553.586 59.9382 554.332 61.4465C555.077 62.9548 555.682 64.6067 556.146 66.4021C556.675 68.0606 557.008 69.6708 557.146 71.2327ZM470.895 323.975C470.792 322.803 470.527 321.974 470.101 321.487C469.664 320.87 469.13 320.458 468.5 320.251C467.945 320.037 467.352 319.827 466.722 319.621C466.156 319.277 465.692 318.793 465.331 318.169C465.289 318.566 465.248 318.963 465.206 319.361C465.229 319.621 465.258 319.946 465.292 320.337C465.395 321.508 465.666 322.403 466.103 323.02C466.528 323.507 467.019 323.857 467.573 324.071C468.204 324.278 468.802 324.553 469.368 324.896C469.923 325.11 470.419 325.525 470.856 326.142C470.898 325.745 470.907 325.417 470.884 325.156C470.926 324.759 470.929 324.365 470.895 323.975Z" fill="#740001"/>
</g>
<g filter="url(#filter3_i_27_262)">
<path d="M601.758 56.6378C601.271 58.5709 601.473 60.4494 602.365 62.2733C602.476 62.5012 602.601 62.6872 602.74 62.8313C602.823 63.0022 602.921 63.2018 603.032 63.4297C603.37 64.8182 603.543 66.2875 603.55 67.8375C603.53 69.4714 603.786 70.9707 604.317 72.3354C604.211 73.3756 603.925 74.1862 603.459 74.7673C603.796 76.0148 604.271 77.2656 604.884 78.5195C605.218 79.2034 605.263 79.7821 605.017 80.2555C604.716 80.7558 604.373 81.241 603.989 81.7113C603.605 82.1814 603.262 82.6668 602.961 83.1671C602.66 83.6674 602.636 84.3149 602.888 85.1096C603 85.4786 603.03 86.0287 602.978 86.7602C602.899 87.5755 602.793 88.4044 602.659 89.2466C602.498 90.1728 602.337 91.0285 602.175 91.8138C602.013 92.5991 601.878 93.23 601.77 93.7066C601.554 94.6597 601.379 95.5574 601.245 96.3997C601.139 97.2989 600.949 98.0976 600.677 98.7959C600.377 99.5779 599.966 100.273 599.445 100.881C598.952 101.546 598.251 102.136 597.343 102.65C596.848 103.033 596.395 103.432 595.983 103.845C595.544 104.342 595.104 104.698 594.663 104.913C593.948 105.263 593.327 105.32 592.802 105.082C592.221 104.871 591.696 104.564 591.225 104.158C590.754 103.753 590.31 103.334 589.894 102.902C589.506 102.527 589.078 102.348 588.609 102.365C588.388 102.332 588.139 102.312 587.864 102.306C587.56 102.383 587.339 102.28 587.2 101.995C587.088 101.767 587.059 101.358 587.111 100.767C587.191 100.233 587.161 99.7537 587.021 99.3278C586.911 99.2407 586.786 99.1252 586.647 98.9811C586.509 98.837 586.412 98.708 586.356 98.594C586.189 98.252 586.187 97.9702 586.352 97.7485C586.516 97.5269 586.708 97.2918 586.928 97.0432C587.175 96.8516 587.422 96.5897 587.669 96.2572C587.889 96.0086 587.969 95.6159 587.912 95.0793C587.767 93.667 588.078 92.2793 588.844 90.9162C589.638 89.6099 590.459 88.2199 591.307 86.7459C592.155 85.272 592.796 83.7227 593.23 82.0984C593.609 80.5009 593.324 78.7332 592.377 76.7953C592.321 76.6814 592.21 76.4533 592.043 76.1114C591.875 75.7694 591.694 75.3989 591.499 74.9999C591.277 74.6849 591.096 74.3849 590.957 74.1C590.763 73.8419 590.638 73.7263 590.583 73.7532C589.867 74.1031 589.276 74.5686 588.81 75.1496C588.316 75.8146 587.684 76.3354 586.913 76.7122C586.528 76.9006 585.88 76.8998 584.968 76.7098C584.057 76.5199 583.076 76.2578 582.026 75.9238C580.976 75.5897 579.953 75.2422 578.958 74.8813C577.963 74.5203 577.203 74.2915 576.679 74.1949L576.219 73.2544L575.968 72.7415C575.244 71.2596 574.382 69.845 573.382 68.4977C572.382 67.1503 571.52 65.7358 570.795 64.2538C570.238 63.114 569.902 62.0777 569.787 61.1451C569.618 60.2396 569.545 59.3925 569.568 58.6041C569.592 57.8156 569.616 57.0976 569.641 56.4501C569.61 55.8295 569.456 55.2342 569.177 54.6642C569.287 54.6104 569.425 54.5431 569.59 54.4623C569.728 54.4655 569.852 54.4402 569.962 54.3864C570.237 54.2518 570.484 53.9899 570.703 53.6003C570.922 53.2108 571.113 52.7643 571.276 52.2608C571.467 51.8144 571.631 51.3815 571.767 50.9619C571.903 50.5423 571.984 50.2201 572.01 49.9954C572.367 49.609 572.766 49.3082 573.206 49.0928C573.647 48.8775 574.087 48.6622 574.528 48.4469C575.464 47.9893 576.178 47.3577 576.671 46.5518C577.191 45.803 577.947 45.1863 578.938 44.7018C579.874 44.2443 580.852 43.8721 581.871 43.5856C582.864 43.383 583.856 43.1098 584.847 42.7664C585.29 42.9737 585.664 43.2499 585.969 43.5952C586.274 43.9403 586.593 44.2434 586.925 44.5047C587.257 44.766 587.617 44.9432 588.004 45.0366C588.39 45.1301 588.859 45.0422 589.409 44.773L589.822 44.5711C589.907 45.0239 589.869 45.5725 589.706 46.217C589.571 46.9183 589.588 47.44 589.755 47.7819C589.95 48.1809 590.407 48.5577 591.126 48.9123C591.845 49.267 592.425 49.3367 592.865 49.1214C593.141 48.9868 593.333 48.8222 593.442 48.6274C593.552 48.4327 593.744 48.268 594.02 48.1335C594.13 48.0796 594.24 48.0962 594.351 48.1833C594.49 48.3274 594.656 48.4579 594.849 48.5752C594.988 48.7192 595.14 48.8213 595.306 48.8815C595.5 48.9986 595.707 49.0034 595.927 48.8957L596.052 49.1522C596.359 49.7791 596.375 50.2304 596.1 50.5058C595.854 50.8384 595.524 51.1407 595.111 51.413C595.361 51.7852 595.652 51.9609 595.983 51.9403C596.342 51.9767 596.7 51.9427 597.059 51.8381C597.445 51.7907 597.817 51.7852 598.176 51.8215C598.508 51.9419 598.813 52.287 599.091 52.857C599.286 53.2559 599.426 53.6818 599.511 54.1347C599.596 54.5875 599.75 55.0419 599.973 55.4978C600.14 55.8398 600.376 56.1129 600.681 56.3172C600.958 56.6053 601.317 56.7121 601.758 56.6378Z" fill="#570006"/>
</g>
<g filter="url(#filter4_i_27_262)">
<path d="M677.127 128.353C676.517 130.052 675.868 131.79 675.181 133.568C674.571 135.267 673.892 136.888 673.144 138.431C672.753 139.25 672.222 140.124 671.549 141.055C670.91 141.891 670.208 142.705 669.441 143.494C668.75 144.206 668.051 144.807 667.343 145.299C666.669 145.696 666.139 145.825 665.754 145.687C665.112 145.456 664.909 144.744 665.144 143.55C665.38 142.355 665.692 141.082 666.081 139.73C666.513 138.394 666.826 137.12 667.019 135.911C667.254 134.717 667.03 133.997 666.345 133.751C666.131 133.674 665.905 133.699 665.665 133.826C665.469 133.969 665.264 134.002 665.05 133.925C664.965 133.894 665.082 133.297 665.404 132.134C665.725 130.97 666.11 129.563 666.558 127.913C667.006 126.262 667.432 124.604 667.838 122.938C668.277 121.177 668.593 119.692 668.786 118.483C669.045 116.551 669.299 114.564 669.55 112.523C669.876 110.402 670.43 108.257 671.21 106.086C671.752 104.576 672.338 103.348 672.968 102.402C673.632 101.361 674.283 100.423 674.922 99.5869C675.56 98.7507 676.178 97.9067 676.774 97.0551C677.369 96.2036 677.905 95.1169 678.379 93.7957C679.057 91.9079 679.373 90.1563 679.325 88.5406C679.277 86.925 678.978 85.5387 678.427 84.3817C677.953 83.1457 677.313 82.1698 676.507 81.454C675.778 80.6592 675.071 80.1388 674.386 79.8928C673.23 79.4777 671.977 79.4005 670.627 79.6615C669.354 79.8434 668.008 80.1592 666.59 80.6089C665.215 81.074 663.823 81.5863 662.414 82.1457C661.005 82.7052 659.647 83.123 658.339 83.3994C658.079 84.7976 657.716 86.2123 657.25 87.6435C656.827 89.0901 656.361 90.5211 655.852 91.937C654.699 95.146 653.482 98.3321 652.201 101.495C650.954 104.564 649.754 107.702 648.601 110.911C647.346 114.404 646.177 117.927 645.094 121.481C644.044 124.94 642.995 128.399 641.945 131.859C640.939 135.333 639.894 138.847 638.81 142.401C637.761 145.861 636.626 149.289 635.405 152.687C633.913 156.84 632.134 160.783 630.068 164.517C629.668 165.226 629.384 165.816 629.214 166.288C628.841 167.326 628.575 168.403 628.416 169.518C628.291 170.539 628.153 171.662 628.003 172.887C627.93 174.032 627.797 175.21 627.604 176.42C627.411 177.629 627.094 178.847 626.653 180.074C626.247 181.207 625.771 182.262 625.227 183.238C624.683 184.215 624.224 185.223 623.851 186.261C623.308 187.771 622.869 189.265 622.531 190.742C622.236 192.235 621.818 193.736 621.275 195.246C620.97 196.096 620.677 196.576 620.395 196.688C620.156 196.815 619.908 196.833 619.651 196.741C619.394 196.648 619.142 196.611 618.894 196.629C618.723 196.567 618.553 196.772 618.383 197.244C617.874 198.66 617.511 200.075 617.293 201.488C617.152 202.823 616.827 204.198 616.319 205.614C615.878 206.841 615.326 207.975 614.662 209.015C614.075 209.976 613.561 211.071 613.12 212.298C612.679 213.525 612.525 214.695 612.657 215.807C612.831 216.936 612.788 218.199 612.527 219.597C612.165 221.279 611.675 223.181 611.057 225.304C610.482 227.442 610.07 229.531 609.82 231.573C609.612 233.629 609.742 235.488 610.209 237.147C610.71 238.713 611.88 239.826 613.721 240.487L615.582 241.156C616.096 241.34 616.683 241.658 617.343 242.108C618.045 242.573 618.637 243.212 619.118 244.025C619.677 244.758 620.004 245.728 620.102 246.936C620.277 248.064 620.093 249.383 619.55 250.893C619.008 252.404 618.354 253.82 617.588 255.144C616.823 256.467 616.169 257.884 615.626 259.394C615.457 259.866 615.245 260.59 614.992 261.564C614.35 261.334 613.653 261.456 612.902 261.932C612.228 262.33 611.53 263.198 610.807 264.537C610.087 263.851 609.294 263.3 608.429 262.883C607.641 262.387 606.819 261.985 605.963 261.678C603.78 260.893 601.483 260.494 599.072 260.481C596.695 260.373 594.262 260.351 591.774 260.416C589.363 260.403 586.931 260.381 584.477 260.352C582.099 260.244 579.819 259.798 577.636 259.014C576.909 258.753 576.027 258.383 574.991 257.904C573.955 257.425 573.046 256.726 572.265 255.806C571.485 254.886 570.934 253.729 570.613 252.335C570.369 250.862 570.654 248.993 571.468 246.727C572.417 244.085 573.219 242.188 573.874 241.038C574.606 239.809 575.227 239.02 575.739 238.671C576.285 238.228 576.789 238.036 577.251 238.095C577.756 238.17 578.273 238.143 578.802 238.013C579.032 237.776 579.198 237.516 579.3 237.233C579.47 236.761 579.498 236.345 579.386 235.985C579.351 235.546 579.26 235.193 579.113 234.928C580.35 233.773 581.519 233.075 582.621 232.831C583.766 232.603 584.843 232.564 585.853 232.713C586.905 232.878 587.957 233.043 589.009 233.208C590.061 233.373 591.151 233.231 592.278 232.784C592.723 232.624 593.375 231.952 594.234 230.769C595.094 229.586 595.962 228.246 596.838 226.749C597.757 225.268 598.59 223.755 599.338 222.212C600.129 220.685 600.676 219.496 600.982 218.647L601.083 218.364C602.411 213.725 603.769 209.205 605.158 204.802C606.546 200.398 608.055 195.931 609.682 191.401C609.818 191.023 610.102 190.433 610.536 189.63C611.003 188.732 611.514 187.85 612.067 186.983C612.611 186.006 613.27 184.911 614.045 183.697C614.143 182.347 614.25 181.107 614.366 179.976C614.491 178.955 614.621 177.99 614.755 177.079C614.889 176.168 615.041 175.476 615.21 175.004C615.617 173.872 616.093 172.817 616.637 171.84C617.181 170.863 617.682 169.871 618.141 168.864C619.822 164.992 621.391 161.027 622.849 156.968C623.46 155.269 623.989 153.594 624.437 151.944C624.962 150.214 625.427 148.516 625.832 146.85C627.344 140.893 629.202 134.847 631.406 128.712C633.983 121.539 636.757 114.489 639.728 107.564C642.699 100.639 645.473 93.5898 648.05 86.4166C648.932 83.9625 649.417 82.0058 649.507 80.5459C649.63 78.9919 649.271 77.6373 648.43 76.4824C647.271 75.0005 645.98 73.6841 644.557 72.5336C643.177 71.3984 641.695 70.5463 640.111 69.9775C638.913 69.5469 637.532 69.4237 635.968 69.6078C634.48 69.7128 632.926 70.2733 631.305 71.2893C629.76 72.2264 628.217 73.6968 626.675 75.7005C625.211 77.6254 623.919 80.1452 622.8 83.2599C622.224 84.8644 621.707 86.4373 621.25 87.978C620.793 89.519 620.276 91.0918 619.7 92.6964C619.157 94.2066 618.533 95.474 617.826 96.499C617.197 97.445 616.695 98.4371 616.322 99.4753C615.814 100.891 615.51 102.274 615.412 103.624C615.313 104.974 615.01 106.357 614.501 107.773C614.162 108.717 613.682 109.716 613.061 110.772C612.483 111.843 611.845 112.946 611.148 114.081C610.484 115.121 609.82 116.162 609.157 117.202C608.536 118.258 607.992 119.234 607.524 120.132C606.801 121.471 606.083 122.598 605.367 123.513C604.652 124.429 603.93 124.755 603.203 124.494C602.604 124.279 602.2 123.654 601.991 122.62C601.817 121.492 601.967 120.267 602.442 118.946C602.815 117.907 603.21 117.144 603.627 116.654C604.121 116.086 604.521 115.377 604.826 114.527C605.165 113.583 605.419 112.609 605.587 111.604C605.788 110.504 605.93 109.436 606.013 108.4C606.172 107.285 606.352 106.177 606.554 105.078C606.756 103.978 607.043 102.909 607.416 101.871C607.891 100.549 608.434 99.3056 609.046 98.1402C609.701 96.9901 610.266 95.7543 610.74 94.4328C611.758 91.6013 612.544 88.74 613.099 85.8492C613.697 82.9736 614.505 80.12 615.522 77.2886C616.438 74.7401 617.651 71.7661 619.163 68.366C620.674 64.966 622.306 61.7691 624.058 58.7753C625.853 55.7968 627.632 53.399 629.396 51.5818C631.237 49.6856 632.928 49.0142 634.469 49.5677C635.539 49.9521 636.486 50.612 637.31 51.5473C638.21 52.4036 639.217 53.0317 640.329 53.4314C641.57 53.8773 642.897 54.0872 644.307 54.0612C645.718 54.0352 647.044 54.2451 648.285 54.691C649.141 54.9985 649.814 55.6133 650.304 56.5353C650.871 57.3784 651.583 57.9537 652.439 58.2612C652.952 58.4457 653.465 58.3635 653.977 58.0146C654.566 57.5866 655.095 57.4573 655.566 57.6264C656.08 57.8109 656.47 58.2709 656.738 59.0063C657.082 59.6627 657.51 60.0832 658.024 60.2677C658.495 60.4369 658.974 60.449 659.46 60.3042C659.99 60.1748 660.469 60.187 660.897 60.3408C661.539 60.5714 662.092 60.9831 662.555 61.5759C663.062 62.1841 663.615 62.5958 664.214 62.8111L672.745 63.4781C673.968 63.7044 675.191 63.9308 676.415 64.1572C677.638 64.3835 678.849 64.712 680.047 65.1425C682.102 65.8805 683.999 66.9884 685.739 68.4661C687.556 69.8649 689.306 71.4523 690.987 73.2286L690.936 73.3702C692.077 74.6326 692.506 76.5985 692.224 79.2678C691.942 81.937 691.31 84.907 690.328 88.1775C689.423 91.3691 688.356 94.6089 687.126 97.8971C685.897 101.185 684.901 104.024 684.139 106.415C682.979 110.047 681.823 113.735 680.672 117.478C679.597 121.141 678.416 124.766 677.127 128.353Z" fill="#640001"/>
</g>
<defs>
<filter id="filter0_i_27_262" x="196.098" y="127.785" width="163.804" height="214.608" filterUnits="userSpaceOnUse" color-interpolation-filters="sRGB">
<feFlood flood-opacity="0" result="BackgroundImageFix"/>
<feBlend mode="normal" in="SourceGraphic" in2="BackgroundImageFix" result="shape"/>
<feColorMatrix in="SourceAlpha" type="matrix" values="0 0 0 0 0 0 0 0 0 0 0 0 0 0 0 0 0 0 127 0" result="hardAlpha"/>
<feOffset dy="4"/>
<feGaussianBlur stdDeviation="2"/>
<feComposite in2="hardAlpha" operator="arithmetic" k2="-1" k3="1"/>
<feColorMatrix type="matrix" values="0 0 0 0 0 0 0 0 0 0 0 0 0 0 0 0 0 0 0.25 0"/>
<feBlend mode="normal" in2="shape" result="effect1_innerShadow_27_262"/>
</filter>
<filter id="filter1_i_27_262" x="346.334" y="62.5974" width="90.8608" height="314.223" filterUnits="userSpaceOnUse" color-interpolation-filters="sRGB">
<feFlood flood-opacity="0" result="BackgroundImageFix"/>
<feBlend mode="normal" in="SourceGraphic" in2="BackgroundImageFix" result="shape"/>
<feColorMatrix in="SourceAlpha" type="matrix" values="0 0 0 0 0 0 0 0 0 0 0 0 0 0 0 0 0 0 127 0" result="hardAlpha"/>
<feOffset dy="4"/>
<feGaussianBlur stdDeviation="2"/>
<feComposite in2="hardAlpha" operator="arithmetic" k2="-1" k3="1"/>
<feColorMatrix type="matrix" values="0 0 0 0 0 0 0 0 0 0 0 0 0 0 0 0 0 0 0.25 0"/>
<feBlend mode="normal" in2="shape" result="effect1_innerShadow_27_262"/>
</filter>
<filter id="filter2_i_27_262" x="428.576" y="51.4736" width="134.405" height="295.791" filterUnits="userSpaceOnUse" color-interpolation-filters="sRGB">
<feFlood flood-opacity="0" result="BackgroundImageFix"/>
<feBlend mode="normal" in="SourceGraphic" in2="BackgroundImageFix" result="shape"/>
<feColorMatrix in="SourceAlpha" type="matrix" values="0 0 0 0 0 0 0 0 0 0 0 0 0 0 0 0 0 0 127 0" result="hardAlpha"/>
<feOffset dy="4"/>
<feGaussianBlur stdDeviation="2"/>
<feComposite in2="hardAlpha" operator="arithmetic" k2="-1" k3="1"/>
<feColorMatrix type="matrix" values="0 0 0 0 0 0 0 0 0 0 0 0 0 0 0 0 0 0 0.25 0"/>
<feBlend mode="normal" in2="shape" result="effect1_innerShadow_27_262"/>
</filter>
<filter id="filter3_i_27_262" x="569.177" y="42.7664" width="35.9961" height="66.4597" filterUnits="userSpaceOnUse" color-interpolation-filters="sRGB">
<feFlood flood-opacity="0" result="BackgroundImageFix"/>
<feBlend mode="normal" in="SourceGraphic" in2="BackgroundImageFix" result="shape"/>
<feColorMatrix in="SourceAlpha" type="matrix" values="0 0 0 0 0 0 0 0 0 0 0 0 0 0 0 0 0 0 127 0" result="hardAlpha"/>
<feOffset dy="4"/>
<feGaussianBlur stdDeviation="2"/>
<feComposite in2="hardAlpha" operator="arithmetic" k2="-1" k3="1"/>
<feColorMatrix type="matrix" values="0 0 0 0 0 0 0 0 0 0 0 0 0 0 0 0 0 0 0.25 0"/>
<feBlend mode="normal" in2="shape" result="effect1_innerShadow_27_262"/>
</filter>
<filter id="filter4_i_27_262" x="570.529" y="49.3801" width="121.779" height="219.156" filterUnits="userSpaceOnUse" color-interpolation-filters="sRGB">
<feFlood flood-opacity="0" result="BackgroundImageFix"/>
<feBlend mode="normal" in="SourceGraphic" in2="BackgroundImageFix" result="shape"/>
<feColorMatrix in="SourceAlpha" type="matrix" values="0 0 0 0 0 0 0 0 0 0 0 0 0 0 0 0 0 0 127 0" result="hardAlpha"/>
<feOffset dy="4"/>
<feGaussianBlur stdDeviation="2"/>
<feComposite in2="hardAlpha" operator="arithmetic" k2="-1" k3="1"/>
<feColorMatrix type="matrix" values="0 0 0 0 0 0 0 0 0 0 0 0 0 0 0 0 0 0 0.25 0"/>
<feBlend mode="normal" in2="shape" result="effect1_innerShadow_27_262"/>
</filter>
</defs>
</svg>
