<svg width="1260" height="566" viewBox="0 0 1260 566" fill="none" xmlns="http://www.w3.org/2000/svg">
<g filter="url(#filter0_i_27_182)">
<path d="M241.699 163.678L239.065 165.252C236.272 164.802 233.987 161.88 231.131 162.137C230.369 162.201 217.992 168.206 217.104 168.848C211.486 172.862 211.645 181.243 211.994 187.377C207.297 185.257 199.586 184.615 195.206 187.73C190.826 190.845 185.781 199.065 182.385 201.891C180.861 203.143 178.608 203.4 177.751 204.171C175.72 206.066 177.847 208.699 171.372 209.245C173.15 218.14 164.676 220.805 162.36 225.557C159.884 230.663 158.996 242.159 154.045 245.113C151.76 246.494 145.254 247.65 144.016 249.77C142.683 252.082 144.175 261.94 139.066 258.793C138.399 258.376 138.685 255.55 136.051 255.486C134.94 255.486 129.101 261.169 128.91 261.619C128.148 263.481 128.847 265.825 127.99 268.234C127.196 270.482 117.168 288.464 115.105 292.189C110.44 300.731 105.077 306.575 100.221 314.089C98.6026 316.594 93.0488 329.246 93.3979 331.012C93.5883 332.072 95.4925 333.164 95.5242 334.705C95.5559 336.246 93.271 337.531 93.3979 339.136C93.5249 340.742 95.7464 342.251 95.4925 345.045C95.3338 346.715 92.4776 351.05 91.7794 354.068C90.3195 360.202 92.6363 367.652 86.8921 372.276L81.3383 367.78C78.3552 371.056 70.2626 373.079 68.6123 376.932C67.4064 379.726 69.3105 381.588 68.7393 383.868C68.0094 386.726 64.2328 390.579 63.5981 394.882C63.0269 398.704 63.8202 403.039 63.5346 406.956C57.4731 405.608 55.6324 404.355 49.6979 407.663C46.7464 411.516 55.0929 430.655 55.5055 436.178L70.1357 441.862C71.8176 443.178 69.0249 451.238 72.9919 455.156C73.4044 455.541 81.6874 459.491 82.6712 459.812C89.8752 461.964 100.761 462.991 108.314 465.079C110.472 465.657 115.899 467.455 117.2 469.349C112.757 471.372 110.186 467.391 109.774 467.326C99.3642 465.56 90.0657 464.918 79.2755 462.092C74.9277 460.936 72.8649 460.904 68.898 460.101C67.6285 459.844 62.6143 452.587 61.8209 450.885C58.0126 456.697 51.126 452.17 44.6202 453.101C44.0807 453.165 37.2575 457.308 35.3216 457.597C33.957 457.789 33.0366 455.959 32.148 455.927C26.3404 455.67 22.5004 464.436 19.0095 465.432C16.3754 466.17 14.7251 464.533 12.7575 464.725C10.7899 464.918 9.55222 467.294 7.07684 467.102C1.174 466.62 -0.349314 449.697 0.0632495 444.72C0.888377 434.99 4.34757 417.2 8.378 408.401C15.8994 392.024 34.7186 353.555 45.6357 339.169C47.2225 337.113 51.5385 335.09 53.7283 331.751C55.4103 329.182 57.2192 322.567 58.9012 319.645C68.7393 302.497 80.1959 286.923 89.431 269.422C94.3182 260.142 103.109 252.724 106.314 246.269C108.092 242.673 109.329 233.104 112.122 230.181C113.423 228.801 115.835 229.443 116.152 228.319C116.501 226.97 115.708 224.562 116.152 222.732C117.834 215.442 123.071 211.781 124.689 207.093C127.387 199.322 125.165 190.235 134.337 184.487L132.56 181.693C130.656 182.656 127.736 182.239 126.086 182.849C121.865 184.454 117.358 195.983 112.661 193.767C112.281 193.606 106.568 188.886 106.346 188.533C103.299 183.234 107.044 172.926 110.853 168.848C115.676 163.71 125.165 160.082 129.354 155.779C133.544 151.476 144.841 135.901 150.014 134.489C152.617 133.782 155.346 134.906 157.821 133.14C160.646 131.117 160.455 124.213 164.549 121.451C166.834 119.91 171.15 119.107 174.134 117.277C182.448 112.267 187.939 106.519 195.619 101.446C201.331 97.6564 215.009 86.0962 220.023 83.9769C227.354 80.8941 227.005 82.2107 234.209 77.5545C240.239 73.6369 251.061 72.1919 258.011 69.2376C260.074 68.3706 259.947 65.7695 261.883 65.0631C264.326 64.1639 270.737 63.9713 273.339 62.2051C274.26 61.595 275.942 58.0306 278.322 56.2645C290.032 47.5301 297.585 50.2596 309.454 48.7182C310.153 48.6219 318.372 40.3049 320.181 39.6948C320.943 39.4379 327.512 37.6718 327.956 37.6397C328.623 37.5754 331.701 39.5342 334.526 38.9562C345.094 36.8048 363.12 27.2355 373.688 25.6299C380.638 24.5702 393.967 26.9786 399.774 25.2767C400.346 25.1161 407.581 19.047 409.263 18.6295C413.103 17.6983 416.753 19.9461 420.307 19.7213C423.417 19.5287 426.115 17.0561 428.717 16.5744C433.128 15.7395 437.762 16.8313 442.11 16.2533C449.472 15.2578 458.803 9.7667 467.086 11.7255C468.006 11.9503 467.403 13.8128 469.498 14.1018C472.671 14.5192 500.662 12.3356 503.201 11.0512C505.137 10.0878 506.692 6.52341 508.532 6.17018C509.675 5.9454 520.211 8.22533 523.226 8.19322C530.113 8.09689 537.666 5.43162 543.759 4.69305C554.867 3.37647 565.72 4.30771 576.859 2.34889C578.859 1.99566 580.033 0.101072 582.572 0.0047365C587.808 -0.187934 593.521 5.56006 597.519 5.81696C600.439 6.00963 603.835 4.14715 607.802 4.62882C620.496 6.23441 633.984 6.90875 646.583 9.12446C650.201 9.7667 653.469 7.16565 655.532 7.29409C657.341 7.39043 659.372 9.28502 661.467 9.25291C663.72 9.2208 665.497 6.7482 668.195 7.0372C670.226 7.26198 676.351 10.73 678.858 11.3402C696.249 15.5789 716.433 14.3908 734.395 16.2854C738.204 16.7028 739.441 20.0424 741.599 20.6526C753.215 23.9601 766.353 22.4508 777.746 24.7308C783.364 25.8547 789.457 29.3548 795.201 30.0292C804.817 31.1531 812.18 30.1255 822.24 32.4376C822.843 32.566 826.683 37.6718 831.951 39.0526C847.692 43.195 863.401 45.6676 878.951 51.5761C880.538 52.1863 881.586 54.6268 884.41 55.3011C891.773 57.0994 892.979 56.3929 900.817 59.5077C915.003 65.1594 928.459 72.5772 942.962 78.1004C955.054 82.7245 958.608 88.2477 967.78 93.4498C974.254 97.1105 988.281 98.3629 995.517 104.657C998.214 107.001 998.468 111.4 1001.77 113.359C1005.07 115.318 1009.7 114.515 1012.62 116.249C1015.03 117.662 1021.51 126.204 1025.32 128.837C1033.28 134.36 1044.77 135.484 1049.75 145.728C1050.55 147.365 1049.28 150.031 1050.96 152.535C1053.15 155.843 1057.46 154.494 1054.07 162.458L1058.26 164.224C1060.96 172.156 1048.1 171.706 1046.33 174.468C1044.74 176.972 1047.59 182.078 1042.93 182.688C1038.26 183.298 1035.31 177.358 1031.31 177.037C1029.06 176.844 1027.63 181.853 1022.59 180.184C1019.06 178.995 1020.68 168.399 1010.46 168.077L1005.29 172.316C1002.85 172.316 998.119 165.733 994.945 165.284C989.201 164.481 980.918 168.591 975.079 168.848L973.238 179.156C979.395 183.298 981.934 191.84 987.519 195.982C991.01 198.584 995.739 198.519 997.326 203.4C998.5 206.997 996.85 208.667 1000.05 212.199C1005.45 218.107 1018.4 214.35 1019.32 223.888C1019.54 226.167 1016.27 228.255 1017.73 230.117L1036.68 239.879C1038.52 241.517 1036.96 247.072 1041.76 249.77C1044.04 251.054 1046.36 250.572 1048.04 251.504C1054.01 254.907 1060.04 262.968 1065.59 266.114C1068.7 267.881 1072 267.977 1074.82 269.486C1078.85 271.638 1086.47 277.61 1090.12 278.317C1092.98 278.895 1095.55 276.198 1099.51 278.028C1103.07 279.666 1104.59 285.895 1105.99 286.762C1113.07 291.162 1124.08 295.721 1131.85 299.607C1139.63 303.493 1135.34 301.405 1139.85 305.965C1147.4 313.543 1154.77 308.919 1160 312.709C1163.02 314.892 1161.81 319.131 1165.68 321.989C1168 323.691 1170.38 323.466 1172.09 324.75C1173.43 325.746 1173.97 328.347 1175.43 329.471C1178.82 332.104 1182.98 333.581 1185.9 337.467L1193.58 333.067C1197.93 339.618 1206.24 339.747 1213.19 343.279C1214.75 344.082 1223.85 349.765 1224.78 350.632C1227.5 353.169 1229.22 362.225 1231.53 362.931C1234.87 363.927 1236.07 359.142 1238.45 358.564C1239.15 358.404 1248.58 359.142 1249.66 359.495C1250.89 359.881 1251.78 358.757 1251.37 361.294C1250.32 367.973 1242.1 367.074 1241.21 367.78C1240.96 367.973 1239.28 373.592 1239.25 373.978C1239.12 377.799 1245.63 384.639 1241.44 385.923C1238.74 386.758 1227.31 386.309 1224.81 384.928C1222.05 383.419 1222.9 378.152 1217.67 377.895C1209.92 377.51 1211.99 381.781 1211.26 382.455C1210.81 382.873 1201.64 383.9 1199.55 385.795L1196.78 384.639C1195.99 382.263 1195.51 378.666 1193.04 377.446C1192.37 377.093 1182.79 374.427 1182.25 374.459C1178.76 374.78 1174.79 389.199 1171.4 391.286C1165.4 395.011 1157.69 389.006 1153.43 385.056L1146.83 388.396C1144.39 382.584 1134.61 383.9 1129.76 382.552C1113 377.927 1101.55 367.427 1086.76 359.014C1084.31 357.633 1081.62 357.055 1078.92 355.385C1076.22 353.715 1074.98 349.059 1072 353.137L1077.49 360.073L1073.84 362.867C1065.94 357.215 1064.41 346.233 1052.55 349.091C1052.07 349.509 1057.12 359.816 1057.69 360.619C1059.78 363.445 1067.59 367.652 1069.08 371.056C1069.91 372.95 1069.4 376.418 1069.75 376.739C1070.03 377.028 1072.79 376.675 1074.19 377.414C1075.59 378.152 1076.28 379.918 1077.74 380.817C1080.03 382.198 1083.61 380.336 1083.36 386.052L1058.26 379.116C1055.75 382.391 1060 386.244 1058.92 388.364C1058.73 388.749 1052.99 393.341 1052.45 393.566C1049.94 394.658 1046.61 392.153 1045.28 395.621C1043.37 400.663 1047.47 400.63 1048.96 402.91C1056.39 414.406 1027.22 407.213 1022.84 404.548C1022.97 407.021 1022.4 411.645 1019.76 412.512C1011.64 410.553 1002.56 412.512 994.787 411.548C987.519 410.649 992.184 405.544 988.979 404.644L975.999 404.548C975.174 400.406 982.156 402.814 985.425 401.979C985.901 401.851 993.327 397.933 993.676 397.612C996.786 394.658 992.978 393.084 993.232 391.446C993.454 390.001 997.452 388.589 996.532 385.602C987.487 376.675 981.775 387.015 974.254 391.832C961.813 399.763 967.431 391.832 969.144 383.804H956.577L957.085 377.96L965.558 376.707L966.859 372.276L954.26 371.73L954.324 365.34L949.659 363.477C949.056 357.087 959.655 352.206 960.671 348.031C961.21 345.88 959.719 343.889 960.004 341.738C960.449 338.334 965.146 331.815 965.685 328.797C966.225 325.778 963.971 322.117 965.05 319.099C965.78 317.012 967.748 315.952 968.446 314.346C973.175 303.525 974.635 301.566 963.971 293.666C962.765 299.8 952.61 293.249 952.007 293.666C952.07 299.061 937.885 303.557 941.09 308.695C945.755 316.145 958.449 305.034 958.862 319.709C959.148 329.503 948.23 333.838 944.01 341.705C936.552 337.724 937.028 341.288 932.236 343.6C928.491 345.398 923.731 346.619 920.113 348.642C916.495 350.665 915.416 355.738 908.593 353.747C910.655 345.013 918.05 343.728 919.732 334.416C920.335 331.076 919.414 327.416 920.24 324.526C920.811 322.567 924.175 320.865 924.175 318.521C924.175 317.172 922.207 314.796 922.175 311.585C922.175 307.603 925.127 303.974 924.111 300.57C923.826 299.607 918.97 294.148 918.558 293.987C915.67 292.767 911.036 294.405 907.355 293.153C900.183 290.744 901.293 281.881 899.802 276.519C898.564 272.087 893.455 268.555 892.788 266.275C890.662 258.793 888.758 242.095 881.966 236.218C881.205 235.544 879.269 235.769 878.253 234.773C874.921 231.466 873.366 229.347 874.286 224.337L869.748 225.493C870.605 219.552 864.924 210.85 858.926 210.433C857.815 210.336 858.069 214.511 855.499 213.933C850.262 211.075 852.357 207.125 851.246 203.208C850.643 201.088 848.676 199.675 848.39 198.166C847.882 195.565 847.311 186.285 846.2 183.876C846.01 183.459 841.567 176.748 841.249 176.362C836.616 170.807 834.299 178.674 835.505 183.33L833.252 183.909C831.507 181.34 830.078 176.523 828.65 174.339C826.27 170.711 821.319 165.733 819.066 161.848C817.924 159.857 818.209 157.063 816.686 155.008C814.845 152.567 811.037 153.081 809.831 149.26C806.689 152.567 805.356 156.806 805.769 161.366C806.213 166.311 810.751 174.468 811.291 178.963C811.577 181.243 810.148 183.363 810.275 185.643C810.434 188.661 812.909 190.235 812.783 194.859C812.751 196.368 810.466 206.258 808.117 203.529C807.356 199.868 807.514 195.115 806.689 191.647C806.086 189.111 804.119 187.28 803.579 184.39C802.532 178.771 804.976 175.335 798.375 171.16L796.661 176.94C788.187 170.068 789.108 153.434 777.27 149.228C780.952 155.65 780.761 164.706 783.332 171.417C785.236 176.426 790.695 183.619 792.091 189.143C793.011 192.836 788.156 188.982 787.584 189.656L787.013 197.749C783.459 190.909 783.586 182.078 779.619 175.206C777.651 171.77 754.674 145.374 752.167 144.026C751.025 143.416 750.009 143.287 748.74 143.448C747.788 144.443 750.834 151.636 746.455 150.384C746.106 144.7 744.265 137.925 741.187 133.172C739.854 131.117 731.444 120.777 729.318 122.639C730.111 135.934 737.601 147.076 743.25 158.797C746.518 165.637 754.96 179.124 756.483 185.867C756.769 187.12 756.833 188.372 756.737 189.656C753.659 189.817 750.834 186.895 748.772 190.299C748.423 191.969 752.58 200.574 753.215 203.111C758.038 222.41 763.275 244.953 761.72 264.413C760.958 274.11 761.593 286.762 760.07 296.524C758.8 304.777 754.23 316.241 753.342 325.553C752.834 330.884 754.294 339.329 753.246 343.761C753.024 344.628 751.184 344.467 750.993 345.334C749.755 350.954 750.263 351.211 748.073 357.215C747.121 359.913 744.107 371.248 743.599 372.276C742.869 373.721 740.552 374.01 739.886 374.941C730.143 388.332 721.447 403.264 712.149 416.783C710.816 418.709 705.579 427.123 705.072 427.54C704.469 428.054 701.866 427.668 700.057 428.824C696.471 431.104 688.664 441.187 684.761 444.559C677.969 450.436 668.544 458.464 660.388 460.133C657.436 460.744 634.269 478.212 627.51 481.359C612.372 488.424 582.635 494.718 565.435 497.126C559.881 497.897 552.169 496.323 545.885 496.998C543.473 497.255 541.665 499.31 540.459 499.149C538.967 498.924 536.238 496.452 533.096 496.163C516.752 494.814 502.979 490.672 487.999 485.181C465.721 477.056 450.107 472.529 430.748 456.376C417.578 445.362 393.681 420.989 385.176 406.603C384.287 405.126 384.795 402.846 383.97 401.465C381.939 398.126 373.561 389.68 372.386 387.208C371.498 385.313 369.245 376.161 369.498 374.074C369.752 372.179 371.593 368.615 372.577 366.753C373.973 364.152 381.399 356.284 384.255 355.385C388.476 354.036 394.982 355.61 399.14 353.105C401.044 351.949 404.059 344.114 403.233 342.219C402.757 341.127 400.79 340.1 400.092 338.398C397.458 332.04 395.204 324.718 396.918 317.911C401.932 316.851 402.662 324.558 406.851 325.778C408.279 326.195 415.61 326.388 416.213 325.874C419.673 318.81 414.119 312.227 412.976 305.708C412.151 301.02 411.548 286.184 413.992 282.62C416.658 278.734 420.022 281.946 421.513 274.078C423.259 264.958 420.942 257.476 419.831 249.063C419.355 245.37 420.275 241.581 419.45 237.888C418.911 235.48 412.786 228.704 410.342 229.154C405.804 229.957 406.217 234.292 405.931 234.549C404.852 235.512 397.521 232.975 398.061 241.003C398.283 244.279 402.091 246.141 401.488 249.738C397.965 250.155 397.045 246.751 393.491 247.875C392.094 248.325 384.732 254.49 384.065 255.839C383.779 265.601 378.638 279.441 378.702 288.657C378.702 291.483 381.209 292.96 380.955 294.212C372.958 298.515 365.563 303.557 356.296 299.479C355.408 298.226 357.693 294.148 356.741 291.033C355.789 287.918 345.887 280.212 353.155 275.298C359.724 277.386 363.31 274.849 369.53 274.014C369.721 261.972 354.9 262.775 348.299 254.458C344.935 250.251 347.601 247.169 347.283 242.769C346.966 238.113 343.126 232.911 343.761 228.319C343.983 226.778 346.776 223.727 347.347 220.869C347.759 218.718 346.68 216.887 347.22 215.121C347.823 213.194 350.996 211.3 351.187 208.667C351.631 202.662 350.203 193.285 351.25 186.799C354.932 164.224 349.41 161.141 345.824 140.172C344.586 132.915 346.141 127.199 345.475 119.717C344.872 113.263 343.507 107.675 340.905 101.799C338.62 101.478 339.032 101.606 338.334 103.244C336.144 108.318 340.302 111.657 339.762 116.827C336.176 116.185 336.176 107.29 335.065 106.583C331.447 104.207 327.48 109.538 326.655 109.602C325.957 109.666 316.214 104.753 313.771 104.336C305.329 102.891 307.201 115.639 306.598 120.841C306.344 122.993 304.535 124.727 304.409 126.718C304.155 130.699 308.122 135.323 302.663 138.792C299.267 137.058 301.838 128.163 300.918 127.296C291.841 128.323 295.332 117.534 293.079 111.753L287.239 111.079C287.113 114.644 287.462 118.401 288.699 121.772C289.778 124.759 291.333 125.401 292.349 127.36C294.063 130.635 290.762 132.755 297.49 131.952C295.618 136.608 301.965 140.076 302.124 140.815C303.234 146.049 299.331 152.535 300.949 157.32C296.57 157.513 297.078 152.118 295.681 149.356C293.745 145.535 290.318 141.36 288.699 137.925C286.192 132.562 286.16 125.529 281.527 120.841L280.036 120.488C270.642 125.979 261.248 117.823 266.326 134.007C268.262 140.172 275.053 156.068 277.973 161.398C280.004 165.091 284.098 167.146 284.955 171.192C283.717 172.445 279.528 167.532 278.734 166.504C273.498 159.375 269.785 149.228 264.199 141.938C261.438 138.374 258.17 136.801 255.821 133.076L252.965 134.842L256.392 143.48C253.695 144.7 250.712 141.2 249.22 141.425C248.776 141.489 241.572 145.374 241.572 145.824V163.742L241.699 163.678ZM421.005 92.5828C418.181 85.3577 426.432 69.0128 414.151 69.4945C415.356 75.2746 413.865 87.4128 417.483 91.8763C418.562 93.1929 419.609 92.5186 420.974 92.5828H421.005ZM399.711 113.809C400.695 112.588 403.075 111.753 404.503 110.019C406.756 107.258 407.994 102.826 411.39 100.193L406.185 78.1325C401.805 75.0177 396.379 78.7105 395.522 78.55C392.507 78.0362 392.253 74.0543 386.794 79.417C384.414 81.7611 383.97 86.0962 383.05 87.6697C382.51 88.6009 379.686 88.5688 378.956 91.0735C377.718 95.1838 379.527 102.537 375.877 106.455C374.29 98.4592 377.242 89.0505 371.307 82.2107C367.213 86.1605 372.164 93.1287 367.309 96.6289L369.657 97.9133L368.419 112.203C363.786 107.29 365.627 93.3214 356.392 93.803C352.456 93.9957 351.441 101.478 351.314 104.753C351.028 112.075 357.502 140.237 360.771 147.141C362.041 149.806 365.055 151.476 365.055 154.944C370.927 154.847 369.371 147.494 370.768 144.283C371.403 142.838 373.656 142.87 374.068 141.521C374.576 139.755 371.466 124.373 369.625 121.997L376.449 120.263C375.623 126.3 376.893 129.447 381.621 132.947H383.24C384.763 128.773 389.682 127.167 392.824 123.603C394.728 121.419 397.394 116.538 399.711 113.744V113.809ZM952.293 168.688C955.783 170.903 960.83 167.403 963.273 166.889C969.144 165.637 970.858 165.83 975.523 166.119C976.697 166.183 984.917 163.004 985.044 161.366C981.934 158.637 982.441 153.338 980.759 150.866C979.077 148.393 974.666 148.393 972.096 146.916C967.05 143.994 964.796 138.406 961.877 136.447C960.131 135.259 957.846 135.452 956.069 134.232C951.055 130.796 949.944 123.731 941.502 126.332C938.773 127.167 937.155 132.915 932.68 130.186C930.173 128.644 931.664 124.438 930.839 121.74C930.49 120.552 925.857 111.368 925.381 110.983C923.921 109.827 921.604 110.148 920.24 109.249C915.321 106.07 913.512 102.762 905.959 104.143C897.136 105.781 902.626 111.882 903.832 115.446C904.784 118.304 904.784 121.933 906.403 124.406C911.957 132.851 927.983 129.672 935.504 138.888C937.536 141.393 937.853 144.796 939.598 147.462C941.502 150.384 947.596 155.104 948.23 156.132C948.929 157.32 947.596 159.086 948.199 160.66C948.484 161.43 951.975 168.399 952.356 168.623L952.293 168.688ZM771.653 157.32C765.719 142.645 758.483 127.745 748.232 115.735L749.152 125.208L762.577 147.173L771.653 157.32ZM1038.65 172.027C1042.52 168.11 1036.11 163.004 1032.11 164.256C1031.82 167.339 1031.6 173.183 1035.92 173.28L1038.65 172.027ZM532.937 218.557C532.239 215.956 529.351 216.084 527.225 216.277V217.401L532.937 218.557ZM539.792 216.245L536.619 218.846L537.539 224.305L539.792 216.213V216.245ZM448.425 300.602H469.561C469.942 300.602 476.543 297.905 476.955 297.68C479.748 296.043 480.034 290.487 485.016 291.354L483.842 289.074H491.84C483.747 254.49 521.163 273.596 538.777 266.66C540.49 264.477 539.538 256.417 538.459 254.04C537.222 251.311 533.731 252.628 532.969 249.802C535.984 248.903 542.014 252.628 543.886 249.802C541.823 244.889 545.06 239.654 544.426 235.416C543.664 230.342 537.729 230.952 534.937 229.058C533.318 227.966 533.001 224.241 530.144 224.369L530.716 226.681C528.526 226.264 526.209 227.741 524.305 227.741C514.816 227.741 504.058 225.782 494.791 225.493C480.446 225.044 466.165 227.002 451.853 227.227C449.218 228.993 448.869 242.448 450.171 245.178C452.487 249.994 462.135 246.366 466.038 246.462C468.641 246.526 472.29 248.453 474.226 248.517C474.734 248.517 474.607 246.526 475.464 246.334C479.685 245.402 490.792 245.499 495.68 245.627C496.536 245.627 497.425 247.072 498.79 246.976C503.645 246.591 507.993 243.444 507.263 238.242C510.437 239.269 509.072 244.118 510.024 244.632C511.547 245.499 519.005 245.467 522.306 246.141C524.146 246.526 528.812 247.747 529.541 249.77C510.437 250.894 490.951 248.614 471.814 249.738C464.166 250.187 456.454 253.366 448.425 252.082C448.996 256.609 447.378 260.88 447.219 265.312C447.029 270.771 448.52 277.161 448.33 281.464C448.139 285.446 443.696 290.455 444.966 295.978H449.536L448.393 300.602H448.425ZM574.892 233.906C571.084 230.567 558.675 236.026 557.183 241.324C555.977 245.659 556.612 264.316 556.898 270C557.152 274.977 558.865 280.115 558.199 285.446C562.388 286.602 570.703 287.79 574.448 285.606C575.653 284.9 574.892 283.102 575.495 282.459C575.717 282.202 580.985 279.89 581.493 279.858C585.46 279.698 586.253 284.065 587.459 284.418C594.409 286.409 596.567 281.592 600.058 276.904C594.251 268.298 586.761 266.5 584.635 254.651C584.063 251.439 585.015 247.201 584.19 244.696C583.587 242.898 580.509 242.159 579.176 240.521C577.685 238.691 576.003 234.838 574.892 233.874V233.906ZM362.77 289.042L358.2 289.62C359.438 291.386 360.644 291.643 362.77 291.354V289.042ZM577.494 305.227C577.494 296.621 563.88 300.185 558.072 299.446C558.072 301.566 557.405 305.483 559.944 306.286L577.494 305.227ZM568.354 309.851C558.262 307.089 555.152 312.484 564.356 317.911L568.354 309.851ZM481.303 312.42C474.575 314.282 468.038 314.539 461.976 318.424C460.485 319.388 459.247 318.553 459.85 321.411C467.086 319.291 475.686 318.617 482.7 316.241C483.207 316.08 484.667 314.346 483.049 314.539L481.272 312.452L481.303 312.42ZM442.713 323.723C444.617 323.787 452.614 324.654 451.853 320.865C451.25 317.975 441.919 319.934 442.713 323.723ZM435.731 328.475C435.223 327.576 432.494 327.191 431.193 328.893C427.416 333.87 439.507 335.219 435.731 328.475ZM1045.75 335.283L1043.47 335.861C1043.06 340.036 1046.01 345.719 1050.9 344.499C1056.16 343.183 1044.61 337.146 1045.75 335.283ZM429.32 346.49L432.843 347.742C438.904 344.852 432.462 340.999 427.892 341.063L429.32 346.522V346.49ZM1223.98 364.152C1224.17 364.023 1225.35 360.844 1224.01 360.073C1216.33 355.546 1219.73 367.298 1223.98 364.152Z" fill="#740001"/>
<path d="M984.584 448.167C985.186 448.526 989.502 455.862 991.057 457.329C993.278 459.416 999.053 462.513 1001.91 464.371C1002.1 466.132 1002.35 467.143 1000.2 466.719C998.64 466.425 989.375 460.883 986.9 459.513C985.504 458.763 984.837 456.481 982.489 455.601C970.241 451.134 962.34 454.134 951.044 452.666C948.854 452.373 949.965 450.417 947.775 450.123C939.779 449.08 929.086 450.384 920.867 450.188L927.721 444.352L876.317 449.602C875.746 447.743 878.665 446.732 879.839 446.243C899.639 438.418 923.374 439.429 944.253 440.831C948.188 441.092 953.201 443.179 956.882 443.211C962.15 443.276 965.672 440.146 971.542 443.309C973.351 444.287 974.62 447.058 976.46 447.613C978.999 448.363 982.902 447.124 984.584 448.102V448.167Z" fill="#740001"/>
<path d="M876.18 508.339C875.2 511.307 871.247 510.739 868.748 510.644C858.66 510.234 846.041 504.961 835.193 506.035C834.308 509.823 838.546 507.803 841.17 508.56C846.041 509.95 852.018 511.781 856.762 513.454C860.715 514.843 866.408 516.611 869.317 519.642C860.968 517.969 852.904 514.843 844.586 513.107C841.36 512.444 835.256 513.012 832.505 511.749C831.019 511.086 832.505 508.75 831.082 508.245C825.452 506.256 813.877 507.266 807.647 506.824C805.528 506.666 794.839 504.33 794.269 504.898L793.605 508.339L760.746 512.886C754.516 513.675 747.463 523.083 741.929 517.937C741.929 514.18 767.04 510.707 767.672 506.603C767.799 505.877 766.534 504.077 766.945 503.762C773.207 503.762 779.5 503.762 785.794 503.698C792.435 503.604 790.063 502.815 792.467 502.53C795.756 502.12 816.028 502.183 817.04 501.489L815.901 499.247C819.475 499.373 823.112 498.994 826.717 499.247C843.194 500.415 860.178 504.709 876.243 508.339H876.18Z" fill="#740001"/>
<path d="M108.693 194.26C113.218 197.451 102.544 208.992 99.8034 212.022C91.8376 220.887 76.9893 233.427 71.1902 243.484C69.9794 245.58 70.9353 247.772 70.4574 248.578C69.9794 249.384 62.619 255.251 60.8028 255.509C60.3886 255.025 63.1926 244.871 63.7342 243.936C65.2955 241.099 66.8568 238.327 68.5774 234.974C73.0383 226.27 81.8644 216.47 85.2101 208.798C86.3253 206.219 84.2542 204.027 85.3694 202.19C86.0066 201.158 98.1147 192.229 99.4848 191.906C100.058 191.777 108.311 194.002 108.693 194.292V194.26Z" fill="#740001"/>
<path d="M725.457 524.138C727.867 526.252 721.527 526.22 723.175 528.789C724.887 530.935 741.276 532.691 745.397 533.504C747.077 533.829 748.947 533.504 749.391 535.813L723.143 533.504L725.426 536.983C717.596 540.658 714.267 534.577 708.815 533.536C703.711 532.561 690.049 532.593 684.913 533.471C681.68 534.024 681.934 535.618 683.202 538.154C678.098 540.138 676.355 535.618 673.597 535.748C669.634 535.91 667.827 538.317 665.165 538.967C660.6 540.105 648.712 539.032 652.39 545.146C642.626 542.609 637.174 540.658 630.136 549.829C625.54 549.243 633.306 543.91 631.848 542.837C626.586 543.455 622.972 539.618 617.552 539.292C612.67 539.032 608.264 541.146 603.35 540.463L604.523 533.439C608.137 532.626 606.52 535.78 606.774 538.122C607.82 539.26 625.698 537.211 628.868 537.309C630.612 537.374 632.704 538.967 634.828 539.195C644.623 540.203 646.335 535.358 654.387 533.699C665.989 531.325 679.176 530.35 690.715 528.821C699.907 527.585 705.296 530.317 712.144 529.829C716.55 529.537 724.221 523 725.426 524.073L725.457 524.138Z" fill="#740001"/>
<path d="M501.181 524.717C501.464 524.85 501.526 526.342 502.376 526.607C504.797 527.37 511.277 526.607 510.553 530.289C502.659 530.985 488.851 526.475 481.712 527.934C478.629 528.564 477.749 531.648 475.358 533.174C472.779 534.832 464.067 538.613 467.716 532.278C470.043 528.266 473.408 530.62 473.188 526.707C461.866 525.414 451.329 529.625 440.384 531.482C439.503 529.095 443.34 527.37 444.63 527.039C451.549 525.215 496.746 522.661 501.181 524.717Z" fill="#740001"/>
<path d="M604.416 531.276C601.445 532.233 602.571 529.577 601.351 529.083C599.85 528.466 592.781 526.706 591.467 526.829C588.12 527.169 587.933 530.72 585.837 532.418C584.617 533.406 582.678 533.622 581.302 534.61C579.675 535.753 578.487 538.285 576.548 538.872C574.327 539.52 565.882 538.316 564.975 536.278L576.235 531.276L571.762 527.416C571.668 524.853 581.333 525.995 583.554 525.718C590.06 524.915 595.658 522.784 602.54 524.791C605.167 525.563 603.509 529.145 604.385 531.276H604.416Z" fill="#740001"/>
<path d="M567.107 526.474C564.586 529.819 559.194 529.819 555.652 531.839C552.111 533.859 558.269 532.832 556.769 535.978C552.27 536.475 546.815 535.25 542.507 536.045C539.093 536.674 535.967 540.482 532.106 540.847C525.438 541.443 517.685 533.627 517.685 545.45L507.411 545.516L514.813 539.522C523.97 533.859 533.414 534.256 543.05 531.905C550.867 529.984 558.237 524.619 567.107 526.507V526.474Z" fill="#740001"/>
<path d="M1017.96 447.933L1018.02 451.285C1016.73 453.169 1005.33 448.38 1002.65 447.901C999.408 447.358 995.692 448.38 992.543 447.805C989.393 447.23 986.937 443.272 982.843 444.389V440.941L1017.93 447.933H1017.96Z" fill="#740001"/>
<path d="M115.439 450.998C115.725 451.126 115.725 452.367 116.074 452.558C118.168 453.735 121.118 451.412 120.325 455.199C114.139 457.713 109.603 453.831 104.844 452.972C100.34 452.144 94.9474 454.531 91.2677 450.553C88.3176 447.339 89.2058 444.666 93.5199 445.366C94.7571 445.557 95.5501 447.625 97.1362 448.103C101.133 449.312 112.331 449.598 115.439 450.998Z" fill="#740001"/>
<path d="M1029.71 195.14C1026.38 194.272 1021.92 197.839 1019.22 197.219C1016.92 196.66 1011.86 192.256 1012.81 189.092C1013.87 185.495 1017.87 189.434 1019.97 189.806C1024.12 190.519 1030.25 188.41 1029.71 195.14Z" fill="#740001"/>
<path d="M886.117 464.85C886.401 464.973 886.306 466.45 887.191 466.666C889.467 467.22 893.322 465.589 894.365 468.912C883.367 467.62 873.222 470.758 862.508 471.128C861.623 467.527 865.732 469.343 868.45 468.635C871.737 467.773 883.62 463.742 886.085 464.85H886.117Z" fill="#740001"/>
<path d="M1045.62 207.115C1051.38 206.232 1054 210.315 1055.33 215.252C1049.09 219.213 1042.09 214.551 1045.62 207.115Z" fill="#740001"/>
<path d="M941.231 408.598C941.807 412.562 935.665 412.205 933.809 414.511C931.954 416.818 933.425 420.359 927.411 419.125L929.299 412.01L941.231 408.631V408.598Z" fill="#740001"/>
<path d="M1258.71 369.501C1249.66 371.564 1251.47 361.847 1258.3 360.084C1261.14 362.446 1259.8 366.506 1258.71 369.501Z" fill="#740001"/>
<path d="M344.202 524.763C345.081 528.882 340.594 526.509 338.052 527.168C334.13 528.19 332.718 530.793 327.259 528.289C331.746 521.467 337.833 524.73 344.202 524.763Z" fill="#740001"/>
<path d="M439.188 531.643L429.349 540.126L425.33 535.337C425.298 534.244 437.098 530.844 439.188 531.613V531.643Z" fill="#740001"/>
<path d="M606.548 545.516L588.426 551.985C589.781 545.065 600.781 546.148 606.548 545.516Z" fill="#740001"/>
<path d="M896.497 488.377C895.294 493.11 890.544 489.793 888.293 489.995C882.34 490.521 876.109 492.342 869.848 491.29L877.065 488.377H896.497Z" fill="#740001"/>
<path d="M201.186 481.649C199.427 483.313 188.243 476.556 187.614 473.294C189.593 472.995 203.637 479.319 201.186 481.649Z" fill="#740001"/>
<path d="M737.665 510.139C734.553 514.351 728.362 515.707 723.807 515.243C726.566 508.533 732.083 510.068 737.665 510.139Z" fill="#740001"/>
<path d="M812.284 511.017L802.755 513.173L793.101 513.115C793.007 512.445 794.605 511.017 794.793 511.017H812.284Z" fill="#740001"/>
<path d="M527.665 554.843C526.61 558.296 522.802 557.179 520.283 557.281C520.341 554.234 519.463 549.868 522.392 548.75C522.275 552.88 524.062 554.979 527.665 554.843Z" fill="#740001"/>
<path d="M1039.34 201.54C1038.99 201.984 1029.77 200.097 1030.91 196.213L1038.32 196.842L1039.34 201.54Z" fill="#740001"/>
<path d="M179.086 468.971C174.952 468.641 168.426 467.078 166.294 463.593C170.946 463.412 176.308 465.335 179.086 468.971Z" fill="#740001"/>
<path d="M253.706 498.141C253.618 503.015 250.032 501.179 247.407 499.787C245.92 498.996 244.783 500.04 245.308 497.002L253.706 498.141Z" fill="#740001"/>
<path d="M984.827 416.059C985.912 419.09 980.713 418.236 978.512 418.043C976.502 417.878 972.483 417.74 973.376 415.067L984.859 416.059H984.827Z" fill="#740001"/>
<path d="M796.182 494.846C796.692 497.246 795.417 496.202 793.312 496.424C790.282 496.735 784.478 497.735 782.437 496.046L796.214 494.846H796.182Z" fill="#740001"/>
<path d="M214 488.268C213.172 488.964 208.554 486.124 207.312 485.457C205.91 484.704 204.127 486.066 204.827 483.052C206.579 482.414 215.943 486.616 214 488.268Z" fill="#740001"/>
<path d="M364.568 533.657L357.106 528.369C360.512 527.752 364.302 529.985 364.568 533.657Z" fill="#740001"/>
<path d="M962.589 413.989H955.127V416.145H962.589V413.989Z" fill="#740001"/>
<path d="M513.595 560.609C514.883 561.658 509.944 565.73 508.477 566L508.656 561.867L513.595 560.609Z" fill="#740001"/>
<path d="M911.421 489.455C909.704 494.308 904.107 489.233 900.761 490.752L911.421 489.455Z" fill="#740001"/>
<path d="M963.187 394.774C965.533 396.687 958.291 399.586 958.325 396.388C958.325 395.282 962.371 394.116 963.187 394.774Z" fill="#740001"/>
<path d="M941.269 416.198V418.301H935.939C936.59 415.935 939.226 416.052 941.269 416.227V416.198Z" fill="#740001"/>
<path d="M149.239 475.44V478.558C146.787 478.818 144.371 478.862 142.843 476.22L149.239 475.44Z" fill="#740001"/>
<path d="M224.835 495.924L218.528 494.508V491.716C220.28 490.89 225.676 495.216 224.835 495.924Z" fill="#740001"/>
<path d="M906.647 457.112L909.289 459.269L907.698 461.425L905.025 459.269L906.647 457.112Z" fill="#740001"/>
<path d="M424.264 529.345H421.066V526.51L424.264 525.032V529.345Z" fill="#740001"/>
<path d="M692.893 515.238C690.414 515.516 688.267 515.238 687.563 513.264C690.043 512.986 692.19 513.264 692.893 515.238Z" fill="#740001"/>
<path d="M448.189 300.789L449.336 296.148H444.746C443.471 290.572 447.934 285.545 448.125 281.548C448.316 277.23 446.818 270.816 447.009 265.338C447.169 260.858 448.762 256.604 448.22 252.06C456.284 253.349 463.998 250.158 471.711 249.707C490.93 248.579 510.468 250.867 529.688 249.739C528.923 247.709 524.269 246.484 522.421 246.098C519.106 245.421 511.616 245.453 510.086 244.583C509.162 244.035 510.5 239.201 507.313 238.17C508.046 243.39 503.679 246.549 498.803 246.936C497.432 247.032 496.508 245.614 495.679 245.582C490.771 245.453 479.647 245.356 475.376 246.291C474.516 246.484 474.643 248.515 474.133 248.483C472.157 248.418 468.524 246.452 465.91 246.42C461.99 246.355 452.3 249.997 449.973 245.131C448.667 242.391 449.017 228.888 451.663 227.115C466.037 226.89 480.38 224.924 494.787 225.375C504.094 225.665 514.899 227.663 524.429 227.631C526.373 227.631 528.668 226.148 530.867 226.567L530.293 224.247C533.162 224.118 533.481 227.857 535.106 228.952C537.911 230.854 543.871 230.241 544.636 235.333C545.274 239.588 542.023 244.841 544.094 249.772C542.246 252.608 536.19 248.869 533.13 249.772C533.927 252.64 537.433 251.286 538.644 254.026C539.728 256.411 540.684 264.5 538.963 266.691C521.273 273.653 483.695 254.477 491.823 289.186H483.791L484.97 291.507C479.966 290.637 479.679 296.212 476.874 297.856C476.46 298.081 469.862 300.789 469.448 300.789H448.22H448.189Z" fill="#740001"/>
<path d="M574.916 233.871C576.03 234.834 577.716 238.683 579.212 240.512C580.549 242.148 583.636 242.886 584.24 244.683C585.068 247.185 584.113 251.388 584.686 254.628C586.818 266.434 594.329 268.263 600.152 276.86C596.652 281.512 594.488 286.356 587.518 284.367C586.309 284.015 585.513 279.619 581.535 279.812C581.058 279.812 575.775 282.154 575.521 282.41C574.916 283.052 575.68 284.849 574.47 285.554C570.715 287.736 562.345 286.549 558.177 285.394C558.813 280.101 557.095 274.935 556.872 269.963C556.585 264.284 555.949 245.645 557.158 241.314C558.654 236.021 571.097 230.535 574.916 233.903V233.871Z" fill="#740001"/>
<path d="M577.767 305.031L559.546 306.179C556.878 305.309 557.603 301.065 557.603 298.769C563.632 299.569 577.767 295.708 577.767 305.031Z" fill="#740001"/>
<path d="M481.396 312.678L483.204 314.681C484.851 314.496 483.366 316.159 482.849 316.313C475.713 318.593 466.962 319.239 459.6 321.272C458.987 318.5 460.246 319.301 461.764 318.408C467.899 314.681 474.583 314.465 481.428 312.648L481.396 312.678Z" fill="#740001"/>
<path d="M568.173 310.145L564.124 318.038C554.807 312.723 557.956 307.44 568.173 310.145Z" fill="#740001"/>
<path d="M428.895 345.965L427.462 340.679C432.049 340.617 438.547 344.379 432.431 347.147L428.895 345.934V345.965Z" fill="#740001"/>
<path d="M442.439 323.301C441.583 319.539 451.297 317.642 451.923 320.487C452.746 324.218 444.415 323.364 442.439 323.301Z" fill="#740001"/>
<path d="M435.327 328.509C438.695 335.269 427.974 333.917 431.313 328.928C432.464 327.222 434.878 327.608 435.327 328.509Z" fill="#740001"/>
<path d="M539.391 215.619L537.12 224.244L536.193 218.425L539.391 215.619Z" fill="#740001"/>
<path d="M362.436 288.93V290.995C360.482 291.254 359.327 291.024 358.172 289.446L362.436 288.93Z" fill="#740001"/>
<path d="M532.995 218.853L526.599 217.276V215.743C528.98 215.48 532.213 215.305 532.995 218.853Z" fill="#740001"/>
</g>
<g filter="url(#filter1_i_27_182)">
<path d="M566.306 281.353C566.776 283.397 567.219 285.506 567.634 287.682C568.104 289.725 568.399 291.749 568.519 293.753C568.593 294.812 568.49 296.031 568.212 297.41C567.907 298.675 567.481 299.969 566.935 301.289C566.442 302.479 565.843 303.572 565.137 304.572C564.405 305.457 563.675 305.983 562.948 306.151C561.735 306.429 560.811 305.925 560.175 304.637C559.538 303.349 558.957 301.929 558.43 300.377C557.983 298.806 557.401 297.386 556.684 296.116C556.048 294.828 555.083 294.333 553.79 294.63C553.386 294.723 553.049 294.92 552.778 295.222C552.587 295.505 552.29 295.692 551.886 295.785C551.725 295.822 551.406 295.178 550.932 293.853C550.457 292.528 549.876 290.928 549.19 289.054C548.504 287.18 547.777 285.315 547.01 283.46C546.217 281.491 545.462 279.871 544.745 278.602C543.521 276.612 542.245 274.575 540.915 272.49C539.639 270.273 538.701 267.859 538.101 265.248C537.683 263.432 537.573 261.843 537.771 260.483C537.942 259.009 538.181 257.64 538.485 256.375C538.79 255.109 539.054 253.853 539.278 252.606C539.502 251.36 539.431 249.942 539.065 248.352C538.543 246.082 537.561 244.216 536.119 242.755C534.677 241.293 533.031 240.238 531.179 239.588C529.383 238.805 527.544 238.392 525.662 238.346C523.834 238.169 522.274 238.229 520.981 238.526C518.8 239.028 516.75 239.917 514.832 241.195C512.968 242.341 511.103 243.666 509.237 245.171C507.452 246.657 505.68 248.2 503.921 249.8C502.162 251.4 500.364 252.829 498.526 254.088C499.296 255.585 499.917 257.175 500.389 258.859C500.942 260.525 501.415 262.209 501.806 263.912C502.694 267.772 503.46 271.66 504.105 275.576C504.724 279.378 505.478 283.208 506.365 287.068C507.331 291.269 508.458 295.432 509.748 299.558C511.011 303.571 512.273 307.583 513.536 311.596C514.88 315.59 516.197 319.65 517.486 323.776C518.749 327.789 519.85 331.838 520.79 335.925C521.938 340.92 522.455 345.941 522.339 350.988C522.306 351.952 522.354 352.718 522.485 353.285C522.772 354.534 523.261 355.737 523.952 356.893C524.617 357.935 525.349 359.081 526.147 360.332C527 361.451 527.785 362.645 528.502 363.914C529.219 365.184 529.747 366.556 530.087 368.032C530.4 369.394 530.539 370.737 530.503 372.06C530.467 373.383 530.592 374.669 530.879 375.918C531.297 377.735 531.863 379.457 532.578 381.085C533.373 382.695 533.98 384.409 534.398 386.225C534.633 387.247 534.574 387.918 534.222 388.238C533.952 388.539 533.574 388.745 533.089 388.857C532.604 388.968 532.173 389.127 531.795 389.334C531.472 389.408 531.375 389.729 531.506 390.297C531.897 391.999 532.518 393.59 533.368 395.068C534.273 396.413 534.922 397.938 535.313 399.641C535.653 401.117 535.737 402.591 535.565 404.065C535.448 405.407 535.559 406.816 535.899 408.291C536.238 409.767 536.983 410.971 538.132 411.901C539.363 412.814 540.363 414.018 541.133 415.515C541.981 417.352 542.813 419.491 543.629 421.933C544.527 424.356 545.641 426.61 546.971 428.695C548.382 430.761 550.159 432.384 552.302 433.565C554.419 434.632 557.215 434.766 560.69 433.967L564.205 433.159C565.174 432.936 566.372 432.78 567.798 432.691C569.305 432.584 570.783 432.722 572.232 433.106C573.736 433.357 575.076 434.006 576.252 435.05C577.483 435.962 578.307 437.327 578.725 439.143C579.143 440.959 579.305 442.775 579.212 444.589C579.118 446.403 579.281 448.219 579.698 450.035C579.829 450.603 580.105 451.436 580.528 452.534C579.316 452.813 578.316 453.461 577.53 454.478C576.797 455.364 576.425 456.704 576.413 458.5C574.692 458.418 572.97 458.515 571.247 458.791C569.579 458.936 567.937 459.194 566.321 459.566C562.2 460.513 558.223 461.906 554.392 463.743C550.535 465.467 546.663 467.313 542.777 469.283C538.945 471.12 535.074 472.966 531.161 474.822C527.304 476.546 523.315 477.882 519.194 478.829C517.82 479.145 516.11 479.478 514.064 479.829C512.018 480.18 509.987 480.229 507.972 479.975C505.957 479.721 504.106 479.071 502.419 478.025C500.786 476.846 499.657 474.895 499.03 472.17C498.3 468.991 497.966 466.618 498.031 465.049C498.151 463.348 498.468 462.139 498.984 461.423C499.474 460.593 500.11 460.029 500.892 459.73C501.755 459.412 502.551 458.99 503.28 458.463C503.444 458.067 503.487 457.698 503.409 457.358C503.279 456.79 502.972 456.383 502.49 456.135C502.062 455.755 501.62 455.498 501.164 455.364C502.146 453.345 503.407 451.8 504.948 450.729C506.569 449.639 508.242 448.776 509.967 448.14C511.774 447.486 513.58 446.831 515.386 446.177C517.192 445.523 518.799 444.555 520.207 443.276C520.775 442.786 521.24 441.663 521.601 439.907C521.963 438.15 522.205 436.242 522.327 434.182C522.53 432.104 522.571 430.062 522.45 428.058C522.41 426.035 522.273 424.513 522.038 423.491L521.96 423.151C520.141 417.831 518.47 412.598 516.946 407.45C515.422 402.302 514.033 397.004 512.78 391.555C512.676 391.1 512.627 390.335 512.635 389.257C512.616 388.066 512.678 386.857 512.821 385.628C512.857 384.305 512.976 382.784 513.176 381.065C512.19 379.737 511.311 378.505 510.539 377.368C509.874 376.326 509.262 375.331 508.704 374.383C508.146 373.436 507.802 372.679 507.671 372.111C507.358 370.749 507.219 369.406 507.255 368.083C507.291 366.76 507.247 365.455 507.121 364.169C506.51 359.29 505.643 354.409 504.52 349.527C504.05 347.484 503.472 345.525 502.786 343.651C502.154 341.645 501.455 339.714 500.688 337.858C498.045 331.175 495.876 324.143 494.179 316.764C492.195 308.136 490.628 299.472 489.478 290.772C488.328 282.072 486.762 273.408 484.778 264.78C484.099 261.828 483.213 259.642 482.12 258.219C481.002 256.684 479.287 255.703 476.978 255.278C473.888 254.793 470.73 254.563 467.503 254.588C464.357 254.594 461.289 254.941 458.299 255.629C456.036 256.149 453.744 257.095 451.422 258.465C449.154 259.704 447.166 261.416 445.457 263.602C443.802 265.656 442.601 268.203 441.854 271.243C441.161 274.152 441.246 277.479 442.107 281.226C442.551 283.155 443.063 285.01 443.642 286.789C444.221 288.568 444.733 290.423 445.176 292.353C445.594 294.17 445.677 295.824 445.424 297.316C445.227 298.676 445.271 299.981 445.559 301.23C445.95 302.933 446.639 304.448 447.625 305.775C448.61 307.102 449.299 308.617 449.691 310.32C449.952 311.455 450.037 312.751 449.946 314.206C449.936 315.642 449.858 317.154 449.713 318.742C449.541 320.215 449.37 321.689 449.198 323.163C449.107 324.618 449.071 325.941 449.09 327.132C449.078 328.928 448.892 330.525 448.532 331.922C448.173 333.319 447.307 334.176 445.933 334.492C444.802 334.752 443.634 334.483 442.429 333.684C441.198 332.772 440.4 331.521 440.035 329.931C439.748 328.683 439.728 327.671 439.975 326.897C440.277 325.991 440.311 325.027 440.076 324.005C439.815 322.87 439.392 321.772 438.808 320.711C438.198 319.537 437.52 318.438 436.774 317.414C436.083 316.258 435.432 315.093 434.821 313.918C434.211 312.744 433.762 311.532 433.475 310.284C433.11 308.694 432.919 307.124 432.903 305.574C432.967 304.006 432.817 302.426 432.452 300.837C431.668 297.431 430.494 294.175 428.929 291.069C427.445 287.944 426.311 284.678 425.528 281.273C424.823 278.207 424.23 274.519 423.749 270.207C423.268 265.895 423.15 261.679 423.393 257.559C423.718 253.421 424.509 249.832 425.767 246.794C427.08 243.623 429.191 241.704 432.1 241.035C434.12 240.57 436.178 240.455 438.274 240.691C440.425 240.794 442.55 240.604 444.651 240.121C446.995 239.582 449.273 238.759 451.486 237.653C453.698 236.546 455.976 235.724 458.32 235.185C459.936 234.813 461.522 234.867 463.078 235.346C464.69 235.692 466.303 235.68 467.919 235.308C468.889 235.085 469.632 234.616 470.148 233.899C470.718 233.051 471.448 232.525 472.337 232.32C473.306 232.097 474.314 232.224 475.359 232.701C476.46 233.046 477.495 233.106 478.464 232.884C479.353 232.679 480.122 232.323 480.771 231.815C481.501 231.289 482.269 230.933 483.078 230.747C484.289 230.468 485.514 230.426 486.749 230.62C488.066 230.795 489.29 230.753 490.421 230.493L504.499 224.566C506.629 223.837 508.758 223.109 510.888 222.38C513.017 221.651 515.213 221.027 517.476 220.506C521.355 219.615 525.297 219.186 529.304 219.221C533.365 219.124 537.479 219.254 541.645 219.611L541.684 219.781C544.559 220.076 546.902 221.569 548.712 224.261C550.522 226.952 552.032 230.191 553.243 233.976C554.508 237.63 555.557 241.452 556.39 245.445C557.223 249.436 558.047 252.833 558.861 255.634C560.095 259.892 561.383 264.198 562.724 268.551C564.12 272.772 565.314 277.039 566.306 281.353Z" fill="#E00A0B"/>
</g>
<g filter="url(#filter2_i_27_182)">
<path d="M708 243.254C709.287 241.732 709.93 239.955 709.93 237.925C709.93 237.671 709.9 237.449 709.838 237.259C709.838 237.069 709.838 236.847 709.838 236.593C710.145 235.197 710.635 233.801 711.309 232.406C712.045 230.946 712.474 229.487 712.596 228.028C713.148 227.14 713.76 226.537 714.435 226.22C714.68 224.951 714.802 223.619 714.802 222.223C714.802 221.462 715.017 220.923 715.446 220.605C715.936 220.288 716.457 220.003 717.008 219.749C717.56 219.495 718.081 219.21 718.571 218.892C719.061 218.575 719.368 218.004 719.49 217.179C719.552 216.799 719.766 216.291 720.134 215.657C720.563 214.959 721.022 214.261 721.513 213.563C722.064 212.802 722.585 212.104 723.075 211.47C723.565 210.835 723.964 210.328 724.27 209.947C724.883 209.186 725.435 208.456 725.925 207.758C726.415 206.997 726.936 206.362 727.488 205.855C728.1 205.284 728.774 204.84 729.51 204.523C730.245 204.142 731.134 203.92 732.176 203.856C732.788 203.73 733.371 203.571 733.922 203.381C734.535 203.127 735.086 203 735.577 203C736.373 203 736.955 203.222 737.323 203.666C737.752 204.11 738.089 204.618 738.334 205.189C738.579 205.76 738.794 206.331 738.978 206.902C739.162 207.409 739.468 207.758 739.897 207.949C740.081 208.075 740.295 208.202 740.54 208.329C740.847 208.393 741 208.583 741 208.9C741 209.154 740.847 209.535 740.54 210.042C740.234 210.486 740.05 210.93 739.989 211.374C740.05 211.501 740.111 211.66 740.173 211.85C740.234 212.041 740.265 212.199 740.265 212.326C740.265 212.707 740.142 212.96 739.897 213.087C739.652 213.214 739.376 213.341 739.07 213.468C738.763 213.531 738.426 213.658 738.059 213.849C737.752 213.976 737.507 214.293 737.323 214.8C736.833 216.133 735.944 217.243 734.657 218.131C733.371 218.956 732.022 219.844 730.613 220.796C729.203 221.747 727.947 222.858 726.844 224.126C725.802 225.395 725.281 227.108 725.281 229.265C725.281 229.392 725.281 229.646 725.281 230.027C725.281 230.407 725.281 230.82 725.281 231.264C725.343 231.644 725.373 231.993 725.373 232.31C725.435 232.628 725.496 232.786 725.557 232.786C726.354 232.786 727.089 232.628 727.763 232.31C728.499 231.93 729.295 231.74 730.153 231.74C730.582 231.74 731.164 232.025 731.9 232.596C732.635 233.167 733.401 233.833 734.198 234.594C734.994 235.356 735.761 236.117 736.496 236.878C737.231 237.64 737.813 238.179 738.242 238.496V239.543V240.114C738.242 241.763 738.396 243.413 738.702 245.062C739.008 246.712 739.162 248.361 739.162 250.011C739.162 251.28 739.008 252.358 738.702 253.247C738.457 254.135 738.15 254.928 737.783 255.626C737.415 256.324 737.078 256.958 736.772 257.529C736.526 258.1 736.404 258.703 736.404 259.337C736.281 259.337 736.128 259.337 735.944 259.337C735.822 259.274 735.699 259.242 735.577 259.242C735.27 259.242 734.933 259.369 734.566 259.622C734.198 259.876 733.83 260.194 733.462 260.574C733.095 260.891 732.758 261.209 732.451 261.526C732.145 261.843 731.93 262.097 731.808 262.287C731.318 262.477 730.827 262.573 730.337 262.573C729.847 262.573 729.357 262.573 728.866 262.573C727.825 262.573 726.905 262.826 726.109 263.334C725.312 263.778 724.362 264 723.259 264C722.217 264 721.175 263.905 720.134 263.715C719.153 263.461 718.142 263.27 717.1 263.144C716.794 262.763 716.579 262.351 716.457 261.906C716.334 261.462 716.181 261.05 715.997 260.669C715.813 260.289 715.568 259.972 715.262 259.718C714.955 259.464 714.496 259.337 713.883 259.337H713.423C713.546 258.893 713.822 258.417 714.251 257.91C714.68 257.339 714.894 256.863 714.894 256.482C714.894 256.038 714.649 255.499 714.159 254.864C713.669 254.23 713.178 253.913 712.688 253.913C712.382 253.913 712.136 253.976 711.953 254.103C711.769 254.23 711.524 254.293 711.217 254.293C711.095 254.293 711.003 254.23 710.942 254.103C710.88 253.913 710.788 253.722 710.666 253.532C710.604 253.342 710.513 253.183 710.39 253.056C710.267 252.866 710.084 252.771 709.838 252.771V252.485C709.838 251.787 710.022 251.375 710.39 251.248C710.758 251.058 711.187 250.931 711.677 250.867C711.616 250.423 711.432 250.138 711.125 250.011C710.819 249.821 710.482 249.694 710.114 249.63C709.747 249.503 709.409 249.345 709.103 249.155C708.858 248.901 708.735 248.457 708.735 247.822C708.735 247.378 708.797 246.934 708.919 246.49C709.042 246.046 709.103 245.57 709.103 245.062C709.103 244.682 709.011 244.333 708.827 244.016C708.705 243.635 708.429 243.381 708 243.254Z" fill="#E00A0B"/>
</g>
<g filter="url(#filter3_i_27_182)">
<path d="M735.547 103.252C735.272 104.526 734.78 105.9 734.071 107.376C733.437 108.867 732.71 109.525 731.89 109.348C731.592 109.283 731.355 108.936 731.179 108.306C731.077 107.692 730.991 107.007 730.92 106.251C730.849 105.495 730.726 104.802 730.55 104.172C730.449 103.558 730.264 103.148 729.997 102.942C729.491 105.646 729.048 107.697 728.668 109.096C728.288 110.495 727.947 111.532 727.645 112.207C727.374 112.74 727.074 113.046 726.745 113.123C726.521 113.075 726.26 113.018 725.962 112.954C725.366 112.825 724.792 112.775 724.239 112.804C723.687 112.832 723.119 112.932 722.537 113.103C720.669 113.439 719.258 113.653 718.302 113.743C717.452 113.707 716.764 114.003 716.239 114.63C715.713 115.256 715.245 116.34 714.835 117.88C714.424 119.42 713.778 121.872 712.895 125.235C712.196 127.749 711.535 130.271 710.91 132.802C710.316 135.191 709.744 137.658 709.194 140.205C707.728 146.995 706.441 153.677 705.334 160.249C704.302 166.837 703.052 173.526 701.586 180.316C700.883 183.57 700.047 186.721 699.076 189.769C698.181 192.833 697.381 195.992 696.679 199.246C696.068 202.075 695.755 204.969 695.74 207.927C695.831 210.76 695.616 213.379 695.097 215.784C694.944 216.491 694.642 217.166 694.191 217.809C693.846 218.327 693.41 218.899 692.884 219.526C692.433 220.169 691.967 220.883 691.486 221.667C691.079 222.467 690.753 223.434 690.509 224.565C689.867 227.536 689.502 230.493 689.413 233.435C689.429 236.251 689.116 239.145 688.474 242.116C687.497 246.643 686.37 251.138 685.094 255.601C683.818 260.063 682.505 264.518 681.155 268.964C679.879 273.427 678.604 277.89 677.328 282.352C676.052 286.815 674.925 291.31 673.948 295.837C673.154 299.515 672.502 303.076 671.992 306.519C671.588 309.838 671.369 313.196 671.338 316.595C671.334 317.334 671.315 318.145 671.281 319.026C671.247 319.907 671.153 320.701 671 321.408C670.603 323.247 670.006 324.747 669.209 325.907C668.518 326.943 668.08 327.885 667.897 328.734C667.744 329.441 667.785 330.338 668.018 331.425C668.326 332.528 668.463 333.52 668.428 334.401C668.248 337.767 667.879 341.463 667.321 345.489C666.795 349.373 666.165 353.013 665.432 356.408C664.79 359.379 663.754 362.19 662.323 364.842C660.892 367.495 659.261 369.808 657.431 371.782C655.631 373.614 653.721 375.052 651.701 376.097C649.756 377.157 647.926 377.503 646.211 377.132C643.901 376.633 642.216 374.863 641.156 371.821C640.171 368.795 639.495 365.243 639.127 361.166C638.864 356.963 638.707 352.636 638.654 348.182C638.676 343.745 638.576 339.874 638.354 336.568C638.158 333.861 638.081 331.327 638.123 328.967C638.269 326.481 638.364 324.059 638.405 321.698C638.447 319.338 638.361 317.025 638.149 314.758C637.967 312.35 637.508 309.956 636.774 307.576C636.172 305.669 635.854 303.528 635.821 301.151C635.819 298.634 635.906 296.062 636.083 293.435C636.365 290.682 636.632 288.001 636.884 285.39C637.241 282.654 637.515 280.121 637.705 277.794C638.077 272.099 638.284 266.443 638.327 260.826C638.37 255.209 638.45 249.6 638.567 243.998C638.561 242.22 638.489 240.206 638.351 237.955C638.287 235.72 638.187 233.477 638.049 231.227C637.91 228.976 637.794 226.804 637.7 224.711C637.681 222.634 637.817 220.738 638.109 219.025C638.819 214.292 639.087 209.981 638.912 206.094C638.768 202.065 638.503 198.232 638.118 194.595C637.734 190.959 637.401 187.259 637.121 183.497C636.842 179.735 636.989 175.621 637.563 171.155C637.72 169.708 637.856 167.813 637.972 165.469C638.119 162.983 638.138 160.545 638.031 158.152C637.954 155.618 637.689 153.414 637.235 151.54C636.782 149.665 636.108 148.631 635.214 148.438C634.394 148.26 633.555 148.894 632.697 150.337C631.944 151.656 631.19 153.343 630.433 155.401C629.707 157.317 629.041 159.32 628.433 161.41C627.931 163.375 627.573 164.852 627.359 165.842C626.748 168.672 626.212 171.517 625.75 174.379C625.363 177.256 624.863 180.11 624.252 182.939C623.794 185.061 623.128 187.064 622.253 188.948C621.378 190.832 620.726 192.765 620.299 194.745C620.024 196.018 620.018 197.128 620.282 198.073C620.621 199.035 620.668 200.081 620.423 201.213C620.179 202.345 619.86 203.46 619.466 204.56C619.104 205.518 618.8 206.563 618.556 207.695C617.792 211.232 617.118 214.713 616.534 218.141C616.024 221.585 615.403 225.004 614.67 228.399C614.15 230.804 613.541 233.264 612.842 235.778C612.174 238.151 611.387 240.35 610.481 242.376C609.576 244.401 608.508 246.095 607.277 247.458C606.077 248.68 604.723 249.35 603.215 249.468C603.269 250.664 603.474 251.523 603.829 252.044C604.29 252.439 604.766 252.764 605.257 253.019C605.748 253.273 606.15 253.581 606.461 253.945C606.773 254.308 606.791 255.127 606.516 256.4C606.364 257.107 606.189 257.736 605.992 258.286C605.901 258.71 605.794 259.205 605.671 259.771C605.335 261.327 605.21 262.633 605.294 263.687C605.453 264.758 605.649 265.837 605.882 266.924C606.146 267.869 606.32 268.869 606.404 269.924C606.594 270.853 606.536 272.025 606.23 273.44C605.864 275.137 605.401 276.74 604.841 278.248C604.281 279.756 603.834 281.288 603.497 282.844C602.764 286.24 602.27 289.612 602.014 292.962C601.79 296.171 601.311 299.474 600.577 302.869C600.18 304.708 599.778 306.028 599.371 306.828C599.069 307.503 598.724 308.021 598.334 308.381C598.018 308.757 597.719 309.063 597.434 309.297C597.254 309.406 597.073 309.885 596.89 310.734C596.584 312.149 596.405 313.517 596.354 314.839C596.334 316.019 596.17 317.316 595.865 318.731C595.681 319.58 595.424 320.412 595.091 321.229C594.833 322.062 594.442 322.791 593.916 323.418C593.624 325.132 593.663 326.399 594.032 327.219C594.401 328.039 594.86 328.805 595.408 329.515C596.031 330.242 596.602 331.031 597.12 331.884C597.669 332.594 597.962 333.768 597.998 335.405C598.021 336.742 598.06 338.009 598.114 339.206C598.272 340.276 598.762 340.9 599.582 341.077C600.849 341.351 602.111 341.105 603.369 340.34C604.657 339.434 605.897 339.11 607.089 339.367C609.028 339.786 610.048 341.561 610.152 344.693C610.287 347.683 610.018 350.734 609.346 353.846C608.49 357.808 607.507 360.556 606.395 362.093C605.388 363.504 604.346 364.538 603.268 365.193C602.295 365.724 601.36 366.262 600.461 366.809C599.638 367.371 599.012 368.643 598.584 370.623C598.523 370.906 598.477 371.118 598.447 371.26C598.491 371.417 598.482 371.638 598.421 371.92C597.653 370.422 596.733 369.261 595.663 368.437C594.667 367.63 593.535 367.09 592.268 366.816C590.032 366.333 587.674 366.416 585.193 367.065C582.757 367.871 580.42 368.033 578.184 367.55C576.544 367.196 575.003 366.567 573.56 365.663C572.116 364.759 570.575 364.13 568.935 363.776C567.891 363.551 566.802 363.538 565.667 363.737C564.576 364.093 563.508 364.159 562.465 363.934C561.421 363.708 560.149 362.915 558.649 361.555C557.118 360.336 555.7 358.771 554.396 356.861C553.062 355.092 551.982 353.23 551.156 351.275C550.435 349.194 550.242 347.376 550.578 345.82C551.495 341.576 553.065 337.917 555.289 334.844C557.544 331.629 559.865 329.909 562.254 329.685C563.464 329.502 564.74 329.555 566.081 329.845C567.498 330.151 568.892 330.378 570.264 330.526C571.667 330.533 573.041 330.311 574.387 329.862C575.762 329.27 577.074 328.073 578.322 326.27C578.482 324.083 578.852 321.646 579.433 318.958C580.502 314.007 581.876 309.269 583.555 304.746C585.234 300.222 586.608 295.484 587.677 290.533C588.105 288.552 588.436 286.477 588.671 284.306C589.884 274.352 591.56 264.423 593.699 254.52C594.31 251.691 594.958 248.87 595.644 246.056C596.36 243.102 597.023 240.21 597.634 237.38C599.223 230.024 600.498 222.674 601.46 215.33C602.496 208.002 603.734 200.644 605.173 193.256C606.705 185.443 608.28 177.787 609.899 170.289C611.548 162.65 612.788 154.922 613.618 147.106C613.822 145.077 614.085 143.135 614.408 141.279C614.805 139.44 615.218 137.531 615.645 135.55L617.295 127.911C618.578 121.969 619.392 117.48 619.735 114.445C620.078 111.41 620.015 109.175 619.544 107.741C619.104 106.165 618.319 105.107 617.187 104.567C616.161 103.901 614.836 103.171 613.213 102.376C612.305 101.884 611.498 100.747 610.79 98.9656C610.157 97.2002 609.623 95.16 609.186 92.8446C608.825 90.5454 608.59 88.1998 608.483 85.8075C608.45 83.4314 608.632 81.3238 609.029 79.4847L610.037 74.8162C611.259 69.1574 612.638 64.9392 614.174 62.1615C615.741 59.2423 617.459 57.2444 619.33 56.1677C621.232 54.9496 623.256 54.4244 625.405 54.5922C627.627 54.776 629.968 55.1336 632.428 55.6647C634.888 56.1959 637.377 56.9554 639.894 57.9432C642.516 58.8056 644.92 60.139 647.105 61.9434C649.32 63.6064 651.174 65.8576 652.667 68.6972C654.191 71.3953 655.159 74.8618 655.571 79.0965C655.81 81.9615 655.907 84.9439 655.862 88.0435C655.847 91.0016 655.78 94.0225 655.66 97.1059C655.541 100.19 655.421 103.273 655.301 106.356C655.212 109.299 655.287 112.202 655.526 115.067C655.624 116.421 655.58 117.892 655.392 119.48C655.311 120.943 655.176 122.469 654.989 124.057C654.907 125.52 654.826 126.983 654.744 128.446C654.692 129.768 654.753 131.113 654.925 132.483C655.202 133.728 655.539 135.059 655.935 136.477C656.436 137.77 656.72 139.164 656.787 140.659C656.847 143.633 656.653 146.701 656.204 149.861C655.861 152.896 655.465 155.994 655.017 159.155C654.599 162.174 654.165 165.264 653.717 168.425C653.373 171.46 653.232 174.464 653.292 177.439C653.372 179.233 653.477 180.736 653.605 181.948C653.808 183.177 653.936 184.389 653.99 185.585C654.149 186.656 654.187 187.923 654.105 189.386C654.128 190.723 653.986 192.469 653.676 194.624C653.153 197.768 652.63 200.913 652.107 204.057C651.615 207.06 651.346 210.112 651.301 213.211C651.29 215.43 651.458 217.539 651.807 219.539C652.155 221.539 652.503 223.539 652.851 225.539C653.305 227.414 653.705 229.352 654.054 231.352C654.402 233.352 654.518 235.524 654.402 237.868C654.231 242.273 654.083 246.387 653.96 250.21C653.837 254.033 654.438 257.568 655.765 260.816C655.043 261.993 654.328 263.319 653.619 264.795C653.015 266.145 652.546 267.598 652.209 269.155C651.568 272.125 651.299 275.177 651.403 278.308C651.612 281.315 651.724 284.227 651.74 287.043C651.729 289.262 651.779 291.198 651.89 292.85C652.076 294.519 652.643 296.048 653.591 297.437C654.421 298.653 654.931 299.726 655.12 300.655C655.34 301.443 655.38 302.34 655.241 303.346C655.132 304.211 654.903 305.272 654.553 306.529C654.309 307.661 654.1 309.171 653.927 311.058C653.818 311.923 653.738 313.016 653.686 314.338C653.666 315.518 653.667 316.777 653.69 318.114C653.818 319.326 654.014 320.405 654.278 321.35C654.542 322.296 654.935 322.825 655.457 322.938C655.904 323.034 656.301 322.824 656.647 322.306C657.023 321.647 657.377 320.909 657.71 320.093C658.042 319.276 658.3 318.443 658.483 317.594C658.772 316.62 658.977 315.85 659.099 315.284C659.527 313.304 660.169 311.592 661.027 310.148C661.99 308.58 662.701 306.734 663.159 304.612C663.679 302.207 663.854 299.95 663.685 297.84C663.591 295.747 663.804 293.498 664.323 291.093C664.751 289.113 665.319 287.384 666.028 285.909C666.842 284.308 667.462 282.517 667.89 280.536C668.196 279.122 668.157 277.855 667.775 276.735C667.467 275.633 667.42 274.586 667.633 273.596C667.725 273.171 667.883 272.983 668.106 273.031C668.361 272.938 668.615 272.845 668.869 272.752C669.123 272.659 669.393 272.495 669.677 272.26C669.992 271.884 670.257 271.201 670.471 270.211C671.204 266.816 671.683 263.513 671.908 260.305C672.238 256.97 672.493 253.62 672.674 250.253C672.855 246.887 673.073 243.528 673.329 240.178C673.689 236.702 674.236 233.267 674.969 229.872C675.702 226.476 676.717 223.586 678.012 221.2C679.307 218.815 680.047 217.198 680.23 216.349C680.627 214.51 680.718 212.827 680.501 211.299C680.39 209.646 680.533 207.9 680.93 206.061C681.388 203.939 682.077 202.015 682.996 200.289C684.02 198.437 684.761 196.45 685.219 194.328C685.494 193.055 685.605 191.82 685.551 190.624C685.528 189.286 685.467 187.941 685.37 186.587C685.272 185.233 685.174 183.879 685.076 182.526C685.084 181.047 685.15 179.655 685.276 178.349C685.511 176.179 685.835 173.954 686.25 171.674C686.738 169.411 687.227 167.147 687.716 164.884L689.686 155.759C690.511 151.939 691.194 148.237 691.734 144.652C692.379 140.942 692.838 137.191 693.111 133.4C693.397 129.908 693.808 126.739 694.344 123.894C694.881 121.048 695.192 118.525 695.277 116.322C695.363 114.119 695.021 112.269 694.253 110.77C693.515 109.13 691.983 107.911 689.659 107.113C688.006 106.46 686.322 105.948 684.608 105.578C682.924 105.067 681.316 104.201 679.785 102.982C678.789 102.175 678.192 100.787 677.993 98.8192C677.868 96.8675 677.938 94.7357 678.204 92.4239C678.469 90.1121 678.846 87.8244 679.335 85.5609C679.854 83.1559 680.266 81.2461 680.572 79.8314C681.152 77.1435 682.297 75.0956 684.005 73.6877C685.818 72.1544 687.779 71.0231 689.887 70.2937C692.069 69.5805 694.175 69.221 696.205 69.215C698.265 69.0677 699.817 69.1067 700.861 69.332C701.532 69.4769 702.709 69.8052 704.393 70.3168C706.076 70.8285 707.916 71.5219 709.912 72.397C711.907 73.2722 713.947 74.3049 716.03 75.4951C718.144 76.5438 720.01 77.8354 721.629 79.3695C723.279 80.7622 724.548 82.2947 725.435 83.9669C726.322 85.6391 726.567 87.3948 726.17 89.2339C727.146 87.9641 728.151 86.9225 729.185 86.1093C730.219 85.2961 731.257 85.0022 732.301 85.2275C733.27 85.4368 734.042 86.1958 734.617 87.5046C735.298 88.6881 735.753 90.193 735.983 92.0194C736.213 93.8458 736.263 95.7815 736.133 97.8264C736.109 99.746 735.913 101.555 735.547 103.252ZM572.79 344.842C573.065 343.568 573.077 342.609 572.826 341.962C572.607 341.175 572.229 340.575 571.694 340.163C571.233 339.767 570.735 339.364 570.2 338.952C569.77 338.415 569.482 337.761 569.337 336.989C569.17 337.397 569.004 337.805 568.838 338.214C568.777 338.497 568.701 338.85 568.609 339.275C568.334 340.548 568.306 341.579 568.526 342.367C568.777 343.013 569.133 343.534 569.593 343.929C570.128 344.341 570.611 344.815 571.041 345.353C571.502 345.748 571.842 346.34 572.062 347.128C572.228 346.719 572.342 346.374 572.403 346.091C572.569 345.683 572.698 345.266 572.79 344.842Z" fill="#E00A0B"/>
</g>
<g filter="url(#filter4_i_27_182)">
<path d="M596.467 132.867C596.467 134.163 596.372 135.428 596.184 136.662C595.995 137.835 595.783 139.038 595.547 140.273C595.311 141.445 595.099 142.649 594.911 143.883C594.722 145.117 594.628 146.351 594.628 147.586C594.628 148.079 594.651 148.573 594.698 149.067C594.793 149.499 594.84 149.962 594.84 150.455C594.84 151.69 594.675 152.862 594.345 153.973C594.062 155.084 593.708 156.164 593.284 157.213C592.907 158.139 592.671 159.095 592.577 160.083C592.529 161.07 592.482 162.057 592.435 163.045C592.435 164.032 592.364 165.02 592.223 166.007C592.081 166.995 591.798 167.92 591.374 168.784C591.28 169.401 591.138 170.327 590.95 171.561C590.808 172.734 590.62 173.567 590.384 174.061C590.337 174.184 590.195 174.277 589.959 174.338C589.724 174.4 589.464 174.462 589.181 174.524C588.899 174.585 588.592 174.709 588.262 174.894C587.932 175.079 587.649 175.357 587.413 175.727C587.177 176.036 586.989 176.468 586.847 177.023C586.706 177.578 586.541 178.134 586.352 178.689C586.164 179.245 585.928 179.738 585.645 180.17C585.409 180.541 585.079 180.726 584.655 180.726C584.23 180.726 583.853 180.633 583.523 180.448C583.193 180.201 582.863 179.985 582.533 179.8C582.203 179.553 581.873 179.368 581.542 179.245C581.212 179.121 580.812 179.152 580.34 179.337C580.482 179.461 580.529 179.769 580.482 180.263C580.434 180.695 580.434 181.158 580.482 181.651C580.576 182.145 580.788 182.608 581.118 183.04C581.448 183.472 582.038 183.688 582.886 183.688C583.311 183.688 583.712 183.657 584.089 183.595C584.513 183.534 584.938 183.441 585.362 183.318C584.985 184.675 584.537 185.755 584.018 186.558C583.499 187.298 582.91 187.977 582.25 188.594C581.637 189.15 580.977 189.736 580.269 190.353C579.609 190.909 578.949 191.649 578.289 192.575C577.487 193.624 576.709 194.272 575.955 194.519C575.247 194.766 574.399 195.074 573.408 195.444C572.277 195.876 571.475 196.401 571.004 197.018C570.532 197.635 570.013 198.221 569.447 198.777C568.882 199.332 568.104 199.795 567.113 200.165C566.17 200.598 564.661 200.814 562.587 200.814C560.7 200.814 558.814 200.721 556.928 200.536C555.089 200.351 553.25 200.104 551.411 199.795C550.562 199.672 549.855 199.456 549.289 199.147C548.77 198.9 548.275 198.592 547.804 198.221C547.332 197.913 546.861 197.574 546.389 197.203C545.918 196.833 545.328 196.463 544.621 196.092C544.244 195.907 543.796 195.66 543.277 195.352C542.758 195.105 542.216 194.827 541.65 194.519C541.084 194.21 540.566 193.902 540.094 193.593C539.623 193.223 539.245 192.883 538.962 192.575C538.632 192.205 538.397 191.803 538.255 191.371C538.161 190.878 538.066 190.384 537.972 189.89C537.878 189.335 537.76 188.841 537.619 188.409C537.524 187.915 537.312 187.514 536.982 187.206C536.275 187.082 535.591 186.928 534.931 186.743C534.271 186.496 533.61 186.218 532.95 185.91C532.762 185.231 532.573 184.583 532.384 183.966C532.243 183.287 532.078 182.608 531.889 181.929C531.276 181.065 530.687 180.356 530.121 179.8C529.555 179.183 529.06 178.566 528.636 177.949C528.211 177.332 527.834 176.622 527.504 175.82C527.221 174.956 527.032 173.845 526.938 172.487C526.797 170.883 526.514 169.34 526.089 167.859C525.665 166.316 525.217 164.804 524.745 163.323C524.321 161.841 523.92 160.33 523.543 158.787C523.213 157.244 523.048 155.67 523.048 154.066C523.048 152.399 523.307 150.702 523.826 148.974C522.458 146.444 521.61 143.698 521.28 140.736C520.95 137.712 520.785 134.688 520.785 131.664C520.785 130.676 520.785 129.72 520.785 128.794C520.832 127.807 520.855 126.85 520.855 125.924C520.855 124.875 520.667 124.073 520.289 123.517C519.959 122.9 519.794 122.16 519.794 121.296C519.794 119.938 519.936 118.611 520.219 117.315C520.549 116.019 520.761 114.693 520.855 113.335C520.242 113.211 519.841 112.903 519.653 112.409L519.794 112.039C520.124 111.298 520.384 110.619 520.572 110.002C520.808 109.385 520.973 108.799 521.067 108.243C521.162 107.688 521.256 107.102 521.35 106.485C521.445 105.868 521.563 105.158 521.704 104.356C522.081 101.825 522.553 99.3568 523.119 96.95C523.732 94.5431 524.321 92.1054 524.887 89.6369C525.5 86.7981 526.254 84.2986 527.15 82.1387C528.046 79.9788 529.437 77.9731 531.323 76.1216C532.125 75.2577 532.856 74.332 533.516 73.3446C534.176 72.3572 534.648 71.1846 534.931 69.8269C535.167 69.5801 535.426 69.4258 535.709 69.3641C535.992 69.3024 536.275 69.2715 536.558 69.2715H537.123C537.454 69.2715 537.76 69.2407 538.043 69.1789C538.373 69.0555 538.679 68.8395 538.962 68.5309C539.67 67.667 540.283 67.0498 540.801 66.6795C541.367 66.3093 542.122 66.1241 543.065 66.1241C543.725 66.1241 544.362 66.2167 544.974 66.4018C545.588 66.5253 546.224 66.6795 546.884 66.8647C547.12 66.5561 547.45 66.155 547.875 65.6613C548.346 65.1059 548.747 64.7356 549.077 64.5504V64.8281C549.077 65.075 549.1 65.3218 549.148 65.5687C549.242 65.7539 549.407 65.8464 549.643 65.8464C550.256 65.8464 550.845 65.6613 551.411 65.291C551.977 64.9207 552.566 64.6739 553.179 64.5504C554.547 64.2419 555.914 63.779 557.282 63.1619C558.649 62.483 560.04 62.1436 561.455 62.1436C562.964 62.1436 564.567 62.267 566.265 62.5139C568.009 62.7608 569.707 63.2236 571.357 63.9024C573.008 64.5813 574.54 65.5378 575.955 66.7721C577.369 67.9447 578.501 69.4875 579.35 71.4006C579.727 72.2646 580.104 72.9434 580.482 73.4372C580.859 73.8691 581.236 74.2703 581.613 74.6406C581.99 74.9491 582.368 75.2886 582.745 75.6589C583.122 75.9673 583.523 76.4302 583.947 77.0474C584.843 78.4051 585.551 79.8862 586.069 81.4908C586.635 83.0335 587.413 84.4222 588.403 85.6564C589.629 87.1376 590.525 88.9272 591.091 91.0255C591.704 93.1237 592.011 95.2528 592.011 97.4129C592.011 98.0916 591.94 98.7704 591.798 99.4493C591.657 100.128 591.586 100.838 591.586 101.578C591.586 102.196 591.681 102.844 591.869 103.522C592.105 104.201 592.364 104.911 592.647 105.652C592.93 106.392 593.19 107.163 593.425 107.966C593.661 108.768 593.826 109.539 593.92 110.28C594.062 111.946 594.274 113.582 594.557 115.186C594.84 116.729 595.123 118.334 595.406 120C595.783 122.098 596.066 124.227 596.255 126.387C596.443 128.547 596.514 130.707 596.467 132.867ZM584.938 132.219C584.938 128.763 584.702 125.338 584.23 121.944C583.806 118.55 583.381 115.155 582.957 111.761C582.768 110.527 582.462 109.354 582.038 108.243C581.66 107.133 581.33 105.991 581.047 104.818C580.482 102.597 579.939 100.375 579.421 98.1534C578.902 95.9316 578.383 93.71 577.864 91.4882C577.534 90.1307 576.874 88.958 575.884 87.9706C574.894 86.9215 573.738 86.0575 572.418 85.3787C571.098 84.6381 569.66 84.0519 568.104 83.6198C566.595 83.1261 565.133 82.7559 563.718 82.509C562.304 82.2004 560.983 82.0153 559.757 81.9536C558.578 81.8301 557.683 81.7684 557.07 81.7684L557.989 81.6758L557.211 81.7684C556.174 81.7684 555.136 81.7067 554.099 81.5834C553.109 81.4599 552.095 81.3982 551.057 81.3982C550.209 81.3982 549.36 81.4908 548.511 81.6758C547.71 81.7994 546.979 82.2004 546.318 82.8793C544.762 84.4839 543.301 85.9959 541.933 87.4153C540.566 88.773 539.434 90.6552 538.538 93.0621C538.255 93.8643 537.949 94.4505 537.619 94.8208C537.288 95.1294 536.958 95.4688 536.628 95.839C536.345 96.1476 536.086 96.5179 535.85 96.95C535.614 97.3819 535.449 98.0916 535.355 99.079C535.119 100.869 534.836 102.658 534.506 104.448C534.223 106.176 534.082 107.935 534.082 109.725C534.082 111.638 533.94 113.551 533.658 115.464C533.422 117.315 533.021 119.136 532.455 120.926C532.314 121.419 532.172 121.882 532.031 122.314C531.936 122.746 531.889 123.209 531.889 123.703C531.889 124.628 532.054 125.431 532.384 126.11C532.714 126.727 532.88 127.282 532.88 127.776C532.88 128.023 532.809 128.177 532.667 128.239C532.573 128.239 532.455 128.3 532.314 128.424C532.219 128.485 532.101 128.671 531.96 128.979C531.866 129.288 531.819 129.843 531.819 130.645C531.819 132.435 531.819 134.256 531.819 136.107C531.866 137.958 532.007 139.779 532.243 141.569C532.384 142.618 532.62 143.636 532.95 144.623C533.328 145.549 533.516 146.537 533.516 147.586C533.516 148.265 533.398 148.943 533.163 149.622C532.927 150.301 532.809 151.011 532.809 151.751C532.809 152.615 532.997 153.325 533.375 153.881C533.752 154.374 534.129 154.96 534.506 155.639C534.789 156.133 535.025 156.781 535.214 157.583C535.449 158.324 535.662 159.034 535.85 159.712C536.086 160.391 536.298 160.978 536.487 161.471C536.675 161.965 536.888 162.212 537.123 162.212C537.312 162.212 537.477 162.181 537.619 162.119C537.76 161.996 537.925 161.934 538.114 161.934C539.057 161.934 539.764 162.49 540.236 163.6C540.754 164.649 541.014 165.699 541.014 166.748C541.014 167.612 541.202 168.352 541.579 168.969C541.957 169.525 542.405 170.049 542.923 170.543C543.442 171.037 543.961 171.53 544.479 172.024C545.045 172.456 545.517 172.95 545.894 173.505C546.507 174.431 546.979 175.048 547.309 175.357C547.686 175.665 548.016 175.881 548.299 176.005C548.582 176.066 548.841 176.128 549.077 176.19C549.36 176.252 549.714 176.468 550.138 176.838C550.657 177.332 551.175 177.887 551.694 178.504C552.26 179.06 552.802 179.584 553.321 180.078C554.783 181.435 556.409 182.269 558.201 182.577C560.04 182.824 561.832 182.947 563.577 182.947C564.284 182.947 564.944 182.731 565.557 182.3C566.17 181.867 566.783 181.405 567.396 180.911C568.009 180.356 568.622 179.862 569.235 179.43C569.895 178.998 570.603 178.782 571.357 178.782C571.97 178.782 572.607 178.967 573.267 179.337C574.352 177.177 575.389 175.449 576.379 174.153C577.369 172.857 578.265 171.592 579.067 170.358C579.869 169.124 580.552 167.704 581.118 166.1C581.684 164.495 582.085 162.304 582.321 159.527C582.415 158.355 582.651 157.275 583.028 156.287C583.452 155.238 583.712 154.158 583.806 153.047C584.042 150.579 584.16 148.11 584.16 145.642C584.207 143.173 584.372 140.705 584.655 138.236C584.749 137.249 584.82 136.261 584.867 135.274C584.914 134.287 584.938 133.268 584.938 132.219Z" fill="#E00A0B"/>
</g>
<g filter="url(#filter5_i_27_182)">
<path d="M502.715 124.066C503.666 125.296 504.637 126.837 505.628 128.69C506.588 130.502 507.511 132.506 508.399 134.701C509.301 136.82 510.159 139.071 510.972 141.455C511.831 143.803 512.597 146.125 513.269 148.422C513.91 150.677 514.448 152.848 514.884 154.934C515.334 156.944 515.633 158.71 515.78 160.233C515.821 160.856 515.717 161.625 515.467 162.538C515.231 163.375 515.004 164.271 514.786 165.226C514.536 166.139 514.355 166.999 514.244 167.806C514.132 168.613 514.234 169.221 514.551 169.631C514.215 169.957 513.718 170.504 513.063 171.273C512.375 172.001 511.689 172.826 511.004 173.748C510.334 174.594 509.742 175.445 509.227 176.301C508.727 177.081 508.502 177.647 508.554 178C508.714 179.252 508.835 180.075 508.919 180.469C509.048 180.827 509.076 181.1 509.001 181.289C508.895 181.437 508.634 181.671 508.22 181.991C507.82 182.235 507.147 182.886 506.2 183.945C505.85 184.347 505.415 184.88 504.898 185.542C504.426 186.168 503.908 186.83 503.344 187.528C502.827 188.19 502.3 188.794 501.765 189.339C501.262 189.924 500.826 190.359 500.458 190.644C499.445 191.427 498.344 192.049 497.156 192.509C496.013 192.934 494.935 193.538 493.923 194.32C493.278 194.819 492.766 195.346 492.386 195.901C491.127 197.792 489.809 199.465 488.434 200.921C487.105 202.341 485.52 203.763 483.679 205.186L473.039 211.545C472.429 212.278 471.772 212.95 471.067 213.56C470.394 214.212 469.689 214.822 468.952 215.392C468.032 216.103 467.079 216.774 466.095 217.404C465.157 217.998 464.18 218.589 463.165 219.178C462.551 218.67 461.877 218.274 461.143 217.99C460.423 217.63 459.703 217.27 458.984 216.909C458.264 216.549 457.567 216.171 456.893 215.775C456.188 215.338 455.597 214.812 455.122 214.197C454.298 213.131 454.011 212.142 454.261 211.228C454.479 210.274 454.985 209.358 455.779 208.483C456.541 207.566 457.397 206.675 458.347 205.81C459.31 204.869 460.11 203.858 460.745 202.777C461.381 201.696 461.697 200.535 461.693 199.294C461.69 198.053 461.086 196.653 459.882 195.095C459.153 194.152 458.332 193.281 457.419 192.48C456.552 191.644 455.639 190.844 454.68 190.079C453.735 189.237 452.807 188.416 451.894 187.616C451.027 186.78 450.229 185.891 449.5 184.948C448.961 184.251 448.507 183.521 448.139 182.758C447.738 181.955 447.268 181.205 446.73 180.508C445.747 179.237 444.666 178.076 443.485 177.024C442.318 175.896 441.244 174.696 440.262 173.425C439.121 171.95 438.088 170.423 437.163 168.846C436.206 167.228 435.158 165.681 434.017 164.205C432.94 162.812 431.733 161.584 430.396 160.521C429.075 159.382 427.859 158.095 426.75 156.66C426.148 155.881 425.569 155.084 425.013 154.27C424.457 153.456 423.878 152.659 423.276 151.88C422.578 150.978 421.867 150.153 421.141 149.405C420.384 148.615 419.534 147.896 418.592 147.249C417.478 146.473 416.517 145.611 415.711 144.663C414.904 143.715 414.085 142.94 413.253 142.34C412.389 141.698 411.413 141.339 410.325 141.263C409.205 141.146 407.774 141.532 406.033 142.419C405.464 142.729 404.977 142.908 404.574 142.958C404.186 142.931 403.813 142.924 403.456 142.938C403.067 142.911 402.626 142.958 402.13 143.079C401.681 143.164 401.08 143.432 400.326 143.884C398.11 145.204 396.321 144.983 394.959 143.22C394.198 142.236 393.74 141.215 393.584 140.157C393.396 139.058 393.387 137.952 393.556 136.839C393.725 135.726 394.011 134.621 394.413 133.524C394.83 132.35 395.224 131.195 395.594 130.057C396.157 128.312 396.905 126.948 397.837 125.966C398.737 124.942 399.786 123.968 400.983 123.042L403.952 120.747C405.287 119.715 406.567 118.66 407.793 117.582C409.033 116.427 410.321 115.333 411.656 114.301C412.438 113.696 413.253 113.132 414.098 112.609C414.99 112.05 415.907 111.571 416.848 111.171C417.357 110.974 417.86 110.815 418.355 110.694C418.864 110.497 419.326 110.238 419.74 109.918C420.385 109.419 420.81 108.828 421.017 108.145C421.192 107.42 421.464 106.915 421.832 106.63C421.924 106.559 422.002 106.565 422.066 106.647C422.129 106.729 422.185 106.849 422.234 107.007C422.297 107.089 422.361 107.171 422.424 107.253C422.614 107.499 422.894 107.48 423.262 107.195C423.492 107.017 423.558 106.77 423.46 106.453C423.408 106.1 423.557 105.722 423.908 105.32C424.326 105.194 424.69 105.142 425.001 105.163C425.28 105.144 425.536 105.142 425.769 105.159C426.048 105.139 426.335 105.082 426.628 104.986C426.968 104.854 427.345 104.628 427.759 104.308C428.726 103.561 429.645 102.752 430.517 101.882C431.357 100.97 432.26 100.141 433.227 99.3936C434.47 98.4328 435.763 97.7275 437.107 97.2779C438.451 96.8284 439.806 96.5347 441.17 96.3968C442.549 96.1824 443.945 96.0855 445.358 96.1062C446.771 96.1269 448.169 96.1271 449.551 96.1069C450.575 96.1005 451.521 95.9918 452.387 95.7805C453.268 95.4927 454.118 95.2608 454.939 95.0852C455.727 94.8685 456.556 94.7516 457.425 94.7345C458.263 94.6764 459.19 94.8765 460.206 95.3352C461.332 95.8401 462.511 96.2712 463.743 96.6284C464.99 96.909 466.214 97.2075 467.414 97.5236C468.629 97.7632 469.853 98.0617 471.085 98.4189C472.285 98.7351 473.464 99.1662 474.622 99.7122C477.579 101.159 480.286 102.996 482.743 105.222C485.214 107.372 487.669 109.502 490.108 111.611C491.162 112.499 492.255 113.389 493.387 114.283C494.487 115.135 495.449 116.094 496.273 117.16C496.717 117.734 497.029 118.376 497.211 119.087C497.393 119.798 497.706 120.44 498.149 121.014C498.434 121.383 498.757 121.657 499.117 121.838C499.477 122.018 499.86 122.18 500.266 122.325C500.672 122.469 501.086 122.673 501.51 122.935C501.933 123.197 502.335 123.574 502.715 124.066ZM487.998 128.861C486.763 127.262 485.305 125.9 483.626 124.775C481.948 123.65 480.072 122.84 477.999 122.347C478.157 121.505 478.067 120.723 477.73 120.001C477.393 119.28 477.002 118.632 476.558 118.058C476.083 117.443 475.562 116.864 474.994 116.32C474.473 115.741 473.991 115.164 473.547 114.59C473.293 114.262 472.933 114.082 472.467 114.05C472.047 113.982 471.596 113.97 471.116 114.014C470.649 113.981 470.176 113.987 469.695 114.031C469.183 114.035 468.731 113.926 468.339 113.704C467.838 113.437 467.431 113.195 467.117 112.979C466.817 112.687 466.534 112.415 466.266 112.164C465.998 111.913 465.668 111.676 465.276 111.455C464.885 111.234 464.354 111.022 463.683 110.821C463.199 110.671 462.777 110.506 462.417 110.325C462.026 110.104 461.656 109.768 461.307 109.317C460.99 108.907 460.727 108.423 460.516 107.866C460.079 107.68 459.573 107.645 459 107.76C458.396 107.835 457.793 108.006 457.192 108.275C456.513 108.538 455.796 108.895 455.042 109.347C454.352 109.881 453.472 110.266 452.405 110.502C451.383 110.702 450.283 110.897 449.106 111.087C447.929 111.277 446.76 111.525 445.601 111.832C444.487 112.104 443.493 112.578 442.618 113.254C441.283 114.286 440.05 115.403 438.92 116.604C437.789 117.805 436.619 119.004 435.411 120.2C434.494 121.106 433.452 122.042 432.287 123.008C431.09 123.934 430.041 124.908 429.141 125.931C428.287 126.919 427.736 127.967 427.489 129.075C427.211 130.142 427.531 131.269 428.45 132.458C429.559 133.893 430.776 135.277 432.101 136.61C433.472 137.908 434.759 139.336 435.963 140.893C438.467 144.132 440.809 147.495 442.99 150.982C445.185 154.393 447.551 157.738 450.086 161.017C451.258 162.534 452.523 163.98 453.879 165.354C455.204 166.687 456.469 168.133 457.673 169.69C459.226 171.699 460.579 173.83 461.731 176.082C462.93 178.299 464.306 180.411 465.858 182.42C466.492 183.24 467.174 184.121 467.902 185.064C468.631 186.007 469.42 186.837 470.27 187.556C471.12 188.274 472.067 188.786 473.112 189.091C474.157 189.397 475.313 189.322 476.579 188.867C478.355 188.215 480.107 187.58 481.837 186.964C483.581 186.27 485.236 185.319 486.801 184.109C487.722 183.397 488.477 182.519 489.066 181.474C489.624 180.387 490.268 179.366 490.999 178.408C491.47 177.781 492.027 177.122 492.668 176.429C493.324 175.661 493.957 174.909 494.567 174.176C495.145 173.402 495.645 172.622 496.068 171.837C496.505 170.975 496.779 170.141 496.891 169.334C497.043 168.103 497.235 166.972 497.468 165.941C497.7 164.91 498.313 163.847 499.305 162.753C499.794 162.244 500.013 161.813 499.961 161.46C499.923 161.031 499.801 160.634 499.593 160.271C499.4 159.831 499.23 159.373 499.083 158.897C498.904 158.381 498.934 157.801 499.172 157.158C499.529 156.097 499.638 155.096 499.499 154.155C499.406 153.179 499.167 152.251 498.78 151.371C498.394 150.491 497.962 149.646 497.484 148.837C497.02 147.951 496.617 147.051 496.277 146.135C495.516 144.104 494.808 141.999 494.153 139.82C493.545 137.605 492.575 135.637 491.244 133.916C490.896 133.465 490.479 133.164 489.996 133.014C489.48 132.823 489.048 132.502 488.7 132.051C488.51 131.805 488.445 131.626 488.505 131.514C488.58 131.325 488.655 131.137 488.729 130.948C488.772 130.718 488.761 130.465 488.694 130.189C488.674 129.877 488.442 129.435 487.998 128.861Z" fill="#E00A0B"/>
</g>
<defs>
<filter id="filter0_i_27_182" x="0" y="0" width="1260" height="570" filterUnits="userSpaceOnUse" color-interpolation-filters="sRGB">
<feFlood flood-opacity="0" result="BackgroundImageFix"/>
<feBlend mode="normal" in="SourceGraphic" in2="BackgroundImageFix" result="shape"/>
<feColorMatrix in="SourceAlpha" type="matrix" values="0 0 0 0 0 0 0 0 0 0 0 0 0 0 0 0 0 0 127 0" result="hardAlpha"/>
<feOffset dy="4"/>
<feGaussianBlur stdDeviation="2"/>
<feComposite in2="hardAlpha" operator="arithmetic" k2="-1" k3="1"/>
<feColorMatrix type="matrix" values="0 0 0 0 0 0 0 0 0 0 0 0 0 0 0 0 0 0 0.25 0"/>
<feBlend mode="normal" in2="shape" result="effect1_innerShadow_27_182"/>
</filter>
<filter id="filter1_i_27_182" x="423.271" y="219.19" width="157.257" height="264.945" filterUnits="userSpaceOnUse" color-interpolation-filters="sRGB">
<feFlood flood-opacity="0" result="BackgroundImageFix"/>
<feBlend mode="normal" in="SourceGraphic" in2="BackgroundImageFix" result="shape"/>
<feColorMatrix in="SourceAlpha" type="matrix" values="0 0 0 0 0 0 0 0 0 0 0 0 0 0 0 0 0 0 127 0" result="hardAlpha"/>
<feOffset dy="4"/>
<feGaussianBlur stdDeviation="2"/>
<feComposite in2="hardAlpha" operator="arithmetic" k2="-1" k3="1"/>
<feColorMatrix type="matrix" values="0 0 0 0 0 0 0 0 0 0 0 0 0 0 0 0 0 0 0.25 0"/>
<feBlend mode="normal" in2="shape" result="effect1_innerShadow_27_182"/>
</filter>
<filter id="filter2_i_27_182" x="708" y="203" width="33" height="65" filterUnits="userSpaceOnUse" color-interpolation-filters="sRGB">
<feFlood flood-opacity="0" result="BackgroundImageFix"/>
<feBlend mode="normal" in="SourceGraphic" in2="BackgroundImageFix" result="shape"/>
<feColorMatrix in="SourceAlpha" type="matrix" values="0 0 0 0 0 0 0 0 0 0 0 0 0 0 0 0 0 0 127 0" result="hardAlpha"/>
<feOffset dy="4"/>
<feGaussianBlur stdDeviation="2"/>
<feComposite in2="hardAlpha" operator="arithmetic" k2="-1" k3="1"/>
<feColorMatrix type="matrix" values="0 0 0 0 0 0 0 0 0 0 0 0 0 0 0 0 0 0 0.25 0"/>
<feBlend mode="normal" in2="shape" result="effect1_innerShadow_27_182"/>
</filter>
<filter id="filter3_i_27_182" x="550.418" y="54.5617" width="185.785" height="326.714" filterUnits="userSpaceOnUse" color-interpolation-filters="sRGB">
<feFlood flood-opacity="0" result="BackgroundImageFix"/>
<feBlend mode="normal" in="SourceGraphic" in2="BackgroundImageFix" result="shape"/>
<feColorMatrix in="SourceAlpha" type="matrix" values="0 0 0 0 0 0 0 0 0 0 0 0 0 0 0 0 0 0 127 0" result="hardAlpha"/>
<feOffset dy="4"/>
<feGaussianBlur stdDeviation="2"/>
<feComposite in2="hardAlpha" operator="arithmetic" k2="-1" k3="1"/>
<feColorMatrix type="matrix" values="0 0 0 0 0 0 0 0 0 0 0 0 0 0 0 0 0 0 0.25 0"/>
<feBlend mode="normal" in2="shape" result="effect1_innerShadow_27_182"/>
</filter>
<filter id="filter4_i_27_182" x="519.653" y="62.1436" width="76.8281" height="142.67" filterUnits="userSpaceOnUse" color-interpolation-filters="sRGB">
<feFlood flood-opacity="0" result="BackgroundImageFix"/>
<feBlend mode="normal" in="SourceGraphic" in2="BackgroundImageFix" result="shape"/>
<feColorMatrix in="SourceAlpha" type="matrix" values="0 0 0 0 0 0 0 0 0 0 0 0 0 0 0 0 0 0 127 0" result="hardAlpha"/>
<feOffset dy="4"/>
<feGaussianBlur stdDeviation="2"/>
<feComposite in2="hardAlpha" operator="arithmetic" k2="-1" k3="1"/>
<feColorMatrix type="matrix" values="0 0 0 0 0 0 0 0 0 0 0 0 0 0 0 0 0 0 0.25 0"/>
<feBlend mode="normal" in2="shape" result="effect1_innerShadow_27_182"/>
</filter>
<filter id="filter5_i_27_182" x="393.436" y="94.7247" width="122.354" height="128.454" filterUnits="userSpaceOnUse" color-interpolation-filters="sRGB">
<feFlood flood-opacity="0" result="BackgroundImageFix"/>
<feBlend mode="normal" in="SourceGraphic" in2="BackgroundImageFix" result="shape"/>
<feColorMatrix in="SourceAlpha" type="matrix" values="0 0 0 0 0 0 0 0 0 0 0 0 0 0 0 0 0 0 127 0" result="hardAlpha"/>
<feOffset dy="4"/>
<feGaussianBlur stdDeviation="2"/>
<feComposite in2="hardAlpha" operator="arithmetic" k2="-1" k3="1"/>
<feColorMatrix type="matrix" values="0 0 0 0 0 0 0 0 0 0 0 0 0 0 0 0 0 0 0.25 0"/>
<feBlend mode="normal" in2="shape" result="effect1_innerShadow_27_182"/>
</filter>
</defs>
</svg>
