<svg width="865" height="258" viewBox="0 0 865 258" fill="none" xmlns="http://www.w3.org/2000/svg">
<path d="M323.65 166.669C323.24 165.439 295.44 128.649 290.12 126.189C284.8 123.729 236.97 100.429 228.79 99.1991C220.61 97.9691 197.72 94.2891 182.18 95.5191C166.64 96.7491 95.5 128.229 95.5 128.229C95.5 128.229 126.57 118.419 130.25 117.599C133.93 116.779 88.14 141.719 72.6 172.389C72.6 172.389 125.34 129.049 145.38 121.689C165.42 114.329 210.39 113.509 210.39 113.509L260.68 125.779L323.65 166.669Z" fill="white"/>
<path d="M156.2 133.839C156.2 133.839 116.43 149.099 98.9401 180.119C98.9401 180.119 116.08 221.829 169.94 228.199C223.8 234.569 251.21 225.969 251.21 225.969L301.56 204.939C301.56 204.939 309.85 192.829 308.57 189.319C307.29 185.809 301.21 168.309 292.32 162.549C282.54 156.219 264.91 138.329 253.12 135.779C253.12 135.779 270.01 162.549 256.31 189.639C242.61 216.729 213.6 223.739 213.6 223.739C213.6 223.739 162.93 231.069 149.54 188.999C136.15 146.929 156.19 133.839 156.19 133.839H156.2Z" fill="white"/>
<path d="M323.65 218.639L299.66 212.269C299.66 212.269 280.86 221.509 274.48 223.419C268.1 225.329 235.6 232.339 223.81 233.299C212.02 234.259 184.29 238.399 162.62 233.299C140.95 228.199 123.1 217.999 123.1 217.999C123.1 217.999 90.59 203.659 84.54 198.879C78.49 194.099 80.72 191.549 80.72 191.549L57.77 203.339C57.77 203.339 73.7 196.009 77.53 198.239C81.36 200.469 84.22 204.299 84.22 204.299L74.98 210.669C74.98 210.669 83.9 205.569 87.73 207.799C91.56 210.029 84.86 219.269 84.86 219.269C84.86 219.269 90.92 211.569 95.7 213.669C100.48 215.769 92.51 223.099 92.51 223.099C92.51 223.099 98.88 216.729 101.11 217.679C103.34 218.629 105.25 222.139 105.25 222.139L96.33 235.789C96.33 235.789 105.89 223.419 110.03 224.369C114.17 225.319 120.87 229.149 120.87 229.149L115.13 246.039C115.13 246.039 126.28 229.389 128.83 230.539C131.38 231.689 134.89 233.609 134.89 233.609L135.53 241.899C135.53 241.899 139.67 235.529 142.86 235.529C146.05 235.529 153.38 237.759 153.38 237.759C153.38 237.759 151.79 250.189 153.7 251.779C155.61 253.369 155.29 242.859 159.12 241.899C162.95 240.939 171.55 245.719 173.46 245.089C175.37 244.459 173.14 257.199 173.14 257.199L177.28 244.129C177.28 244.129 202.78 243.809 212.02 243.169C221.26 242.529 249.95 242.849 258.87 238.389C267.79 233.929 295.52 224.999 300.94 222.459C306.36 219.919 323.66 218.639 323.66 218.639H323.65Z" fill="white"/>
<path d="M178.72 167.129C178.72 167.129 159.41 161.219 158.39 160.429C157.37 159.639 154.64 161.109 155.66 161.109C156.68 161.109 152.03 161.109 152.82 162.129C153.61 163.149 156.45 164.969 158.27 165.079C160.09 165.189 162.7 167.689 160.88 168.259C159.06 168.829 153.27 169.509 155.54 170.079C157.81 170.649 162.81 170.529 163.15 170.759C163.49 170.989 163.15 174.739 163.15 174.739L155.77 177.809L165.72 176.559C165.72 176.559 170.76 176.449 169.29 178.599C167.82 180.749 161.45 184.389 161.45 184.389C161.45 184.389 159.97 188.929 160.31 189.049C160.65 189.169 167.69 184.619 167.69 184.619C167.69 184.619 175.75 182.009 175.87 182.919C175.99 183.829 165.53 194.389 160.42 194.729C155.31 195.069 167.69 195.179 167.69 195.179L175.07 187.459L168.94 199.949C168.94 199.949 171.89 200.289 172.12 200.749C172.35 201.209 178.03 195.749 178.03 195.749L180.64 187.459C180.64 187.459 172.35 204.269 174.05 205.749C175.75 207.229 178.59 203.589 178.59 203.589L180.63 197.459L181.88 211.539C181.88 211.539 185.17 210.519 184.72 209.499C184.27 208.479 184.76 198.479 184.76 198.479C184.76 198.479 183.69 209.839 186.99 212.339C190.29 214.839 192.44 215.969 192.44 215.969V206.539L195.62 213.579V206.309C195.62 206.309 196.98 203.579 198.57 208.239C200.16 212.899 201.18 216.529 201.18 216.529C201.18 216.529 204.04 214.029 203.8 210.169C203.56 206.309 205.38 204.829 205.38 204.829L207.99 214.709V204.939L214.69 213.339L211.62 202.889L219.12 213.449L211.62 188.349L207.08 201.529L192.43 192.779L183.8 188.349L181.3 180.519L174.49 177.679L168.7 171.659L165.86 169.049L176.65 167.689L178.69 167.119L178.72 167.129Z" fill="#C10000"/>
<path d="M229.01 207.879C229.01 207.879 216.85 192.599 216.19 191.549C215.53 190.499 221.84 197.669 222.6 196.579C223.36 195.489 218.63 190.059 219.15 189.409C219.67 188.759 226.62 189.409 226.62 189.409L230.75 194.189L227.06 185.939C227.06 185.939 225.54 183.989 226.84 183.549C228.14 183.109 229.66 183.549 229.66 183.549L229.44 178.119H235.09C235.09 178.119 235.74 176.169 235.09 175.949C234.44 175.729 229.01 173.999 229.01 173.999L235.38 172.399L237.91 170.309L239.86 167.919L232.26 165.969H230.09L236.17 160.199C236.17 160.199 239.86 160.729 245.73 160.199C251.6 159.669 255.5 160.319 255.72 159.229C255.94 158.139 234.87 156.169 234.87 156.169L250.73 152.709L255.73 155.099L249.21 155.529L257.68 156.619L259.2 161.619L252.9 165.099L243.13 163.149L251.6 172.409C251.6 172.409 252.69 177.809 249.86 182.209C247.03 186.609 243.13 190.079 243.13 190.079L240.74 182.209L240.96 191.569L241.18 197.469L235.97 199.209L231.63 197.469L234.02 202.249C234.02 202.249 233.15 207.249 229.02 207.899L229.01 207.879Z" fill="#C10000"/>
<path d="M177.97 161.839C177.32 161.409 164.29 159.889 160.81 156.189C157.33 152.489 166.46 156.189 166.46 156.189C166.46 156.189 172.32 157.709 171.67 156.839C171.02 155.969 166.24 152.709 166.24 152.709C166.24 152.709 157.55 147.709 157.33 145.319C157.11 142.929 169.71 151.619 169.71 151.619C169.71 151.619 178.83 157.699 179.27 155.529C179.71 153.359 170.36 144.909 170.36 144.909L164.28 142.939H161.24L166.02 140.989L159.94 136.209L169.5 138.159L170.15 132.949L189.26 152.719L178.4 145.549L185.94 154.239H181.66L183.4 158.369L176.45 158.149L180.58 160.199L181.23 163.359L177.97 161.839Z" fill="#C10000"/>
<path d="M189.26 145.579C189.26 145.579 183.78 138.239 184.22 136.989C184.66 135.739 189.26 141.539 189.26 141.539L196.26 142.709V133.829L193.98 131.249L196.26 130.219L198.98 132.929L198.54 136.829L199.79 140.719L204.27 138.959L205.52 140.279L205.89 134.629L211.47 128.979C211.47 128.979 211.47 148.359 210.74 148.579C210.01 148.799 207.88 147.849 207.88 147.849L205.53 142.339C205.53 142.339 200.76 143.589 199.66 143.729C198.56 143.869 195.11 146.079 195.11 146.079L192.61 148.139L189.28 145.569L189.26 145.579Z" fill="#C10000"/>
<path d="M224.31 148.619C224.31 148.619 222.33 147.929 221.81 147.119C221.29 146.309 221.81 143.959 221.81 143.959L224.31 145.209C224.31 145.209 225.12 146.379 225.04 147.119C224.96 147.859 224.31 148.619 224.31 148.619Z" fill="#C10000"/>
<path d="M221.23 141.169C221.23 141.169 220.42 138.449 221.23 137.719C222.04 136.989 226.44 134.779 226.44 134.779L230.85 131.699C230.85 131.699 232.47 132.669 231.29 133.839C230.11 135.009 228.13 136.619 227.03 136.919C225.93 137.219 224.02 140.079 224.02 140.079C224.02 140.079 223.36 141.549 221.23 141.179V141.169Z" fill="#C10000"/>
<path d="M227.95 154.929C227.95 154.929 227.14 152.009 228.44 151.039C229.74 150.069 238.64 143.429 238.64 143.429L243.98 138.809L245.6 136.149C245.6 136.149 247.71 135.099 247.54 137.119C247.37 139.139 245.43 141.979 245.43 141.979C245.43 141.979 243.16 144.349 244.94 143.969C246.72 143.589 249.56 142.709 249.88 142.869C250.2 143.029 250.69 144.249 250.45 144.489C250.21 144.729 246.24 145.949 245.51 145.949C244.78 145.949 238.55 147.409 236.85 149.429C235.15 151.449 230.94 153.799 230.62 153.959C230.3 154.119 227.95 154.929 227.95 154.929Z" fill="#C10000"/>
<path d="M352.34 75.3894V45.0393L349.06 49.9593C349.06 49.9593 340.25 22.0693 336.86 21.2493C333.47 20.4293 336.86 30.6793 336.86 30.6793L343.85 48.2893L352.34 75.3793V75.3894Z" fill="white"/>
<path d="M43.0699 50.7791L90.3299 46.6791L57.6399 43.8091L43.0699 50.7791Z" fill="white"/>
<path d="M343.85 69.2389C343.85 69.2389 334.3 28.2189 328.96 24.5289C323.62 20.8389 322.81 15.0989 322.81 15.0989L320.76 24.1189L324.86 31.0889L307.22 15.0889C307.22 15.0889 314.6 29.0389 315.01 31.0889C315.42 33.1389 314.24 36.4189 310.11 35.1889C305.98 33.9589 289.58 21.1989 289.58 21.1989L277.27 11.8089C277.27 11.8089 283.83 21.2389 283.42 23.2889C283.01 25.3389 274.4 21.1889 274.4 21.1889L243.23 8.51891L250.61 16.3089C250.61 16.3089 218.62 8.51891 215.75 8.51891C212.88 8.51891 208.78 10.5689 208.78 10.5689L157.51 5.23891L148.9 2.36889H122.65C122.65 2.36889 79.99 -2.96111 77.12 2.36889C74.25 7.69889 90.33 7.69891 90.33 7.69891C90.33 7.69891 62.35 16.3089 51.68 22.8789C41.02 29.4389 22.15 36.8289 22.15 36.8289L28.71 39.6989L0 61.4389L11.04 54.8189L34.87 40.5189L50.05 34.6189L14.37 59.3889L64.82 32.3189L70.15 21.1989L95.99 10.5789L137.83 9.7589C137.83 9.7589 214.94 33.9589 223.56 43.7989L232.17 53.6389L213.3 24.5189L267.85 52.4089L231.75 21.1889L292.87 54.8689L268.26 29.0289L321.99 65.9489L313.38 48.2889L343.85 69.2289V69.2389Z" fill="white"/>
<path d="M222.73 50.7788C222.73 50.7788 156.08 17.9688 144.69 15.0988C133.31 12.2288 121 15.0988 121 15.0988L90.33 15.9188L69.32 32.3288L61.53 40.9388L122.65 43.8088L97.22 25.3488L138.24 39.2988L134.96 28.8188L174.75 43.8088L159.98 28.8188L222.74 50.7888L222.73 50.7788Z" fill="white"/>
<path d="M541.3 167.049C541.71 165.819 569.51 129.029 574.83 126.569C580.15 124.109 627.98 100.809 636.16 99.579C644.34 98.349 667.23 94.669 682.77 95.899C698.31 97.129 769.45 128.609 769.45 128.609C769.45 128.609 738.38 118.799 734.7 117.979C731.02 117.159 776.81 142.099 792.35 172.769C792.35 172.769 739.61 129.429 719.57 122.069C699.53 114.709 654.56 113.889 654.56 113.889L604.27 126.159L541.3 167.049Z" fill="white"/>
<path d="M708.75 134.219C708.75 134.219 748.52 149.479 766.01 180.499C766.01 180.499 748.87 222.209 695.01 228.579C641.15 234.949 613.74 226.349 613.74 226.349L563.39 205.319C563.39 205.319 555.1 193.209 556.38 189.699C557.66 186.189 563.74 168.689 572.63 162.929C582.41 156.599 600.04 138.709 611.83 136.159C611.83 136.159 594.94 162.929 608.64 190.019C622.34 217.109 651.35 224.119 651.35 224.119C651.35 224.119 702.02 231.449 715.41 189.379C728.8 147.309 708.76 134.219 708.76 134.219H708.75Z" fill="white"/>
<path d="M541.3 219.019L565.29 212.649C565.29 212.649 584.09 221.889 590.47 223.799C596.85 225.709 629.35 232.719 641.14 233.679C652.93 234.639 680.66 238.779 702.33 233.679C724 228.579 741.85 218.379 741.85 218.379C741.85 218.379 774.36 204.039 780.41 199.259C786.46 194.479 784.23 191.929 784.23 191.929L807.18 203.719C807.18 203.719 791.25 196.389 787.42 198.619C783.59 200.849 780.73 204.679 780.73 204.679L789.97 211.049C789.97 211.049 781.05 205.949 777.22 208.179C773.39 210.409 780.09 219.649 780.09 219.649C780.09 219.649 774.03 211.949 769.25 214.049C764.47 216.149 772.44 223.479 772.44 223.479C772.44 223.479 766.07 217.109 763.84 218.059C761.61 219.009 759.7 222.519 759.7 222.519L768.62 236.169C768.62 236.169 759.06 223.799 754.92 224.749C750.78 225.699 744.08 229.529 744.08 229.529L749.82 246.419C749.82 246.419 738.67 229.769 736.12 230.919C733.57 232.069 730.06 233.989 730.06 233.989L729.42 242.279C729.42 242.279 725.28 235.909 722.09 235.909C718.9 235.909 711.57 238.139 711.57 238.139C711.57 238.139 713.16 250.569 711.25 252.159C709.34 253.749 709.66 243.239 705.83 242.279C702 241.319 693.4 246.099 691.49 245.469C689.58 244.839 691.81 257.579 691.81 257.579L687.67 244.509C687.67 244.509 662.17 244.189 652.93 243.549C643.69 242.909 615 243.229 606.08 238.769C597.16 234.309 569.43 225.379 564.01 222.839C558.59 220.299 541.29 219.019 541.29 219.019H541.3Z" fill="white"/>
<path d="M686.23 167.509C686.23 167.509 705.54 161.599 706.56 160.809C707.58 160.019 710.31 161.489 709.29 161.489C708.27 161.489 712.92 161.489 712.13 162.509C711.34 163.529 708.5 165.349 706.68 165.459C704.86 165.569 702.25 168.069 704.07 168.639C705.89 169.209 711.68 169.889 709.41 170.459C707.14 171.029 702.14 170.909 701.8 171.139C701.46 171.369 701.8 175.119 701.8 175.119L709.18 178.189L699.23 176.939C699.23 176.939 694.19 176.829 695.66 178.979C697.13 181.129 703.5 184.769 703.5 184.769C703.5 184.769 704.98 189.309 704.64 189.429C704.3 189.549 697.26 184.999 697.26 184.999C697.26 184.999 689.2 182.389 689.08 183.299C688.96 184.209 699.42 194.769 704.53 195.109C709.64 195.449 697.26 195.559 697.26 195.559L689.88 187.839L696.01 200.329C696.01 200.329 693.06 200.669 692.83 201.129C692.6 201.589 686.92 196.129 686.92 196.129L684.31 187.839C684.31 187.839 692.6 204.649 690.9 206.129C689.2 207.609 686.36 203.969 686.36 203.969L684.32 197.839L683.07 211.919C683.07 211.919 679.78 210.899 680.23 209.879C680.68 208.859 680.19 198.859 680.19 198.859C680.19 198.859 681.26 210.219 677.96 212.719C674.66 215.219 672.51 216.349 672.51 216.349V206.919L669.33 213.959V206.689C669.33 206.689 667.97 203.959 666.38 208.619C664.79 213.279 663.77 216.909 663.77 216.909C663.77 216.909 660.91 214.409 661.15 210.549C661.39 206.689 659.57 205.209 659.57 205.209L656.96 215.089V205.319L650.26 213.719L653.33 203.269L645.83 213.829L653.33 188.729L657.87 201.909L672.52 193.159L681.15 188.729L683.65 180.899L690.46 178.059L696.25 172.039L699.09 169.429L688.3 168.069L686.26 167.499L686.23 167.509Z" fill="#C10000"/>
<path d="M635.94 208.259C635.94 208.259 648.1 192.979 648.76 191.929C649.42 190.879 643.11 198.049 642.35 196.959C641.59 195.869 646.32 190.439 645.8 189.789C645.28 189.139 638.33 189.789 638.33 189.789L634.2 194.569L637.89 186.319C637.89 186.319 639.41 184.369 638.11 183.929C636.81 183.489 635.29 183.929 635.29 183.929L635.51 178.499H629.86C629.86 178.499 629.21 176.549 629.86 176.329C630.51 176.109 635.94 174.379 635.94 174.379L629.57 172.779L627.04 170.689L625.09 168.299L632.69 166.349H634.86L628.78 160.579C628.78 160.579 625.09 161.109 619.22 160.579C613.35 160.049 609.45 160.699 609.23 159.609C609.01 158.519 630.08 156.549 630.08 156.549L614.22 153.089L609.22 155.479L615.74 155.909L607.27 156.999L605.75 161.999L612.05 165.479L621.82 163.529L613.35 172.789C613.35 172.789 612.26 178.189 615.09 182.589C617.92 186.989 621.82 190.459 621.82 190.459L624.21 182.589L623.99 191.949L623.77 197.849L628.98 199.589L633.32 197.849L630.93 202.629C630.93 202.629 631.8 207.629 635.93 208.279L635.94 208.259Z" fill="#C10000"/>
<path d="M686.98 162.209C687.63 161.779 700.66 160.259 704.14 156.559C707.62 152.859 698.49 156.559 698.49 156.559C698.49 156.559 692.63 158.079 693.28 157.209C693.93 156.339 698.71 153.079 698.71 153.079C698.71 153.079 707.4 148.079 707.62 145.689C707.84 143.299 695.24 151.989 695.24 151.989C695.24 151.989 686.12 158.069 685.68 155.899C685.24 153.729 694.59 145.279 694.59 145.279L700.67 143.309H703.71L698.93 141.359L705.01 136.579L695.45 138.529L694.8 133.319L675.69 153.089L686.55 145.919L679.01 154.609H683.29L681.55 158.739L688.5 158.519L684.37 160.569L683.72 163.729L686.98 162.209Z" fill="#C10000"/>
<path d="M675.69 145.959C675.69 145.959 681.17 138.619 680.73 137.369C680.29 136.119 675.69 141.919 675.69 141.919L668.69 143.089V134.209L670.97 131.629L668.69 130.599L665.97 133.309L666.41 137.209L665.16 141.099L660.68 139.339L659.43 140.659L659.06 135.009L653.48 129.359C653.48 129.359 653.48 148.739 654.21 148.959C654.94 149.179 657.07 148.229 657.07 148.229L659.42 142.719C659.42 142.719 664.19 143.969 665.29 144.109C666.39 144.249 669.84 146.459 669.84 146.459L672.34 148.519L675.67 145.949L675.69 145.959Z" fill="#C10000"/>
<path d="M640.64 148.999C640.64 148.999 642.62 148.309 643.14 147.499C643.66 146.689 643.14 144.339 643.14 144.339L640.64 145.589C640.64 145.589 639.83 146.759 639.91 147.499C639.99 148.239 640.64 148.999 640.64 148.999Z" fill="#C10000"/>
<path d="M643.73 141.549C643.73 141.549 644.54 138.829 643.73 138.099C642.92 137.369 638.52 135.159 638.52 135.159L634.11 132.079C634.11 132.079 632.49 133.049 633.67 134.219C634.85 135.389 636.83 136.999 637.93 137.299C639.03 137.599 640.94 140.459 640.94 140.459C640.94 140.459 641.6 141.929 643.73 141.559V141.549Z" fill="#C10000"/>
<path d="M637 155.309C637 155.309 637.81 152.389 636.51 151.419C635.21 150.449 626.31 143.809 626.31 143.809L620.97 139.189L619.35 136.529C619.35 136.529 617.24 135.479 617.41 137.499C617.58 139.519 619.52 142.359 619.52 142.359C619.52 142.359 621.79 144.729 620.01 144.349C618.23 143.969 615.39 143.089 615.07 143.249C614.75 143.409 614.26 144.629 614.5 144.869C614.74 145.109 618.71 146.329 619.44 146.329C620.17 146.329 626.4 147.789 628.1 149.809C629.8 151.829 634.01 154.179 634.33 154.339C634.65 154.499 637 155.309 637 155.309Z" fill="#C10000"/>
<path d="M512.61 75.7692V45.4192L515.89 50.3392C515.89 50.3392 524.7 22.4492 528.09 21.6292C531.48 20.8092 528.09 31.0592 528.09 31.0592L521.1 48.6692L512.61 75.7592V75.7692Z" fill="white"/>
<path d="M821.88 51.159L774.62 47.059L807.31 44.189L821.88 51.159Z" fill="white"/>
<path d="M521.1 69.6193C521.1 69.6193 530.65 28.5993 535.99 24.9093C541.33 21.2193 542.14 15.4793 542.14 15.4793L544.19 24.4993L540.09 31.4693L557.73 15.4693C557.73 15.4693 550.35 29.4193 549.94 31.4693C549.53 33.5193 550.71 36.7993 554.84 35.5693C558.97 34.3393 575.37 21.5793 575.37 21.5793L587.68 12.1893C587.68 12.1893 581.12 21.6193 581.53 23.6693C581.94 25.7193 590.55 21.5693 590.55 21.5693L621.72 8.89925L614.34 16.6893C614.34 16.6893 646.33 8.89925 649.2 8.89925C652.07 8.89925 656.17 10.9493 656.17 10.9493L707.44 5.61926L716.05 2.74926H742.3C742.3 2.74926 784.96 -2.58074 787.83 2.74926C790.7 8.07926 774.62 8.07928 774.62 8.07928C774.62 8.07928 802.6 16.6893 813.27 23.2593C823.93 29.8193 842.8 37.2093 842.8 37.2093L836.24 40.0793L864.95 61.8193L853.91 55.1993L830.08 40.8993L814.9 34.9993L850.58 59.7693L800.13 32.6993L794.8 21.5793L768.96 10.9593L727.12 10.1393C727.12 10.1393 650.01 34.3393 641.39 44.1793L632.78 54.0193L651.65 24.8993L597.1 52.7893L633.2 21.5693L572.08 55.2493L596.69 29.4093L542.96 66.3293L551.57 48.6693L521.1 69.6093V69.6193Z" fill="white"/>
<path d="M642.22 51.1592C642.22 51.1592 708.87 18.3492 720.26 15.4792C731.64 12.6092 743.95 15.4792 743.95 15.4792L774.62 16.2992L795.63 32.7091L803.42 41.3192L742.3 44.1892L767.73 25.7292L726.71 39.6791L729.99 29.1992L690.2 44.1892L704.97 29.1992L642.21 51.1692L642.22 51.1592Z" fill="white"/>
</svg>
