<svg width="880" height="238" viewBox="0 0 880 238" fill="none" xmlns="http://www.w3.org/2000/svg">
<path d="M310.11 155.66C310.11 155.66 287.76 107.23 246.78 100.71C205.8 94.19 192.29 96.05 189.5 95.12C186.71 94.19 175.53 90 175.53 90C175.53 90 160.16 93.73 158.3 93.73C156.44 93.73 123.84 104.91 121.04 110.49C118.24 116.07 96.36 133.77 96.36 133.77C96.36 133.77 87.98 135.63 88.44 138.89C88.9 142.15 88.42 151 88.42 151V158.45C88.42 158.45 95.89 162.18 96.82 164.04C97.75 165.9 114.52 180.8 118.24 182.2C121.96 183.6 154.56 197.57 157.82 198.03C161.08 198.49 210.91 202.69 225.35 201.76C239.79 200.83 274.71 189.19 276.11 186.86C277.51 184.53 303.12 172.42 303.12 172.42L307.31 169.63L305.45 164.04L310.11 155.66Z" fill="white"/>
<path d="M142.13 92.1001L119.96 103.18L90.33 125.78L92.03 128.55L97.57 126.1L113.46 112.56L125.93 103.93L143.51 95.0801L144.69 92.1001H142.13Z" fill="white"/>
<path d="M331.59 180C331.59 180 312.84 175.1 308.58 176.59C304.32 178.08 294.73 183.83 294.73 183.83L272.36 192.35L240.62 201.89C240.62 201.89 225.37 208.67 222.41 208.42C219.45 208.17 194.54 208.42 194.54 208.42C194.54 208.42 163.95 207.43 159.76 205.7C155.57 203.97 140.52 198.55 134.85 195.83C129.18 193.11 115.86 189.91 115.86 189.91L90.34 178.07H81.82L57.65 166.23C57.65 166.23 69 178.32 72.2 179.3C75.4 180.28 100.32 192.62 100.32 192.62C100.32 192.62 105.25 192.62 105.25 193.85C105.25 195.08 90.33 206.68 90.33 206.68L108.7 197.06C108.7 197.06 112.15 202.98 113.14 201.87C114.13 200.76 117.09 204.21 117.09 204.21L107.22 216.79L123.75 205.2C123.75 205.2 129.67 207.17 131.4 208.41C133.13 209.65 118.82 223.46 118.82 223.46C118.82 223.46 132.88 208.66 134.85 209.4C136.82 210.14 142.5 213.1 142.5 213.1L147.19 214.09L139.3 226.67L141.27 229.63C141.27 229.63 142.62 227.64 142.5 224.7C142.38 221.76 151.87 213.85 151.87 213.85C151.87 213.85 158.28 218.04 161 217.55C163.72 217.06 159.77 225.44 159.77 225.44L157.8 237.28L162.49 225.69C162.49 225.69 164.96 219.77 166.44 218.78C167.92 217.79 172.11 216.81 172.36 218.29C172.61 219.77 168.66 235.31 168.66 235.31L173.35 229.64C173.35 229.64 174.34 221.5 175.82 219.77C177.3 218.04 182.73 221.25 182.73 221.25C182.73 221.25 187.42 218.78 189.39 219.52C191.36 220.26 191.61 225.69 191.61 225.69L190.62 237.28L196.79 219.03C196.79 219.03 201.48 215.82 202.22 218.29C202.96 220.76 204.69 230.38 204.69 230.38C204.69 230.38 203.7 220.27 206.66 219.03C209.62 217.79 214.06 218.29 214.31 220.26C214.56 222.23 214.56 225.69 215.3 225.44C216.04 225.19 224.18 219.52 224.18 219.52L227.39 221.74L232.57 213.85L245.89 232.84C245.89 232.84 238.74 216.31 240.22 213.11C241.7 209.91 261.43 225.2 261.43 225.2C261.43 225.2 254.28 213.85 254.77 211.88C255.26 209.91 264.14 208.67 264.14 208.67L273.76 219.28L267.35 203.49L281.9 201.89L286.59 207.19L284.86 198.06C284.86 198.06 288.81 194.11 291.52 193.62C294.23 193.13 303.61 191.89 303.61 191.89C303.61 191.89 301.39 187.45 303.12 185.97C304.85 184.49 324.09 183.75 325.32 185.72C326.55 187.69 336.91 182.76 336.91 182.76L335.68 168.21L331.65 179.98L331.59 180Z" fill="white"/>
<path d="M352.34 76.0099V45.6599L349.06 50.5799C349.06 50.5799 340.25 22.6899 336.86 21.8699C333.47 21.0499 336.86 31.2999 336.86 31.2999L343.85 48.9099L352.34 75.9999V76.0099Z" fill="white"/>
<path d="M43.0699 51.3999L90.3299 47.2999L57.6399 44.4299L43.0699 51.3999Z" fill="white"/>
<path d="M343.84 69.86C343.84 69.86 334.29 28.84 328.95 25.15C323.61 21.46 322.8 15.72 322.8 15.72L320.75 24.74L324.85 31.71L307.21 15.71C307.21 15.71 314.59 29.66 315 31.71C315.41 33.76 314.23 37.04 310.1 35.81C305.97 34.58 289.57 21.82 289.57 21.82L277.26 12.43C277.26 12.43 283.82 21.86 283.41 23.91C283 25.96 274.39 21.81 274.39 21.81L243.22 9.13998L250.6 16.93C250.6 16.93 218.61 9.13998 215.74 9.13998C212.87 9.13998 208.77 11.19 208.77 11.19L157.5 5.85998L148.89 2.98998H122.64C122.64 2.98998 79.98 -2.34002 77.11 2.98998C74.24 8.31998 90.32 8.31998 90.32 8.31998C90.32 8.31998 62.34 16.93 51.67 23.5C41 30.07 22.14 37.45 22.14 37.45L28.7 40.32L0 62.07L11.04 55.45L34.87 41.15L50.05 35.25L14.36 60.02L64.81 32.95L70.14 21.83L95.98 11.21L137.82 10.39C137.82 10.39 214.93 34.59 223.55 44.43L232.16 54.27L213.29 25.15L267.84 53.04L231.74 21.82L292.86 55.5L268.25 29.66L321.98 66.58L313.37 48.92L343.84 69.86Z" fill="white"/>
<path d="M222.72 51.3999C222.72 51.3999 156.07 18.5899 144.69 15.7199C133.31 12.8499 121 15.7199 121 15.7199L90.33 16.5399L69.32 32.9499L61.53 41.5599L122.65 44.4299L97.22 25.9699L138.24 39.9199L134.96 29.4399L174.75 44.4299L159.98 29.4399L222.74 51.4099L222.72 51.3999Z" fill="white"/>
<path d="M569.86 155.03C569.86 155.03 592.21 106.6 633.19 100.08C674.17 93.5601 687.68 95.4201 690.47 94.4901C693.26 93.5601 704.44 89.3701 704.44 89.3701C704.44 89.3701 719.81 93.1001 721.67 93.1001C723.53 93.1001 756.13 104.28 758.93 109.86C761.72 115.45 783.61 133.14 783.61 133.14C783.61 133.14 791.99 135 791.53 138.26C791.07 141.52 791.55 150.37 791.55 150.37V157.82C791.55 157.82 784.08 161.55 783.15 163.41C782.22 165.27 765.45 180.17 761.73 181.57C758.01 182.97 725.41 196.94 722.15 197.4C718.89 197.86 669.06 202.06 654.62 201.13C640.18 200.2 605.26 188.56 603.86 186.23C602.46 183.9 576.85 171.79 576.85 171.79L572.66 169L574.52 163.41L569.86 155.03Z" fill="white"/>
<path d="M737.84 91.46L760.01 102.55L789.64 125.15L787.94 127.92L782.4 125.47L766.51 111.93L754.04 103.3L736.46 94.45L735.28 91.46H737.84Z" fill="white"/>
<path d="M548.38 179.37C548.38 179.37 567.13 174.47 571.39 175.96C575.65 177.45 585.24 183.2 585.24 183.2L607.61 191.72L639.35 201.26C639.35 201.26 654.6 208.04 657.56 207.79C660.52 207.54 685.43 207.79 685.43 207.79C685.43 207.79 716.02 206.8 720.21 205.07C724.4 203.34 739.45 197.92 745.12 195.2C750.79 192.49 764.11 189.28 764.11 189.28L789.63 177.44H798.15L822.32 165.6C822.32 165.6 810.97 177.69 807.77 178.67C804.57 179.65 779.65 191.99 779.65 191.99C779.65 191.99 774.72 191.99 774.72 193.22C774.72 194.45 789.64 206.05 789.64 206.05L771.27 196.43C771.27 196.43 767.82 202.35 766.83 201.24C765.84 200.13 762.88 203.58 762.88 203.58L772.75 216.16L756.22 204.57C756.22 204.57 750.3 206.54 748.57 207.78C746.84 209.02 761.15 222.83 761.15 222.83C761.15 222.83 747.09 208.03 745.12 208.77C743.15 209.51 737.47 212.47 737.47 212.47L732.78 213.46L740.67 226.04L738.7 229C738.7 229 737.35 227.01 737.47 224.07C737.59 221.13 728.1 213.22 728.1 213.22C728.1 213.22 721.69 217.41 718.97 216.92C716.25 216.43 720.2 224.81 720.2 224.81L722.17 236.65L717.48 225.06C717.48 225.06 715.01 219.14 713.53 218.15C712.05 217.16 707.86 216.18 707.61 217.66C707.36 219.14 711.31 234.68 711.31 234.68L706.62 229.01C706.62 229.01 705.63 220.87 704.15 219.14C702.67 217.41 697.24 220.62 697.24 220.62C697.24 220.62 692.55 218.15 690.58 218.89C688.61 219.63 688.36 225.06 688.36 225.06L689.35 236.65L683.18 218.4C683.18 218.4 678.49 215.19 677.75 217.66C677.01 220.13 675.28 229.75 675.28 229.75C675.28 229.75 676.27 219.64 673.31 218.4C670.35 217.16 665.91 217.66 665.66 219.63C665.41 221.6 665.41 225.06 664.67 224.81C663.93 224.56 655.79 218.89 655.79 218.89L652.58 221.11L647.4 213.22L634.08 232.21C634.08 232.21 641.23 215.68 639.75 212.48C638.27 209.28 618.54 224.57 618.54 224.57C618.54 224.57 625.69 213.22 625.2 211.25C624.71 209.28 615.83 208.04 615.83 208.04L606.21 218.65L612.62 202.86L598.07 201.26L593.38 206.56L595.11 197.43C595.11 197.43 591.16 193.48 588.45 192.99C585.74 192.5 576.36 191.26 576.36 191.26C576.36 191.26 578.58 186.82 576.85 185.34C575.12 183.86 555.88 183.12 554.65 185.09C553.42 187.06 543.06 182.13 543.06 182.13L544.29 167.58L548.32 179.35L548.38 179.37Z" fill="white"/>
<path d="M527.63 75.3801V45.0301L530.91 49.9501C530.91 49.9501 539.72 22.0601 543.11 21.2401C546.5 20.4201 543.11 30.6701 543.11 30.6701L536.12 48.2801L527.63 75.3701V75.3801Z" fill="white"/>
<path d="M536.13 69.2301C536.13 69.2301 545.68 28.2101 551.02 24.5201C556.36 20.8301 557.17 15.0901 557.17 15.0901L559.22 24.1101L555.12 31.0801L572.76 15.0801C572.76 15.0801 565.38 29.0301 564.97 31.0801C564.56 33.1301 565.74 36.4101 569.87 35.1801C574 33.9501 590.4 21.1901 590.4 21.1901L602.71 11.8001C602.71 11.8001 596.15 21.2301 596.56 23.2801C596.97 25.3301 605.58 21.1801 605.58 21.1801L636.75 8.5101L629.37 16.3001C629.37 16.3001 661.36 8.5101 664.23 8.5101C667.1 8.5101 671.2 10.5601 671.2 10.5601L722.47 5.2301L731.08 2.3601H757.33C757.33 2.3601 799.99 -2.9699 802.86 2.3601C805.73 7.6901 789.65 7.6901 789.65 7.6901C789.65 7.6901 817.63 16.3001 828.3 22.8701C838.97 29.4401 857.83 36.8201 857.83 36.8201L851.27 39.6901L879.98 61.4301L868.94 54.8101L845.11 40.5101L829.93 34.6101L865.61 59.3801L815.16 32.3101L809.83 21.1901L783.99 10.5701L742.15 9.7501C742.15 9.7501 665.04 33.9501 656.42 43.7901L647.81 53.6301L666.68 24.5101L612.13 52.4001L648.23 21.1801L587.11 54.8601L611.72 29.0201L557.99 65.9401L566.6 48.2801L536.13 69.2201V69.2301Z" fill="white"/>
<path d="M836.9 50.7701L789.64 46.67L822.33 43.8L836.9 50.7701Z" fill="white"/>
<path d="M657.25 50.77C657.25 50.77 723.9 17.96 735.29 15.09C746.68 12.22 758.98 15.09 758.98 15.09L789.65 15.91L810.66 32.32L818.45 40.93L757.33 43.8L782.76 25.34L741.74 39.29L745.02 28.81L705.23 43.8L720 28.81L657.24 50.78L657.25 50.77Z" fill="white"/>
</svg>
