<svg width="536" height="677" viewBox="0 0 536 677" fill="none" xmlns="http://www.w3.org/2000/svg">
<path d="M64 290.507C55.6 293.707 17.8333 355.173 0 385.507V676.507C42.8333 579.507 138 388.107 176 398.507C223.5 411.507 361.5 396.507 373.5 385.507C383.1 376.707 449.167 367.173 481 363.507C483.333 361.173 487.7 355.007 486.5 349.007C485 341.507 464.5 327.507 454 325.507C443.5 323.507 422.5 326.007 413 330.507C403.5 335.007 357 323.507 352 321.007C347 318.507 327.5 269.507 328 260.507C328.4 253.307 353.833 223.84 366.5 210.007C386.667 197.507 428.6 173.707 435 178.507C443 184.507 501 200.507 517.5 196.507C530.7 193.307 535.333 179.174 536 172.507C501 159.007 429.3 131.607 422.5 130.007C414 128.007 382.5 139.507 357 146.507C356.5 137.007 402 103.007 427 91.5068C452 80.0068 505 48.5068 507.5 37.5068C509.5 28.7068 504 18.8402 501 15.0068C425.833 58.1735 273.1 144.907 263.5 146.507C251.5 148.507 74.5 286.507 64 290.507Z" fill="#FF0000"/>
<path d="M326 28.0068C322.4 30.0068 285.5 107.84 267.5 146.507C283.833 138.84 316.4 122.707 316 119.507C315.5 115.507 340.5 49.0068 341.5 41.0068C342.5 33.0068 330.5 25.5068 326 28.0068Z" fill="#FF0000"/>
<path d="M432.5 0.00672267C426.9 -0.793277 370.5 70.0067 343 105.507L425 59.5068C431 51.3402 443.4 33.5068 445 27.5068C447 20.0068 439.5 1.00672 432.5 0.00672267Z" fill="#FF0000"/>
</svg>
