<svg width="1201" height="3399" viewBox="0 0 1201 3399" fill="none" xmlns="http://www.w3.org/2000/svg">
<path d="M1200 154.058V251.466C1131.86 217.5 1065.71 174.768 995.539 144.868C960.686 130.002 883.653 98.874 849.054 92.479C814.54 86.1263 760.587 89.9379 724.675 82.0606C721.457 81.3406 722.05 74.0562 720.059 74.1409C612.832 77.4019 439.54 246.638 370.85 325.75C316.431 388.43 279.207 459.919 237.112 530.688C230.675 541.53 215.937 555.633 212.338 565.162C204.037 586.973 201.454 626.572 203.614 649.611C275.988 560.165 383.893 531.154 492.645 511.207C729.842 467.712 963.566 493.419 1199.96 526.834V628.477C1154.26 619.668 1116.02 589.853 1072.11 576.47C962.168 542.97 776.51 542.716 660.686 543.605C616.05 543.944 570.822 540.175 527.202 550.085C405.28 577.825 302.795 659.055 207.722 734.271C155.971 803.388 119.509 881.654 70.257 952.423C74.873 955.006 85.2909 948.781 89.314 946.112C130.265 919.008 173.546 870.473 214.498 838.498C274.506 791.572 339.935 750.449 405.915 712.46C484.599 667.144 540.5 630.256 634.938 624.073C755.76 616.153 924.69 619.33 1045.64 628.308C1096.71 632.12 1150.88 652.575 1199.92 666.594V776.707C1184.16 770.397 1150.96 737.363 1136.82 736.219C1131.1 735.753 1126.23 742.911 1117.67 743.08C1088.54 743.631 1052.46 734.864 1019.93 738.379C1004.73 740.031 1002.32 744.435 1012.48 755.658L1043.39 759.851L1030.82 770.397C1051.91 795.13 1080.15 795.045 1106.79 804.405C1147.83 818.804 1165.32 866.873 1200 891.098V1085.91C1182.04 1063.51 1172.05 1034.33 1151.55 1013.75C1140.8 1002.95 1106.71 974.7 1093.96 965.509C1070.96 948.95 1027.68 934.296 1009.94 914.095C1000.71 903.592 1001.34 888.515 993.93 882.374C982.115 872.548 938.961 872.336 919.989 868.609C873.701 859.462 828.938 844.215 781.127 848.747C781.465 858.488 779.136 869.075 783.329 878.35C791.756 897.112 907.538 955.557 933.54 977.876C968.224 1007.65 1026.62 1071.39 1058.34 1107.05C1112.38 1167.78 1120.09 1211.27 1146.17 1285.94C1163.41 1335.28 1173.49 1387.37 1200 1433.2V1526.37C1166.42 1500.49 1146.56 1474.87 1123.77 1439.63C1084.81 1379.37 1051.99 1310.72 1017.14 1247.78C976.016 1245.32 961.11 1208.22 933.117 1185.78C913.975 1170.45 896.909 1166.59 878.275 1156.05C874.633 1131.74 859.472 1108.15 855.703 1085.02C852.485 1065.33 859.176 1038.31 844.735 1020.14C832.199 1004.35 780.872 981.349 759.91 961.062C744.664 946.324 725.607 923.624 726.031 901.855C726.412 882.374 734.627 814.569 739.921 796.866C752.118 756.124 823.56 747.442 858.964 751.805C888.312 755.404 898.772 767.983 935.107 763.578C943.916 762.519 986.35 753.372 975.72 738.633C943.154 747.612 906.056 741.047 871.923 742.699C727.089 749.645 575.819 794.41 440.472 844.427C382.919 865.73 359.797 875.005 311.138 909.775C287.973 926.334 263.749 944.08 235.503 950.602C252.866 1008.54 249.097 1070.12 252.315 1130.34C253.713 1156.34 260.743 1184.3 260.997 1211.02C261.632 1280.86 243.337 1355.86 237.705 1424.09C235.884 1446.32 244.184 1471.06 231.056 1494.56L239.483 1493.88L246.005 1475.59L254.221 1483.59L264.935 1479.74C281.705 1562.15 312.535 1640.84 334.853 1721.14C369.834 1847.01 381.649 1971.9 436.406 2093.83C474.562 2178.79 583.06 2286.79 656.451 2343.66C695.836 2374.16 722.77 2391.69 774.901 2388.13C818.267 2385.17 912.916 2373.01 952.555 2360.77C1010.7 2342.86 1048.98 2319.1 1090.19 2274.08C1108.7 2253.84 1101.41 2244.99 1096.37 2220.93C1088.11 2181.59 1069.48 2103.49 1054.07 2068.47C1050.76 2060.93 1040.6 2048.6 1032.81 2047.29C1030.39 2046.87 1031.49 2054.91 1028.02 2055.84C1009.09 2060.93 921.979 2018.36 896.316 2010.44C813.312 1984.82 763.213 2006.25 682.75 2027.17C663.227 2039.62 653.783 2062.41 653.572 2084.73C601.144 2105.95 573.828 2073.93 570.144 2023.49C566.883 1979.02 615.542 1826.6 647.346 1794.75C693.676 1748.37 759.656 1760.66 816.742 1754.68C850.24 1751.17 894.833 1732.49 927.696 1729.82C941.206 1728.72 946.542 1736.43 957.002 1738C975.085 1740.75 991.05 1736.05 1009.64 1746.64C1009.26 1708.94 1001.55 1671.63 988.467 1636.57C970.511 1656.34 956.028 1670.4 945.398 1637.29C925.579 1629.62 916.474 1649.78 909.317 1653.63C846.725 1687.6 834.105 1665.96 774.69 1670.28C739.54 1672.86 734.204 1684.89 694.311 1670.57C657.214 1657.23 661.66 1644.1 642.561 1616.66C640.02 1612.98 643.281 1608.83 633.159 1611.11L550.579 1869.41C542.49 1901.98 532.496 1934.42 536.095 1968.52L518.944 1975.33L520.469 1808.77C530.294 1753.92 543.083 1699.03 560.065 1646.01C584.5 1569.69 605.675 1543.27 654.376 1482.07C661.533 1473.05 676.948 1462.76 681.479 1454.12C689.145 1439.42 708.837 1370.64 679.743 1369.75C666.657 1395.59 638.792 1421.72 615.839 1439.25C591.276 1458.01 538.891 1496.43 513.312 1510.27C506.875 1513.75 471.513 1529.63 468.125 1526.41C467.448 1515.61 477.357 1507.69 480.745 1498.84C485.319 1486.81 467.914 1502.57 472.403 1490.54C477.103 1477.96 514.752 1427.99 525 1416.13C540.542 1398.09 569.509 1386.86 582.341 1365.56C556.762 1368.78 524.746 1380.68 499.76 1382.46C486.251 1383.43 476.68 1379.2 466.008 1379.07C455.336 1378.94 445.511 1385.08 433.018 1382.37C431.832 1382.12 420.906 1369.41 415.189 1365.69C406.084 1359.72 395.073 1359.12 387.747 1350.69L400.409 1344.43C378.473 1347.73 322.699 1307.5 368.69 1305.89C395.709 1304.91 428.953 1315.5 461.942 1314.91C554.729 1313.34 603.515 1309.57 679.362 1253.03C693.252 1242.66 709.006 1231.39 708.752 1211.82C693.252 1186.88 663.947 1180.23 640.316 1165.66C614.102 1149.53 561.886 1109.29 530.548 1112.3C509.373 1114.33 454.87 1145.88 440.472 1162.06C430.223 1173.58 408.075 1218.73 399.52 1235.5C396.429 1241.56 397.106 1248.33 395.539 1254.68C317.998 1263.92 334.811 1217.67 363.185 1169.35C391.177 1121.66 416.671 1115.39 458.385 1086.8C488.411 1066.22 433.06 1059.19 415.147 1060.46C385.079 1062.58 339.131 1094.34 313.975 1064.7C298.645 1046.61 312.916 1040.39 318.168 1026.88C324.562 1010.44 317.067 999.263 344.382 993.842C383.216 986.134 445.342 996.511 487.437 997.315C496.16 997.485 504.334 992.826 512.338 993.165C530.717 993.927 560.404 1011.63 578.19 1018.36L569.763 1022.6L658.569 1090.32C669.071 1019.72 615.076 959.538 633.286 891.267L649.675 902.321L717.9 1052.2C737.084 1066.6 730.265 983.678 731.112 979.062C731.578 976.478 744.029 954.202 745.299 954.794C768.464 988.421 773.038 1030.26 784.218 1068.3C796.753 1111.03 803.36 1104.34 798.151 1155.88C787.098 1264.85 766.008 1386.14 724.125 1488.34C709.599 1523.78 685.079 1555.25 679.913 1594C705.788 1604.72 728.402 1582.31 757.199 1590.87C774.605 1596.04 798.786 1633.98 829.87 1632.67C865.105 1631.19 904.023 1566.31 946.33 1573.04L875.268 1396.43L794.001 1282.76C793.069 1249.94 811.83 1248.29 836.053 1262.1C896.993 1296.87 999.605 1460.3 1033.23 1526.28C1087.48 1632.63 1096.37 1733.72 1107.13 1850.44C1112.38 1907.53 1123.18 1976.01 1137.96 2031.37C1151.47 2081.98 1183.87 2132.67 1200.17 2182.94V2407.4C1109.92 2503.24 1024.42 2604.63 912.451 2676.38C911.561 2682.64 917.321 2685.27 921.302 2688.7C979.447 2738.89 1069.06 2777.13 1132.16 2829.14C1156.17 2848.92 1165.15 2877.04 1200.21 2873.27V3068.08C1188.86 3077.95 1175.14 3070.92 1164.22 3080.62C1139.82 3102.3 1109.03 3155.07 1083.92 3182.47C1053.6 3215.59 1023.87 3248.58 976.186 3252.48L916.77 3309.44C913.721 3297.33 924.774 3293.86 928.077 3285.52C929.178 3282.72 926.299 3276.96 928.501 3272.64C935.192 3259.6 949.76 3247.19 954.757 3235.24C959.67 3223.56 941.46 3238.63 946.415 3226.94C950.48 3217.33 965.768 3195.56 972.544 3185.31C1015.53 3120.35 1069.69 3063.98 1113.95 3000.07C1110.18 2994.39 1074.65 2931.2 1064.82 2941.03L1073.17 2960.09C1064.02 2973.89 1059.27 2959.54 1053.39 2958.52L937.945 3091.38L929.433 3087.06L870.271 3156.98C872.177 3134.49 889.032 3111.83 901.398 3092.9C939.766 3034.2 988.594 2981.14 1026.75 2922.1C960.983 2878.98 915.373 2815.88 865.867 2756.63C839.738 2760.91 741.573 2761.93 730.604 2735.58L743.224 2727.2L728.444 2712.37L642.688 2842.44C638.326 2892.33 652.005 2944.54 654.588 2993.76C658.315 3064.06 667.885 3215.81 650.014 3277.51C644.848 3295.38 625.706 3329.86 622.487 3347.26C621.048 3355.18 631.338 3360.27 627.188 3368.65C626.214 3370.6 603.007 3397.83 601.101 3398.21C594.368 3397.07 583.145 3386.57 580.604 3381.23C570.61 3360.14 557.948 3282.08 554.051 3255.36C537.112 3138.77 540.203 3020.52 540.161 2902.91C512.719 2920.02 418.238 3004.94 390.457 2999.43C384.571 2998.29 341.163 2919.77 334.896 2907.23C265.359 2768.32 252.061 2633.22 235.037 2482.03C232.115 2455.94 219.283 2421.25 218.478 2396.56C217.843 2376.44 239.102 2280.98 235.503 2276.11C218.013 2289.45 194.085 2295.68 176.595 2308.13C161.773 2318.63 147.967 2341.17 133.78 2350.1C121.076 2358.11 107.693 2351.33 98.0379 2369.24L104.39 2352.39C84.2745 2347.18 75.0424 2361.24 57.8911 2365.05V2348.11C38.8764 2357.05 39.1305 2343.24 43.7889 2327.7C51.6235 2301.44 112.437 2248.97 136.872 2234.52C166.686 2216.91 231.225 2193.82 254.179 2169.85C263.834 2159.77 320.709 2071.51 325.409 2058.94C327.019 2054.62 329.433 2050.8 328.374 2045.85C311.392 1980.33 294.368 1914.56 279.927 1848.45C274.548 1823.97 272.007 1779.29 263.029 1759.47C257.482 1747.23 258.286 1764.21 250.536 1764.21C235.037 1764.21 189.088 1745.79 175.24 1737.24C130.265 1709.45 90.4574 1547.25 80.209 1493.55C70.4687 1442.26 69.9182 1388.64 61.6178 1338.5C45.6522 1242.15 -21.1744 1138.68 138.227 1128.39C133.103 1106.96 132.002 1080.58 133.823 1058.39C134.543 1049.62 151.101 997.188 134.035 1003.41C95.4546 1031.03 21.2592 1029.76 1.90577 978.977C-4.53127 962.079 8.04637 911.3 14.7375 892.538C36.3778 831.637 98.4614 755.997 124.633 693.402C128.444 549.916 114.427 383.009 241.982 285.728C275.522 260.148 286.957 278.19 303.092 270.905C309.698 267.941 345.991 230.714 356.24 222.201C528.007 79.1807 635.107 -50.6685 885.94 21.6252C993.972 52.7534 1098.07 107.81 1200 154.058ZM195.906 1235.37C194.297 1232.83 187.902 1231.48 185.277 1227.2C177.739 1215.04 167.575 1188.74 152.033 1184.04C135.009 1178.88 96.1322 1188.02 96.7251 1209.96C97.0639 1222.29 109.472 1257.35 112.055 1274.93C126.242 1370.98 128.826 1470.97 157.157 1564.36C169.227 1604.17 191.079 1668.08 235.376 1678.71C221.104 1607.34 199.506 1537.72 182.482 1466.99C176.172 1440.78 175.833 1412.49 169.184 1387.12C158.47 1346.21 129.884 1305.51 146.57 1259.39L156.818 1263.83L161.35 1255.23L188.919 1306.01C196.542 1311.73 206.451 1251.8 195.906 1235.37ZM937.733 1860.82C935.785 1849.13 942.222 1813.85 933.625 1807.54L861.801 1814.48L857.312 1865.09L937.733 1860.86V1860.82ZM1013.62 1869.07C1019.93 1839.34 988.594 1815.92 963.142 1809.99L969.156 1869.54C976.271 1879.79 1002.48 1868.57 1013.62 1869.07ZM827.71 1873.52L834.529 1827.23L829.913 1818.68L755.76 1826.94L751.567 1873.52H827.71ZM734.585 1831.17C696.556 1824.99 670.13 1848.28 658.484 1881.95L729.969 1877.33L734.627 1831.17H734.585ZM675.042 2622.67C677.372 2619.33 672.374 2612.38 670.426 2609C610.714 2504.22 516.954 2412.32 453.557 2309.4L364.328 2148.81C348.405 2138.43 338.707 2160.79 333.922 2173.28C322.53 2202.8 297.84 2367.08 298.814 2400.67C301.186 2480.71 335.827 2633.3 361.11 2711.06C366.319 2727.07 404.009 2831.76 408.583 2837.18C421.16 2851.96 460.418 2819.86 474.351 2809.4C503.36 2787.55 536.138 2754.56 563.326 2729.1C600.635 2694.12 633.667 2651.94 675 2622.67H675.042ZM958.865 2496.13C940.867 2498.97 929.009 2513.03 911.561 2518.62C895.257 2523.87 830.929 2540.17 817.462 2538.31C815.175 2538.01 790.062 2530.48 788.749 2529.8C783.159 2526.92 783.498 2519.21 778.501 2517.6C770.92 2515.19 745.553 2523.36 732.849 2513.49C702.146 2550.76 749.619 2554.7 764.356 2570.07C772.53 2578.59 776.383 2601.2 781.042 2604.21C783.625 2605.9 811.533 2609.97 816.191 2609.5C829.531 2608.19 916.008 2543.05 931.254 2529.84C942.18 2520.35 953.106 2509.77 958.865 2496.09V2496.13Z" fill="#4E0000"/>
<path d="M1200 2182.69C1183.7 2132.42 1151.3 2081.72 1137.79 2031.11C1123.01 1975.8 1112.21 1907.28 1106.96 1850.19C1096.2 1733.47 1087.31 1632.42 1033.06 1526.03C999.393 1460.05 896.782 1296.61 835.884 1261.84C811.66 1248.03 792.9 1249.69 793.831 1282.51L875.099 1396.18L946.161 1572.78C903.854 1566.01 864.935 1630.93 829.701 1632.42C798.617 1633.73 774.436 1595.82 757.03 1590.61C728.275 1582.06 705.618 1604.46 679.743 1593.75C684.91 1554.95 709.43 1523.53 723.956 1488.08C765.839 1385.89 786.928 1264.59 797.982 1155.62C803.19 1104.08 796.626 1110.77 784.049 1068.04C772.869 1030.01 768.295 988.167 745.13 954.54C743.86 953.947 731.409 976.182 730.943 978.807C730.096 983.424 736.914 1066.35 717.73 1051.95L649.506 902.067L633.117 891.013C614.907 959.283 668.902 1019.42 658.399 1090.06L569.594 1022.34L578.021 1018.11C560.235 1011.42 530.548 993.673 512.168 992.91C504.165 992.572 495.991 997.23 487.267 997.061C445.172 996.256 383.047 985.88 344.213 993.588C316.897 999.009 324.393 1010.23 317.999 1026.62C312.747 1040.13 298.476 1046.36 313.806 1064.44C338.961 1094.09 384.91 1062.28 414.978 1060.21C432.934 1058.94 488.241 1065.97 458.216 1086.55C416.502 1115.14 391.008 1121.4 363.015 1169.09C334.642 1217.37 317.829 1263.62 395.37 1254.43C396.937 1248.08 396.302 1241.3 399.351 1235.24C407.905 1218.47 430.054 1173.33 440.302 1161.81C454.701 1145.63 509.204 1114.08 530.379 1112.04C561.717 1109.04 613.933 1149.27 640.147 1165.41C663.778 1179.98 693.083 1186.63 708.583 1211.57C708.879 1231.14 693.126 1242.4 679.193 1252.78C603.346 1309.32 554.56 1313.04 461.773 1314.65C428.783 1315.2 395.539 1304.66 368.521 1305.63C322.53 1307.28 378.303 1347.52 400.24 1344.17L387.578 1350.44C394.862 1358.87 405.915 1359.5 415.02 1365.43C420.737 1369.16 431.663 1381.86 432.849 1382.12C445.299 1384.83 455.633 1378.73 465.839 1378.82C476.045 1378.9 486.082 1383.18 499.591 1382.2C524.577 1380.43 556.593 1368.52 582.171 1365.31C569.34 1386.57 540.373 1397.83 524.831 1415.87C514.582 1427.73 476.934 1477.75 472.233 1490.28C467.744 1502.31 485.15 1486.56 480.576 1498.59C477.188 1507.48 467.279 1515.4 467.956 1526.16C471.302 1529.37 506.705 1513.49 513.142 1510.02C538.721 1496.17 591.107 1457.8 615.669 1439C638.622 1421.46 666.488 1395.33 679.574 1369.5C708.668 1370.39 688.975 1439.21 681.31 1453.86C676.821 1462.5 661.406 1472.79 654.207 1481.81C605.506 1542.97 584.289 1569.44 559.896 1645.76C542.914 1698.82 530.124 1753.67 520.299 1808.51L518.775 1975.08L535.926 1968.26C532.327 1934.17 542.279 1901.73 550.41 1869.16L632.99 1610.86C643.111 1608.53 639.808 1612.72 642.392 1616.41C661.491 1643.85 657.044 1656.98 694.142 1670.32C734.035 1684.63 739.371 1672.61 774.52 1670.02C833.978 1665.7 846.598 1687.3 909.148 1653.38C916.305 1649.48 925.41 1629.37 945.229 1637.03C955.816 1670.15 970.342 1656.09 988.298 1636.31C1001.38 1671.42 1009.09 1708.73 1009.47 1746.38C990.881 1735.8 974.916 1740.45 956.833 1737.74C946.372 1736.18 941.036 1728.47 927.527 1729.57C894.664 1732.28 850.071 1750.91 816.573 1754.43C759.486 1760.44 693.507 1748.12 647.177 1794.49C615.373 1826.3 566.756 1978.72 569.975 2023.23C573.659 2073.67 600.974 2105.69 653.402 2084.47C653.614 2062.11 663.058 2039.37 682.581 2026.92C763.044 2006 813.143 1984.61 896.146 2010.19C921.852 2018.11 1008.96 2060.67 1027.85 2055.59C1031.32 2054.66 1030.22 2046.65 1032.64 2047.04C1040.43 2048.35 1050.55 2060.71 1053.9 2068.21C1069.31 2103.24 1087.94 2181.33 1096.2 2220.68C1101.24 2244.73 1108.53 2253.58 1090.02 2273.83C1048.81 2318.85 1010.57 2342.61 952.386 2360.52C912.747 2372.76 818.097 2384.91 774.732 2387.88C722.6 2391.44 695.667 2373.9 656.282 2343.41C582.891 2286.53 474.393 2178.54 436.237 2093.58C381.48 1971.65 369.664 1846.76 334.684 1720.89C312.366 1640.59 281.578 1561.86 264.766 1479.48L254.052 1483.34L245.836 1475.33L239.314 1493.63L230.887 1494.31C244.015 1470.8 235.714 1446.07 237.536 1423.84C243.168 1355.61 261.463 1280.56 260.827 1210.77C260.573 1184.04 253.543 1156.09 252.146 1130.09C248.927 1069.86 252.696 1008.33 235.333 950.347C263.58 943.783 287.804 926.038 310.969 909.521C359.628 874.793 382.75 865.475 440.302 844.173C575.607 794.113 726.92 749.348 871.753 742.445C905.887 740.793 942.984 747.357 975.551 738.379C986.18 753.075 943.747 762.223 934.938 763.324C898.56 767.728 888.142 755.192 858.795 751.55C823.391 747.188 751.948 755.87 739.752 796.612C734.458 814.315 726.2 882.119 725.861 901.601C725.438 923.369 744.537 946.07 759.74 960.808C780.703 981.094 832.03 1004.09 844.565 1019.89C858.964 1038.01 852.315 1065.08 855.534 1084.77C859.303 1107.94 874.506 1131.48 878.106 1155.79C896.739 1166.34 913.806 1170.19 932.948 1185.52C960.94 1207.93 975.847 1245.07 1016.97 1247.53C1051.82 1310.46 1084.64 1379.11 1123.6 1439.38C1146.39 1474.61 1166.25 1500.24 1199.83 1526.11V1657.4C1159.05 1685.31 1190.51 1697.89 1194.92 1719.83C1198.52 1737.79 1180.65 1764.34 1199.83 1780.22V2182.56L1200 2182.69ZM562.056 1178.03C559.98 1176.33 546.641 1144.27 533.682 1141.86C509.246 1153 468.083 1190.78 467.871 1219.15C467.744 1235.33 483.075 1257.78 480.957 1276.2C528.134 1280.22 587.761 1275.27 607.665 1225.59L595.045 1229.82C596.358 1214.24 593.267 1189 577.809 1181.25C572.897 1178.79 564.766 1180.27 562.098 1178.07L562.056 1178.03ZM1002.44 1355.48C1011 1362.76 1022.98 1361.37 1025.95 1349.59C1027.81 1342.18 1018.11 1319.95 1013.79 1312.41C1005.32 1297.54 948.109 1224.19 935.785 1212.63C928.289 1205.64 885.898 1176.16 878.487 1183.2C877.598 1208.35 909.275 1220.59 925.028 1236.05C932.058 1242.95 948.744 1259.26 953.868 1266.29C971.231 1290.3 982.623 1338.58 1002.44 1355.44V1355.48ZM348.278 1540.26C347.346 1539.16 329.221 1525.27 328.501 1526.24C327.612 1541.87 342.73 1586.72 360.263 1585.41C376.228 1584.22 352.894 1545.6 348.32 1540.26H348.278ZM395.455 1607.56C381.098 1599.25 379.447 1623.1 379.023 1634.11C377.372 1676.29 416.756 1862.26 431.24 1908.29C437.423 1927.9 444.537 1947.51 459.613 1962.46C456.437 1943.15 463.001 1919.6 462.281 1901.77C460.249 1851.24 451.017 1680.82 425.861 1643.68C422.516 1638.73 415.443 1640.5 411.166 1636.35C406.465 1631.82 398.377 1609.21 395.497 1607.56H395.455ZM659.966 2164.18C699.393 2185.9 726.581 2151.94 759.063 2141.52C832.538 2117.97 888.354 2135.46 954.546 2159.48C1002.4 2176.84 1024.93 2169.47 988.382 2121.4C938.199 2055.38 829.828 2050.93 755.844 2070.5C729.503 2077.49 706.508 2094.85 688.34 2100.36C678.303 2103.36 667.547 2100.44 658.442 2104.42C647.727 2109.08 654.8 2117.63 653.106 2124.28C649.125 2139.66 636.378 2151.13 660.009 2164.18H659.966ZM485.023 2068.34C483.498 2097.01 487.183 2134.58 501.073 2160.24C507.849 2172.78 529.235 2190.01 540.669 2201.07C570.102 2229.57 558.414 2172.9 551.595 2156.26C547.318 2145.84 516.53 2092.48 509.797 2083.75C507.002 2080.11 488.368 2064.53 485.023 2068.34ZM827.668 2220.85C813.397 2202.97 745.3 2241.72 743.775 2248.71C740.048 2265.91 750.466 2268.79 764.484 2265.53C786.929 2260.27 822.713 2246.13 827.711 2220.85H827.668Z" fill="white"/>
<path d="M1200 526.749C963.608 493.377 729.842 467.627 492.688 511.122C383.936 531.069 275.988 560.08 203.656 649.526C201.496 626.487 204.037 586.888 212.38 565.077C216.022 555.548 230.717 541.445 237.154 530.603C279.249 459.834 316.474 388.345 370.892 325.665C439.582 246.553 612.874 77.3595 720.102 74.0561C722.092 74.0137 721.457 81.2982 724.718 81.9758C760.587 89.8531 814.54 86.0415 849.097 92.3942C883.696 98.7893 960.729 129.918 995.582 144.783C1065.75 174.683 1131.9 217.458 1200.04 251.381V289.497L925.198 193.953L878.444 198.442L1159.81 336.253C1156.85 357.09 1182.89 368.864 1200.04 374.2V526.665L1200 526.749ZM633.075 251.508C616.813 255.447 595.765 258.157 580.816 264.806C559.049 274.505 508.823 311.181 486.124 326.724C419.467 372.421 344.212 427.224 297.12 493.292C294.368 497.146 282.891 510.783 286.152 514.044L317.871 497.146L322.022 509.809L633.032 251.551L633.075 251.508Z" fill="white"/>
<path d="M1200 628.393V666.509C1150.96 652.491 1096.8 632.035 1045.72 628.223C924.732 619.245 755.844 616.069 635.023 623.988C540.627 630.172 484.684 667.06 406 712.375C340.02 750.365 274.633 791.488 214.582 838.413C173.631 870.431 130.35 918.965 89.3988 946.028C85.3757 948.696 74.9578 954.922 70.3418 952.338C119.594 881.611 156.056 803.304 207.807 734.186C302.88 658.928 405.322 577.741 527.287 550C570.906 540.09 616.135 543.86 660.771 543.521C776.553 542.631 962.253 542.885 1072.19 576.385C1116.11 589.768 1154.31 619.584 1200.04 628.393H1200Z" fill="white"/>
<path d="M1200 1433.07C1173.49 1387.24 1163.41 1335.15 1146.17 1285.81C1120.09 1211.15 1112.38 1167.65 1058.34 1106.92C1026.62 1071.26 968.182 1007.52 933.541 977.749C907.581 955.43 791.756 896.985 783.329 878.223C779.179 868.948 781.508 858.318 781.127 848.62C828.939 844.088 873.702 859.335 919.989 868.482C939.004 872.209 982.115 872.463 993.93 882.247C1001.3 888.388 1000.66 903.422 1009.94 913.968C1027.68 934.169 1070.96 948.823 1093.96 965.382C1106.71 974.573 1140.75 1002.78 1151.55 1013.62C1172.09 1034.2 1182.09 1063.38 1200 1085.79V1102.73L1159.81 1056.23C1157.35 1056.23 1144.95 1087.06 1144.61 1092.14C1142.96 1116.83 1185.9 1188.87 1200 1212.84V1433.07ZM1032.09 1008.24C1034.97 1010.36 1067.32 1024.38 1070.92 1024.5C1080.36 1024.84 1115.64 1015.23 1115.64 1003.2C1115.64 991.174 1096.29 989.65 1087.82 984.186C1082.4 980.713 1078.37 971.862 1073 969.363C1053.64 960.385 1033.53 980.163 1013.88 971.439C1009.35 976.436 1027.26 1004.68 1032.09 1008.24Z" fill="white"/>
<path d="M1200 2500.32C1178.19 2526.24 1152.36 2556.69 1134.78 2585.41C1110.73 2624.66 1102.22 2670.28 1072.83 2705.89L1088.2 2724.57C1135.29 2703.57 1166.21 2660.2 1200 2623.18V2873.06C1164.94 2876.82 1155.96 2848.75 1131.95 2828.93C1068.85 2776.92 979.235 2738.67 921.09 2688.49C917.152 2685.06 911.392 2682.43 912.239 2676.16C1024.21 2604.42 1109.71 2503.03 1199.96 2407.19V2500.36L1200 2500.32Z" fill="white"/>
<path d="M1200 289.582V374.285C1182.89 368.991 1156.85 357.175 1159.77 336.338L878.402 198.527L925.156 194.038L1200 289.582Z" fill="#4E0000"/>
<path d="M1200 776.622V890.971C1165.32 866.704 1147.87 818.677 1106.79 804.278C1080.15 794.918 1051.95 795.003 1030.82 770.27L1043.39 759.724L1012.48 755.531C1002.32 744.351 1004.73 739.904 1019.93 738.252C1052.46 734.737 1088.54 743.504 1117.67 742.953C1126.23 742.784 1131.1 735.626 1136.82 736.092C1150.96 737.236 1184.16 770.27 1199.92 776.58L1200 776.622Z" fill="white"/>
<path d="M1200 2623.14C1166.21 2660.2 1135.33 2703.57 1088.2 2724.53L1072.83 2705.85C1102.22 2670.24 1110.73 2624.62 1134.78 2585.36C1152.36 2556.65 1178.19 2526.2 1200 2500.28V2623.1V2623.14Z" fill="black"/>
<path d="M1200 1102.73V1212.84C1185.9 1188.83 1142.91 1116.79 1144.61 1092.14C1144.95 1087.1 1157.35 1056.23 1159.81 1056.23L1200 1102.73Z" fill="#4E0000"/>
<path d="M1200 1780.35C1180.77 1764.47 1198.69 1737.91 1195.09 1719.96C1190.68 1698.02 1159.22 1685.48 1200 1657.53V1780.35Z" fill="black"/>
<path d="M112.648 2597.73L129.884 2644.23L138.015 2640.08C129.715 2654.65 152.075 2662.99 150.804 2682.39L159.274 2657.02C165.711 2652.19 201.115 2752.48 205.011 2761.5C253.839 2873.82 305.929 2980.25 342.264 3098.45C345.864 3110.18 361.829 3158.04 358.018 3165.24C354.207 3164.05 348.32 3156.17 349.633 3167.23C352.004 3187.13 371.527 3213.9 370.723 3237.19L345.313 3190.65L336.843 3192.81C342.391 3197.09 339.257 3207.97 334.811 3207.46C327.993 3206.7 275.268 3102.68 268.492 3087.56C210.982 2958.9 128.444 2775.27 112.182 2638.39C111.801 2635.17 97.4024 2581.13 112.648 2597.64V2597.73Z" fill="#4E0000"/>
<path d="M831.734 3046.48L763.933 3022.6C749.492 2980.12 749.704 2938.11 755.844 2894.19L766.305 2902.57C799.803 2868.65 834.021 2834.22 885.729 2859.38C924.309 2878.14 929.221 2921.55 914.484 2957.72C903.049 2985.71 886.322 3011.33 859.049 3025.01C846.005 3031.58 830.336 3025.94 831.776 3046.48H831.734Z" fill="#4E0000"/>
<path d="M675.042 2622.67C633.71 2651.94 600.678 2694.16 563.368 2729.1C536.18 2754.6 503.36 2787.59 474.393 2809.4C460.503 2819.86 421.203 2851.96 408.625 2837.18C404.051 2831.81 366.361 2727.07 361.152 2711.06C335.827 2633.26 301.228 2480.71 298.857 2400.67C297.84 2367.08 322.572 2202.8 333.964 2173.28C338.792 2160.79 348.49 2138.43 364.37 2148.81L453.6 2309.4C516.954 2412.32 610.714 2504.22 670.469 2608.99C672.417 2612.38 677.414 2619.33 675.085 2622.67H675.042ZM514.582 2593.49C515.26 2592.99 518.944 2579.98 516.784 2576.85C486.844 2526.2 452.541 2472.45 429.249 2418.5C410.658 2375.43 394.396 2296.7 373.899 2262.14C370.13 2255.78 366.954 2249.05 358.06 2250.49L370.807 2328.76L362.549 2328.46C363.269 2343.07 374.576 2355.18 379.15 2367C383.724 2378.82 368.351 2363.15 370.723 2375.34C375.381 2399.19 414.173 2490.03 429.757 2506C433.484 2509.81 439.624 2507.52 442.928 2511.5C453.007 2523.61 462.747 2561.22 476.299 2574.65C480.152 2578.46 510.559 2596.37 514.54 2593.49H514.582Z" fill="white"/>
<path d="M195.906 1235.37C206.409 1251.8 196.541 1311.73 188.919 1306.01L161.349 1255.23L156.818 1263.83L146.57 1259.39C129.884 1305.51 158.47 1346.21 169.184 1387.12C175.833 1412.53 176.129 1440.78 182.482 1466.99C199.506 1537.72 221.146 1607.3 235.375 1678.71C191.078 1668.12 169.226 1604.17 157.157 1564.36C128.825 1470.97 126.242 1370.98 112.055 1274.93C109.472 1257.39 97.0214 1222.29 96.725 1209.96C96.1321 1188.02 135.008 1178.88 152.033 1184.04C167.575 1188.74 177.739 1215.04 185.277 1227.2C187.945 1231.48 194.297 1232.83 195.906 1235.37Z" fill="white"/>
<path d="M958.865 2496.13C953.148 2509.81 942.222 2520.4 931.253 2529.88C916.008 2543.1 829.531 2608.23 816.191 2609.55C811.491 2610.01 783.625 2605.95 781.042 2604.25C776.426 2601.24 772.53 2578.63 764.356 2570.12C749.619 2554.74 702.103 2550.8 732.849 2513.54C745.596 2523.4 770.92 2515.23 778.501 2517.64C783.498 2519.25 783.159 2526.96 788.749 2529.84C790.104 2530.52 815.175 2538.01 817.462 2538.35C830.929 2540.22 895.214 2523.91 911.561 2518.66C929.009 2513.07 940.867 2499.01 958.865 2496.17V2496.13Z" fill="white"/>
<path d="M937.733 1860.82L857.312 1865.05L861.801 1814.44L933.625 1807.5C942.265 1813.81 935.785 1849.13 937.733 1860.77V1860.82Z" fill="white"/>
<path d="M827.71 1873.52H751.524L755.759 1826.89L829.87 1818.63L834.528 1827.19L827.71 1873.52Z" fill="white"/>
<path d="M734.585 1831.17L729.926 1877.33L658.441 1881.95C670.087 1848.28 696.555 1824.99 734.542 1831.17H734.585Z" fill="white"/>
<path d="M1013.62 1869.07C1002.53 1868.57 976.271 1879.79 969.156 1869.54L963.143 1809.99C988.594 1815.92 1019.97 1839.34 1013.62 1869.07Z" fill="white"/>
<path d="M659.966 2164.18C636.335 2151.13 649.082 2139.66 653.063 2124.28C654.8 2117.64 647.727 2109.08 658.399 2104.42C667.504 2100.44 678.218 2103.41 688.298 2100.36C706.465 2094.89 729.461 2077.49 755.802 2070.5C829.785 2050.89 938.156 2055.38 988.34 2121.4C1024.89 2169.47 1002.36 2176.84 954.503 2159.48C888.312 2135.46 832.538 2117.97 759.02 2141.52C726.539 2151.94 699.351 2185.91 659.924 2164.18H659.966Z" fill="#4E0000"/>
<path d="M395.455 1607.56C398.377 1609.25 406.466 1631.82 411.124 1636.35C415.401 1640.5 422.473 1638.68 425.819 1643.68C450.974 1680.82 460.206 1851.24 462.239 1901.77C462.959 1919.64 456.395 1943.15 459.571 1962.46C444.537 1947.55 437.38 1927.9 431.197 1908.29C416.714 1862.26 377.329 1676.29 378.981 1634.11C379.405 1623.1 381.056 1599.21 395.412 1607.56H395.455Z" fill="#4E0000"/>
<path d="M562.055 1178.03C564.723 1180.23 572.854 1178.75 577.767 1181.2C593.224 1188.91 596.316 1214.2 595.003 1229.78L607.623 1225.55C587.719 1275.22 528.092 1280.18 480.915 1276.16C483.032 1257.73 467.744 1235.29 467.829 1219.11C468.041 1190.73 509.204 1152.96 533.639 1141.82C546.598 1144.27 559.938 1176.29 562.013 1177.99L562.055 1178.03Z" fill="#4E0000"/>
<path d="M1002.44 1355.48C982.665 1338.62 971.273 1290.34 953.868 1266.33C948.744 1259.26 932.058 1243 925.028 1236.09C909.232 1220.63 877.597 1208.39 878.487 1183.24C885.855 1176.21 928.289 1205.68 935.785 1212.67C948.151 1224.19 1005.36 1297.59 1013.79 1312.45C1018.07 1319.99 1027.81 1342.18 1025.95 1349.64C1022.98 1361.37 1011 1362.76 1002.44 1355.52V1355.48Z" fill="black"/>
<path d="M485.023 2068.34C488.368 2064.48 507.002 2080.07 509.797 2083.75C516.53 2092.48 547.318 2145.84 551.595 2156.26C558.413 2172.95 570.102 2229.57 540.669 2201.07C529.235 2189.97 507.849 2172.73 501.073 2160.24C487.182 2134.58 483.498 2097.01 485.023 2068.34Z" fill="#4E0000"/>
<path d="M827.668 2220.84C822.713 2246.13 786.886 2260.27 764.441 2265.53C750.423 2268.83 740.006 2265.91 743.732 2248.71C745.257 2241.72 813.354 2202.97 827.625 2220.84H827.668Z" fill="#4E0000"/>
<path d="M348.278 1540.26C352.894 1545.64 376.186 1584.22 360.22 1585.41C342.73 1586.72 327.569 1541.87 328.459 1526.24C329.179 1525.27 347.304 1539.16 348.236 1540.26H348.278Z" fill="#4E0000"/>
<path d="M633.074 251.508L322.064 509.767L317.913 497.104L286.194 514.002C282.933 510.783 294.452 497.104 297.162 493.25C344.212 427.224 419.509 372.379 486.166 326.682C508.823 311.139 559.048 274.463 580.858 264.764C595.807 258.115 616.855 255.404 633.117 251.466L633.074 251.508Z" fill="#4E0000"/>
<path d="M1032.09 1008.24C1027.3 1004.68 1009.35 976.478 1013.88 971.438C1033.53 980.163 1053.68 960.385 1073 969.363C1078.37 971.862 1082.4 980.713 1087.82 984.186C1096.29 989.607 1115.64 991.64 1115.64 1003.2C1115.64 1014.76 1080.36 1024.84 1070.92 1024.5C1067.32 1024.38 1034.97 1010.36 1032.09 1008.24Z" fill="#4E0000"/>
<path d="M514.582 2593.49C510.559 2596.37 480.195 2578.46 476.341 2574.65C462.747 2561.22 453.049 2523.66 442.97 2511.5C439.667 2507.52 433.526 2509.81 429.799 2506C414.215 2490.03 375.466 2399.19 370.765 2375.34C368.351 2363.1 383.935 2379.2 379.192 2367C374.449 2354.8 363.311 2343.07 362.592 2328.46L370.85 2328.76L358.103 2250.49C366.996 2249.05 370.172 2255.78 373.941 2262.14C394.438 2296.7 410.7 2375.43 429.291 2418.5C452.583 2472.45 486.843 2526.2 516.826 2576.85C518.986 2579.98 515.302 2593.03 514.624 2593.49H514.582Z" fill="black"/>
</svg>
