<svg width="74" height="85" viewBox="0 0 74 85" fill="none" xmlns="http://www.w3.org/2000/svg">
<path d="M73.2007 74.8193C73.2007 75.168 73.1813 75.6328 73.1426 76.2139C73.1038 76.7949 72.9102 77.1823 72.5615 77.376C72.1742 77.5697 71.9224 77.8989 71.8062 78.3638C71.7287 78.8286 71.6899 79.2935 71.6899 79.7583C71.6899 80.2231 71.6706 80.6493 71.6318 81.0366C71.5931 81.3853 71.4382 81.5596 71.167 81.5596C70.9733 81.5596 70.8184 81.5208 70.7021 81.4434C70.5859 81.3271 70.431 81.269 70.2373 81.269C70.0436 81.269 69.8499 81.3659 69.6562 81.5596C69.4626 81.7533 69.3657 81.9469 69.3657 82.1406C69.3657 82.3343 69.4238 82.4893 69.54 82.6055C69.695 82.6829 69.7725 82.8185 69.7725 83.0122C69.7725 83.1672 69.4819 83.3608 68.9009 83.5933C68.3198 83.7869 67.6613 83.9806 66.9253 84.1743C66.1893 84.4067 65.4727 84.5811 64.7754 84.6973C64.0781 84.8522 63.6133 84.9297 63.3809 84.9297C61.9863 84.9297 60.5918 84.6779 59.1973 84.1743C57.8027 83.6707 56.4469 83.2059 55.1299 82.7798C53.5417 82.2375 52.3602 81.3465 51.5854 80.1069C50.8494 78.8674 50.3071 77.4728 49.9585 75.9233C49.6099 74.3739 49.3387 72.7856 49.145 71.1587C48.9901 69.5317 48.6802 68.0791 48.2153 66.8008C48.0216 66.2197 47.9248 65.7355 47.9248 65.3481C47.9248 64.9608 47.9635 64.6509 48.041 64.4185C48.1572 64.1473 48.2734 63.9342 48.3896 63.7793C48.5446 63.5856 48.6608 63.4307 48.7383 63.3145C48.8545 63.1595 48.9126 63.0046 48.9126 62.8496C48.9126 62.3848 48.777 61.9199 48.5059 61.4551C48.2347 60.9902 48.0991 60.3704 48.0991 59.5957C48.0991 59.1696 48.0991 58.7629 48.0991 58.3755C48.1379 57.9494 48.1572 57.5233 48.1572 57.0972C48.1572 55.6639 48.0216 54.4824 47.7505 53.5527C47.5181 52.623 47.1694 51.7708 46.7046 50.9961C46.2785 50.2214 45.7555 49.4466 45.1357 48.6719C44.5547 47.8971 43.8962 46.9674 43.1602 45.8828C42.8115 45.9603 42.4435 45.999 42.0562 45.999C41.7075 45.999 41.3395 45.999 40.9521 45.999C40.1774 45.999 39.4027 45.9603 38.6279 45.8828C37.8919 45.8053 37.1366 45.7666 36.3618 45.7666C35.5483 45.7666 34.7155 45.8441 33.8633 45.999C33.0498 46.154 32.217 46.2314 31.3647 46.2314C30.8224 46.2314 30.2801 46.154 29.7378 45.999C29.1955 45.8053 28.6532 45.7085 28.1108 45.7085C27.4523 45.7085 26.7938 45.8441 26.1353 46.1152C25.4767 46.3477 24.8763 46.6963 24.334 47.1611C23.7917 47.5872 23.3462 48.1102 22.9976 48.73C22.6877 49.311 22.5327 49.9502 22.5327 50.6475V52.5068C22.5327 55.877 22.2422 59.189 21.6611 62.4429C21.5837 62.9465 21.5062 63.45 21.4287 63.9536C21.3512 64.4185 21.3125 64.922 21.3125 65.4644C21.3125 67.0526 21.6224 68.3309 22.2422 69.2993C22.9007 70.2677 23.6948 71.0618 24.6245 71.6816C25.5542 72.2627 26.5807 72.7469 27.7041 73.1343C28.8275 73.5216 29.854 73.9284 30.7837 74.3545C31.7134 74.7419 32.4881 75.2261 33.1079 75.8071C33.7664 76.3882 34.0957 77.1823 34.0957 78.1895C34.0957 78.5768 34.0182 78.9448 33.8633 79.2935C33.7471 79.6034 33.5921 79.9132 33.3984 80.2231C32.8949 81.0366 32.4106 81.6564 31.9458 82.0825C31.5197 82.4699 31.0355 82.7798 30.4932 83.0122C29.9896 83.2446 29.4279 83.4189 28.8081 83.5352C28.1883 83.6514 27.4523 83.8063 26.6001 84C25.9416 84.1549 25.2443 84.2518 24.5083 84.2905C23.811 84.368 23.1138 84.4067 22.4165 84.4067C21.3319 84.4067 20.2666 84.2712 19.2207 84C18.1748 83.7676 17.1095 83.6514 16.0249 83.6514C15.2114 83.6514 14.3786 83.7288 13.5264 83.8838C12.7129 84 11.8994 84.1356 11.0859 84.2905C10.2725 84.4842 9.45898 84.6392 8.64551 84.7554C7.83203 84.9103 7.01855 84.9878 6.20508 84.9878C5.66276 84.9878 5.06234 84.9297 4.40381 84.8135C3.78402 84.6973 3.20296 84.4842 2.66064 84.1743C2.11833 83.9032 1.65348 83.5352 1.26611 83.0703C0.91748 82.6055 0.743164 82.0438 0.743164 81.3853C0.743164 80.8429 0.878743 80.3587 1.1499 79.9326C1.42106 79.5065 1.76969 79.1385 2.1958 78.8286C2.66064 78.5187 3.14486 78.2669 3.64844 78.0732C4.15202 77.8796 4.63623 77.7633 5.10107 77.7246C5.52718 77.6859 5.87581 77.6665 6.14697 77.6665C6.45687 77.6665 6.70866 77.6278 6.90234 77.5503C7.13477 77.4728 7.36719 77.3566 7.59961 77.2017C7.83203 77.0467 8.10319 76.8143 8.41309 76.5044C8.60677 76.3107 8.78109 76.1558 8.93604 76.0396C9.12972 75.9233 9.36214 75.8652 9.6333 75.8652C9.82699 75.8652 10.0207 75.8846 10.2144 75.9233C10.408 75.9621 10.6017 75.9814 10.7954 75.9814C11.1053 75.9814 11.4152 75.8846 11.7251 75.6909C12.5386 75.2261 13.1196 74.6257 13.4683 73.8896C13.8169 73.1536 14.0493 72.3595 14.1655 71.5073C14.2817 70.6164 14.3398 69.7061 14.3398 68.7764C14.3786 67.8467 14.4948 66.9945 14.6885 66.2197C14.8822 65.3675 14.979 64.5734 14.979 63.8374C14.979 62.4816 14.8047 61.1452 14.4561 59.8281C14.1462 58.5111 13.9912 57.1746 13.9912 55.8188C13.9912 54.1919 14.1074 52.5649 14.3398 50.938C14.5723 49.311 14.6885 47.6841 14.6885 46.0571C14.6885 45.631 14.6691 45.2243 14.6304 44.8369C14.6304 44.4495 14.6304 44.0428 14.6304 43.6167C14.6304 40.8276 14.8047 38.0773 15.1533 35.3657C15.502 32.6541 15.6763 29.9038 15.6763 27.1147C15.6763 26.34 15.6569 25.5846 15.6182 24.8486C15.5794 24.1126 15.5213 23.3573 15.4438 22.5825C15.3664 21.9627 15.2889 21.2074 15.2114 20.3164C15.134 19.3867 15.0177 18.4377 14.8628 17.4692C14.7078 16.5008 14.4948 15.5324 14.2236 14.564C13.9912 13.5955 13.6426 12.7433 13.1777 12.0073C12.7516 11.2326 12.2093 10.6128 11.5508 10.1479C10.931 9.64437 10.1756 9.39258 9.28467 9.39258C9.09098 9.39258 8.87793 9.41195 8.64551 9.45068C8.45182 9.48942 8.25814 9.50879 8.06445 9.50879C7.63835 9.50879 7.28971 9.39258 7.01855 9.16016C6.7474 8.889 6.53434 8.5791 6.37939 8.23047C6.22445 7.8431 6.10824 7.43636 6.03076 7.01025C5.99202 6.58415 5.97266 6.21615 5.97266 5.90625C5.97266 4.58919 6.30192 3.62077 6.96045 3.00098C7.65771 2.38118 8.49056 1.95508 9.45898 1.72266C10.4661 1.49023 11.5314 1.39339 12.6548 1.43213C13.8169 1.43213 14.8434 1.39339 15.7344 1.31592C16.7415 1.23844 17.7293 1.06413 18.6978 0.792969C19.7049 0.52181 20.7314 0.38623 21.7773 0.38623C23.2881 0.38623 24.7795 0.579915 26.2515 0.967285C27.7235 1.35465 29.2148 1.54834 30.7256 1.54834C31.9652 1.54834 33.166 1.4515 34.3281 1.25781C35.4902 1.02539 36.6523 0.715495 37.8145 0.328125C38.3955 0.13444 38.9185 0.0375977 39.3833 0.0375977C40.894 0.0375977 42.3854 0.231283 43.8574 0.618652C45.3294 1.00602 46.8014 1.23844 48.2734 1.31592C49.2806 1.39339 50.3265 1.58708 51.4111 1.89697C52.4958 2.16813 53.5029 2.57487 54.4326 3.11719C55.401 3.62077 56.2339 4.2793 56.9312 5.09277C57.6284 5.90625 58.0739 6.85531 58.2676 7.93994C58.3838 8.59847 58.6549 9.23763 59.0811 9.85742C59.5072 10.4385 59.9526 10.9808 60.4175 11.4844C60.9211 11.9492 61.3472 12.3947 61.6958 12.8208C62.0832 13.2082 62.2769 13.5374 62.2769 13.8086C62.2769 14.0798 62.1413 14.2928 61.8701 14.4478C61.6377 14.564 61.5215 14.777 61.5215 15.0869C61.5215 15.2806 61.6377 15.4937 61.8701 15.7261C62.1413 15.9585 62.4318 16.2297 62.7417 16.5396C63.0516 16.8494 63.3228 17.1981 63.5552 17.5854C63.8263 17.9341 63.9619 18.3215 63.9619 18.7476C63.9619 19.3286 63.7682 19.8516 63.3809 20.3164C63.0322 20.7425 62.8579 21.2461 62.8579 21.8271L62.9741 22.0015L63.7876 21.769L63.9038 21.8853C64.0588 22.505 64.1169 23.1636 64.0781 23.8608C64.0781 24.5194 64.0781 25.1198 64.0781 25.6621C64.0781 26.3981 64.0588 27.2116 64.02 28.1025C63.9813 28.9935 63.8844 29.8651 63.7295 30.7173C63.5745 31.5695 63.3421 32.3636 63.0322 33.0996C62.7223 33.8356 62.2769 34.4167 61.6958 34.8428C61.3472 35.1139 60.9792 35.327 60.5918 35.4819C60.2432 35.5981 59.8945 35.7531 59.5459 35.9468C59.1973 36.1017 58.8874 36.3148 58.6162 36.5859C58.3451 36.8571 58.132 37.2251 57.9771 37.6899C57.7834 38.3485 57.4541 38.9683 56.9893 39.5493C56.5244 40.1304 56.0402 40.7114 55.5366 41.2925C55.0718 41.8348 54.6457 42.3965 54.2583 42.9775C53.9097 43.5586 53.7354 44.1978 53.7354 44.895C53.7354 46.0184 53.9871 47.0643 54.4907 48.0327C55.033 49.0011 55.5173 49.9889 55.9434 50.9961C56.3695 52.042 56.6794 53.1073 56.873 54.1919C57.0667 55.2378 57.2023 56.3031 57.2798 57.3877C57.396 58.4723 57.4735 59.557 57.5122 60.6416C57.5897 61.7262 57.7059 62.8109 57.8608 63.8955C57.9383 64.3604 58.1126 65.1351 58.3838 66.2197C58.6937 67.2656 59.0617 68.3309 59.4878 69.4155C59.9139 70.5002 60.3981 71.4492 60.9404 72.2627C61.4827 73.0762 62.0444 73.4829 62.6255 73.4829C63.1291 73.4829 63.5358 73.2118 63.8457 72.6694C64.1556 72.1271 64.4461 71.5073 64.7173 70.8101C65.0272 70.1128 65.3564 69.4349 65.7051 68.7764C66.0924 68.1178 66.596 67.6724 67.2158 67.4399C68.4167 67.5562 69.4045 67.7886 70.1792 68.1372C70.9927 68.4858 71.6125 68.9701 72.0386 69.5898C72.4647 70.1709 72.7552 70.9069 72.9102 71.7979C73.1038 72.6501 73.2007 73.6572 73.2007 74.8193ZM55.8271 21.3623C55.8271 20.82 55.7109 20.2002 55.4785 19.5029C55.2461 18.7669 54.9556 18.0309 54.6069 17.2949C54.2583 16.5589 53.8709 15.8617 53.4448 15.2031C53.0575 14.5446 52.6701 14.0023 52.2827 13.5762C51.4692 13.5762 50.9269 13.5181 50.6558 13.4019C50.3846 13.2856 50.2103 13.1501 50.1328 12.9951C50.0553 12.8014 49.9585 12.5884 49.8423 12.356C49.7648 12.1235 49.4937 11.8911 49.0288 11.6587C47.673 11.0002 46.4528 10.4966 45.3682 10.1479C44.2835 9.79932 42.9858 9.625 41.4751 9.625C41.049 9.625 40.6229 9.74121 40.1968 9.97363C39.8094 10.2061 39.4608 10.3223 39.1509 10.3223C38.2599 10.3223 37.3883 10.2254 36.5361 10.0317C35.6839 9.79932 34.8123 9.68311 33.9214 9.68311C32.6431 9.68311 31.326 9.83805 29.9702 10.1479C29.0793 10.3804 28.1883 10.5934 27.2974 10.7871C26.4064 10.9808 25.6123 11.2713 24.915 11.6587C24.2178 12.0461 23.6367 12.569 23.1719 13.2275C22.7458 13.8861 22.5327 14.7964 22.5327 15.9585C22.5327 17.1593 22.6489 18.3408 22.8813 19.5029C23.1525 20.665 23.2881 21.8465 23.2881 23.0474C23.2881 23.6284 23.1912 24.1901 22.9976 24.7324C22.8426 25.2747 22.6683 25.8171 22.4746 26.3594C22.2809 26.863 22.0872 27.3859 21.8936 27.9282C21.7386 28.4705 21.6611 29.0322 21.6611 29.6133C21.6611 30.3105 21.7192 31.0272 21.8354 31.7632C21.9904 32.4604 22.2422 33.0996 22.5908 33.6807C22.9395 34.223 23.3849 34.6685 23.9272 35.0171C24.5083 35.3657 25.2249 35.54 26.0771 35.54C26.8906 35.54 27.6654 35.3851 28.4014 35.0752C29.1374 34.7266 29.9121 34.5522 30.7256 34.5522C31.1517 34.5522 31.5584 34.6685 31.9458 34.9009C32.3332 35.0946 32.7205 35.3076 33.1079 35.54C33.4953 35.7725 33.902 36.0049 34.3281 36.2373C34.7542 36.431 35.2191 36.5278 35.7227 36.5278C36.11 36.5278 36.478 36.4891 36.8267 36.4116C37.1753 36.2954 37.5046 36.1598 37.8145 36.0049C39.2865 35.3464 40.8359 34.7653 42.4629 34.2617C44.1286 33.7194 45.7749 33.4482 47.4019 33.4482C47.828 33.4482 48.3315 33.2158 48.9126 32.751C49.4937 32.2474 50.0941 31.6276 50.7139 30.8916C51.3337 30.1169 51.9535 29.284 52.5732 28.3931C53.193 27.4634 53.7354 26.5531 54.2002 25.6621C54.7038 24.7324 55.0911 23.8996 55.3623 23.1636C55.6722 22.3888 55.8271 21.7884 55.8271 21.3623Z" fill="white"/>
</svg>
