<svg width="535" height="677" viewBox="0 0 535 677" fill="none" xmlns="http://www.w3.org/2000/svg">
<path d="M472 290.507C480.4 293.707 518.167 355.173 536 385.507V676.507C493.167 579.507 398 388.107 360 398.507C312.5 411.507 174.5 396.507 162.5 385.507C152.9 376.707 86.8333 367.173 55 363.507C52.6667 361.173 48.3 355.007 49.5 349.007C51 341.507 71.5 327.507 82 325.507C92.5 323.507 113.5 326.007 123 330.507C132.5 335.007 179 323.507 184 321.007C189 318.507 208.5 269.507 208 260.507C207.6 253.307 182.167 223.84 169.5 210.007C149.333 197.507 107.4 173.707 101 178.507C93 184.507 35 200.507 18.5 196.507C5.29999 193.307 0.666687 179.174 0 172.507C35 159.007 106.7 131.607 113.5 130.007C122 128.007 153.5 139.507 179 146.507C179.5 137.007 134 103.007 109 91.5068C84 80.0068 31 48.5068 28.5 37.5068C26.5 28.7068 32 18.8402 35 15.0068C110.167 58.1735 262.9 144.907 272.5 146.507C284.5 148.507 461.5 286.507 472 290.507Z" fill="#740001"/>
<path d="M210 28.0068C213.6 30.0068 250.5 107.84 268.5 146.507C252.167 138.84 219.6 122.707 220 119.507C220.5 115.507 195.5 49.0068 194.5 41.0068C193.5 33.0068 205.5 25.5068 210 28.0068Z" fill="#740001"/>
<path d="M103.5 0.00672267C109.1 -0.793277 165.5 70.0067 193 105.507L111 59.5068C105 51.3402 92.6 33.5068 91 27.5068C89 20.0068 96.5 1.00672 103.5 0.00672267Z" fill="#740001"/>
</svg>
