<svg width="1799" height="2985" viewBox="0 0 1799 2985" fill="none" xmlns="http://www.w3.org/2000/svg">
<path d="M1496.62 1069.5L1433.68 1139.3L1457.36 1282.62L1416.24 1481.41L1310.3 1693.29L1238.01 1869.02L1160.74 2041.64L1238.01 2217.37L1348.93 2509.63L1411.25 2607.47L1607.55 2465.39V2336.39L1519.06 2111.43L1627.49 1750L1687.31 1538.12L1734.05 1316.28L1687.31 1171.08L1627.49 941.755L1562.06 893.148L1507.84 1014.66L1519.06 1117.49L1496.62 1069.5Z" fill="#D9D9D9"/>
<path d="M393.625 904.988H353.743L204.184 1111.88L226.617 1421.59L286.441 1761.21L373.684 2023.57L226.617 2265.98L434.131 2530.2L670.933 2003.62L566.241 1654.03L471.521 1421.59L493.954 1212.21V1091.94L471.521 1054.55L393.625 1111.88L406.712 1002.2L393.625 904.988Z" fill="#D9D9D9"/>
<path d="M448.463 691.866L427.276 989.738L478.998 1077.6L498.316 1179.18L478.998 1347.43L524.489 1467.7L637.905 1898.31L753.813 2050.36H1035.48L1180.06 1998.02L1285.99 1763.71L1376.35 1564.92L1421.22 1543.73L1456.74 1375.48L1442.41 1259.57L1421.22 1143.66L1508.46 1077.6V947.363V795.935L1456.74 691.866L1193.77 556.64L907.735 476.252L715.8 530.467L448.463 691.866Z" fill="white"/>
<path d="M1720.04 2411.49C1725.33 2447.81 1753.38 2471.54 1768.25 2502.64C1784.76 2537.2 1782.69 2575.27 1798.56 2609.87L1773.93 2610.26C1772.86 2624.24 1764.14 2631.14 1770 2645.61C1743.52 2646.19 1731.3 2614.41 1720.47 2593.36C1708.39 2569.87 1693.59 2536.81 1683.73 2512.18C1672.97 2485.34 1667.08 2451.96 1656.64 2428.51C1654.46 2423.61 1656.21 2422.9 1648.71 2424C1640.81 2445.06 1621.94 2463.18 1608.57 2482.16C1601.5 2492.2 1594.6 2512.29 1587.77 2518.55C1579.02 2526.59 1553.18 2538.6 1539.85 2549.21C1523.98 2561.83 1507.9 2580.38 1491.6 2593.86C1451.83 2626.78 1410.23 2657.45 1371.88 2692.04L1370.16 2681.36L1359.41 2681.29L1366.55 2672.35C1351.22 2670.74 1341.68 2696.62 1327.56 2704.98C1356.37 2783.66 1390.43 2862.61 1402.26 2945.82C1397.08 2945.47 1391.11 2946.83 1386.18 2945.82C1372.09 2943 1376.35 2923.81 1362.98 2924.38L1366.63 2958.34C1352.55 2982.82 1348.58 2958.91 1343.97 2954.12C1317.31 2926.31 1306.8 2893.6 1292.43 2857.32C1272.49 2806.85 1258.34 2754.2 1238.61 2703.66L1243.54 2688.61L1326.24 2593.75L1291.5 2520.44C1286.18 2516.62 1264.95 2542.53 1259.48 2547.28C1241.97 2562.47 1175.53 2619.52 1159.42 2625.81C1153.06 2628.31 1132.86 2630.64 1131.51 2631.82C1129.93 2633.21 1120.96 2660.77 1114.57 2670.28C1098.27 2694.55 1068.36 2717.74 1052.17 2737.44C1030.3 2764.07 1000.81 2801.99 981.584 2830.23C962.893 2857.65 952.6 2891.71 927.405 2913.58L952.315 2852.82C942.344 2855.86 935.446 2876.34 923.796 2872.51L966.61 2820.69L925.475 2849.28L922.044 2842.1L911.251 2849.25L909.536 2843.96L1112.96 2629.46C1097.23 2622.77 1098.84 2609.37 1091.05 2597.86C1066.89 2562.26 1037.66 2528.98 1013.75 2492.95C987.338 2453.13 957.711 2407.88 941.629 2363.17L879.302 2406.17C867.937 2415.93 816.224 2486.66 811.506 2499.14C803.215 2520.98 797.604 2531.02 788.563 2551.25C760.794 2613.41 787.776 2687.36 788.169 2752.74L820.298 2704.52H831.019C826.981 2723.32 819.404 2741.84 815.509 2760.53C807.933 2797.02 797.283 2861.08 795.317 2897.54C793.53 2930.56 808.076 2958.19 778.913 2985C773.302 2978.03 760.973 2981.28 760.115 2980.75C758.757 2979.92 740.602 2957.87 739.959 2956.41C735.491 2946.33 738.029 2925.63 730.953 2913.58L713.155 2924.27L695.322 2729.43L695.25 2624.06L649.934 2662.63C630.564 2668.42 598.9 2657.37 595.612 2636.39C594.219 2627.56 595.827 2619.56 593.575 2609.62C590.931 2597.97 582.532 2596.43 580.031 2590.96C573.026 2575.77 549.01 2495.49 545.257 2491.81C539.039 2485.7 539.253 2494.17 537.86 2496.88C531.427 2509.4 534.393 2529.77 516.738 2527.59L517.024 2532.59C531.82 2550.86 538.86 2591.03 552.226 2607.26C557.194 2613.3 566.557 2611.26 572.061 2616.91C595.72 2641.22 552.87 2695.05 542.184 2719.21C537.502 2729.75 534.822 2742.23 530.998 2752.7L541.684 2758.03C513.844 2804.53 476.64 2842.56 441.831 2883.27C428.036 2899.39 418.852 2927.7 395.372 2931.42L406.022 2899.29L388.224 2913.58L398.91 2892.17L381.077 2902.86L384.579 2888.56C377.789 2891.67 355.524 2930.24 347.018 2917.27C338.441 2896.32 364.351 2883.92 363.172 2863.54C355.81 2865.9 352.701 2873.87 348.305 2879.02C345.624 2882.17 341.3 2890.64 341.836 2879.7L377.324 2815.11L366.817 2804.64L480.643 2626.35C474.389 2617.2 464.668 2611.12 457.949 2602.47C453.553 2596.82 453.768 2589.21 448.693 2583.13C433.755 2565.3 391.333 2542.53 373.857 2522.23C366.603 2513.79 366.102 2502.75 361.099 2495.67C335.153 2458.82 301.559 2434.73 274.041 2400.56C261.354 2384.79 221.613 2329 215.145 2312.95C212.285 2305.83 212.929 2299.01 213.215 2291.64C196.954 2293.4 193.63 2318.24 187.197 2326.39C182.659 2332.18 166.541 2339.33 161.573 2349.05C142.346 2386.72 114.435 2424.4 93.5635 2463.14C76.2305 2495.35 67.3674 2544.32 37.3474 2564.08C22.5518 2573.81 14.5465 2563.26 2.64569 2574.02C7.86346 2563.55 -0.106141 2549.82 0.0010737 2544.42C0.286979 2526.66 16.2262 2501.17 21.4797 2483.91C36.2753 2435.19 44.7809 2393.51 71.1557 2347.76C87.1306 2320.1 113.291 2295.9 129.051 2269.91C138.308 2254.69 139.88 2240.78 146.956 2227.09C154.032 2213.4 170.651 2202.36 174.51 2185.02C189.663 2181.55 202.779 2186.31 215.073 2194.78L218.468 2191.6C229.69 2172.05 241.448 2153.1 252.634 2133.44C257.065 2125.65 257.173 2122.04 258.28 2120.08C267.358 2104.1 312.602 2032.5 313.246 2021.42C313.603 2014.81 308.314 2005.02 301.381 2006.16L143.525 2098.52C134.019 2099.31 140.059 2096.91 141.095 2092.48C142.775 2085.23 144.812 2072.07 147.385 2066.57C152.317 2056.02 169.578 2053.88 170.365 2041.37L115.292 2069.82C103.785 2062.92 114.292 2047.77 120.439 2039.62C128.908 2028.39 142.024 2022.89 150.852 2012.88C165.79 1995.87 180.157 1966.99 198.812 1953.65C212.143 1944.15 284.262 1918.27 287.872 1906.72C284.262 1866.9 262.319 1831.27 251.991 1793.49C236.73 1737.55 231.691 1673.67 218.647 1615.98C207.711 1567.69 193.13 1546.21 195.417 1492.74C197.99 1433.33 204.959 1378.61 202.672 1317.42C200.921 1270.59 191.343 1223.55 188.305 1178.12C183.409 1105.92 224.436 1061.38 253.17 1000.08C268.323 967.771 285.37 904.827 304.49 879.914C319.857 859.897 349.627 853.32 373.429 854.214C384.186 847.637 365.316 763.64 366.317 747.948C349.055 741.193 302.631 733.4 297.021 715.493C288.586 688.542 304.132 682.037 308.886 662.664C322.144 608.619 323.788 546.247 338.548 488.628C347.304 454.314 385.437 320.383 404.235 300.581C412.562 291.788 426.428 289.607 438.115 277.311C486.54 226.412 522.778 150.314 565.271 97.2349C598.829 55.3076 669.126 47.4083 720.195 37.8647C846.351 14.2739 1056.74 -24.4007 1176.18 21.1724C1242.79 46.5862 1322.38 90.801 1384.07 127.617C1422.13 150.314 1487.03 187.273 1519.73 213.402C1555.25 241.818 1543.03 250.361 1549.03 287.713C1568.51 408.955 1596.39 492.131 1634.38 606.189C1647.6 645.971 1680.8 733.794 1684.23 770.717C1685.05 779.653 1686.09 800.348 1681.05 806.746C1676.26 812.823 1644.92 814.61 1637.91 808.212C1637.63 824.833 1617.54 832.303 1612.04 844.921C1607.68 854.822 1609.11 867.975 1602.93 878.055C1620.08 890.351 1650.24 912.083 1659.46 931.384C1673.69 961.23 1681.01 1046.76 1690.27 1086.44C1706.28 1155.07 1763.78 1312.52 1754.1 1373.18C1751.13 1391.83 1740.84 1405.95 1736.05 1423C1727.3 1454.24 1725.15 1485.27 1718.4 1516.11C1715.9 1527.48 1707.46 1538.1 1706.03 1550.25C1703.89 1568.3 1710.82 1589.96 1709.46 1610.8C1705.85 1666.17 1664.72 1735.97 1645.03 1789.3C1640.17 1802.42 1615.69 1870.83 1616.47 1878.63C1617.08 1884.88 1620.3 1885.78 1623.91 1889.24C1637.38 1902.29 1706.78 1944.61 1726.15 1954.87C1740.95 1962.7 1781.3 1973.96 1786.08 1984.21C1794.27 2001.8 1780.94 2002.8 1780.9 2004.19C1780.72 2009.31 1787.62 2014.1 1779.37 2020.17C1777.58 2021.49 1746.52 2030.75 1743.45 2030.82C1728.62 2031.04 1669.79 1999.55 1666.61 2002.09C1677.01 2029.04 1678.19 2059.85 1686.95 2087.12C1696.99 2118.4 1711.43 2146.7 1721.86 2180.84C1726.01 2194.39 1740.73 2202.64 1721.93 2220.05L1700.53 2177.19L1702.31 2191.46C1679.48 2193.64 1676.8 2173.23 1666.47 2164.83C1660.89 2160.29 1652.89 2160.11 1646.88 2155.82C1643.81 2153.6 1607.43 2095.88 1606.57 2092.23C1605.11 2086.05 1608.93 2080.36 1608.18 2075.9C1602.86 2044.37 1588.95 2021.42 1580.91 1991.33C1571.76 1989.9 1575.37 1992.15 1573.48 1996.33C1552.18 2043.3 1555.75 2078.83 1569.26 2126.37C1588.02 2192.53 1620.83 2254.9 1631.02 2323.74C1654.64 2315.2 1663.68 2307.09 1686.38 2323.81C1699.74 2333.64 1693.67 2348.08 1720.22 2338.04C1722.58 2360.84 1717 2389.33 1720.22 2411.31L1720.04 2411.49ZM1274.89 149.456C1261.16 139.555 1246.3 120.79 1230.57 109.888C1175.18 71.6067 1056.85 46.0857 989.947 50.6252C901.209 56.6659 784.81 73.4654 698.252 94.5899C673.164 100.702 649.648 103.847 631.1 123.864C589.608 168.686 446.442 351.479 430.074 401.592C419.245 434.762 414.599 471.471 402.627 504.534C421.068 478.369 439.044 451.919 458.307 426.255C495.045 377.286 570.31 269.233 614.947 236.349C720.946 158.249 823.264 114.428 957.783 112.069L1035.83 119.003L1041.27 124.257L1041.66 136.338C1027.22 141.914 1012.39 136.624 1000.6 137.089C920.15 140.163 857.18 164.933 785.739 196.495C720.231 225.447 642.858 262.228 595.469 316.987C537.574 383.899 484.896 459.533 424.034 520.654C417.315 527.374 397.945 541.6 395.193 545.389C387.938 555.326 386.437 594.107 381.184 608.155L466.777 509.824C544.114 435.084 666.088 358.521 773.695 341.686C896.599 322.456 1161.85 398.196 1280.75 445.628C1324.38 463.035 1394.43 488.664 1433.31 510.932C1442.64 516.258 1485.67 563.189 1495 574.27C1523.12 607.797 1542.14 647.258 1568.01 679.999C1570.98 683.752 1567.9 689.007 1577.23 686.719L1495.89 416.104C1464.55 385.579 1432.06 355.054 1407.94 318.274C1393.07 295.612 1382.74 270.413 1368.41 247.43L1370.16 238.208L1377.17 236.456L1486.21 365.026C1484.96 348.298 1487.74 311.268 1482.67 297.078C1478.31 284.889 1478.17 304.083 1473.66 298.972C1451.54 273.916 1430.1 237.493 1403.44 219.121C1366.81 193.85 1312.38 176.407 1274.89 149.385V149.456ZM1498.68 683.252C1474.59 657.981 1452.58 626.169 1429.1 601.042C1354.8 521.405 1260.81 512.791 1170.14 459.961L807.79 404.201C772.731 416.998 726.807 423.003 693.356 436.478C664.623 448.059 605.798 475.367 582.925 493.918C542.041 527.124 498.583 560.151 459.557 595.609C444.405 609.334 441.545 626.956 413.277 622.524L416.815 608.298C409.917 602.65 396.051 629.923 391.762 634.998C386.187 641.611 371.463 652.727 368.783 658.446C365.066 666.453 365.673 679.606 359.669 688.649H370.427C461.452 607.297 571.918 552.216 671.484 482.551C776.483 439.552 847.745 431.509 958.89 456.995C1077.61 484.231 1203.02 516.401 1315.38 561.223L1498.64 683.324L1498.68 683.252ZM1347.97 1204.61C1349.26 1203.75 1360.27 1186.95 1366.41 1181.77C1372.02 1177.01 1381.1 1175.87 1384.71 1171.47C1389.39 1165.79 1401.54 1125.65 1408.76 1113.36C1416.87 1099.59 1429.92 1089.94 1435.92 1079.79C1441.07 1071.07 1442.11 1058.85 1447.93 1048.95C1453.04 1040.3 1466.55 1031 1468.3 1023.32C1469.8 1016.63 1463.33 1004.66 1462.98 996.009C1461.44 957.084 1463.41 912.977 1459.33 874.588C1454.4 828.336 1432.92 778.902 1426.88 731.935C1380.24 701.267 1332.78 669.241 1283.25 643.398C1159.6 578.845 1003.06 560.687 868.258 526.445C854.035 531.913 840.919 542.887 827.41 549.321C821.227 552.252 796.961 557.613 795.889 558.864C790.314 565.441 793.53 599.612 766.727 590.426C765.19 588.853 770.908 568.694 758.542 569.516C748.822 570.159 684.672 597.038 670.412 603.008C616.448 625.598 566.557 653.656 518.561 686.934L523.958 692.295C507.661 701.481 497.011 710.703 486.611 726.395C480.321 774.184 479.392 822.759 473.531 870.549C467.277 921.483 451.123 970.452 459.879 1024.5C460.773 1030.11 465.669 1034.93 467.384 1040.4C499.334 1028.75 523.6 1035.97 530.247 1072C533.428 1089.23 535.537 1138.48 534.607 1156.93C532.535 1197.64 512.986 1236.13 527.567 1276.67L558.909 1188.35L588.215 1165.9C595.148 1240.21 539.039 1310.62 549.903 1384.76C552.834 1404.77 566.629 1424.04 572.311 1444.56C610.372 1582.24 620.879 1698.01 676.881 1836.7C686.995 1861.79 730.667 1960.66 747.678 1973.13C809.97 2018.92 967.861 2032.83 1039.59 2009.02C1045.13 2007.2 1103.84 1961.87 1113.17 1954.05C1139.01 1932.35 1201.55 1866.72 1214.81 1837.77C1234.97 1793.81 1243.12 1738.12 1262.41 1692.44C1281.07 1648.33 1314.73 1618.02 1332.6 1576.84C1357.62 1519.22 1374.85 1445.59 1394.18 1384.72C1401.61 1361.34 1414.37 1343.4 1416.52 1317.74C1418.66 1292.07 1407.94 1232.49 1398.54 1207.18C1397.15 1203.36 1397.04 1198.6 1391.64 1198.07C1386.71 1228.52 1370.16 1254.72 1361.27 1283.85C1334.53 1371.32 1320.77 1449.99 1285.39 1536.92C1283.21 1542.28 1287.54 1546.6 1277.39 1544.78C1285.25 1439.16 1294.22 1333.36 1313.95 1229.34C1315.91 1222.98 1325.63 1206.97 1330.85 1203.68C1335.46 1200.78 1345.18 1206.65 1348.01 1204.72L1347.97 1204.61ZM1554.89 727.109C1552.14 724.572 1540.92 719.961 1537.96 724.357C1545.85 732.65 1547.85 750.307 1562.9 747.591C1564.4 746.161 1556.9 728.968 1554.86 727.109H1554.89ZM306.205 1165.86C303.668 1162.5 338.227 1099.63 342.515 1089.59C366.46 1033.08 372.106 976.922 370.427 915.621C331.293 924.951 339.191 948.792 327.72 978.244C322.502 991.612 311.602 1006.23 305.526 1020.35C289.265 1058.06 278.365 1106.56 242.663 1130.76L241.555 1135.37C264.999 1259.98 268.144 1387.65 267.072 1514.43C266.572 1574.52 277.508 1589.21 290.159 1644.72C319.75 1774.54 355.881 1883.6 390.083 2009.34C392.191 2017.1 401.84 2053.56 401.269 2057.7C401.09 2059.1 384.901 2078.93 383.757 2079.79C377.717 2084.51 370.427 2082.08 363.708 2090.16C346.875 2110.32 324.003 2181.23 305.49 2210.58C295.234 2226.88 281.189 2243.57 264.034 2253.01L263.284 2261.05L438.293 2459.68C446.084 2426.33 455.376 2391.87 469.85 2360.77C486.182 2325.71 513.629 2302.26 509.698 2259.51L486.933 2258.72L481.608 2251.11C487.791 2230.06 514.844 2222.77 526.03 2209.68C528.032 2207.33 551.619 2170.58 552.548 2168.29C553.406 2166.18 553.227 2162.29 550.833 2163C537.181 2175.3 524.422 2180.73 507.947 2187.99C501.228 2148.85 566.772 2135.41 590.824 2111.93L623.738 1979.17C603.868 1923.09 582.354 1867.3 563.234 1810.96C556.193 1790.27 529.14 1685.61 516.953 1678.57C511.306 1675.32 501.907 1678.36 499.477 1676.39C497.69 1674.96 484.86 1638.22 483.609 1633.32C479.285 1616.38 478.677 1594.46 477.605 1576.77C468.135 1573.52 470.958 1582.88 467.062 1585.21C463.882 1587.1 455.269 1587.85 451.159 1590.89C447.049 1590.14 433.147 1562.33 432.039 1556.29C429.359 1541.31 434.97 1532.7 434.434 1521.76C433.647 1506.14 427.536 1482.55 427.643 1467.75C427.751 1450.99 435.291 1427.83 435.077 1410.6C434.612 1374.64 412.204 1351.87 425.928 1312.34C439.33 1273.67 460.844 1243.5 465.919 1198.68C469.314 1168.9 473.102 1097.13 438.401 1087.08L411.525 1165.65C396.23 1186.7 392.155 1212.44 381.863 1236.03C366.46 1271.38 340.371 1300.33 343.945 1341.4C345.16 1355.23 354.166 1369.07 355.917 1382.25C362.743 1433.69 349.806 1477.08 342.122 1525.12C339.477 1541.67 343.337 1560.15 338.334 1576.77C334.188 1581.6 320.536 1563.51 324.039 1558.9L320.465 1569.59C297.521 1543.24 305.24 1500.57 302.596 1467.75C298.128 1411.85 280.795 1300.01 299.808 1250.43C306.884 1231.99 332.616 1213.26 331.401 1189.17L309.779 1187.13L313.353 1163.93L306.205 1165.72V1165.86ZM1477.2 2130.91C1475.31 2129.48 1458.44 2161.82 1450.22 2134.23C1506.68 1993.79 1541.81 1845.85 1590.53 1702.8C1596.57 1685.11 1616.04 1648.94 1618.04 1634.46C1619.3 1625.31 1615.33 1611.98 1616.54 1600.15C1624.94 1519.19 1700.92 1388.72 1690.59 1318.6C1678.58 1236.89 1632.38 1137.8 1612.36 1057.34C1603.53 1021.78 1610.18 980.103 1592.21 948.827C1561.04 894.64 1520.3 995.58 1527.52 1024.32C1556.04 1091.02 1570.33 1172.23 1600.46 1237.24C1609.57 1256.94 1626.62 1266.73 1631.87 1288C1649.31 1358.63 1623.62 1387.65 1603.96 1448.2C1579.84 1522.48 1567.19 1601.18 1537.85 1673.39L1530.84 1673.32C1524.52 1653.41 1501.93 1678.86 1502.15 1642.97C1502.25 1622.74 1521.8 1573.27 1526.73 1549.61C1532.27 1522.91 1533.52 1495.35 1538.88 1468.83C1547.21 1427.43 1575.87 1337.5 1569.83 1300.08C1566.87 1281.67 1547.03 1252.47 1539.74 1233.7C1524.2 1193.67 1516.15 1148.96 1489.21 1115.5C1443.53 1126.19 1450.86 1161.97 1456.36 1199.25C1460.94 1230.34 1467.62 1276.7 1474.48 1306.23C1477.77 1320.35 1506.9 1376.25 1505.58 1381.86L1490.24 1387.65L1473.7 1369.6L1423.63 1623.38C1414.05 1606.08 1405.05 1622.6 1399.47 1602.9C1398.08 1598.04 1398.79 1592.64 1398.65 1587.67C1393.25 1591.03 1387.07 1601.04 1383.71 1606.62C1322.67 1707.74 1301.4 1809.11 1250.58 1913.01C1241.33 1931.99 1210.88 1974.99 1209.59 1993.54C1208.88 2004.02 1216.99 2018.6 1216.88 2032.68C1216.78 2046.77 1209.24 2055.41 1209.56 2064.49C1209.74 2069.18 1235.4 2149.53 1237.83 2153.5C1240.54 2158 1282.89 2188.7 1291.61 2197.07C1310.3 2214.9 1325.71 2231.2 1337.96 2254.33L1327.31 2259.62L1362.91 2279.31C1347.69 2297.72 1321.88 2279.03 1303.3 2281.82C1300.83 2282.17 1296.29 2278.78 1298.76 2286.39C1300.55 2291.89 1306.87 2297.61 1308.62 2305.16C1325.53 2378.47 1356.37 2461.61 1392 2529.05C1394.11 2533.02 1396.54 2540.53 1400.9 2541.85L1411.26 2538.56C1452.29 2503.18 1498.14 2473.01 1539.63 2438.3C1545.64 2433.26 1569.08 2412.99 1569.19 2407.53L1477.2 2131.01V2130.91ZM673.879 2070.14C666.445 2062.96 662.943 2088.76 662.085 2092.23C648.612 2145.27 665.766 2156.86 677.274 2204.43C687.924 2248.54 705.65 2312.66 712.369 2355.16C713.262 2360.88 714.906 2411.74 706.115 2402.56L698.896 2377.57L684.708 2388.3L638.212 2180.98C628.92 2179.3 632.709 2182.34 630.779 2186.06C626.883 2193.64 625.632 2207.11 621.916 2212.9C619.557 2216.58 612.767 2218.8 608.728 2224.73C581.567 2264.66 608.8 2309.87 609.908 2350.91C610.337 2366.74 603.761 2362.24 602.796 2365.6C601.974 2368.53 605.44 2379.5 602.474 2384.69L590.073 2345.33C578.351 2335.22 590.752 2358.49 588.215 2359.66C583.104 2366.21 574.205 2318.7 577.493 2313.2C571.811 2315.91 566.665 2324.49 563.913 2329.93C548.903 2359.77 561.625 2358.99 568.63 2384.65C577.851 2418.53 585.356 2435.55 597.113 2466.93C607.37 2494.28 615.947 2522.3 627.598 2549.07C662.8 2533.95 684.172 2500.03 711.368 2473.87C761.616 2425.5 812.293 2376.96 863.005 2328.89C838.667 2295.51 803.108 2269.45 775.625 2238.17C731.31 2187.7 705.114 2128.94 673.879 2070.14ZM947.49 2171.65C930.514 2163.4 906.391 2166.86 895.205 2161.32C886.556 2157.03 889.701 2143.27 884.734 2139.66C881.589 2137.38 866.114 2136.62 858.573 2133.66C836.344 2124.97 816.617 2106.49 791.743 2109.46C837.488 2162.32 862.755 2230.74 915.04 2277.35C921.723 2279.92 923.974 2264.05 930.05 2259.44C941.2 2251.08 961.892 2251.25 971.327 2245.46C975.937 2242.64 984.979 2225.63 993.342 2220.12C999.06 2216.33 1006.17 2217.08 1011.5 2213.29C1016.82 2209.51 1030.87 2188.74 1017.86 2184.91L991.662 2184.49L1005.92 2173.83C991.877 2170.55 984.872 2185.16 971.971 2184.81C959.855 2184.49 953.279 2174.51 947.49 2171.65ZM1091.66 2334.61C1117.46 2309.98 1138.01 2282.42 1159.56 2254.29C1167.89 2243.43 1188.51 2228.16 1191.08 2214.05C1193.33 2201.71 1171.57 2140.81 1157.24 2138.3C1153.59 2140.23 1135.9 2151.89 1135.26 2153.07C1132.97 2157.28 1135.87 2163.83 1133.54 2169.37C1123.75 2192.96 1075.65 2240.92 1054.06 2259.48C1044.05 2268.05 983.621 2308.05 985.944 2316.95C1010 2353.3 1038.3 2387.04 1061.03 2424.29C1070.39 2439.62 1099.81 2503.07 1109.71 2507.93C1115.46 2510.75 1122.5 2503.64 1127.4 2518.8L1120.1 2522.3L1125.64 2531.27C1135.15 2523.08 1157.06 2516.33 1164.67 2509.65C1172.28 2502.96 1180.61 2481.51 1188.04 2472.29C1199.69 2457.82 1248.05 2412.49 1251.69 2399.98C1253.48 2393.8 1251.69 2390.15 1250.73 2384.58C1248.08 2369.53 1228.36 2310.7 1221.92 2295.4C1220.17 2291.22 1218.6 2287.43 1214.81 2284.67C1213.45 2303.62 1199.34 2318.09 1187.94 2332.82C1180.72 2342.11 1135.04 2393.44 1128.4 2395.12C1123.43 2396.37 1099.56 2382.08 1088.08 2388.3L1091.66 2366.89C1070.71 2374.25 1090.62 2338 1098.77 2338.22L1091.66 2334.64V2334.61Z" fill="#4E0000"/>
<path d="M849.925 2630.28C847.173 2626.88 840.669 2580.49 841.455 2576.56C842.063 2573.59 850.568 2571.87 854.142 2566.94C861.897 2556.22 876.872 2521.26 884.627 2515.19C891.882 2509.47 918.9 2502.28 928.263 2503.32C944.953 2505.18 986.623 2534.63 988.089 2551.25C988.839 2559.76 984.014 2567.55 984.229 2575.95C984.551 2589.14 990.412 2601.08 987.374 2614.48C985.623 2622.17 962.786 2649.05 955.746 2654.34C930.086 2673.57 906.606 2673.57 879.802 2655.77C876.085 2653.3 851.926 2632.78 849.925 2630.32V2630.28Z" fill="#4E0000"/>
<path d="M1623.62 2634.89C1632.16 2643.9 1589.45 2690.26 1582.7 2699.34C1561.33 2728 1546.46 2738.55 1517.8 2761.28C1498.36 2776.69 1472.23 2809.11 1445.14 2799.28L1455.83 2783.19C1456.4 2780.55 1452.15 2780.8 1450.54 2781.48C1443.28 2784.55 1403.26 2818.36 1398.72 2813.61C1399.4 2806.28 1395.5 2799.24 1396.65 2791.95C1401.15 2763.21 1493.25 2705.38 1514.76 2681.39L1500.43 2720.68C1537.38 2684.9 1568.94 2642 1623.62 2634.93V2634.89Z" fill="#4E0000"/>
<path d="M202.6 2477.62C201.885 2470.61 202.385 2469.33 209.712 2470.51C221.791 2496.49 239.625 2522.76 250.132 2549.18C257.851 2568.66 253.598 2556.22 266.535 2569.16C275.434 2578.06 310.279 2652.8 312.495 2666.13C316.14 2688.08 311.315 2712.56 320.464 2734.97L311.351 2731.72L309.671 2738.33L302.702 2738.55L295.448 2717.1L284.833 2720.75C254.67 2634.61 191.986 2561.26 174.152 2470.51L191.95 2488.38C190.52 2474.87 175.546 2463.68 183.051 2449.1L202.671 2477.69L202.6 2477.62Z" fill="#4E0000"/>
<path d="M1163.03 2667.06C1158.31 2686 1139.01 2694.4 1127.47 2708.27C1093.41 2749.2 1067.64 2810.93 1013.11 2827.87C1032.8 2796.92 1057.71 2769.11 1082.69 2742.09C1101.77 2721.43 1129.47 2691.76 1150.55 2674.21C1154.56 2670.89 1156.34 2665.56 1163.03 2667.1V2667.06Z" fill="#4E0000"/>
<path d="M1548.64 2642C1562.72 2631.32 1571.41 2607.19 1581.98 2596.75C1592.56 2586.32 1616.54 2578.31 1627.16 2563.4C1632.34 2584.56 1557.97 2649.72 1548.64 2642Z" fill="#4E0000"/>
<path d="M673.879 2070.14C705.114 2128.94 731.31 2187.7 775.625 2238.17C803.108 2269.45 838.668 2295.51 863.005 2328.89C812.293 2377 761.616 2425.5 711.368 2473.87C684.172 2500.03 662.8 2533.92 627.598 2549.07C615.948 2522.3 607.37 2494.28 597.114 2466.93C585.356 2435.55 577.815 2418.53 568.63 2384.65C561.661 2358.99 548.939 2359.77 563.913 2329.93C566.665 2324.46 571.811 2315.88 577.493 2313.2C574.205 2318.7 583.069 2366.21 588.215 2359.66C590.752 2358.45 578.387 2335.18 590.073 2345.33L602.474 2384.69C605.441 2379.5 601.974 2368.53 602.796 2365.6C603.725 2362.24 610.337 2366.74 609.908 2350.91C608.8 2309.87 581.567 2264.62 608.728 2224.73C612.767 2218.8 619.521 2216.58 621.916 2212.9C625.633 2207.11 626.848 2193.64 630.779 2186.06C632.709 2182.34 628.92 2179.3 638.212 2180.98L684.708 2388.3L698.896 2377.57L706.115 2402.56C714.871 2411.74 713.262 2360.88 712.369 2355.16C705.65 2312.7 687.924 2248.54 677.274 2204.43C665.767 2156.86 648.648 2145.27 662.085 2092.23C662.979 2088.76 666.481 2062.99 673.879 2070.14Z" fill="white"/>
<path d="M1091.66 2334.61L1098.77 2338.18C1090.62 2337.93 1070.71 2374.21 1091.66 2366.85L1088.08 2388.26C1099.56 2382 1123.43 2396.34 1128.4 2395.09C1135.04 2393.41 1180.75 2342.08 1187.94 2332.79C1199.34 2318.09 1213.45 2303.62 1214.81 2284.64C1218.63 2287.43 1220.17 2291.22 1221.92 2295.36C1228.36 2310.66 1248.08 2369.49 1250.73 2384.54C1251.69 2390.12 1253.48 2393.76 1251.69 2399.95C1248.05 2412.49 1199.69 2457.78 1188.04 2472.26C1180.61 2481.48 1172.46 2502.75 1164.67 2509.61C1156.88 2516.47 1135.15 2523.05 1125.64 2531.23L1120.1 2522.26L1127.4 2518.76C1122.5 2503.57 1115.46 2510.72 1109.7 2507.89C1099.81 2503.03 1070.39 2439.59 1061.03 2424.25C1038.3 2387.01 1010 2353.3 985.944 2316.92C983.621 2307.98 1044.09 2268.02 1054.06 2259.44C1075.65 2240.89 1123.75 2192.92 1133.54 2169.33C1135.83 2163.79 1132.97 2157.25 1135.26 2153.03C1135.9 2151.85 1153.59 2140.2 1157.24 2138.27C1171.57 2140.77 1193.33 2201.68 1191.08 2214.01C1188.51 2228.13 1167.89 2243.39 1159.56 2254.26C1137.97 2282.39 1117.42 2309.95 1091.66 2334.57V2334.61Z" fill="white"/>
<path d="M947.49 2171.65C953.316 2174.48 959.856 2184.45 971.971 2184.81C984.872 2185.16 991.877 2170.55 1005.92 2173.83L991.663 2184.49L1017.86 2184.91C1030.87 2188.77 1017.04 2209.36 1011.5 2213.29C1005.96 2217.23 999.06 2216.33 993.342 2220.12C984.98 2225.63 975.938 2242.64 971.328 2245.46C961.893 2251.25 941.165 2251.08 930.05 2259.44C923.975 2264.02 921.687 2279.89 915.04 2277.35C862.755 2230.77 837.488 2162.32 791.744 2109.46C816.653 2106.49 836.345 2124.97 858.574 2133.66C866.115 2136.59 881.589 2137.38 884.734 2139.66C889.738 2143.27 886.557 2157.07 895.205 2161.32C906.392 2166.86 930.515 2163.4 947.49 2171.65Z" fill="white"/>
<path d="M944.524 1277.67C1086.4 1272.31 1147.12 1359.41 1166.17 1489.74C1171.46 1525.98 1175.5 1570.48 1169.28 1606.33C1164.03 1636.68 1150.66 1679.32 1139.98 1705.81C1138.26 1710.02 1141.26 1714.56 1138.4 1718.21C1137.55 1719.32 1119.21 1736.3 1117.89 1737.22C1061.28 1776.54 1016.5 1743.19 961.285 1737.76C900.745 1731.83 862.255 1744.12 805.896 1757.31C788.42 1761.39 783.881 1771.65 762.331 1761.78C754.79 1758.35 708.116 1700.69 701.862 1690.08C645.467 1594.25 665.087 1371.17 773.731 1314.02C811.507 1294.15 901.352 1279.31 944.524 1277.7V1277.67ZM888.165 1337.36L813.15 1348.15L838.131 1418.03L891.739 1408.85C893.383 1407.27 881.911 1371.78 880.981 1364.2C880.553 1360.56 878.587 1350.73 884.555 1351.69L891.703 1380.25L888.201 1337.36H888.165ZM934.553 1337.4V1405.31L962.643 1404.84C966.36 1402.41 976.903 1340.51 973.829 1337.36H934.553V1337.4ZM1013.11 1340.97V1403.52C1013.11 1404.56 1007.99 1407.56 1012.82 1410.56L1045.23 1426.76V1371.35C1045.23 1370.39 1034.33 1360.7 1033.3 1356.52L1013.11 1340.97ZM809.612 1419.57L795.281 1369.57C769.228 1386.22 753.468 1396.91 763.189 1430.33L809.612 1419.54V1419.57ZM1074.65 1433.01C1121.39 1449.56 1087.83 1400.02 1066.68 1390.98L1074.65 1433.01ZM1080.94 1662.7C1044.77 1664.59 1014.5 1643.83 978.761 1638.07C898.708 1625.2 825.158 1647.83 763.189 1698.37C786.954 1705.73 796.068 1697.01 815.974 1692.26C853.213 1683.39 894.49 1671.53 932.766 1673.42C971.042 1675.32 1005.39 1681.29 1042.91 1680.28C1054.63 1679.96 1075.9 1674.71 1080.97 1662.7H1080.94Z" fill="#4E0000"/>
<path d="M958.819 566.12C979.44 577.701 963.358 667.954 966.717 690.401L994.093 666.024L1100.74 604.652L1103.88 611.586L1116.64 608.262L1056.31 653.263C1046.52 664.88 1002.96 706.307 990.054 704.806C981.942 703.876 980.048 692.367 971.864 704.806C967.11 714.385 996.344 739.691 998.739 752.059C1009.85 755.776 1022.29 786.337 1034.08 779.295C1043.48 760.387 1067.21 749.914 1084.22 738.405C1087.58 736.117 1089.26 729.79 1093.87 726.609C1128.25 702.84 1227.46 722.82 1271.1 712.705C1280.71 715.6 1290.18 718.817 1298.44 724.715C1299.37 725.394 1312.13 736.546 1312.52 737.404C1314.16 740.835 1301.8 750.45 1320.17 756.598C1311.73 759.493 1304.26 752.416 1294.11 754.847C1283.96 757.277 1265.38 764.14 1249.33 767.857C1244.51 769.001 1231.64 770.288 1230.96 776.186C1262.45 785.336 1288.4 814.503 1309.37 838.88C1326.17 858.432 1359.98 901.61 1365.02 926.13C1373.85 968.951 1350.29 954.832 1322.85 959.372C1309.3 961.624 1291.79 972.954 1276.6 977.387C1228.64 991.362 1178.47 991.577 1131.01 976.422C1140.94 985.715 1160.06 1003.48 1171.35 1009.27C1192.98 1020.35 1253.37 1019.06 1278.14 1014.63C1300.12 1010.7 1319.2 999.798 1341.68 997.868C1330.25 1004.44 1339.11 1021.89 1338.11 1022.82C1337.54 1023.35 1331.5 1021.6 1328.6 1023.85C1306.37 1040.87 1307.48 1036.11 1284.75 1046.3C1279.85 1048.52 1277.21 1056.09 1271.31 1057.88C1257.13 1062.17 1232.36 1056.24 1216.71 1058.63L1218.46 1065.82L1198.87 1058.6C1200.19 1091.02 1238.58 1107.96 1243.72 1137.05C1248.15 1162.07 1227.07 1134.73 1223.82 1132.41C1190.33 1108.6 1184.76 1093.41 1159.31 1071.36C1151.52 1064.6 1138.97 1060.03 1129.15 1051.52C1103.13 1029 1083.15 997.796 1059.64 972.812C1062.32 1019.85 1081.72 1059.95 1108.03 1097.7C1164.06 1178.09 1228.96 1234.24 1241.26 1339.65C1249.51 1410.6 1238.01 1480.94 1241.51 1550.64C1242.15 1563.44 1230.82 1568.26 1224.64 1556.47C1216.2 1540.38 1221.67 1502 1220.21 1482.27C1213.24 1387.08 1197.84 1321.1 1149.45 1238.57C1144.94 1230.92 1101.77 1163.65 1091.73 1173.05C1093.44 1192.64 1082.83 1188.2 1075.68 1194.39C1069.93 1199.35 1065.71 1206.15 1059.24 1210.26C1037.94 1223.73 1011.6 1216.83 988.196 1226.66C990.376 1214.65 1005.81 1216.23 1016.39 1206.65C1026.97 1197.07 1051.52 1156.1 1051.99 1142.84C1052.31 1133.84 1044.13 1117.04 1041.09 1107.28C1039.48 1102.06 1041.91 1096.06 1039.77 1091.16C1034.58 1079.33 1002.92 1043.62 989.875 1044.76C985.873 1045.12 982.228 1063.96 970.327 1058.67C970.541 1041.9 974.151 1027.68 973.829 1010.45C972.864 956.226 956.782 895.641 955.889 842.49C955.71 831.445 962.858 842.705 970.291 840.632C975.866 809.106 944.917 788.446 933.91 764.498C911.609 715.958 926.262 693.296 934.088 645.328C935.911 634.14 942.129 568.193 945.775 565.906C948.241 564.369 956.032 564.619 958.855 566.228L958.819 566.12ZM1220.17 929.883C1234.86 938.927 1294.33 924.558 1300.76 912.012C1304.26 905.149 1288.15 884.954 1282.18 880.378C1270.67 871.55 1232.29 851.212 1217.92 844.635C1177.25 826.084 1168.28 823.832 1129.83 848.352C1103.17 865.366 1088.76 885.24 1070.29 910.26C1091.37 916.765 1111.6 936.031 1134.54 926.273C1122.21 899.215 1144.48 888.957 1157.74 869.191C1168.39 890.887 1187.51 882.916 1206.84 887.849C1245.76 897.786 1216.03 923.95 1220.21 929.848L1220.17 929.883Z" fill="#740001"/>
<path d="M880.981 622.524L891.667 611.765C891.274 629.351 905.033 647.723 905.783 664.094C907.034 691.795 902.746 740.835 899.208 767.572C897.671 779.295 894.991 790.876 895.098 802.815L911.645 808.105C914.325 811.715 912.967 815.968 912.431 819.936C909.822 840.203 881.053 905.471 872.011 929.812C855.107 975.349 840.204 1024.18 822.049 1069.21C802.643 1117.36 779.235 1117.93 780.879 1178.41C781.129 1188.02 786.132 1196.6 784.167 1206.22C772.587 1221.09 757.506 1218.62 750.644 1201.21C748.25 1195.17 757.327 1189.42 747.142 1190.78C705.471 1237.21 687.245 1297.33 663.836 1354.02C659.298 1364.96 649.899 1376.89 646.468 1386.65C635.532 1417.68 641.035 1459.71 631.279 1492.42L621.022 1495.06L616.841 1505.28C618.163 1476.26 614.982 1446.59 616.662 1417.57C621.522 1333.04 644.359 1241.93 692.463 1171.76C711.511 1144.02 744.855 1117.82 760.329 1093.12C781.736 1058.88 789.956 1000.76 802.429 961.981C794.638 965.591 793.816 975.063 785.846 979.639C779.95 982.999 774.589 979.174 768.549 983.07C751.359 994.186 726.807 1024.78 707.759 1040.51C675.058 1067.5 637.533 1089.3 604.261 1115.64L598.972 1113.93L606.084 1105.03L584.677 1108.53L591.86 1088.94L581.138 1090.69C579.78 1085.48 582.211 1084.8 584.569 1081.65C598.543 1063.03 669.662 1023.1 693.571 1001.34C701.361 994.222 706.615 984.464 713.226 976.35C673.7 980.032 646.468 981.497 607.513 973.098C601.795 971.847 594.397 974.063 590.287 972.99C588.751 972.597 589.501 957.764 568.344 955.083C541.755 951.687 508.84 977.458 508.09 933.887C507.804 917.552 534.286 884.275 545.508 871.014C558.409 855.787 608.049 803.637 622.13 794.022C633.423 786.301 649.327 787.409 659.655 777.973C615.947 763.961 580.638 779.331 540.218 793.986C530.283 784.729 542.577 772.468 531.427 760.566C532.106 756.134 596.22 709.131 602.796 706.772C631.029 696.656 722.733 704.055 751.788 714.421C778.985 724.143 787.669 733.329 822.228 732.721C868.794 731.899 859.646 632.568 863.219 601.078L881.017 622.56L880.981 622.524ZM830.984 854.822C835.058 849.889 805.574 803.422 791.743 804.852C802.822 818.614 812.507 832.911 822.192 847.745C823.371 849.568 825.373 861.649 831.019 854.822H830.984ZM769.085 848.96C748.393 830.48 714.263 833.483 688.21 833.447C689.818 836.378 691.176 839.273 688.389 842.204C669.519 862.042 615.268 886.812 590.645 905.542C584.498 910.224 577.457 915.729 573.955 922.77L639.57 929.705C649.255 915.622 656.903 900.109 670.269 888.743C674.058 885.526 705.507 863.508 707.759 863.257C721.553 861.685 741.924 882.023 734.598 897.786C759.686 892.353 790.671 908.902 770.407 935.316L788.312 942.394C802.822 925.88 817.796 910.26 801.928 889.35C797.747 883.81 791.028 882.237 788.062 878.198C782.165 870.227 777.484 856.502 769.049 848.96H769.085Z" fill="#740001"/>
<path d="M1048.13 1897.93L859.574 1866.37L866.722 1848.57L841.777 1841.17L845.279 1827.08L820.334 1825.3C842.778 1802.74 886.342 1790.73 917.649 1795.77C929.371 1797.67 942.773 1805.5 955.281 1808.14C982.228 1813.82 1014.75 1813.36 1037.91 1829.09C1065.03 1847.53 1070.72 1873.02 1048.16 1897.93H1048.13Z" fill="#4E0000"/>
<path d="M1227 1662.99C1238.04 1670.38 1220.71 1720.85 1216.74 1732.47C1203.37 1771.68 1182.5 1810.21 1150.59 1837.2C1139.87 1821.47 1120.32 1832.37 1109.67 1828.8C1097.8 1824.8 1094.48 1810.28 1073.82 1819.9C1089.12 1807.28 1106.7 1796.85 1121.93 1784.08C1131.15 1776.36 1152.38 1758.21 1159.52 1750.24C1174 1734.12 1204.41 1667.38 1215.6 1663.31C1218.38 1662.27 1224.89 1661.56 1227.07 1663.02L1227 1662.99Z" fill="#4E0000"/>
<path d="M976.438 1116.61C1036.41 1105.71 1050.45 1174.12 993.128 1197.6C976.617 1204.36 954.424 1206.11 936.912 1211.94C900.602 1183.06 940.807 1123.11 976.438 1116.61Z" fill="#4E0000"/>
<path d="M890.845 1211.47C866.901 1219.23 855.536 1233.92 831.234 1217.4C822.192 1211.26 798.784 1180.91 798.641 1171.37C798.105 1137.95 843.671 1099.74 870.367 1128.22C886.557 1145.49 885.699 1168.29 888.344 1188.88C889.38 1197.03 898.029 1203.18 890.881 1211.47H890.845Z" fill="#4E0000"/>
<path d="M784.596 1852.07C777.949 1861.58 743.175 1836.02 736.492 1830.55C723.234 1819.65 682.528 1777.76 673.879 1764.53C667.196 1754.31 660.942 1717.53 672.128 1712.71C691.391 1745.88 710.797 1773.29 738.101 1800.31C745.248 1807.35 793.209 1839.67 784.56 1852.07H784.596Z" fill="#4E0000"/>
<path d="M1423.27 854.428C1422.09 856.287 1408.51 858.003 1405.69 857.216C1393.89 853.857 1378.42 794.129 1372.77 778.938C1365.63 759.708 1351.87 743.516 1352.3 722.642C1359.01 724.536 1359.62 735.223 1364.95 740.299C1368.84 743.981 1375.38 744.159 1378.78 747.877C1403.87 775.185 1422.2 817.434 1423.24 854.464L1423.27 854.428Z" fill="#4E0000"/>
<path d="M841.705 711.847L823.908 701.159L820.334 711.847C819.976 697.621 810.935 705.449 806.11 702.982C792.601 696.084 770.586 645.221 759.615 631.424L770.336 629.636L766.762 611.8C807.075 622.416 825.123 676.997 841.705 711.847Z" fill="#4E0000"/>
<path d="M1363.02 2016.49L1377.49 1979.03L1370.49 1972.38C1375.95 1957.62 1388.71 1941.82 1394.07 1927.88C1416.55 1869.37 1433.67 1775.04 1478.95 1730.5C1489.64 1720 1501.25 1716.28 1511.15 1705.63C1515.9 1709.42 1517.44 1710.92 1515.83 1717.32C1513.58 1726.29 1497.86 1740.83 1493.96 1756.24C1472.13 1842.1 1446.57 1919.52 1396.61 1994.76C1387.86 2007.95 1380.96 2020.31 1363.02 2016.49Z" fill="#4E0000"/>
<path d="M1126.4 208.827C1128.33 210.614 1132.61 220.587 1130.9 222.16L861.29 261.442C847.066 260.441 868.581 255.187 866.722 250.826L841.741 250.754L848.853 241.854L834.594 240.031L916.648 216.798C976.009 204.645 1047.27 199.033 1107.85 204.18C1113.82 204.681 1121.82 204.609 1126.4 208.827Z" fill="#4E0000"/>
<path d="M1387.96 393.764L1373.45 388.653C1344.9 354.41 1316.34 315.45 1286.29 282.923C1262.27 256.937 1228.93 233.597 1207.63 207.969C1201.23 200.248 1190.97 189.739 1191.62 179.338C1198.98 172.261 1240.43 204.287 1248.4 210.006C1306.01 251.254 1357.66 299.866 1383.85 367.457C1387.53 376.929 1392.36 383.148 1387.93 393.764H1387.96Z" fill="#4E0000"/>
<path d="M459.665 1884.27L320.501 1626.96L389.761 1695.15C408.131 1728.43 438.651 1769.11 453.161 1803.24C464.526 1830.02 452.946 1855.32 459.629 1884.31L459.665 1884.27Z" fill="#4E0000"/>
<path d="M1080.94 1662.7C1075.86 1674.71 1054.6 1679.96 1042.88 1680.29C1005.35 1681.32 969.219 1675.25 932.731 1673.42C896.242 1671.6 853.178 1683.4 815.938 1692.26C796.032 1697.01 786.919 1705.7 763.153 1698.37C825.087 1647.83 898.672 1625.2 978.726 1638.07C1014.46 1643.83 1044.73 1664.59 1080.9 1662.7H1080.94Z" fill="white"/>
<path d="M888.165 1337.36L891.668 1380.25L884.52 1351.69C878.552 1350.69 880.517 1360.56 880.946 1364.2C881.875 1371.78 893.347 1407.27 891.703 1408.85L838.096 1418.03L813.115 1348.16L888.13 1337.36H888.165Z" fill="white"/>
<path d="M934.553 1337.4H973.829C976.902 1340.51 966.36 1402.41 962.643 1404.84L934.553 1405.31V1337.4Z" fill="white"/>
<path d="M1013.11 1340.97L1033.3 1356.52C1034.33 1360.74 1045.23 1370.42 1045.23 1371.35V1426.76L1012.82 1410.56C1007.99 1407.56 1013.11 1404.56 1013.11 1403.52V1340.97Z" fill="white"/>
<path d="M809.612 1419.57L763.188 1430.37C753.432 1396.95 769.228 1386.22 795.281 1369.6L809.612 1419.61V1419.57Z" fill="white"/>
<path d="M1074.65 1433.01L1066.68 1390.98C1087.8 1399.98 1121.39 1449.56 1074.65 1433.01Z" fill="white"/>
<path d="M1220.17 929.884C1215.99 924.022 1245.72 897.822 1206.81 887.885C1187.47 882.952 1168.32 890.923 1157.7 869.227C1144.44 888.993 1122.21 899.215 1134.51 926.309C1111.56 936.067 1091.34 916.801 1070.25 910.296C1088.73 885.276 1103.13 865.402 1129.79 848.388C1168.24 823.868 1177.18 826.12 1217.88 844.671C1232.29 851.248 1270.67 871.586 1282.14 880.414C1288.15 885.025 1304.26 905.185 1300.73 912.047C1294.29 924.593 1234.82 938.962 1220.14 929.919L1220.17 929.884Z" fill="white"/>
<path d="M769.085 848.959C777.519 856.501 782.165 870.191 788.098 878.198C791.064 882.201 797.783 883.81 801.964 889.35C817.796 910.26 802.822 925.915 788.348 942.393L770.443 935.316C790.707 908.902 759.757 892.352 734.634 897.785C741.96 882.022 721.589 861.648 707.794 863.257C705.543 863.507 674.093 885.525 670.305 888.742C656.939 900.109 649.327 915.621 639.606 929.704L573.991 922.77C577.493 915.729 584.498 910.224 590.68 905.542C615.304 886.848 669.59 862.077 688.424 842.204C691.212 839.273 689.854 836.378 688.245 833.447C714.299 833.447 748.428 830.48 769.121 848.959H769.085Z" fill="white"/>
</svg>
