<svg width="659" height="1144" viewBox="0 0 659 1144" fill="none" xmlns="http://www.w3.org/2000/svg">
<path d="M419.177 827.375L382.894 890.424H366.239L406.091 824.996L411.445 826.185L419.177 827.375Z" fill="#4E0000"/>
<path d="M2.21827 621.572C22.2434 610.667 68.4796 589.215 93.2236 590.642C117.016 581.125 117.016 581.919 114.042 583.505L97.982 601.349L120.585 595.995C92.2322 612.055 31.6017 644.889 15.8988 647.744C6.32485 649.484 2.16061 650.429 0.68299 650.901L0.433849 651.312C-0.107849 651.312 -0.262936 651.204 0.68299 650.901L12.33 631.684L2.21827 621.572Z" fill="#4E0000"/>
<path d="M219.322 883.882C219.322 885.666 206.831 885.666 206.237 886.856C202.271 866.632 194.341 823.092 194.341 810.72C201.002 810.72 223.288 832.133 233.598 842.84L250.252 888.64L229.434 886.856L219.322 845.219L209.211 830.349C212.581 847.598 219.322 882.454 219.322 883.882Z" fill="#4E0000"/>
<path d="M304.38 23.7923C308.186 23.3165 316.672 25.5768 320.439 26.7664L316.276 28.5507L302 27.9559L289.509 27.3611L284.156 28.5507L275.829 29.1455L262.148 62.4546L275.234 66.6182H286.535L302 67.2131L293.078 70.1871L284.156 69.5923C281.579 69.5923 276.186 69.7112 275.234 70.1871C274.044 70.7819 271.665 68.9975 262.743 69.5923C257.509 73.399 253.028 105.281 251.442 120.746L262.743 124.909L279.398 114.203L310.328 107.66L318.06 103.496L331.146 99.9274L340.068 98.143L320.439 110.039L304.38 114.203L279.398 122.53L265.717 128.478H249.657L242.52 144.538L240.141 170.114C258.183 170.114 297.48 169.758 310.328 168.33C323.175 166.902 369.61 171.304 391.221 173.683C389.437 172.89 385.392 170.114 383.489 165.356C388.723 161.549 398.359 166.942 402.523 170.114L401.333 164.166L397.169 154.055L393.006 134.426C391.618 133.038 389.08 127.407 390.032 115.987C392.887 123.601 404.703 136.607 410.255 142.159C414.617 148.305 423.222 159.527 422.746 155.244C422.27 150.962 411.445 135.616 406.091 128.478L404.307 120.746C410.453 127.288 425.482 141.207 436.426 144.538C436.426 133.831 410.85 92.7897 409.065 86.8416C407.638 82.0832 383.092 56.7048 370.998 44.6104C378.73 50.3602 395.861 63.0494 402.523 67.8079C409.184 72.5663 427.901 96.3585 436.426 107.66C432.461 101.315 423.936 87.4364 421.556 82.678C419.177 77.9196 407.083 66.8165 401.333 61.8598L397.169 54.7221L390.032 44.6104L421.556 69.5923C423.737 72.368 428.099 76.8489 428.099 72.5663C428.099 68.2837 403.117 45.4035 390.626 34.4987H397.169L418.582 48.7741L406.091 34.4987L428.099 45.2052L404.307 23.7923C390.825 19.2321 361.957 9.27897 354.343 5.94806C346.73 2.61715 322.62 0.594806 311.517 0L289.509 10.1117C286.734 15.2667 281.777 24.9819 284.156 22.6027C287.13 19.6286 299.621 24.3871 304.38 23.7923Z" fill="#4E0000"/>
<path d="M286.535 891.019H279.993C275.829 880.313 267.383 855.688 266.907 842.84C266.312 826.78 268.096 794.066 271.665 782.17C275.234 770.274 291.294 728.042 298.432 718.525C304.142 710.912 345.223 650.321 365.05 620.977C387.652 593.814 433.452 532.708 435.832 505.585C432.858 541.273 405.497 596.59 404.307 597.78C403.117 598.969 399.549 610.271 404.307 606.702C408.114 603.847 422.548 585.685 429.289 576.962L450.107 606.702C460.814 612.452 482.821 623.713 485.201 622.762C487.58 621.81 487.382 608.486 486.985 601.943C484.087 578.564 477.573 531.498 474.161 525.591C474.074 525.463 473.986 525.337 473.899 525.214C473.984 525.311 474.071 525.437 474.161 525.591C485.356 542.06 495.303 592.537 494.123 606.702C495.55 620.977 495.511 640.408 495.312 648.338V689.975C484.606 692.552 460.576 697.707 450.107 697.707C437.021 697.707 415.013 689.38 404.307 688.785C395.742 688.309 391.618 688.587 390.626 688.785C392.609 696.121 397.764 711.269 402.523 713.172C407.281 715.076 411.246 718.327 412.634 719.715L351.369 747.671L300.216 769.084C295.458 773.248 285.227 783.478 282.372 791.092C278.803 800.609 273.45 816.668 273.45 825.59C273.45 834.513 275.234 876.744 286.535 891.019Z" fill="#4E0000"/>
<path d="M228.244 824.401C240.141 835.107 251.442 861.279 252.037 862.469C255.606 847.004 235.382 813.694 230.624 805.962C225.865 798.229 221.702 778.601 219.322 761.351C216.943 744.102 206.237 702.466 203.263 690.57C200.289 678.673 183.039 647.149 177.091 637.632C171.143 628.115 157.463 598.97 155.678 590.047C153.894 581.125 151.515 548.411 168.764 518.076C148.54 534.136 134.265 568.04 130.696 598.97C127.127 629.899 137.834 666.777 140.808 673.32C143.187 678.555 144.575 684.622 144.972 687.001C142.592 686.208 136.644 683.194 131.886 677.484C125.343 688.19 121.774 770.274 122.964 790.497C135.812 793.828 164.005 770.868 176.496 758.972C183.832 752.033 199.218 739.82 202.073 746.481C204.928 753.143 194.935 770.67 189.582 778.601L191.961 795.85C200.09 801.798 218.728 815.836 228.244 824.401Z" fill="#4E0000" stroke="#4E0000"/>
<path d="M145.566 657.26C140.213 642.985 139.024 610.865 139.618 609.081L150.325 637.632L176.496 694.733C183.436 708.414 196.363 736.013 192.556 736.964C188.749 737.916 183.039 733.792 180.66 731.611L176.496 748.266L163.411 762.541L152.109 760.757L137.834 751.24L139.618 719.12L162.221 696.518C158.454 688.19 149.849 668.681 145.566 657.26Z" fill="black" stroke="black"/>
<path d="M500.071 312.273C499.476 312.273 488.175 329.523 492.933 343.203C495.709 334.479 501.022 316.08 500.071 312.273Z" fill="#4E0000"/>
<path d="M263.338 562.686C265.717 564.471 285.941 592.427 285.346 616.814C261.554 603.49 260.761 575.177 263.338 562.686Z" fill="#4E0000"/>
<path d="M341.852 588.858C341.852 593.022 329.956 613.245 329.956 613.84C337.689 609.081 344.826 594.806 348.395 588.858C351.25 584.099 356.326 564.273 358.507 554.954L353.154 561.497C349.387 569.229 341.852 585.527 341.852 588.858Z" fill="#4E0000"/>
<path d="M470.33 318.816L483.416 306.325L475.089 318.816L476.278 340.229C475.287 342.212 473.067 346.534 472.115 347.961C471.163 349.389 464.977 354.108 462.003 356.289L459.029 369.374C458.831 370.167 458.196 371.04 457.245 368.185C456.055 364.616 460.219 353.315 460.814 352.72C461.289 352.244 468.149 344.194 471.52 340.229L470.33 318.816Z" fill="#4E0000"/>
<path d="M152.704 281.938C153.18 274.8 165.195 263.896 171.143 259.335L171.738 262.309C168.169 266.671 161.15 277.537 161.626 286.102C162.102 294.667 174.514 306.325 180.66 311.084C182.444 310.687 187.679 310.251 194.341 311.678C199.575 316.913 213.176 321.79 219.322 323.574C220.909 323.178 223.367 323.099 220.512 325.954C216.943 329.523 207.426 328.333 204.452 328.333C202.073 328.333 196.72 324.764 194.341 322.98C195.332 325.359 199.337 331.069 207.426 334.876C217.538 339.634 227.65 334.281 234.193 330.712C239.427 327.857 253.028 316.833 259.174 311.678C255.804 318.023 248.825 331.426 247.873 334.281C246.921 337.136 241.925 343.798 239.546 346.772L257.39 335.471C259.571 332.893 265.003 327.143 269.286 324.764C271.189 328.571 266.51 346.574 263.933 355.099C263.536 357.677 261.91 363.308 258.58 365.211C254.416 367.59 251.442 370.564 249.063 375.323C247.159 379.129 246.287 391.581 246.089 397.33L256.2 393.762L270.476 399.71C272.657 400.304 277.256 403.041 278.208 409.227C279.398 416.959 271.07 420.528 275.234 422.312C278.565 423.74 282.967 431.631 284.751 435.398C290.937 432.494 296.052 423.085 297.837 418.743C300.216 419.695 301.604 426.278 302 429.45C301.207 430.838 300.335 433.495 303.19 433.019C306.759 432.424 317.465 438.967 322.224 441.346C326.031 443.249 331.741 448.88 334.12 451.458C332.732 450.863 328.886 449.197 324.603 447.294C319.25 444.915 303.19 441.941 297.837 443.13C292.483 444.32 281.777 441.346 278.208 439.562C274.639 437.777 266.907 435.993 263.338 436.588C259.769 437.182 250.847 440.156 246.683 441.346C243.353 442.298 234.193 445.708 230.029 447.294C229.236 449.872 229.553 454.432 237.167 452.053C246.683 449.078 249.657 453.837 255.606 453.837C261.554 453.837 278.208 463.949 288.915 462.759C299.621 461.569 315.681 464.543 324.008 464.543C330.67 464.543 339.077 467.319 342.447 468.707C338.085 470.293 328.291 473.941 324.008 475.845C318.655 478.224 302 477.629 299.026 476.44C296.052 475.25 271.07 472.871 264.528 472.871C259.293 472.871 251.64 469.698 248.468 468.112C245.692 466.328 239.784 462.64 238.356 462.164C236.572 461.569 235.977 463.354 236.572 465.138C237.167 466.923 249.063 478.819 251.442 481.793C253.345 484.172 256.2 487.146 257.39 488.336L241.33 493.689L247.278 500.232C247.278 499.439 252.394 497.496 272.855 496.068C298.432 494.284 312.112 506.18 315.681 509.154C318.536 511.533 319.25 519.266 319.25 522.834L317.465 531.162C315.879 533.541 312.945 537.11 313.896 532.351C314.848 527.593 313.5 523.627 312.707 522.24C314.134 525.095 306.561 537.308 302.595 543.058H321.629C320.439 544.049 314.967 546.389 302.595 547.816C287.13 549.601 254.416 540.679 247.278 539.489C240.141 538.299 233.598 532.351 231.218 531.162C229.315 530.21 210.995 501.818 202.073 487.741C195.53 476.638 181.731 453.361 178.876 449.078C176.021 444.796 172.531 433.415 171.143 428.26L165.195 378.297C168.764 384.245 175.902 396.736 175.902 399.115C175.902 401.494 177.488 409.227 178.281 412.795L184.229 394.356L191.367 421.123C188.789 426.278 184.229 436.35 186.608 435.398C188.987 434.446 191.565 429.45 192.556 427.071L197.315 463.354L216.943 491.31L217.538 466.923C215.952 469.897 212.78 475.369 212.78 473.466V462.164L213.374 449.078C212.78 450.665 211.471 454.194 210.995 455.621C210.519 457.049 209.607 461.768 209.211 463.949C208.418 461.966 206.594 457.525 205.642 455.621C204.69 453.718 205.245 448.88 205.642 446.699C205.047 428.062 203.857 389.955 203.857 386.624C203.857 382.46 202.073 380.676 200.883 379.486C199.694 378.297 177.686 365.211 172.928 362.237C169.121 359.858 165.393 353.315 164.005 350.341L152.704 322.385C152.506 311.877 152.228 289.076 152.704 281.938Z" fill="#4E0000"/>
<path d="M364.455 487.741C363.86 485.362 365.05 480.008 365.05 478.819L366.834 484.172V494.284C366.239 492.896 364.931 489.644 364.455 487.741Z" fill="#4E0000"/>
<path d="M413.824 405.063C416.203 396.973 421.556 389.003 423.936 386.029L416.798 408.037C413.031 417.752 405.378 438.134 404.902 441.941C404.426 445.748 391.618 463.354 385.273 471.681L402.523 432.424C405.298 426.674 411.445 413.152 413.824 405.063Z" fill="#4E0000"/>
<path d="M319.25 418.743C319.25 419.338 321.629 433.614 323.413 433.614C325.198 433.614 320.439 419.338 319.25 418.743Z" fill="#4E0000"/>
<path d="M332.335 409.821C331.384 406.015 334.12 397.925 336.499 394.951C339.473 397.33 349.387 425.088 354.343 438.372C347.602 429.846 333.287 413.628 332.335 409.821Z" fill="#4E0000"/>
<path d="M321.034 376.512L317.465 382.46L325.198 391.382L324.603 382.46L321.034 376.512Z" fill="#4E0000" stroke="#4E0000"/>
<path d="M319.477 322.752C319.329 322.549 319.25 322.422 319.25 322.385C319.324 322.504 319.4 322.627 319.477 322.752C321.676 325.764 339.142 345.733 343.042 347.961C347.206 350.341 366.834 369.374 368.619 369.374C370.403 369.374 371.593 368.78 370.998 367.59C370.522 366.638 359.697 354.108 354.343 347.961H373.972L418.582 325.954L424.53 345.582L379.325 391.977L382.299 416.364C374.567 413.985 358.15 407.918 354.343 402.684C349.585 396.141 334.715 366.4 333.525 364.616C332.335 362.832 331.146 347.961 330.551 343.798C330.085 340.536 323.118 328.644 319.477 322.752Z" fill="#4E0000"/>
<path d="M368.024 315.842C356.128 317.745 338.878 309.894 331.741 305.73C333.644 297.641 345.619 292.843 351.369 291.455C351.568 292.446 352.321 295.143 353.748 297.998C355.533 301.567 362.076 309.299 368.619 307.515C373.853 306.087 377.937 300.179 379.325 297.403C384.084 296.927 388.049 299.98 389.437 301.567C387.256 305.532 379.92 313.939 368.024 315.842Z" fill="#4E0000"/>
<path d="M144.377 352.125L155.083 359.263V372.348C153.695 372.15 150.444 371.516 148.54 370.564C146.637 369.612 144.179 366.995 143.187 365.806L141.403 361.047C140.61 358.866 138.786 353.79 137.834 350.935C136.882 348.08 136.644 344.194 136.644 342.608L144.377 352.125Z" fill="#4E0000"/>
<path d="M133.076 306.92C131.886 305.73 129.507 303.232 129.507 302.756C128.912 304.342 127.603 308.704 127.127 313.463C126.652 318.221 129.308 321.393 130.696 322.385L146.756 338.445L147.351 330.117L133.076 318.221V306.92Z" fill="#4E0000"/>
<path d="M109.878 267.068C114.161 265.164 130.696 276.585 138.429 282.533V299.187V299.782C130.3 290.265 113.804 273.135 112.852 280.748C111.9 288.362 118.007 303.748 121.179 310.489V315.842C120.188 315.049 118.205 313.582 118.205 314.058C118.205 314.652 104.525 269.447 109.878 267.068Z" fill="#4E0000"/>
<path d="M200.883 287.291C203.738 282.533 210.797 280.946 213.969 280.748C214.96 285.11 218.371 294.072 224.081 295.024C229.791 295.975 235.58 293.437 237.761 292.05L244.899 284.317C247.476 285.308 253.107 288.243 255.011 292.05C252.83 294.032 247.397 298.473 243.115 300.377C237.761 302.756 210.4 302.756 200.883 287.291Z" fill="#4E0000"/>
<path d="M265.717 272.421L274.639 263.499C267.105 262.309 251.323 259.811 248.468 259.335C245.613 258.859 217.538 252.396 203.857 249.224C197.909 251.801 185.299 258.027 182.444 262.309C185.299 259.454 201.478 259.93 209.211 260.525C218.728 263.102 238.606 267.109 241.925 267.662C245.494 268.257 259.174 270.637 265.717 272.421Z" fill="#4E0000"/>
<path d="M323.413 263.499L326.982 254.577C327.577 258.146 329.005 265.64 329.956 267.068C330.908 268.495 343.438 268.852 349.585 268.852C354.938 269.05 367.429 269.566 374.567 270.042C381.704 270.518 388.247 274.205 390.626 275.99L407.876 291.455L387.652 281.938C385.471 281.145 380.396 279.202 377.541 277.774C374.686 276.347 359.697 275.99 352.559 275.99C347.404 276.386 336.142 276.942 332.335 275.99C328.529 275.038 324.801 267.266 323.413 263.499Z" fill="#4E0000"/>
<path d="M296.052 274.205L297.242 255.172C300.573 258.027 300.612 270.24 300.216 275.99L296.052 274.205Z" fill="#4E0000"/>
<path d="M259.769 371.754C261.673 366.519 265.122 362.832 266.907 363.426C266.907 364.616 267.74 365.925 268.691 366.4C269.643 366.876 270.079 368.978 270.476 369.374C271.665 366.4 276.225 340.031 279.398 327.738L281.182 292.05C283.363 290.265 288.558 286.458 291.889 285.507C295.22 284.555 301.604 287.093 304.38 288.481L302 355.099C302.595 356.685 303.904 360.571 304.38 363.426C304.855 366.281 301.802 382.46 300.216 390.193L285.346 394.356L262.743 381.27C262.148 382.064 259.293 383.174 257.39 381.27C255.487 379.367 258.58 374.133 259.769 371.754Z" fill="#4E0000"/>
<path d="M362.671 333.091C359.34 332.615 345.421 328.135 338.878 325.954C341.852 329.522 351.964 338.445 360.886 340.229C368.024 341.656 374.963 336.858 377.541 334.281C373.972 334.083 366.001 333.567 362.671 333.091Z" fill="#4E0000"/>
<path d="M373.972 518.671C365.883 529.615 346.413 542.661 337.689 547.816V550.196C338.878 549.997 342.447 549.244 347.206 547.816C351.964 546.389 369.412 532.946 377.541 526.403C384.282 518.473 398.24 502.016 400.143 499.637C402.047 497.258 407.281 487.146 409.66 482.388C401.135 489.922 382.061 507.726 373.972 518.671Z" fill="#4E0000"/>
<path d="M168.764 600.754L180.66 563.876L184.229 615.029C185.022 619.193 188.987 630.018 198.504 640.011C193.746 632.398 188.591 542.066 186.608 497.853L198.504 513.317C206.237 534.334 222.296 577.794 224.676 583.505C227.055 589.215 242.322 610.073 249.658 619.788C257.39 630.692 272.855 654.762 272.855 663.803C272.855 672.844 276.424 695.725 278.208 706.035L283.561 687.001C282.768 695.923 281.182 714.957 281.182 719.715C281.182 725.663 268.691 761.946 265.717 772.653C263.338 781.218 258.381 813.1 256.2 827.97C255.407 818.453 253.464 794.661 252.037 775.627C250.609 756.593 242.322 730.422 238.356 719.715C240.141 731.413 243.234 754.333 241.33 752.429C239.427 750.526 236.175 731.809 234.787 722.689C231.813 710.396 225.627 687.12 224.676 692.354C223.724 697.588 231.02 733.792 234.787 751.24L231.219 748.861L219.917 701.276C216.547 693.345 208.616 675.699 203.857 668.562C199.099 661.424 178.479 620.383 168.764 600.754Z" fill="#4E0000"/>
<path d="M407.281 667.967C400.143 664.993 397.764 657.855 390.032 641.201C385.255 655.532 389.003 677.441 389.866 682.837C397.346 680.458 421.644 685.811 432.858 688.785L406.091 635.253C404.109 641.795 401.571 657.498 407.281 667.967Z" fill="black"/>
<path d="M432.858 645.364C437.616 655.079 447.252 674.629 447.728 675.105L471.52 679.268L482.227 664.398L474.494 634.063L440.59 616.219L432.858 645.364Z" fill="black"/>
<path d="M345.421 687.595C344.826 688.785 335.31 701.276 345.421 716.146C348.752 696.636 346.809 688.983 345.421 687.595Z" fill="black"/>
<path d="M354.343 684.027C354.343 693.742 357.555 714.719 370.403 720.905C384.678 729.232 354.343 689.38 354.343 684.027Z" fill="black"/>
<path d="M390.032 684.027C390.032 683.899 389.97 683.488 389.866 682.837M389.866 682.837C389.003 677.441 385.255 655.532 390.032 641.201C397.764 657.855 400.143 664.993 407.281 667.967C401.571 657.498 404.109 641.795 406.091 635.253L432.858 688.785C421.644 685.811 397.346 680.458 389.866 682.837ZM447.728 675.105C447.252 674.629 437.616 655.079 432.858 645.364L440.59 616.219L474.494 634.063L482.227 664.398L471.52 679.268L447.728 675.105ZM345.421 687.595C344.826 688.785 335.31 701.276 345.421 716.146C348.752 696.636 346.809 688.983 345.421 687.595ZM354.343 684.027C354.343 693.742 357.555 714.719 370.403 720.905C384.678 729.232 354.343 689.38 354.343 684.027Z" stroke="black"/>
<path d="M288.915 805.962C285.108 821.189 290.501 847.995 293.673 859.494L300.811 787.523C298.432 787.324 292.721 790.735 288.915 805.962Z" fill="#4E0000"/>
<path d="M404.902 741.723L348.99 797.634C354.74 797.634 367.667 798.229 373.377 800.609C380.515 803.583 407.281 813.694 409.66 811.91C411.564 810.482 466.365 812.505 493.528 813.694H577.395V800.609C575.016 785.937 570.02 751.24 569.068 729.827C568.116 708.414 554.396 651.511 547.655 625.736L541.112 622.167L526.837 693.543C525.251 679.863 521.484 650.242 519.104 641.201C516.725 632.16 516.13 604.917 516.13 592.426L511.967 587.073C511.769 589.849 510.42 596.947 506.614 603.133C501.855 610.865 504.829 675.104 506.614 683.432C508.041 690.094 500.864 737.757 497.097 760.757H458.434L480.442 713.172L468.546 710.793C463.193 725.663 451.178 755.641 445.943 756.593C440.709 757.545 448.124 729.232 452.486 714.956H439.401C434.246 722.689 422.984 742.674 419.177 760.757C414.419 783.359 388.247 805.962 392.411 800.609C395.742 796.326 402.126 759.567 404.902 741.723Z" fill="#4E0000"/>
<path d="M602.972 712.577C606.779 700.681 622.006 664.398 629.144 647.744C629.144 642.033 605.748 620.382 594.05 610.271L567.284 591.832L582.749 630.494C584.137 637.037 587.269 651.431 588.697 656.666C590.124 661.9 589.292 687.397 588.697 699.492C586.714 687.992 582.749 663.327 582.749 656.666C582.749 650.004 574.421 622.96 570.258 610.271L563.715 630.494C567.482 659.838 575.611 719.596 577.99 723.879C580.369 728.161 584.93 786.73 586.912 815.479C590.679 786.135 599.165 724.473 602.972 712.577Z" fill="#4E0000"/>
<path d="M652.936 656.666H636.876C629.54 682.44 613.441 743.15 607.731 779.79C602.02 816.43 605.351 864.054 607.731 883.287V868.416L614.868 888.045C618.635 848.391 627.478 761.589 632.712 731.611C637.947 701.633 648.376 669.156 652.936 656.666Z" fill="#4E0000"/>
<path d="M636.876 778.006C638.779 750.407 649.962 705.44 655.315 686.406C660.549 698.302 659.082 723.086 657.694 733.99L648.772 791.687L632.118 852.952C632.911 839.469 634.973 805.605 636.876 778.006Z" fill="#4E0000"/>
<path d="M79.543 229.595C83.8256 222.458 84.1032 217.104 83.7067 215.32C85.6894 214.328 95.9597 208.539 121.179 193.312C152.704 174.278 267.502 177.847 298.432 175.468C329.361 173.089 375.161 179.631 388.247 180.226C401.333 180.821 406.686 184.985 419.772 186.769C428.813 186.769 464.779 199.062 481.632 205.208L510.182 224.242L479.253 208.182L422.151 192.122L401.333 190.933C411.841 194.7 434.404 202.591 440.59 204.018C446.776 205.446 460.219 213.337 466.167 217.104L400.143 201.044L344.232 194.502L287.13 193.312L239.546 194.502L187.798 198.07L153.299 202.829L117.611 212.346C112.852 214.923 102.027 220.792 96.7924 223.647C91.5581 226.502 83.1119 232.371 79.543 234.948C77.5473 236.138 77.2514 236.733 92.034 229.595C106.785 219.603 139.024 211.156 153.299 208.182C162.023 205.01 194.935 198.665 256.795 198.665C311.517 194.859 379.523 203.82 406.686 208.777C414.617 210.363 434.999 215.558 453.081 223.647C468.784 226.502 504.829 251.008 520.889 262.904C527.828 269.249 544.086 283.366 553.603 289.076C563.12 294.786 568.672 308.11 570.258 314.058L566.689 317.032C565.698 314.454 563.358 308.228 561.931 303.946C560.503 299.663 545.474 287.49 538.138 281.938C528.027 275.792 506.138 261.953 499.476 255.767C491.149 248.034 471.52 244.465 451.297 233.759C435.118 225.194 373.179 223.449 344.232 223.647H316.871L310.922 220.078L309.138 223.647H298.432L296.052 218.294L290.699 223.647C289.509 223.251 286.535 221.982 284.156 220.078C281.777 218.175 275.234 219.285 272.26 220.078C248.468 219.483 197.79 218.294 185.418 218.294C173.047 218.294 133.869 224.242 115.826 227.216C107.895 229.992 90.3685 236.495 83.7067 240.302C77.0449 244.108 68.6383 247.836 65.2677 249.224C68.2417 245.655 75.2604 236.733 79.543 229.595Z" fill="#4E0000"/>
<path d="M109.283 137.4C103.93 148.701 86.0859 206.398 86.6807 208.777L99.1716 200.45L127.722 186.769L166.385 177.847L237.167 170.114C237.365 165.753 237.642 156.434 237.167 154.055C236.572 151.081 239.546 138.59 241.925 135.021C243.828 132.166 243.511 127.883 243.115 126.099L228.839 123.72C225.469 122.53 218.609 119.913 218.133 118.961C217.538 117.772 209.211 118.961 207.426 120.151C205.999 121.102 198.504 119.754 194.935 118.961L186.608 114.203C188.591 113.608 193.032 112.775 194.935 114.203C197.315 115.987 209.805 117.772 214.564 116.582C219.322 115.392 225.865 117.177 228.839 118.961C231.218 120.389 241.727 120.746 246.683 120.746C246.287 118.366 245.732 111.823 246.683 104.686C247.635 97.5481 251.838 78.7126 253.821 70.1871L248.468 69.5923C246.485 69.1957 242.044 68.6406 240.141 69.5923C238.237 70.544 231.813 69.5923 228.839 68.9975L233.003 67.2131H229.434V64.239C229.434 63.6442 238.356 65.4286 243.115 66.0234C246.921 66.4993 254.218 64.6356 257.39 63.6442L261.554 50.5585L269.881 29.7403L249.063 29.1455C243.511 30.1368 233.122 31.2868 235.977 27.9559C238.832 24.625 253.425 23.3957 260.364 23.1974C263.735 22.9992 270.951 22.4837 272.855 22.0078C274.758 21.532 276.82 18.6372 277.613 17.2494L273.45 15.465L280.587 14.8701L289.509 0C284.751 0.198269 273.807 1.18961 268.096 3.56883C262.386 5.94806 239.149 14.0771 228.244 17.8442C220.314 22.9992 199.694 36.2832 180.66 48.1793C161.626 60.0754 142.989 81.2901 136.05 90.4105C128.912 102.307 113.566 128.359 109.283 137.4Z" fill="#4E0000"/>
<path d="M510.777 576.962C511.174 573.195 512.086 565.422 512.562 564.471C518.311 571.212 531.714 589.453 539.328 608.486C531.714 605.155 517.122 586.082 510.777 576.962Z" fill="#4E0000"/>
<path d="M120.585 680.458C118.205 671.337 113.328 652.74 112.852 651.312L109.878 710.793L99.1716 777.411V826.78L103.335 878.528C104.525 865.641 107.856 837.606 111.663 828.564C115.469 819.523 120.386 805.367 122.369 799.419L115.231 796.445C114.438 772.653 113.328 723.641 115.231 717.931C117.135 712.22 119.593 690.57 120.585 680.458Z" fill="#4E0000"/>
<path d="M164.6 789.902L157.463 795.85C162.221 800.609 162.221 816.867 161.626 824.401C158.652 829.358 151.99 841.412 149.135 849.977C146.28 858.543 150.325 873.373 152.704 879.718H168.169C165.988 873.77 161.626 860.446 161.626 854.736C161.626 847.598 167.574 836.297 172.928 826.185C177.21 818.096 174.712 810.522 172.928 807.746L164.6 789.902Z" fill="#4E0000"/>
<path d="M142.592 798.824L131.886 800.609C129.507 808.738 124.629 824.996 124.153 824.996C123.559 824.996 119.99 843.435 120.585 844.624C121.179 845.814 124.153 865.442 127.127 871.985C129.507 877.22 128.119 887.649 127.127 892.209H131.886L135.455 882.692L131.886 863.063C130.895 859.494 128.912 851.167 128.912 846.409C128.912 840.461 142.592 831.539 143.782 824.996C144.734 819.761 143.385 805.367 142.592 798.824Z" fill="#4E0000"/>
<path d="M457.245 131.452C458.038 136.805 460.338 147.75 463.193 148.702C466.048 149.653 460.417 137.598 457.245 131.452Z" fill="#4E0000"/>
<path d="M463.193 164.166C467.951 166.149 477.468 172.137 477.468 180.226C469.855 181.178 464.779 169.916 463.193 164.166Z" fill="#4E0000"/>
<path d="M374.5 810.5C365.7 807.7 341.5 805.667 330.5 805L310.5 814L295 891.5L330.5 930L399.5 823.5C394.833 820.333 383.3 813.3 374.5 810.5Z" fill="#4E0000"/>
<path d="M572 823.5L435.5 833.5L404.5 869L572 823.5Z" fill="#4E0000"/>
<path d="M46.5 661C54.1 653.4 79 648.833 90.5 647.5L105 661L46.5 718.5L9 707V685L17.5 670.5C24 670.5 38.9 668.6 46.5 661Z" fill="#4E0000"/>
<path d="M44.5 732L104 682.5L91.5 712V783.5C91.5 794.167 90.4 816.8 86 822C81.6 827.2 87.8333 861.167 91.5 877.5L116.5 904H35.5L64.5 815.5V779C63.5 774.333 60 763.7 54 758.5C48 753.3 45.1667 738.667 44.5 732Z" fill="#4E0000"/>
<path d="M143 884C140.6 884.4 136.333 889.333 134 895.5L157 918L287.5 930L202 899L193 879L170 884H151C149.333 883.833 145.4 883.6 143 884Z" fill="#4E0000"/>
<path d="M114 895.5L127.5 895C128.5 897.667 130.6 903.2 131 904C131.5 905 137 911 139 913C140.6 914.6 153 919.333 159 921.5L191 924.5L230.5 935L215.5 985.5L191 944L155.5 940.5L114 895.5Z" fill="#4E0000"/>
<path d="M410 885.5L590 823.5L494 918.5L394.5 984C358.667 983.333 291.4 981.3 309 978.5C326.6 975.7 342.667 947.333 348.5 933.5L369 903H394.5L410 885.5Z" fill="#4E0000"/>
<path d="M263.5 894L218.5 898.5L294 924L331.5 945.5L294 898.5L263.5 894Z" fill="#4E0000"/>
<path d="M240 935L228 982.5L322.5 1144L289.5 1010.5C289.667 1000.33 291.9 979.5 299.5 977.5C307.1 975.5 321 964.667 327 959.5V948L293.5 935H240Z" fill="#4E0000"/>
<path d="M38 728.5L12.5 722C-2.70001 752.4 18.8333 856 31.5 904L53 821.5L58 795.5L50 777.5C48.3333 775 44.4 769.6 42 768C39.6 766.4 38.3333 741 38 728.5Z" fill="#4E0000"/>
<path d="M603.5 894.5C597.9 891.3 592.167 852.5 590 833.5L514.5 919L459.5 953.5L565.5 939.5C580.5 925.833 609.1 897.7 603.5 894.5Z" fill="#4E0000"/>
</svg>
