<svg width="442" height="546" viewBox="0 0 442 546" fill="none" xmlns="http://www.w3.org/2000/svg">
<g filter="url(#filter0_d_53_796)">
<path d="M290.415 488.233L294.382 466.836L300.484 429.551L307.207 411.724L303.318 399.217L307.87 382.427C308.564 379.167 309.237 372.334 306.374 371.084C303.511 369.833 308.008 355.312 310.615 348.208L282.131 341.218L266.503 412.905L261.67 414.708L249.644 462.592L257.452 469.977L254.695 484.85L263.854 501.933L270.82 512.401L290.415 488.233Z" fill="#F20000"/>
<path d="M277.717 338.331L276.333 347.251C275.766 347.236 274.573 346.943 274.336 345.891" stroke="#F20000" stroke-width="5"/>
<path d="M281.728 322.52L280.337 317.404L283.981 313.761" stroke="#F20000" stroke-width="5"/>
<path d="M304.555 382.352C303.794 382.091 301.927 382.261 300.55 385.029C298.829 388.489 295.724 400.868 297.399 403.968C298.739 406.447 300.888 410.223 301.795 411.8C300.771 412.63 298.536 413.949 297.781 412.586C297.026 411.222 300.007 409.31 301.593 408.524" stroke="#380000" stroke-width="5"/>
<path d="M317.911 421.445C318.215 421.262 319.023 421.076 319.824 421.8C320.626 422.525 324.388 426.785 326.169 428.824" stroke="#F20000" stroke-width="5"/>
<path d="M301.554 440.275C301.844 441.948 302.852 445.41 304.565 445.871C306.708 446.449 312.458 446.975 313.437 447.516C314.416 448.058 321.922 451.248 321.863 456.905C321.816 461.431 319.599 471.87 318.496 476.524C316.552 478.923 311.751 483.497 308.102 482.605" stroke="#380000" stroke-width="8"/>
<path d="M289.286 457.434C288.716 461.287 292.714 465.477 294.784 467.091L303.208 433.295L301.556 430.559L303.917 429.467L308.041 413.048L309.008 407.829L306.022 406.466L304.225 406.942L304.716 413.511L302.235 414.761C298.157 427.38 289.857 453.582 289.286 457.434Z" fill="#470000"/>
<path d="M295.859 419.067L288.7 457.686L288.571 458.381L301.965 415.25L295.859 419.067Z" fill="#BF2424"/>
<path d="M271.227 501.949C271.266 501.74 272.755 495.005 273.494 491.663" stroke="#350000" stroke-width="5"/>
<path d="M274.229 471.197L273.892 484.18" stroke="#350000" stroke-width="5"/>
<path d="M270.451 491.101C270.644 492 273.456 492.198 274.838 492.184C275.302 492.27 276.252 492.32 276.343 491.833L277.165 487.397L273.854 483.904L269.946 486.059L269.639 487.711C269.829 488.466 270.257 490.201 270.451 491.101Z" fill="#FF0000"/>
<path d="M264.327 467.832L258.233 461.395L258.63 461.198L264.804 467.201L264.327 467.832Z" fill="#3F0000"/>
<path d="M294.294 345.003C293.536 346.374 293.954 347.969 294.258 348.595L297.163 350.393L297.664 345.267C297.007 345.086 295.415 344.779 294.294 345.003Z" fill="#AC1515"/>
<path d="M296.276 355.177L286.275 396.508L277.45 388.304L284.854 363.406L293.058 354.58L296.276 355.177Z" fill="#F20000"/>
<path d="M286.259 396.594L277.205 388.168C275.786 395.822 281.808 399.577 284.996 400.498L286.259 396.594Z" fill="#F20000"/>
<path d="M294.193 348.942C294.405 348.19 296.192 349.643 297.06 350.464L296.173 355.247C295.572 355.256 294.121 355.155 293.129 354.683C291.889 354.093 293.929 349.883 294.193 348.942Z" fill="#8F1B1B"/>
<path d="M293.729 350.476C293.196 351.025 293.393 353.263 293.558 354.313L284.736 363.564C284.024 367.241 282.396 375.114 281.579 377.194C280.557 379.794 279.867 384.974 276.799 388.903C275.854 385.849 280.006 368.205 282.201 359.765L294.052 348.737C294.167 349.088 294.263 349.928 293.729 350.476Z" fill="#F20000"/>
<path d="M316.025 426.763L305.281 424.052L308.128 413.063L316.391 414.595L318.752 418.362L316.025 426.763Z" fill="#8C0000"/>
<path d="M308.603 419.72C308.379 418.599 310.895 416.096 312.18 414.985L314.322 417.991C314.271 418.911 314.068 420.913 313.661 421.557C313.254 422.201 311.863 422.843 311.219 423.084C310.44 422.43 308.827 420.841 308.603 419.72Z" fill="#F20000"/>
<path d="M311.748 418.773C311.057 419.005 310.038 418.126 309.615 417.658L312.164 415.071L313.887 417.91C313.462 418.101 312.439 418.541 311.748 418.773Z" fill="#5E0000"/>
<path d="M272.711 427.461L267.21 421.223L266.137 422.644L264.321 430.494L270.735 431.323L272.711 427.461Z" fill="#F20000"/>
<path d="M234.233 418.078L234.943 414.251C239.365 415.311 248.919 417.58 251.759 418.178C255.309 418.926 255.463 420.035 256.111 420.425C256.629 420.736 256.109 423.993 255.784 425.582C255.963 425.105 256.782 424.472 258.632 425.75C260.482 427.029 259.989 430.89 259.51 432.661L253.335 431.516C252.042 436.225 250.514 448.285 247.09 457.439C238.546 456.935 229.36 453.102 226.792 451.427L225.76 454.564L224.127 453.182L229.501 436.814L226.65 432.777L230.658 417.955C231.796 418.286 234.104 418.774 234.233 418.078Z" fill="#F20000"/>
<path d="M234.706 439.309L245.366 443.444L246.026 442.307L246.124 439.356L250.635 434.434L251.618 429.129L252.643 427.969L251.232 426.358C251.234 425.699 251.39 424.246 251.993 423.71C252.747 423.04 252.428 421.362 251.868 420.988C251.419 420.689 246.233 419.193 243.695 418.483C243.116 418.046 241.742 417.275 240.873 417.69C240.005 418.105 236.4 432.276 234.706 439.309Z" fill="#670000"/>
<path d="M240.375 431.544C240.516 432.722 241.697 432.988 242.269 432.975L244.444 430.949L242.995 429.061L241.158 429.26C240.838 429.53 240.233 430.366 240.375 431.544Z" fill="#F20000"/>
<path d="M238.921 435.502C238.325 435.607 238.281 438.952 238.333 440.611L243.532 442.654L243.678 441.872L244.226 438.914L241.008 435.889C240.56 435.716 239.516 435.396 238.921 435.502Z" fill="#F20000"/>
<path d="M242.252 433.06C241.785 434.413 242.68 435.119 243.186 435.303L243.611 435.921L246.121 435.487C246.53 434.573 247.389 432.429 247.552 431.164C247.715 429.898 245.981 430.093 245.094 430.348C244.341 430.689 242.719 431.707 242.252 433.06Z" fill="#F20000"/>
<path d="M204.307 529.04L208.299 527.891L220.92 532.12L225.387 537.626L221.589 537.732L219.792 535.779C218.636 534.575 216.19 532.107 215.659 531.864C214.996 531.561 210.486 531.625 209.339 531.502C208.421 531.404 205.602 529.82 204.307 529.04Z" fill="#F20000"/>
<path d="M205.931 526.102L208.596 524.347L222.283 529.133L225.317 532.665C223.48 532.384 219.69 531.766 219.229 531.536C218.767 531.307 211.529 528.909 207.967 527.739L205.931 526.102Z" fill="#F20000"/>
<path d="M206.728 522.292L209.508 521.368L226.082 526.6L222.284 529.134L208.509 524.332L206.728 522.292Z" fill="#F20000"/>
<path d="M207.08 518.938L210.034 518.046L224.382 524.125L226.066 526.686L209.856 521.432L207.08 518.938Z" fill="#F20000"/>
<path d="M210.208 518.078C209.594 517.893 209.989 516.508 210.263 515.839L227.952 521.368L224.398 524.038C219.923 522.128 210.821 518.264 210.208 518.078Z" fill="#F20000"/>
<path d="M212.71 485.164L218.026 483.181L234.033 487.588L236.691 490.24L234.038 500.184C229.07 498.184 218.731 494.036 217.113 493.448C215.494 492.86 213.562 493.509 212.799 493.908L212.71 485.164Z" fill="#F20000"/>
<path d="M233.93 487.658L234.902 474.163L224.72 471.825L217.804 483.409L233.93 487.658Z" fill="#F20000"/>
<path d="M268.598 420.041C267.616 420.291 266.537 421.939 266.12 422.731L266.495 417.312L267.581 416.794C269.323 416.457 272.874 415.904 273.145 416.386C273.415 416.868 272.505 419.026 272.016 420.045C271.286 419.94 269.58 419.792 268.598 420.041Z" fill="#F20000"/>
<path d="M270.698 439.773C270.84 439.008 266.353 434.74 264.092 432.701L262.294 433.177L265.07 438.1L269.815 441.139C270.05 441.003 270.556 440.539 270.698 439.773Z" fill="#F20000"/>
<path d="M268.788 406.401C270.586 407.214 274.229 408.885 274.412 409.063C274.595 409.241 274.421 411.764 274.311 413.003C274.136 414.11 273.686 416.378 273.286 416.592C272.887 416.805 268.465 417.197 266.305 417.367L266.86 412.431L268.788 406.401Z" fill="#F20000"/>
<path d="M246.915 427.807L246.803 425.987L248.282 423.832L249.39 426.107L249.377 427.634L247.608 428.925L246.915 427.807Z" fill="#F20000"/>
<path d="M243.228 421.007L243.68 418.571L250.406 420.628C251.011 420.92 252.2 421.626 252.11 422.113C252.019 422.6 251.258 422.825 250.889 422.876L243.228 421.007Z" fill="#FF0000"/>
<path d="M242.776 441.885C242.787 442.607 244.703 443.142 245.659 443.32C246.697 443.062 246.913 439.953 247.203 438.388C247.436 437.135 249.345 435.246 250.271 434.458L240.977 436.064C241.57 436.744 242.878 438.233 243.357 438.754C243.956 439.405 242.764 440.983 242.776 441.885Z" fill="#F20000"/>
<path d="M238.707 405.592C239.156 403.948 240.716 402.846 241.44 402.5C245.339 402.983 253.361 404.296 254.255 405.685C255.149 407.075 253.88 414.823 253.134 418.523L234.73 413.942C234.598 413.198 234.394 411.486 234.631 410.595C234.868 409.703 237.05 409.034 238.111 408.811C238.123 408.423 238.259 407.236 238.707 405.592Z" fill="#F20000"/>
<path d="M241.984 402.962C240.745 402.66 239.61 401.532 239.198 401.006C240.754 394.067 243.982 379.76 244.444 378.046C244.906 376.333 245.811 376.171 246.206 376.304C250.76 377.298 260.039 379.336 260.722 379.535C261.405 379.733 261.174 381.628 260.973 382.55C259.362 389.299 256.028 403.208 255.579 404.852C255.13 406.496 253.539 406.153 252.799 405.776C249.71 404.964 243.224 403.263 241.984 402.962Z" fill="#F20000"/>
<path d="M365.884 53.4596C363.587 53.0339 361.886 50.9192 361.323 49.915L370.452 20.5682C372.782 20.9402 377.575 21.7447 378.106 21.9871C378.637 22.2295 379.158 24.4013 379.352 25.457L371.953 53.2352C370.887 53.4874 368.18 53.8853 365.884 53.4596Z" fill="#F20000"/>
<path d="M363.452 52.0185L361.195 61.7666L368.066 63.0404L369.888 53.2117C367.393 53.469 364.557 52.5235 363.452 52.0185Z" fill="#F20000"/>
<path d="M276.929 332.876C277.274 331.789 278.737 331.532 279.426 331.54L280.653 331.228L281.558 335.084C281.65 335.881 281.427 337.633 279.798 338.267C278.169 338.9 276.785 337.858 276.297 337.258C276.363 336.25 276.583 333.964 276.929 332.876Z" fill="#F20000"/>
<path d="M365.957 71.0161L371.746 71.8193L370.346 80.8266L366.867 80.1816L363.649 79.585L363.388 79.5367L363.682 78.5617L363.782 75.4711L364.536 75.7289L365.957 71.0161Z" fill="#8F1B1B"/>
<path d="M348.582 66.7164L356.792 76.7854L361.379 61.2615L350.68 59.2782L348.582 66.7164Z" fill="#F20000"/>
<path d="M361.14 61.5768L357.242 76.7786L363.865 78.9061L368.098 62.8667L361.14 61.5768Z" fill="#F20000"/>
<path d="M366.401 77.8468C366.226 77.2385 364.98 77.1034 364.378 77.1119L363.65 79.5859L365.998 80.0213C366.205 79.5499 366.576 78.4551 366.401 77.8468Z" fill="#F20000"/>
<path d="M333.288 172.025L356.862 76.8897L363.746 79.0656L341.638 173.573L333.288 172.025Z" fill="#F20000"/>
<path d="M342.054 188.314C340.804 189.234 338.008 188.944 336.767 188.684L340.375 172.618L342.221 171.881C342.896 173.416 344.64 177.08 346.214 179.459C345.824 180.106 343.602 179.964 341.518 178.588C340.738 179.883 341.294 186.104 342.054 188.314Z" fill="#F20000"/>
<path d="M340.36 172.706C338.512 170.636 335.473 171.08 334.184 171.561L331.216 178.838L329.732 186.84L332.999 189.605L336.681 188.668C337.714 184.391 339.895 175.211 340.36 172.706Z" fill="#F20000"/>
<path d="M336.61 188.565C334.28 188.709 331.84 187.441 330.911 186.789L322.051 211.777L327.356 212.76L331.444 213.518C332.903 206.621 335.978 191.975 336.61 188.565Z" fill="#F20000"/>
<path d="M333.386 217.116C333.695 215.446 331.784 213.46 330.79 212.676L327.787 213.829L327.013 218.004L330.225 220.579C331.149 220.12 333.076 218.786 333.386 217.116Z" fill="#F20000"/>
<path d="M322.437 212.119C322.089 213.998 322.573 217.212 322.858 218.585L330.589 220.558C329.729 219.859 327.998 218.134 327.952 216.83C327.894 215.2 329.653 214.446 330.758 212.852C330.114 211.473 322.872 209.771 322.437 212.119Z" fill="#F20000"/>
<path d="M322.112 177.96C321.205 178.584 320.906 181.065 320.871 182.228L324.217 184.558L331.569 184.212L334.184 171.561C331.764 173.452 326.836 177.324 326.48 177.69C326.036 178.148 323.246 177.181 322.112 177.96Z" fill="#F20000"/>
<path d="M325.344 183.327L331.687 184.053C329.55 191.214 325.149 206.125 324.64 208.478C324.349 209.825 324.174 210.345 323.729 210.483L322.99 214.47L318.985 214.717L317.495 211.112L318.672 204.762L319.718 205.753C320.328 199.819 323.372 189.346 325.344 183.327Z" fill="#F20000"/>
<path d="M314.165 203.837C314.008 205.464 314.742 206.553 315.128 206.895C315.728 207.216 317.334 207.808 318.955 207.604C320.576 207.401 321.326 205.495 321.498 204.567L325.48 183.083L320.783 182.212L318.012 185.027L315.939 194.27C315.413 196.781 314.323 202.211 314.165 203.837Z" fill="#F20000"/>
<path d="M314.719 206.189L312.946 215.757L322.774 217.579L323.136 213.687C321.958 213.409 319.452 212.788 318.851 212.533C318.101 212.214 319.071 208.435 319.329 207.044C318.742 206.719 316.011 206.339 314.719 206.189Z" fill="#8F1B1B"/>
<path d="M310.114 215.502L308.441 221.13L323.498 225.811L331.317 225.371L330.518 220.454C327.779 219.377 321.869 217.124 320.142 216.731C318.416 216.339 312.737 215.749 310.114 215.502Z" fill="#F20000"/>
<path d="M280.827 333.69C280.742 332.595 279.858 331.801 279.426 331.541L313.669 343.377C313.775 343.936 313.779 345.502 312.943 347.291C312.108 349.079 309.249 348.615 307.924 348.16C300.238 346.105 284.22 341.786 281.641 340.948C278.416 339.901 280.933 335.059 280.827 333.69Z" fill="#F20000"/>
<path d="M313.511 343.257L309.671 341.646L314.363 316.335L312.042 305.558L315.36 272.615L327.086 224.406L331.261 225.18L320.377 283.891C319.062 290.989 321.115 302.562 322.306 307.461L313.511 343.257Z" fill="#F20000"/>
<path d="M308.441 221.129C306.76 223.985 288.386 295.984 279.41 331.627L309.323 341.581C310.86 334.908 314.578 319.253 317.155 310.014C312.187 302.256 316.814 271.894 319.748 257.683L326.88 224.548C322.504 222.597 312.688 219.182 308.441 221.129Z" fill="#F20000"/>
<path d="M256.378 420.924L266.033 422.714L266.888 413.246L259.321 411.843C259.28 412.226 259.159 413.109 258.999 413.583C258.839 414.057 255.62 413.526 254.031 413.202L253.015 418.681C254.907 418.96 256.045 420.293 256.378 420.924Z" fill="#F20000"/>
<path d="M255.714 425.479L256.411 420.75L266.017 422.801L264.44 430.336L260.114 429.894C260.045 429.131 259.748 427.307 259.106 426.108C258.465 424.91 256.577 425.19 255.714 425.479Z" fill="#F20000"/>
<path d="M260.114 429.894L270.664 431.22C270.803 431.606 271.026 432.475 270.809 432.867C270.592 433.258 269.677 433.796 269.246 434.016L259.598 432.678L260.114 429.894Z" fill="#F20000"/>
<path d="M265.334 460.461L256.104 461.719L262.223 433.074C263.646 435.107 266.805 439.322 268.063 439.915C269.32 440.508 270.264 440.173 270.579 439.931L265.334 460.461Z" fill="#F20000"/>
<path d="M283.761 462.978C282.135 462.821 280.212 460.281 279.455 459.031L282.083 444.854C278.918 442.899 278.826 438.642 279.175 436.757L283.287 414.577L288.506 415.545L285.91 429.549L288.706 444.552L288.5 463.137C287.598 463.15 285.387 463.136 283.761 462.978Z" fill="#F20000"/>
<path d="M283.373 414.593C283.58 411.536 285.728 410.141 286.776 409.826C289.021 410.53 288.864 413.931 288.505 415.544L283.373 414.593Z" fill="#650000"/>
<path d="M299.825 402.528L304.904 407.158L307.494 408.718L308.128 413.064L316.304 414.579L318.72 418.536C328.467 420.313 348.48 423.981 350.554 424.437C352.629 424.894 362.761 422.652 367.568 421.473L364.673 382.25C357.191 382.003 341.262 381.383 337.396 380.882C333.53 380.382 322.12 377.061 316.898 375.463L312.933 387.144L310.961 390.017C309.634 390.221 306.679 390.303 305.481 389.001C304.283 387.7 309.022 387.049 311.541 386.886L315.303 374.358C314.973 373.877 314.033 372.863 312.92 372.656L306.831 371.528L299.825 402.528Z" fill="#F20000"/>
<path d="M300.326 463.89C298.88 462.758 296.289 463.501 295.174 464.014L297.422 454.804L303.953 462.763C304.812 463.792 307.164 466.021 309.7 466.707C312.236 467.393 314.004 465.976 314.571 465.181L318.826 467.949L314.982 472.185C312.766 472.494 307.397 470.719 304.989 469.793C304.037 468.297 301.771 465.021 300.326 463.89Z" fill="#6E0000"/>
<path d="M253.358 431.881L249.499 447.359C249.969 448.706 254.063 449.916 255.661 450.032C256.939 450.125 258.208 449.394 258.545 449.036L262.136 433.058L253.358 431.881Z" fill="#F20000"/>
<path d="M246.329 460.087C246.363 459.518 248.456 451.365 249.498 447.36C250.583 447.98 252.536 448.93 253.915 449.258C255.294 449.586 257.762 449.371 258.544 449.036C257.739 453.056 256.056 461.297 255.762 462.106C255.394 463.117 246.287 460.799 246.329 460.087Z" fill="#F20000"/>
<path d="M243.807 459.619L242.065 469.013L244.301 467.628L247.019 457.336L243.807 459.619Z" fill="#F20000"/>
<path d="M246.329 460.087L255.729 462.28L253.834 470.565L252.268 470.275L244.301 467.629L246.329 460.087Z" fill="#F20000"/>
<path d="M241.979 468.998L250.506 472.018L252.372 470.205L244.302 467.629L241.979 468.998Z" fill="#F20000"/>
<path d="M263.171 502.706L260.375 501.288L261.231 489.391C261.914 488.618 263.554 487.051 264.649 486.966C266.018 486.86 267.358 488.368 267.957 489.019C268.556 489.669 267.499 495.861 267.466 496.035L266.015 503.863L263.171 502.706Z" fill="#F20000"/>
<path d="M247.82 585.51C247.095 590.198 242.84 590.375 240.803 589.877L243.044 577.787L246.591 558.651L253.912 535.177L254.801 534.262C256.295 534.779 259.291 535.958 259.327 536.541C259.363 537.123 257.483 543.576 256.539 546.73C255.843 550.32 254.253 557.409 253.457 557.045C252.66 556.682 251.151 557.188 250.496 557.486C250.259 558.282 249.813 560.004 249.932 560.53C250.05 561.056 251.435 561.319 252.113 561.384L252.28 563.395C252.055 564.283 251.555 566.139 251.351 566.461C251.148 566.784 249.353 566.241 248.481 565.929L247.224 567.856C247.206 568.602 247.261 570.183 247.626 570.539C247.992 570.895 249.66 571.216 250.448 571.332L249.388 576.084C249.167 577.273 248.545 580.822 247.82 585.51Z" fill="#C10001"/>
<path d="M313.536 607.14C312.715 615.84 305.67 648.116 302.25 663.167L292.341 659.351C282.719 654.958 262.309 645.668 257.645 643.652C252.98 641.636 237.148 638.713 229.815 637.503C232.691 624.091 238.912 595.807 240.787 589.965C245.368 590.004 247.185 588.452 247.395 587.321C247.562 586.416 247.379 584.169 247.266 583.159L250.732 569.316C252.102 569.69 255.012 570.397 255.69 570.235C256.368 570.073 256.489 567.384 256.464 566.06L261.892 568.326L262.827 563.281L257.676 560.977C257.714 560.774 257.772 560.167 257.706 559.363C257.639 558.559 255.247 557.258 254.059 556.708C255.809 550.344 259.264 537.465 259.089 536.857C258.914 536.249 256.716 535.098 255.639 534.598C256.258 529.315 260.773 511.108 263.083 502.69C264.601 503.241 267.88 504.479 268.859 505.02C269.838 505.562 271.995 505.092 272.951 504.789L274.495 499.857C274.31 497.454 274.221 492.501 275.337 491.916C276.453 491.331 276.853 488.268 276.913 486.81L277.511 478.734C278.14 476.631 279.729 472.109 281.043 470.841C282.358 469.574 286.404 471.205 288.262 472.18L292.933 473.675L293.546 470.37C293.337 471.501 295.858 476.827 298.097 479.311C299.887 481.298 305.582 482.288 308.205 482.534L307.286 487.492C307.769 489.741 309.398 494.541 312.053 495.753C314.707 496.965 326.14 502.263 331.525 504.761C334.226 507.181 339.632 512.184 339.655 512.836C339.684 513.651 328.827 529.992 327.683 531.309C326.768 532.363 326.883 534.01 327.055 534.702C325.277 534.582 321.395 534.462 320.083 534.939C318.443 535.534 315.765 538.817 315.482 540.833C315.254 542.447 315.715 556.561 315.973 563.417C315.503 574.366 314.357 598.439 313.536 607.14Z" fill="#F20000"/>
<path d="M235.018 588.085C236.476 589.147 239.482 589.723 240.803 589.877L244.512 569.872C245.35 565.349 247.228 555.801 248.033 553.791C248.837 551.781 252.367 540.439 254.032 535.02C251.793 534.965 247.041 534.875 245.945 534.96C244.576 535.066 242.659 538.13 242.227 539.489C241.881 540.577 242.213 543.445 242.422 544.744L238.039 556.257C237.16 559.542 235.292 566.706 234.854 569.071C234.305 572.029 232.41 580.314 232.467 581.944C232.525 583.575 233.194 586.758 235.018 588.085Z" fill="#3A0000"/>
<path d="M260.358 501.375C257.837 498.958 252.764 493.616 252.638 491.577C251.543 490.204 249.324 486.644 249.209 483.384C249.093 480.124 250.036 474.39 250.522 471.931L252.268 470.276L253.829 470.565C254.489 467.547 255.279 464.177 255.714 462.367L262.269 468.261C261.153 472.822 259.011 482.34 259.366 483.917C259.81 485.889 259.607 487.471 261.414 488.885C262.86 490.017 261.313 497.683 260.358 501.375Z" fill="#F20000"/>
<path d="M374.991 14.0315L373.669 21.1638L377.606 22.2534L379.265 20.5817L379.514 14.8699L374.991 14.0315Z" fill="#F20000"/>
<path d="M372.933 14.4609C373.323 13.5254 374.41 13.7749 374.905 14.0167L373.567 21.236L372.175 20.978L371.918 19.9406C372.094 18.5038 372.544 15.3963 372.933 14.4609Z" fill="#F20000"/>
<path d="M343.328 57.1952L350.767 59.2939L348.581 66.716L340.759 65.7158L343.328 57.1952Z" fill="#F20000"/>
<path d="M227.5 459.746C228.06 457.115 226.795 455.297 226.093 454.717L224.025 453.254C224.242 452.244 224.818 450.432 225.385 451.257C225.952 452.082 240.545 455.866 247.075 457.527C244.108 459.616 236.626 463.903 235.994 465.369C235.362 466.836 234.946 471.833 234.817 474.148L224.791 471.929C225.461 468.965 226.94 462.377 227.5 459.746Z" fill="#F20000"/>
<path d="M213.959 497.362C214.428 495.218 213.483 493.945 212.951 493.576C214.926 491.855 219.3 493.464 221.24 494.483L233.967 500.081L227.817 521.613L210.035 515.618C211.147 510.426 213.489 499.506 213.959 497.362Z" fill="#F20000"/>
<path d="M223.515 433.186L226.721 432.88L229.558 422.43C229.311 422.144 228.302 420.956 226.24 418.486C223.418 420.122 222.018 422.982 221.671 424.207L223.053 425.003C223.191 425.388 223.407 426.49 223.162 427.812C222.917 429.134 220.923 430.186 219.956 430.547C220.297 430.97 220.948 431.99 220.819 432.686C220.658 433.556 221.205 435.457 221.743 435.466C222.173 435.474 223.104 433.949 223.515 433.186Z" fill="#F20000"/>
<path d="M191.009 255.511C157.009 240.011 152.009 176.511 150.009 138.011C158.509 73.5109 208.509 69.5109 239.509 74.0109C270.509 78.5109 281.509 138.011 283.009 155.511C284.209 169.511 267.842 219.344 259.509 242.511C248.009 252.011 218.209 267.911 191.009 255.511Z" fill="#C6C6C6"/>
<path d="M179 291.507C189.8 283.907 189.167 254.007 187.5 240.007C202.667 237.841 232.2 234.807 229 240.007C225 246.507 236.5 291.507 282 291.507C327.5 291.507 380 340.507 392.5 365.007C402.5 384.607 426.667 496.841 437.5 550.507H4C13 490.841 33 366.707 41 347.507C51 323.507 165.5 301.007 179 291.507Z" fill="#C6C6C6"/>
</g>
<path d="M128 148.507C140.8 145.307 155 147.174 160.5 148.507L256 145.007C270.833 146.174 300.4 147.807 300 145.007C299.6 142.207 285.167 136.84 278 134.507H165C147.333 140.507 115.2 151.707 128 148.507Z" fill="#C6C6C6"/>
<defs>
<filter id="filter0_d_53_796" x="0" y="13.7944" width="441.5" height="657.389" filterUnits="userSpaceOnUse" color-interpolation-filters="sRGB">
<feFlood flood-opacity="0" result="BackgroundImageFix"/>
<feColorMatrix in="SourceAlpha" type="matrix" values="0 0 0 0 0 0 0 0 0 0 0 0 0 0 0 0 0 0 127 0" result="hardAlpha"/>
<feOffset dy="4"/>
<feGaussianBlur stdDeviation="2"/>
<feComposite in2="hardAlpha" operator="out"/>
<feColorMatrix type="matrix" values="0 0 0 0 0 0 0 0 0 0 0 0 0 0 0 0 0 0 0.25 0"/>
<feBlend mode="normal" in2="BackgroundImageFix" result="effect1_dropShadow_53_796"/>
<feBlend mode="normal" in="SourceGraphic" in2="effect1_dropShadow_53_796" result="shape"/>
</filter>
</defs>
</svg>
