<svg width="1440" height="1024" viewBox="0 0 1440 1024" fill="none" xmlns="http://www.w3.org/2000/svg">
<path d="M268.666 231.497C273.343 232.687 305.6 257.473 314.06 262.466C346.302 281.503 360.827 283.302 393.701 294.604C452.396 314.763 462.765 362.711 490.268 412.139C492.659 416.435 496.982 419.154 499.189 423.327C507.725 439.353 507.117 471.663 509.354 490.123C513.87 500.259 522.983 491.081 525.434 498.878L517.979 500.326C518.727 502.515 519.455 503.029 521.359 504.047C525.985 506.498 584.613 512.65 593.376 512.687C611.762 512.762 633.513 510.696 652.599 509.972C669.4 509.336 682.923 502.86 700.262 510.857C713.812 486.283 734.187 466.91 752.666 446.157C755.93 442.483 758.149 435.49 761.721 432.535C767.244 427.977 772.516 431.345 774.359 429.235C775.592 427.826 793.22 399.152 793.885 397.399C797.652 387.457 792.82 377.824 796.754 368.063C800.55 364.787 801.416 367.818 802.239 371.376C804.186 379.831 798.429 390.1 806.874 398.344C813.63 400.373 817.134 371.847 821.834 367.931C825.813 364.633 828.06 368.848 828.27 372.411L833.372 366.792C844.083 380.522 829.907 392.54 827.767 405.943L852.75 386.371C852.638 406.561 834.065 412.106 821.097 423.62C823.841 432.484 830.263 421.094 836.68 421.659L842.893 427.903C833.499 433.963 825.307 438.275 814.068 439.196C809.929 439.536 805.592 436.906 802.106 437.655C786.49 440.996 793.854 445.196 793.471 449.434C793.276 451.62 786.602 457.817 784.843 462.231C779.72 475.062 777.392 479.618 771.247 492.102C762.792 509.261 755.563 526.897 746 543.529C755.148 568.147 766.344 591.967 777.016 615.952C778.698 619.739 777.172 624.022 779.266 628.08C784.385 637.99 802.018 655.308 813.84 656.053C822.463 656.59 831.436 649.437 837.26 659.533C847.654 677.561 854.878 723.699 847.943 743.813C835.648 779.47 780.456 794.768 755.862 762.432C751.111 773.447 747.002 784.798 742.723 796.018C739.967 803.265 745.85 807.716 732.355 811.71C755.799 836.975 779.478 866.048 798.785 894.732C801.763 899.151 802.969 906.58 805.48 909.364C810.864 915.345 820.685 910.845 827.535 911.977C839.915 914.028 853.228 918.797 861.942 928.382C851.966 940.544 829.196 913.829 825.347 937.717C822.701 954.162 858.056 950.652 862.311 958.714C864.022 961.949 860.626 962.859 857.577 963.232C846.664 964.587 835.046 958.683 824.048 959.484C828.139 974.531 851.001 973.542 858.037 980.554C864.999 987.493 845.19 985.496 843.669 984.44L850.482 991.659C834.153 994.77 815.266 980.607 806.581 968.054C800.936 959.885 790.747 931.524 784.429 929.783C781.396 928.948 777.528 932.184 774.118 930.393C769.96 928.197 764.37 919.493 759.165 915.699C735.507 898.453 693.8 865.308 679.086 840.196C676.416 835.635 674.245 827.989 673.502 822.731C672.221 813.674 680.187 774.425 682.839 763.311C687.213 744.983 693.845 727.295 699.163 709.261C698.272 705.985 677.257 693.022 671.894 688.489C649.239 669.397 619.22 633.941 587.549 635.098C567.622 635.827 547.339 644.006 527.649 646.563C495.998 650.661 439.193 645.038 418.592 617.829C411.948 609.039 419.198 610.822 417.008 605.845C407.173 583.431 396.77 586.784 379.79 579.51C354.917 568.853 325.685 557.281 309.947 534.466C306.718 533.773 298.984 559.284 296.787 563.556C286.221 584.16 270.319 601.66 259.897 622.377C241.975 635.258 235.868 658.911 209.709 644.016C194.39 657.489 194.693 673.325 187.981 689.145C186.77 692.002 176.471 712.909 175.668 714.043C168.412 724.185 149.066 719.185 140.63 712.882C116.377 694.755 109.574 699.112 82.4854 689.558C79.3498 688.456 77.2994 685.395 74.2538 684.194C58.209 677.916 37.547 681.281 46.0724 658.438C56.5834 630.259 71.9683 649.17 89.341 648.973C92.8247 648.938 117.118 645.828 120.59 644.94C134.6 641.369 174.182 620.133 170.519 602.769C169.675 598.769 166.149 595.308 165.786 590.809C164.949 580.382 205.803 544.464 214.313 533.47C231.658 511.053 235.981 473.972 259.64 457.515C295.042 432.894 338.634 460.582 376.223 465.316L380.868 461.188L371.78 379.334C354.479 374.251 335.866 378.488 318.661 373.059C302.8 368.056 258.292 349.011 244.431 340.594C237.797 336.567 232.929 329.776 227.12 326.435C216.642 320.424 210.026 327.155 206.638 308.063C204.444 295.661 216.235 292.871 200.855 280.785C199.493 279.721 187.015 274.189 185.119 273.733C172.169 270.641 173.438 281.292 163.525 283.931C159.761 284.935 138.344 288.878 136.525 288.931C131.56 289.071 113.281 269.436 111.283 265.26C108.995 260.485 113.893 256.344 111.46 252.088C107.15 244.56 80.0228 228.899 75.21 219.79C67.6317 205.461 66.6066 182.766 68.2216 166.707C70.218 147.011 72.576 126.711 98.0251 131.431C117.658 135.069 117.025 151.931 121.753 164.137C135.315 181.886 185.164 203.903 206.279 216.956C214.398 221.978 235.504 242.836 245.833 240.303C252.701 238.619 261.469 229.636 268.683 231.471L268.666 231.497Z" fill="#FF0000"/>
</svg>
