<svg width="1169" height="1024" viewBox="0 0 1169 1024" fill="none" xmlns="http://www.w3.org/2000/svg">
<path d="M326.14 181.497C330.817 182.687 363.075 207.473 371.534 212.466C403.777 231.503 418.301 233.302 451.176 244.604C509.871 264.763 520.24 312.711 547.743 362.139C550.134 366.435 554.457 369.154 556.664 373.327C565.2 389.353 564.592 421.663 566.829 440.123C571.345 450.259 580.458 441.081 582.909 448.878L575.454 450.326C576.202 452.515 576.93 453.029 578.834 454.047C583.46 456.498 642.088 462.65 650.851 462.687C669.237 462.762 690.988 460.696 710.074 459.972C726.874 459.336 740.398 452.86 757.737 460.857C771.287 436.283 791.662 416.91 810.141 396.157C813.405 392.483 815.624 385.49 819.196 382.535C824.718 377.977 829.991 381.345 831.834 379.235C833.067 377.826 850.695 349.152 851.36 347.399C855.127 337.457 850.295 327.824 854.229 318.063C858.025 314.787 858.891 317.818 859.714 321.376C861.66 329.831 855.904 340.1 864.349 348.344C871.105 350.373 874.609 321.847 879.309 317.931C883.288 314.633 885.535 318.848 885.745 322.411L890.847 316.792C901.558 330.522 887.382 342.54 885.242 355.943L910.225 336.371C910.113 356.561 891.54 362.106 878.572 373.62C881.316 382.484 887.738 371.094 894.155 371.659L900.368 377.903C890.973 383.963 882.782 388.275 871.543 389.196C867.404 389.536 863.067 386.906 859.581 387.655C843.965 390.996 851.329 395.196 850.946 399.434C850.751 401.62 844.077 407.817 842.318 412.231C837.195 425.062 834.867 429.618 828.722 442.102C820.267 459.261 813.038 476.897 803.475 493.529C812.623 518.147 823.819 541.967 834.491 565.952C836.173 569.739 834.647 574.022 836.741 578.08C841.86 587.99 859.493 605.308 871.315 606.053C879.938 606.59 888.911 599.437 894.734 609.533C905.129 627.561 912.353 673.699 905.418 693.813C893.123 729.47 837.931 744.768 813.337 712.432C808.585 723.447 804.477 734.798 800.198 746.018C797.441 753.265 803.325 757.716 789.829 761.71C813.274 786.975 836.953 816.048 856.26 844.732C859.238 849.151 860.444 856.58 862.955 859.364C868.339 865.345 878.16 860.845 885.01 861.977C897.39 864.028 910.703 868.797 919.417 878.382C909.441 890.544 886.671 863.829 882.822 887.717C880.176 904.162 915.531 900.652 919.786 908.714C921.497 911.949 918.101 912.859 915.052 913.232C904.138 914.587 892.521 908.683 881.523 909.484C885.614 924.531 908.476 923.542 915.512 930.554C922.474 937.493 902.664 935.496 901.144 934.44L907.956 941.659C891.627 944.77 872.741 930.607 864.056 918.054C858.411 909.885 848.222 881.524 841.904 879.783C838.871 878.948 835.003 882.184 831.593 880.393C827.435 878.197 821.845 869.493 816.639 865.699C792.982 848.453 751.274 815.308 736.561 790.196C733.891 785.635 731.72 777.989 730.976 772.731C729.696 763.674 737.662 724.425 740.314 713.311C744.688 694.983 751.32 677.295 756.638 659.261C755.747 655.985 734.732 643.022 729.369 638.489C706.714 619.397 676.694 583.941 645.023 585.098C625.096 585.827 604.814 594.006 585.124 596.563C553.473 600.661 496.667 595.038 476.067 567.829C469.423 559.039 476.673 560.822 474.482 555.845C464.647 533.431 454.245 536.784 437.265 529.51C412.392 518.853 383.16 507.281 367.422 484.466C364.193 483.773 356.459 509.284 354.262 513.556C343.696 534.16 327.794 551.66 317.372 572.377C299.449 585.258 293.343 608.911 267.184 594.016C251.865 607.489 252.168 623.325 245.456 639.145C244.244 642.002 233.946 662.909 233.142 664.043C225.887 674.185 206.541 669.185 198.104 662.882C173.852 644.755 167.048 649.112 139.96 639.558C136.825 638.456 134.774 635.395 131.729 634.194C115.684 627.916 95.0219 631.281 103.547 608.438C114.058 580.259 129.443 599.17 146.816 598.973C150.3 598.938 174.592 595.828 178.065 594.94C192.075 591.369 231.657 570.133 227.994 552.769C227.149 548.769 223.624 545.308 223.261 540.809C222.424 530.382 263.278 494.464 271.788 483.47C289.133 461.053 293.456 423.972 317.115 407.515C352.517 382.894 396.109 410.582 433.698 415.316L438.343 411.188L429.255 329.334C411.954 324.251 393.341 328.488 376.136 323.059C360.275 318.056 315.767 299.011 301.906 290.594C295.271 286.567 290.403 279.776 284.594 276.435C274.117 270.424 267.501 277.155 264.113 258.063C261.919 245.661 273.709 242.871 258.33 230.785C256.967 229.721 244.489 224.189 242.594 223.733C229.644 220.641 230.913 231.292 221 233.931C217.236 234.935 195.819 238.878 194 238.931C189.035 239.071 170.756 219.436 168.758 215.26C166.47 210.485 171.368 206.344 168.935 202.088C164.625 194.56 137.498 178.899 132.685 169.79C125.107 155.461 124.081 132.766 125.696 116.707C127.693 97.0106 130.051 76.7111 155.5 81.4313C175.133 85.0692 174.5 101.931 179.228 114.137C192.79 131.886 242.639 153.903 263.754 166.956C271.873 171.978 292.979 192.836 303.308 190.303C310.176 188.619 318.944 179.636 326.158 181.471L326.14 181.497Z" fill="#FF0000"/>
</svg>
