<svg width="70" height="87" viewBox="0 0 70 87" fill="none" xmlns="http://www.w3.org/2000/svg">
<path d="M33.1567 10.3467C32.6919 10.4629 32.2852 10.6372 31.9365 10.8696C31.5879 11.0633 31.2393 11.3151 30.8906 11.625C30.542 11.8962 30.1546 12.2254 29.7285 12.6128C29.3411 13.0002 28.8569 13.4456 28.2759 13.9492C28.1597 14.724 28.1016 15.4987 28.1016 16.2734C28.1016 17.0869 28.1984 17.7454 28.3921 18.249C28.5858 18.7139 28.7988 19.1206 29.0312 19.4692C29.2637 19.7791 29.4767 20.089 29.6704 20.3989C29.8641 20.6701 29.9609 20.9993 29.9609 21.3867C29.9609 22.2389 30.1934 23.1299 30.6582 24.0596C31.1618 24.9893 31.7622 25.8996 32.4595 26.7905C33.1567 27.6427 33.8734 28.4756 34.6094 29.2891C35.3454 30.0638 35.9845 30.7417 36.5269 31.3228H36.7012C37.0498 31.3228 37.4372 31.1678 37.8633 30.8579C38.3281 30.548 38.7736 30.18 39.1997 29.7539C39.6258 29.2891 39.9744 28.8049 40.2456 28.3013C40.5555 27.7977 40.7104 27.3716 40.7104 27.0229C40.7104 26.6356 40.846 26.2869 41.1172 25.9771C41.3883 25.6284 41.6982 25.2992 42.0469 24.9893C42.4342 24.6406 42.8022 24.3307 43.1509 24.0596C43.5382 23.7497 43.8288 23.4204 44.0225 23.0718V20.5732C44.2549 20.3408 44.4679 20.1278 44.6616 19.9341C44.894 19.7404 45.0877 19.5273 45.2427 19.2949C45.3976 19.0625 45.5138 18.7913 45.5913 18.4814C45.6688 18.1715 45.7075 17.7648 45.7075 17.2612C45.7075 16.9513 45.6882 16.6802 45.6494 16.4478C45.6494 16.1766 45.6494 15.8861 45.6494 15.5762C45.9206 15.1501 46.1917 14.7433 46.4629 14.356C46.734 13.9299 47.0246 13.5231 47.3345 13.1357C47.6831 12.3223 47.6831 11.7412 47.3345 11.3926C47.0246 11.0439 46.5404 10.8115 45.8818 10.6953C45.262 10.5791 44.5841 10.521 43.8481 10.521C43.1121 10.4823 42.5117 10.4048 42.0469 10.2886L41.3496 10.1724C40.8848 10.0949 40.3618 9.95931 39.7808 9.76562C39.1997 9.5332 38.6961 8.97152 38.27 8.08057C37.8052 7.15088 37.6502 6.3374 37.8052 5.64014C37.9989 4.90413 38.3475 4.28434 38.8511 3.78076C39.3547 3.27718 39.9551 2.87044 40.6523 2.56055C41.3496 2.25065 41.9888 2.01823 42.5698 1.86328C43.577 1.55339 44.5648 1.28223 45.5332 1.0498C46.5404 0.817383 47.5475 0.701172 48.5547 0.701172C49.7168 0.701172 50.8595 0.817383 51.9829 1.0498C53.145 1.24349 54.3071 1.34033 55.4692 1.34033C56.7088 1.34033 57.929 1.22412 59.1299 0.991699C60.3695 0.759277 61.609 0.643066 62.8486 0.643066C63.6621 0.643066 64.4368 0.701172 65.1729 0.817383C65.9089 0.933594 66.5674 1.14665 67.1484 1.45654C67.7682 1.7277 68.2912 2.15381 68.7173 2.73486C69.1434 3.27718 69.4533 3.97445 69.647 4.82666C69.8407 5.71761 69.8794 6.43424 69.7632 6.97656C69.647 7.51888 69.647 7.94499 69.7632 8.25488C69.2209 9.64941 68.4849 10.6566 67.5552 11.2764C66.6642 11.8962 65.6958 12.3416 64.6499 12.6128C63.604 12.884 62.5387 13.1164 61.4541 13.3101C60.3695 13.465 59.401 13.7943 58.5488 14.2979C57.6966 14.8014 56.98 15.5955 56.3989 16.6802C55.8566 17.7648 55.5854 19.3337 55.5854 21.3867C55.0431 21.7354 54.4814 22.2196 53.9004 22.8394C53.3193 23.4204 52.7576 24.0596 52.2153 24.7568C51.7118 25.4541 51.2275 26.1707 50.7627 26.9067C50.3366 27.604 50.0073 28.2432 49.7749 28.8242C50.201 28.9792 50.4334 29.2116 50.4722 29.5215C50.1623 30.0638 49.9105 30.6449 49.7168 31.2646C49.5231 31.8844 49.2713 32.4655 48.9614 33.0078C48.729 33.4339 48.4772 33.7632 48.2061 33.9956C47.9736 34.1893 47.7412 34.4217 47.5088 34.6929C47.3151 34.9253 47.1408 35.2546 46.9858 35.6807C46.8696 36.068 46.8115 36.6491 46.8115 37.4238C46.8115 37.7725 46.7728 38.1211 46.6953 38.4697C46.6178 38.7796 46.4048 39.0701 46.0562 39.3413C45.0877 40.116 44.2936 41.1038 43.6738 42.3047C43.0928 43.4668 42.6279 44.7257 42.2793 46.0815C41.9694 47.3986 41.7563 48.7544 41.6401 50.1489C41.5239 51.5047 41.4658 52.7637 41.4658 53.9258C41.4658 54.9717 41.6208 55.9982 41.9307 57.0054C42.2793 58.0125 42.4536 59.0391 42.4536 60.085C42.4536 61.1309 42.3761 62.1961 42.2212 63.2808C42.0662 64.3267 41.9888 65.3726 41.9888 66.4185C41.9888 66.9608 42.0275 67.4837 42.105 67.9873C42.1825 68.4521 42.2212 68.9364 42.2212 69.4399C42.2212 69.9823 42.2018 70.4277 42.1631 70.7764C42.1631 71.125 42.1631 71.4349 42.1631 71.7061C42.1631 72.1322 42.2599 72.5002 42.4536 72.8101C42.6473 73.12 43.0734 73.6623 43.7319 74.437C43.8869 74.6307 44.0999 74.9406 44.3711 75.3667C44.681 75.7928 44.9521 76.0059 45.1846 76.0059C45.8431 76.0059 46.4823 75.9284 47.1021 75.7734C47.7606 75.5798 48.3997 75.3861 49.0195 75.1924C49.6781 74.96 50.3172 74.7663 50.937 74.6113C51.5955 74.4176 52.2734 74.3208 52.9707 74.3208C53.0482 74.3208 53.2612 74.3595 53.6099 74.437C53.9972 74.5145 54.404 74.6113 54.8301 74.7275C55.2949 74.8438 55.7404 74.96 56.1665 75.0762C56.6313 75.1536 56.9993 75.2118 57.2705 75.2505C57.4255 75.5216 57.561 75.7928 57.6772 76.064C57.8322 76.2964 57.9678 76.5675 58.084 76.8774C58.4326 77.0324 58.82 77.2067 59.2461 77.4004C59.7109 77.5553 60.137 77.7684 60.5244 78.0396C60.9118 78.272 61.241 78.5625 61.5122 78.9111C61.7834 79.2598 61.9189 79.6665 61.9189 80.1313C61.9189 80.7124 61.8221 81.2935 61.6284 81.8745C61.4735 82.4168 61.396 82.9785 61.396 83.5596C61.396 84.0632 60.9505 84.4505 60.0596 84.7217C59.1686 84.9928 58.1421 85.2059 56.98 85.3608C55.8179 85.4771 54.6945 85.5545 53.6099 85.5933C52.5252 85.632 51.7892 85.6514 51.4019 85.6514C48.7677 85.6514 46.153 85.5545 43.5576 85.3608C41.001 85.1672 38.4056 85.0703 35.7715 85.0703C34.1058 85.0703 32.4595 85.2253 30.8325 85.5352C29.2443 85.8063 27.6367 85.9419 26.0098 85.9419C25.1188 85.9419 24.2472 85.8257 23.395 85.5933C22.5428 85.3608 21.6712 85.2446 20.7803 85.2446C19.7731 85.2446 18.7853 85.4189 17.8169 85.7676C16.8872 86.0775 15.9188 86.2324 14.9116 86.2324C14.3306 86.2324 13.8076 86.1549 13.3428 86C13.3428 85.4964 13.2266 85.0316 12.9941 84.6055C12.8005 84.1794 12.568 83.7726 12.2969 83.3853C12.0645 82.9591 11.832 82.533 11.5996 82.1069C11.4059 81.6808 11.3091 81.216 11.3091 80.7124C11.3091 79.7827 11.7158 79.0273 12.5293 78.4463C13.3815 77.8265 14.4468 77.3423 15.7251 76.9937C17.0034 76.6063 18.4173 76.3158 19.9668 76.1221C21.555 75.9284 23.1045 75.7928 24.6152 75.7153C26.126 75.5991 27.5011 75.5216 28.7407 75.4829C29.9803 75.4442 30.9294 75.3667 31.5879 75.2505C31.9753 74.5145 32.2852 73.6042 32.5176 72.5195C32.75 71.4349 32.9243 70.2728 33.0405 69.0332C33.1955 67.7549 33.2923 66.4378 33.3311 65.082C33.3698 63.7262 33.3892 62.3898 33.3892 61.0728C33.3892 59.2909 33.4085 57.6445 33.4473 56.1338C33.486 54.5843 33.4473 53.1123 33.3311 51.7178C33.2536 50.3232 33.0793 48.9868 32.8081 47.7085C32.5757 46.3914 32.1689 45.0744 31.5879 43.7573C31.0843 42.634 30.4064 41.6462 29.5542 40.7939C28.7407 39.9417 28.0241 38.9927 27.4043 37.9468C26.7458 36.8234 26.2228 35.6419 25.8354 34.4023C25.4481 33.124 24.9251 31.9038 24.2666 30.7417C22.9108 28.3013 21.6519 25.8415 20.4897 23.3623C19.3664 20.8444 18.3592 18.249 17.4683 15.5762C16.9259 15.4987 16.5192 15.3631 16.248 15.1694C15.9769 14.9757 15.7445 14.7627 15.5508 14.5303C15.3958 14.2979 15.2215 14.0654 15.0278 13.833C14.8341 13.5618 14.5436 13.3294 14.1562 13.1357C13.6914 12.9033 13.0329 12.729 12.1807 12.6128C11.3285 12.4578 10.3988 12.3223 9.3916 12.2061C8.38444 12.0511 7.35791 11.8768 6.31201 11.6831C5.30485 11.4894 4.37516 11.257 3.52295 10.9858C2.67074 10.6759 1.97347 10.2886 1.43115 9.82373C0.888835 9.32015 0.617676 8.70036 0.617676 7.96436C0.617676 7.15088 0.888835 6.3374 1.43115 5.52393C1.97347 4.71045 2.51579 4.01318 3.05811 3.43213C3.6779 2.7736 4.49137 2.25065 5.49854 1.86328C6.54443 1.47591 7.62907 1.18538 8.75244 0.991699C9.91455 0.759277 11.0767 0.623698 12.2388 0.584961C13.4396 0.507487 14.5243 0.46875 15.4927 0.46875H16.7129L20.4316 0.526855C21.4388 0.526855 22.3879 0.623698 23.2788 0.817383C24.1698 0.972331 25.0413 1.16602 25.8936 1.39844C26.7458 1.63086 27.598 1.88265 28.4502 2.15381C29.3411 2.38623 30.2902 2.57992 31.2974 2.73486C32.0334 2.7736 32.6338 3.1416 33.0986 3.83887C33.5635 4.4974 33.8734 5.25277 34.0283 6.10498C34.1833 6.95719 34.1833 7.79004 34.0283 8.60352C33.9121 9.41699 33.6216 9.99805 33.1567 10.3467Z" fill="white"/>
</svg>
